<svg xmlns="http://www.w3.org/2000/svg" viewBox="0 0 123.07 38.18"><title>mendix_logo_white</title><g id="Layer_2" data-name="Layer 2"><g id="Background_4_open.jpg_Image" data-name="Background + 4_open.jpg Image"><path d="M33.09,0h-28A5.1,5.1,0,0,0,0,5.09v28a5.1,5.1,0,0,0,5.09,5.09h28a5.09,5.09,0,0,0,5.09-5.09v-28A5.1,5.1,0,0,0,33.09,0Zm1,26H30l-1.55-3.12L26.94,26H19.09V16.08a1.53,1.53,0,0,0-1.55-1.48A1.52,1.52,0,0,0,16,16.08V26H11.92V16.06a1.55,1.55,0,0,0-1.55-1.49,1.52,1.52,0,0,0-1.55,1.49V26H4.72V12.18h4.1v1.61h.07a3.32,3.32,0,0,1,1.44-1.26,5.34,5.34,0,0,1,2-.35,4,4,0,0,1,1.94.46,3.45,3.45,0,0,1,1.34,1.23,4.67,4.67,0,0,1,1.62-1.27,5.42,5.42,0,0,1,3.59-.21A3.94,3.94,0,0,1,22,13a3,3,0,0,1,.8.9,3.2,3.2,0,0,1,.39,1.43v10l3.18-6.25-3.51-6.91h4.1l1.55,3.12L30,12.18h4.1l-3.51,6.91Z" style="fill:#fff"/><path d="M103.45,10.16a3.88,3.88,0,0,0-3.67-3.69,3,3,0,0,0-.42,0v6.78a3.26,3.26,0,0,0-1.13-.8,5.08,5.08,0,0,0-2-.35,3.7,3.7,0,0,0-2.43.7,4,4,0,0,0-1.24,1.77,7.82,7.82,0,0,0-.41,2.31c0,.66,0,1.26,0,1.82h0v.43c0,.7,0,1.48,0,2.33a8.75,8.75,0,0,0,.41,2.35,4,4,0,0,0,1.24,1.81,3.74,3.74,0,0,0,2.51.75,5,5,0,0,0,2.11-.4,2.55,2.55,0,0,0,.88-.63V26h4.11V10.25h0ZM99.36,16.7v5.91a1.44,1.44,0,0,1-1,1.28,1.13,1.13,0,0,1-.45.09h0s-1.94.37-1.94-4.77c0-2.45.45-3.65.91-4.22L97,14.8a.59.59,0,0,1,.25-.16.92.92,0,0,1,.64-.17,1.48,1.48,0,0,1,.74.21s0,0,0,0A1.53,1.53,0,0,1,99.38,16v.66Z" style="fill:#fff"/><path d="M73.1,22.39a1.4,1.4,0,0,1-1,1.23,3.61,3.61,0,0,1-.5.09A1.4,1.4,0,0,1,70,22.41a26.07,26.07,0,0,1-.13-2.66h7.3a29.51,29.51,0,0,0,0-3,6.23,6.23,0,0,0-.72-2.37,4.18,4.18,0,0,0-1.73-1.59,7,7,0,0,0-3.11-.58,7.36,7.36,0,0,0-3.06.54,4.12,4.12,0,0,0-1.71,1.46,5.19,5.19,0,0,0-.74,2.15,21.48,21.48,0,0,0-.16,2.6,21,21,0,0,0,.18,2.86,5.65,5.65,0,0,0,.77,2.25,3.92,3.92,0,0,0,1.71,1.46,7.14,7.14,0,0,0,3,.54A7.81,7.81,0,0,0,74,25.73a4.87,4.87,0,0,0,1.71-.95,3.92,3.92,0,0,0,1.48-3H73.1A3.66,3.66,0,0,1,73.1,22.39ZM70,16a1.57,1.57,0,0,1,1.55-1.49A1.49,1.49,0,0,1,73.12,16a11.52,11.52,0,0,1,0,1.65H69.93C70,16.57,70,16.6,70,16Z" style="fill:#fff"/><path d="M64.15,15.3a3.59,3.59,0,0,0-.41-1.43,2.87,2.87,0,0,0-.8-.9,3.82,3.82,0,0,0-1.16-.58,5.39,5.39,0,0,0-3.58.21,4.61,4.61,0,0,0-1.63,1.27,3.45,3.45,0,0,0-1.34-1.23,4.21,4.21,0,0,0-1.94-.46,5.42,5.42,0,0,0-2,.35,3.32,3.32,0,0,0-1.44,1.26h-.06V12.18H45.68V26h4.11V16h0a1.55,1.55,0,0,1,3.09,0h0V26H57V16.08a1.55,1.55,0,0,1,3.09,0h0V26h4.1V15.3Z" style="fill:#fff"/><path d="M90,13.87a3,3,0,0,0-.81-.9,3.89,3.89,0,0,0-1.15-.58,5.45,5.45,0,0,0-1.4-.21,4.83,4.83,0,0,0-2,.37,3.2,3.2,0,0,0-1.45,1.24h-.06V12.18h-4.1V26h4.1V16.06h0a1.55,1.55,0,0,1,3.09,0h0V26h4.11V15.09A3,3,0,0,0,90,13.87Z" style="fill:#fff"/><polygon points="123.07 12.18 118.97 12.18 117.42 15.3 115.88 12.18 111.77 12.18 115.28 19.09 111.77 26 115.88 26 117.42 22.88 118.97 26 123.07 26 119.57 19.09 123.07 12.18" style="fill:#fff"/><path d="M110,26h-4.1V12.18H110Z" style="fill:#fff"/><path d="M109.4,10.16h-2.8a.64.64,0,0,1-.64-.64V7.09a.64.64,0,0,1,.64-.64h2.8a.64.64,0,0,1,.64.64V9.52A.64.64,0,0,1,109.4,10.16Z" style="fill:#fff"/></g></g></svg>