<svg width="413" height="44" viewBox="0 0 413 44" fill="none" xmlns="http://www.w3.org/2000/svg">
<path d="M411.355 28.8727H189.707L187.731 36.7581L183.781 20.9873L181.806 28.8727H148.226" stroke="url(#paint0_linear_2_176)" stroke-width="1.5" stroke-linecap="round" stroke-linejoin="round"/>
<path d="M0 42.8236V3.15415H12.4953C14.6789 3.15415 16.7008 3.35634 18.561 3.76072C20.4615 4.1651 22.0993 4.85254 23.4742 5.82305C24.849 6.79355 25.9206 8.06734 26.689 9.64442C27.4573 11.1811 27.8414 13.1019 27.8414 15.4068C27.8414 17.5904 27.4573 19.491 26.689 21.1085C25.9206 22.7261 24.849 24.0807 23.4742 25.1725C22.1397 26.2239 20.5424 27.0125 18.6823 27.5382C16.8626 28.0234 14.8811 28.266 12.7379 28.266H7.03618V42.8236H0ZM7.03618 22.625H12.192C18.015 22.625 20.9266 20.2189 20.9266 15.4068C20.9266 12.8997 20.1583 11.1811 18.6216 10.251C17.1254 9.28048 14.9013 8.79522 11.9494 8.79522H7.03618V22.625Z" fill="url(#paint1_linear_2_176)"/>
<path d="M43.5534 43.5515C40.3588 43.5515 38.0337 42.5406 36.5779 40.5187C35.1221 38.4564 34.3943 35.5246 34.3943 31.7235V13.0412H41.3698V30.8136C41.3698 33.2803 41.7337 35.0191 42.4616 36.0301C43.1895 37.041 44.3622 37.5465 45.9797 37.5465C47.2737 37.5465 48.406 37.223 49.3765 36.576C50.3874 35.929 51.459 34.8776 52.5913 33.4219V13.0412H59.5668V42.8236H53.8651L53.3192 38.4564H53.1372C51.8432 39.993 50.4279 41.2264 48.8912 42.1564C47.395 43.0865 45.6158 43.5515 43.5534 43.5515Z" fill="url(#paint2_linear_2_176)"/>
<path d="M75.1959 43.5515C72.6887 43.5515 70.9297 42.8034 69.9187 41.3072C68.9078 39.811 68.4023 37.7689 68.4023 35.1809V0H75.3778V35.5448C75.3778 36.394 75.5396 37.0006 75.8631 37.3645C76.1866 37.688 76.5303 37.8498 76.8942 37.8498C77.056 37.8498 77.1975 37.8498 77.3188 37.8498C77.4806 37.8498 77.703 37.8094 77.9861 37.7285L78.8959 42.945C77.9658 43.3493 76.7325 43.5515 75.1959 43.5515Z" fill="url(#paint3_linear_2_176)"/>
<path d="M93.1796 43.5515C91.1173 43.5515 89.0752 43.1674 87.0533 42.3991C85.0718 41.5903 83.3532 40.5996 81.8975 39.4269L85.1729 34.9383C86.5074 35.9897 87.8216 36.8186 89.1156 37.4252C90.4501 37.9913 91.8856 38.2744 93.4223 38.2744C95.0398 38.2744 96.2327 37.9509 97.001 37.3039C97.7693 36.6164 98.1535 35.747 98.1535 34.6956C98.1535 34.0891 97.9715 33.5634 97.6076 33.1186C97.2436 32.6333 96.7584 32.2087 96.1518 31.8448C95.5452 31.4808 94.8578 31.1573 94.0895 30.8743C93.3212 30.5508 92.5528 30.2273 91.7845 29.9038C90.814 29.5398 89.8233 29.1152 88.8123 28.63C87.8014 28.1447 86.8916 27.5584 86.0828 26.8709C85.3145 26.1835 84.6675 25.3949 84.1418 24.5053C83.6565 23.5752 83.4139 22.4834 83.4139 21.2299C83.4139 18.6014 84.3844 16.4582 86.3254 14.8002C88.2664 13.1423 90.9151 12.3133 94.2715 12.3133C96.3338 12.3133 98.1939 12.6773 99.8519 13.4051C101.51 14.133 102.945 14.962 104.159 15.8921L100.944 20.138C99.8923 19.3697 98.8207 18.7631 97.7289 18.3183C96.6775 17.8331 95.5655 17.5904 94.3928 17.5904C92.8966 17.5904 91.7845 17.914 91.0566 18.561C90.3692 19.1675 90.0255 19.9358 90.0255 20.8659C90.0255 21.4725 90.1872 21.9982 90.5107 22.443C90.8747 22.8474 91.3397 23.2113 91.9058 23.5348C92.472 23.8583 93.119 24.1616 93.8469 24.4447C94.6152 24.7277 95.4037 25.0108 96.2125 25.2939C97.2234 25.6578 98.2344 26.0824 99.2453 26.5676C100.256 27.0125 101.166 27.5786 101.975 28.266C102.824 28.9535 103.491 29.8027 103.977 30.8136C104.502 31.7841 104.765 32.9568 104.765 34.3317C104.765 35.6257 104.502 36.8388 103.977 37.9711C103.491 39.0629 102.763 40.0334 101.793 40.8826C100.822 41.6914 99.6092 42.3384 98.1535 42.8236C96.6977 43.3089 95.0398 43.5515 93.1796 43.5515Z" fill="url(#paint4_linear_2_176)"/>
<path d="M123.73 43.5515C121.668 43.5515 119.747 43.2078 117.968 42.5204C116.189 41.7925 114.632 40.7613 113.297 39.4269C111.963 38.0924 110.911 36.4749 110.143 34.5743C109.415 32.6333 109.051 30.4295 109.051 27.9627C109.051 25.5365 109.435 23.3528 110.204 21.4118C110.972 19.4708 111.983 17.8331 113.237 16.4986C114.531 15.1642 116.007 14.133 117.665 13.4051C119.323 12.6773 121.021 12.3133 122.76 12.3133C124.782 12.3133 126.561 12.657 128.098 13.3445C129.634 14.0319 130.908 15.0024 131.919 16.256C132.97 17.5096 133.759 19.0058 134.285 20.7446C134.81 22.4834 135.073 24.384 135.073 26.4463C135.073 27.1338 135.033 27.7808 134.952 28.3873C134.911 28.9939 134.851 29.4792 134.77 29.8431H115.845C116.168 32.512 117.098 34.5743 118.635 36.0301C120.212 37.4454 122.214 38.1531 124.64 38.1531C125.934 38.1531 127.127 37.9711 128.219 37.6072C129.351 37.2028 130.463 36.6569 131.555 35.9694L133.921 40.3367C132.505 41.2668 130.928 42.0351 129.189 42.6417C127.451 43.2482 125.631 43.5515 123.73 43.5515ZM115.784 25.1119H129.007C129.007 22.8069 128.502 21.0074 127.491 19.7134C126.52 18.379 125.004 17.7118 122.942 17.7118C121.162 17.7118 119.606 18.3385 118.271 19.5921C116.937 20.8457 116.108 22.6856 115.784 25.1119Z" fill="url(#paint5_linear_2_176)"/>
<defs>
<linearGradient id="paint0_linear_2_176" x1="148" y1="29" x2="411" y2="29" gradientUnits="userSpaceOnUse">
<stop stop-color="#7F3EDC"/>
<stop offset="1" stop-color="#7F3EDC" stop-opacity="0"/>
</linearGradient>
<linearGradient id="paint1_linear_2_176" x1="20" y1="-11.5" x2="87.5" y2="56" gradientUnits="userSpaceOnUse">
<stop stop-color="#745CEB"/>
<stop offset="1" stop-color="#8040DC"/>
</linearGradient>
<linearGradient id="paint2_linear_2_176" x1="20" y1="-11.5" x2="87.5" y2="56" gradientUnits="userSpaceOnUse">
<stop stop-color="#745CEB"/>
<stop offset="1" stop-color="#8040DC"/>
</linearGradient>
<linearGradient id="paint3_linear_2_176" x1="20" y1="-11.5" x2="87.5" y2="56" gradientUnits="userSpaceOnUse">
<stop stop-color="#745CEB"/>
<stop offset="1" stop-color="#8040DC"/>
</linearGradient>
<linearGradient id="paint4_linear_2_176" x1="20" y1="-11.5" x2="87.5" y2="56" gradientUnits="userSpaceOnUse">
<stop stop-color="#745CEB"/>
<stop offset="1" stop-color="#8040DC"/>
</linearGradient>
<linearGradient id="paint5_linear_2_176" x1="20" y1="-11.5" x2="87.5" y2="56" gradientUnits="userSpaceOnUse">
<stop stop-color="#745CEB"/>
<stop offset="1" stop-color="#8040DC"/>
</linearGradient>
</defs>
</svg>
