<?xml version="1.0" encoding="UTF-8"?>
<svg id="Layer_1" data-name="Layer 1" xmlns="http://www.w3.org/2000/svg" version="1.1" viewBox="0 0 300 244">
  <defs>
    <style>
      .cls-1 {
        fill: #3443f4;
        stroke-width: 0px;
      }
    </style>
  </defs>
  <path class="cls-1" d="M299.9,200.8h0c-1.4-4.5-14.5-9.4-11.3-12.6,2.4-2.4,1.7-8.1-1.3-12-2.8-3.7-6.9-5.7-11-8-2-1.1-4.9-1.8-7.1-2.4-6.4-1.6-19.5-3.3-26-3.9-1.3-.1-3.2-.2-3.6-1.7-.2-.7,2.7-10.7,2.9-11.3.4-1.1.9-3.5,1.4-5.4,1-3.7,1.3-6.5,1.7-10.3,2-19.2-2.7-40.5-10.3-59-9.3-22.3-22.6-43.3-41.6-58.6C179.9,4.8,165.3-.6,147.8,0c-47.3.5-75.6,48.9-87.9,85.8-6.2,18.3-8.2,36.3-4.5,54.1,1.3,6,6.3,18.5,5.6,19.8-.9,2.1-8.1,2.5-10.5,2.9-4.7.7-18.6,2.1-23.1,3.8-8.2,3.1-13.4,5.7-18.1,13-2.6,4.2-2.4,5-1.9,7.1.6,2.1,2.9,1.9,1.6,3.2-2.1,2.1-8.6,8.3-8.9,11.4-.6,5,1.1,7.7,4,11.3,15.4,18.4,40.5,19.8,65.2,7.4.7-.3,1.4,0,1.6.7.8,3.7,2,7.7,5.2,10.7,13.7,12.7,32.1,17.8,47.2,6.4,5.1-3.8,6.9-9,8.7-12.7,2.2-4.5,4.1-10.6,8.3-12.7,10.4-5.4,22.8-2.3,26,4.1,2.4,4.7,6.7,15.5,10.9,18.8,8.2,6.5,12.5,8.2,22.7,8,8.6-.3,18.5-1.8,24.9-7.9,4.6-4.3,6-12.2,9.7-12.9,2.2-.5,8.5,3.3,13.5,4.6,10.8,2.7,21.5,2,31.9-2.4,13.1-5.2,21.2-17.2,20.1-23.8ZM110.4,156.8c-13.9,0-25.3-11.3-25.3-25.3s11.3-25.3,25.3-25.3,25.3,11.3,25.3,25.3-11.3,25.3-25.3,25.3ZM191.5,156.8c-13.9,0-25.3-11.3-25.3-25.3s11.3-25.3,25.3-25.3,25.3,11.3,25.3,25.3-11.3,25.3-25.3,25.3Z"/>
  <path class="cls-1" d="M110.4,131.6l12.4-13.1c-3.2-3.1-7.6-5-12.4-5-10,0-18,8.1-18,18s8.1,18,18,18,17.8-8.3,18-18h-18Z"/>
  <path class="cls-1" d="M191.5,131.6l12.4-13.1c-3.2-3.1-7.6-5-12.4-5-10,0-18,8.1-18,18s8.1,18,18,18,17.8-8.3,18-18h-18Z"/>
</svg>