<?xml version="1.0" encoding="utf-8"?>
<svg viewBox="195.218 213.259 370.397 101.588" xmlns="http://www.w3.org/2000/svg">
  <path d="M 195.856 293.1549987792969 L 219.182 219.5389987792969 L 244.541 219.5389987792969 L 267.974 293.1549987792969 L 249.142 293.1549987792969 L 244.755 278.7099987792969 L 218.54 278.7099987792969 L 214.26 293.1549987792969 Z M 222.499 264.6929987792969 L 240.689 264.6929987792969 L 231.915 235.58899877929687 L 231.166 235.58899877929687 Z M 271.24828833007814 314.4479987792969 L 271.24828833007814 238.58499877929688 L 287.51228833007815 238.58499877929688 L 287.94028833007815 245.21899877929687 L 288.9032883300781 245.21899877929687 Q 290.6152883300781 242.1159987792969 293.02278833007813 240.51099877929687 Q 295.4302883300781 238.90599877929688 298.42628833007814 238.31749877929687 Q 301.4222883300781 237.7289987792969 304.4182883300781 237.7289987792969 Q 309.23328833007815 237.7289987792969 312.60378833007815 239.01299877929688 Q 315.97428833007814 240.29699877929687 318.1677883300781 243.45349877929686 Q 320.36128833007814 246.60999877929686 321.37778833007815 252.06699877929688 Q 322.3942883300781 257.5239987792969 322.3942883300781 265.7629987792969 Q 322.3942883300781 273.8949987792969 321.37778833007815 279.3519987792969 Q 320.36128833007814 284.80899877929687 318.2212883300781 288.01899877929685 Q 316.0812883300781 291.2289987792969 312.7107883300781 292.61999877929685 Q 309.3402883300781 294.01099877929687 304.5252883300781 294.01099877929687 Q 301.4222883300781 294.01099877929687 298.5332883300781 293.4759987792969 Q 295.6442883300781 292.9409987792969 293.3437883300781 291.49649877929687 Q 291.0432883300781 290.05199877929687 289.3312883300781 287.37699877929685 L 288.36828833007814 287.37699877929685 L 288.36828833007814 314.4479987792969 Z M 296.71428833007815 279.8869987792969 Q 299.6032883300781 279.8869987792969 301.31528833007815 279.45899877929685 Q 303.02728833007814 279.03099877929685 303.82978833007815 277.6934987792969 Q 304.63228833007815 276.3559987792969 304.89978833007814 273.57399877929686 Q 305.1672883300781 270.7919987792969 305.1672883300781 265.86999877929685 Q 305.1672883300781 260.9479987792969 304.89978833007814 258.11249877929686 Q 304.63228833007815 255.2769987792969 303.82978833007815 253.93949877929688 Q 303.02728833007814 252.60199877929688 301.31528833007815 252.22749877929687 Q 299.6032883300781 251.85299877929688 296.71428833007815 251.85299877929688 Q 293.61128833007814 251.85299877929688 291.95278833007814 252.65549877929686 Q 290.29428833007813 253.45799877929687 289.43828833007814 255.38399877929686 Q 288.79628833007814 257.0959987792969 288.58228833007814 259.7174987792969 Q 288.36828833007814 262.3389987792969 288.36828833007814 265.86999877929685 Q 288.36828833007814 269.5079987792969 288.58228833007814 272.07599877929687 Q 288.79628833007814 274.64399877929685 289.3312883300781 276.1419987792969 Q 290.1872883300781 278.2819987792969 291.89928833007815 279.0844987792969 Q 293.61128833007814 279.8869987792969 296.71428833007815 279.8869987792969 Z M 329.64977758789064 314.4479987792969 L 329.64977758789064 238.58499877929688 L 345.91377758789065 238.58499877929688 L 346.34177758789065 245.21899877929687 L 347.3047775878906 245.21899877929687 Q 349.0167775878906 242.1159987792969 351.42427758789063 240.51099877929687 Q 353.8317775878906 238.90599877929688 356.82777758789064 238.31749877929687 Q 359.8237775878906 237.7289987792969 362.8197775878906 237.7289987792969 Q 367.63477758789065 237.7289987792969 371.00527758789065 239.01299877929688 Q 374.37577758789064 240.29699877929687 376.5692775878906 243.45349877929686 Q 378.76277758789064 246.60999877929686 379.77927758789065 252.06699877929688 Q 380.7957775878906 257.5239987792969 380.7957775878906 265.7629987792969 Q 380.7957775878906 273.8949987792969 379.77927758789065 279.3519987792969 Q 378.76277758789064 284.80899877929687 376.6227775878906 288.01899877929685 Q 374.4827775878906 291.2289987792969 371.1122775878906 292.61999877929685 Q 367.7417775878906 294.01099877929687 362.9267775878906 294.01099877929687 Q 359.8237775878906 294.01099877929687 356.9347775878906 293.4759987792969 Q 354.0457775878906 292.9409987792969 351.7452775878906 291.49649877929687 Q 349.4447775878906 290.05199877929687 347.7327775878906 287.37699877929685 L 346.76977758789064 287.37699877929685 L 346.76977758789064 314.4479987792969 Z M 355.11577758789065 279.8869987792969 Q 358.0047775878906 279.8869987792969 359.71677758789065 279.45899877929685 Q 361.42877758789064 279.03099877929685 362.23127758789065 277.6934987792969 Q 363.03377758789065 276.3559987792969 363.30127758789064 273.57399877929686 Q 363.5687775878906 270.7919987792969 363.5687775878906 265.86999877929685 Q 363.5687775878906 260.9479987792969 363.30127758789064 258.11249877929686 Q 363.03377758789065 255.2769987792969 362.23127758789065 253.93949877929688 Q 361.42877758789064 252.60199877929688 359.71677758789065 252.22749877929687 Q 358.0047775878906 251.85299877929688 355.11577758789065 251.85299877929688 Q 352.01277758789064 251.85299877929688 350.35427758789064 252.65549877929686 Q 348.69577758789063 253.45799877929687 347.83977758789064 255.38399877929686 Q 347.19777758789064 257.0959987792969 346.98377758789064 259.7174987792969 Q 346.76977758789064 262.3389987792969 346.76977758789064 265.86999877929685 Q 346.76977758789064 269.5079987792969 346.98377758789064 272.07599877929687 Q 347.19777758789064 274.64399877929685 347.7327775878906 276.1419987792969 Q 348.5887775878906 278.2819987792969 350.30077758789065 279.0844987792969 Q 352.01277758789064 279.8869987792969 355.11577758789065 279.8869987792969 Z M 392.95824853515626 293.1549987792969 L 392.95824853515626 251.63899877929688 L 383.00724853515624 251.63899877929688 L 383.00724853515624 238.58499877929688 L 392.95824853515626 238.58499877929688 L 392.95824853515626 222.74899877929687 L 410.29224853515626 222.74899877929687 L 410.29224853515626 238.58499877929688 L 422.16924853515627 238.58499877929688 L 422.16924853515627 251.63899877929688 L 410.29224853515626 251.63899877929688 L 410.29224853515626 293.1549987792969 Z M 426.85229223632814 293.1549987792969 L 426.85229223632814 238.58499877929688 L 443.11629223632815 238.58499877929688 L 443.54429223632815 247.89399877929688 L 444.5072922363281 247.89399877929688 Q 446.0052922363281 243.93499877929688 448.3057922363281 241.6879987792969 Q 450.6062922363281 239.44099877929688 453.9232922363281 238.58499877929688 Q 457.2402922363281 237.7289987792969 461.6272922363281 237.7289987792969 L 461.6272922363281 253.45799877929687 Q 454.88629223632813 253.45799877929687 451.0342922363281 255.16999877929686 Q 447.1822922363281 256.88199877929685 445.5772922363281 261.00149877929687 Q 443.97229223632814 265.1209987792969 443.97229223632814 272.50399877929686 L 443.97229223632814 293.1549987792969 Z M 478.72127490234374 294.01099877929687 Q 473.58527490234377 294.01099877929687 470.05427490234376 292.40599877929685 Q 466.52327490234376 290.8009987792969 464.7577749023437 287.16299877929686 Q 462.99227490234375 283.5249987792969 462.99227490234375 277.6399987792969 Q 462.99227490234375 271.43399877929687 464.43677490234376 267.74249877929685 Q 465.88127490234376 264.0509987792969 469.62627490234377 262.4459987792969 Q 473.37127490234377 260.84099877929685 480.2192749023437 260.84099877929685 Q 481.18227490234375 260.84099877929685 482.9477749023437 260.8944987792969 Q 484.71327490234376 260.9479987792969 486.96027490234377 261.00149877929687 Q 489.2072749023437 261.05499877929685 491.45427490234374 261.1084987792969 Q 493.70127490234376 261.1619987792969 495.5202749023438 261.26899877929685 L 495.5202749023438 259.2359987792969 Q 495.5202749023438 256.1329987792969 495.03877490234373 254.42099877929687 Q 494.55727490234375 252.70899877929688 493.2197749023438 251.90649877929687 Q 491.88227490234374 251.1039987792969 489.2072749023437 250.94349877929687 Q 486.5322749023438 250.78299877929686 482.1452749023438 250.78299877929686 Q 479.68427490234376 250.78299877929686 476.74177490234376 250.8899987792969 Q 473.79927490234377 250.99699877929686 470.96377490234374 251.15749877929687 Q 468.1282749023438 251.3179987792969 466.20227490234373 251.53199877929688 L 466.20227490234373 239.44099877929688 Q 470.58927490234373 238.69199877929688 476.09977490234377 238.21049877929687 Q 481.61027490234375 237.7289987792969 487.70927490234374 237.7289987792969 Q 494.55727490234375 237.7289987792969 499.10477490234376 238.58499877929688 Q 503.6522749023437 239.44099877929688 506.43427490234376 241.20649877929688 Q 509.21627490234374 242.97199877929688 510.5537749023438 245.6469987792969 Q 511.89127490234375 248.32199877929688 512.3192749023438 251.95999877929688 Q 512.7472749023437 255.59799877929686 512.7472749023437 260.19899877929686 L 512.7472749023437 293.1549987792969 L 496.26927490234374 293.1549987792969 L 495.84127490234374 286.73499877929686 L 494.98527490234375 286.73499877929686 Q 492.95227490234373 289.9449987792969 490.2772749023437 291.54999877929686 Q 487.60227490234377 293.1549987792969 484.6062749023437 293.5829987792969 Q 481.61027490234375 294.01099877929687 478.72127490234374 294.01099877929687 Z M 486.85327490234374 281.8129987792969 Q 488.77927490234373 281.8129987792969 490.22377490234373 281.54549877929685 Q 491.66827490234374 281.27799877929687 492.68477490234375 280.5824987792969 Q 493.70127490234376 279.8869987792969 494.34327490234375 278.81699877929685 Q 494.8782749023437 277.6399987792969 495.19927490234375 275.9279987792969 Q 495.5202749023438 274.21599877929685 495.5202749023438 271.86199877929687 L 495.5202749023438 269.82899877929685 L 485.56927490234375 269.82899877929685 Q 482.89427490234374 269.82899877929685 481.5032749023438 270.20349877929686 Q 480.11227490234376 270.5779987792969 479.6307749023438 271.91549877929685 Q 479.14927490234373 273.2529987792969 479.14927490234373 276.03499877929687 Q 479.14927490234373 278.38899877929686 479.68427490234376 279.6729987792969 Q 480.2192749023437 280.9569987792969 481.87777490234373 281.3849987792969 Q 483.53627490234373 281.8129987792969 486.85327490234374 281.8129987792969 Z M 521.5907153320312 227.4569987792969 L 521.5907153320312 213.65399877929687 L 539.2457153320313 213.65399877929687 L 539.2457153320313 227.4569987792969 Z M 521.8047153320313 293.1549987792969 L 521.8047153320313 238.58499877929688 L 539.1387153320312 238.58499877929688 L 539.1387153320312 293.1549987792969 Z M 548.2054111328125 293.1549987792969 L 548.2054111328125 213.65399877929687 L 565.5394111328125 213.65399877929687 L 565.5394111328125 293.1549987792969 Z" transform="matrix(1, 0, 0, 1, 0, 0)" style="fill: rgb(20, 109, 217); white-space: pre;"/>
</svg>