<svg viewBox="0 0 228 228" fill="none" xmlns="http://www.w3.org/2000/svg">
<path d="M144.142 71.4913C142.098 58.5416 136.548 49.7141 126.139 42.8975C125.623 42.5733 125.025 42.4035 124.416 42.4082C123.931 42.3893 123.449 42.4832 123.006 42.6823C122.564 42.8815 122.174 43.1806 121.866 43.5561C121.559 43.9315 121.343 44.3732 121.235 44.8462C121.128 45.3193 121.131 45.8109 121.246 46.2824C121.405 47.1177 121.886 47.8569 122.586 48.3401C131.353 54.0307 135.911 61.3099 137.889 72.6576C137.987 73.3868 138.342 74.0571 138.89 74.5484C139.438 75.0396 140.142 75.3198 140.878 75.3387L141.448 75.2649C141.873 75.1951 142.28 75.0419 142.646 74.8142C143.012 74.5865 143.329 74.2887 143.579 73.9381C143.829 73.5874 144.008 73.1908 144.105 72.7709C144.201 72.351 144.214 71.9161 144.142 71.4913ZM158.68 39.9483C149.149 29.6395 136.253 22.7893 123.283 21.0667C119.955 20.5708 116.594 20.3288 113.229 20.3428C111.373 20.3428 109.496 20.4031 107.639 20.5573C107.107 20.6008 106.59 20.7522 106.119 21.0023C105.647 21.2524 105.232 21.5958 104.898 22.0118L104.857 22.052C104.557 22.4249 104.334 22.8543 104.203 23.3149C104.072 23.7755 104.035 24.2578 104.093 24.7331C104.133 25.2679 104.282 25.789 104.531 26.2639C104.78 26.7389 105.124 27.1578 105.541 27.4946L105.581 27.5348H105.622C106.258 28.0856 107.072 28.3879 107.914 28.3861C108.055 28.3861 108.169 28.3861 108.309 28.3861C110.072 28.2319 111.828 28.1515 113.531 28.1515C116.375 28.1551 119.214 28.3792 122.023 28.8217C133.331 30.3232 144.544 36.2953 152.762 45.1965C161.528 54.4904 166.449 66.7591 166.536 79.5346C166.536 90.5472 163.6 100.373 157.822 108.745C152.261 116.627 144.639 122.828 135.791 126.668C135.317 126.875 134.889 127.174 134.531 127.548C134.173 127.921 133.892 128.361 133.706 128.844C133.519 129.326 133.429 129.84 133.442 130.357C133.454 130.874 133.569 131.384 133.78 131.856V131.95C133.948 132.453 134.241 132.906 134.632 133.265C135.022 133.625 135.496 133.88 136.012 134.008L138.224 134.557L137.131 136.568L122.519 163.278L122.03 164.177H118.008V140.188C117.96 139.131 117.51 138.133 116.75 137.398C115.99 136.662 114.977 136.246 113.92 136.233C112.873 136.245 111.872 136.665 111.129 137.403C110.387 138.142 109.962 139.141 109.945 140.188V164.586H105.467L89.5417 138.445L86.9411 134.202L91.633 135.884C93.6999 136.655 95.8276 137.251 97.9939 137.667H98.1279L98.2486 137.701C98.4689 137.747 98.6946 137.76 98.9188 137.741C99.831 137.76 100.72 137.454 101.427 136.876C102.133 136.299 102.61 135.489 102.773 134.591C102.958 133.553 102.733 132.484 102.145 131.609C101.558 130.733 100.653 130.12 99.6226 129.899C96.3641 129.305 93.2053 128.255 90.2388 126.782C84.9328 124.016 80.1203 120.393 75.9955 116.058L75.7408 115.823L75.6604 115.743C73.3881 113.265 71.3276 110.602 69.5006 107.78C64.1706 99.685 61.3449 90.1985 61.3769 80.5065C61.392 72.5873 62.9871 64.7508 66.0688 57.4558C69.1901 50.0658 74.1372 43.5896 80.4461 38.6345C81.0998 38.117 81.9049 37.8274 82.7385 37.8101C83.533 37.835 84.3053 38.0785 84.9705 38.5139L85.0241 38.5541L85.0844 38.5943C85.8112 39.0324 86.3447 39.7298 86.5774 40.5459C86.81 41.362 86.7244 42.2359 86.3378 42.9913C82.5998 51.8988 80.7467 61.4839 80.8952 71.1428C80.9512 81.4397 83.4798 91.5725 88.2682 100.688C88.6073 101.299 89.1038 101.808 89.7062 102.161C90.3086 102.515 90.9948 102.701 91.6933 102.699C92.3631 102.698 93.022 102.53 93.6103 102.21C94.0692 101.994 94.4773 101.684 94.8077 101.299C95.1381 100.914 95.3834 100.464 95.5273 99.9779V99.8439C95.68 99.3716 95.7308 98.8724 95.6765 98.3791C95.6222 97.8857 95.464 97.4095 95.2122 96.9818C91.037 88.9741 88.8311 80.0863 88.7776 71.0556C88.6037 62.4585 90.2363 53.9205 93.5701 45.9941C94.6151 43.6445 94.8416 41.0123 94.2134 38.5187C93.5852 36.0251 92.1385 33.8144 90.105 32.2404C88.0715 30.6664 85.5687 29.8201 82.9972 29.8371C80.4258 29.8541 77.9343 30.7333 75.9218 32.334C68.5454 38.0369 62.7722 45.5535 59.1649 54.1514C55.6402 62.3884 53.836 71.2588 53.8631 80.2183C53.9258 91.4055 57.1991 102.34 63.2938 111.721C65.3296 114.874 67.6135 117.859 70.1239 120.649L70.2178 120.763L70.2982 120.904L96.7405 164.049H85.3458C84.4978 164.088 83.6972 164.451 83.1106 165.065C82.5241 165.679 82.1967 166.495 82.1967 167.344C82.1967 168.193 82.5241 169.009 83.1106 169.622C83.6972 170.236 84.4978 170.6 85.3458 170.638H139.698V189.687C139.698 191.219 139.396 192.736 138.809 194.15C138.222 195.565 137.361 196.85 136.276 197.932C135.192 199.013 133.904 199.87 132.488 200.453C131.071 201.036 129.554 201.334 128.022 201.33H100.212C97.1305 201.323 94.1774 200.093 92.0019 197.91C89.8265 195.726 88.6065 192.769 88.61 189.687V187.435C88.6083 186.559 88.2596 185.72 87.6402 185.1C87.0209 184.481 86.1814 184.132 85.3056 184.131C84.4365 184.148 83.6081 184.502 82.9953 185.119C82.3825 185.735 82.0333 186.566 82.0213 187.435V189.546C82.0213 194.339 83.9224 198.936 87.3076 202.329C90.6929 205.722 95.2857 207.633 100.078 207.644H128.022C130.399 207.644 132.752 207.176 134.948 206.266C137.143 205.357 139.138 204.024 140.819 202.343C142.499 200.663 143.832 198.668 144.742 196.472C145.651 194.276 146.119 191.923 146.119 189.546V168.768C146.114 167.7 145.754 166.665 145.094 165.825C144.435 164.985 143.516 164.389 142.48 164.13H130.797L151.663 126.132L151.817 125.817L152.092 125.602C156.673 121.94 160.732 117.669 164.157 112.907C170.859 103.162 174.211 91.814 174.211 79.1927C174.136 64.6271 168.593 50.6208 158.68 39.9483Z" fill="url(#paint0_linear_21_4395)"/>
<defs>
<linearGradient id="paint0_linear_21_4395" x1="60.6731" y1="202.047" x2="160.43" y2="16.2273" gradientUnits="userSpaceOnUse">
<stop stop-color="#0185FD"/>
<stop offset="0.23" stop-color="#0388FB"/>
<stop offset="0.39" stop-color="#0B91F7"/>
<stop offset="0.54" stop-color="#18A0EE"/>
<stop offset="0.66" stop-color="#2BB6E3"/>
<stop offset="0.79" stop-color="#43D3D3"/>
<stop offset="0.9" stop-color="#61F5C1"/>
<stop offset="0.91" stop-color="#64F9BF"/>
</linearGradient>
</defs>
</svg>
