<svg version="1.1" id="Layer_1" xmlns="http://www.w3.org/2000/svg" xmlns:xlink="http://www.w3.org/1999/xlink" x="0px" y="0px"
	 width="100%" viewBox="0 0 3509 1300" enable-background="new 0 0 3509 1300" xml:space="preserve">
<path fill="#000000" opacity="1.000000" stroke="none" 
	d="
M2438.000000,1302.000000 
	C1625.333374,1302.000000 813.666687,1302.000000 2.000000,1302.000000 
	C2.000000,868.666687 2.000000,435.333344 2.000000,2.000000 
	C1172.000000,2.000000 2342.000000,2.000000 3512.000000,2.000000 
	C3512.000000,435.333344 3512.000000,868.666687 3512.000000,1302.000000 
	C3154.333252,1302.000000 2796.666748,1302.000000 2438.000000,1302.000000 
M3309.570068,565.287537 
	C3311.159912,564.877747 3312.765137,564.519836 3314.337158,564.050293 
	C3333.629883,558.287292 3346.525146,545.570740 3351.461426,526.330994 
	C3356.428467,506.972504 3352.487305,489.114655 3336.484863,473.760498 
	C3325.773682,463.008942 3312.815674,459.306549 3297.727295,459.252472 
	C3267.314209,459.143524 3240.170410,488.894958 3247.105713,522.454407 
	C3252.150391,546.866394 3267.707275,560.866211 3293.698975,565.983521 
	C3298.495117,565.812317 3303.291504,565.641052 3309.570068,565.287537 
M2218.328613,596.999878 
	C2218.328613,678.531555 2218.328613,760.063293 2218.328613,841.807556 
	C2247.216309,841.807556 2275.033447,841.807556 2302.432617,841.807556 
	C2303.052490,841.019165 2303.438721,840.757446 2303.438965,840.495239 
	C2303.541260,771.194763 2303.616699,701.894226 2303.703613,632.593689 
	C2303.704346,631.935425 2303.819092,631.268860 2303.959717,630.623291 
	C2304.015625,630.365417 2304.240723,630.082153 2304.469482,629.940369 
	C2304.741455,629.771729 2305.100098,629.743042 2305.464355,629.641724 
	C2326.928711,657.960022 2348.442871,686.261230 2369.867432,714.630371 
	C2400.312744,754.944458 2430.770752,795.249878 2460.994629,835.729675 
	C2464.527832,840.461975 2468.086426,842.752319 2474.127441,842.467896 
	C2484.434326,841.982483 2494.780762,842.334045 2505.110596,842.334045 
	C2513.327637,842.334045 2521.544678,842.333984 2529.687256,842.333984 
	C2529.687256,716.191162 2529.687256,591.123108 2529.687256,466.110962 
	C2501.508545,466.110962 2473.985596,466.110962 2445.398926,466.110962 
	C2445.398926,534.197754 2445.398926,601.849121 2445.398926,669.500427 
	C2444.816406,669.668152 2444.234131,669.835815 2443.651611,670.003479 
	C2392.282471,601.935852 2340.913330,533.868286 2290.008301,466.415588 
	C2265.719727,466.415588 2242.250732,466.415588 2218.328613,466.415588 
	C2218.328613,509.774872 2218.328613,552.387329 2218.328613,596.999878 
M913.929626,684.711670 
	C918.977234,652.318298 916.869934,620.487915 905.935730,589.474060 
	C887.154663,536.203186 851.932129,497.822540 800.295654,475.012451 
	C771.054199,462.095276 740.405334,457.066559 708.218079,459.473450 
	C655.377197,463.424805 611.715210,485.649872 577.044312,524.804565 
	C539.857117,566.801025 524.810303,616.892273 530.210938,672.459595 
	C535.908508,731.082092 564.179077,777.502319 612.027039,811.252563 
	C656.808777,842.840149 706.854431,852.960938 760.712158,842.235596 
	C808.242676,832.770264 846.903381,808.648926 876.608948,770.309814 
	C895.889709,745.425293 908.093201,717.384277 913.929626,684.711670 
M1834.999878,840.332275 
	C1901.965576,840.215698 1968.931152,840.099670 2035.896851,839.961792 
	C2036.161621,839.961304 2036.455322,839.677368 2036.682251,839.467957 
	C2036.924072,839.244812 2037.102295,838.952881 2037.094604,838.962708 
	C2037.094604,811.508789 2037.094604,784.329956 2037.094604,756.212891 
	C1978.065796,756.212891 1919.603027,756.212891 1860.745483,756.212891 
	C1860.745483,735.093994 1860.745483,714.924255 1860.745483,693.729675 
	C1896.565674,693.729675 1932.018921,693.729675 1967.875488,693.729675 
	C1967.875488,665.556885 1967.875488,638.409180 1967.875488,610.232666 
	C1931.979126,610.232666 1896.528931,610.232666 1861.045166,610.232666 
	C1861.045166,588.432373 1861.045166,567.668701 1861.045166,545.951050 
	C1920.194580,545.951050 1978.644409,545.951050 2037.163086,545.951050 
	C2037.163086,518.144531 2037.163086,491.309784 2037.163086,464.180969 
	C1950.547363,464.180969 1864.438110,464.180969 1778.388428,464.180969 
	C1778.388428,589.746704 1778.388428,714.799072 1778.388428,840.332336 
	C1797.074829,840.332336 1815.037354,840.332336 1834.999878,840.332275 
M1136.095215,609.184570 
	C1148.397949,582.129211 1168.279175,562.572693 1196.282593,552.941895 
	C1231.441162,540.850220 1265.446655,542.046814 1295.430054,568.803772 
	C1310.828369,546.249451 1325.550415,524.685730 1340.518188,502.762146 
	C1325.104980,489.811890 1309.376343,478.830505 1291.135742,471.914276 
	C1272.191650,464.731384 1252.419189,463.455383 1232.344360,463.583984 
	C1175.175293,463.950195 1127.583984,485.524719 1090.222412,528.500977 
	C1050.991943,573.627014 1035.798828,626.897461 1046.914185,685.176514 
	C1061.425659,761.261047 1107.588989,811.283875 1181.943115,834.105957 
	C1204.905029,841.153748 1228.571289,842.301086 1252.742065,840.644775 
	C1287.084839,838.291382 1315.346558,823.029663 1343.255615,803.443848 
	C1328.481689,780.294617 1314.104858,757.767578 1299.651245,735.120361 
	C1256.326050,770.737854 1197.266846,761.350769 1164.501465,733.434143 
	C1131.327759,705.169495 1115.519775,655.079346 1136.095215,609.184570 
M2753.000000,463.664825 
	C2736.786377,463.664825 2720.572998,463.664825 2704.282715,463.664825 
	C2704.282715,492.395111 2704.282715,520.145508 2704.282715,548.583862 
	C2735.082275,548.583862 2765.263916,548.583862 2796.377930,548.583862 
	C2796.377930,646.018372 2796.377930,742.762817 2796.377930,839.868164 
	C2825.135254,839.868164 2852.945068,839.868164 2881.710938,839.868164 
	C2881.710938,742.669922 2881.710938,645.932495 2881.710938,548.146973 
	C2913.071289,548.146973 2943.494385,548.146973 2973.937012,548.146973 
	C2973.937012,519.576050 2973.937012,492.061676 2973.937012,463.664825 
	C2900.690430,463.664825 2827.845215,463.664825 2753.000000,463.664825 
M1592.341797,765.000122 
	C1592.341797,664.820068 1592.341797,564.640076 1592.341797,464.215881 
	C1563.997192,464.215881 1536.553711,464.215881 1509.004639,464.215881 
	C1509.004639,589.808716 1509.004639,714.850769 1509.004639,839.624207 
	C1537.152832,839.624207 1564.618896,839.624207 1592.341797,839.624207 
	C1592.341797,814.943115 1592.341797,790.971680 1592.341797,765.000122 
M3115.640137,405.518829 
	C3203.489502,549.330994 3210.290527,780.312073 3086.890137,939.545959 
	C3098.826172,948.915955 3110.769287,958.291382 3122.706543,967.662109 
	C3265.714355,792.551331 3258.802979,499.781311 3124.078613,336.615479 
	C3112.122803,345.926575 3100.155518,355.246704 3088.493652,364.328827 
	C3097.649658,378.191650 3106.261230,391.230255 3115.640137,405.518829 
M392.131256,417.155182 
	C403.197174,399.795532 414.263062,382.435883 425.798523,364.339630 
	C414.449768,355.403503 402.571686,346.050598 389.982880,336.138062 
	C386.969513,339.994476 384.282349,343.298767 381.738953,346.710266 
	C364.774475,369.465179 350.545990,393.846161 338.029877,419.305756 
	C307.552277,481.301758 291.427307,547.122437 286.540497,615.700439 
	C284.342651,646.544250 284.943939,677.520752 288.073883,708.404968 
	C292.482666,751.907532 301.736267,794.287842 316.300079,835.498535 
	C332.147247,880.340637 353.867950,922.110779 382.177582,960.385498 
	C384.064758,962.936890 386.334473,965.205383 388.704376,967.924561 
	C401.251465,958.132874 412.966614,948.990356 424.908844,939.670654 
	C423.331818,937.268433 422.333984,935.573669 421.170624,934.001343 
	C364.372986,857.239502 337.768494,770.028137 332.551453,675.663635 
	C331.527039,657.134094 333.172668,638.452881 333.675659,619.843994 
	C334.369263,594.183960 338.641144,568.982971 344.150238,544.007996 
	C353.877747,499.909180 369.190247,457.861206 392.131256,417.155182 
z"/>
<path fill="#FEFEFE" opacity="1.000000" stroke="none" 
	d="
M2218.328613,595.999817 
	C2218.328613,552.387329 2218.328613,509.774872 2218.328613,466.415588 
	C2242.250732,466.415588 2265.719727,466.415588 2290.008301,466.415588 
	C2340.913330,533.868286 2392.282471,601.935852 2443.651611,670.003479 
	C2444.234131,669.835815 2444.816406,669.668152 2445.398926,669.500427 
	C2445.398926,601.849121 2445.398926,534.197754 2445.398926,466.110962 
	C2473.985596,466.110962 2501.508545,466.110962 2529.687256,466.110962 
	C2529.687256,591.123108 2529.687256,716.191162 2529.687256,842.333984 
	C2521.544678,842.333984 2513.327637,842.334045 2505.110596,842.334045 
	C2494.780762,842.334045 2484.434326,841.982483 2474.127441,842.467896 
	C2468.086426,842.752319 2464.527832,840.461975 2460.994629,835.729675 
	C2430.770752,795.249878 2400.312744,754.944458 2369.867432,714.630371 
	C2348.442871,686.261230 2326.928711,657.960022 2305.464355,629.641724 
	C2305.100098,629.743042 2304.741455,629.771729 2304.469482,629.940369 
	C2304.240723,630.082153 2304.015625,630.365417 2303.959717,630.623291 
	C2303.819092,631.268860 2303.704346,631.935425 2303.703613,632.593689 
	C2303.616699,701.894226 2303.541260,771.194763 2303.438965,840.495239 
	C2303.438721,840.757446 2303.052490,841.019165 2302.432617,841.807556 
	C2275.033447,841.807556 2247.216309,841.807556 2218.328613,841.807556 
	C2218.328613,760.063293 2218.328613,678.531555 2218.328613,595.999817 
z"/>
<path fill="#FDFDFD" opacity="1.000000" stroke="none" 
	d="
M913.829956,685.580078 
	C908.093201,717.384277 895.889709,745.425293 876.608948,770.309814 
	C846.903381,808.648926 808.242676,832.770264 760.712158,842.235596 
	C706.854431,852.960938 656.808777,842.840149 612.027039,811.252563 
	C564.179077,777.502319 535.908508,731.082092 530.210938,672.459595 
	C524.810303,616.892273 539.857117,566.801025 577.044312,524.804565 
	C611.715210,485.649872 655.377197,463.424805 708.218079,459.473450 
	C740.405334,457.066559 771.054199,462.095276 800.295654,475.012451 
	C851.932129,497.822540 887.154663,536.203186 905.935730,589.474060 
	C916.869934,620.487915 918.977234,652.318298 913.829956,685.580078 
M828.345032,628.998047 
	C827.615845,626.108459 827.024475,623.175781 826.137024,620.335632 
	C811.067871,572.110107 764.505920,538.806152 710.802612,544.709045 
	C659.196167,550.381470 619.677063,589.875732 614.699646,643.636841 
	C611.149048,681.986389 625.866150,714.280884 656.421997,737.901428 
	C689.345398,763.352051 726.083252,767.553406 764.569580,752.153259 
	C812.420776,733.006042 840.305237,679.812134 828.345032,628.998047 
z"/>
<path fill="#FEFEFE" opacity="1.000000" stroke="none" 
	d="
M1833.999756,840.332275 
	C1815.037354,840.332336 1797.074829,840.332336 1778.388428,840.332336 
	C1778.388428,714.799072 1778.388428,589.746704 1778.388428,464.180969 
	C1864.438110,464.180969 1950.547363,464.180969 2037.163086,464.180969 
	C2037.163086,491.309784 2037.163086,518.144531 2037.163086,545.951050 
	C1978.644409,545.951050 1920.194580,545.951050 1861.045166,545.951050 
	C1861.045166,567.668701 1861.045166,588.432373 1861.045166,610.232666 
	C1896.528931,610.232666 1931.979126,610.232666 1967.875488,610.232666 
	C1967.875488,638.409180 1967.875488,665.556885 1967.875488,693.729675 
	C1932.018921,693.729675 1896.565674,693.729675 1860.745483,693.729675 
	C1860.745483,714.924255 1860.745483,735.093994 1860.745483,756.212891 
	C1919.603027,756.212891 1978.065796,756.212891 2037.094604,756.212891 
	C2037.094604,784.329956 2037.094604,811.508789 2037.094604,838.962708 
	C2037.102295,838.952881 2036.924072,839.244812 2036.682251,839.467957 
	C2036.455322,839.677368 2036.161621,839.961304 2035.896851,839.961792 
	C1968.931152,840.099670 1901.965576,840.215698 1833.999756,840.332275 
z"/>
<path fill="#FDFDFD" opacity="1.000000" stroke="none" 
	d="
M1135.818848,609.899841 
	C1115.519775,655.079346 1131.327759,705.169495 1164.501465,733.434143 
	C1197.266846,761.350769 1256.326050,770.737854 1299.651245,735.120361 
	C1314.104858,757.767578 1328.481689,780.294617 1343.255615,803.443848 
	C1315.346558,823.029663 1287.084839,838.291382 1252.742065,840.644775 
	C1228.571289,842.301086 1204.905029,841.153748 1181.943115,834.105957 
	C1107.588989,811.283875 1061.425659,761.261047 1046.914185,685.176514 
	C1035.798828,626.897461 1050.991943,573.627014 1090.222412,528.500977 
	C1127.583984,485.524719 1175.175293,463.950195 1232.344360,463.583984 
	C1252.419189,463.455383 1272.191650,464.731384 1291.135742,471.914276 
	C1309.376343,478.830505 1325.104980,489.811890 1340.518188,502.762146 
	C1325.550415,524.685730 1310.828369,546.249451 1295.430054,568.803772 
	C1265.446655,542.046814 1231.441162,540.850220 1196.282593,552.941895 
	C1168.279175,562.572693 1148.397949,582.129211 1135.818848,609.899841 
z"/>
<path fill="#FDFDFD" opacity="1.000000" stroke="none" 
	d="
M2754.000000,463.664825 
	C2827.845215,463.664825 2900.690430,463.664825 2973.937012,463.664825 
	C2973.937012,492.061676 2973.937012,519.576050 2973.937012,548.146973 
	C2943.494385,548.146973 2913.071289,548.146973 2881.710938,548.146973 
	C2881.710938,645.932495 2881.710938,742.669922 2881.710938,839.868164 
	C2852.945068,839.868164 2825.135254,839.868164 2796.377930,839.868164 
	C2796.377930,742.762817 2796.377930,646.018372 2796.377930,548.583862 
	C2765.263916,548.583862 2735.082275,548.583862 2704.282715,548.583862 
	C2704.282715,520.145508 2704.282715,492.395111 2704.282715,463.664825 
	C2720.572998,463.664825 2736.786377,463.664825 2754.000000,463.664825 
z"/>
<path fill="#FDFDFD" opacity="1.000000" stroke="none" 
	d="
M1592.341797,766.000183 
	C1592.341797,790.971680 1592.341797,814.943115 1592.341797,839.624207 
	C1564.618896,839.624207 1537.152832,839.624207 1509.004639,839.624207 
	C1509.004639,714.850769 1509.004639,589.808716 1509.004639,464.215881 
	C1536.553711,464.215881 1563.997192,464.215881 1592.341797,464.215881 
	C1592.341797,564.640076 1592.341797,664.820068 1592.341797,766.000183 
z"/>
<path fill="#36EAFA" opacity="1.000000" stroke="none" 
	d="
M3115.256348,404.893829 
	C3106.261230,391.230255 3097.649658,378.191650 3088.493652,364.328827 
	C3100.155518,355.246704 3112.122803,345.926575 3124.078613,336.615479 
	C3258.802979,499.781311 3265.714355,792.551331 3122.706543,967.662109 
	C3110.769287,958.291382 3098.826172,948.915955 3086.890137,939.545959 
	C3210.290527,780.312073 3203.489502,549.330994 3115.256348,404.893829 
z"/>
<path fill="#C6E21E" opacity="1.000000" stroke="none" 
	d="
M391.825745,417.822815 
	C369.190247,457.861206 353.877747,499.909180 344.150238,544.007996 
	C338.641144,568.982971 334.369263,594.183960 333.675659,619.843994 
	C333.172668,638.452881 331.527039,657.134094 332.551453,675.663635 
	C337.768494,770.028137 364.372986,857.239502 421.170624,934.001343 
	C422.333984,935.573669 423.331818,937.268433 424.908844,939.670654 
	C412.966614,948.990356 401.251465,958.132874 388.704376,967.924561 
	C386.334473,965.205383 384.064758,962.936890 382.177582,960.385498 
	C353.867950,922.110779 332.147247,880.340637 316.300079,835.498535 
	C301.736267,794.287842 292.482666,751.907532 288.073883,708.404968 
	C284.943939,677.520752 284.342651,646.544250 286.540497,615.700439 
	C291.427307,547.122437 307.552277,481.301758 338.029877,419.305756 
	C350.545990,393.846161 364.774475,369.465179 381.738953,346.710266 
	C384.282349,343.298767 386.969513,339.994476 389.982880,336.138062 
	C402.571686,346.050598 414.449768,355.403503 425.798523,364.339630 
	C414.263062,382.435883 403.197174,399.795532 391.825745,417.822815 
z"/>
<path fill="#D6D6D6" opacity="1.000000" stroke="none" 
	d="
M3291.932861,565.609680 
	C3267.707275,560.866211 3252.150391,546.866394 3247.105713,522.454407 
	C3240.170410,488.894958 3267.314209,459.143524 3297.727295,459.252472 
	C3312.815674,459.306549 3325.773682,463.008942 3336.430176,474.712158 
	C3336.085693,475.945618 3335.795654,476.227417 3334.870117,476.254425 
	C3330.375000,473.421997 3326.698486,470.501526 3322.624268,468.325806 
	C3304.589600,458.695038 3283.131592,461.041901 3267.725098,474.087280 
	C3251.889648,487.495819 3245.491211,508.971954 3252.272461,528.211182 
	C3258.897705,547.007629 3272.600830,558.015137 3292.000977,562.731323 
	C3292.000000,564.074402 3291.966309,564.842041 3291.932861,565.609680 
z"/>
<path fill="#D6D6D6" opacity="1.000000" stroke="none" 
	d="
M3336.823486,475.254486 
	C3352.487305,489.114655 3356.428467,506.972504 3351.461426,526.330994 
	C3346.525146,545.570740 3333.629883,558.287292 3314.337158,564.050293 
	C3312.765137,564.519836 3311.159912,564.877747 3308.827148,564.826233 
	C3308.066650,563.629883 3308.049072,562.894836 3308.731934,561.912720 
	C3311.967773,560.902405 3314.562744,560.294800 3317.029541,559.352051 
	C3344.298096,548.930969 3357.142090,518.999023 3345.406494,492.449005 
	C3342.902344,486.783844 3338.846436,481.804504 3335.505615,476.509216 
	C3335.795654,476.227417 3336.085693,475.945618 3336.823486,475.254486 
z"/>
<path fill="#B8B8B8" opacity="1.000000" stroke="none" 
	d="
M3308.031738,562.159790 
	C3308.049072,562.894836 3308.066650,563.629883 3308.085938,564.917358 
	C3303.291504,565.641052 3298.495117,565.812317 3292.815918,565.796631 
	C3291.966309,564.842041 3292.000000,564.074402 3292.890869,562.663086 
	C3298.509521,562.066223 3303.270508,562.113037 3308.031738,562.159790 
z"/>
<path fill="#010101" opacity="1.000000" stroke="none" 
	d="
M828.478516,629.836426 
	C840.305237,679.812134 812.420776,733.006042 764.569580,752.153259 
	C726.083252,767.553406 689.345398,763.352051 656.421997,737.901428 
	C625.866150,714.280884 611.149048,681.986389 614.699646,643.636841 
	C619.677063,589.875732 659.196167,550.381470 710.802612,544.709045 
	C764.505920,538.806152 811.067871,572.110107 826.137024,620.335632 
	C827.024475,623.175781 827.615845,626.108459 828.478516,629.836426 
z"/>
<path fill="#070707" opacity="1.000000" stroke="none" 
	d="
M3308.731934,561.912720 
	C3303.270508,562.113037 3298.509521,562.066223 3292.858398,562.087646 
	C3272.600830,558.015137 3258.897705,547.007629 3252.272461,528.211182 
	C3245.491211,508.971954 3251.889648,487.495819 3267.725098,474.087280 
	C3283.131592,461.041901 3304.589600,458.695038 3322.624268,468.325806 
	C3326.698486,470.501526 3330.375000,473.421997 3334.870117,476.254425 
	C3338.846436,481.804504 3342.902344,486.783844 3345.406494,492.449005 
	C3357.142090,518.999023 3344.298096,548.930969 3317.029541,559.352051 
	C3314.562744,560.294800 3311.967773,560.902405 3308.731934,561.912720 
M3276.313965,493.192383 
	C3276.313965,509.688721 3276.313965,526.185059 3276.313965,543.014771 
	C3281.065430,543.014771 3284.449707,543.014771 3288.657715,543.014771 
	C3288.657715,533.862549 3288.657715,525.364868 3288.657715,516.902771 
	C3295.662598,516.884338 3295.787354,516.812378 3298.102051,520.825195 
	C3302.395264,528.268311 3306.526855,535.804626 3310.706055,543.266479 
	C3315.209229,543.266479 3319.401855,543.266479 3325.152100,543.266479 
	C3319.599609,533.653564 3314.592285,524.984680 3309.593262,516.330200 
	C3310.680420,515.384399 3311.109863,514.849426 3311.666260,514.550964 
	C3321.209473,509.433319 3323.923096,504.111542 3322.305176,493.599884 
	C3321.211426,486.492584 3315.174072,481.007843 3305.862061,480.350494 
	C3296.370850,479.680481 3286.795410,480.202271 3277.441895,480.202271 
	C3276.977051,481.135925 3276.467285,481.698944 3276.445312,482.280334 
	C3276.332520,485.267517 3276.345215,488.259430 3276.313965,493.192383 
z"/>
<path fill="#F4F4F4" opacity="1.000000" stroke="none" 
	d="
M3276.313965,492.221039 
	C3276.345215,488.259430 3276.332520,485.267517 3276.445312,482.280334 
	C3276.467285,481.698944 3276.977051,481.135925 3277.441895,480.202271 
	C3286.795410,480.202271 3296.370850,479.680481 3305.862061,480.350494 
	C3315.174072,481.007843 3321.211426,486.492584 3322.305176,493.599884 
	C3323.923096,504.111542 3321.209473,509.433319 3311.666260,514.550964 
	C3311.109863,514.849426 3310.680420,515.384399 3309.593262,516.330200 
	C3314.592285,524.984680 3319.599609,533.653564 3325.152100,543.266479 
	C3319.401855,543.266479 3315.209229,543.266479 3310.706055,543.266479 
	C3306.526855,535.804626 3302.395264,528.268311 3298.102051,520.825195 
	C3295.787354,516.812378 3295.662598,516.884338 3288.657715,516.902771 
	C3288.657715,525.364868 3288.657715,533.862549 3288.657715,543.014771 
	C3284.449707,543.014771 3281.065430,543.014771 3276.313965,543.014771 
	C3276.313965,526.185059 3276.313965,509.688721 3276.313965,492.221039 
M3309.117920,501.988281 
	C3310.135498,493.869141 3308.429443,491.070007 3301.377441,490.383270 
	C3297.228760,489.979248 3293.008301,490.309448 3288.700439,490.309448 
	C3288.700439,496.250641 3288.700439,500.798279 3288.700439,506.027344 
	C3295.623535,506.408630 3302.127441,507.333099 3309.117920,501.988281 
z"/>
<path fill="#121212" opacity="1.000000" stroke="none" 
	d="
M3308.613281,502.655457 
	C3302.127441,507.333099 3295.623535,506.408630 3288.700439,506.027344 
	C3288.700439,500.798279 3288.700439,496.250641 3288.700439,490.309448 
	C3293.008301,490.309448 3297.228760,489.979248 3301.377441,490.383270 
	C3308.429443,491.070007 3310.135498,493.869141 3308.613281,502.655457 
z"/>
</svg>