<svg id="stormforge-icon-set" xmlns="http://www.w3.org/2000/svg" viewBox="0 0 160.923 80.232"><path id="stormforge-icon_white" d="M152.938,14.424c2.457-.714,5.5-1.147,7.985-1.706V0H123.147L110.225,15.3,128.018,16,83.133,58l21.449-32.714-19.915-.58L102.355,0H52.913c-.264,2.219-.5,4.2-.775,6.524H0C.693,8,.924,9.058,1.557,9.749,12.93,22.175,26.617,30.594,43.4,33.409c4.064.682,8.265.542,12.33,1.215A15.819,15.819,0,0,1,69.07,49.257c.847,9.433-4.055,15.236-16.221,19.042V80.232h40.04c3.329-9.538,6.817-12.765,13.686-12.761s10.573,3.453,13.565,12.582h40.637a66.511,66.511,0,0,1,.044-7.229c.508-4.338-.828-5.969-5.576-6.668-11.577-1.7-20.665-12.453-21.258-23.808-.7-13.376,6.732-24.374,18.951-27.924" fill="#fff"/></svg>