<svg id="stormforge-icon-set" xmlns="http://www.w3.org/2000/svg" viewBox="0 0 270.564 156.978"><g id="stormforge-logo_secondary_black"><path d="M44.347,138.54l1.833,5.309a13.348,13.348,0,0,1-6.274,1.786,9.662,9.662,0,0,1-6.95-2.389q-2.511-2.388-2.512-7.216V111.848h6.372v8.978h7.869v5.212H36.816v9.509q0,4.152,3.524,4.152a8.606,8.606,0,0,0,4.007-1.159"/><path d="M60.49,140.085a6.635,6.635,0,0,0,4.732-2,7.528,7.528,0,0,0,0-10.378,6.631,6.631,0,0,0-4.732-2,7.193,7.193,0,0,0,0,14.384m0-19.839a12.972,12.972,0,0,1,9.2,3.548,12.819,12.819,0,0,1,0,18.2,12.967,12.967,0,0,1-9.2,3.547,13.176,13.176,0,0,1-9.315-3.547,12.764,12.764,0,0,1,0-18.2,13.181,13.181,0,0,1,9.315-3.548"/><path d="M92.255,120.488a5.669,5.669,0,0,1,1.688.192l-.337,6.131H92.2q-8.589,0-8.592,10.329v7.771h-6.37V120.826h6.37v4.391a10.073,10.073,0,0,1,8.643-4.729"/><path d="M128.211,120.1a9.058,9.058,0,0,1,6.612,2.727,9.453,9.453,0,0,1,2.752,7.022v15.06h-6.324V131.155a5.279,5.279,0,0,0-1.351-3.789,4.466,4.466,0,0,0-3.378-1.424,4.983,4.983,0,0,0-4.1,1.859,8.679,8.679,0,0,0-1.5,5.527v11.583h-6.371V131.155a5.279,5.279,0,0,0-1.351-3.789,4.466,4.466,0,0,0-3.378-1.424,4.882,4.882,0,0,0-4.057,1.834,8.889,8.889,0,0,0-1.448,5.552v11.583H97.947V120.826h6.371V122.8a9.728,9.728,0,0,1,7.194-2.7,8.973,8.973,0,0,1,7.913,3.958,10.664,10.664,0,0,1,8.786-3.958"/><path d="M179.765,140.085a6.635,6.635,0,0,0,4.732-2,7.528,7.528,0,0,0,0-10.378,6.631,6.631,0,0,0-4.732-2,7.193,7.193,0,0,0,0,14.384m0-19.839a12.972,12.972,0,0,1,9.2,3.548,12.819,12.819,0,0,1,0,18.2,12.967,12.967,0,0,1-9.2,3.547,13.176,13.176,0,0,1-9.315-3.547,12.764,12.764,0,0,1,0-18.2,13.181,13.181,0,0,1,9.315-3.548"/><path d="M211.638,120.488a5.676,5.676,0,0,1,1.689.192l-.338,6.131h-1.4q-8.59,0-8.591,10.329v7.771h-6.372V120.826H203v4.391a10.071,10.071,0,0,1,8.641-4.729"/><path d="M228.1,140.085a6.69,6.69,0,0,0,4.779-2,6.9,6.9,0,0,0,2.074-5.189,6.975,6.975,0,0,0-2.074-5.213,6.648,6.648,0,0,0-4.779-2.028,6.45,6.45,0,0,0-4.853,1.98,7.268,7.268,0,0,0-1.906,5.261,7.184,7.184,0,0,0,1.906,5.237,6.493,6.493,0,0,0,4.853,1.955m13.224-19.259V145.49a10.23,10.23,0,0,1-3.789,8.448,15.134,15.134,0,0,1-9.773,3.04q-8.4,0-11.729-5.309l5.164-4.393a10.569,10.569,0,0,0,2.9,2.679,7.376,7.376,0,0,0,3.669.8,8.079,8.079,0,0,0,5.187-1.593,5.568,5.568,0,0,0,2-4.634v-1.689a11.96,11.96,0,0,1-16.268-.821,13.568,13.568,0,0,1,.027-18.269,11.895,11.895,0,0,1,16.241-.845v-2.075Z"/><path d="M258.35,125.652a6.468,6.468,0,0,0-3.692,1.158,5.386,5.386,0,0,0-2.244,3.283h11.632a5.68,5.68,0,0,0-2.124-3.331,5.956,5.956,0,0,0-3.572-1.11m12.214,6.757v2.172H252.223a7.11,7.11,0,0,0,2.147,4.079,5.582,5.582,0,0,0,3.886,1.52,6.436,6.436,0,0,0,5.984-3.186l5.695,1.207a11.581,11.581,0,0,1-4.585,5.551,13.189,13.189,0,0,1-7.094,1.883,11.937,11.937,0,0,1-8.786-3.572,13.559,13.559,0,0,1,.024-18.366,12.039,12.039,0,0,1,8.856-3.6,11.724,11.724,0,0,1,8.472,3.452,12.49,12.49,0,0,1,3.742,8.856"/><path d="M13.083,111.847a13.969,13.969,0,0,1,8.4,2.51,10.919,10.919,0,0,1,4.391,6.806l-6.565,1.351a5.44,5.44,0,0,0-2.123-3.644,6.754,6.754,0,0,0-4.248-1.376,5.918,5.918,0,0,0-3.812,1.159A3.518,3.518,0,0,0,7.675,121.5q0,2.655,3.234,3.282l6.95,1.4a11.886,11.886,0,0,1,6.251,3.209,8.386,8.386,0,0,1,2.244,6.058,8.933,8.933,0,0,1-3.522,7.433q-3.523,2.752-9.317,2.751a16.276,16.276,0,0,1-9.144-2.486A9.524,9.524,0,0,1,0,136.029l6.9-1.4q1.257,5.262,7.241,5.261a6.811,6.811,0,0,0,4.247-1.158,3.569,3.569,0,0,0,1.5-2.944,3.015,3.015,0,0,0-.843-2.269,5.973,5.973,0,0,0-2.92-1.254l-6.855-1.3q-8.493-1.786-8.5-9.268A8.763,8.763,0,0,1,4.1,114.574q3.33-2.725,8.979-2.727"/><polygon points="150.58 118.508 150.58 126.424 162.679 126.424 162.679 132.361 150.58 132.361 150.58 144.911 144.015 144.911 144.015 112.571 168.148 112.571 168.148 118.508 150.58 118.508"/><path d="M181.616,14.424c2.456-.714,5.5-1.147,7.984-1.706V0H151.825L138.9,15.3,156.7,16,111.811,58l21.448-32.714-19.915-.58L131.032,0H81.591c-.264,2.219-.5,4.2-.776,6.524H28.677C29.371,8,29.6,9.058,30.235,9.749,41.608,22.175,55.3,30.594,72.074,33.409c4.064.682,8.265.542,12.33,1.215A15.819,15.819,0,0,1,97.748,49.257c.846,9.433-4.055,15.236-16.221,19.042V80.232h40.039c3.33-9.538,6.817-12.765,13.686-12.761s10.573,3.453,13.565,12.582h40.637a66.766,66.766,0,0,1,.044-7.229c.508-4.338-.828-5.969-5.576-6.668-11.577-1.7-20.664-12.453-21.258-23.808-.7-13.376,6.732-24.374,18.952-27.924"/></g></svg>