<svg id="stormforge-icon-set" xmlns="http://www.w3.org/2000/svg" viewBox="0 0 1080 205"><g id="stormforge-logo_black"><g id="logo"><g id="stormforge"><path id="e" d="M1014.83,104.844v6.048H963.761a19.788,19.788,0,0,0,5.979,11.356,15.537,15.537,0,0,0,10.82,4.233q11.42,0,16.661-8.87l15.859,3.361a32.253,32.253,0,0,1-12.767,15.455,36.738,36.738,0,0,1-19.753,5.242,33.234,33.234,0,0,1-24.462-9.945q-9.954-9.942-9.946-25.535t10.011-25.6a33.522,33.522,0,0,1,24.66-10.011,32.647,32.647,0,0,1,23.588,9.61Q1014.287,89.793,1014.83,104.844ZM980.823,86.028a18,18,0,0,0-10.281,3.227,15.006,15.006,0,0,0-6.249,9.139h32.389a15.822,15.822,0,0,0-5.914-9.274A16.585,16.585,0,0,0,980.823,86.028Z"/><path id="g" d="M933.411,72.59v68.674q0,15.049-10.55,23.523t-27.212,8.465q-23.384,0-32.658-14.783l14.378-12.232a29.454,29.454,0,0,0,8.065,7.459q3.894,2.22,10.215,2.221,8.87,0,14.444-4.437t5.578-12.9v-4.7q-8.465,7.792-22.173,7.794-13.311,0-23.121-10.08t-9.807-25.4q0-15.322,9.88-25.469T893.5,70.574q13.7,0,22.173,7.8V72.59ZM896.59,126.215a18.618,18.618,0,0,0,13.307-5.578q5.773-5.578,5.774-14.448A19.413,19.413,0,0,0,909.9,91.675a18.5,18.5,0,0,0-13.307-5.647,17.953,17.953,0,0,0-13.511,5.513q-5.305,5.511-5.308,14.648t5.308,14.583A18.076,18.076,0,0,0,896.59,126.215Z"/><path id="r" d="M850.756,71.649a15.792,15.792,0,0,1,4.7.536l-.941,17.07h-3.9q-23.919,0-23.923,28.761v21.637h-17.74V72.59h17.74V84.818Q835.838,71.65,850.756,71.649Z"/><path id="o" d="M762.011,70.975a36.115,36.115,0,0,1,25.608,9.88q10.543,9.876,10.55,25.334t-10.55,25.334a36.111,36.111,0,0,1-25.608,9.876q-15.312,0-25.936-9.876t-10.616-25.334q0-15.454,10.616-25.334T762.011,70.975Zm0,55.24a18.469,18.469,0,0,0,13.176-5.578q5.775-5.578,5.775-14.448t-5.775-14.448a18.469,18.469,0,0,0-13.176-5.578,19.109,19.109,0,0,0-13.5,5.512q-5.839,5.513-5.847,14.514t5.847,14.514A19.109,19.109,0,0,0,762.011,126.215Z"/><path id="f" d="M680.748,66.136V88.178h33.689v16.53H680.748v34.944H662.469V49.606h67.2v16.53Z"/><path id="m" d="M618.464,70.574a25.218,25.218,0,0,1,18.411,7.594q7.667,7.59,7.663,19.552v41.933H626.93v-38.3q0-6.583-3.763-10.551a12.43,12.43,0,0,0-9.406-3.966,13.874,13.874,0,0,0-11.425,5.177q-4.167,5.173-4.164,15.388v32.254h-17.74v-38.3q0-6.583-3.762-10.551a12.432,12.432,0,0,0-9.406-3.966q-7.263,0-11.295,5.108T551.937,107.4v32.254H534.2V72.59h17.74V78.1q7.525-7.526,20.03-7.525,14.514,0,22.035,11.021Q602.872,70.576,618.464,70.574Z"/><path id="r-2" data-name="r" d="M518.346,71.649a15.792,15.792,0,0,1,4.7.536l-.941,17.07h-3.9q-23.919,0-23.923,28.761v21.637h-17.74V72.59h17.74V84.818Q503.428,71.65,518.346,71.649Z"/><path id="o-2" data-name="o" d="M429.9,70.975a36.115,36.115,0,0,1,25.608,9.88q10.543,9.876,10.55,25.334t-10.55,25.334A36.111,36.111,0,0,1,429.9,141.4q-15.312,0-25.935-9.876T393.35,106.189q0-15.454,10.617-25.334T429.9,70.975Zm0,55.24a18.469,18.469,0,0,0,13.176-5.578q5.775-5.578,5.775-14.448t-5.775-14.448A18.469,18.469,0,0,0,429.9,86.163a19.109,19.109,0,0,0-13.5,5.512q-5.84,5.513-5.847,14.514T416.4,120.7A19.109,19.109,0,0,0,429.9,126.215Z"/><path id="t" d="M384.952,121.913l5.1,14.783q-9.274,4.971-17.47,4.973-12.37,0-19.352-6.653t-6.992-20.092V47.59h17.74v25h21.911V87.1H363.982v26.475q0,11.561,9.814,11.56A23.975,23.975,0,0,0,384.952,121.913Z"/><path id="s" d="M297.9,47.59q13.7,0,23.383,6.989A30.416,30.416,0,0,1,333.512,73.53l-18.28,3.762a15.138,15.138,0,0,0-5.913-10.146,18.8,18.8,0,0,0-11.827-3.832q-6.584,0-10.616,3.227a9.8,9.8,0,0,0-4.032,7.929q0,7.394,9,9.14l19.351,3.9q11.156,2.418,17.405,8.936t6.249,16.869q0,13.037-9.807,20.7t-25.943,7.66q-14.919,0-25.462-6.923a26.516,26.516,0,0,1-12.169-19.822l19.22-3.9q3.5,14.651,20.161,14.648,7.656,0,11.826-3.226a9.935,9.935,0,0,0,4.164-8.2,8.4,8.4,0,0,0-2.348-6.318q-2.352-2.286-8.13-3.492l-19.089-3.631q-23.646-4.971-23.653-25.805A24.4,24.4,0,0,1,272.9,55.184Q282.173,47.594,297.9,47.59Z"/></g><path id="anvil" d="M215.686,64.33c2.88-.837,6.45-1.345,9.362-2V47.417H180.754L165.6,65.351l20.863.83-52.631,49.246,25.151-38.359-23.351-.681,20.74-28.97H98.4c-.309,2.6-.584,4.924-.908,7.65H36.355c.813,1.728,1.084,2.971,1.825,3.782C51.516,73.419,67.566,83.29,87.24,86.591c4.766.8,9.692.636,14.458,1.425,8.793,1.455,14.851,8.314,15.646,17.158.994,11.061-4.754,17.866-19.02,22.328v13.992h46.95c3.9-11.184,7.993-14.967,16.048-14.963s12.4,4.05,15.906,14.754h47.649a77.865,77.865,0,0,1,.052-8.477c.6-5.087-.971-7-6.539-7.819-13.574-2-24.23-14.6-24.926-27.916C192.645,81.388,201.358,68.493,215.686,64.33Z"/></g><rect width="1080" height="205" fill="none"/></g></svg>