<?xml version="1.0" encoding="utf-8"?>
<!-- Generator: Adobe Illustrator 22.1.0, SVG Export Plug-In . SVG Version: 6.00 Build 0)  -->
<svg version="1.1" id="Layer_1" xmlns="http://www.w3.org/2000/svg" xmlns:xlink="http://www.w3.org/1999/xlink" x="0px" y="0px"
	 viewBox="0 0 174 76" style="enable-background:new 0 0 174 76;" xml:space="preserve">
<style type="text/css">
	.st0{fill:#231F20;}
	.st1{fill:#EC1671;}
</style>
<path class="st0" d="M18.1,22.4c0.8,6.8,0.9,11.9,0.9,23.8v25.7H4.9V3.9h17.7l13.8,26.6c3.4,6.4,7.2,14,9.4,20.8h0.4
	c-0.8-9.4-0.8-18.9-0.8-26V3.7h14.2v67.7H42.2L27.3,43c-3.4-6.6-6.2-13.2-9.1-20.8h-0.2V22.4z"/>
<path class="st0" d="M100.9,54.7c0-10.8-31.1-9.2-31.1-30.6c0-11.3,9.8-20,24-20c11.3,0,18.3,5.3,20.6,8.1l-9.2,10.9
	c-1.7-2.1-5.5-6.2-12.6-6.2c-4.9,0-7.5,2.6-7.5,6c0,10.9,31.1,9.2,31.1,30.8c0,10.2-8.5,20-25.7,20c-13,0-21.1-5.8-23.6-8.5
	l8.5-12.1c3,3,8.9,8.1,17,8.1C98.1,61.1,100.9,58.1,100.9,54.7"/>
<polyline class="st0" points="127,24.9 121.3,13.4 134.1,4.3 148.5,4.3 148.5,71.9 134.1,71.9 134.1,37 134.7,19.6 "/>
<path class="st1" d="M161.5,56.2c4.7,0,8.1,3.4,8.1,8.1c0,4.3-3.4,7.7-8.1,7.7c-4.3,0-7.9-3.4-7.9-7.7
	C153.8,59.6,157.2,56.2,161.5,56.2"/>
</svg>
