<svg width="430" height="103" viewBox="0 0 430 103" fill="none" xmlns="http://www.w3.org/2000/svg">
<path d="M110.635 40.7395C110.635 37.6698 111.602 35.3009 113.536 33.6326C115.537 31.9643 118.539 31.1302 122.541 31.1302V37.136C121.741 38.0702 120.94 39.138 120.14 40.3391L120.74 40.7395C122.741 37.7366 125.31 35.401 128.445 33.7327C131.579 31.9977 135.048 31.1302 138.851 31.1302C142.253 31.1302 145.254 31.8976 147.856 33.4324C150.457 34.9672 152.458 37.0693 153.859 39.7385C155.327 42.4078 156.06 45.4108 156.06 48.7473V75.3731C156.06 78.0424 155.027 79.9776 152.959 81.1788C150.891 82.3799 147.756 82.9805 143.553 82.9805V50.549C143.553 48.0133 142.786 45.9446 141.252 44.343C139.784 42.7415 137.617 41.9407 134.748 41.9407C131.346 41.9407 128.545 43.0084 126.344 45.1438C124.142 47.2125 123.042 49.815 123.042 52.9514V75.3731C123.042 78.0424 122.041 79.9776 120.04 81.1788C118.039 82.3799 114.904 82.9805 110.635 82.9805V40.7395ZM189.022 82.9805C184.887 82.9805 181.118 82.1798 177.716 80.5782C174.314 78.9099 171.612 76.6744 169.611 73.8717C167.61 71.0022 166.61 67.7991 166.61 64.2624V50.9494C166.61 47.2125 167.643 43.8425 169.711 40.8396C171.779 37.8367 174.514 35.4677 177.916 33.7327C181.385 31.9977 185.12 31.1302 189.122 31.1302C193.058 31.1302 196.66 31.9643 199.929 33.6326C203.263 35.2342 205.899 37.5031 207.833 40.4392C209.767 43.3087 210.735 46.6119 210.735 50.3488V55.9543C210.735 57.4224 210.167 58.6569 209.034 59.6579C207.966 60.6589 206.599 61.1593 204.931 61.1593H178.716V63.3615C178.716 66.231 179.584 68.5665 181.318 70.3683C183.052 72.17 185.653 73.0709 189.122 73.0709C192.457 73.0709 194.926 72.3369 196.527 70.8688C198.195 69.4006 199.028 67.4988 199.028 65.1632C200.229 65.0298 201.062 64.963 201.529 64.963C203.998 64.963 205.932 65.5303 207.333 66.6647C208.734 67.7324 209.434 69.2672 209.434 71.2692C209.434 73.2043 208.533 75.0729 206.732 76.8746C204.931 78.6764 202.463 80.1445 199.328 81.2789C196.193 82.4133 192.757 82.9805 189.022 82.9805ZM199.428 52.2507V50.3488C199.428 47.5461 198.461 45.2772 196.527 43.5422C194.592 41.8073 192.091 40.9397 189.022 40.9397C185.954 40.9397 183.452 41.8073 181.518 43.5422C179.65 45.2106 178.716 47.4794 178.716 50.3488V52.2507H199.428ZM220.365 39.7385C220.365 37.2695 221.333 35.2342 223.267 33.6326C225.201 31.9643 228.07 31.1302 231.872 31.1302V36.5354C230.738 38.0702 230.104 38.9711 229.971 39.2381L230.371 39.6384C232.505 36.8357 234.84 34.7337 237.375 33.3323C239.976 31.8642 243.178 31.1302 246.98 31.1302C250.65 31.1302 253.884 31.8976 256.686 33.4324C259.555 34.9006 261.789 37.0026 263.39 39.7385C264.991 42.4745 265.791 45.6109 265.791 49.1477V64.963C265.791 68.5665 264.891 71.7363 263.09 74.4723C261.356 77.2082 258.954 79.3103 255.886 80.7784C252.817 82.2465 249.349 82.9805 245.48 82.9805C243.011 82.9805 240.444 82.48 237.775 81.4791C235.174 80.4113 232.972 78.9766 231.171 77.1749L230.771 77.6754C231.238 78.3427 231.972 79.0434 232.972 79.7774V94.5918C232.972 100.197 228.77 103 220.365 103V39.7385ZM243.078 72.17C246.347 72.17 248.882 71.4694 250.683 70.068C252.484 68.6666 253.384 66.698 253.384 64.1623V49.9485C253.384 47.3459 252.484 45.3773 250.683 44.0427C248.949 42.6414 246.413 41.9407 243.078 41.9407C240.076 41.9407 237.608 42.6747 235.674 44.1428C233.74 45.5442 232.772 47.3126 232.772 49.448V64.6627C232.772 66.7315 233.706 68.4998 235.574 69.9679C237.508 71.436 240.009 72.17 243.078 72.17ZM292.377 82.9805C288.975 82.9805 285.841 82.3132 282.972 80.9786C280.17 79.644 277.902 77.7421 276.168 75.273C274.5 72.7373 273.667 69.7344 273.667 66.2643C273.667 62.7942 274.567 59.7913 276.368 57.2556C278.169 54.653 280.604 52.6844 283.672 51.3498C286.807 49.9485 290.243 49.2478 293.978 49.2478C297.047 49.2478 299.782 49.7483 302.183 50.7492C304.651 51.6834 306.919 53.1182 308.987 55.0534L309.487 54.5529C308.887 53.9523 307.853 53.0515 306.385 51.8503V49.8484C306.385 47.1124 305.418 44.9436 303.484 43.342C301.55 41.7405 298.848 40.9397 295.379 40.9397C289.176 40.9397 284.606 43.2086 281.671 47.7463C280.203 47.2792 278.97 46.5452 277.969 45.5442C276.969 44.4764 276.468 43.342 276.468 42.1409C276.468 40.1389 277.369 38.3039 279.17 36.6355C280.971 34.9672 283.405 33.6326 286.474 32.6316C289.543 31.6307 292.878 31.1302 296.48 31.1302C303.551 31.1302 309.02 32.7985 312.889 36.135C316.758 39.4049 318.692 43.8759 318.692 49.5481V74.5724C318.692 77.5085 317.759 79.644 315.891 80.9786C314.023 82.3132 311.088 82.9805 307.086 82.9805V78.8765C308.219 77.7421 308.987 76.9079 309.387 76.3741L308.987 75.8736C306.786 78.2092 304.417 79.9776 301.883 81.1788C299.414 82.3799 296.247 82.9805 292.377 82.9805ZM295.579 73.8717C299.048 73.8717 301.75 73.2043 303.684 71.8697C305.618 70.5351 306.585 68.6333 306.585 66.1642C306.585 63.7619 305.585 61.86 303.584 60.4587C301.65 59.0573 299.014 58.3566 295.679 58.3566C292.611 58.3566 290.176 59.0573 288.375 60.4587C286.641 61.7933 285.774 63.6951 285.774 66.1642C285.774 68.7 286.641 70.6352 288.375 71.9698C290.109 73.2378 292.51 73.8717 295.579 73.8717ZM329.901 40.7395C329.901 37.6698 330.867 35.3009 332.802 33.6326C334.804 31.9643 337.805 31.1302 341.808 31.1302V37.136C341.007 38.0702 340.207 39.138 339.406 40.3391L340.007 40.7395C342.008 37.7366 344.575 35.401 347.711 33.7327C350.846 31.9977 354.315 31.1302 358.117 31.1302C361.519 31.1302 364.521 31.8976 367.122 33.4324C369.724 34.9672 371.725 37.0693 373.126 39.7385C374.592 42.4078 375.327 45.4108 375.327 48.7473V75.3731C375.327 78.0424 374.292 79.9776 372.225 81.1788C370.157 82.3799 367.022 82.9805 362.82 82.9805V50.549C362.82 48.0133 362.052 45.9446 360.518 44.343C359.05 42.7415 356.882 41.9407 354.015 41.9407C350.613 41.9407 347.811 43.0084 345.61 45.1438C343.409 47.2125 342.308 49.815 342.308 52.9514V75.3731C342.308 78.0424 341.307 79.9776 339.306 81.1788C337.305 82.3799 334.169 82.9805 329.901 82.9805V40.7395ZM408.288 82.9805C404.152 82.9805 400.383 82.1798 396.981 80.5782C393.579 78.9099 390.878 76.6744 388.877 73.8717C386.875 71.0022 385.875 67.7991 385.875 64.2624V50.9494C385.875 47.2125 386.909 43.8425 388.977 40.8396C391.045 37.8367 393.779 35.4677 397.181 33.7327C400.65 31.9977 404.385 31.1302 408.388 31.1302C412.324 31.1302 415.926 31.9643 419.194 33.6326C422.53 35.2342 425.164 37.5031 427.098 40.4392C429.033 43.3087 430 46.6119 430 50.3488V55.9543C430 57.4224 429.434 58.6569 428.299 59.6579C427.232 60.6589 425.865 61.1593 424.197 61.1593H397.982V63.3615C397.982 66.231 398.849 68.5665 400.583 70.3683C402.318 72.17 404.92 73.0709 408.388 73.0709C411.724 73.0709 414.191 72.3369 415.792 70.8688C417.46 69.4006 418.293 67.4988 418.293 65.1632C419.494 65.0298 420.328 64.963 420.795 64.963C423.263 64.963 425.197 65.5303 426.598 66.6647C427.999 67.7324 428.699 69.2672 428.699 71.2692C428.699 73.2043 427.799 75.0729 425.998 76.8746C424.197 78.6764 421.729 80.1445 418.594 81.2789C415.459 82.4133 412.024 82.9805 408.288 82.9805ZM418.694 52.2507V50.3488C418.694 47.5461 417.727 45.2772 415.792 43.5422C413.858 41.8073 411.356 40.9397 408.288 40.9397C405.22 40.9397 402.718 41.8073 400.783 43.5422C398.916 45.2106 397.982 47.4794 397.982 50.3488V52.2507H418.694Z" fill="#FCFCFD"/>
<g clip-path="url(#clip0_3_1814)">
<path fill-rule="evenodd" clip-rule="evenodd" d="M6.17659 25.9644C2.23982 33.1154 0 41.3329 0 50.0737C0 77.7148 22.3986 100.122 50.0286 100.122C77.6586 100.122 100.057 77.7148 100.057 50.0737C100.057 23.8785 79.9407 2.38368 54.3191 0.206604L6.17659 25.9644ZM50.0286 83.7395C31.443 83.7395 16.3763 68.6668 16.3763 50.0737C16.3763 31.4807 31.443 16.4079 50.0286 16.4079C68.6142 16.4079 83.6809 31.4807 83.6809 50.0737C83.6809 68.6668 68.6142 83.7395 50.0286 83.7395Z" fill="#FCFCFD"/>
<path fill-rule="evenodd" clip-rule="evenodd" d="M22.8229 29.2458C13.9925 29.887 8.24664 24.6798 5.1499 28.0453C5.71451 26.0366 6.33078 25.6349 8.23225 24.6423C8.23225 24.6423 49.4675 1.54262 52.0093 0.603221C54.551 -0.336172 57.1309 0.709376 56.976 0.507562C56.9684 0.512755 53.6304 0.31372 51.2872 9.18182C47.8711 22.1082 29.686 29.0999 22.8217 29.2459L22.8229 29.2458Z" fill="#EC8B5E"/>
</g>
<defs>
<clipPath id="clip0_3_1814">
<rect width="100.057" height="101.098" fill="white"/>
</clipPath>
</defs>
</svg>
