<svg width="317" height="342" viewBox="0 0 317 342" fill="none" xmlns="http://www.w3.org/2000/svg">
<g clip-path="url(#clip0)">
<path d="M158.49 170.99V227.99H7.46C3.34 227.99 0 231.51 0 235.85V334.12C0 338.46 3.34 341.98 7.46 341.98H309.52C313.64 341.98 316.98 338.46 316.98 334.12V178.86C316.98 174.52 313.64 171 309.52 171H158.49V170.99ZM0 7.86V163.13C0 167.47 3.34 170.99 7.46 170.99H158.49V113.63H309.52C313.64 113.63 316.98 110.11 316.98 105.77V7.86C316.98 3.52 313.64 0 309.52 0H7.46C3.34 0 0 3.52 0 7.86Z" fill="black"/>
<path d="M158.49 170.99V227.99H7.46C3.34 227.99 0 231.51 0 235.85V334.12C0 338.46 3.34 341.98 7.46 341.98H309.52C313.64 341.98 316.98 338.46 316.98 334.12V178.86C316.98 174.52 313.64 171 309.52 171H158.49V170.99ZM0 7.86V163.13C0 167.47 3.34 170.99 7.46 170.99H158.49V113.63H309.52C313.64 113.63 316.98 110.11 316.98 105.77V7.86C316.98 3.52 313.64 0 309.52 0H7.46C3.34 0 0 3.52 0 7.86Z" fill="black"/>
</g>
<defs>
<clipPath id="clip0">
<rect width="316.98" height="341.98" fill="white"/>
</clipPath>
</defs>
</svg>
