<?xml version="1.0" standalone="no"?>
<!DOCTYPE svg PUBLIC "-//W3C//DTD SVG 20010904//EN"
 "http://www.w3.org/TR/2001/REC-SVG-20010904/DTD/svg10.dtd">
<svg version="1.0" xmlns="http://www.w3.org/2000/svg"
 width="593.000000pt" height="50.000000pt" viewBox="0 0 593.000000 50.000000"
 preserveAspectRatio="xMidYMid meet">

<g transform="translate(0.000000,50.000000) scale(0.100000,-0.100000)"
fill="#000000" stroke="none">
<path d="M3460 270 l0 -200 30 0 30 0 0 200 0 200 -30 0 -30 0 0 -200z"/>
<path d="M70 260 l0 -190 31 0 32 0 -5 140 c-2 77 -2 137 1 134 3 -3 29 -65
56 -137 45 -116 54 -132 75 -135 23 -2 28 6 73 125 26 71 52 135 57 143 7 10
8 -35 3 -127 l-6 -143 36 0 37 0 0 190 0 190 -44 0 -43 0 -53 -140 c-29 -77
-56 -140 -59 -140 -4 0 -13 17 -20 38 -8 20 -31 83 -53 140 l-39 102 -40 0
-39 0 0 -190z"/>
<path d="M540 260 l0 -190 35 0 35 0 0 190 0 190 -35 0 -35 0 0 -190z"/>
<path d="M690 260 l0 -190 30 0 30 0 1 143 0 142 56 -142 c49 -125 59 -143 79
-143 19 0 28 16 68 118 25 64 50 128 55 142 7 18 10 -14 10 -117 l1 -143 30 0
30 0 0 191 0 190 -42 -3 -42 -3 -52 -138 c-29 -77 -54 -141 -57 -143 -2 -2
-28 61 -58 141 l-54 145 -42 0 -43 0 0 -190z"/>
<path d="M1170 260 l0 -190 30 0 30 0 0 190 0 190 -30 0 -30 0 0 -190z"/>
<path d="M1400 443 c-24 -9 -61 -45 -78 -78 -23 -44 -22 -169 2 -217 25 -52
71 -78 137 -78 76 0 137 45 139 103 0 26 -57 24 -65 -3 -11 -34 -35 -50 -76
-50 -71 0 -94 43 -87 160 5 86 30 120 89 120 39 0 63 -16 74 -50 8 -25 65 -29
65 -4 0 26 -31 70 -60 88 -27 15 -108 21 -140 9z"/>
<path d="M1765 436 c-60 -26 -115 -113 -115 -181 0 -76 54 -153 125 -181 120
-45 245 46 245 179 0 51 -20 109 -48 140 -46 51 -142 71 -207 43z m162 -44
c64 -45 84 -158 41 -222 -52 -76 -123 -97 -198 -58 -50 26 -90 89 -90 143 0
45 40 116 80 143 44 30 121 27 167 -6z"/>
<path d="M1760 260 c0 -103 1 -110 20 -110 17 0 20 7 20 45 0 39 3 45 21 45
39 0 59 -19 59 -55 0 -28 4 -35 20 -35 16 0 20 7 20 33 0 18 -7 42 -15 54 -13
18 -13 22 0 33 22 18 18 48 -10 75 -20 21 -34 25 -80 25 l-55 0 0 -110z m101
70 c10 -6 19 -19 19 -29 0 -21 -19 -31 -56 -31 -21 0 -24 5 -24 35 0 29 4 35
21 35 11 0 29 -5 40 -10z"/>
<path d="M2270 433 c-38 -26 -49 -45 -50 -84 0 -48 47 -91 126 -116 71 -22 94
-51 70 -88 -14 -21 -25 -25 -61 -25 -44 0 -85 24 -85 50 0 6 -13 10 -30 10
-22 0 -30 -5 -30 -18 0 -99 226 -129 269 -35 27 60 5 105 -68 139 -111 50
-126 59 -129 77 -6 28 27 57 64 57 46 0 64 -9 75 -36 6 -18 16 -24 39 -24 16
0 30 5 30 10 0 25 -32 71 -60 85 -40 21 -129 20 -160 -2z"/>
<path d="M2552 423 c2 -22 8 -28 28 -28 20 0 25 5 25 25 0 20 -6 26 -28 28
-26 3 -28 1 -25 -25z"/>
<path d="M4738 434 c-34 -18 -48 -43 -48 -87 0 -50 24 -73 115 -110 70 -29 80
-36 83 -60 5 -40 -14 -57 -62 -57 -44 0 -86 22 -86 46 0 9 -11 14 -35 14 l-35
0 13 -32 c7 -18 29 -44 48 -56 29 -20 44 -23 102 -20 57 3 71 8 94 31 21 21
28 37 28 68 0 52 -38 89 -116 114 -85 28 -110 62 -73 99 33 34 124 10 124 -32
0 -7 15 -12 35 -12 19 0 35 3 35 6 0 21 -35 73 -59 87 -36 21 -125 22 -163 1z"/>
<path d="M5317 436 c-11 -28 4 -47 32 -44 20 2 26 8 26 28 0 20 -6 26 -26 28
-17 2 -29 -3 -32 -12z"/>
<path d="M3900 385 c0 -31 -3 -35 -26 -35 -21 0 -25 -4 -22 -22 2 -15 11 -24
26 -26 21 -3 22 -8 22 -95 0 -114 12 -137 71 -137 35 0 39 3 39 24 0 18 -6 25
-22 28 -22 3 -23 8 -26 91 l-3 87 26 0 c20 0 25 5 25 25 0 20 -5 25 -25 25
-22 0 -25 4 -25 35 0 32 -2 35 -30 35 -28 0 -30 -3 -30 -35z"/>
<path d="M5470 385 c0 -31 -3 -35 -25 -35 -20 0 -25 -5 -25 -25 0 -20 5 -25
25 -25 25 0 25 0 25 -98 0 -113 10 -132 73 -132 33 0 37 3 37 24 0 18 -6 25
-22 28 -22 3 -23 8 -26 91 l-3 87 26 0 c20 0 25 5 25 25 0 20 -5 25 -25 25
-22 0 -25 4 -25 35 0 32 -2 35 -30 35 -28 0 -30 -3 -30 -35z"/>
<path d="M2550 210 l0 -140 30 0 30 0 0 140 0 140 -30 0 -30 0 0 -140z"/>
<path d="M2680 210 l0 -140 35 0 35 0 0 109 c0 116 2 121 54 121 39 0 46 -18
46 -127 l0 -103 35 0 35 0 0 104 c0 116 7 129 62 124 l33 -3 3 -112 3 -113 34
0 35 0 0 83 c0 159 -18 197 -94 197 -28 0 -52 -7 -66 -18 -23 -18 -24 -18 -42
0 -23 23 -95 24 -126 2 -20 -14 -22 -14 -22 0 0 11 -10 16 -30 16 l-30 0 0
-140z"/>
<path d="M3150 251 c0 -106 12 -156 40 -171 25 -13 87 -13 113 1 16 9 22 9 25
0 2 -6 17 -11 33 -11 l29 0 0 140 0 140 -35 0 -35 0 0 -103 c0 -114 -6 -127
-57 -127 -44 0 -53 24 -53 141 l0 89 -30 0 -30 0 0 -99z"/>
<path d="M3621 324 c-17 -14 -31 -32 -31 -40 0 -21 47 -17 70 6 34 34 90 18
90 -24 0 -21 -6 -24 -54 -29 -63 -6 -91 -22 -107 -58 -30 -75 65 -140 144 -98
16 9 22 9 25 0 2 -6 17 -11 34 -11 29 0 30 2 24 31 -3 17 -6 69 -6 116 0 76
-2 86 -25 108 -35 36 -121 36 -164 -1z m129 -152 c0 -37 -17 -52 -57 -52 -41
0 -59 27 -37 58 11 16 26 22 55 22 36 0 39 -2 39 -28z"/>
<path d="M4091 324 c-62 -52 -65 -162 -6 -221 28 -28 40 -33 79 -33 91 0 136
47 136 140 0 93 -45 140 -134 140 -33 0 -52 -6 -75 -26z m133 -46 c22 -31 21
-110 -2 -138 -23 -29 -67 -29 -95 -1 -29 28 -30 110 -2 141 25 28 79 27 99 -2z"/>
<path d="M4360 210 l0 -140 30 0 30 0 0 91 c0 109 8 129 55 129 32 0 35 2 35
30 0 26 -4 30 -27 30 -14 0 -35 -7 -45 -17 -17 -15 -18 -15 -18 0 0 12 -9 17
-30 17 l-30 0 0 -140z"/>
<path d="M5012 229 c3 -113 5 -122 27 -140 26 -21 90 -25 124 -8 16 9 22 9 25
0 2 -6 15 -11 28 -11 l24 0 0 140 0 140 -30 0 -30 0 0 -103 c0 -114 -6 -127
-57 -127 -45 0 -53 21 -53 134 l0 96 -31 0 -31 0 4 -121z"/>
<path d="M5320 210 l0 -140 30 0 30 0 0 140 0 140 -30 0 -30 0 0 -140z"/>
<path d="M5663 317 c-31 -29 -37 -41 -41 -89 -9 -107 47 -165 147 -156 35 4
60 12 74 26 21 22 21 22 2 36 -17 13 -22 13 -36 0 -29 -26 -79 -21 -106 10
-12 15 -23 31 -23 37 0 5 40 9 90 9 103 0 108 4 90 70 -17 64 -49 90 -110 90
-43 0 -55 -5 -87 -33z m134 -47 l12 -25 -60 -3 c-34 -2 -64 -1 -67 2 -2 3 3
17 12 31 23 36 84 33 103 -5z"/>
</g>
</svg>
