<?xml version="1.0" encoding="UTF-8"?>
<!DOCTYPE svg PUBLIC "-//W3C//DTD SVG 1.1//EN" "http://www.w3.org/Graphics/SVG/1.1/DTD/svg11.dtd">
<!-- Creator: CorelDRAW -->
<svg xmlns="http://www.w3.org/2000/svg" xml:space="preserve" width="210mm" height="297mm" style="shape-rendering:geometricPrecision; text-rendering:geometricPrecision; image-rendering:optimizeQuality; fill-rule:evenodd; clip-rule:evenodd"
viewBox="0 0 210 297"
 xmlns:xlink="http://www.w3.org/1999/xlink">
 <defs>
  <style type="text/css">
   <![CDATA[
    .fil3 {fill:#4D4948}
    .fil2 {fill:#7F2455}
    .fil0 {fill:#4D4948;fill-rule:nonzero}
    .fil1 {fill:#7F2455;fill-rule:nonzero}
   ]]>
  </style>
 </defs>
 <g id="Capa_x0020_1">
  <metadata id="CorelCorpID_0Corel-Layer"/>
  <path class="fil0" d="M86.6988 159.73c0.586,0 1.1251,0.0637 1.6168,0.1914 0.4916,0.1278 0.9245,0.3332 1.298,0.6168 0.3732,0.284 0.6831,0.6549 0.9289,1.1137 0.2459,0.4583 0.4206,1.014 0.5246,1.6664l-1.1488 0c-0.0755,-0.4632 -0.2199,-0.8534 -0.4324,-1.1699 -0.2129,-0.317 -0.4706,-0.5725 -0.7731,-0.7661 -0.3024,-0.194 -0.6286,-0.331 -0.9785,-0.4113 -0.3498,-0.0803 -0.6953,-0.1207 -1.0355,-0.1207 -0.4351,0 -0.8675,0.0733 -1.2977,0.2199 -0.4306,0.1466 -0.8156,0.3828 -1.1563,0.709 -0.3402,0.3266 -0.6167,0.752 -0.8297,1.2765 -0.2129,0.5251 -0.3191,1.1704 -0.3191,1.9364 0,0.7656 0.1062,1.4135 0.3191,1.9429 0.213,0.5294 0.4895,0.9575 0.8297,1.2836 0.3407,0.3262 0.7257,0.5628 1.1563,0.7094 0.4302,0.1466 0.8626,0.2199 1.2977,0.2199 0.3687,0 0.7326,-0.0522 1.0922,-0.1562 0.3591,-0.1041 0.6901,-0.2669 0.9925,-0.4895 0.3029,-0.2221 0.5606,-0.5057 0.7731,-0.8507 0.2129,-0.3451 0.3569,-0.759 0.4328,-1.241l1.1348 0c-0.0852,0.6619 -0.2674,1.2361 -0.5461,1.723 -0.2792,0.4872 -0.6194,0.8889 -1.0215,1.2058 -0.4017,0.3166 -0.8508,0.5505 -1.3473,0.702 -0.4965,0.1514 -1,0.2269 -1.5105,0.2269 -0.7375,0 -1.4017,-0.111 -1.993,-0.3332 -0.5909,-0.2221 -1.0944,-0.5531 -1.5106,-0.9929 -0.4157,-0.4399 -0.7348,-0.9882 -0.9574,-1.6453 -0.2221,-0.6572 -0.3332,-1.4254 -0.3332,-2.3047 0,-0.8797 0.1137,-1.6479 0.3407,-2.3051 0.2269,-0.6572 0.5504,-1.2054 0.9714,-1.6453 0.4206,-0.4394 0.9241,-0.7682 1.5106,-0.9855 0.586,-0.2178 1.2432,-0.3262 1.9715,-0.3262zm8.022 3.9715c-0.7186,0 -1.2621,0.2432 -1.6308,0.73 -0.3688,0.4873 -0.5532,1.1466 -0.5532,1.979 0,0.3779 0.04,0.7326 0.1203,1.0636 0.0804,0.331 0.2103,0.6216 0.3903,0.8723 0.1795,0.2506 0.4065,0.4468 0.6809,0.5886 0.2739,0.1418 0.6049,0.2129 0.9925,0.2129 0.3973,0 0.7353,-0.0711 1.0141,-0.2129 0.2792,-0.1418 0.5083,-0.3358 0.6879,-0.5816 0.1799,-0.2458 0.3121,-0.5343 0.3972,-0.8652 0.0852,-0.331 0.1278,-0.6901 0.1278,-1.0777 0,-0.3973 -0.0448,-0.7612 -0.1348,-1.0922 -0.09,-0.331 -0.2269,-0.6172 -0.4113,-0.8582 -0.1844,-0.2411 -0.4162,-0.4281 -0.6949,-0.5602 -0.2792,-0.1326 -0.6076,-0.1984 -0.986,-0.1984zm0 -1.0922c0.5865,0 1.0922,0.0896 1.5176,0.2695 0.4258,0.1796 0.7757,0.4324 1.0496,0.7586 0.2744,0.3262 0.4776,0.7256 0.6102,1.1984 0.1321,0.4728 0.1984,0.9978 0.1984,1.5747 0,0.5579 -0.0636,1.0684 -0.1914,1.5316 -0.1277,0.4635 -0.3262,0.8652 -0.5957,1.2058 -0.2695,0.3403 -0.6194,0.605 -1.0496,0.7942 -0.4302,0.1892 -0.9434,0.2836 -1.5391,0.2836 -0.5957,0 -1.1062,-0.0944 -1.5316,-0.2836 -0.4258,-0.1892 -0.7731,-0.4517 -1.0426,-0.7871 -0.2696,-0.3359 -0.4658,-0.7375 -0.5887,-1.2059 -0.1229,-0.468 -0.1844,-0.9807 -0.1844,-1.5386 0,-0.5865 0.0615,-1.1159 0.1844,-1.5887 0.1229,-0.4728 0.3191,-0.8723 0.5887,-1.1985 0.2695,-0.3261 0.6168,-0.5768 1.0426,-0.7519 0.4254,-0.1747 0.9359,-0.2621 1.5316,-0.2621zm11.4404 0c0.709,0 1.2551,0.255 1.6383,0.7656 0.3828,0.511 0.5742,1.3477 0.5742,2.5105l0 4.1985 -1.1348 0 0 -4.1985c0,-0.7656 -0.1229,-1.3213 -0.3687,-1.6664 -0.2458,-0.345 -0.6146,-0.5175 -1.1063,-0.5175 -0.4253,0 -0.7893,0.1203 -1.0922,0.3613 -0.3024,0.2414 -0.5197,0.5794 -0.6523,1.0145l0 5.0066 -1.1062 0 0 -4.1985c0,-0.8037 -0.1278,-1.3687 -0.3833,-1.6949 -0.255,-0.3261 -0.6238,-0.489 -1.1062,-0.489 -0.482,0 -0.8696,0.1036 -1.1629,0.3117 -0.2932,0.208 -0.4917,0.4728 -0.5957,0.7945l0 5.2762 -1.1207 0 0 -7.3613 1.007 0 0 0.766c0.0663,-0.0852 0.1681,-0.1774 0.3051,-0.2766 0.137,-0.0992 0.3025,-0.194 0.4965,-0.2836 0.1936,-0.09 0.4113,-0.1655 0.6523,-0.2269 0.241,-0.0615 0.5035,-0.0922 0.7871,-0.0922 0.4539,0 0.8631,0.1111 1.227,0.3332 0.3639,0.2221 0.6124,0.532 0.7445,0.9289 0.2081,-0.3969 0.4965,-0.7068 0.8653,-0.9289 0.3687,-0.2221 0.8797,-0.3332 1.532,-0.3332zm10.6318 0c0.709,0 1.2551,0.255 1.6383,0.7656 0.3828,0.511 0.5742,1.3477 0.5742,2.5105l0 4.1985 -1.1348 0 0 -4.1985c0,-0.7656 -0.1229,-1.3213 -0.3687,-1.6664 -0.2458,-0.345 -0.6146,-0.5175 -1.1062,-0.5175 -0.4254,0 -0.7893,0.1203 -1.0922,0.3613 -0.3025,0.2414 -0.5198,0.5794 -0.6524,1.0145l0 5.0066 -1.1062 0 0 -4.1985c0,-0.8037 -0.1278,-1.3687 -0.3833,-1.6949 -0.255,-0.3261 -0.6238,-0.489 -1.1062,-0.489 -0.482,0 -0.8696,0.1036 -1.1629,0.3117 -0.2932,0.208 -0.4916,0.4728 -0.5957,0.7945l0 5.2762 -1.1207 0 0 -7.3613 1.007 0 0 0.766c0.0663,-0.0852 0.1681,-0.1774 0.3051,-0.2766 0.137,-0.0992 0.3025,-0.194 0.4965,-0.2836 0.1936,-0.09 0.4113,-0.1655 0.6523,-0.2269 0.241,-0.0615 0.5036,-0.0922 0.7871,-0.0922 0.454,0 0.8631,0.1111 1.227,0.3332 0.3639,0.2221 0.6124,0.532 0.7445,0.9289 0.2081,-0.3969 0.4965,-0.7068 0.8653,-0.9289 0.3687,-0.2221 0.8797,-0.3332 1.532,-0.3332zm4.0931 0.1133l0 4.1984c0,0.7471 0.1537,1.2976 0.461,1.6523 0.3073,0.3547 0.7067,0.5321 1.1984,0.5321 0.4825,0 0.8938,-0.1067 1.234,-0.3192 0.3407,-0.2129 0.572,-0.4754 0.6949,-0.7875l0 -5.2761 1.1207 0 0 7.3613 -1.1207 0 0 -0.7661c-0.0755,0.0852 -0.1844,0.18 -0.3262,0.2836 -0.1417,0.1041 -0.3121,0.2011 -0.5105,0.2911 -0.1984,0.0895 -0.4232,0.1628 -0.6738,0.2199 -0.2507,0.0566 -0.5176,0.0847 -0.8012,0.0847 -0.7564,0 -1.3428,-0.2621 -1.759,-0.7871 -0.4157,-0.5246 -0.6238,-1.3542 -0.6238,-2.489l0 -4.1984 1.1062 0zm10.3338 7.3613l0 -4.1985c0,-0.7656 -0.1466,-1.3213 -0.4394,-1.6664 -0.2933,-0.345 -0.6954,-0.5175 -1.2059,-0.5175 -0.5106,0 -0.9311,0.1084 -1.2621,0.3262 -0.331,0.2172 -0.558,0.4771 -0.6809,0.78l0 5.2762 -1.1207 0 0 -7.3613 1.007 0 0 0.766c0.0852,-0.0948 0.2081,-0.194 0.3688,-0.2981 0.1611,-0.104 0.3476,-0.1984 0.5605,-0.2836 0.2125,-0.0851 0.4465,-0.1558 0.702,-0.2129 0.2555,-0.0566 0.5246,-0.0847 0.8086,-0.0847 0.7656,0 1.3543,0.2669 1.7656,0.8011 0.4113,0.5343 0.6172,1.3596 0.6172,2.475l0 4.1985 -1.1207 0zm3.1146 0l-1.1348 0 0 -7.3613 1.1348 0 0 7.3613zm0 -8.9781l-1.1348 0 0 -1.1914 1.1348 0 0 1.1914zm3.6677 1.5035c0.9171,0 1.6287,0.1844 2.1348,0.5531 0.5057,0.3688 0.8249,0.9693 0.9574,1.8012l-1.1914 0c-0.0759,-0.4254 -0.284,-0.7424 -0.6242,-0.9504 -0.3407,-0.2081 -0.766,-0.3117 -1.2766,-0.3117 -0.7186,0 -1.2528,0.2432 -1.6027,0.73 -0.3499,0.4873 -0.5246,1.1466 -0.5246,1.979 0,0.3779 0.0377,0.7326 0.1132,1.0636 0.0756,0.331 0.1985,0.6216 0.3688,0.8723 0.1703,0.2506 0.3903,0.4468 0.6594,0.5886 0.2695,0.1418 0.5983,0.2129 0.9859,0.2129 1.0782,0 1.7257,-0.4635 1.943,-1.3902l1.1633 0c-0.1418,0.7375 -0.4588,1.3332 -0.9504,1.7871 -0.4917,0.4539 -1.2103,0.6809 -2.1559,0.6809 -0.5957,0 -1.104,-0.0944 -1.5246,-0.2836 -0.421,-0.1892 -0.7612,-0.4517 -1.0215,-0.7871 -0.2599,-0.3359 -0.4491,-0.7375 -0.5672,-1.2059 -0.1181,-0.468 -0.1773,-0.9807 -0.1773,-1.5386 0,-0.5865 0.0592,-1.1159 0.1773,-1.5887 0.1181,-0.4728 0.3073,-0.8723 0.5672,-1.1985 0.2603,-0.3261 0.6005,-0.5768 1.0215,-0.7519 0.4206,-0.1747 0.9289,-0.2621 1.5246,-0.2621zm6.6603 0c0.9171,0 1.6243,0.2151 2.1203,0.6453 0.4965,0.4302 0.745,1.0896 0.745,1.9785l0 3.9996c0,0.1514 0.0211,0.3029 0.0636,0.4539 0.0426,0.1514 0.0874,0.284 0.1348,0.3973l-0.9504 0c-0.1418,-0.2173 -0.2173,-0.4917 -0.227,-0.8227 -0.2173,0.2836 -0.5623,0.5224 -1.0351,0.7164 -0.4728,0.1936 -1.0641,0.2906 -1.7731,0.2906 -0.3876,0 -0.7374,-0.0518 -1.0496,-0.1558 -0.3121,-0.104 -0.5768,-0.2458 -0.7941,-0.4258 -0.2177,-0.1796 -0.3881,-0.3925 -0.511,-0.6383 -0.1229,-0.2458 -0.1843,-0.5057 -0.1843,-0.7801 0,-0.3687 0.0803,-0.6922 0.2414,-0.9714 0.1607,-0.2788 0.3758,-0.5154 0.6453,-0.709 0.2695,-0.194 0.5839,-0.3525 0.9429,-0.4754 0.3596,-0.1229 0.7353,-0.2199 1.1278,-0.2906 0.3925,-0.0711 0.7897,-0.1207 1.1914,-0.1488 0.4021,-0.0286 0.7871,-0.0426 1.1559,-0.0426l0 -0.3688c0,-0.4824 -0.144,-0.863 -0.4324,-1.1418 -0.2885,-0.2792 -0.7828,-0.4183 -1.4825,-0.4183 -0.5672,0 -1.0044,0.1062 -1.3117,0.3187 -0.3073,0.2129 -0.5132,0.5369 -0.6172,0.9719l-1.1343 0c0.0566,-0.2932 0.1461,-0.5838 0.2691,-0.8723 0.1229,-0.2884 0.3029,-0.5439 0.539,-0.766 0.2366,-0.2221 0.5413,-0.4021 0.9149,-0.5391 0.3736,-0.1369 0.8441,-0.2054 1.4113,-0.2054zm1.8438 3.8292c-0.3117,0.0189 -0.7042,0.0545 -1.177,0.1067 -0.4727,0.0518 -0.9337,0.1418 -1.3832,0.2696 -0.4491,0.1273 -0.8345,0.2976 -1.1559,0.5105 -0.3213,0.2125 -0.482,0.4846 -0.482,0.8156 0,0.7467 0.4961,1.1203 1.4891,1.1203 0.2647,0 0.532,-0.0237 0.8016,-0.0711 0.2695,-0.047 0.5246,-0.1155 0.7656,-0.2055 0.2414,-0.0899 0.4609,-0.2058 0.6598,-0.3476 0.1984,-0.1418 0.359,-0.3073 0.482,-0.4961l0 -1.7024zm4.5755 -2.7515l-1.3903 0 0 4.3262c0,0.1984 0.0097,0.3687 0.0286,0.5105 0.0189,0.1418 0.0592,0.2599 0.1207,0.3547 0.0615,0.0944 0.1585,0.1655 0.2906,0.2125 0.1326,0.0474 0.3121,0.0711 0.5391,0.0711 0.0755,0 0.1488,-0.0026 0.2199,-0.007 0.0707,-0.0049 0.1392,-0.0119 0.2055,-0.0215l0.1843 1.0781c-0.2361,0.047 -0.4394,0.0707 -0.6097,0.0707 -0.3973,0 -0.7283,-0.0545 -0.993,-0.1629 -0.2647,-0.1089 -0.4798,-0.2577 -0.6453,-0.4469 -0.1655,-0.1892 -0.2836,-0.4113 -0.3547,-0.6668 -0.0707,-0.255 -0.1062,-0.5294 -0.1062,-0.8226l0 -4.4961 -1.0356 0 0 -0.9644 1.0356 0 0 -1.9856 1.1202 -0.2695 0 2.2551 1.3903 0 0 0.9644zm1.1572 6.3969l-1.1348 0 0 -7.3613 1.1348 0 0 7.3613zm0 -8.9781l-1.1348 0 0 -1.1914 1.1348 0 0 1.1914zm3.7243 2.5957c-0.7186,0 -1.262,0.2432 -1.6308,0.73 -0.3687,0.4873 -0.5531,1.1466 -0.5531,1.979 0,0.3779 0.0399,0.7326 0.1203,1.0636 0.0803,0.331 0.2102,0.6216 0.3902,0.8723 0.1796,0.2506 0.4065,0.4468 0.6809,0.5886 0.2739,0.1418 0.6049,0.2129 0.9925,0.2129 0.3973,0 0.7353,-0.0711 1.0141,-0.2129 0.2792,-0.1418 0.5083,-0.3358 0.6879,-0.5816 0.18,-0.2458 0.3121,-0.5343 0.3973,-0.8652 0.0851,-0.331 0.1277,-0.6901 0.1277,-1.0777 0,-0.3973 -0.0448,-0.7612 -0.1347,-1.0922 -0.09,-0.331 -0.227,-0.6172 -0.4114,-0.8582 -0.1844,-0.2411 -0.4161,-0.4281 -0.6949,-0.5602 -0.2792,-0.1326 -0.6076,-0.1984 -0.986,-0.1984zm0 -1.0922c0.5865,0 1.0922,0.0896 1.5176,0.2695 0.4258,0.1796 0.7757,0.4324 1.0496,0.7586 0.2744,0.3262 0.4777,0.7256 0.6102,1.1984 0.1322,0.4728 0.1984,0.9978 0.1984,1.5747 0,0.5579 -0.0636,1.0684 -0.1914,1.5316 -0.1277,0.4635 -0.3261,0.8652 -0.5957,1.2058 -0.2695,0.3403 -0.6194,0.605 -1.0496,0.7942 -0.4302,0.1892 -0.9434,0.2836 -1.5391,0.2836 -0.5957,0 -1.1062,-0.0944 -1.5316,-0.2836 -0.4258,-0.1892 -0.773,-0.4517 -1.0426,-0.7871 -0.2695,-0.3359 -0.4657,-0.7375 -0.5887,-1.2059 -0.1229,-0.468 -0.1843,-0.9807 -0.1843,-1.5386 0,-0.5865 0.0614,-1.1159 0.1843,-1.5887 0.123,-0.4728 0.3192,-0.8723 0.5887,-1.1985 0.2696,-0.3261 0.6168,-0.5768 1.0426,-0.7519 0.4254,-0.1747 0.9359,-0.2621 1.5316,-0.2621zm8.5326 7.4746l0 -4.1985c0,-0.7656 -0.1466,-1.3213 -0.4394,-1.6664 -0.2932,-0.345 -0.6954,-0.5175 -1.2059,-0.5175 -0.5105,0 -0.9311,0.1084 -1.2621,0.3262 -0.331,0.2172 -0.5579,0.4771 -0.6809,0.78l0 5.2762 -1.1207 0 0 -7.3613 1.007 0 0 0.766c0.0852,-0.0948 0.2081,-0.194 0.3688,-0.2981 0.1611,-0.104 0.3477,-0.1984 0.5606,-0.2836 0.2125,-0.0851 0.4464,-0.1558 0.7019,-0.2129 0.2555,-0.0566 0.5246,-0.0847 0.8086,-0.0847 0.7656,0 1.3543,0.2669 1.7656,0.8011 0.4114,0.5343 0.6173,1.3596 0.6173,2.475l0 4.1985 -1.1208 0zm4.2494 -7.4891c0.2362,0 0.5057,0.0167 0.8082,0.0496 0.3029,0.0334 0.5935,0.1256 0.8722,0.2766 0.2792,0.1514 0.5251,0.388 0.7375,0.7094 0.213,0.3213 0.3574,0.766 0.4329,1.3332l-1.1207 0c-0.0848,-0.3214 -0.1914,-0.5698 -0.3192,-0.7446 -0.1273,-0.1751 -0.2691,-0.305 -0.4254,-0.3902 -0.1558,-0.0852 -0.3239,-0.1348 -0.5035,-0.1488 -0.1795,-0.0141 -0.3547,-0.0211 -0.5246,-0.0211 -0.3973,0 -0.7375,0.0896 -1.0215,0.2691 -0.2836,0.18 -0.4254,0.4113 -0.4254,0.6954 0,0.1606 0.0496,0.2976 0.1488,0.4113 0.0993,0.1132 0.2296,0.2103 0.3903,0.2906 0.1607,0.0803 0.345,0.1488 0.5531,0.2054 0.2081,0.0571 0.4206,0.1137 0.6383,0.1704 0.3121,0.0759 0.6264,0.1633 0.943,0.2625 0.3169,0.0992 0.6053,0.2317 0.8652,0.3972 0.2603,0.1655 0.4728,0.3806 0.6383,0.6454 0.1655,0.2647 0.2484,0.6005 0.2484,1.007 0,0.3402 -0.0711,0.6501 -0.2129,0.9289 -0.1418,0.2787 -0.345,0.5175 -0.6097,0.7164 -0.2647,0.1984 -0.5865,0.352 -0.9645,0.4609 -0.3784,0.1084 -0.7989,0.1629 -1.2625,0.1629 -0.4917,0 -0.9122,-0.0707 -1.2621,-0.2125 -0.3498,-0.1418 -0.6361,-0.331 -0.8582,-0.5676 -0.2221,-0.2362 -0.3903,-0.5057 -0.5035,-0.8082 -0.1137,-0.3029 -0.1752,-0.6145 -0.1844,-0.9363l1.0922 0c0.1699,0.9644 0.7423,1.4469 1.716,1.4469 0.558,0 1.0141,-0.0874 1.3688,-0.2625 0.3547,-0.1748 0.532,-0.475 0.532,-0.9008 0,-0.2081 -0.0522,-0.3828 -0.1563,-0.5246 -0.104,-0.1418 -0.2432,-0.2625 -0.4183,-0.3617 -0.1747,-0.0992 -0.3758,-0.1822 -0.6027,-0.2481 -0.227,-0.0662 -0.4588,-0.1277 -0.695,-0.1843 -0.2932,-0.0663 -0.5886,-0.1467 -0.8867,-0.2415 -0.2976,-0.0944 -0.565,-0.2173 -0.8012,-0.3687 -0.2366,-0.151 -0.428,-0.3451 -0.5746,-0.5817 -0.1466,-0.2361 -0.2199,-0.5386 -0.2199,-0.9073 0,-0.3596 0.0759,-0.6669 0.2269,-0.9219 0.1515,-0.2555 0.3477,-0.4658 0.5887,-0.6313 0.2415,-0.1655 0.5154,-0.2862 0.8227,-0.3617 0.3073,-0.0759 0.6172,-0.1137 0.9293,-0.1137z"/>
  <path class="fil1" d="M81.427 147.171c0,-1.8978 0.2499,-3.5558 0.7499,-4.9742 0.5,-1.4184 1.1989,-2.597 2.097,-3.5356 0.8981,-0.9389 1.9845,-1.6429 3.2601,-2.1121 1.2755,-0.4693 2.6989,-0.7043 4.2702,-0.7043 1.2448,0 2.3877,0.1431 3.4286,0.4288 1.0409,0.2856 1.9693,0.7498 2.7857,1.3926 0.816,0.6429 1.5048,1.4744 2.0662,2.4947 0.5612,1.0207 0.9845,2.2655 1.2702,3.7348l-3.8263 0c-0.2043,-0.8164 -0.5101,-1.5 -0.9183,-2.051 -0.4082,-0.551 -0.8724,-1.0001 -1.3931,-1.3468 -0.5202,-0.3471 -1.0763,-0.5969 -1.6682,-0.7502 -0.5918,-0.153 -1.1732,-0.2296 -1.7448,-0.2296 -0.7958,0 -1.5814,0.1327 -2.3569,0.3981 -0.7756,0.2653 -1.4744,0.7039 -2.097,1.3164 -0.6222,0.6121 -1.1273,1.4028 -1.5153,2.3724 -0.3875,0.9693 -0.5817,2.1581 -0.5817,3.566 0,1.4082 0.2401,2.597 0.7195,3.5663 0.4798,0.9693 1.0868,1.755 1.8215,2.3569 0.7346,0.602 1.5456,1.0409 2.4336,1.3164 0.8876,0.2755 1.7292,0.4133 2.5254,0.4133 0.2447,0 0.5712,-0.0101 0.9794,-0.0307 0.4082,-0.0203 0.8471,-0.051 1.3164,-0.0919 0.4693,-0.0408 0.9386,-0.0918 1.4082,-0.1529 0.4693,-0.0611 0.8775,-0.1226 1.2242,-0.1837l0 -3.9795 -4.7142 0 0 -3.6427 8.449 0 0 10.5302c-0.6735,0.2245 -1.4234,0.4183 -2.2499,0.5817 -0.8265,0.1634 -1.6479,0.2907 -2.4643,0.3825 -0.8164,0.0918 -1.5767,0.1584 -2.2806,0.1992 -0.704,0.0409 -1.26,0.0611 -1.6682,0.0611 -1.5713,0 -3.0407,-0.2346 -4.408,-0.7039 -1.3674,-0.4697 -2.5663,-1.1736 -3.5971,-2.1122 -1.0304,-0.9389 -1.8417,-2.1172 -2.4336,-3.5356 -0.5918,-1.4183 -0.8876,-3.0764 -0.8876,-4.9745zm28.4257 -5.1734c0.9389,0 1.8059,0.0972 2.6021,0.291 0.7957,0.1938 1.4794,0.5203 2.0507,0.9795 0.5716,0.4591 1.0206,1.0716 1.3471,1.8366 0.3265,0.7654 0.4895,1.7297 0.4895,2.8928l0 7.714c0,0.7755 0.2654,1.5818 0.7962,2.4184l-3.4286 0c-0.3876,-0.4082 -0.5919,-0.8572 -0.6121,-1.3468 -0.5308,0.4082 -1.2604,0.7806 -2.1888,1.1172 -0.9285,0.3366 -2.1071,0.5051 -3.5356,0.5051 -0.7141,0 -1.3876,-0.0868 -2.0203,-0.2603 -0.6327,-0.1732 -1.1837,-0.4437 -1.653,-0.811 -0.4693,-0.3673 -0.8417,-0.8315 -1.1172,-1.393 -0.2755,-0.5612 -0.4133,-1.2293 -0.4133,-2.0048 0,-1.1837 0.3366,-2.1581 1.0102,-2.9235 0.6732,-0.7654 1.5304,-1.3623 2.5713,-1.7908 1.0406,-0.4284 2.1939,-0.7296 3.459,-0.9031 1.2654,-0.1735 2.4795,-0.2704 3.6426,-0.2907l0 -0.0307c0,-0.7549 -0.2347,-1.3978 -0.704,-1.9285 -0.4693,-0.5304 -1.2755,-0.7958 -2.4184,-0.7958 -0.8568,0 -1.5915,0.158 -2.204,0.4744 -0.6121,0.3163 -1.0203,0.8012 -1.2242,1.4541l-3.5815 0c0.102,-0.7755 0.3164,-1.4794 0.6429,-2.1121 0.3264,-0.6328 0.7805,-1.1787 1.3619,-1.6379 0.5818,-0.4591 1.2962,-0.8163 2.1429,-1.0712 0.8471,-0.2553 1.8417,-0.3829 2.9846,-0.3829zm2.9998 8.7245c-0.7958,0.0405 -1.6017,0.1172 -2.4181,0.2296 -0.8163,0.1121 -1.551,0.2856 -2.204,0.5203 -0.6529,0.2346 -1.1837,0.5304 -1.5919,0.8876 -0.4082,0.3572 -0.6121,0.8113 -0.6121,1.3623 0,0.5918 0.2246,1.0253 0.6732,1.3008 0.4491,0.2755 1.0511,0.4133 1.8063,0.4133 0.4896,0 0.9643,-0.051 1.4234,-0.153 0.4592,-0.1019 0.8826,-0.2447 1.2702,-0.4284 0.3879,-0.1837 0.7245,-0.393 1.0101,-0.6276 0.286,-0.2347 0.5001,-0.4744 0.6429,-0.7195l0 -2.7854zm22.0895 -8.7245c0.8366,0 1.6172,0.1377 2.3417,0.4132 0.7242,0.2755 1.3569,0.7043 1.8978,1.2861 0.5409,0.5813 0.9642,1.3261 1.2705,2.2343 0.3058,0.9082 0.4591,1.9846 0.4591,3.2297l0 8.969 -3.704 0 0 -8.969c0,-0.6327 -0.0868,-1.1735 -0.2603,-1.6226 -0.1736,-0.449 -0.4082,-0.8164 -0.704,-1.102 -0.2961,-0.2856 -0.6276,-0.5 -0.9949,-0.6428 -0.3674,-0.1428 -0.7347,-0.2141 -1.102,-0.2141 -1.102,0 -2.1325,0.6939 -3.0916,2.0815l0 10.469 -3.6734 0 0 -8.969c0,-0.6533 -0.0817,-1.2093 -0.2451,-1.6685 -0.1631,-0.4592 -0.3825,-0.8316 -0.658,-1.1172 -0.2755,-0.2856 -0.5868,-0.4899 -0.9335,-0.6121 -0.3471,-0.1226 -0.7043,-0.1837 -1.0717,-0.1837 -1.1833,0 -2.2343,0.5304 -3.1527,1.5916l0 10.9589 -3.6733 0 0 -15.8872 3.4589 0 0 1.7141c1.2448,-1.3059 2.6122,-1.9592 4.1018,-1.9592 1.6938,0 3.255,0.6533 4.6835,1.9592 1.3674,-1.3059 3.0511,-1.9592 5.0512,-1.9592zm11.1302 2.0818c1.6324,-1.3876 3.2854,-2.0818 4.959,-2.0818 0.8775,0 1.7243,0.1634 2.5406,0.4899 0.8164,0.3265 1.541,0.8062 2.1737,1.4389 0.6323,0.6324 1.1425,1.413 1.5304,2.3418 0.3876,0.9285 0.5817,1.9947 0.5817,3.1986 0,1.0818 -0.1836,2.1581 -0.551,3.2297 -0.3673,1.0713 -0.898,2.0355 -1.5919,2.8928 -0.6938,0.8569 -1.5409,1.5561 -2.5409,2.0966 -0.9997,0.5409 -2.1223,0.8113 -3.3671,0.8113 -1.2246,0 -2.4795,-0.0817 -3.7652,-0.2448 -1.2856,-0.1634 -2.5102,-0.3673 -3.6733,-0.6124l0 -21.4279 3.704 0 0 7.8673zm4.3773 1.2856c-0.8977,0 -1.6989,0.1121 -2.4028,0.3367 -0.7043,0.2245 -1.4235,0.6634 -2.1581,1.3163l0 7.7448c0.6938,0.1428 1.3724,0.2498 2.0355,0.3214 0.6634,0.0712 1.3215,0.107 1.9744,0.107 0.388,0 0.8316,-0.1276 1.3316,-0.3825 0.5,-0.2553 0.9693,-0.6226 1.4082,-1.102 0.4386,-0.4798 0.811,-1.0716 1.1172,-1.7756 0.3062,-0.7039 0.4592,-1.5051 0.4592,-2.4028 0,-0.6942 -0.1226,-1.3012 -0.3674,-1.8215 -0.2447,-0.5203 -0.551,-0.9541 -0.9183,-1.3009 -0.3673,-0.347 -0.7755,-0.6074 -1.2246,-0.7805 -0.4486,-0.1736 -0.8669,-0.2604 -1.2549,-0.2604zm12.2019 12.7649l-3.7041 0 0 -15.8872 3.7041 0 0 15.8872zm0.0307 -18.0912l-3.7348 0 0 -3.8266 3.7348 0 0 3.8266zm8.9567 5.51l-2.8161 0 0 7.8058c0,0.5308 0.0611,0.9234 0.1836,1.1787 0.1222,0.2549 0.4795,0.3825 1.0713,0.3825 0.388,0 0.8775,-0.0716 1.4693,-0.2144l0.6121 3.4593c-0.7957,0.2448 -1.4895,0.3673 -2.0814,0.3673 -0.9183,0 -1.6938,-0.1276 -2.3266,-0.3828 -0.6323,-0.2549 -1.1428,-0.5969 -1.5304,-1.0254 -0.3876,-0.4284 -0.6631,-0.9386 -0.8265,-1.5304 -0.1634,-0.5919 -0.2448,-1.2246 -0.2448,-1.8981l0 -8.1425 -2.0817 0 0 -3.306 2.0817 0 0 -3.7651 3.6734 -0.8265 0 4.5916 2.8161 0 0 3.306z"/>
  <path class="fil2" d="M77.4693 123.338c0.8444,4.3884 0.9861,8.9895 0.3108,13.6605 -3.1255,21.6195 -22.5422,36.8682 -44.0193,35.121 21.7144,-2.378 39.932,-19.1535 43.2019,-41.772 0.3405,-2.3553 0.5035,-4.6964 0.5066,-7.0095z"/>
  <path class="fil3" d="M47.8393 138.238l-1.0565 0 0 -1.0565 1.0565 0 0 -1.0567 1.0566 0 0 -1.0564 1.0565 0 0 -1.0567 1.0568 0 0 -1.0568 1.0565 0 0 -1.0565 1.0566 0 0 -1.0567 1.0567 0 0 -1.0564 1.0565 0 0 -1.0567 1.0568 0 0 -1.0565 1.0565 0 0 -1.0568 -1.0565 0 0 1.0565 -1.0568 0 0 -1.0565 1.0568 0 0 -1.0567 -1.0565 0 0 -1.0566 1.0565 0 0 1.0566 1.0567 0 0 -1.0564 1.0564 0 0 1.0564 -1.0564 0 0 1.0567 1.0564 0 0 -1.0565 1.0565 0 0 1.0565 1.0567 0 0 -1.0565 1.0566 0 0 1.0565 -1.0566 0 0 1.0568 1.0566 0 0 1.0565 -1.0566 0 0 1.0567 1.0566 0 0 -1.0565 1.0567 0 0 1.0565 -1.0567 0 0 1.0566 1.0565 0 0 -1.0565 1.0566 0 0 1.0565 1.0565 0 0 -1.0565 1.0567 0 0 1.0565 -1.0567 0 0 1.0567 -1.0565 0 0 1.0566 -1.0566 0 0 -1.0566 1.0566 0 0 -1.0567 -1.0566 0 0 1.0565 -1.0565 0 0 -1.0565 -1.0566 0 0 1.0565 -1.0567 0 0 1.0568 1.0565 0 0 -1.0566 1.0568 0 0 1.0566 -1.0568 0 0 1.0567 1.0568 0 0 -1.0565 1.0565 0 0 1.0565 -1.0565 0 0 1.0565 -1.0568 0 0 -1.0565 -1.0565 0 0 1.0565 -1.0567 0 0 1.0566 1.0565 0 0 -1.0565 1.0567 0 0 1.0565 -1.0567 0 0 1.0567 -1.0565 0 0 1.0564 -1.0566 0 0 1.0569 -1.0565 0 0 1.0564 -1.0568 0 0 -1.0564 1.0568 0 0 -1.0569 -1.0566 0 0 -1.0566 -1.0567 0 0 1.0566 1.0565 0 0 1.0567 -1.0565 0 0 1.0566 -1.0565 0 0 -1.0566 -1.0566 0 0 1.0566 -1.0565 0 0 1.0565 -1.0568 0 0 -1.0565 1.0568 0 0 -1.0566 -1.0568 0 0 1.0565 -1.0565 0 0 -1.0565 1.0565 0 0 -1.0567 -1.0567 0 0 1.0567 -1.0564 0 0 -1.0567 1.0564 0 0 -1.0566 -1.0564 0 0 1.0565zm6.3395 1.0568l0 -1.0567 -1.0565 0 0 1.0567 1.0565 0zm6.3396 17.9631l1.0564 0 0 0.9746 -0.0864 0.0819 -0.97 0 0 0.8954 -0.1807 0.1614 -0.876 0 0 0.7573c-0.1185,0.1001 -0.2371,0.2002 -0.3565,0.2992l-0.7001 0 0 0.5689c-0.2061,0.1643 -0.4135,0.3267 -0.6221,0.4877l-0.4344 0 0 0.3336c-0.3256,0.2456 -0.6554,0.4856 -0.9873,0.7229l-0.0695 0 0 0.0493c-0.3489,0.2485 -0.7009,0.4927 -1.0565,0.732l0 -0.7813 1.0565 0 0 -1.0565 1.0568 0 0 -1.0566 1.0565 0 0 -1.0565 1.0566 0 0 -1.0568 1.0567 0 0 -1.0565zm-6.3398 6.3396l0.643 0c-0.2135,0.1405 -0.4271,0.2804 -0.643,0.4175l0 -0.4175zm-1.0564 1.0677l0 -0.0113 0.0189 0 -0.0189 0.0113zm17.962 -20.0868l-1.0565 0 0 1.0565 -1.0566 0 0 1.0567 1.0564 0 0 -1.0565 1.0514 0c-0.1856,0.3549 -0.3762,0.7068 -0.5704,1.0565l-0.481 0 0 0.8459 -0.1232 0.2109 -0.9332 0 0 1.0565 -1.0569 0 0 1.0566 0.6718 0c-0.2197,0.3325 -0.4441,0.6614 -0.6718,0.9881l0 -0.9881 -1.0565 0 0 1.0567 1.0087 0c-0.2486,0.3554 -0.5013,0.7081 -0.7591,1.0564l-0.2497 0 0 0.3333c-0.1829,0.2428 -0.3682,0.4843 -0.5557,0.7234l-0.5008 0 0 0.6302c-0.1163,0.1434 -0.2351,0.2847 -0.3531,0.4266l-0.7036 0 0 0.8288c-0.0657,0.0757 -0.1299,0.1525 -0.1961,0.2277l-0.8603 0 0 0.9486 -0.101 0.1081 -0.9559 0 0 0.9967 -0.0582 0.0597 -0.9982 0 0 -1.0564 1.0564 0 0 -1.0567 -1.0564 0 0 1.0565 -1.0565 0 0 1.0566 -1.0565 0 0 1.0565 -1.0566 0 0 1.0567 -1.0565 0 0 1.0566 -1.0568 0 0 1.0567 -1.0565 0 0 1.0564 -1.0567 0 0 -1.0564 1.0567 0 0 -1.0567 -1.0567 0 0 1.0565 -1.0564 0 0 -1.0565 -1.0565 0 0 -1.0568 1.0565 0 0 -1.0565 1.0566 0 0 1.0565 -1.0566 0 0 1.0568 1.0564 0 0 -1.0566 1.0567 0 0 1.0566 1.0565 0 0 -1.0566 1.0568 0 0 -1.0567 -1.0565 0 0 1.0565 -1.0568 0 0 -1.0565 1.0568 0 0 -1.0567 -1.0568 0 0 1.0565 -1.0565 0 0 -1.0565 -1.0565 0 0 -1.0566 1.0565 0 0 -1.0565 -1.0566 0 0 1.0565 -1.0565 0 0 1.0566 1.0565 0 0 1.0565 -1.0565 0 0 -1.0565 -1.0567 0 0 1.0565 -1.0566 0 0 -1.0565 -1.0567 0 0 -1.0566 1.0567 0 0 -1.0565 1.0566 0 0 1.0565 1.0567 0 0 -1.0565 1.0565 0 0 -1.0568 -1.0565 0 0 1.0565 -1.0567 0 0 -1.0565 1.0567 0 0 -1.0567 -1.0565 0 0 -1.0564 1.0565 0 0 1.0564 1.0565 0 0 1.0567 1.0566 0 0 -1.0565 1.0565 0 0 -1.0566 -1.0565 0 0 1.0564 -1.0565 0 0 -1.0564 1.0565 0 0 -1.0567 -1.0565 0 0 1.0565 -1.0566 0 0 -1.0565 1.0566 0 0 -1.0567 1.0563 0 0 -1.0562 1.0565 0 0 -1.0569 -1.0565 0 0 1.0565 -1.0564 0 0 -1.0565 1.0564 0 0 -1.0566 1.0567 0 0 -1.0565 1.0565 0 0 -1.0567 -1.0565 0 0 1.0565 -1.0565 0 0 -1.0565 1.0565 0 0 -1.0566 1.0568 0 0 -1.0567 1.0565 0 0 -1.0566 -1.0565 0 0 1.0565 -1.0566 0 0 -1.0565 1.0566 0 0 -1.0567 1.0565 0 0 1.0567 1.0566 0 0 -1.0567 -1.0564 0 0 -1.0564 1.0564 0 0 -1.0567 1.0567 0 0 -1.0568 1.0565 0 0 -1.0565 1.0568 0 0 -1.0567 1.0565 0 0 -1.0564 1.0566 0 0 -1.0567 1.0565 0 0 -1.0565 1.0567 0 0 -1.0568 1.0566 0 0 1.0568 1.0567 0 0 1.0565 -1.0569 0 0 -1.0565 -1.0564 0 0 1.0565 -1.0567 0 0 1.0567 1.0567 0 0 -1.0565 1.0564 0 0 1.0565 1.0565 0 0 1.0566 1.0568 0 0 1.0567 1.0567 0 0 1.0566 -1.0567 0 0 1.0567 1.0565 0 0 1.0565 -1.0565 0 0 -1.0565 -1.0564 0 0 -1.0567 1.0564 0 0 -1.0566 -1.0568 0 0 1.0566 -1.0565 0 0 1.0567 1.0565 0 0 1.0565 -1.0565 0 0 1.0566 1.0565 0 0 -1.0565 1.0568 0 0 1.0565 -1.0568 0 0 1.0567 1.0567 0 0 -1.0565 1.0566 0 0 1.0565 1.0565 0 0 1.0568 -1.0565 0 0 1.0565 1.0565 0 0 1.0566zm-1.0565 0l0 -1.0566 -1.0566 0 0 -1.0565 1.0566 0 0 -1.0568 -1.0566 0 0 1.0564 -1.0567 0 0 -1.0564 -1.0565 0 0 1.0564 -1.0566 0 0 1.0569 1.0564 0 0 -1.0565 1.0567 0 0 1.0565 -1.0567 0 0 1.0566 1.0567 0 0 -1.0564 1.0567 0 0 1.0564 1.0566 0zm-1.0566 3.17l0 -1.0568 -1.0567 0 0 1.0568 1.0567 0zm0 -2.1135l0 -1.0565 -1.0567 0 0 1.0565 1.0567 0zm-1.0567 1.0567l0 -1.0567 -1.0567 0 0 -1.0565 -1.0564 0 0 1.0565 -1.0567 0 0 1.0567 1.0565 0 0 -1.0565 1.0566 0 0 1.0565 1.0567 0zm1.0567 2.1134l0.2942 0c-0.0968,0.1551 -0.1958,0.3085 -0.2942,0.4625l0 -0.4625zm-1.0569 -0.0001l0 -1.0565 -1.0565 0 0 1.0565 1.0565 0zm-1.0565 1.0566l0 -1.0566 -1.0564 0 0 -1.0565 1.0564 0 0 -1.0568 -1.0566 0 0 1.0568 -1.0565 0 0 1.0565 1.0565 0 0 1.0566 1.0566 0zm-0.0001 2.1131l0 -1.0564 -1.0565 0 0 1.0564 1.0565 0zm-1.0565 1.0567l0 -1.0567 -1.0565 0 0 1.0567 1.0565 0zm0 -2.1131l0 -1.0567 -1.0565 0 0 1.0565 -1.0564 0 0 -1.0565 1.0564 0 0 -1.0566 -1.0566 0 0 1.0566 -1.0567 0 0 1.0565 1.0567 0 0 1.0566 1.0566 0 0 -1.0564 1.0565 0zm-1.0567 3.1699l0 -1.0568 -1.0564 0 0 1.0566 -1.0567 0 0 -1.0566 1.0567 0 0 -1.0567 -1.0567 0 0 1.0565 -1.0566 0 0 1.0568 1.0564 0 0 1.0567 1.0569 0 0 -1.0565 1.0564 0zm-2.1131 -2.1135l0 -1.0566 -1.0566 0 0 1.0566 1.0566 0zm-1.0566 1.0565l0 -1.0565 -1.0565 0 0 1.0565 1.0565 0zm0 2.1135l0 -1.0567 -1.0565 0 0 1.0565 -1.0565 0 0 1.0567 1.0563 0 0 -1.0565 1.0567 0zm-1.0565 -1.0567l0 -1.0566 -1.0567 0 0 1.0566 1.0567 0zm-1.0567 1.0565l0 -1.0565 -1.0563 0 0 1.0565 1.0563 0zm0.0002 2.1133l0 -1.0566 -1.0565 0 0 1.0564 -1.0566 0 0 1.0567 1.0565 0 0 -1.0565 1.0566 0zm-1.0565 -1.0566l0 -1.0567 -1.0566 0 0 1.0565 -1.0565 0 0 1.0566 1.0565 0 0 -1.0564 1.0566 0zm-1.0564 -2.1135l1.0563 0 0 -1.0563 1.0564 0 0 -1.0567 -1.0564 0 0 1.0565 -1.0563 0 0 1.0565zm-0.0002 1.0568l0 -1.0568 -1.0565 0 0 1.0565 -1.0566 0 0 -1.0565 1.0566 0 0 -1.0565 -1.0568 0 0 1.0565 -1.0565 0 0 1.0568 1.0567 0 0 1.0565 1.0566 0 0 -1.0565 1.0565 0zm-1.0565 -2.1135l1.0561 0 0 -1.0563 1.0569 0 0 -1.0566 -1.0565 0 0 1.0565 -1.0565 0 0 1.0564zm-1.0568 4.2266l0 -1.0566 -1.0565 0 0 1.0566 1.0565 0zm-2.1131 5.2833l1.0564 0 0 1.0565 -1.0564 0 0 1.0565 -1.0567 0 0 -1.0565 -1.0565 0 0 1.0565 -1.0568 0 0 1.0566 1.0565 0 0 -1.0565 1.0568 0 0 0.6263c-0.2577,0.1458 -0.5165,0.2892 -0.7771,0.4302l-0.2797 0 0 0.1509c-0.3498,0.1865 -0.7016,0.3702 -1.0565,0.5482l0 -0.6991 -1.0565 0 0 1.0567 -1.0566 0 0 -1.0567 1.0566 0 0 -1.0566 -1.0566 0 0 -1.0567 1.0566 0 0 -1.0565 1.0565 0 0 1.0565 -1.0565 0 0 1.0567 1.0565 0 0 -1.0565 1.0568 0 0 -1.0567 -1.0566 0 0 -1.0566 1.0566 0 0 1.0566 1.0565 0 0 -1.0564 1.0567 0 0 1.0564 -1.0567 0 0 1.0567 1.0567 0 0 -1.0565zm2.1133 -10.5663l1.0563 0 0 -1.0565 1.0568 0 0 -1.0567 -1.0568 0 0 1.0565 -1.0563 0 0 1.0567zm-1.0567 -1.0567l1.0565 0 0 -1.0565 1.0565 0 0 -1.0564 -1.0567 0 0 1.0564 -1.0563 0 0 1.0565zm-3.1698 6.3397l0 -1.0566 -1.0566 0 0 1.0566 1.0566 0zm-3.1697 4.2265l1.0564 0 0 1.0565 -1.0564 0 0 -1.0565zm1.0562 5.2833l0.3253 0 -0.3253 0.155 0 -0.155zm22.1889 -26.4155l-1.0567 0 0 -1.0565 1.0567 0 0 1.0565zm-4.2265 1.0567l0 -1.0567 -1.0566 0 0 1.0565 -1.0565 0 0 1.0566 1.0565 0 0 -1.0564 1.0566 0zm0 -2.1133l0 -1.0565 -1.0566 0 0 1.0565 1.0566 0zm-1.0566 1.0566l0 -1.0566 -1.0565 0 0 -1.0565 -1.0566 0 0 1.0565 -1.0565 0 0 1.0566 1.0565 0 0 -1.0565 1.0564 0 0 1.0565 -1.0564 0 0 1.0565 1.0566 0 0 -1.0565 1.0565 0zm0 4.2266l0 -1.0566 -1.0565 0 0 -1.0569 -1.0566 0 0 1.0567 -1.0565 0 0 1.0566 1.0565 0 0 -1.0564 1.0564 0 0 1.0564 -1.0564 0 0 1.0567 1.0564 0 0 -1.0565 1.0567 0zm-2.1131 -2.1135l0 -1.0564 -1.0569 0 0 1.0564 -1.0565 0 0 1.0567 1.0569 0 0 -1.0567 1.0565 0zm5.283 -8.4528l-1.0564 0 0 -1.0565 1.0564 0 0 1.0565zm-1.0568 2.1133l0 -1.0567 -1.0565 0 0 1.0565 -1.0566 0 0 -1.0565 -1.0565 0 0 1.0565 -1.0565 0 0 1.0568 1.0565 0 0 -1.0566 1.0565 0 0 1.0566 1.0566 0 0 -1.0566 1.0565 0zm-1.0565 -1.0567l0 -1.0566 -1.0564 0 0 1.0566 1.0564 0zm-2.1131 0l0 -1.0566 -1.0565 0 0 1.0564 -1.0566 0 0 1.0567 1.0566 0 0 -1.0565 1.0565 0zm1.0565 3.17l0 -1.0567 -1.0565 0 0 1.0567 1.0565 0zm-2.1131 0l0 -1.0567 -1.0565 0 0 1.0565 -1.0569 0 0 1.0567 1.0569 0 0 -1.0565 1.0565 0zm-1.0565 -1.0567l0 -1.0568 -1.0565 0 0 1.0565 -1.0568 0 0 1.0568 1.0564 0 0 -1.0565 1.0569 0zm-0.0004 4.2265l0 -1.0567 -1.0565 0 0 1.0565 -1.0564 0 0 1.0566 1.0564 0 0 -1.0564 1.0565 0zm-1.0565 -1.0567l0 -1.0566 -1.0564 0 0 1.0564 -1.0567 0 0 1.0567 1.0567 0 0 -1.0565 1.0564 0zm-1.0564 -1.0566l0 -1.0567 -1.0565 0 0 1.0567 1.0565 0zm4.2262 8.4532l0 -1.0568 -1.0564 0 0 1.0564 -1.0569 0 0 1.0569 1.0567 0 0 -1.0565 1.0566 0zm-1.0564 -1.0568l0 -1.0567 -1.0569 0 0 1.0565 -1.0565 0 0 1.0566 1.0565 0 0 -1.0564 1.0569 0zm-1.0569 -1.0567l0 -1.0567 -1.0565 0 0 1.0567 1.0565 0zm-1.0565 -1.0567l0 -1.0564 -1.0566 0 0 1.0564 -1.0565 0 0 1.0567 1.0567 0 0 -1.0567 1.0564 0zm1.0565 5.2833l0 -1.0566 -1.0565 0 0 -1.0569 -1.0566 0 0 1.0569 1.0565 0 0 1.0564 -1.0565 0 0 1.0567 1.0565 0 0 -1.0565 1.0566 0zm-1.0565 -3.1701l0 -1.0565 -1.0564 0 0 1.0565 1.0564 0zm-1.0566 1.0566l0 -1.0566 -1.0565 0 0 1.0566 1.0565 0zm-1.0565 -1.0566l0 -1.0565 -1.0566 0 0 1.0565 1.0566 0zm1.0565 5.2832l0 -1.0566 -1.0567 0 0 1.0566 1.0567 0zm0 -2.1133l0 -1.0564 -1.0565 0 0 1.0564 1.0565 0zm-1.0567 1.0567l0 -1.0567 -1.0564 0 0 1.0567 1.0564 0zm0.0002 -2.1131l0 -1.0569 -1.0566 0 0 1.0565 -1.0565 0 0 1.0568 1.0565 0 0 -1.0564 1.0566 0zm-1.0566 -1.0569l0 -1.0566 -1.0565 0 0 1.0566 1.0565 0zm-1.0565 1.0565l0 -1.0565 -1.0568 0 0 1.0565 1.0568 0zm3.1696 -5.2827l0 -1.0569 -1.0565 0 0 1.0567 -1.0566 0 0 1.0566 1.0566 0 0 -1.0564 1.0565 0zm-1.0565 -1.0569l0 -1.0566 -1.0565 0 0 1.0566 1.0565 0zm0 -2.1133l0 -1.0564 -1.0565 0 0 1.0564 1.0565 0zm-1.0566 5.2833l0 -1.0567 -1.0565 0 0 1.0567 1.0565 0zm0 -2.1133l0 -1.0567 -1.0565 0 0 1.0567 1.0565 0zm-1.0565 1.0566l0 -1.0566 -1.0565 0 0 1.0566 1.0565 0zm0 2.1132l0 -1.0565 -1.0568 0 0 1.0565 1.0568 0zm-1.0568 1.0566l0 -1.0566 -1.0565 0 0 1.0566 1.0565 0zm8.4532 -17.9627l-1.0567 0 0 -1.0565 1.0567 0 0 1.0565zm-1.0567 -1.0567l-1.0564 0 0 -1.0565 -1.0565 0 0 -1.0568 1.0565 0 0 1.0568 1.0564 0 0 1.0565zm-3.1697 1.0567l-1.0567 0 0 1.0564 -1.0565 0 0 1.0567 1.0565 0 0 -1.0565 1.0567 0 0 -1.0566zm0 -2.1132l-1.0567 0 0 1.0565 1.0567 0 0 -1.0565zm-1.0567 1.0565l-1.0565 0 0 -1.0565 -1.0566 0 0 1.0565 -1.0565 0 0 1.0567 1.0565 0 0 -1.0565 1.0564 0 0 1.0565 -1.0564 0 0 1.0564 1.0566 0 0 -1.0564 1.0565 0 0 -1.0567zm0 4.2266l-1.0565 0 0 -1.0568 -1.0566 0 0 1.0565 -1.0565 0 0 1.0568 1.0565 0 0 -1.0565 1.0564 0 0 1.0565 -1.0564 0 0 1.0567 1.0564 0 0 -1.0565 1.0567 0 0 -1.0567zm-2.1131 -2.1133l-1.0567 0 0 1.0565 -1.0566 0 0 1.0565 1.0568 0 0 -1.0565 1.0565 0 0 -1.0565zm2.1131 -4.2266l-1.0565 0 0 1.0568 1.0565 0 0 -1.0568zm-3.1698 3.17l-1.0566 0 0 1.0564 -1.0565 0 0 1.0567 1.0565 0 0 -1.0565 1.0566 0 0 -1.0566zm2.1131 6.3397l-1.0564 0 0 1.0565 -1.0567 0 0 1.0566 1.0565 0 0 -1.0564 1.0566 0 0 -1.0567zm-1.0564 -1.0566l-1.0567 0 0 1.0564 -1.0566 0 0 1.0567 1.0566 0 0 -1.0565 1.0567 0 0 -1.0566zm-1.0567 -1.0567l-1.0566 0 0 1.0567 1.0566 0 0 -1.0567zm-1.0566 -1.0565l-1.0567 0 0 1.0565 -1.0565 0 0 1.0567 1.0567 0 0 -1.0567 1.0565 0 0 -1.0565zm0 2.1132l-1.0565 0 0 1.0564 1.0565 0 0 -1.0564zm-1.0567 1.0564l-1.0565 0 0 1.0567 1.0565 0 0 -1.0567zm-1.0565 -1.0564l-1.0566 0 0 1.0564 1.0566 0 0 -1.0564zm0 2.1131l-1.0566 0 0 1.0565 -1.0565 0 0 1.0568 1.0565 0 0 -1.0567 1.0566 0 0 -1.0566zm-1.0566 -1.0567l-1.0565 0 0 1.0567 1.0565 0 0 -1.0567zm-1.0565 1.0567l-1.0568 0 0 1.0565 1.0568 0 0 -1.0565zm3.1696 -5.2831l-1.0565 0 0 1.0565 -1.0566 0 0 1.0568 1.0566 0 0 -1.0565 1.0565 0 0 -1.0568zm-2.1131 2.1133l-1.0565 0 0 1.0567 1.0565 0 0 -1.0567zm-1.0565 1.0567l-1.0568 0 0 1.0564 1.0568 0 0 -1.0564zm-1.0568 1.0564l-1.0565 0 0 1.0567 1.0565 0 0 -1.0567z"/>
  <path class="fil3" d="M172.094 162.489c0,-0.1512 0.0272,-0.2906 0.0811,-0.4181 0.0546,-0.1276 0.1283,-0.2375 0.222,-0.3305 0.0937,-0.0929 0.2043,-0.1659 0.3326,-0.2183 0.1283,-0.0531 0.2655,-0.0789 0.4123,-0.0789 0.1475,0 0.2847,0.0258 0.413,0.0789 0.1283,0.0524 0.239,0.1254 0.3327,0.2183 0.0936,0.093 0.1674,0.2029 0.2212,0.3305 0.0546,0.1275 0.0811,0.2669 0.0811,0.4181 0,0.1512 -0.0265,0.2906 -0.0811,0.4182 -0.0538,0.1276 -0.1276,0.2375 -0.2212,0.3304 -0.0937,0.093 -0.2044,0.166 -0.3327,0.2183 -0.1283,0.0524 -0.2655,0.079 -0.413,0.079 -0.1468,0 -0.284,-0.0266 -0.4123,-0.079 -0.1283,-0.0523 -0.2389,-0.1253 -0.3326,-0.2183 -0.0937,-0.0929 -0.1674,-0.2028 -0.222,-0.3304 -0.0539,-0.1276 -0.0811,-0.267 -0.0811,-0.4182zm0.2271 0c0,0.1166 0.0192,0.2265 0.0583,0.3297 0.0391,0.1025 0.0944,0.1918 0.1667,0.2677 0.0715,0.0753 0.1585,0.135 0.2588,0.1793 0.1011,0.0442 0.2132,0.0656 0.3371,0.0656 0.1239,0 0.2368,-0.0214 0.337,-0.0656 0.1011,-0.0443 0.1874,-0.104 0.2597,-0.1793 0.0722,-0.0759 0.1276,-0.1652 0.1667,-0.2677 0.0383,-0.1032 0.0582,-0.2131 0.0582,-0.3297 0,-0.1165 -0.0199,-0.2264 -0.0582,-0.3296 -0.0391,-0.1033 -0.0945,-0.1925 -0.1667,-0.2678 -0.0723,-0.0759 -0.1586,-0.1357 -0.2597,-0.1792 -0.1002,-0.0442 -0.2131,-0.0664 -0.337,-0.0664 -0.1239,0 -0.236,0.0222 -0.3371,0.0664 -0.1003,0.0435 -0.1873,0.1033 -0.2588,0.1792 -0.0723,0.0753 -0.1276,0.1645 -0.1667,0.2678 -0.0391,0.1032 -0.0583,0.2131 -0.0583,0.3296zm0.9743 0.0952l0.2943 0.4344 -0.2464 0 -0.2618 -0.4108 -0.1099 0 0 0.4108 -0.2139 0 0 -1.0724 0.3695 0c0.0561,0 0.1107,0.0059 0.163,0.0162 0.0524,0.0111 0.0989,0.0295 0.1394,0.0554 0.0406,0.0258 0.0731,0.0597 0.0974,0.1003 0.0243,0.0413 0.0369,0.0921 0.0369,0.1526 0,0.0863 -0.0244,0.1549 -0.0723,0.2051 -0.0487,0.0509 -0.1136,0.084 -0.1962,0.0995l0 0.0089zm-0.3238 -0.4543l0 0.2942 0.1188 0c0.0833,0 0.146,-0.0118 0.1866,-0.0354 0.0413,-0.0243 0.0619,-0.0634 0.0619,-0.118 0,-0.042 -0.014,-0.0759 -0.042,-0.1017 -0.028,-0.0259 -0.0782,-0.0391 -0.1505,-0.0391l-0.1748 0z"/>
 </g>
</svg>
