<?xml version="1.0" encoding="UTF-8"?>
<svg id="Layer_1" data-name="Layer 1" xmlns="http://www.w3.org/2000/svg" viewBox="0 0 713 529">
  <defs>
    <style>
      .cls-1 {
        fill: #002536;
        stroke-width: 0px;
      }
    </style>
  </defs>
  <path class="cls-1" d="M178.45,528.85l221.69.12c181.47.1,312.51-103.65,312.6-264.25C712.83,104.13,581.88.12,400.43.02l-221.69-.12v1.17c1.19-1.17,140.45,127.27,140.45,127.27l74.88.04c101.07.06,180.07,39.36,180.02,136.3-.05,96.94-79.1,136.15-180.17,136.1l-74.97-.04-140.54,128.17.03-.05Z"/>
  <path class="cls-1" d="M178.35,139c36.17,54.2,84.93,91.81,145.31,113.9l32.91,11.4-32.92,11.36c-60.4,22-106.42,59.58-145.43,113.74-36.17-54.2-84.93-91.81-145.31-113.9L0,264.11l32.92-11.36c60.4-22,109.21-59.58,145.43-113.75Z"/>
</svg>