<?xml version="1.0" encoding="UTF-8"?>
<svg id="Layer_1" data-name="Layer 1" xmlns="http://www.w3.org/2000/svg" viewBox="0 0 1200 207.17">
  <defs>
    <style>
      .cls-1 {
        fill: #fff;
        stroke-width: 0px;
      }
    </style>
  </defs>
  <path class="cls-1" d="M115.39,0H0v207.44h115.39c73.6,0,121.14-40.71,121.14-103.7S188.98,0,115.39,0ZM112.85,166.33h-62.1V41.13h62.1c40.99,0,67.45,24.58,67.45,62.59s-26.46,62.59-67.45,62.59h0Z"/>
  <path class="cls-1" d="M449.28,140.3c27.24-12.61,41.63-34.91,41.63-64.51C490.91,29.05,454.29,0,395.34,0h-124.85v207.44h53.01v-57.08h69.36l40.6,57.08h58.46l-46.68-65.28,4.02-1.85h.03ZM391.5,110.8h-67.99V40.52h67.99c27.82,0,43.17,12.52,43.17,35.28s-15.73,34.99-43.17,34.99Z"/>
  <path class="cls-1" d="M982.47,0h-250.72l15.99,40.83h81.71v166.61h55.63V40.83h81.38l15.99-40.83h.01Z"/>
  <path class="cls-1" d="M605.78,0l-90.03,207.44h56.09l11.11-29.6c42.3-12.49,71.69-13.39,113.3,1.39l10.54,28.21h57.37L673.76,0h-68,.03ZM597.46,137.51l39.1-93.27h5.5l39.46,94.17c-28.66-11.36-55.38-12.25-84.06-.9Z"/>
  <path class="cls-1" d="M1041.63,0l-90.03,207.44h56.09l11.11-29.6c42.3-12.49,71.69-13.39,113.3,1.39l10.54,28.21h57.37L1109.6,0h-68,.03ZM1033.3,137.51l39.1-93.27h5.5l39.46,94.17c-28.66-11.36-55.38-12.25-84.06-.9Z"/>
</svg>