<svg width="134" height="24" viewBox="0 0 134 24" fill="none" xmlns="http://www.w3.org/2000/svg">
<path fill-rule="evenodd" clip-rule="evenodd" d="M133.85 3.5C133.85 4.24558 133.246 4.85 132.5 4.85C131.754 4.85 131.15 4.24558 131.15 3.5C131.15 2.75442 131.754 2.15 132.5 2.15C133.246 2.15 133.85 2.75442 133.85 3.5ZM134 3.5C134 4.32843 133.328 5 132.5 5C131.672 5 131 4.32843 131 3.5C131 2.67157 131.672 2 132.5 2C133.328 2 134 2.67157 134 3.5ZM132.416 3.7232L132.839 4.4H133.146L132.702 3.7112C132.843 3.6872 132.95 3.6328 133.024 3.548C133.099 3.4632 133.136 3.3544 133.136 3.2216C133.136 3.0664 133.086 2.9416 132.985 2.8472C132.886 2.7528 132.74 2.7056 132.546 2.7056H131.948V4.4H132.222V3.7232H132.416ZM132.524 3.5288H132.222V2.9408H132.524C132.638 2.9408 132.721 2.9672 132.774 3.02C132.828 3.0712 132.856 3.1432 132.856 3.236C132.856 3.4312 132.745 3.5288 132.524 3.5288Z" fill="#1A3967"/>
<path fill-rule="evenodd" clip-rule="evenodd" d="M40.0084 20.2814C35.5604 20.2504 31.9778 16.7429 32.0001 12.441C32.0224 8.13909 35.6412 4.66652 40.0893 4.67865C44.5374 4.69079 48.1359 8.18304 48.1331 12.485C48.1247 14.5609 47.264 16.5485 45.7403 18.0106C44.2167 19.4727 42.1548 20.2895 40.0084 20.2814ZM40.0084 16.8021C42.4688 16.7824 44.4488 14.8409 44.4352 12.4614C44.4216 10.0818 42.4197 8.16153 39.9592 8.16804C37.4988 8.17456 35.5077 10.1054 35.5076 12.485C35.5118 13.6349 35.9885 14.7361 36.8328 15.5458C37.677 16.3556 38.8194 16.8076 40.0084 16.8021Z" fill="#ED7F22"/>
<path fill-rule="evenodd" clip-rule="evenodd" d="M49.8445 5.16889V19.8471C49.8445 19.991 49.9652 20.1077 50.114 20.1077H53.0617C53.2005 20.1049 53.3124 19.9967 53.3152 19.8624V14.2119H56.4584C56.4584 14.2119 60.7848 13.9922 60.7848 9.51155C60.7848 5.03094 56.395 4.87767 56.395 4.87767H50.1668C50.0829 4.87038 49.9998 4.89799 49.9383 4.95359C49.8768 5.00918 49.8427 5.08748 49.8445 5.16889ZM55.5075 7.17672C56.1455 7.16075 56.7599 7.40998 57.1952 7.86128C57.6305 8.31259 57.845 8.92268 57.7843 9.53708C57.8267 10.1468 57.6059 10.7462 57.1744 11.1926C56.7429 11.6389 56.1393 11.8923 55.5075 11.8923H53.2307V7.32999C53.2307 7.12563 53.3892 7.15117 53.3892 7.15117L55.5075 7.17672Z" fill="#ED7F22"/>
<path d="M62.4648 19.8624C62.4648 19.9979 62.5784 20.1077 62.7184 20.1077H73.2044C73.2726 20.109 73.3384 20.0838 73.3871 20.0377C73.4358 19.9915 73.4633 19.9284 73.4632 19.8624V17.7064C73.4604 17.5702 73.3453 17.4612 73.2044 17.4612H66.1046C65.9666 17.4612 65.8539 17.3545 65.851 17.2211V13.7725C65.8538 13.6382 65.9657 13.53 66.1046 13.5272H70.7955C70.8623 13.5286 70.9268 13.5039 70.9745 13.4587C71.0222 13.4136 71.0491 13.3517 71.0491 13.2871V11.1311C71.0505 11.0656 71.0243 11.0025 70.9764 10.9562C70.9286 10.9099 70.8632 10.8845 70.7955 10.8859H66.1046C65.9645 10.8859 65.851 10.7761 65.851 10.6406V7.74894C65.8538 7.61464 65.9657 7.50642 66.1046 7.50371H73.2044C73.2726 7.50508 73.3384 7.47985 73.3871 7.43371C73.4358 7.38757 73.4633 7.32441 73.4632 7.25847V5.11268C73.4604 4.9736 73.343 4.86231 73.1991 4.86234H62.7237C62.6555 4.86097 62.5897 4.8862 62.541 4.93234C62.4923 4.97848 62.4648 5.04164 62.4648 5.10757V19.8624Z" fill="#ED7F22"/>
<path d="M84.5145 4.87256H86.7279C86.7314 4.87249 86.7349 4.87249 86.7385 4.87256C86.8014 4.87386 86.8617 4.89827 86.9069 4.94106C86.9546 4.98624 86.9815 5.0481 86.9814 5.11268V19.8778C86.9814 19.9441 86.9542 20.0078 86.9056 20.0548C86.8571 20.1017 86.7912 20.1281 86.7226 20.1281H84.7575V20.0923L78.3021 9.30719V19.8778C78.3021 19.945 78.2741 20.0095 78.2244 20.0566C78.1747 20.1037 78.1075 20.1295 78.038 20.1281H75.7981C75.6581 20.1281 75.5446 20.0183 75.5446 19.8829V5.16888C75.5474 5.0044 75.6861 4.87254 75.8562 4.87256H78.5926L84.2556 14.2783V5.1229C84.2556 4.98464 84.3715 4.87256 84.5145 4.87256Z" fill="#ED7F22"/>
<path d="M126.721 4.85228C126.578 4.85228 126.462 4.96436 126.462 5.10262V14.258L120.799 4.85228H118.073C117.983 4.85088 117.896 4.88488 117.833 4.94651C117.769 5.00813 117.734 5.09211 117.735 5.17925V19.8626C117.734 19.9271 117.759 19.9895 117.806 20.0357C117.853 20.0818 117.917 20.1078 117.984 20.1078H120.229C120.372 20.1078 120.488 19.9957 120.488 19.8575V9.2869L126.964 20.072V20.1078H128.929C129.072 20.1078 129.188 19.9957 129.188 19.8575V5.0924C129.188 5.02782 129.161 4.96596 129.113 4.92077C129.068 4.87798 129.008 4.85357 128.945 4.85228H126.721Z" fill="#1A3967"/>
<path fill-rule="evenodd" clip-rule="evenodd" d="M104.729 19.8421V5.16393C104.728 5.08252 104.762 5.00422 104.823 4.94863C104.885 4.89303 104.968 4.86543 105.052 4.87271H111.285C111.285 4.87271 115.67 5.02598 115.67 9.5066C115.67 13.9872 111.343 14.2069 111.343 14.2069H108.174V19.8575C108.174 19.9929 108.06 20.1027 107.92 20.1027H104.999C104.85 20.1027 104.729 19.9861 104.729 19.8421ZM112.082 7.85617C111.646 7.40509 111.031 7.15601 110.392 7.17179L108.274 7.14625C108.274 7.14625 108.116 7.1207 108.116 7.32506V11.8874H110.392C111.025 11.8873 111.629 11.6341 112.061 11.1879C112.493 10.7417 112.715 10.1424 112.674 9.53216C112.734 8.91724 112.518 8.30726 112.082 7.85617Z" fill="#1A3967"/>
<path d="M102.469 5.20481L96.8003 19.9239H96.8215C96.7807 20.0221 96.6826 20.0867 96.5732 20.0874H94.9092C94.8017 20.0847 94.7062 20.0204 94.6662 19.9239L88.9979 5.20481C88.968 5.12851 88.9793 5.04283 89.028 4.97622C89.0768 4.90962 89.1566 4.87082 89.2409 4.87272H91.7818C91.8875 4.87248 91.9822 4.93558 92.0196 5.0311L95.7438 14.6769L99.4416 5.0311C99.4822 4.93571 99.578 4.87323 99.6846 4.87272H102.226C102.31 4.87082 102.39 4.90962 102.438 4.97622C102.487 5.04283 102.498 5.12851 102.469 5.20481Z" fill="#1A3967"/>
<path d="M16 11.7804C16.0089 9.87261 14.4993 8.26032 12.4869 8.02823C10.4745 7.79613 8.59579 9.01765 8.1148 10.871C7.63381 12.7243 8.70266 14.6232 10.6023 15.29L9.06393 23H14.9636L13.4523 15.2748C14.9859 14.7156 15.9976 13.328 16 11.7804Z" fill="#1A3967"/>
<path d="M24 11.7298C23.8649 5.21273 18.5321 0 12 0C5.46794 0 0.135142 5.21273 6.27286e-09 11.7298C-0.000137193 15.954 2.25033 19.8597 5.9088 21.9846L6.67951 16.888C5.4958 15.5949 4.83966 13.9068 4.84008 12.1554C4.94401 8.28382 8.11898 5.1992 12 5.1992C15.881 5.1992 19.056 8.28382 19.1599 12.1554C19.1606 13.9207 18.4946 15.6215 17.2948 16.9187L18.0604 22C21.7386 19.8833 24.0035 15.967 24 11.7298Z" fill="#ED7F22"/>
</svg>
