<?xml version="1.0" encoding="UTF-8"?>
<svg id="Layer_1" data-name="Layer 1" xmlns="http://www.w3.org/2000/svg" viewBox="0 0 900 300">
  <defs>
    <style>
      .cls-1 {
        fill: #38b885;
      }

      .cls-2 {
        fill: #181818;
      }
    </style>
  </defs>
  <polygon class="cls-2" points="491.37 178.46 510.3 178.46 510.3 94.94 541.77 94.94 541.77 76.84 437.08 76.84 437.08 149.51 436.52 149.51 377.08 76.84 361.07 76.84 361.07 178.46 380 178.46 380 106.35 380.56 106.35 440 178.46 456.01 178.46 456.01 94.94 491.37 94.94 491.37 178.46 491.37 178.46"/>
  <path class="cls-2" d="M618.61,111.36c0-19.91-13.64-34.53-37.17-34.53h-40.23v101.62h18.93v-32.44h5.29l31.74,32.44h23.39l-32.16-32.85c18.65-2.65,30.21-15.73,30.21-34.24h0ZM599.68,111.36c0,10.02-8.22,17.26-18.94,17.26h-20.6v-34.25h20.6c9.19,0,18.94,5.85,18.94,16.98h0Z"/>
  <path class="cls-2" d="M709.93,178.46l-41.76-101.62h-16.29l-41.76,101.62h19.77l8.21-20.88h43.85l8.21,20.88h19.77ZM674.85,139.48h-29.51l14.48-36.75h.55l14.48,36.75h0Z"/>
  <path class="cls-2" d="M744.73,179.86c19.35,0,36.34-9.47,36.34-29.93,0-18.1-13.23-25.61-29.38-31.6l-7.93-2.92c-6.41-2.37-12.81-4.73-12.81-11.97,0-6.54,5.29-11.14,13.5-11.14s14.34,4.59,14.9,13.92h19.77c-.14-15.73-10.58-30.77-33.83-30.77s-33.97,13.78-33.97,29.23c0,13.78,9.47,21.58,21.16,25.76l9.05,3.2c10.58,3.76,19.77,7.24,19.77,16.15,0,5.71-4.18,11.97-16.43,11.97-13.36,0-20.18-7.52-21.58-22.14h-19.76c1.39,25.76,17.12,40.23,41.2,40.23h0Z"/>
  <polygon class="cls-2" points="812.11 178.46 831.04 178.46 831.04 94.94 861.11 94.94 861.11 76.84 782.18 76.84 782.18 94.94 812.11 94.94 812.11 178.46 812.11 178.46"/>
  <path class="cls-2" d="M355.23,127.79c0-28.4-22.83-52.34-52.2-52.34s-52.2,23.67-52.2,52.2,22.83,52.2,52.07,52.2,52.34-22.83,52.34-52.07h0ZM336.15,127.65c0,18.93-14.9,33.69-33.13,33.69s-33.27-15.31-33.27-33.69,13.92-33.69,33.27-33.69,33.13,15.17,33.13,33.69h0Z"/>
  <path class="cls-1" d="M569.1,227.57h.04c9.87,0,13.95-3.33,13.95-9.34,0-5.51-3.34-7.98-10.12-8.56l-5.31-.45c-2.88-.25-4.12-1.15-4.12-2.96,0-2.06,1.65-3.13,6.13-3.13,3.87,0,5.93.82,6.63,3.7h6.33c-.45-7.98-6.5-9.3-12.71-9.3-9.42,0-13.25,3.17-13.25,8.76,0,5.18,3.25,7.98,9.84,8.52l5.34.45c3.01.25,4.24,1.11,4.24,3.13,0,2.47-2.01,3.62-6.54,3.62-3.74,0-6.46-.82-7.03-3.7h-6.3c.45,8.02,6.71,9.26,12.88,9.26h0ZM618.67,204.16v-6.01h-24.64v28.8h24.64v-6.01h-17.81v-5.6h17.15v-5.35h-17.15v-5.84h17.81ZM644.3,221.36c-5.63,0-8.64-3.7-8.64-8.8s3.01-8.8,8.64-8.8c3.75,0,6.46,1.36,7.78,5.23h6.66c-1.19-7.24-6.46-11.44-14.44-11.44-9.83,0-15.55,6.62-15.55,15.02s5.72,15.02,15.55,15.02c7.98,0,13.25-4.2,14.44-11.44h-6.66c-1.32,3.87-4.03,5.23-7.78,5.23h0ZM682.81,227.57c9.75,0,13.74-4.98,13.74-13.33v-16.09h-6.83v16.09c0,4.73-2.22,7.12-6.91,7.12s-6.91-2.39-6.91-7.12v-16.09h-6.83v16.09c0,8.35,3.95,13.33,13.74,13.33h0ZM736.21,226.95l-5.23-9.63c3.21-1.77,4.61-4.98,4.61-8.85,0-5.88-3.25-10.33-11.19-10.33h-15.88v28.8h6.83v-8.19h9.63l4.36,8.19h6.87ZM715.35,204.2h8.23c3.7,0,5.18,1.44,5.18,4.28s-1.48,4.24-5.18,4.24h-8.23v-8.52h0ZM746.95,226.95h6.82v-28.8h-6.82v28.8h0ZM791.38,198.15h-27.53v6.05h10.37v22.75h6.83v-22.75h10.33v-6.05h0ZM832.02,198.15h-7.2l-8.93,15.14h-.32l-8.93-15.14h-7.2l12.88,21.72v7.08h6.82v-7.08l12.88-21.72h0Z"/>
  <path class="cls-2" d="M225.13,142.14c-1.38,2.89-3.17,5.61-5.38,8.07-6.41,7.16-15.6,11.27-25.21,11.27-18.65,0-33.82-15.17-33.82-33.83,0-9.6,4.11-18.79,11.27-25.21,6.28-5.63,14.17-8.62,22.53-8.62,1.3,0,2.6.07,3.92.22,11.76,1.3,21.78,8.81,26.69,19.13h21.02c-5.79-20.6-23.8-36.36-45.53-38.76-15.23-1.68-30.47,3.17-41.8,13.32-11.34,10.16-17.84,24.71-17.84,39.92,0,29.55,24.04,53.58,53.58,53.58,15.21,0,29.77-6.5,39.92-17.85,5.5-6.14,9.43-13.44,11.62-21.25h-20.97Z"/>
  <path class="cls-1" d="M194.55,181.23c-29.54,0-53.58-24.04-53.58-53.58,0-15.21,6.5-29.76,17.84-39.92,11.33-10.15,26.57-15,41.8-13.32,12.02,1.33,22.89,6.76,31.2,14.81-10.04-10.34-24.08-16.79-39.6-16.79h-98.1c-30.45,0-55.22,24.77-55.22,55.22s24.77,55.22,55.22,55.22h98.1c15.26,0,29.1-6.23,39.1-16.27-9.9,9.34-23.06,14.63-36.76,14.63h0Z"/>
</svg>