<svg width="1048" height="194" viewBox="0 0 1048 194" fill="none" xmlns="http://www.w3.org/2000/svg">
<path d="M302.627 102.973C302.627 103.901 302.444 104.82 302.089 105.677C301.734 106.534 301.213 107.313 300.557 107.969C299.901 108.625 299.123 109.145 298.265 109.5C297.408 109.855 296.489 110.038 295.562 110.038H283.64C282.713 110.038 281.794 109.855 280.937 109.5C280.08 109.145 279.301 108.625 278.645 107.969C277.989 107.313 277.468 106.534 277.113 105.677C276.758 104.82 276.576 103.901 276.576 102.973V91.052C276.576 90.1243 276.758 89.2056 277.113 88.3485C277.468 87.4914 277.989 86.7126 278.645 86.0567C279.301 85.4007 280.08 84.8803 280.937 84.5253C281.794 84.1703 282.713 83.9876 283.64 83.9877H295.562C296.489 83.9875 297.408 84.1702 298.265 84.5252C299.123 84.8801 299.901 85.4005 300.557 86.0565C301.213 86.7125 301.734 87.4913 302.089 88.3484C302.444 89.2056 302.627 90.1243 302.627 91.052V102.973ZM295.562 130.401H283.64C281.767 130.401 279.97 131.145 278.645 132.47C277.32 133.795 276.576 135.591 276.576 137.465V149.385C276.576 151.259 277.32 153.056 278.645 154.38C279.97 155.705 281.767 156.449 283.64 156.449H295.562C296.489 156.449 297.408 156.267 298.265 155.912C299.122 155.557 299.901 155.036 300.557 154.381C301.213 153.725 301.734 152.946 302.089 152.089C302.444 151.232 302.627 150.313 302.627 149.385V137.465C302.627 136.537 302.444 135.619 302.089 134.761C301.734 133.904 301.213 133.126 300.557 132.47C299.901 131.814 299.122 131.293 298.265 130.938C297.408 130.584 296.489 130.401 295.562 130.401V130.401ZM302.628 44.6409C302.628 43.7132 302.446 42.7945 302.091 41.9374C301.736 41.0803 301.215 40.3015 300.559 39.6455C299.903 38.9895 299.124 38.4691 298.267 38.1141C297.41 37.7591 296.491 37.5764 295.564 37.5765H260.982C259.108 37.5766 257.311 38.3209 255.987 39.6457C254.662 40.9706 253.918 42.7674 253.918 44.6409V56.5599C253.917 57.4876 254.1 58.4063 254.455 59.2635C254.81 60.1207 255.33 60.8995 255.986 61.5556C256.642 62.2117 257.421 62.7321 258.278 63.0872C259.135 63.4422 260.054 63.6249 260.982 63.6249H295.564C297.437 63.6249 299.234 62.8805 300.559 61.5556C301.884 60.2306 302.628 58.4336 302.628 56.5599V44.6409ZM227.724 37.5765H215.802C213.929 37.5766 212.132 38.3209 210.807 39.6458C209.482 40.9706 208.738 42.7674 208.738 44.6409V56.5599C208.738 57.4876 208.921 58.4063 209.276 59.2635C209.631 60.1207 210.151 60.8995 210.807 61.5556C211.463 62.2117 212.242 62.7321 213.099 63.0872C213.956 63.4422 214.874 63.6249 215.802 63.6249H227.724C228.651 63.625 229.57 63.4424 230.427 63.0874C231.285 62.7324 232.064 62.212 232.72 61.5559C233.376 60.8999 233.896 60.121 234.251 59.2638C234.607 58.4065 234.789 57.4877 234.789 56.5599V44.6409C234.789 42.7672 234.044 40.9703 232.719 39.6455C231.394 38.3207 229.597 37.5764 227.724 37.5765V37.5765ZM189.611 56.5599V44.6409C189.611 43.7132 189.428 42.7945 189.073 41.9374C188.718 41.0803 188.198 40.3015 187.542 39.6455C186.886 38.9895 186.107 38.4691 185.25 38.1141C184.392 37.7591 183.474 37.5764 182.546 37.5765H170.625C169.697 37.5764 168.778 37.759 167.921 38.114C167.064 38.469 166.285 38.9894 165.629 39.6454C164.973 40.3014 164.453 41.0802 164.098 41.9373C163.743 42.7945 163.56 43.7132 163.56 44.6409V56.5599C163.56 57.4877 163.743 58.4064 164.098 59.2636C164.453 60.1208 164.973 60.8997 165.629 61.5558C166.285 62.2118 167.064 62.7322 167.921 63.0873C168.778 63.4423 169.697 63.625 170.625 63.6249H182.546C183.474 63.6249 184.393 63.4421 185.25 63.0871C186.107 62.732 186.886 62.2116 187.542 61.5556C188.198 60.8995 188.718 60.1207 189.073 59.2635C189.428 58.4064 189.611 57.4877 189.611 56.5599V56.5599ZM238.463 83.9877C237.535 83.9874 236.616 84.17 235.759 84.525C234.902 84.8799 234.123 85.4002 233.467 86.0562C232.811 86.7122 232.29 87.4911 231.935 88.3483C231.58 89.2054 231.397 90.1242 231.397 91.052V102.973C231.397 104.847 232.142 106.644 233.467 107.969C234.792 109.294 236.589 110.038 238.463 110.038H250.384C251.312 110.038 252.231 109.855 253.088 109.5C253.945 109.145 254.724 108.625 255.38 107.969C256.036 107.313 256.556 106.534 256.911 105.677C257.266 104.82 257.449 103.901 257.449 102.973V91.052C257.449 90.1243 257.266 89.2056 256.911 88.3485C256.556 87.4914 256.036 86.7126 255.38 86.0566C254.724 85.4007 253.945 84.8803 253.088 84.5253C252.231 84.1703 251.312 83.9876 250.384 83.9877H238.463ZM193.285 83.9877C192.357 83.9876 191.438 84.1703 190.581 84.5253C189.724 84.8802 188.945 85.4006 188.289 86.0566C187.633 86.7126 187.113 87.4914 186.758 88.3485C186.402 89.2056 186.22 90.1243 186.22 91.052V102.973C186.22 103.901 186.402 104.82 186.757 105.677C187.112 106.534 187.633 107.313 188.289 107.969C188.945 108.625 189.724 109.145 190.581 109.5C191.438 109.855 192.357 110.038 193.285 110.038H205.206C206.134 110.038 207.052 109.855 207.91 109.5C208.767 109.145 209.546 108.625 210.202 107.969C210.858 107.313 211.378 106.534 211.733 105.677C212.088 104.82 212.271 103.901 212.271 102.973V91.052C212.271 90.1243 212.088 89.2056 211.733 88.3485C211.378 87.4914 210.857 86.7126 210.201 86.0567C209.545 85.4007 208.767 84.8803 207.909 84.5253C207.052 84.1703 206.134 83.9876 205.206 83.9877H193.285ZM250.385 130.401H193.285C191.411 130.401 189.614 131.145 188.289 132.47C186.964 133.795 186.22 135.591 186.22 137.465V149.385C186.22 151.259 186.964 153.056 188.289 154.38C189.614 155.705 191.411 156.449 193.285 156.449H250.385C252.259 156.449 254.056 155.705 255.381 154.38C256.706 153.056 257.451 151.259 257.451 149.385V137.465C257.451 135.591 256.706 133.794 255.381 132.47C254.056 131.145 252.259 130.401 250.385 130.401V130.401ZM312.505 1.43066H152.279C150.207 1.46191 148.231 2.30688 146.777 3.78306C145.323 5.25923 144.508 7.24814 144.508 9.32021C144.508 11.3923 145.323 13.3812 146.777 14.8574C148.231 16.3335 150.207 17.1785 152.279 17.2098H312.506C315.863 17.2234 319.078 18.5685 321.444 20.9496C323.81 23.3307 325.135 26.5534 325.128 29.9104V164.114C325.136 167.471 323.811 170.695 321.444 173.076C319.078 175.458 315.863 176.803 312.505 176.816H194.109C192.018 176.818 190.013 177.65 188.535 179.129C187.057 180.608 186.227 182.614 186.227 184.705C186.227 186.796 187.057 188.801 188.535 190.281C190.013 191.76 192.018 192.592 194.109 192.594H312.505C320.045 192.574 327.27 189.565 332.594 184.226C337.918 178.887 340.907 171.654 340.905 164.114V29.9104C340.907 22.3704 337.918 15.1373 332.594 9.79816C327.27 4.45901 320.045 1.44978 312.505 1.43066ZM157.555 91.7239V178.81C157.55 182.467 156.096 185.972 153.511 188.557C150.925 191.143 147.42 192.597 143.764 192.601H13.7914C10.1351 192.597 6.62977 191.143 4.04431 188.557C1.45886 185.972 0.00440212 182.467 0 178.81V91.7239C0.00448686 88.0676 1.45896 84.5623 4.04439 81.977C6.62981 79.3916 10.1351 77.9373 13.7914 77.9329H21.5492V58.7857C21.5541 43.6151 27.584 29.0675 38.3129 18.342C49.0419 7.61645 63.5915 1.59119 78.7621 1.59119C93.9327 1.59119 108.482 7.61645 119.211 18.342C129.94 29.0675 135.97 43.6151 135.975 58.7857V77.9329H143.764C147.42 77.9373 150.925 79.3917 153.511 81.977C156.096 84.5624 157.55 88.0676 157.555 91.7239ZM43.4985 77.9329H114.056V58.7857C114.056 49.4292 110.339 40.4559 103.723 33.8398C97.1072 27.2238 88.1339 23.5069 78.7774 23.5069C69.4208 23.5069 60.4475 27.2238 53.8315 33.8398C47.2154 40.4559 43.4985 49.4292 43.4985 58.7857V77.9329ZM94.8158 155.661L88.1361 139.746C90.9595 137.758 93.0764 134.922 94.1799 131.65C95.2834 128.378 95.3161 124.839 94.2734 121.547C93.2306 118.255 91.1666 115.381 88.3804 113.341C85.5942 111.301 82.2308 110.201 78.7776 110.201C75.3244 110.201 71.9609 111.301 69.1747 113.341C66.3886 115.381 64.3245 118.255 63.2817 121.547C62.239 124.839 62.2717 128.378 63.3752 131.65C64.4787 134.922 66.5956 137.758 69.4191 139.746L62.7388 155.661C62.523 156.169 62.4365 156.723 62.4871 157.273C62.5377 157.823 62.7238 158.352 63.0287 158.812C63.3337 159.273 63.748 159.651 64.2346 159.912C64.7212 160.173 65.265 160.31 65.8172 160.309H91.7378C92.2901 160.31 92.834 160.173 93.3207 159.912C93.8074 159.651 94.2218 159.273 94.5268 158.813C94.8317 158.352 95.0177 157.823 95.0682 157.273C95.1186 156.723 95.0319 156.169 94.8158 155.661V155.661Z" fill="#0064C0"/>
<path d="M630.395 19.3216H625.398V25.2217C621.649 20.4353 616.867 18.0108 611.166 18.0108C608.74 18.0017 606.34 18.5069 604.124 19.4931C601.908 20.4794 599.926 21.9242 598.309 23.7324C594.837 27.4944 592.909 32.4258 592.909 37.545C592.909 42.6642 594.836 47.5958 598.308 51.358C599.922 53.1719 601.903 54.622 604.12 55.6123C606.336 56.6025 608.738 57.1103 611.166 57.1019C616.867 57.1019 621.65 54.6646 625.398 49.8527V59.6003C625.454 61.139 625.154 62.6699 624.521 64.0734C623.611 65.9546 622.232 67.57 620.518 68.764C618.919 69.8221 617.04 70.377 615.123 70.3571L604.98 70.3134C604.227 70.2462 603.477 70.4751 602.889 70.9514C602.666 71.1672 602.489 71.4275 602.372 71.7155C602.255 72.0026 602.199 72.3113 602.209 72.6214C602.198 72.9302 602.253 73.2379 602.372 73.5234C602.49 73.8089 602.669 74.0654 602.896 74.2755C603.489 74.7334 604.233 74.9512 604.98 74.8856H614.995C616.82 74.9549 618.638 74.6452 620.337 73.9761C621.936 73.1924 623.415 72.1848 624.73 70.9837C626.123 69.8385 627.297 68.4495 628.194 66.8845C629.26 64.7928 629.797 62.472 629.76 60.1247V23.894H630.395C631.149 23.9608 631.898 23.7319 632.486 23.2557C632.706 23.047 632.881 22.7946 632.998 22.5146C633.115 22.2345 633.172 21.9331 633.166 21.6297C633.175 21.3192 633.12 21.0102 633.002 20.7226C632.885 20.4349 632.709 20.1751 632.485 19.9597C631.898 19.4835 631.148 19.2546 630.395 19.3216ZM621.245 48.1781C619.987 49.5506 618.457 50.6465 616.753 51.3962C615.049 52.146 613.207 52.5332 611.345 52.5332C609.483 52.5333 607.642 52.1462 605.937 51.3966C604.233 50.647 602.703 49.5512 601.445 48.1787C598.787 45.2796 597.312 41.4894 597.312 37.5564C597.312 33.6233 598.787 29.8331 601.445 26.934C602.703 25.5632 604.233 24.4684 605.936 23.7189C607.64 22.9694 609.48 22.5814 611.341 22.5795C613.202 22.5776 615.043 22.9618 616.748 23.7078C618.453 24.4537 619.985 25.5453 621.246 26.9135C623.916 29.8109 625.398 33.6064 625.398 37.546C625.397 41.4856 623.915 45.281 621.245 48.1781V48.1781ZM482.449 19.9597C482.834 20.3456 483.071 20.8544 483.12 21.3974C483.168 21.9404 483.024 22.483 482.713 22.9307C482.484 23.2854 482.15 23.5602 481.758 23.717C481.025 23.8853 480.272 23.9447 479.522 23.8932L457.54 70.357H457.929C458.676 70.2915 459.42 70.5093 460.014 70.9672C460.338 71.2936 460.56 71.7077 460.652 72.1586C460.744 72.6096 460.703 73.0776 460.532 73.5051C460.415 73.7856 460.241 74.0385 460.02 74.2473C459.433 74.7236 458.683 74.9526 457.929 74.8856H452.048C451.302 74.9512 450.558 74.7334 449.965 74.2755C449.748 74.0585 449.575 73.8006 449.457 73.5168C449.339 73.2329 449.279 72.9286 449.279 72.6213C449.279 72.3139 449.339 72.0096 449.457 71.7257C449.575 71.4419 449.748 71.1841 449.965 70.967C450.558 70.5092 451.302 70.2914 452.048 70.3571H452.831L458.856 57.5921L442.649 23.894H441.852C441.099 23.9612 440.35 23.7323 439.763 23.2557C439.542 23.0469 439.367 22.7941 439.249 22.5136C439.132 22.2341 439.075 21.9328 439.083 21.6297C439.078 21.1891 439.194 20.7556 439.418 20.3764C439.625 20.0137 439.942 19.7256 440.322 19.5529C440.811 19.3739 441.332 19.2952 441.852 19.3216H447.811C448.564 19.2546 449.313 19.4835 449.9 19.9597C450.124 20.1751 450.3 20.4349 450.418 20.7225C450.535 21.0102 450.591 21.3192 450.581 21.6297C450.587 21.9331 450.53 22.2346 450.413 22.5146C450.296 22.7946 450.122 23.047 449.901 23.2557C449.314 23.7319 448.564 23.9608 447.811 23.894H447.444L461.209 52.6017L474.772 23.894H474.35C473.597 23.9613 472.847 23.7324 472.26 23.2557C472.036 23.0397 471.86 22.7795 471.742 22.4917C471.625 22.2044 471.57 21.8958 471.58 21.5859C471.573 21.2828 471.629 20.9815 471.746 20.7018C471.864 20.4215 472.039 20.1687 472.26 19.9597C472.847 19.4833 473.597 19.2545 474.35 19.3216H480.317C481.084 19.2509 481.848 19.4796 482.449 19.9597V19.9597ZM535.117 8.68157C535.093 8.1586 535.175 7.63613 535.36 7.14622C535.544 6.65631 535.827 6.20926 536.191 5.83249C536.557 5.4536 536.996 5.15229 537.481 4.9465C537.966 4.74072 538.487 4.63467 539.014 4.63467C539.541 4.63467 540.063 4.74072 540.548 4.9465C541.033 5.15229 541.472 5.4536 541.838 5.83249C542.56 6.60561 542.962 7.62392 542.962 8.68166C542.962 9.73939 542.56 10.7577 541.838 11.5308C541.472 11.9099 541.033 12.2113 540.548 12.417C540.063 12.6227 539.541 12.7285 539.014 12.728C538.487 12.7286 537.965 12.6228 537.48 12.4171C536.995 12.2114 536.557 11.9099 536.191 11.5308C535.827 11.154 535.544 10.7069 535.36 10.217C535.175 9.72704 535.093 9.20456 535.117 8.68157V8.68157ZM544.881 54.1007C545.098 54.3149 545.271 54.57 545.389 54.8513C545.507 55.1326 545.568 55.4344 545.568 55.7394C545.569 56.0445 545.509 56.3466 545.393 56.6284C545.276 56.9102 545.105 57.1661 544.888 57.3813C544.287 57.8617 543.522 58.0904 542.755 58.0194H537.163C536.41 58.0865 535.66 57.8577 535.073 57.3813C534.857 57.1661 534.685 56.9103 534.569 56.6286C534.452 56.3468 534.392 56.0448 534.393 55.7399C534.394 55.4349 534.455 55.1331 534.572 54.8519C534.69 54.5706 534.863 54.3155 535.079 54.1012C535.673 53.6433 536.417 53.4255 537.163 53.491H537.801V23.894H537.205C536.448 23.9576 535.696 23.7314 535.1 23.2612C534.872 23.0561 534.691 22.8041 534.569 22.5226C534.447 22.241 534.387 21.9365 534.393 21.6297C534.383 21.3193 534.439 21.0104 534.556 20.7228C534.673 20.4352 534.849 20.1753 535.073 19.9597C535.674 19.4793 536.438 19.2506 537.205 19.3216H542.163V53.491H542.756C543.516 53.4221 544.274 53.6396 544.881 54.1007V54.1007ZM438.818 57.1726C438.831 57.6144 438.712 58.0501 438.476 58.4237C438.24 58.7974 437.898 59.0921 437.493 59.2699C437.223 59.3893 436.932 59.4544 436.637 59.4616H427.887C423.686 59.4616 420.286 58.416 417.782 56.3538C416.535 55.3299 415.541 54.0325 414.877 52.5623C414.215 51.0965 413.903 49.4972 413.964 47.8903V23.8941H406.77C406.017 23.9613 405.267 23.7324 404.68 23.2558C404.456 23.0406 404.28 22.7808 404.163 22.4931C404.046 22.2055 403.991 21.8964 404.001 21.586C403.994 21.2824 404.051 20.9808 404.168 20.7006C404.285 20.4205 404.46 20.1681 404.68 19.9597C405.268 19.4833 406.017 19.2544 406.77 19.3216H413.964V7.51163C413.897 6.73758 414.115 5.96565 414.578 5.34168C414.771 5.11611 415.011 4.93602 415.282 4.81436C415.553 4.69221 415.848 4.63116 416.145 4.63554C416.449 4.62779 416.75 4.68704 417.028 4.80906C417.306 4.93108 417.554 5.11288 417.754 5.34152C418.217 5.96553 418.435 6.73751 418.368 7.5116V19.3216H432.726C433.479 19.2546 434.229 19.4835 434.816 19.9597C435.04 20.1758 435.216 20.436 435.334 20.7238C435.451 21.0111 435.506 21.3198 435.496 21.6298C435.503 21.9333 435.446 22.2349 435.328 22.515C435.211 22.7951 435.037 23.0475 434.816 23.2558C434.229 23.7321 433.479 23.9611 432.726 23.8941H418.368V47.8903C418.349 48.8431 418.547 49.7877 418.948 50.6526C419.35 51.5199 419.942 52.2853 420.681 52.8918C422.239 54.2462 424.577 54.9328 427.633 54.9328H436.637C437.224 54.9463 437.782 55.1891 438.192 55.6092C438.394 55.8158 438.553 56.0603 438.661 56.3285C438.768 56.5968 438.822 56.8836 438.818 57.1726V57.1726ZM589.325 54.1007C589.542 54.3151 589.714 54.5702 589.832 54.8515C589.95 55.1328 590.011 55.4347 590.011 55.7396C590.012 56.0446 589.952 56.3467 589.835 56.6284C589.719 56.9102 589.547 57.1661 589.331 57.3813C588.744 57.8576 587.995 58.0865 587.242 58.0194H581.628C580.861 58.0904 580.097 57.8617 579.495 57.3813C579.279 57.166 579.108 56.91 578.991 56.6283C578.875 56.3465 578.815 56.0445 578.816 55.7396C578.817 55.4347 578.878 55.1329 578.996 54.8517C579.113 54.5705 579.286 54.3153 579.503 54.101C580.11 53.6394 580.868 53.4218 581.628 53.491H582.231V31.4173C582.251 30.25 582.029 29.0911 581.581 28.0132C581.132 26.9353 580.466 25.9616 579.624 25.153C577.888 23.448 575.52 22.5832 572.586 22.5832C570.542 22.533 568.522 23.0194 566.725 23.9939C565.083 24.9305 562.692 27.3044 559.617 31.0507V53.491H560.261C561.007 53.4257 561.751 53.6433 562.344 54.1007C562.561 54.3149 562.734 54.57 562.852 54.8513C562.97 55.1326 563.031 55.4344 563.032 55.7394C563.032 56.0444 562.973 56.3466 562.856 56.6284C562.739 56.9102 562.568 57.1661 562.352 57.3813C561.764 57.8575 561.014 58.0864 560.261 58.0194H554.614C553.86 58.0866 553.11 57.8577 552.523 57.3813C552.307 57.1661 552.136 56.9102 552.019 56.6285C551.902 56.3468 551.843 56.0447 551.843 55.7398C551.844 55.4348 551.905 55.133 552.023 54.8517C552.14 54.5705 552.313 54.3153 552.53 54.101C553.123 53.6432 553.867 53.4255 554.614 53.491H555.255V23.894H554.613C553.86 23.9612 553.11 23.7323 552.523 23.2557C552.299 23.0397 552.123 22.7795 552.005 22.4917C551.888 22.2045 551.833 21.8958 551.843 21.5859C551.836 21.2823 551.893 20.9807 552.01 20.7006C552.127 20.4204 552.302 20.168 552.523 19.9597C553.11 19.4835 553.86 19.2546 554.613 19.3216H559.617V24.2708C561.387 22.3808 563.445 20.7835 565.716 19.5385C567.87 18.499 570.236 17.976 572.628 18.0108C575.26 17.9826 577.858 18.6151 580.182 19.8504C582.011 20.9543 583.533 22.4992 584.61 24.3438C585.875 26.2637 586.563 28.5063 586.592 30.8055V53.491H587.242C587.988 53.4258 588.731 53.6434 589.325 54.1007V54.1007ZM518.646 20.5985C515.653 18.882 512.259 17.9891 508.809 18.0108C505.768 17.9398 502.76 18.6493 500.071 20.0715C497.723 21.4257 495.634 23.1875 493.904 25.2743V19.3216H488.894C488.141 19.2544 487.392 19.4833 486.805 19.9597C486.584 20.168 486.409 20.4204 486.292 20.7006C486.175 20.9807 486.118 21.2823 486.125 21.5859C486.115 21.8963 486.17 22.2054 486.287 22.4931C486.404 22.7807 486.581 23.0405 486.805 23.2557C487.392 23.7323 488.141 23.9612 488.894 23.894H489.542V70.3571H488.899C488.153 70.2913 487.409 70.5091 486.816 70.967C486.598 71.184 486.426 71.4419 486.308 71.7257C486.19 72.0096 486.129 72.3139 486.129 72.6212C486.129 72.9286 486.19 73.2329 486.308 73.5167C486.426 73.8006 486.598 74.0584 486.816 74.2755C487.409 74.7333 488.153 74.9511 488.899 74.8856H494.543C495.296 74.9526 496.045 74.7236 496.633 74.2473C496.849 74.0321 497.02 73.7763 497.137 73.4946C497.253 73.2128 497.313 72.9108 497.312 72.6059C497.312 72.3009 497.251 71.9991 497.133 71.7179C497.015 71.4366 496.843 71.1815 496.626 70.9672C496.033 70.5093 495.289 70.2914 494.543 70.357H493.904V49.8952C495.586 52.015 497.702 53.7508 500.109 54.986C503.068 56.4929 506.366 57.2096 509.683 57.0666C513 56.9237 516.224 55.9259 519.042 54.1701C521.86 52.4142 524.177 49.96 525.767 47.0453C527.357 44.1306 528.167 40.8544 528.118 37.5345C528.115 34.1419 527.265 30.8038 525.646 27.8224C524.048 24.7974 521.619 22.2914 518.646 20.5985V20.5985ZM519.378 48.1292C517.995 49.5263 516.348 50.635 514.533 51.391C512.718 52.1469 510.771 52.5352 508.805 52.5333C506.839 52.5313 504.893 52.1391 503.08 51.3795C501.266 50.6199 499.622 49.508 498.241 48.1081C495.463 45.299 493.904 41.5074 493.904 37.5564C493.904 33.6054 495.463 29.8138 498.241 27.0047C499.976 25.2608 502.115 23.9725 504.468 23.2541C506.821 22.5357 509.314 22.4095 511.728 22.8866C514.141 23.3637 516.399 24.4295 518.302 25.9892C520.204 27.5489 521.692 29.5543 522.633 31.8273C523.764 34.5616 524.059 37.5702 523.48 40.4722C522.9 43.3742 521.473 46.039 519.378 48.1292V48.1292ZM681.183 48.4681L681.184 0.489258H672.144C669.941 0.489258 668.398 0.932758 667.427 1.84538C666.944 2.3035 666.564 2.85899 666.312 3.47505C666.06 4.09111 665.942 4.75368 665.965 5.41886C665.944 6.07631 666.063 6.73075 666.316 7.33822C666.568 7.94766 666.947 8.49659 667.427 8.94867C668.339 9.80571 669.755 10.2481 671.762 10.2992V18.8897C668.46 16.6169 664.597 15.2966 660.595 15.0735C656.594 14.8504 652.608 15.733 649.074 17.6247C645.541 19.5164 642.596 22.3442 640.563 25.7982C638.53 29.2523 637.487 33.1993 637.548 37.2068C637.549 41.0445 638.508 44.8213 640.338 48.1947C642.162 51.6479 644.933 54.5091 648.326 56.4422C651.69 58.374 655.507 59.3798 659.386 59.3571C662.845 59.4295 666.265 58.6131 669.318 56.9859C670.167 56.5122 670.983 55.9821 671.762 55.3991V58.0463H679.3C680.695 58.1215 682.063 57.6419 683.106 56.7123C683.579 56.2443 683.955 55.6871 684.211 55.0729C684.468 54.4587 684.6 53.7997 684.6 53.1341C684.6 52.4685 684.468 51.8095 684.212 51.1952C683.955 50.5809 683.58 50.0236 683.107 49.5555C682.563 49.0418 681.903 48.6685 681.183 48.4681V48.4681ZM668.182 45.8617C667.029 47.0237 665.658 47.9463 664.148 48.5766C662.637 49.2068 661.017 49.5324 659.38 49.5344C657.743 49.5364 656.122 49.2149 654.61 48.5884C653.098 47.9619 651.725 47.0426 650.569 45.8836C649.421 44.7444 648.511 43.389 647.89 41.8959C647.269 40.4027 646.95 38.8013 646.951 37.1841C646.953 35.567 647.275 33.9662 647.898 32.4742C648.522 30.9821 649.435 29.6285 650.585 28.4914C651.738 27.3313 653.11 26.4109 654.62 25.7834C656.131 25.1558 657.751 24.8336 659.387 24.8351C661.023 24.8367 662.642 25.162 664.152 25.7924C665.661 26.4228 667.031 27.3458 668.182 28.5082C669.339 29.6382 670.254 30.9926 670.869 32.4883C671.485 33.984 671.788 35.5896 671.762 37.2068C671.785 38.817 671.48 40.4152 670.864 41.9033C670.249 43.3915 669.336 44.7384 668.182 45.8616V45.8617ZM777.862 48.2342H776.462V47.1075C776.462 47.0854 776.461 47.0634 776.462 47.0413V29.5662C776.494 27.2545 775.899 24.9773 774.738 22.9776C773.573 20.9698 771.888 19.3129 769.861 18.1805C766.611 16.3748 762.948 15.4452 759.23 15.4829C754.142 15.5852 749.167 17.0039 744.791 19.6008C743.7 20.3075 742.923 21.4072 742.622 22.6714C742.321 23.9356 742.519 25.2672 743.174 26.3896C743.479 26.9397 743.893 27.4215 744.391 27.8053C745.146 28.3853 746.06 28.7213 747.011 28.7683C747.961 28.8153 748.904 28.571 749.712 28.0683C752.618 26.4087 755.885 25.4834 759.23 25.3727C761.287 25.3312 763.321 25.8122 765.142 26.7707C766.719 27.7048 766.936 28.6663 766.936 29.5662V31.3622C763.977 30.6459 760.945 30.2745 757.901 30.2552C753.423 30.1858 749.093 31.8581 745.824 34.9195C744.361 36.2955 743.19 37.951 742.379 39.788C741.569 41.625 741.135 43.6061 741.105 45.6137C741.09 47.535 741.521 49.4335 742.364 51.16C743.209 52.8923 744.442 54.4066 745.967 55.5859C748.936 57.8155 752.565 58.988 756.278 58.9168C760.156 58.8212 763.955 57.7962 767.355 55.9278V58.0194H777.862C779.129 57.9608 780.326 57.4195 781.207 56.5066C782.084 55.6001 782.574 54.3881 782.574 53.1267C782.574 51.8654 782.084 50.6534 781.207 49.7469C780.326 48.8341 779.129 48.2928 777.862 48.2342L777.862 48.2342ZM766.936 44.6129C766.143 45.2297 765.316 45.8017 764.459 46.3262C762.439 47.5584 759.381 49.0271 756.278 49.0271C752.57 49.0271 750.63 47.31 750.63 45.6138C750.71 44.2948 751.307 43.0606 752.291 42.1797C753.818 40.7859 755.836 40.0543 757.901 40.1451C760.966 40.1825 764.01 40.6648 766.936 41.5768V44.6129ZM736.01 49.5621C736.487 50.0233 736.861 50.5796 737.109 51.1949C737.356 51.8102 737.472 52.4707 737.448 53.1335C737.469 53.7909 737.35 54.4452 737.099 55.0529C736.846 55.6622 736.467 56.211 735.986 56.6633C735.015 57.576 733.473 58.0194 731.269 58.0194H723.484C721.281 58.0194 719.738 57.576 718.767 56.6633C717.834 55.7183 717.31 54.4453 717.305 53.1177C717.301 51.79 717.817 50.5136 718.743 49.5624C719.835 48.647 721.226 48.166 722.65 48.2112V31.7232C722.65 29.9115 722.188 28.5802 721.278 27.7662C720.043 26.6759 718.137 26.1223 715.614 26.1223C713.861 26.0842 712.126 26.4807 710.563 27.2766C709.136 28.0393 707.293 29.6795 705.085 32.1532V48.2064C707.169 48.2334 708.513 48.4705 709.19 48.9289C709.81 49.3413 710.33 49.8854 710.715 50.5223C711.099 51.1593 711.338 51.8733 711.415 52.6133C711.489 53.3526 711.399 54.0991 711.151 54.7994C710.903 55.4996 710.502 56.1362 709.979 56.6632C709.008 57.5758 707.464 58.0194 705.262 58.0194H695.456C693.254 58.0194 691.71 57.5758 690.739 56.6632C690.219 56.1355 689.82 55.4999 689.573 54.8014C689.325 54.1029 689.233 53.3585 689.305 52.6208C689.376 51.883 689.608 51.1699 689.985 50.5318C690.362 49.8937 690.875 49.3462 691.487 48.928C692.193 48.4694 693.55 48.2334 695.632 48.2064V27.295C694.203 27.3396 692.809 26.849 691.723 25.9194C691.251 25.4599 690.88 24.9073 690.633 24.2968C690.386 23.6863 690.268 23.0311 690.287 22.3727C690.267 21.7143 690.387 21.0592 690.639 20.4506C690.891 19.8421 691.269 19.294 691.749 18.8428C692.721 17.93 694.263 17.4864 696.467 17.4864H705.086V20.0272C706.481 18.899 708.05 18.005 709.732 17.3802C711.753 16.652 713.887 16.2886 716.035 16.3067C721.236 16.3067 725.415 18.0134 728.457 21.3798C730.877 24.0718 732.104 27.64 732.104 31.9854V48.2111C733.528 48.1661 734.918 48.6471 736.01 49.5621V49.5621Z" fill="#0064C0"/>
<path d="M459.535 179.447H430.94L426.594 192.601H403.032L432.427 111.964H458.277L487.558 192.601H463.882L459.535 179.447ZM453.931 162.291L445.238 136.213L436.66 162.291H453.931ZM490.061 160.461C490.061 153.827 491.434 148.031 494.179 143.075C496.806 138.237 500.779 134.264 505.617 131.637C510.573 128.968 516.216 127.634 522.545 127.634C530.704 127.634 537.567 129.883 543.133 134.382C548.7 138.805 552.284 145.02 553.885 153.026H530.094C528.722 148.832 526.053 146.735 522.087 146.736C520.754 146.707 519.436 147.017 518.255 147.637C517.075 148.257 516.071 149.167 515.339 150.281C513.738 152.569 512.937 155.962 512.937 160.461C512.937 164.96 513.737 168.391 515.339 170.755C516.071 171.869 517.075 172.779 518.255 173.399C519.436 174.02 520.754 174.33 522.087 174.301C526.129 174.301 528.798 172.204 530.094 168.01H553.885C552.284 175.94 548.7 182.155 543.133 186.654C537.567 191.153 530.704 193.403 522.545 193.402C516.216 193.402 510.573 192.068 505.617 189.399C500.779 186.772 496.806 182.799 494.179 177.961C491.434 173.004 490.061 167.171 490.061 160.461ZM599.914 173.5V192.601H590.191C573.797 192.601 565.599 184.481 565.6 168.239V147.078H557.707V128.435H565.6V112.88H588.133V128.435H599.799V147.078H588.133V168.582C588.133 170.335 588.514 171.593 589.276 172.356C590.115 173.119 591.488 173.5 593.394 173.5L599.914 173.5ZM620.375 122.487C616.411 122.487 613.208 121.42 610.768 119.284C609.623 118.245 608.713 116.972 608.102 115.551C607.49 114.131 607.19 112.595 607.222 111.049C607.182 109.485 607.478 107.93 608.09 106.49C608.701 105.05 609.615 103.757 610.768 102.7C613.208 100.488 616.41 99.3828 620.375 99.3828C624.265 99.3828 627.391 100.488 629.755 102.7C630.937 103.74 631.878 105.026 632.51 106.469C633.142 107.911 633.451 109.474 633.414 111.049C633.443 112.606 633.13 114.149 632.497 115.572C631.865 116.995 630.929 118.262 629.755 119.284C627.391 121.419 624.265 122.487 620.375 122.487L620.375 122.487ZM631.471 128.435V192.601H609.052V128.435L631.471 128.435ZM673.862 171.441L685.871 128.435H709.776L687.701 192.601H659.793L637.717 128.435H661.623L673.862 171.441ZM777.536 159.775C777.536 161.534 777.421 163.292 777.193 165.036H734.758C734.987 168.544 735.94 171.175 737.617 172.928C738.502 173.765 739.544 174.418 740.683 174.85C741.821 175.282 743.035 175.484 744.252 175.444C747.989 175.444 750.657 173.767 752.258 170.412H776.163C775.196 174.786 773.196 178.865 770.33 182.307C767.42 185.807 763.74 188.586 759.578 190.428C755.046 192.45 750.13 193.465 745.167 193.402C738.838 193.402 733.195 192.067 728.239 189.399C723.384 186.755 719.378 182.789 716.687 177.961C713.941 173.004 712.569 167.171 712.568 160.461C712.568 153.751 713.941 147.955 716.687 143.075C719.313 138.237 723.286 134.264 728.125 131.637C733.081 128.968 738.762 127.634 745.167 127.634C751.496 127.634 757.1 128.93 761.981 131.523C766.806 134.062 770.782 137.959 773.418 142.732C776.163 147.536 777.536 153.217 777.536 159.775V159.775ZM754.661 154.17C754.661 151.425 753.746 149.291 751.916 147.765C750.008 146.136 747.56 145.279 745.052 145.363C742.597 145.263 740.192 146.078 738.304 147.65C736.55 149.099 735.407 151.273 734.873 154.17H754.661ZM807.985 175.444H833.034V192.601H785.567V111.964H807.985V175.444ZM870.46 193.402C864.463 193.497 858.533 192.123 853.189 189.399C848.22 186.791 844.095 182.824 841.294 177.961C838.396 173.004 836.947 167.171 836.947 160.461C836.947 153.827 838.396 148.031 841.294 143.075C844.159 138.222 848.317 134.262 853.304 131.637C858.648 128.912 864.577 127.538 870.575 127.634C876.98 127.634 882.699 128.968 887.731 131.637C892.749 134.219 896.918 138.189 899.741 143.075C902.715 148.031 904.202 153.827 904.202 160.461C904.202 167.095 902.715 172.928 899.741 177.961C896.918 182.847 892.749 186.817 887.731 189.399C882.387 192.123 876.458 193.498 870.46 193.402V193.402ZM870.46 173.958C871.929 173.991 873.387 173.701 874.731 173.108C876.075 172.515 877.272 171.634 878.238 170.526C880.373 168.163 881.44 164.808 881.441 160.461C881.441 156.114 880.373 152.797 878.238 150.51C877.274 149.431 876.093 148.567 874.773 147.976C873.452 147.384 872.022 147.078 870.575 147.078C869.128 147.078 867.697 147.384 866.376 147.976C865.056 148.567 863.875 149.431 862.911 150.51C860.853 152.798 859.823 156.115 859.823 160.461C859.823 164.884 860.815 168.239 862.797 170.526C863.735 171.637 864.91 172.523 866.237 173.117C867.564 173.711 869.007 173.999 870.46 173.958V173.958ZM908.519 160.461C908.519 153.827 909.891 148.031 912.636 143.075C915.263 138.237 919.236 134.264 924.074 131.637C929.031 128.968 934.674 127.634 941.003 127.634C949.166 127.634 956.027 129.883 961.587 134.382C967.153 138.805 970.738 145.02 972.342 153.026H948.554C947.179 148.832 944.509 146.735 940.545 146.736C939.212 146.707 937.894 147.017 936.713 147.637C935.533 148.257 934.529 149.167 933.797 150.281C932.196 152.569 931.395 155.962 931.394 160.461C931.394 164.96 932.195 168.391 933.797 170.755C934.529 171.869 935.533 172.779 936.713 173.399C937.894 174.02 939.212 174.33 940.545 174.301C944.589 174.301 947.259 172.204 948.554 168.01H972.342C970.741 175.94 967.156 182.155 961.587 186.654C956.022 191.153 949.16 193.403 941.003 193.402C934.674 193.402 929.031 192.067 924.074 189.399C919.236 186.772 915.263 182.799 912.636 177.961C909.892 173.004 908.52 167.171 908.519 160.461L908.519 160.461ZM1020.66 192.601L1002.93 166.294V192.601H980.516V107.961H1002.93V153.598L1020.66 128.435H1047.54L1022.26 160.69L1048 192.601H1020.66Z" fill="#0064C0"/>
</svg>
