<svg width="64" height="64" viewBox="0 0 64 64" fill="none" xmlns="http://www.w3.org/2000/svg">
<path d="M0 14.7136C0 12.099 1.69319 9.78535 4.1854 8.99459L30.688 0.585503C31.8878 0.204831 33.1769 0.211109 34.3729 0.603451L59.8702 8.96782C62.3341 9.7761 64 12.0758 64 14.6689V17.3311C64 19.9242 62.3341 22.2239 59.8702 23.0322L34.3729 31.3966C33.1769 31.7889 31.8878 31.7952 30.688 31.4145L4.1854 23.0054C1.69319 22.2147 0 19.901 0 17.2864V14.7136Z" fill="#B3DBF1"/>
<path d="M0 33.5554C0 29.8381 3.64141 27.2129 7.16824 28.3876L30.6052 36.1941C31.8557 36.6106 33.2086 36.6038 34.4549 36.1746L56.8047 28.4779C60.3291 27.2642 64 29.8825 64 33.6101C64 35.9471 62.5041 38.0218 60.2866 38.7601L34.3975 47.3794C33.1864 47.7826 31.8782 47.789 30.6631 47.3978L3.77737 38.7402C1.52617 38.0153 0 35.9205 0 33.5554Z" fill="#D21212"/>
<path d="M0 49.5554C0 45.8381 3.64141 43.2129 7.16824 44.3876L30.6052 52.1941C31.8557 52.6106 33.2086 52.6038 34.4549 52.1746L56.8047 44.4779C60.3291 43.2642 64 45.8825 64 49.6101C64 51.9471 62.5041 54.0218 60.2866 54.7601L34.3975 63.3794C33.1864 63.7826 31.8782 63.789 30.6631 63.3978L3.77737 54.7402C1.52617 54.0153 0 51.9205 0 49.5554Z" fill="#6A6A6A"/>
</svg>
