<svg width="232" height="64" viewBox="0 0 232 64" fill="none" xmlns="http://www.w3.org/2000/svg">
<path d="M99.9153 57C95.4666 57 91.852 56 89.0715 54C86.2911 52 84.6006 49.1889 84 45.5667L92.2079 44.3C92.6305 46.0778 93.5647 47.4778 95.0106 48.5C96.4564 49.5222 98.2804 50.0333 100.483 50.0333C102.418 50.0333 103.908 49.6556 104.953 48.9C106.021 48.1222 106.555 47.0667 106.555 45.7333C106.555 44.9111 106.355 44.2556 105.954 43.7667C105.576 43.2556 104.731 42.7667 103.419 42.3C102.106 41.8333 100.093 41.2444 97.3795 40.5333C94.3544 39.7333 91.9521 38.8778 90.1726 37.9667C88.3931 37.0333 87.1141 35.9333 86.3356 34.6667C85.5571 33.4 85.1678 31.8667 85.1678 30.0667C85.1678 27.8222 85.7572 25.8667 86.9362 24.2C88.1151 22.5333 89.7611 21.2556 91.8742 20.3667C93.9874 19.4556 96.4787 19 99.3481 19C102.151 19 104.631 19.4333 106.789 20.3C108.968 21.1667 110.726 22.4 112.06 24C113.395 25.6 114.218 27.4778 114.529 29.6333L106.321 31.1C106.121 29.5667 105.421 28.3556 104.219 27.4667C103.041 26.5778 101.461 26.0778 99.4815 25.9667C97.5908 25.8556 96.0671 26.1444 94.9105 26.8333C93.7538 27.5 93.1755 28.4444 93.1755 29.6667C93.1755 30.3556 93.409 30.9444 93.8762 31.4333C94.3433 31.9222 95.2775 32.4111 96.6788 32.9C98.1024 33.3889 100.216 33.9889 103.018 34.7C105.888 35.4333 108.179 36.2778 109.892 37.2333C111.627 38.1667 112.872 39.2889 113.628 40.6C114.407 41.9111 114.796 43.5 114.796 45.3667C114.796 48.9889 113.473 51.8333 110.826 53.9C108.201 55.9667 104.564 57 99.9153 57Z" fill="#6A6A6A"/>
<path d="M136.418 57C132.703 57 129.534 56.1778 126.909 54.5333C124.284 52.8667 122.271 50.6 120.87 47.7333C119.491 44.8667 118.79 41.6222 118.768 38C118.79 34.3111 119.513 31.0444 120.937 28.2C122.382 25.3333 124.429 23.0889 127.076 21.4667C129.723 19.8222 132.87 19 136.518 19C140.611 19 144.07 20.0333 146.895 22.1C149.742 24.1444 151.599 26.9444 152.467 30.5L144.459 32.6667C143.836 30.7333 142.802 29.2333 141.356 28.1667C139.91 27.0778 138.264 26.5333 136.418 26.5333C134.327 26.5333 132.603 27.0333 131.246 28.0333C129.89 29.0111 128.889 30.3667 128.244 32.1C127.598 33.8333 127.276 35.8 127.276 38C127.276 41.4222 128.043 44.1889 129.578 46.3C131.113 48.4111 133.393 49.4667 136.418 49.4667C138.553 49.4667 140.233 48.9778 141.456 48C142.702 47.0222 143.636 45.6111 144.259 43.7667L152.467 45.6C151.355 49.2667 149.408 52.0889 146.628 54.0667C143.847 56.0222 140.444 57 136.418 57Z" fill="#6A6A6A"/>
<path d="M167.308 57C164.706 57 162.504 56.5111 160.702 55.5333C158.9 54.5333 157.532 53.2111 156.598 51.5667C155.686 49.9222 155.23 48.1111 155.23 46.1333C155.23 44.4 155.519 42.8444 156.097 41.4667C156.676 40.0667 157.565 38.8667 158.767 37.8667C159.968 36.8444 161.525 36.0111 163.438 35.3667C164.884 34.9 166.574 34.4778 168.509 34.1C170.467 33.7222 172.58 33.3778 174.849 33.0667C177.14 32.7333 179.531 32.3778 182.022 32L179.153 33.6333C179.175 31.1444 178.619 29.3111 177.485 28.1333C176.35 26.9556 174.437 26.3667 171.746 26.3667C170.122 26.3667 168.554 26.7444 167.041 27.5C165.529 28.2556 164.472 29.5556 163.872 31.4L156.531 29.1C157.421 26.0556 159.111 23.6111 161.603 21.7667C164.116 19.9222 167.497 19 171.746 19C174.949 19 177.763 19.5222 180.187 20.5667C182.634 21.6111 184.447 23.3222 185.626 25.7C186.271 26.9667 186.66 28.2667 186.794 29.6C186.927 30.9111 186.994 32.3444 186.994 33.9V56H179.954V48.2L181.121 49.4667C179.498 52.0667 177.596 53.9778 175.416 55.2C173.258 56.4 170.556 57 167.308 57ZM168.91 50.6C170.734 50.6 172.291 50.2778 173.581 49.6333C174.871 48.9889 175.894 48.2 176.65 47.2667C177.429 46.3333 177.952 45.4556 178.219 44.6333C178.641 43.6111 178.875 42.4444 178.919 41.1333C178.986 39.8 179.019 38.7222 179.019 37.9L181.488 38.6333C179.064 39.0111 176.984 39.3444 175.249 39.6333C173.514 39.9222 172.024 40.2 170.778 40.4667C169.533 40.7111 168.431 40.9889 167.475 41.3C166.541 41.6333 165.751 42.0222 165.106 42.4667C164.461 42.9111 163.961 43.4222 163.605 44C163.271 44.5778 163.104 45.2556 163.104 46.0333C163.104 46.9222 163.327 47.7111 163.771 48.4C164.216 49.0667 164.861 49.6 165.707 50C166.574 50.4 167.642 50.6 168.91 50.6Z" fill="#6A6A6A"/>
<path d="M195.013 56V7H203.054V56H195.013Z" fill="#6A6A6A"/>
<path d="M211.714 56V20H218.821V28.7667L217.953 27.6333C218.398 26.4333 218.988 25.3444 219.722 24.3667C220.478 23.3667 221.379 22.5444 222.424 21.9C223.314 21.3 224.293 20.8333 225.36 20.5C226.45 20.1444 227.562 19.9333 228.697 19.8667C229.831 19.7778 230.932 19.8222 232 20V27.5C230.932 27.1889 229.698 27.0889 228.296 27.2C226.917 27.3111 225.672 27.7 224.56 28.3667C223.447 28.9667 222.535 29.7333 221.824 30.6667C221.134 31.6 220.622 32.6667 220.289 33.8667C219.955 35.0444 219.788 36.3222 219.788 37.7V56H211.714Z" fill="#6A6A6A"/>
<path d="M0 14.7136C0 12.099 1.69319 9.78535 4.1854 8.99459L30.688 0.585503C31.8878 0.204831 33.1769 0.211109 34.3729 0.603451L59.8702 8.96782C62.3341 9.7761 64 12.0758 64 14.6689V17.3311C64 19.9242 62.3341 22.2239 59.8702 23.0322L34.3729 31.3966C33.1769 31.7889 31.8878 31.7952 30.688 31.4145L4.1854 23.0054C1.69319 22.2147 0 19.901 0 17.2864V14.7136Z" fill="#B3DBF1"/>
<path d="M0 33.5554C0 29.8381 3.64141 27.2129 7.16824 28.3876L30.6052 36.1941C31.8557 36.6106 33.2086 36.6038 34.4549 36.1746L56.8047 28.4779C60.3291 27.2642 64 29.8825 64 33.6101C64 35.9471 62.5041 38.0218 60.2866 38.7601L34.3975 47.3794C33.1864 47.7826 31.8782 47.789 30.6631 47.3978L3.77737 38.7402C1.52617 38.0153 0 35.9205 0 33.5554Z" fill="#D21212"/>
<path d="M0 49.5554C0 45.8381 3.64141 43.2129 7.16824 44.3876L30.6052 52.1941C31.8557 52.6106 33.2086 52.6038 34.4549 52.1746L56.8047 44.4779C60.3291 43.2642 64 45.8825 64 49.6101C64 51.9471 62.5041 54.0218 60.2866 54.7601L34.3975 63.3794C33.1864 63.7826 31.8782 63.789 30.6631 63.3978L3.77737 54.7402C1.52617 54.0153 0 51.9205 0 49.5554Z" fill="#6A6A6A"/>
</svg>
