<svg width="171" height="47" viewBox="0 0 171 47" fill="none" xmlns="http://www.w3.org/2000/svg">
<g clip-path="url(#clip0_10_29833)">
<path d="M93.2428 0.328613C93.4602 2.50442 93.5789 4.69666 93.9116 6.85931C94.6266 11.5199 96.7221 13.413 101.427 13.8173C102.794 13.9356 104.162 14.0375 105.532 14.0835C106.893 14.1295 108.257 14.0934 109.605 14.0934C110.026 20.5025 110.435 26.7571 110.853 33.1333H83.3584V0.328613H93.2428ZM96.4025 26.0471C97.2262 26.0471 98.0499 26.011 98.8703 26.0537C100.109 26.1194 101.032 25.919 101.032 24.3545C101.032 22.7736 100.554 22.1294 98.9329 22.0669C97.2888 22.0045 95.6414 22.0998 93.9973 22.0275C92.8804 21.9782 92.4454 22.3726 92.373 23.5032C92.2082 26.0471 92.1588 26.0439 94.7551 26.0471C95.302 26.0471 95.8523 26.0471 96.3992 26.0471H96.4025Z" fill="#B8C137"/>
<path d="M27.3468 0.328726C27.3468 10.5077 27.3468 20.6899 27.3435 30.8689C27.3435 31.5755 27.3435 32.2822 27.3435 33.1597C26.7537 33.1926 26.2332 33.2484 25.7126 33.2484C18.3059 33.255 10.8959 33.209 3.48918 33.2912C2.00652 33.3076 1.68034 32.8245 1.60456 31.4473C1.35086 26.9675 0.942301 22.5009 0.579874 18.0277C0.553515 17.7089 0.418428 17.4032 0.332764 17.0877V14.1296C3.22889 14.0212 6.12831 13.9949 9.01785 13.7878C14.2632 13.4131 16.5926 11.3294 17.5085 6.1725C17.8512 4.24649 17.927 2.27446 18.1247 0.325439H27.3501L27.3468 0.328726ZM14.563 26.0473C15.1132 26.0473 15.6602 26.0473 16.2104 26.0473C18.8363 26.0473 19.2844 25.5115 18.6453 22.9775C18.553 22.6126 18.0555 22.0966 17.7326 22.0868C15.7063 22.0276 13.6701 22.0112 11.6471 22.1426C10.1908 22.238 10.0887 23.3653 10.0985 24.565C10.1117 25.8796 10.8728 26.0834 11.9272 26.0505C12.8036 26.0243 13.6833 26.044 14.5597 26.0505L14.563 26.0473Z" fill="#B8C137"/>
<path d="M43.8208 46.9999C43.6165 44.2752 43.5375 41.5341 43.175 38.8291C42.6907 35.194 41.1389 33.8235 37.4223 33.5375C34.8656 33.3403 32.3022 33.2779 29.6499 33.1497V14.2051H39.8407C39.8407 16.7161 39.8506 19.1614 39.8407 21.6068C39.8341 23.0924 40.4766 23.7891 42.0383 23.7727C43.3793 23.7596 43.8966 23.2698 43.8571 21.919C43.7846 19.4079 43.8373 16.8936 43.8373 14.2445H54.1994C54.1994 14.8789 54.1994 15.523 54.1994 16.1672C54.1994 25.7973 54.1994 35.4274 54.206 45.0575C54.206 45.7049 54.3082 46.3524 54.3642 46.9999H43.8208Z" fill="#B8C137"/>
<path d="M171 27.9371C170.736 29.1038 170.509 30.2772 170.203 31.4308C169.873 32.6798 169.135 33.2944 167.715 33.2813C160.476 33.2254 153.238 33.2254 145.999 33.2813C144.586 33.2911 143.811 32.6929 143.521 31.421C142.391 26.4909 142.207 21.5575 143.857 16.7064C144.632 14.4287 145.238 14.1099 147.607 14.1099C153.857 14.1099 160.111 14.1657 166.361 14.0737C168.147 14.0474 169.191 14.7606 169.698 16.3317C170.199 17.8797 170.572 19.4672 171 21.035V27.9371ZM156.529 26.0012C157.626 26.0012 158.727 26.0308 159.824 25.9847C160.163 25.9683 160.638 25.8401 160.803 25.5969C161.659 24.3282 160.546 22.1097 159.033 22.0637C157.442 22.0144 155.847 22.021 154.256 22.0604C152.598 22.0999 152.282 22.6619 152.21 24.7029C152.15 26.4252 153.33 25.9486 154.22 25.9979C154.987 26.0406 155.755 26.0078 156.526 26.0045L156.529 26.0012Z" fill="#B8C137"/>
<path d="M67.8729 0.328613V33.1202H56.4399C56.4399 32.4694 56.4399 31.8318 56.4399 31.1909C56.4399 21.5575 56.4399 11.9241 56.4366 2.28749C56.4366 1.63344 56.374 0.982669 56.3411 0.328613H67.8729Z" fill="#B8C137"/>
<path d="M77.4278 0.328613C77.4739 1.08127 77.5398 1.83721 77.5628 2.59316C77.5958 3.64819 78.0505 4.10505 79.1378 3.82568C79.8198 3.65148 80.515 3.52987 81.2102 3.4247C81.3222 3.40826 81.4639 3.59889 81.8032 3.84868C81.3189 4.25624 80.9202 4.65064 80.4656 4.96288C78.8874 6.05078 78.8972 6.3926 80.515 7.50351C80.9795 7.82232 81.3914 8.21673 81.8263 8.57498L81.6451 9.07456C81.0158 8.98582 80.3733 8.95295 79.7638 8.79519C77.9352 8.33176 77.7045 8.49281 77.777 10.3202C77.7968 10.8461 77.777 11.372 77.777 11.8978L77.2828 12.1213C76.9335 11.6119 76.5217 11.1353 76.2416 10.5897C75.3982 8.93323 75.1346 8.86421 73.7211 9.98498C73.2368 10.3662 72.6865 10.6686 72.1693 11.0071L71.7245 10.6785C72.0078 10.0474 72.2516 9.39337 72.5844 8.7919C73.1808 7.72043 72.848 7.1584 71.6948 6.94148C70.9436 6.80015 70.199 6.62924 69.4543 6.46819L69.4675 5.8733C70.2154 5.68924 70.9568 5.46246 71.7146 5.33099C72.8546 5.13379 73.0753 4.58491 72.5185 3.60875C72.1462 2.95798 71.8332 2.27435 71.4905 1.60386L71.965 1.23246C72.5185 1.60386 73.0984 1.9391 73.619 2.34994C74.9468 3.39183 75.3553 3.30638 76.0406 1.79449C76.2647 1.29819 76.5217 0.818334 76.7622 0.3319H77.4212L77.4278 0.328613Z" fill="#B8C137"/>
<path d="M113.137 14.1067C115.417 14.1067 117.325 14.1067 119.229 14.1067C125.268 14.1067 131.308 14.1001 137.347 14.1067C139.914 14.11 142.006 16.5388 141.749 19.1255C141.643 20.1871 141.021 20.5092 140.085 20.5125C138.382 20.5125 136.681 20.5158 134.978 20.5191C134.451 20.5191 133.927 20.5191 133.229 20.5191C133.789 26.0868 137.331 29.5214 141.021 33.14C140.345 33.1893 139.887 33.2518 139.426 33.2518C131.466 33.2584 123.506 33.2584 115.545 33.2518C112.847 33.2518 111.114 30.813 112.221 28.348C112.508 27.7104 113.601 27.1418 114.372 27.0695C116.32 26.8887 118.293 27.0103 120.408 27.0103C120.069 21.5379 116.784 17.9456 113.137 14.1067Z" fill="#B8C137"/>
<path d="M70.2781 33.1399V14.238H80.9763V33.1399H70.2781Z" fill="#B8C137"/>
</g>
<defs>
<clipPath id="clip0_10_29833">
<rect width="171" height="47" fill="white"/>
</clipPath>
</defs>
</svg>
