<?xml version="1.0" encoding="UTF-8" standalone="no"?>
<svg
   xmlns:dc="http://purl.org/dc/elements/1.1/"
   xmlns:cc="http://creativecommons.org/ns#"
   xmlns:rdf="http://www.w3.org/1999/02/22-rdf-syntax-ns#"
   xmlns:svg="http://www.w3.org/2000/svg"
   xmlns="http://www.w3.org/2000/svg"
   xmlns:sodipodi="http://sodipodi.sourceforge.net/DTD/sodipodi-0.dtd"
   xmlns:inkscape="http://www.inkscape.org/namespaces/inkscape"
   id="customized-bits-logo"
   width="149.74553mm"
   height="146.25404mm"
   viewBox="0 0 149.74553 146.25404"
   version="1.1"
   sodipodi:docname="Bits_Outlined.svg"
   inkscape:version="1.0 (4035a4fb49, 2020-05-01)">
  <metadata
     id="metadata11">
    <rdf:RDF>
      <cc:Work
         rdf:about="">
        <dc:format>image/svg+xml</dc:format>
        <dc:type
           rdf:resource="http://purl.org/dc/dcmitype/StillImage" />
        <dc:title />
      </cc:Work>
    </rdf:RDF>
  </metadata>
  <sodipodi:namedview
     inkscape:document-rotation="0"
     pagecolor="#ffffff"
     bordercolor="#666666"
     borderopacity="1"
     objecttolerance="10"
     gridtolerance="10"
     guidetolerance="10"
     inkscape:pageopacity="0"
     inkscape:pageshadow="2"
     inkscape:window-width="1920"
     inkscape:window-height="1051"
     id="namedview9"
     showgrid="false"
     inkscape:zoom="1.5919788"
     inkscape:cx="263.69674"
     inkscape:cy="189.13056"
     inkscape:window-x="-9"
     inkscape:window-y="-9"
     inkscape:window-maximized="1"
     inkscape:current-layer="layer3" />
  <defs
     id="defs3">
    <pattern
       id="bits-background-image"
       patternUnits="userSpaceOnUse"
       width="300"
       height="300" />
  </defs>
  <g
     inkscape:groupmode="layer"
     id="layer3"
     inkscape:label="Background"
     style="display:inline">
    <g
       transform="translate(-91.815956,-81.513191)"
       id="parent">
      <rect
         y="81.513191"
         x="91.815956"
         height="146.37437"
         width="149.64532"
         fill="#632ca6"
         id="bits-background" />
    </g>
  </g>
  <g
     inkscape:groupmode="layer"
     id="layer4"
     inkscape:label="Body"
     style="display:inline">
    <path
       id="bits-body"
       d="m 102.2731,124.37983 c 1.34938,-0.4341 2.22379,-1.06497 3.95105,-2.85061 1.54033,-1.59239 2.78506,-3.07912 4.31874,-5.15841 2.76033,-3.7423 3.38721,-5.17021 3.39257,-7.72752 0.004,-1.95031 -0.51788,-3.83671 -1.75432,-6.33996 -2.59103,-5.245712 -6.16982,-10.212991 -10.3931,-14.425422 -2.067026,-2.061721 -3.413456,-3.15372 -4.887587,-3.964001 -0.493991,-0.271529 -0.898171,-0.550349 -0.898171,-0.619588 0,-0.0692 0.187002,-0.496332 0.41556,-0.949092 0.408832,-0.809908 1.331532,-3.444748 1.331532,-3.802309 0,-0.109791 -0.44299,-0.329369 -1.108732,-0.549571 -0.609798,-0.2017 -1.17657,-0.391589 -1.259498,-0.421979 -0.0829,-0.0304 -0.343249,0.28579 -0.578501,0.70262 -0.867029,1.5363 -2.275171,2.71948 -4.464759,3.751479 -3.080822,1.452071 -5.2544,1.487871 -9.309971,0.153321 -3.802959,-1.251429 -6.809348,-3.270271 -11.198378,-7.519922 -1.218372,-1.179668 -1.511911,-1.536999 -1.511911,-1.840507 0,-0.374021 0.01,-0.369851 1.39624,0.60085 3.99174,2.794518 9.142439,5.365829 12.580491,6.28037 1.487858,0.395779 4.17975,0.432577 5.510048,0.0753 1.227302,-0.329592 2.623611,-1.017601 4.06536,-2.003171 1.295461,-0.88556 3.545491,-2.94476 4.41805,-4.043349 0.498829,-0.62806 0.514551,-0.636241 0.5964,-0.310161 0.0579,0.230749 -0.0688,0.68216 -0.407498,1.451409 -0.270362,0.614079 -0.521992,1.185791 -0.559181,1.27046 -0.0925,0.21059 1.77034,0.814171 3.060909,0.99177 1.721077,0.236842 3.203647,-0.142899 4.031587,-1.032619 0.68382,-0.73484 1.5647,-2.85125 2.08874,-5.018399 0.35006,-1.447702 0.34617,-5.319051 -0.007,-6.652382 -0.48615,-1.836949 -2.17969,-4.684519 -4.71157,-7.922178 -0.676784,-0.865431 -1.178416,-1.640282 -1.218074,-1.881481 -0.0371,-0.22555 -0.12972,-1.360509 -0.205862,-2.52213 -0.243258,-3.71091 -1.00303,-5.82473 -3.09304,-8.60539 -1.686949,-2.2444 -4.625538,-5.18265 -7.77617,-7.77528 l -0.58846,-0.48423 0.858311,0.11639 c 1.500481,0.20348 2.37409,0.57374 3.34455,1.4175 0.406199,0.35317 0.958559,0.64451 1.682311,0.88733 0.94179,0.31598 1.54309,0.44278 1.54309,0.3254 0,-0.0199 -0.238612,-0.5111 -0.530241,-1.0916 -0.788559,-1.56968 -1.347891,-4.29541 -1.353579,-6.59625 -0.003,-1.04803 -0.231252,-2.27673 -0.65092,-3.49771 l -0.277162,-0.80635 0.52928,0.60229 c 0.71061,0.80864 1.267161,1.99245 1.54912,3.29507 0.80137,3.70221 2.57253,6.69062 5.745472,9.69407 2.932034,2.77542 5.258704,2.64729 5.027384,-0.27687 -0.1031,-1.30358 -0.50264,-2.52222 -1.50127,-4.57912 -1.52327,-3.13752 -3.42859,-5.6856 -5.880897,-7.8648 -1.667089,-1.48143 -2.986899,-2.32961 -4.068299,-2.61451 -0.94384,-0.24866 -1.45174,-0.19766 -3.023812,0.30364 -1.362689,0.43453 -1.800968,0.81935 -3.09435,2.71695 -1.297088,1.90303 -2.782929,3.39605 -3.949438,3.96852 -0.52388,0.2571 -1.254889,0.52337 -1.624459,0.59172 -0.618842,0.11443 -6.249213,0.0359 -6.249213,-0.0872 0,-0.0298 0.239702,-0.36805 0.532681,-0.75169 0.29297,-0.38364 0.472382,-0.71837 0.398682,-0.74383 -0.0737,-0.0254 -0.91817,0.34116 -1.876592,0.81471 -0.95844,0.47355 -1.742599,0.83912 -1.742599,0.81237 0,-0.11647 0.474089,-0.95724 0.847461,-1.50289 0.28974,-0.42345 0.341439,-0.56911 0.180009,-0.50716 -0.274381,0.10529 -1.709229,1.06283 -2.406369,1.60589 l -0.505363,0.39366 0.132803,-0.34928 c 0.235997,-0.62072 0.566787,-1.2138 0.84936,-1.52285 0.418557,-0.45777 0.194178,-0.50207 -0.630553,-0.1245 -1.019087,0.46656 -1.869868,1.06569 -2.902278,2.04385 -0.781089,0.74006 -0.998939,0.86614 -2.058389,1.1913 -0.651672,0.2 -1.97653,0.72628 -2.94413,1.1695 l -1.759281,0.80586 -1.22201,-0.34915 c -2.49009,-0.71146 -4.28571,-1.9606 -5.81779,-4.04718 -1.26323,-1.72044 -2.92876,-2.28653 -5.0793,-1.72639 -0.709,0.18467 -5.96756,2.38655 -8.0646,3.37683 l -0.80635,0.38078 1.27672,0.0751 c 0.7022,0.0413 1.19766,0.0867 1.10103,0.10079 -0.27225,0.0399 -3.38565,1.53401 -3.38599,1.62496 -1.3e-4,0.0444 0.42997,0.0603 0.95585,0.0354 0.66077,-0.0312 0.92843,-5.29e-4 0.8664,0.10002 -0.0494,0.0799 -0.67605,0.56195 -1.39263,1.07127 -1.36456,0.96989 -3.65471,2.91431 -3.65471,3.103 0,0.0605 0.45999,-0.0687 1.02221,-0.28702 0.56221,-0.2183 1.0541,-0.36503 1.09308,-0.32604 0.039,0.039 -0.18115,0.49512 -0.48919,1.01363 -1.48322,2.49662 -1.68522,3.55832 -1.01713,5.34587 1.24204,3.3232 4.32747,6.930171 7.78491,9.10081 1.56053,0.979739 2.66391,1.3477 4.03734,1.346391 0.98351,-0.0011 1.16102,-0.0453 2.08306,-0.520311 2.70099,-1.39156 3.93024,-2.640161 4.66075,-4.73412 0.33557,-0.96189 0.36914,-1.23276 0.37249,-3.00584 0.003,-1.53285 -0.0627,-2.26413 -0.3076,-3.42698 -0.56945,-2.70453 -1.36259,-5.81477 -2.18038,-8.55022 -0.44487,-1.48807 -0.78664,-2.7278 -0.75948,-2.75496 0.13555,-0.13555 3.13777,6.99364 4.05575,9.63094 1.35276,3.88636 2.05741,8.29226 1.69592,10.603821 -0.21257,1.359228 -0.54508,2.045909 -1.39015,2.870779 -1.33797,1.305999 -3.28883,2.082081 -5.54355,2.205321 -1.65693,0.0906 -2.98588,-0.118232 -4.0969,-0.64366 -0.45733,-0.216281 -0.8644,-0.393242 -0.90461,-0.393242 -0.0402,0 -0.0399,1.254881 7.94e-4,2.788631 0.085,3.215659 0.28449,4.513509 1.04512,6.80058 0.31655,0.951781 0.52977,1.84788 0.52977,2.226379 0,0.770451 0.19282,1.88154 0.56746,3.269861 0.27468,1.017879 0.50768,1.352889 0.50768,0.729949 0,-0.171368 0.10022,-0.640059 0.22271,-1.04153 l 0.22271,-0.729948 0.15651,0.806349 c 0.20219,1.041771 0.76363,2.75503 0.90283,2.75503 0.0594,0 0.1086,-0.226791 0.10941,-0.503971 0.002,-0.655968 0.14526,-1.513998 0.25129,-1.50427 0.23577,0.02159 1.38069,1.661541 1.68768,2.41731 0.37491,0.923002 1.14709,2.278761 1.29787,2.278761 0.0498,0 0.0637,-0.40822 0.0308,-0.90715 l -0.0597,-0.90714 0.53107,0.572151 c 0.74158,0.798949 1.57057,2.459839 1.96684,3.940588 0.48565,1.8147 0.78541,4.596881 0.61214,5.68148 -0.49401,3.09237 -2.41605,5.545582 -8.33539,10.638951 -3.88137,3.339769 -5.09621,4.588102 -6.08718,6.255002 -2.26541,3.81062 -2.19819,7.26153 0.18473,9.48294 2.42527,2.26089 3.58271,3.44174 4.28958,4.37633 0.76235,1.00794 1.01596,1.47285 2.13687,3.9173 0.42075,0.91755 0.72435,1.36053 1.33554,1.94868 1.51972,1.46243 3.96203,2.56499 6.31063,2.84893 2.86306,0.3461 6.12309,-0.62566 7.890761,-2.35215 1.32288,-1.29207 2.426211,-3.62489 2.766989,-5.85041 0.529341,-3.45695 -1.175639,-9.26349 -3.929179,-13.38132 -1.125861,-1.68369 -2.184911,-2.79358 -3.440901,-3.606072 -2.03078,-1.313712 -4.04659,-1.9397 -6.68694,-2.076579 l -1.7471,-0.0906 1.04703,-0.16611 c 1.60848,-0.25521 3.80352,-0.209759 5.37934,0.111371 2.46804,0.502959 4.1588,1.42349 6.232452,3.39325 3.136709,1.79497 4.899019,13.85398 5.84109,13.53137 6.842709,1.65273 11.684489,1.06208 18.160058,1.94868 2.269069,-1.4979 1.336101,-8.03288 4.21623,-11.98275 0.839261,-1.11561 2.7015,-2.92134 3.59478,-3.4857 0.588349,-0.37171 0.616919,-0.41865 0.617149,-1.013872 5.29e-4,-1.555347 -0.54555,-5.104878 -1.0282,-6.682459 -0.0369,-0.12064 0.148471,0.14351 0.411962,0.587002 0.611129,1.028628 1.3316,2.72905 1.86899,4.411099 0.371419,1.162579 0.45416,1.31241 0.693348,1.25559 2.216403,-0.52652 4.091363,-0.701442 4.199743,-0.391821 0.0325,0.0927 -0.0463,0.167989 -0.1758,0.167989 -0.32756,0 -3.156202,1.265512 -4.289912,1.919262 -2.924951,1.68668 -5.837651,6.44336 -7.21867,11.78867 -0.309491,1.19791 -0.415679,1.95649 -0.47213,3.37286 -0.123161,3.09028 0.442071,4.77893 2.182161,6.51923 1.08838,1.0885 2.626009,1.94094 4.097528,2.27164 1.355321,0.30457 3.682483,0.18623 5.061303,-0.25735 z M 95.479362,70.599539 c -1.09932,-0.295632 -1.826998,-0.654471 -3.25501,-1.605132 -1.47048,-0.97894 -1.951177,-1.476399 -2.07754,-2.149959 -0.221308,-1.179679 0.342892,-1.75868 2.338412,-2.399739 2.863238,-0.919832 6.927019,-1.43941 8.016926,-1.025022 0.50476,0.19191 0.79198,0.95573 0.67917,1.806151 -0.17809,1.342541 -1.561006,3.996489 -2.573768,4.939329 -0.729059,0.678712 -1.712058,0.815211 -3.12819,0.434372 z M 69.562673,57.742498 c -0.38495,-0.391099 -0.860769,-1.06494 -1.06763,-1.511911 -0.31627,-0.683358 -0.372899,-0.98058 -0.37129,-1.94867 0.0021,-1.37922 0.279191,-2.09075 1.19453,-3.06932 1.40185,-1.498689 4.708181,-2.497459 6.78978,-2.051039 1.03923,0.22288 1.12822,0.33278 0.736661,0.90978 -0.347491,0.512051 -0.30969,0.74068 0.218739,1.322991 0.746709,0.822859 0.94352,2.921508 0.3938,4.199358 -0.377208,0.876861 -0.58928,1.052711 -1.412121,1.170951 -1.114028,0.160081 -3.092018,0.71442 -4.329067,1.213239 -0.641311,0.258601 -1.231932,0.47018 -1.312492,0.47018 -0.0805,0 -0.45896,-0.3175 -0.84091,-0.705559 z m 27.58194,-4.54601 c -0.147831,-0.0579 -0.8939,-0.109461 -1.65794,-0.114649 l -1.38915,-0.009 -0.693909,-0.7151 c -0.864212,-0.89058 -1.81868,-2.65817 -1.926371,-3.56748 -0.064,-0.54008 -0.0241,-0.75801 0.207039,-1.13201 0.356992,-0.57762 0.358781,-0.72629 0.01011,-0.83697 -0.81326,-0.25812 0.595469,-0.79846 1.754489,-0.67296 0.9217,0.0998 1.77599,0.50541 2.53187,1.20211 1.106651,1.02002 1.546841,2.41172 1.474301,4.661129 -0.0396,1.228402 -0.0546,1.28551 -0.310399,1.185371 z"
       stroke-width="0.134392"
       fill-opacity="1"
       fill="#ffffff" />
  </g>
  <g
     inkscape:groupmode="layer"
     id="layer5"
     inkscape:label="Outline"
     style="display:inline">
    <path
       style="display:inline;fill:#000000;stroke:#000000;stroke-width:0.396875;stroke-miterlimit:4;stroke-dasharray:none;stroke-opacity:1"
       d="m 70.303309,116.1524 c -1.204576,5.9935 -3.997948,7.73246 -3.997948,7.73246 -1.916997,1.85259 -5.788558,2.87962 -9.034708,2.73182 -2.281613,-0.10383 -3.459377,-0.39687 -5.247274,-1.30543 -2.755841,-1.40041 -3.856858,-2.5786 -5.371001,-5.74751 l -1.127636,-2.36 -2.85142,-2.81304 c -3.691157,-3.64151 -4.060168,-4.38103 -3.894874,-7.80552 0.154553,-3.20196 1.43371,-5.91474 4.085041,-8.66334 0.822919,-0.853116 1.49622,-1.620394 1.49622,-1.705064 0,0 6.695621,-5.678279 8.580336,-7.798494 2.551881,-2.870745 1.848523,-5.653192 1.848523,-5.653192 l -0.114075,-0.937686 c -0.282143,-2.319179 -1.122115,-4.525835 -1.658591,-4.357215 -0.166245,0.05225 -0.450791,0.141028 -0.632326,0.197279 -0.259081,0.08028 -0.441351,-0.07554 -0.847552,-0.724575 -0.284619,-0.454768 -0.685233,-1.237499 -0.890254,-1.739404 -0.370196,-0.906258 -0.376989,-0.911819 -0.985198,-0.806309 -1.277916,0.221689 -1.238234,0.238834 -1.546115,-0.667974 -0.271919,-0.800895 -0.321397,-0.849155 -0.818186,-0.798071 -0.514913,0.05295 -0.537976,0.02455 -0.880245,-1.083589 -0.193316,-0.62588 -0.460682,-1.954583 -0.594149,-2.952675 -0.133468,-0.998094 -0.369139,-2.159953 -0.523714,-2.581913 -0.717725,-1.95925 -0.964705,-3.61966 -1.058935,-7.119087 l -0.093,-3.453587 -1.129303,-0.754354 C 40.509437,53.310974 38.39993,51.205582 36.692661,48.674001 34.410195,45.289505 33.810126,42.841109 34.660713,40.383267 l 0.359824,-1.039742 -0.658179,-0.681102 -0.658179,-0.681106 1.552586,-1.476489 c 0.853924,-0.812071 1.98093,-1.78337 2.504458,-2.158445 0.586953,-0.420513 0.92622,-0.779995 0.884969,-0.937686 -0.300494,-1.148661 -0.310267,-1.116072 0.435501,-1.452366 0.672119,-0.303084 0.706215,-0.353233 0.629468,-0.925812 l -0.08115,-0.605369 1.895998,-0.838287 c 1.042801,-0.461059 3.085157,-1.342401 4.53857,-1.958544 l 2.64257,-1.120255 1.960618,-0.0021 c 1.836545,-0.0019 2.023714,0.02987 2.957713,0.502652 0.619326,0.313502 1.297554,0.851474 1.790128,1.419936 2.091048,2.413203 2.485753,2.776742 3.643804,3.356091 1.767028,0.884009 2.037824,0.896008 3.62613,0.160668 0.749238,-0.346876 1.890815,-0.810458 2.536836,-1.030183 0.827503,-0.281455 1.415222,-0.624591 1.988951,-1.161249 0.921554,-0.862004 2.332537,-1.804179 3.319446,-2.216535 0.50218,-0.209818 7.675474,-1.630158 8.23299,-1.630158 0.05411,0 -0.122123,0.23016 -0.391631,0.511465 -0.269509,0.281307 -0.436581,0.511466 -0.371269,0.511466 0.06531,0 1.167576,-0.420911 2.44948,-0.935354 1.281905,-0.514446 2.365515,-0.900576 2.408023,-0.858068 0.04251,0.0425 -0.668573,1.006475 -1.580184,2.142148 -0.911608,1.135673 -1.605914,2.116381 -1.542905,2.179352 0.192829,0.19271 1.731838,0.05851 2.365577,-0.206297 0.901054,-0.376484 2.066491,-1.540148 3.367487,-3.362362 1.690635,-2.367953 2.498772,-3.064719 4.249307,-3.663692 1.981929,-0.678151 3.733483,-0.685036 5.17087,-0.02032 3.488509,1.613225 7.7033,6.089077 10.0551,10.677899 2.36185,4.608454 2.72812,7.705948 1.10723,9.363835 -2.00906,2.054919 -4.66035,1.460887 -8.007281,-1.794066 l -1.298634,-1.262951 -0.179244,0.706152 c -0.178295,0.702436 -0.173449,0.713911 0.92107,2.181252 1.369423,1.835882 2.520829,4.125843 2.967949,5.902811 0.18807,0.747404 0.41757,2.417361 0.51003,3.711014 l 0.16808,2.352096 1.05086,1.318394 c 1.27074,1.594272 3.24257,4.551526 3.89152,5.836337 0.93276,1.846706 1.2307,3.136699 1.31904,5.711361 0.045,1.312761 0.007,2.789617 -0.0832,3.281903 -0.0907,0.492284 -0.0607,0.895064 -0.0607,0.895064 -0.28768,1.595422 -0.92118,3.591541 -2.30496,5.572947 -1.38377,1.981406 -3.23015,2.352676 -5.446747,2.869228 0,0 -0.510392,1.701548 -1.19735,3.128343 0,0 3.780167,2.543079 5.314107,4.058066 3.03496,2.997511 5.3901,6.418566 5.3901,6.418566 l 1.32661,1.976167 c 3.87494,5.772278 5.6521,10.024388 5.67127,13.569398 0.0149,2.75096 -0.82322,4.84093 -3.36014,8.37902 -2.937,4.09603 -6.41394,7.81275 -8.23697,8.80497 -1.69457,0.92231 -4.760997,1.43499 -6.762889,1.13072 l 5.5e-5,-2e-5 c -2.444792,-0.3716 -7.790705,-2.47651 -9.172263,-8.96506 m 0.156458,-2.10386 c -0.1972,-0.79109 0,0 0,0 0,0 0.06744,-2.86671 0.448596,-4.29983 0.57463,-2.16061 1.411345,-4.19169 2.443932,-5.93257 0.955443,-1.61081 3.216459,-4.10129 4.498304,-4.95483 l 0.875482,-0.58295 -0.104438,-1.803474 c -0.05742,-0.991907 -0.251793,-2.522701 -0.431899,-3.401771 -0.180103,-0.879069 -0.30264,-1.62313 -0.272306,-1.653467 0.128342,-0.128338 1.352972,2.651217 1.857401,4.215775 0.42211,1.309231 0.60553,1.675031 0.802839,1.601136 0.744611,-0.278881 2.721068,-0.587407 3.479678,-0.543186 l 0.86777,0.05062 -1.02293,0.314253 c -2.910519,0.894153 -5.133199,2.534384 -6.918208,5.105344 -3.305001,4.76021 -5.00657,10.61696 -4.247475,14.61967 0.534681,2.81935 2.867295,5.23913 5.814455,6.03172 1.202354,0.32335 3.542648,0.32906 4.887748,0.0119 h -3e-5 c 0.58901,-0.13886 1.39457,-0.41505 1.79014,-0.61374 1.91259,-0.96071 7.86812,-7.95185 9.49786,-11.14947 1.14228,-2.24119 1.32599,-4.5035 0.58826,-7.24446 -1.79709,-6.67697 -11.13042,-18.939148 -16.576717,-21.77861 -0.30664,-0.159868 -0.525547,-0.297853 -0.660852,-0.417607 -0.135304,-0.119757 -0.187007,-0.221288 -0.159242,-0.308253 0.04491,-0.140651 0.357178,-0.967734 0.693935,-1.837962 0.978681,-2.529032 0.982277,-2.47531 -0.192614,-2.879294 -0.547709,-0.188328 -1.122711,-0.398519 -1.277782,-0.467094 -0.21063,-0.09314 -0.413028,0.06585 -0.800175,0.628543 -0.865253,1.257601 -2.325291,2.452285 -4.002212,3.27483 -2.930922,1.437642 -4.761601,1.615655 -8.00778,0.778665 -2.290431,-0.590564 -4.556539,-1.532382 -6.296709,-2.616984 -2.500383,-1.558419 -8.145055,-6.649445 -8.145055,-7.346161 0,-0.151421 0.03953,-0.275311 0.08785,-0.275311 0.04832,0 0.60454,0.375182 1.236041,0.833737 3.639011,2.642414 9.034146,5.362209 12.586289,6.345 1.686497,0.466611 4.260696,0.510925 5.819532,0.100191 2.583797,-0.680814 5.950192,-3.077853 8.282985,-5.897897 0.516265,-0.624101 0.63959,-0.700279 0.734261,-0.453572 0.06749,0.175877 -0.104279,0.793159 -0.422206,1.517276 -0.294793,0.671425 -0.535798,1.276105 -0.535565,1.343733 1.7e-4,0.06763 0.556638,0.29492 1.236464,0.505097 1.797411,0.555695 3.838342,0.542866 4.986772,-0.03135 0.79005,-0.395027 0.91157,-0.544751 1.66046,-2.04586 1.05593,-2.116582 1.50152,-3.858387 1.61626,-6.318038 0.0995,-2.131764 -0.18074,-4.075424 -0.79358,-5.505118 -0.49824,-1.162325 -1.94465,-3.409873 -3.56484,-5.539348 -0.81158,-1.066688 -1.575373,-2.076321 -1.697299,-2.243628 -0.136257,-0.186968 -0.282001,-1.247527 -0.378204,-2.752062 -0.18171,-2.841645 -0.600338,-4.664086 -1.461899,-6.36414 -1.325203,-2.614909 -4.18433,-5.844418 -8.509577,-9.611938 l -0.85136,-0.741578 1.193418,0.645135 c 1.656811,0.895631 3.519582,2.162021 4.369638,2.970659 0.393774,0.374588 0.750319,0.646703 0.79232,0.604702 0.173545,-0.173544 0.49214,-2.129981 0.367665,-2.257771 -0.3706,-0.38047 -1.044459,-2.040809 -1.344781,-3.313438 -0.185386,-0.785587 -0.410773,-2.464056 -0.500855,-3.729933 -0.099,-1.391322 -0.299967,-2.739871 -0.50811,-3.409769 l -0.344322,-1.108174 0.426595,0.511466 c 0.717137,0.859813 1.195662,1.963671 1.662907,3.835988 0.82647,3.311787 2.562009,6.201014 5.334047,8.87983 1.661357,1.605478 2.727247,2.249761 3.757527,2.271236 0.63628,0.01326 0.83273,-0.06401 1.1755,-0.462425 1.16291,-1.351682 -0.10595,-5.56821 -2.94762,-9.795192 -1.745447,-2.596344 -4.83136,-5.588389 -6.907891,-6.697769 -0.912905,-0.487718 -1.233467,-0.569961 -2.178583,-0.558926 -1.083629,0.01266 -2.720863,0.469941 -3.492341,0.975434 -0.1961,0.128489 -0.889005,0.990532 -1.53979,1.91565 -2.151712,3.05875 -3.838365,4.43227 -5.894632,4.800277 -0.41343,0.074 -1.957333,0.104175 -3.43089,0.06709 l -2.679199,-0.06744 0.601734,-0.788071 c 0.330955,-0.433435 0.526875,-0.813019 0.435378,-0.843519 -0.0915,-0.03051 -0.940373,0.332967 -1.886392,0.807703 -0.946019,0.474732 -1.720036,0.81163 -1.720036,0.748657 0,-0.06297 0.24003,-0.488547 0.533397,-0.945722 0.29337,-0.457177 0.489756,-0.874872 0.436414,-0.928215 -0.05334,-0.05334 -0.710586,0.325695 -1.460544,0.8423 -1.24514,0.857715 -1.348651,0.900079 -1.191912,0.487824 0.09441,-0.248307 0.365928,-0.706181 0.603387,-1.017503 0.237457,-0.311325 0.392008,-0.605773 0.343449,-0.654334 -0.130279,-0.130278 -1.530842,0.522464 -2.369919,1.104519 -0.401643,0.278611 -1.089576,0.853274 -1.528738,1.277028 -0.641533,0.619022 -1.127434,0.885706 -2.47208,1.356788 -0.920483,0.322479 -2.249354,0.855179 -2.953046,1.183781 -1.27262,0.594268 -1.284435,0.596184 -2.21635,0.359331 -2.414732,-0.613729 -4.397755,-1.928592 -5.881151,-3.899562 -0.804537,-1.068979 -1.16143,-1.392537 -1.918119,-1.738962 -0.815529,-0.373361 -1.100212,-0.415966 -2.318793,-0.347014 -1.31369,0.07434 -1.622889,0.179233 -5.693957,1.931783 -2.367657,1.019253 -4.304832,1.913729 -4.304832,1.987727 0,0.074 0.479499,0.139862 1.065553,0.146362 l 1.065552,0.01181 -1.61964,0.795021 -1.619641,0.795019 1.003478,0.0548 1.003477,0.0548 -1.429699,1.042251 c -2.418501,1.763089 -4.477273,3.707686 -3.518179,3.323068 0.117211,-0.047 0.624903,-0.249444 1.128206,-0.449869 l 0.915094,-0.364406 -0.388355,0.644739 c -0.928702,1.541805 -1.510961,2.807686 -1.617154,3.51582 -0.383367,2.556475 2.84207,7.550122 6.81552,10.551848 2.279017,1.721673 4.42754,2.529458 6.070909,2.28249 1.014686,-0.152486 3.349471,-1.479204 4.435361,-2.520347 1.701418,-1.631301 2.433913,-4.205706 2.066663,-7.263414 -0.25205,-2.098554 -1.156175,-6.080232 -2.162437,-9.523139 -0.428809,-1.467167 -0.749664,-2.697565 -0.713013,-2.734216 0.166551,-0.16655 3.180088,7.081174 3.918847,9.425039 1.312079,4.162845 1.830879,8.661331 1.235202,10.710386 -0.53113,1.827029 -2.47946,3.318793 -5.156932,3.948473 -1.66848,0.392388 -3.889859,0.255734 -5.331535,-0.327985 -0.836087,-0.338526 -1.136668,-0.395899 -1.247782,-0.238175 -0.0805,0.114276 -0.107101,1.363441 -0.05909,2.775918 0.0954,2.807254 0.524398,5.331679 1.220182,7.180211 0.249867,0.663836 0.420912,1.477863 0.420912,2.003186 0,0.898275 0.60118,3.638514 0.858467,3.912978 0.07737,0.08255 0.194227,-0.147619 0.259677,-0.511465 0.18439,-1.025081 0.367756,-1.264444 0.504931,-0.659128 0.249583,1.101359 0.838157,2.81065 0.967807,2.81065 0.07531,0 0.138106,-0.364419 0.139541,-0.809819 0.0013,-0.445402 0.05898,-0.897768 0.127867,-1.005256 0.181503,-0.283199 1.357715,1.129784 1.664657,1.999752 0.138339,0.392095 0.500686,1.143882 0.805214,1.670639 l 0.553689,0.957746 0.08525,-0.929763 0.08525,-0.929758 0.495904,0.588783 c 1.845909,2.191631 3.014003,7.670983 2.217839,10.403544 -0.796365,2.733264 -2.880348,5.195347 -8.339862,9.85299 -1.594066,1.359939 -3.39698,2.987905 -4.006476,3.617715 -2.543757,2.628496 -3.991677,6.373286 -3.454474,8.934416 0.313388,1.49409 0.7091,2.14326 2.079957,3.4122 3.438829,3.18317 4.684771,4.76508 5.727715,7.27218 0.871164,2.09417 2.06418,3.34579 4.171222,4.37619 1.901891,0.93006 3.128622,1.22351 5.114652,1.22351 3.981413,0 6.887991,-1.66305 8.431121,-4.82402 0.828573,-1.69727 1.116231,-2.9695 1.116231,-4.93681 0,-4.72148 -2.654958,-11.16987 -5.929784,-14.40236 -0.781533,-0.771451 -1.505304,-1.27266 -2.645107,-1.831763 -1.950615,-0.95683 -3.141864,-1.273427 -5.319916,-1.413848 -1.500989,-0.09678 -1.613131,-0.124606 -0.937686,-0.232731 2.218174,-0.355078 5.354335,-0.05696 7.371158,0.700662 3.226827,1.212172 6.752406,5.02714 8.415394,9.10613 1.160288,2.84597 0.796008,3.13576 1.322217,6.0541 l 0.179373,0.99481 M 95.250499,70.506261 c -1.73874,-0.552216 -4.508873,-2.328613 -4.944285,-3.170606 -0.833217,-1.611264 0.0617,-2.435977 3.623851,-3.339593 1.877534,-0.476275 5.187699,-0.847943 6.072915,-0.681873 0.67818,0.127225 1.12936,0.748339 1.12936,1.554696 0,0.950423 -1.421437,3.908685 -2.360058,4.911685 -0.905629,0.967744 -2.030086,1.199447 -3.521783,0.725691 z M 69.33689,57.596296 c -1.710233,-1.893021 -1.857846,-4.468726 -0.356611,-6.222578 0.591959,-0.691573 2.439769,-1.780906 3.424772,-2.018994 1.269992,-0.306977 2.575847,-0.40308 3.386946,-0.249258 1.073751,0.203633 1.282909,0.390163 0.905334,0.807379 -0.364412,0.402671 -0.365745,0.94825 -0.003,1.248392 0.778141,0.643938 1.126176,2.519923 0.731292,3.941828 -0.298086,1.073359 -0.758199,1.410586 -2.37628,1.741626 -0.796113,0.162875 -2.17707,0.556928 -3.06879,0.875675 -0.891721,0.318744 -1.708284,0.579559 -1.814584,0.579587 -0.1063,2.9e-5 -0.479361,-0.316617 -0.829028,-0.703657 z m 27.107027,-4.596208 c -0.375074,-0.08033 -1.039263,-0.103641 -1.475979,-0.05182 -0.732836,0.08698 -0.846532,0.04679 -1.4754,-0.521344 -0.861548,-0.778354 -2.078028,-3.072792 -2.078028,-3.919421 0,-0.340614 0.12519,-0.810363 0.278203,-1.043889 0.258507,-0.394532 0.257381,-0.447598 -0.0159,-0.749587 -0.283325,-0.31307 -0.269129,-0.332483 0.386783,-0.528999 0.958838,-0.287276 2.086169,-0.07453 3.042096,0.574123 1.113884,0.755822 1.705139,1.56472 2.012927,2.753889 0.268462,1.037219 0.366534,3.688177 0.135136,3.652697 -0.07033,-0.01077 -0.434747,-0.08533 -0.809822,-0.165657 z"
       id="path2557-0"
       sodipodi:nodetypes="csssscssscscsssssssssssscssscccssssscsscsssssssssssssssssssssscsssscsssscsccscsssssscccsscsssssscssssssssssssssssssssssssssscsssssssssscssssssscsssssssssssscssssssssssssssssssssscccccssscsssssssssssssssssssscssscccssssssssssssssssssscsssssssssssssssssssssssssssssss" />
  </g>
  <path
     style="fill:none;stroke:#000000;stroke-width:0.264583px;stroke-linecap:butt;stroke-linejoin:miter;stroke-opacity:1"
     d="m 69.600968,112.90693 0.176279,0.5876 c 0,0 -0.11752,-1.43962 -0.352558,-1.08706"
     id="path2695" />
</svg>
