<?xml version="1.0" encoding="UTF-8"?>
<svg version="1.1" xmlns="http://www.w3.org/2000/svg" width="421" height="450">
<path d="M0 0 C138.93 0 277.86 0 421 0 C421 148.5 421 297 421 450 C282.07 450 143.14 450 0 450 C0 301.5 0 153 0 0 Z " fill="#FEFEFD" transform="translate(0,0)"/>
<path d="M0 0 C0.94101563 0.39058594 1.88203125 0.78117187 2.8515625 1.18359375 C15.1580784 6.68258124 22.07079036 14.97054331 27.8203125 26.80078125 C28.93627359 29.82717904 29.27448754 31.81952486 29 35 C30.485 35.495 30.485 35.495 32 36 C33.40234375 37.4609375 33.40234375 37.4609375 34.9375 39.375 C38.16073458 43.18616363 41.63411155 46.57650802 45.3125 49.9375 C45.84029053 50.42202637 46.36808105 50.90655273 46.91186523 51.40576172 C49.7471571 53.99582572 49.7471571 53.99582572 53 56 C51.25 59.875 51.25 59.875 49 61 C44.63552826 61.81199474 41.26724648 61.76340149 37.40625 59.4375 C35.18958708 57.69784049 33.06637629 55.91493973 31 54 C29.35876246 56.83251977 29.35876246 56.83251977 29.25 60 C30.03286677 62.08764473 30.94747807 64.03529239 32 66 C28.77208445 68.1519437 27.71599191 68.20086443 24 68 C23.7215625 68.99 23.7215625 68.99 23.4375 70 C19.34246765 78.54615448 12.1569328 83.59235505 4 88 C3.19175781 88.43699219 2.38351563 88.87398438 1.55078125 89.32421875 C-8.76916731 93.94146418 -24.26226927 94.04960428 -34.84765625 90.03125 C-47.37948216 84.02689058 -56.37325954 75.90840459 -62 63 C-62 62.34 -62 61.68 -62 61 C-63.258125 61.061875 -64.51625 61.12375 -65.8125 61.1875 C-69.72231986 61.20826011 -69.72231986 61.20826011 -72 59.5 C-72.33 59.005 -72.66 58.51 -73 58 C-71.84726259 55.06575932 -71.15148132 54.09016745 -68.375 52.4375 C-65.43997941 49.42524202 -65.67176795 48.34557684 -65.6875 44.25 C-65.76772791 42.49873926 -65.86439136 40.74784467 -66 39 C-66.72445312 39.54269531 -67.44890625 40.08539063 -68.1953125 40.64453125 C-69.64550781 41.71767578 -69.64550781 41.71767578 -71.125 42.8125 C-72.07632813 43.52019531 -73.02765625 44.22789062 -74.0078125 44.95703125 C-79.3252185 48.58758391 -83.44700749 50.93614179 -90 50 C-92.50171146 48.56495233 -93.96419415 47.13511345 -96 45 C-96 44.01 -96 43.02 -96 42 C-95.07960938 41.53851563 -94.15921875 41.07703125 -93.2109375 40.6015625 C-80.34279693 34.02180868 -69.08279897 25.99978965 -58.109375 16.6171875 C-56 15 -56 15 -54 15 C-53.76023438 14.42121094 -53.52046875 13.84242188 -53.2734375 13.24609375 C-48.26564347 4.41332821 -37.27908096 0.42636032 -28.16015625 -2.61328125 C-19.00515945 -4.25224089 -8.44626934 -4.00969104 0 0 Z " fill="#AC9358" transform="translate(216,358)"/>
<path d="M0 0 C0.99 0.495 0.99 0.495 2 1 C1.05253906 1.86044922 1.05253906 1.86044922 0.0859375 2.73828125 C-25.46774143 27.00322998 -40.71894642 59.90320666 -48 94 C-48.17644043 94.79164551 -48.35288086 95.58329102 -48.53466797 96.39892578 C-54.18022359 122.6683843 -54.18849383 156.79241193 -43.5390625 181.73046875 C-42.54405348 185.91960093 -44.82583568 188.70260285 -46.91015625 192.26171875 C-47.62361458 193.4061427 -48.34114229 194.54803871 -49.0625 195.6875 C-51.66635416 199.76625468 -51.66635416 199.76625468 -54 204 C-54.66 204 -55.32 204 -56 204 C-71.70183169 153.17075037 -65.5087549 98.46419685 -41.25 51.3125 C-33.6844964 37.10407942 -24.30445509 24.43675691 -13 13 C-12.42443359 12.41605469 -11.84886719 11.83210938 -11.25585938 11.23046875 C-7.52965596 7.46061439 -3.7749841 3.72097002 0 0 Z " fill="#B69C60" transform="translate(171,14)"/>
<path d="M0 0 C4.60226227 2.08299067 7.60524268 5.26230106 11.125 8.8125 C11.79225098 9.48466553 12.45950195 10.15683105 13.14697266 10.84936523 C49.53074783 48.08855832 65.60460958 99.70364478 65.42407227 150.86791992 C65.07315734 169.12612983 61.80230368 186.71198861 56 204 C53.39877972 200.65440536 51.12459885 197.15272695 48.875 193.5625 C47.81925781 191.89380859 47.81925781 191.89380859 46.7421875 190.19140625 C44.54230526 186.16157713 43.56507532 183.77004231 44.671875 179.265625 C45.02765625 178.27046875 45.3834375 177.2753125 45.75 176.25 C47.48411367 170.96365347 48.7399118 165.7812288 49.6875 160.3125 C49.80641602 159.63670898 49.92533203 158.96091797 50.04785156 158.26464844 C57.75961739 112.14962226 46.55865706 63.00373131 19.92578125 24.62890625 C14.61687414 17.38165577 8.8750464 10.63298341 2.78515625 4.03125 C1 2 1 2 0 0 Z " fill="#B69D61" transform="translate(240,15)"/>
<path d="M0 0 C5.57967637 2.6965888 9.83396035 5.08212019 12.22851562 11.07421875 C13.13214271 14.19522078 13.97084994 17.32184828 14.74624634 20.4770813 C18.20283083 34.35765416 22.64931899 44.18990822 33.29296875 54.14453125 C35.97734842 58.63487803 35.58985089 62.99043741 35.5 68.125 C35.49009033 69.21651367 35.48018066 70.30802734 35.4699707 71.43261719 C35.0938143 88.55808092 32.01727926 105.38915125 28 122 C25 121 25 121 23 118 C22.8055431 115.50738231 22.7224471 113.11809697 22.7265625 110.625 C22.70920406 109.0830801 22.69101887 107.54116935 22.67211914 105.99926758 C22.66503937 105.18454987 22.65795959 104.36983215 22.65066528 103.53042603 C22.50526964 89.19538333 21.7678672 75.04827228 20.0625 60.8125 C19.97695862 60.0894165 19.89141724 59.36633301 19.80328369 58.62133789 C19.2580027 54.07234454 18.63588838 49.53732855 18 45 C17.90460938 44.06212646 17.80921875 43.12425293 17.7109375 42.15795898 C16.55653644 33.07978304 12.06592644 25.43010553 7.875 17.4375 C6.74314354 15.25147293 5.61538117 13.06343654 4.4914856 10.87330627 C3.79580054 9.52051647 3.09487107 8.17040788 2.38815308 6.823349 C0 2.22009908 0 2.22009908 0 0 Z " fill="#BA9F63" transform="translate(317,29)"/>
<path d="M0 0 C0.495 0.99 0.495 0.99 1 2 C-0.09014538 4.23800094 -1.23897051 6.35519026 -2.48046875 8.5078125 C-13.60049207 28.57928062 -18.84282494 45.03464496 -20 68 C-20.17891175 70.43244539 -20.35993236 72.8647365 -20.54296875 75.296875 C-20.91452889 80.8388929 -21.09873722 86.35842593 -21.17578125 91.91015625 C-21.18777557 92.6609697 -21.1997699 93.41178314 -21.21212769 94.18534851 C-21.26057972 97.26283492 -21.30838018 100.33988353 -21.32592773 103.41772461 C-21.3414169 105.70749997 -21.38152879 107.99577947 -21.42578125 110.28515625 C-21.42387283 110.972715 -21.42196442 111.66027374 -21.41999817 112.3686676 C-21.55014406 117.51310623 -22.93340103 120.06888314 -26 124 C-29.78502862 117.59586675 -30.56125545 109.22459707 -32 102 C-32.23203125 100.845 -32.4640625 99.69 -32.703125 98.5 C-33.33512078 94.6719113 -33.72071238 90.86612787 -34 87 C-34.0839502 85.92685547 -34.16790039 84.85371094 -34.25439453 83.74804688 C-36.02943521 57.8623264 -36.02943521 57.8623264 -28.75 49.5 C-26.90307521 47.56381072 -24.98837054 45.79953088 -23 44 C-18.21938605 39.28943168 -17.08785925 33.42316829 -15.375 27.125 C-15.0759375 26.06152344 -14.776875 24.99804688 -14.46875 23.90234375 C-12.89077664 18.39752322 -12.89077664 18.39752322 -11.52490234 12.83862305 C-10.47408289 8.23835529 -8.64439772 6.31705987 -4.875 3.5625 C-3.96492188 2.88316406 -3.05484375 2.20382813 -2.1171875 1.50390625 C-1.41851562 1.00761719 -0.71984375 0.51132812 0 0 Z " fill="#BA9F63" transform="translate(94,28)"/>
<path d="M0 0 C3.06321201 1.58630622 6.02086793 3.2631315 9 5 C9.61633301 5.33338379 10.23266602 5.66676758 10.86767578 6.01025391 C23.95397753 13.18722785 28.57849356 21.00672072 33 35 C33.55189008 36.6181443 34.1065441 38.23534876 34.6640625 39.8515625 C37.68555501 48.81730442 40.07106384 57.89376483 42.125 67.125 C42.90670413 70.5868326 43.77756376 74.00774034 44.6875 77.4375 C46.00157929 82.60097461 46.65920397 87.6882826 47 93 C44.09105088 91.55273771 42.32814092 90.61148801 40.76953125 87.70703125 C40.45371094 86.75183594 40.13789063 85.79664062 39.8125 84.8125 C39.39742188 83.64847656 38.98234375 82.48445313 38.5546875 81.28515625 C38.19648926 80.2799292 38.19648926 80.2799292 37.83105469 79.25439453 C29.98614082 57.97356767 20.02119752 37.4745631 9.5625 17.375 C8.97952148 16.24807739 8.97952148 16.24807739 8.38476562 15.09838867 C6.52530235 11.58379433 4.56809458 8.31031547 2.21484375 5.1015625 C0 2 0 2 0 0 Z " fill="#C0A469" transform="translate(265,22)"/>
<path d="M0 0 C0.66 0.33 1.32 0.66 2 1 C1.41734375 1.96035156 0.8346875 2.92070312 0.234375 3.91015625 C-15.20936816 29.61135863 -31.27714006 58.019602 -38.8359375 87.23046875 C-40.27424013 90.65247065 -41.81792073 91.26045053 -45 93 C-44.59157078 83.48639658 -42.6904296 74.55497403 -40.3125 65.375 C-40.13292755 64.67134308 -39.9533551 63.96768616 -39.76834106 63.2427063 C-36.9811187 52.33087243 -34.05753162 41.51705797 -30 31 C-29.74959961 30.32179199 -29.49919922 29.64358398 -29.24121094 28.94482422 C-25.53690511 19.09990129 -21.20320282 13.47638501 -12 8 C-10.3060819 6.88477113 -8.6279678 5.74810819 -6.94995117 4.60913086 C-4.64821899 3.05004792 -2.32428074 1.52518247 0 0 Z " fill="#BFA468" transform="translate(145,22)"/>
<path d="M0 0 C1.44894043 4.34682128 -0.43888266 7.45742833 -2 11.5625 C-9.23476855 31.40544206 -15.03608249 52.47996879 -17.73046875 73.47265625 C-17.85067383 74.3848291 -17.97087891 75.29700195 -18.09472656 76.23681641 C-18.31729542 77.99041802 -18.51967085 79.74674442 -18.69824219 81.50537109 C-18.7965332 82.29637207 -18.89482422 83.08737305 -18.99609375 83.90234375 C-19.10715454 84.94636353 -19.10715454 84.94636353 -19.22045898 86.01147461 C-20.37114032 88.94673909 -22.48790895 90.20255771 -25 92 C-25.58368569 74.59359486 -25.13077465 57.696414 -22.6875 40.4375 C-22.5807193 39.66305542 -22.4739386 38.88861084 -22.36392212 38.09069824 C-19.70330285 19.11072232 -19.70330285 19.11072232 -12.98828125 12.59765625 C-11.85229492 11.48100586 -11.85229492 11.48100586 -10.69335938 10.34179688 C-9.90767578 9.58962891 -9.12199219 8.83746094 -8.3125 8.0625 C-7.51521484 7.28326172 -6.71792969 6.50402344 -5.89648438 5.70117188 C-3.93978942 3.79134387 -1.97436381 1.89152783 0 0 Z " fill="#BEA368" transform="translate(108,39)"/>
<path d="M0 0 C5.77839927 5.50774825 12.86025213 12.76012019 14.6015625 20.765625 C14.41305064 23.69204721 13.8252347 26.18256875 13 29 C12.65147227 30.31096654 12.3038842 31.62218311 11.95703125 32.93359375 C10.75286944 37.32684379 9.38561264 41.66126315 8 46 C7.60128936 47.28767588 7.20284039 48.57543281 6.8046875 49.86328125 C3.82396815 59.21010651 0.06652373 68.08177361 -4 77 C-7.18268225 74.39598725 -8.23369113 72.02644369 -9 68 C-8.57536235 63.99660628 -7.68698442 60.11370339 -6.8125 56.1875 C-2.96087575 37.61716881 -0.75580894 18.94734816 0 0 Z " fill="#B79D61" transform="translate(359,99)"/>
<path d="M0 0 C2.34443451 3.51665176 2.4774512 6.27242891 2.74609375 10.3515625 C2.80273697 11.08386078 2.85938019 11.81615906 2.91773987 12.57064819 C3.15857564 15.68910284 3.37929394 18.80890439 3.60180664 21.92871094 C4.53789737 34.81615737 6.01638157 47.52027825 9.25 60.0625 C10.23862717 64.34932033 9.94846943 67.69540799 9 72 C7.44921875 74.23046875 7.44921875 74.23046875 6 76 C2.19373846 68.81758547 -0.84417301 61.5308048 -3.5625 53.875 C-3.95236084 52.78131104 -4.34222168 51.68762207 -4.74389648 50.56079102 C-13.57778613 25.36908346 -13.57778613 25.36908346 -12 17 C-10.51832668 13.92714917 -8.60865538 11.28310064 -6.5625 8.5625 C-6.04623047 7.84384766 -5.52996094 7.12519531 -4.99804688 6.38476562 C-1.38974809 1.38974809 -1.38974809 1.38974809 0 0 Z " fill="#B79D61" transform="translate(51,100)"/>
<path d="M0 0 C0.13986328 0.53141602 0.27972656 1.06283203 0.42382812 1.61035156 C8.61529591 32.99651172 8.61529591 32.99651172 25.8046875 60.0546875 C28 63 28 63 28.12109375 66.140625 C27.89550781 67.16671875 27.66992188 68.1928125 27.4375 69.25 C27.22996094 70.28640625 27.02242187 71.3228125 26.80859375 72.390625 C26 75 26 75 24 77 C18.41669414 69.60050383 13.44062105 62.02826796 8.8125 54 C8.22275391 52.99710938 7.63300781 51.99421875 7.02539062 50.9609375 C-0.751909 37.56910232 -9.59263325 22.01332303 -7 6 C-5.49020503 2.93026926 -3.7431122 0 0 0 Z " fill="#B59B60" transform="translate(28,117)"/>
<path d="M0 0 C2.90032195 1.45016098 2.90118544 3.19971562 3.9375 6.25 C11.06426875 25.35311388 21.56401068 42.56401068 36 57 C35.90913549 59.53541298 35.7629055 62.03554784 35.5625 64.5625 C35.48418945 65.62887695 35.48418945 65.62887695 35.40429688 66.71679688 C35.27425893 68.47821999 35.13773103 70.23916173 35 72 C29.55561709 67.95161271 25.53953506 63.06663014 21.3671875 57.74267578 C20.40065287 56.51068932 19.4287664 55.28289267 18.453125 54.05810547 C-4.72372223 24.92839539 -4.72372223 24.92839539 -5.4375 9.625 C-4.98736698 5.89532644 -4.30933447 3.93107837 -2 1 C-1.34 0.67 -0.68 0.34 0 0 Z " fill="#B2995E" transform="translate(17,140)"/>
<path d="M0 0 C2.50696229 0.95091673 3.94401245 1.93801378 5.75 3.9375 C9.72593214 13.67853374 5.81283501 23.50410581 2.00537109 32.69677734 C-4.60186935 47.83342288 -13.50994626 66.92789922 -26 78 C-26.36590746 76.27327966 -26.71722195 74.54346345 -27.0625 72.8125 C-27.25972656 71.84957031 -27.45695312 70.88664062 -27.66015625 69.89453125 C-28.35889891 63.94317136 -26.24682273 60.5105281 -22.9375 55.75 C-11.83650611 39.02201939 -4.54678069 19.49604449 0 0 Z " fill="#B59B60" transform="translate(384,117)"/>
<path d="M0 0 C2.62083849 3.27805181 4.5600805 6.75455307 6.5625 10.4375 C14.44362177 24.52984178 26.05347817 40.8935244 39.68359375 49.7421875 C42 52 42 52 42.48828125 55.453125 C42.40126953 57.33257812 42.40126953 57.33257812 42.3125 59.25 C42.26738281 60.51328125 42.22226562 61.7765625 42.17578125 63.078125 C42.08876953 64.52445313 42.08876953 64.52445313 42 66 C36.17878864 61.829318 30.87449087 57.30726458 25.6875 52.375 C24.94765869 51.6727832 24.20781738 50.97056641 23.44555664 50.24707031 C-2.61408357 25.3137967 -2.61408357 25.3137967 -4.3359375 12.5 C-4.44232602 5.69113441 -4.44232602 5.69113441 -2 1.875 C-1.34 1.25625 -0.68 0.6375 0 0 Z " fill="#B0985D" transform="translate(10,163)"/>
<path d="M0 0 C4.77242823 3.79624973 9.05170528 7.96373908 13.25 12.375 C13.76916992 12.90375732 14.28833984 13.43251465 14.82324219 13.97729492 C21.2792425 20.87842829 22.59636936 28.91340931 24 38 C24.17313721 39.11632812 24.34627441 40.23265625 24.5246582 41.3828125 C26.05902532 52.29639913 26.23637169 62.9931146 26.125 74 C26.11493498 75.75780731 26.10581545 77.51562031 26.09765625 79.2734375 C26.07595647 83.51576925 26.04162768 87.75781894 26 92 C23.24643859 90.36837659 22.15078527 89.48336807 21.18212891 86.37817383 C21.03179199 85.33169678 20.88145508 84.28521973 20.7265625 83.20703125 C20.54488525 82.03132568 20.36320801 80.85562012 20.17602539 79.64428711 C19.99418701 78.37979736 19.81234863 77.11530762 19.625 75.8125 C19.20613866 73.16266469 18.7825459 70.514362 18.34765625 67.8671875 C18.23878586 67.20059616 18.12991547 66.53400482 18.01774597 65.84721375 C14.54603991 45.03206001 8.27198233 24.30561313 0.8828125 4.5546875 C0 2 0 2 0 0 Z " fill="#BEA367" transform="translate(302,38)"/>
<path d="M0 0 C3 1 3 1 5 4 C5.77952305 11.66531003 3.8422494 16.42837499 -0.91796875 22.41015625 C-11.17641547 34.15743948 -23.25524174 43.15765315 -36 52 C-36.82226074 52.57057129 -37.64452148 53.14114258 -38.49169922 53.72900391 C-39.29752441 54.27862793 -40.10334961 54.82825195 -40.93359375 55.39453125 C-42.03078735 56.14440308 -42.03078735 56.14440308 -43.15014648 56.90942383 C-45 58 -45 58 -47 58 C-47.74141795 53.26103991 -47.62068273 49.5408318 -46 45 C-41.86166088 40.6041046 -36.30790405 37.69457201 -31.23730469 34.50146484 C-19.11886719 26.36872907 -6.5214112 13.04282239 0 0 Z " fill="#AF965C" transform="translate(405,187)"/>
<path d="M0 0 C3.89072074 3.16686572 7.46144802 6.43484236 11 10 C20.65051843 19.475344 31.09250888 27.22498945 43.29785156 33.08642578 C51.40723961 37.01533192 51.40723961 37.01533192 53.41796875 40.35546875 C54.37116661 44.27701431 54.00733017 47.14192546 53 51 C3.06854968 25.89553102 3.06854968 25.89553102 -3 11 C-3.46846543 7.05150565 -3.59455264 4.96614804 -1.5 1.5625 C-1.005 1.046875 -0.51 0.53125 0 0 Z " fill="#AD955B" transform="translate(3,211)"/>
<path d="M0 0 C4.9296875 4.5390625 4.9296875 4.5390625 5.5625 8.6875 C3.92942115 30.03701864 -21.04136706 49.40879229 -36.08203125 62.69140625 C-39 65 -39 65 -41 65 C-41.60649725 60.20193286 -41.82454149 55.78130347 -41 51 C-38.8941287 48.37995631 -36.70062689 46.88376972 -33.91015625 45.01953125 C-18.92153542 34.61803196 -8.47779477 15.7337897 0 0 Z " fill="#B0975B" transform="translate(401,163)"/>
<path d="M0 0 C2.46800047 1.15173355 4.04783565 2.04783565 6 4 C8.31959442 18.77215395 0.46865168 30.87545168 -7.76855469 42.32080078 C-10.71107631 46.33322419 -13.79623036 50.19406198 -17 54 C-17.92200811 55.10796216 -18.84387401 56.21604268 -19.765625 57.32421875 C-20.73880842 58.48762782 -21.71276153 59.6503935 -22.6875 60.8125 C-23.13923584 61.35213379 -23.59097168 61.89176758 -24.05639648 62.44775391 C-26.89679683 65.8036903 -29.85550689 68.93482744 -33 72 C-35.48378728 59.39392894 -35.48378728 59.39392894 -32.19140625 54.08203125 C-29.99439759 51.81647318 -27.73021674 49.6483382 -25.43603516 47.48242188 C-13.17197404 34.82220781 -5.67444447 16.35701607 0 0 Z " fill="#B2995D" transform="translate(393,140)"/>
<path d="M0 0 C2.6121099 2.52748431 4.90102715 5.08118244 7.0625 8 C16.97816617 20.87556652 28.36247838 32.76873012 42.4934082 40.95776367 C46.77408989 43.51266553 46.77408989 43.51266553 47.89453125 45.9296875 C48.09989169 49.96083691 48.0530858 53.96547953 48 58 C41.51000696 54.59620475 35.56417011 50.74700085 29.6875 46.375 C28.44746216 45.45521362 28.44746216 45.45521362 27.18237305 44.5168457 C0.93218508 24.79655524 0.93218508 24.79655524 -3 13 C-3.53071706 8.67844683 -3.73465237 5.25503114 -1.5 1.4375 C-0.7575 0.7259375 -0.7575 0.7259375 0 0 Z " fill="#AE965B" transform="translate(5,187)"/>
<path d="M0 0 C3.04837824 2.01697207 6.07077715 4.04989654 9.05859375 6.15625 C16.64252239 11.45740592 24.48574189 16.0278809 32.6875 20.3125 C33.67967529 20.83191162 34.67185059 21.35132324 35.6940918 21.88647461 C40.810373 24.51566875 45.80193341 26.73544486 51.25 28.5625 C54.70101233 29.86666164 55.69732018 30.39807991 57.375 33.734375 C58.1640553 36.51015882 58.69880516 39.13362909 59 42 C40.7181873 40.03454915 12.87021333 28.12241927 0.40625 14.22265625 C-1.7518903 11.00731885 -2.19185418 8.36529915 -1.8125 4.625 C-1 1 -1 1 0 0 Z " fill="#AA9459" transform="translate(3,235)"/>
<path d="M0 0 C1.94680798 1.62757334 2.90320257 2.66182949 3.609375 5.12890625 C3.94508401 10.93853726 2.82491295 13.87252136 -1.0625 18.25 C-2.66227506 19.8798563 -4.31350556 21.46004926 -6 23 C-6.52158691 23.47727539 -7.04317383 23.95455078 -7.58056641 24.44628906 C-11.85164949 28.24361927 -16.35481684 31.31484796 -21.25 34.25 C-22.01707275 34.7138208 -22.78414551 35.1776416 -23.57446289 35.65551758 C-29.44213818 39.16116721 -35.4038492 42.47682703 -41.4375 45.6875 C-42.24799805 46.1215918 -43.05849609 46.55568359 -43.89355469 47.00292969 C-45.02712402 47.59509277 -45.02712402 47.59509277 -46.18359375 48.19921875 C-46.84931396 48.54815186 -47.51503418 48.89708496 -48.20092773 49.2565918 C-50 50 -50 50 -53 50 C-53.2315479 45.25326811 -52.88975315 41.39089703 -51 37 C-47.04423275 33.58103063 -41.8258737 31.88378521 -37.04931641 29.90625 C-22.87911018 23.63989242 -10.59601783 11.0265558 0 0 Z " fill="#AC945A" transform="translate(408,211)"/>
<path d="M0 0 C0.99 0.66 1.98 1.32 3 2 C3.55768569 7.66980451 3.16604428 10.20612683 0 15 C-5.75661909 21.26482062 -12.32590218 25.1377749 -20 28.625 C-20.99950684 29.09156006 -21.99901367 29.55812012 -23.02880859 30.03881836 C-30.4108102 33.42562552 -37.88601615 36.35092556 -45.6015625 38.87890625 C-48.92457408 39.92796701 -48.92457408 39.92796701 -51.7734375 41.15234375 C-54 42 -54 42 -57 42 C-56.69595322 40.32774271 -56.35371498 38.66246041 -56 37 C-55.79890625 35.84113281 -55.5978125 34.68226563 -55.390625 33.48828125 C-54 30 -54 30 -51.0078125 28.390625 C-49.72014795 27.98861084 -48.42505266 27.60994229 -47.125 27.25 C-30.27569533 21.76679698 -13.24849352 11.77643869 0 0 Z " fill="#AA9358" transform="translate(407,235)"/>
<path d="M0 0 C1.20269531 0.72703125 1.20269531 0.72703125 2.4296875 1.46875 C17.55493528 10.38612964 33.76055125 18.18603407 51.16308594 21.39941406 C54.6485023 22.08441837 56.59556868 22.50120137 58.875 25.3125 C59.24625 26.199375 59.6175 27.08625 60 28 C60.5878125 29.3303125 60.5878125 29.3303125 61.1875 30.6875 C62 33 62 33 62 35 C10.94494336 25.25548158 10.94494336 25.25548158 0.3203125 13.07421875 C-1.82543999 9.70322889 -1.81054581 6.97853802 -2 3 C-1.34 2.01 -0.68 1.02 0 0 Z " fill="#A99258" transform="translate(7,258)"/>
<path d="M0 0 C2.45756211 3.68634316 2.39527754 5.39709733 1.7734375 9.66015625 C-0.0493468 15.17453907 -4.88088891 17.77233448 -9.68359375 20.5546875 C-24.31182005 27.89733425 -44.5671778 34.44082086 -61 34 C-59.68382593 29.74774533 -58.42356683 25.74736383 -56 22 C-52.91015625 21.0390625 -52.91015625 21.0390625 -49.0625 20.625 C-34.12194169 18.48130236 -10.87483542 10.87483542 0 0 Z " fill="#A99358" transform="translate(404,258)"/>
<path d="M0 0 C0.76739502 0.33209473 0.76739502 0.33209473 1.55029297 0.67089844 C18.35343659 7.86529408 34.22813258 11.91724427 52.40234375 13.60546875 C56 14 56 14 59 15 C60.60546875 17.50390625 60.60546875 17.50390625 62.1875 20.5625 C62.98220703 22.08037109 62.98220703 22.08037109 63.79296875 23.62890625 C64.19128906 24.41136719 64.58960937 25.19382812 65 26 C15.52584187 24.79478299 15.52584187 24.79478299 1 12 C-1.04293262 8.30326478 -1.28554203 5.18794982 -1 1 C-0.67 0.67 -0.34 0.34 0 0 Z " fill="#A79157" transform="translate(13,281)"/>
<path d="M0 0 C0.47028692 4.70286916 0.52937714 8.01687103 -1.75 12.25 C-14.77973501 25.24384043 -44.77322714 26.02949496 -62.10546875 26.046875 C-63.06066406 26.03140625 -64.01585937 26.0159375 -65 26 C-63.48162095 21.89839343 -61.78588902 18.39223706 -59 15 C-54.80210373 13.17720977 -50.66014168 12.93144951 -46.125 12.625 C-43.68777876 12.36488459 -41.25154063 12.09538281 -38.81640625 11.81640625 C-37.64223145 11.6889502 -36.46805664 11.56149414 -35.25830078 11.43017578 C-23.45669883 9.87207428 -11.17362318 0 0 0 Z " fill="#A79157" transform="translate(399,281)"/>
<path d="M0 0 C0.29247353 4.97204999 0.32606689 8.15423516 -3 12 C-10.90810991 17.34632783 -20.10345209 18.31313083 -29.41796875 18.23046875 C-30.27884598 18.23001053 -31.13972321 18.22955231 -32.02668762 18.2290802 C-33.83087559 18.22608173 -35.63506154 18.21826856 -37.43920898 18.20581055 C-40.19068626 18.18747877 -42.94182716 18.18530184 -45.69335938 18.18554688 C-47.45573206 18.18063308 -49.21810248 18.17480536 -50.98046875 18.16796875 C-51.79621872 18.16685593 -52.61196869 18.1657431 -53.45243835 18.16459656 C-57.74265596 18.12911105 -61.77470204 17.84895505 -66 17 C-64.6772113 14.99301025 -63.34216975 12.99408077 -62 11 C-61.5867749 10.28263672 -61.1735498 9.56527344 -60.74780273 8.82617188 C-59 7 -59 7 -56.22290039 6.51757812 C-55.10906982 6.52208984 -53.99523926 6.52660156 -52.84765625 6.53125 C-51.60508057 6.519729 -50.36250488 6.50820801 -49.08227539 6.49633789 C-48.09736618 6.49804489 -48.09736618 6.49804489 -47.09255981 6.49978638 C-32.63009524 6.50130826 -19.00304895 4.93373535 -5.08984375 0.87109375 C-2 0 -2 0 0 0 Z " fill="#A69056" transform="translate(390,303)"/>
<path d="M0 0 C0.8971875 0.26554687 1.794375 0.53109375 2.71875 0.8046875 C14.99015992 4.27820642 27.10437458 5.82968268 39.8125 6.625 C40.52567383 6.67100342 41.23884766 6.71700684 41.97363281 6.7644043 C46.09051117 6.99646915 50.02375603 6.84784833 54.125 6.5 C57.57103283 6.42108322 58.60145428 6.64768279 61.22265625 8.96484375 C66 14.97688867 66 14.97688867 66 17 C61.15879658 17.95934106 56.44155474 18.16079191 51.5234375 18.16796875 C50.71693756 18.17129715 49.91043762 18.17462555 49.07949829 18.17805481 C47.37673509 18.18309974 45.67396207 18.18546389 43.97119141 18.18530273 C41.40379921 18.18747563 38.83684682 18.20561962 36.26953125 18.22460938 C10.46681062 18.31619277 10.46681062 18.31619277 2 11 C-0.67927341 6.98108988 -0.15601248 4.75838077 0 0 Z " fill="#A69056" transform="translate(22,303)"/>
<path d="M0 0 C2.54479065 0.19147697 4.98184984 0.4946487 7.5 0.875 C24.11897212 3.05456548 41.33902236 2.69639045 58 1 C58.1875 6.6640625 58.1875 6.6640625 56.5 9.6875 C51.14786535 14.63822455 44.69563259 15.53136235 37.6875 15.4375 C36.89496826 15.43282715 36.10243652 15.4281543 35.28588867 15.42333984 C20.84971655 15.08662814 5.93509516 12.77727854 -8 9 C-7.04270084 7.87411986 -6.08412105 6.7493285 -5.125 5.625 C-4.59132813 4.99851562 -4.05765625 4.37203125 -3.5078125 3.7265625 C-2.38567993 2.44163349 -1.20628025 1.20628025 0 0 Z " fill="#A38E54" transform="translate(320,323)"/>
<path d="M0 0 C1.703125 1.7265625 1.703125 1.7265625 3.25 3.625 C4.03117187 4.57246094 4.03117187 4.57246094 4.828125 5.5390625 C5.40820312 6.26222656 5.40820312 6.26222656 6 7 C-8.33360291 11.46918518 -23.71264401 13.36709293 -38.6875 13.4375 C-39.63625 13.4473291 -40.585 13.4571582 -41.5625 13.46728516 C-47.95216828 13.38752989 -52.13451905 12.16847207 -57.3125 8.25 C-59.54721864 5.27037514 -59.57156238 2.64808269 -60 -1 C-59.24203125 -0.9278125 -58.4840625 -0.855625 -57.703125 -0.78125 C-48.76270207 -0.05307076 -39.84404984 0.14003215 -30.875 0.1875 C-29.7087207 0.20039063 -28.54244141 0.21328125 -27.34082031 0.2265625 C-20.27578943 0.23450743 -13.67957445 -0.37683435 -6.74658203 -1.7644043 C-3.71010739 -2.02486634 -2.50106657 -1.67124064 0 0 Z " fill="#A38D53" transform="translate(93,325)"/>
<path d="M0 0 C0.88558594 0.20882813 1.77117187 0.41765625 2.68359375 0.6328125 C4.53199317 1.11990805 6.37844657 1.61446176 8.22265625 2.1171875 C22.38589047 5.89664752 36.91585292 6.681386 51.5 7.375 C50.87279668 12.9050976 50.87279668 12.9050976 49.1953125 15.01953125 C42.57391361 19.94440256 36.5619568 20.36379706 28.5 19.375 C14.2373107 16.6015478 0.28271842 11.91027024 -13.5 7.375 C-5.08695652 -1.27173913 -5.08695652 -1.27173913 0 0 Z " fill="#A28D54" transform="translate(312.5,335.625)"/>
<path d="M0 0 C2.78147134 1.86120759 5.40205844 3.89199283 8 6 C2.68995029 8.87426164 -3.17183306 10.24354395 -8.9375 11.9375 C-10.09830078 12.28490234 -11.25910156 12.63230469 -12.45507812 12.99023438 C-41.0481087 21.4392601 -41.0481087 21.4392601 -51.5625 17.75 C-54.04878127 15.96497755 -55.56825851 14.70440058 -57 12 C-57.04449452 10.33392737 -57.04948313 8.66593193 -57 7 C-56.00484375 6.96261719 -55.0096875 6.92523438 -53.984375 6.88671875 C-39.32949521 6.23618073 -12.70019134 -4.23339711 0 0 Z " fill="#A28C53" transform="translate(105,336)"/>
<path d="M0 0 C3.4462715 1.39176349 6.2324361 3.15709722 9.25 5.3125 C-4.31289803 14.35443202 -28.77025924 27.35414648 -45.75 24.3125 C-49.97464177 22.60466609 -51.80609069 20.40494066 -53.75 16.3125 C-53.75 15.3225 -53.75 14.3325 -53.75 13.3125 C-52.84121094 13.21453125 -51.93242188 13.1165625 -50.99609375 13.015625 C-37.45454374 11.40452777 -11.77848243 -2.94462061 0 0 Z " fill="#A18C53" transform="translate(117.75,345.6875)"/>
<path d="M0 0 C1.68153683 0.69418708 3.34716883 1.42749281 5 2.1875 C17.26337584 7.4020875 30.46650516 11.07961735 43.69921875 12.67578125 C46 13 46 13 48 14 C47.52153935 18.30614589 46.34073619 20.24880549 43 23 C25.20676779 28.9310774 1.63858437 13.39858815 -14 6 C-6.43507075 -1.72486433 -6.43507075 -1.72486433 0 0 Z " fill="#A18B52" transform="translate(299,346)"/>
<path d="M0 0 C2.75418237 1.34779137 5.36348786 2.77196273 7.9375 4.4375 C5.27671563 7.24753679 2.6605064 9.42238091 -0.625 11.4609375 C-1.49882324 12.00451904 -2.37264648 12.54810059 -3.27294922 13.1081543 C-4.19350098 13.67058838 -5.11405273 14.23302246 -6.0625 14.8125 C-7.00496582 15.39104736 -7.94743164 15.96959473 -8.91845703 16.56567383 C-31.91350983 30.55449571 -31.91350983 30.55449571 -43.81640625 29.05078125 C-46.0625 28.4375 -46.0625 28.4375 -48.6875 26.0625 C-50.0625 23.4375 -50.0625 23.4375 -50.0625 20.4375 C-49.38896484 20.20675781 -48.71542969 19.97601563 -48.02148438 19.73828125 C-26.0168105 12.39414169 -26.0168105 12.39414169 -5.828125 1.171875 C-3.0625 -0.5625 -3.0625 -0.5625 0 0 Z " fill="#A08B52" transform="translate(133.0625,353.5625)"/>
<path d="M0 0 C1.31717628 0.76842212 2.63763995 1.53123041 3.9609375 2.2890625 C4.99299316 2.88702637 4.99299316 2.88702637 6.04589844 3.49707031 C17.43266895 9.82651548 29.69482908 14.14734257 42.1875 17.6875 C41.01492794 21.02482048 40.04088246 23.51153928 37.1875 25.6875 C29.81519545 28.06955341 22.90754817 26.03643868 16.21240234 22.70458984 C6.76698053 17.78310627 -2.30345418 12.26860873 -11.1875 6.40234375 C-13.65709028 4.71738314 -13.65709028 4.71738314 -15.8125 3.6875 C-14.78008544 0.36083087 -13.72435242 -0.36386501 -10.6484375 -2.15625 C-6.33436891 -3.89060165 -3.72541062 -2.38223884 0 0 Z " fill="#9F8A50" transform="translate(286.8125,356.3125)"/>
<path d="M0 0 C0.84304688 0.56460937 1.68609375 1.12921875 2.5546875 1.7109375 C12.32830476 8.21716196 22.1859582 14.2838455 32.6875 19.5625 C33.53650879 19.99191895 34.38551758 20.42133789 35.26025391 20.86376953 C36.0651123 21.26063965 36.8699707 21.65750977 37.69921875 22.06640625 C38.40908936 22.41646729 39.11895996 22.76652832 39.8503418 23.12719727 C42.21286201 24.08642609 44.4909421 24.57363312 47 25 C45.71698902 28.95595052 44.5356713 30.80587774 41 33 C33.59654084 34.73015622 27.14703408 32.04107559 20.88134766 28.22558594 C14.45164374 24.03701682 8.35024116 19.35722497 2.24804688 14.7109375 C-1.15386319 12.12182089 -4.5774026 9.56166988 -8 7 C-5.42215154 4.35247996 -3.08351902 2.05567935 0 0 Z " fill="#9F8950" transform="translate(265,363)"/>
<path d="M0 0 C3.81684226 1.55500981 6.19195732 4.03595495 9 7 C-23.67839623 33.97705901 -23.67839623 33.97705901 -37.7578125 33.47265625 C-41.41768899 32.70114918 -42.79583354 30.93888862 -45 28 C-44.505 26.515 -44.505 26.515 -44 25 C-41.32505431 23.6700495 -38.69678901 22.50174731 -35.9375 21.375 C-22.86830855 15.79032155 -10.72181114 9.4589055 0 0 Z " fill="#9E8950" transform="translate(145,363)"/>
<path d="M0 0 C2.56250302 1.73762109 4.79885092 3.70761357 7.11328125 5.765625 C17.0624985 14.34556665 28.63607389 20.95937466 40.05078125 27.390625 C38.24665482 30.65523473 37.21683432 32.27992295 34.05078125 34.390625 C25.86592482 35.35354929 20.59395333 31.72998196 14.36328125 26.890625 C9.64276136 23.0018505 5.14750134 18.87913697 0.69262695 14.69140625 C-1.9166863 12.24056651 -4.54415204 9.89004423 -7.33984375 7.65234375 C-8.2009375 6.90597656 -9.06203125 6.15960938 -9.94921875 5.390625 C-9.94921875 4.730625 -9.94921875 4.070625 -9.94921875 3.390625 C-8.71037556 2.66295497 -7.45753534 1.95907685 -6.19921875 1.265625 C-5.503125 0.87117188 -4.80703125 0.47671875 -4.08984375 0.0703125 C-1.94921875 -0.609375 -1.94921875 -0.609375 0 0 Z " fill="#9E8950" transform="translate(251.94921875,373.609375)"/>
<path d="M0 0 C1.52874558 2.29311837 2.61099865 4.21215509 3.69921875 6.6953125 C7.37856691 14.91339145 10.99387868 22.1930625 17 29 C17.60070312 29.804375 18.20140625 30.60875 18.8203125 31.4375 C21.32378319 34.38064834 24.01007723 36.46929488 27.125 38.75 C28.70667969 39.91789062 28.70667969 39.91789062 30.3203125 41.109375 C32.81563461 42.97040715 32.81563461 42.97040715 35 44 C35.40729228 46.32156597 35.74438677 48.6568787 36 51 C22.0048781 44.66337809 7.71013891 36.06520837 -1 23 C-1.24291992 20.97875977 -1.24291992 20.97875977 -1.23046875 18.69140625 C-1.22853516 17.86189453 -1.22660156 17.03238281 -1.22460938 16.17773438 C-1.21236328 15.31470703 -1.20011719 14.45167969 -1.1875 13.5625 C-1.18685547 12.70333984 -1.18621094 11.84417969 -1.18554688 10.95898438 C-1.15874499 7.12035953 -1.05490496 3.71189752 0 0 Z " fill="#AE975E" transform="translate(65,208)"/>
<path d="M0 0 C0.33 0 0.66 0 1 0 C1.42067617 3.32784897 1.71755987 6.65779185 2 10 C2.12632812 11.05832031 2.25265625 12.11664063 2.3828125 13.20703125 C2.84047903 19.42981974 2.51502379 23.29497224 -1.625 28.125 C-3.36519756 29.80500205 -5.16314389 31.42626112 -7 33 C-7.53560547 33.46180664 -8.07121094 33.92361328 -8.62304688 34.39941406 C-26.94088349 50 -26.94088349 50 -35 50 C-34.7524336 46.28123666 -34.5678188 44.52490806 -31.77734375 41.9453125 C-30.84019531 41.34460938 -29.90304687 40.74390625 -28.9375 40.125 C-14.25903543 30.04894432 -6.31630907 16.29855439 0 0 Z " fill="#AE975E" transform="translate(346,208)"/>
<path d="M0 0 C0.66 0 1.32 0 2 0 C2.8454215 2.68421327 3.67647233 5.37156768 4.5 8.0625 C4.73847656 8.81466797 4.97695313 9.56683594 5.22265625 10.34179688 C7.69299801 18.49392467 7.527635 24.16738459 3.5625 31.6875 C3.20559082 32.38157959 2.84868164 33.07565918 2.48095703 33.79077148 C-2.4534321 43.09974812 -9.0306927 51.13719176 -16 59 C-16.66 58.67 -17.32 58.34 -18 58 C-18.32704833 53.34122997 -17.8922796 51.22268769 -14.9375 47.625 C-4.58399267 33.65931567 -0.81254441 17.11947023 0 0 Z " fill="#B19A60" transform="translate(337,173)"/>
<path d="M0 0 C0.33 0 0.66 0 1 0 C1.23783203 1.90458984 1.23783203 1.90458984 1.48046875 3.84765625 C3.6190105 20.01850405 6.92493672 38.92493672 19 51 C19.26991906 53.68839385 19.08737357 56.29141936 19 59 C7.86799936 50.77199953 -3.27587645 34.8745258 -5.6875 21.0625 C-5.01455725 14.37696005 -3.0201918 6.04038361 0 0 Z " fill="#B1995E" transform="translate(73,173)"/>
<path d="M0 0 C6.0625062 5.7820771 11.41387014 14.35980525 12.46875 22.7109375 C12.24626436 26.24687005 11.7423808 29.53689388 11 33 C10.68869141 34.65322266 10.68869141 34.65322266 10.37109375 36.33984375 C8.39547161 45.83411927 5.73129177 55.48367481 1 64 C-0.625 62.5625 -0.625 62.5625 -2 60 C-1.71681894 56.91018001 -0.82426785 53.98441807 0 51 C4.33620065 33.71627063 2.62368015 17.41569417 0 0 Z " fill="#B49B61" transform="translate(320,139)"/>
<path d="M0 0 C1.29190851 3.87572554 0.47103922 5.96011717 -0.4375 9.9375 C-3.25563721 23.76851599 -3.08282164 37.37195077 0.66430664 51.00146484 C1.96450865 55.84638026 2.00138581 59.18201165 1 64 C0.01 63.67 -0.98 63.34 -2 63 C-3.16191863 60.28280486 -4.1167897 57.68326576 -5 54.875 C-5.26055176 54.06474365 -5.52110352 53.2544873 -5.78955078 52.41967773 C-8.10360062 45.02817706 -9.88071591 37.67509093 -11 30 C-11.16242188 29.071875 -11.32484375 28.14375 -11.4921875 27.1875 C-12.49629802 16.9638293 -5.42952794 8.14429192 0 0 Z " fill="#B49B61" transform="translate(91,138)"/>
<path d="M0 0 C3.51007574 1.30462992 6.53427289 2.86318898 9.6875 4.875 C16.70803451 9.15836183 24.06463794 11.92990555 32 14 C32.495 18.455 32.495 18.455 33 23 C30.49922528 22.88467301 27.99985002 22.75797075 25.5 22.625 C24.45585938 22.57859375 24.45585938 22.57859375 23.390625 22.53125 C21.25060521 22.41236001 19.13122067 22.22679277 17 22 C16.28706787 21.93119629 15.57413574 21.86239258 14.83959961 21.79150391 C11.74821194 21.29183472 9.71439889 20.83897652 7.63916016 18.40185547 C6.45138407 16.35479364 5.489265 14.30222338 4.5625 12.125 C4.22541016 11.40441406 3.88832031 10.68382812 3.54101562 9.94140625 C2.03157154 6.65632354 0.80633268 3.53180567 0 0 Z " fill="#A99359" transform="translate(74,275)"/>
<path d="M0 0 C1 3 1 3 0.36669922 4.86938477 C-0.7814705 7.10950348 -1.93848609 9.34239245 -3.125 11.5625 C-3.516875 12.34302734 -3.90875 13.12355469 -4.3125 13.92773438 C-7.28204258 19.55142694 -7.28204258 19.55142694 -10.33203125 21.45703125 C-13.73648653 22.14988525 -17.11403846 22.69351425 -20.5625 23.125 C-21.86316406 23.29257812 -23.16382813 23.46015625 -24.50390625 23.6328125 C-28 24 -28 24 -32 24 C-31.505 19.545 -31.505 19.545 -31 15 C-29.51113281 14.48953125 -29.51113281 14.48953125 -27.9921875 13.96875 C-12.93743794 8.89058461 -12.93743794 8.89058461 0 0 Z " fill="#A89258" transform="translate(337,274)"/>
<path d="M0 0 C2.42631296 2.40502952 4.82925056 4.81528015 7.1484375 7.32421875 C16.08801331 16.81271588 26.80596008 24.29352845 39 29 C39 30.65 39 32.3 39 34 C32.56381011 32.81636573 26.87814885 30.90922954 20.9375 28.1875 C20.18662109 27.85685547 19.43574219 27.52621094 18.66210938 27.18554688 C16.41342383 26.17295814 14.20482238 25.10462043 12 24 C10.8855249 23.46004395 10.8855249 23.46004395 9.74853516 22.90917969 C5.95395 20.857261 3.69702039 19.31499498 2.34375 15.1171875 C2.02932377 13.71013012 1.74834296 12.29521128 1.5 10.875 C1.3453125 10.15957031 1.190625 9.44414062 1.03125 8.70703125 C0.41461502 5.76149807 0 3.01397567 0 0 Z " fill="#AC965D" transform="translate(65,243)"/>
<path d="M0 0 C1.97598692 5.70531436 0.1459616 11.57397683 -2 17 C-4.52886427 19.98921577 -7.48684369 21.35134233 -11 23 C-12.34084887 23.6842318 -13.68060825 24.37060098 -15.01953125 25.05859375 C-22.56493121 28.8477463 -29.5435314 31.92616272 -38 33 C-38 31.35 -38 29.7 -38 28 C-36.99582031 27.53851563 -35.99164063 27.07703125 -34.95703125 26.6015625 C-20.93783179 19.98746446 -9.91252045 12.03846153 0 0 Z " fill="#AC965D" transform="translate(345,244)"/>
<path d="M0 0 C0.33 0 0.66 0 1 0 C0 11 0 11 -0.24951172 13.22607422 C-3.24243103 41.67775023 -0.96189229 68.48467473 7.4765625 95.734375 C9.85787555 103.7362664 9.85787555 103.7362664 10 108 C8.5625 110.4375 8.5625 110.4375 7 112 C0.40222199 93.7901327 -4.09817336 75.30621525 -4.203125 55.85546875 C-4.20882507 55.00559891 -4.21452515 54.15572906 -4.22039795 53.28010559 C-4.22978568 51.48761208 -4.23635692 49.69510179 -4.24023438 47.90258789 C-4.24983902 45.23225517 -4.28088013 42.56272767 -4.3125 39.89257812 C-4.39384305 26.43822044 -3.38899169 13.07001665 0 0 Z " fill="#BAA470" transform="translate(101,125)"/>
<path d="M0 0 C0.66 0.33 1.32 0.66 2 1 C2.57836914 2.8190918 2.57836914 2.8190918 3.03515625 5.19921875 C3.2043457 6.0708667 3.37353516 6.94251465 3.54785156 7.84057617 C3.71768555 8.78006104 3.88751953 9.7195459 4.0625 10.6875 C4.2387793 11.65212158 4.41505859 12.61674316 4.59667969 13.6105957 C5.91716916 21.076104 6.85270283 28.41334927 7 36 C7.02046387 36.93473145 7.04092773 37.86946289 7.06201172 38.83251953 C7.53553068 64.24992167 6.18448621 91.27083996 -4 115 C-4.99 115.495 -4.99 115.495 -6 116 C-8.14585809 111.70828382 -7.46863819 107.42653466 -6.0234375 103.02734375 C-5.60320312 101.92519531 -5.18296875 100.82304687 -4.75 99.6875 C-1.45930541 90.98067636 0.32429024 82.13694323 2 73 C2.22816406 71.84757812 2.45632813 70.69515625 2.69140625 69.5078125 C6.19849867 48.66145895 4.63171456 26.70808518 1 6 C0.80277344 4.8140625 0.60554688 3.628125 0.40234375 2.40625 C0.26957031 1.6121875 0.13679688 0.818125 0 0 Z " fill="#B8A26D" transform="translate(308,121)"/>
<path d="M0 0 C0.66 0 1.32 0 2 0 C3.3046875 1.36328125 3.3046875 1.36328125 4.875 3.3125 C8.1214743 7.14237877 11.61228253 10.55699284 15.3125 13.9375 C15.84020996 14.4219458 16.36791992 14.9063916 16.91162109 15.40551758 C19.74701816 17.9957246 19.74701816 17.9957246 23 20 C21.25 23.875 21.25 23.875 19 25 C13.80891468 25.96578332 9.55844621 25.32360016 5 22.625 C1.70707021 19.88184631 0.73805194 17.66451684 0.21484375 13.52734375 C-0.12622708 9.00995034 -0.11975452 4.52672077 0 0 Z " fill="#9C874E" transform="translate(246,394)"/>
<path d="M0 0 C-0.93590583 4.01754697 -1.95874812 8.00853448 -3 12 C-3.1556543 12.63663574 -3.31130859 13.27327148 -3.47167969 13.92919922 C-6.19085169 24.89544081 -10.5352233 32.53508817 -18 41 C-18.66 40.34 -19.32 39.68 -20 39 C-19.70800781 36.55737305 -19.70800781 36.55737305 -18.953125 33.51171875 C-18.685 32.41279297 -18.416875 31.31386719 -18.140625 30.18164062 C-17.84671875 29.02857422 -17.5528125 27.87550781 -17.25 26.6875 C-16.9715625 25.54603516 -16.693125 24.40457031 -16.40625 23.22851562 C-13.02903462 9.60017713 -13.02903462 9.60017713 -7.5625 4.1875 C-6.78003906 3.39730469 -5.99757813 2.60710938 -5.19140625 1.79296875 C-3 0 -3 0 0 0 Z " fill="#F9F8F4" transform="translate(84,39)"/>
<path d="M0 0 C0 3.44737506 -0.33025804 3.72278098 -2.58984375 6.1015625 C-3.12673828 6.67390625 -3.66363281 7.24625 -4.21679688 7.8359375 C-5.06854492 8.72152344 -5.06854492 8.72152344 -5.9375 9.625 C-6.78344727 10.5221875 -6.78344727 10.5221875 -7.64648438 11.4375 C-11.20774872 15.20774872 -11.20774872 15.20774872 -13 17 C-14.52519276 16.91062197 -16.04681929 16.75462854 -17.5625 16.5625 C-18.38878906 16.46066406 -19.21507812 16.35882813 -20.06640625 16.25390625 C-20.70449219 16.17011719 -21.34257812 16.08632813 -22 16 C-21.57674417 14.20491499 -21.13589265 12.4139717 -20.6875 10.625 C-20.44386719 9.62726563 -20.20023437 8.62953125 -19.94921875 7.6015625 C-19 5 -19 5 -16 3 C-13.26542253 2.38605779 -10.57071017 1.84714777 -7.8125 1.375 C-7.06291016 1.2409375 -6.31332031 1.106875 -5.54101562 0.96875 C-3.69512072 0.63954581 -1.84769691 0.31893502 0 0 Z " fill="#A8945B" transform="translate(320,304)"/>
<path d="M0 0 C2.40377437 0.19069609 4.79557384 0.4161404 7.19140625 0.69140625 C9.94834985 1.02930423 9.94834985 1.02930423 12.52734375 1.08984375 C15.15832613 1.3393712 16.75187216 1.58519042 19 3 C20.99559981 6.85672525 22.07511461 10.7701046 23 15 C19.38425186 16.12621663 17.6506079 16.65470013 14 16 C8.21454864 11.65899068 3.51051237 6.34682039 0 0 Z " fill="#A7925A" transform="translate(91,305)"/>
<path d="M0 0 C0.33 0.66 0.66 1.32 1 2 C-0.11888759 4.53076262 -1.30082426 6.94136892 -2.5859375 9.38671875 C-3.3594528 10.89774663 -4.1328877 12.40881568 -4.90625 13.91992188 C-6.13658662 16.30002571 -7.37024492 18.67835656 -8.60644531 21.05541992 C-9.79571053 23.34903702 -10.97246803 25.6487635 -12.1484375 27.94921875 C-12.51826752 28.65052414 -12.88809753 29.35182953 -13.26913452 30.0743866 C-15.49870007 34.44726739 -16.57622689 38.10186917 -17 43 C-17.99 43 -18.98 43 -20 43 C-20 40.13410159 -19.6225976 38.54768792 -18.6953125 35.890625 C-18.42106445 35.09462891 -18.14681641 34.29863281 -17.86425781 33.47851562 C-17.4364502 32.25165039 -17.4364502 32.25165039 -17 31 C-16.47487685 29.45369642 -15.95141171 27.90682869 -15.4296875 26.359375 C-14.64680531 24.038267 -13.86385082 21.71725947 -13.07421875 19.3984375 C-11.54789685 14.88615369 -11.54789685 14.88615369 -10.63671875 10.22265625 C-9.68709439 6.90770985 -7.65485744 5.71691885 -4.9375 3.6875 C-4.01839844 2.99011719 -3.09929687 2.29273438 -2.15234375 1.57421875 C-1.44207031 1.05472656 -0.73179688 0.53523438 0 0 Z " fill="#C5AB73" transform="translate(94,28)"/>
<path d="M0 0 C5.52422043 2.65849326 9.74161727 5.18575657 12.328125 10.97021484 C13.51250406 14.51777488 14.53352583 18.07463692 15.5 21.6875 C15.85835938 22.92306641 16.21671875 24.15863281 16.5859375 25.43164062 C19.15152229 34.54543312 19.15152229 34.54543312 18 38 C17.61932373 37.23647217 17.61932373 37.23647217 17.23095703 36.45751953 C15.93751894 33.87526093 14.63603443 31.29711679 13.33395386 28.71920776 C11.89084564 25.8596482 10.4518879 22.99800779 9.01318359 20.13623047 C8.25223236 18.6244479 7.48985386 17.11338292 6.72607422 15.60302734 C5.62353366 13.42211019 4.52611322 11.23868383 3.4296875 9.0546875 C3.08598114 8.37759735 2.74227478 7.7005072 2.38815308 7.00289917 C0 2.22774238 0 2.22774238 0 0 Z " fill="#C6AD76" transform="translate(317,29)"/>
<path d="M0 0 C0.66 0.33 1.32 0.66 2 1 C-0.02519599 4.52036925 -2.05162315 8.04002677 -4.07910156 11.55908203 C-4.7659482 12.75160427 -5.45248165 13.94430697 -6.13867188 15.13720703 C-10.35585515 22.46795398 -14.61594505 29.76765286 -19 37 C-20.51998574 33.96002852 -19.28919267 32.11198362 -18.26171875 28.92578125 C-17.63137254 27.03871331 -17.00042945 25.15178448 -16.35229492 23.27075195 C-15.91382912 21.97918595 -15.48994374 20.68256545 -15.08178711 19.38110352 C-12.39750775 10.82530473 -9.81929474 5.6776131 -1.98754883 1.02807617 C-1.33165771 0.68881104 -0.6757666 0.3495459 0 0 Z " fill="#C6AD76" transform="translate(107,19)"/>
<path d="M0 0 C1.59273107 0.68694126 3.17389688 1.4007214 4.75 2.125 C6.07257813 2.71667969 6.07257813 2.71667969 7.421875 3.3203125 C13.6865258 7.40182742 15.99886704 15.1259559 18.8125 21.75 C19.23208984 22.70777344 19.65167969 23.66554688 20.08398438 24.65234375 C20.47521484 25.56628906 20.86644531 26.48023437 21.26953125 27.421875 C21.62635986 28.25299805 21.98318848 29.08412109 22.35083008 29.94042969 C23 32 23 32 22 34 C16.00040487 25.57788794 10.02530155 17.14061499 4.25 8.5625 C3.82025879 7.93077881 3.39051758 7.29905762 2.94775391 6.64819336 C0 2.23630312 0 2.23630312 0 0 Z " fill="#C6AC74" transform="translate(289,11)"/>
<path d="M0 0 C1.42122098 0.4008572 2.83686706 0.82150163 4.25 1.25 C5.43335938 1.59804687 5.43335938 1.59804687 6.640625 1.953125 C11.32038647 4.02957546 13.59459615 7.68056305 15.83203125 12.1328125 C16.31994141 13.10347656 16.80785156 14.07414062 17.31054688 15.07421875 C17.80619141 16.08097656 18.30183594 17.08773438 18.8125 18.125 C19.32748047 19.13949219 19.84246094 20.15398438 20.37304688 21.19921875 C20.85451172 22.16730469 21.33597656 23.13539062 21.83203125 24.1328125 C22.27264893 25.01855957 22.7132666 25.90430664 23.16723633 26.81689453 C23.44204834 27.53731934 23.71686035 28.25774414 24 29 C23.67 29.66 23.34 30.32 23 31 C17.05880589 23.61944442 11.12901595 16.22945679 5.3125 8.75 C4.50425781 7.71359375 3.69601562 6.6771875 2.86328125 5.609375 C1 3 1 3 0 0 Z " fill="#C7AD74" transform="translate(275,5)"/>
<path d="M0 0 C0.66 0.33 1.32 0.66 2 1 C-0.18549012 4.29300508 -2.37377188 7.58414638 -4.5625 10.875 C-5.17158203 11.7928125 -5.78066406 12.710625 -6.40820312 13.65625 C-10.51898005 19.83329047 -14.71719025 25.94098939 -19 32 C-20.70445777 26.88662668 -17.70707851 22.48067241 -15.6875 17.6875 C-15.28982422 16.65431641 -14.89214844 15.62113281 -14.48242188 14.55664062 C-11.61480785 7.7520588 -8.69255078 4.33497775 -2.18286133 0.80395508 C-1.10234497 0.40599731 -1.10234497 0.40599731 0 0 Z " fill="#C6AC73" transform="translate(121,11)"/>
<path d="M0 0 C1.36447109 0.60036728 2.68747118 1.29325371 4 2 C5.11375 2.556875 6.2275 3.11375 7.375 3.6875 C12.66581499 7.50549711 14.27127162 14.17787204 16.33007812 20.10058594 C16.94852192 21.8540454 17.62041353 23.58840814 18.296875 25.3203125 C21.1323032 32.60309041 21.1323032 32.60309041 20 36 C19.57178955 35.25427734 19.1435791 34.50855469 18.70239258 33.74023438 C17.0914528 30.93648126 15.47915176 28.13351651 13.8659668 25.33105469 C13.17207289 24.12498185 12.47870025 22.91860895 11.78588867 21.71191406 C7.03185756 13.41680689 7.03185756 13.41680689 2.01171875 5.28125 C0 2 0 2 0 0 Z " fill="#C4A970" transform="translate(303,19)"/>
<path d="M0 0 C-0.3717334 0.47719482 -0.7434668 0.95438965 -1.12646484 1.44604492 C-8.78109829 11.27440555 -16.41969277 21.11416154 -24 31 C-24.33 30.34 -24.66 29.68 -25 29 C-23.26664034 24.71312831 -21.01153998 20.66056552 -18.875 16.5625 C-18.29234375 15.40427734 -17.7096875 14.24605469 -17.109375 13.05273438 C-16.53445312 11.94349609 -15.95953125 10.83425781 -15.3671875 9.69140625 C-14.57997314 8.16302124 -14.57997314 8.16302124 -13.77685547 6.60375977 C-11.80094757 3.70831353 -10.10009257 2.56441882 -7 1 C-6.29875 0.5875 -5.5975 0.175 -4.875 -0.25 C-3 -1 -3 -1 0 0 Z " fill="#C6AB72" transform="translate(137,6)"/>
<path d="M0 0 C0 3 0 3 -1.28515625 4.54296875 C-1.87167969 5.08566406 -2.45820313 5.62835938 -3.0625 6.1875 C-10.3730834 13.20507404 -16.6264692 21.13786676 -23 29 C-23.66 28.67 -24.32 28.34 -25 28 C-23.08697123 24.47105614 -21.13322846 20.96830368 -19.140625 17.48364258 C-18.47015021 16.29790146 -17.81068544 15.10585851 -17.16308594 13.9074707 C-11.0809949 2.68367347 -11.0809949 2.68367347 -4.4921875 0.70703125 C-1.90185547 0.21020508 -1.90185547 0.21020508 0 0 Z " fill="#C7AC73" transform="translate(150,0)"/>
<path d="M0 0 C4.56734046 0.20217604 8.5467112 0.60226952 11.94140625 3.8671875 C13.80300175 6.50192823 15.41184999 9.19129426 17 12 C17.73336023 13.22404732 18.46915193 14.4466403 19.20703125 15.66796875 C25 25.41263264 25 25.41263264 25 29 C6.89941077 9.50248517 6.89941077 9.50248517 0 0 Z " fill="#C6AC72" transform="translate(261,1)"/>
<path d="M0 0 C5.61466762 2.47680969 9.71893341 6.84254406 12.03076172 12.54052734 C12.7898082 15.24360655 13.39442287 17.93318407 13.9375 20.6875 C14.14439453 21.61111328 14.35128906 22.53472656 14.56445312 23.48632812 C15.48788863 27.74763019 16.10533726 31.62583402 16 36 C13.46842576 33.46842576 12.38145915 30.6216922 10.99609375 27.3828125 C10.71274673 26.72924774 10.42939972 26.07568298 10.13746643 25.40231323 C9.53930846 24.01968427 8.94349492 22.63603903 8.34985352 21.25146484 C7.44294221 19.1376844 6.52775188 17.02763978 5.61132812 14.91796875 C5.03075263 13.57313128 4.45065859 12.22808583 3.87109375 10.8828125 C3.59817001 10.25351837 3.32524628 9.62422424 3.04405212 8.9758606 C1.78059354 6.01878932 0.64459268 3.15668767 0 0 Z " fill="#C4AB73" transform="translate(330,40)"/>
<path d="M0 0 C1 2 1 2 0.03125 5.24609375 C-0.47101417 6.64618062 -0.98210504 8.04311936 -1.5 9.4375 C-1.76973633 10.17871094 -2.03947266 10.91992188 -2.31738281 11.68359375 C-2.89926353 13.27960944 -3.48435323 14.87445801 -4.07226562 16.46826172 C-5.02875887 19.07848144 -5.96154796 21.69631322 -6.890625 24.31640625 C-7.50993137 26.04444483 -8.129712 27.77231354 -8.75 29.5 C-9.04326172 30.33072021 -9.33652344 31.16144043 -9.63867188 32.01733398 C-11.77207379 37.8860369 -11.77207379 37.8860369 -14 39 C-13.38468593 34.9359715 -12.75606019 30.87411078 -12.125 26.8125 C-11.95097656 25.66201172 -11.77695312 24.51152344 -11.59765625 23.32617188 C-11.42363281 22.21435547 -11.24960937 21.10253906 -11.0703125 19.95703125 C-10.91320801 18.93585205 -10.75610352 17.91467285 -10.59423828 16.86254883 C-9.48061323 11.49802388 -7.58381347 8.19541133 -3.875 4.1875 C-3.15054688 3.39730469 -2.42609375 2.60710938 -1.6796875 1.79296875 C-1.12539062 1.20128906 -0.57109375 0.60960937 0 0 Z " fill="#C2A86F" transform="translate(68,52)"/>
<path d="M0 0 C3.41796875 3.3203125 3.41796875 3.3203125 5 5 C5.83402344 5.79921875 6.66804688 6.5984375 7.52734375 7.421875 C11.2453691 11.92962477 11.57465514 17.5091348 12.375 23.125 C12.55160156 24.20910156 12.72820312 25.29320313 12.91015625 26.41015625 C14.25597348 35.12028537 14.25597348 35.12028537 13 39 C9.48077948 29.51476362 5.97588904 20.0239184 2.5625 10.5 C2.30388184 9.7891626 2.04526367 9.0783252 1.77880859 8.34594727 C0.73947572 5.42491611 0 3.12601286 0 0 Z " fill="#C5AC77" transform="translate(343,52)"/>
<path d="M0 0 C0.33 0.66 0.66 1.32 1 2 C0.05957031 4.59448242 0.05957031 4.59448242 -1.421875 7.85546875 C-2.21851562 9.62567383 -2.21851562 9.62567383 -3.03125 11.43164062 C-3.60392154 12.68370589 -4.17684024 13.93565815 -4.75 15.1875 C-5.30802522 16.41958991 -5.86532548 17.65200843 -6.421875 18.88476562 C-7.48266762 21.2320243 -8.54571741 23.57826457 -9.61132812 25.92333984 C-11.11945392 29.26465513 -12.57838273 32.62115614 -14 36 C-14.33 36 -14.66 36 -15 36 C-11.90695179 10.01839503 -11.90695179 10.01839503 -2.046875 1.5546875 C-1.37140625 1.04164062 -0.6959375 0.52859375 0 0 Z " fill="#C2A76E" transform="translate(81,39)"/>
<path d="M0 0 C7.46606366 6.63650103 9.58083236 13.95589879 10.75 23.6875 C10.87503906 24.61111328 11.00007813 25.53472656 11.12890625 26.48632812 C11.68038358 30.69513035 12.06225978 34.74982646 12 39 C9.6616432 36.6616432 9.29056718 35.16562547 8.37890625 32.01171875 C8.08443604 31.00044922 7.78996582 29.98917969 7.48657227 28.94726562 C7.18162842 27.87154297 6.87668457 26.79582031 6.5625 25.6875 C6.25046631 24.60275391 5.93843262 23.51800781 5.61694336 22.40039062 C3.50408591 14.98124737 1.55026159 7.55937078 0 0 Z " fill="#C5AD77" transform="translate(355,66)"/>
<path d="M0 0 C0.66 0 1.32 0 2 0 C3.83978993 4.03548365 5.6726502 8.07402141 7.49926758 12.11547852 C8.12108803 13.48872603 8.74476486 14.86113458 9.37036133 16.23266602 C10.2713862 18.20889957 11.1656014 20.18809495 12.05859375 22.16796875 C12.59798584 23.35672607 13.13737793 24.5454834 13.69311523 25.77026367 C14.8224021 28.56109797 15.54799783 31.03633174 16 34 C16.66 34 17.32 34 18 34 C18 34.99 18 35.98 18 37 C16 37 16 37 14.08203125 35.18359375 C6.52842959 26.04386575 0 12.08059793 0 0 Z " fill="#F9F8F4" transform="translate(329,42)"/>
<path d="M0 0 C0.66 0 1.32 0 2 0 C0.16931394 8.10732397 -2.1565456 16.04786411 -4.5625 24 C-4.86744385 25.01521729 -5.1723877 26.03043457 -5.48657227 27.07641602 C-5.78104248 28.04119873 -6.0755127 29.00598145 -6.37890625 30 C-6.6426001 30.86625 -6.90629395 31.7325 -7.17797852 32.625 C-7.9553456 34.87098368 -8.88416198 36.90473447 -10 39 C-8.45418641 9.22274882 -8.45418641 9.22274882 0 0 Z " fill="#C4AC77" transform="translate(55,66)"/>
<path d="M0 0 C2.60400391 0.28198242 2.60400391 0.28198242 4.5234375 0.64453125 C1.28421689 4.79478266 -2.13649812 8.16059718 -6.140625 11.56640625 C-10.79405641 15.70624824 -15.11023834 20.20597011 -19.4765625 24.64453125 C-19.4765625 19.36261625 -15.8758394 15.30799347 -13.1015625 10.95703125 C-12.51761719 9.96896484 -11.93367187 8.98089844 -11.33203125 7.96289062 C-6.22338668 0.0032928 -6.22338668 0.0032928 0 0 Z " fill="#C6AB71" transform="translate(158.4765625,-0.64453125)"/>
<path d="M0 0 C3.21721616 -0.7372787 5.79950828 -0.88237856 9 0 C12.30402735 3.24956536 14.56802954 7.07635535 17 11 C18.32255275 12.90336965 19.65513569 14.79982901 21 16.6875 C22.00104724 18.12427092 23.00146334 19.56148313 24 21 C23.67 21.66 23.34 22.32 23 23 C22.5875 22.57589844 22.175 22.15179687 21.75 21.71484375 C18.61944093 18.5353697 15.44726915 15.47139071 12.0625 12.5625 C7.84224156 8.92035915 3.76982114 5.11070922 0 1 C0 0.67 0 0.34 0 0 Z " fill="#C6AB70" transform="translate(249,0)"/>
<path d="M0 0 C0.33 0 0.66 0 1 0 C1 12.54 1 25.08 1 38 C-3.48330024 31.27504965 -5.41669353 18.03787173 -4 10 C-2.87610315 6.5601945 -1.53233597 3.2767363 0 0 Z " fill="#C4AD79" transform="translate(34,96)"/>
<path d="M0 0 C1.31157379 3.93472136 0.31188475 6.83277776 -0.65234375 10.73046875 C-0.83132706 11.48088943 -1.01031036 12.23131012 -1.19471741 13.00447083 C-1.76808533 15.40070438 -2.35263686 17.79404902 -2.9375 20.1875 C-3.32821357 21.81167122 -3.71819657 23.43601836 -4.10742188 25.06054688 C-5.06314949 29.04245557 -6.02891583 33.02180976 -7 37 C-7.33 37 -7.66 37 -8 37 C-8.03569311 32.70688686 -7.99316421 28.41782397 -7.9375 24.125 C-7.94845703 22.92101562 -7.95941406 21.71703125 -7.97070312 20.4765625 C-7.80394149 11.70966513 -5.82461776 6.57345651 0 0 Z " fill="#C2AB75" transform="translate(44,82)"/>
<path d="M0 0 C4.65338976 4.32100478 8.14545066 8.60797094 9 15 C9.11313827 18.27222234 9.09423559 21.53885186 9.0625 24.8125 C9.05798828 25.69615234 9.05347656 26.57980469 9.04882812 27.49023438 C9.03709866 29.66018559 9.01916495 31.83010172 9 34 C6.49003144 31.49003144 6.30451514 29.77640589 5.52734375 26.328125 C5.26759766 25.18859375 5.00785156 24.0490625 4.74023438 22.875 C4.47533203 21.67875 4.21042969 20.4825 3.9375 19.25 C3.66873047 18.06921875 3.39996094 16.8884375 3.12304688 15.671875 C1.94658945 10.46143014 0.8407865 5.27649003 0 0 Z " fill="#C2AA75" transform="translate(366,81)"/>
<path d="M0 0 C2.3125 0.2734375 2.3125 0.2734375 4 0.625 C-0.26734637 5.07086086 -4.88224123 9.00813245 -9.625 12.9375 C-10.7696875 13.90526367 -10.7696875 13.90526367 -11.9375 14.89257812 C-12.67226562 15.50166016 -13.40703125 16.11074219 -14.1640625 16.73828125 C-14.82873535 17.29298096 -15.4934082 17.84768066 -16.17822266 18.41918945 C-18 19.625 -18 19.625 -21 19.625 C-20.5153125 19.09132813 -20.030625 18.55765625 -19.53125 18.0078125 C-18.8609375 17.26273438 -18.190625 16.51765625 -17.5 15.75 C-16.76652344 14.93917969 -16.03304687 14.12835938 -15.27734375 13.29296875 C-12.96321127 10.66401311 -12.96321127 10.66401311 -11.00390625 7.80078125 C-5.46718651 -0.00855585 -5.46718651 -0.00855585 0 0 Z " fill="#C7AD74" transform="translate(171,-0.625)"/>
<path d="M0 0 C2.88878559 1.4443928 3.43284881 3.64465521 4.45703125 6.58203125 C6.47858468 15.5844886 2.9045921 26.12388209 1 35 C0.67 35 0.34 35 0 35 C0 23.45 0 11.9 0 0 Z " fill="#BCA268" transform="translate(377,98)"/>
<path d="M0 0 C3.13060948 -0.51177269 5.88002012 -0.63680674 9 0 C11.9332007 2.24316469 13.92830197 5.00959708 16.0625 8 C16.93165039 9.1446875 16.93165039 9.1446875 17.81835938 10.3125 C19.2388333 12.19081263 20.63005702 14.08469046 22 16 C21.67 16.66 21.34 17.32 21 18 C5.03690037 5.55719557 5.03690037 5.55719557 0 1 C0 0.67 0 0.34 0 0 Z " fill="#C7AC72" transform="translate(237,0)"/>
<path d="M0 0 C3.581649 -0.8390848 6.42776269 -0.94754305 10 0 C15.48676508 4.61743347 19.76168567 10.23701153 24 16 C20.44518524 14.69330806 17.47636497 13.13581025 14.35546875 10.99609375 C13.51435547 10.42052734 12.67324219 9.84496094 11.80664062 9.25195312 C10.94232422 8.65318359 10.07800781 8.05441406 9.1875 7.4375 C8.30384766 6.83486328 7.42019531 6.23222656 6.50976562 5.61132812 C1.69934628 2.30161103 1.69934628 2.30161103 0 1 C0 0.67 0 0.34 0 0 Z " fill="#C7AC73" transform="translate(223,0)"/>
<path d="M0 0 C-4.22448296 3.47898596 -8.63248962 6.6322469 -13.125 9.75 C-14.19814453 10.50990234 -14.19814453 10.50990234 -15.29296875 11.28515625 C-15.98261719 11.76339844 -16.67226562 12.24164063 -17.3828125 12.734375 C-18.00559082 13.16975586 -18.62836914 13.60513672 -19.27001953 14.05371094 C-21 15 -21 15 -24 15 C-21.92089208 12.45856769 -19.78049776 9.9768142 -17.625 7.5 C-17.04105469 6.78457031 -16.45710937 6.06914063 -15.85546875 5.33203125 C-10.95163843 -0.20455136 -7.2652041 -0.99801837 0 0 Z " fill="#C6AC72" transform="translate(189,0)"/>
<path d="M0 0 C0.33 0 0.66 0 1 0 C1.19301885 6.35477448 0.51400004 12.25166161 -0.625 18.5 C-0.7995874 19.45817627 -0.9741748 20.41635254 -1.15405273 21.40356445 C-5.47910596 43.67879567 -5.47910596 43.67879567 -12 49 C-11.44153711 43.73546566 -10.11052468 39.22577107 -8.125 34.3125 C-3.76305698 23.06013925 -1.50597874 11.9769603 0 0 Z " fill="#C0AE83" transform="translate(318,207)"/>
<path d="M0 0 C0.33 0 0.66 0 1 0 C1.12004395 0.56283691 1.24008789 1.12567383 1.36376953 1.70556641 C3.67393402 12.36970295 6.11955073 22.42727797 10.86328125 32.28515625 C12 35 12 35 12 39 C11.34 39 10.68 39 10 39 C4.60618645 26.48635256 -0.39811974 13.82700479 0 0 Z " fill="#BFAC7F" transform="translate(94,217)"/>
<path d="M0 0 C0.66 0.33 1.32 0.66 2 1 C1.32195312 1.63164062 0.64390625 2.26328125 -0.0546875 2.9140625 C-6.08408989 8.70963765 -11.15031101 14.56980948 -15.73779297 21.57861328 C-16.75659273 23.10063966 -17.87132395 24.55756885 -19 26 C-19.99 26 -20.98 26 -22 26 C-22.99 26.66 -23.98 27.32 -25 28 C-20.19695178 17.16863615 -8.32319679 8.21664093 0 0 Z " fill="#C6AD76" transform="translate(171,14)"/>
<path d="M0 0 C0.33 0.99 0.66 1.98 1 3 C0.01 4.485 0.01 4.485 -1 6 C-1.66 6 -2.32 6 -3 6 C-4.59682344 7.31805577 -4.59682344 7.31805577 -6.2578125 9.0625 C-6.88300781 9.69414063 -7.50820312 10.32578125 -8.15234375 10.9765625 C-8.80332031 11.64429688 -9.45429687 12.31203125 -10.125 13 C-11.11306641 14.00160156 -11.11306641 14.00160156 -12.12109375 15.0234375 C-13.75194324 16.67792249 -15.3779585 18.33688616 -17 20 C-17 17 -17 17 -15.43945312 15.09887695 C-14.37114258 14.05413208 -14.37114258 14.05413208 -13.28125 12.98828125 C-12.51425781 12.23095703 -11.74726562 11.47363281 -10.95703125 10.69335938 C-10.14621094 9.90767578 -9.33539063 9.12199219 -8.5 8.3125 C-7.68917969 7.51521484 -6.87835938 6.71792969 -6.04296875 5.89648438 C-4.03517797 3.9241252 -2.0207313 1.95908508 0 0 Z " fill="#C5AB74" transform="translate(108,39)"/>
<path d="M0 0 C0.66 0.33 1.32 0.66 2 1 C-3.33333333 6.33333333 -8.66666667 11.66666667 -14 17 C-14 14 -14 14 -12.71484375 12.37426758 C-12.12832031 11.80345459 -11.54179687 11.2326416 -10.9375 10.64453125 C-10.30585938 10.02255859 -9.67421875 9.40058594 -9.0234375 8.75976562 C-8.35570312 8.11716797 -7.68796875 7.47457031 -7 6.8125 C-6.33226562 6.15830078 -5.66453125 5.50410156 -4.9765625 4.83007812 C-3.32421559 3.21313865 -1.66528399 1.60359509 0 0 Z " fill="#CAB27F" transform="translate(171,14)"/>
<path d="M0 0 C4.07376031 1.61010527 6.76507069 4.53822271 9.75 7.625 C10.25660156 8.140625 10.76320312 8.65625 11.28515625 9.1875 C12.52803902 10.45383339 13.76465276 11.7263144 15 13 C14.01 13.33 13.02 13.66 12 14 C9.99699451 11.85690336 7.99750256 9.71071503 6 7.5625 C5.42765625 6.95083984 4.8553125 6.33917969 4.265625 5.70898438 C0 1.11328125 0 1.11328125 0 0 Z " fill="#CBB381" transform="translate(240,15)"/>
<path d="M0 0 C-2.0374984 6.11249521 -5.46303411 8.92390784 -11 12 C-9.56438314 8.81293058 -7.79733671 6.37830895 -5.5 3.75 C-4.8915625 3.04359375 -4.283125 2.3371875 -3.65625 1.609375 C-2 0 -2 0 0 0 Z " fill="#F8F7F2" transform="translate(153,0)"/>
<path d="M0 0 C1.32 0.99 2.64 1.98 4 3 C3.67 3.99 3.34 4.98 3 6 C1.02 6.33 -0.96 6.66 -3 7 C-2.01 4.69 -1.02 2.38 0 0 Z " fill="#9A864D" transform="translate(244,419)"/>
<path d="M0 0 C2.34191563 2.1290142 3.83554954 4.04408729 5 7 C5 8.32 5 9.64 5 11 C4.34 11 3.68 11 3 11 C0 4.5 0 4.5 0 0 Z " fill="#B6A371" transform="translate(101,245)"/>
<path d="M0 0 C0.33 0.66 0.66 1.32 1 2 C0.0625 4.625 0.0625 4.625 -1 7 C-1.99 7 -2.98 7 -4 7 C-5.65503095 8.0772721 -5.65503095 8.0772721 -7.1875 9.5 C-8.115625 10.325 -9.04375 11.15 -10 12 C-8.52278578 8.54798361 -6.56205999 6.35038064 -3.875 3.75 C-3.15054688 3.04359375 -2.42609375 2.3371875 -1.6796875 1.609375 C-1.12539062 1.07828125 -0.57109375 0.5471875 0 0 Z " fill="#C9B17D" transform="translate(81,39)"/>
<path d="M0 0 C0.99 0.33 1.98 0.66 3 1 C2.55123384 2.64846769 2.09069512 4.29373455 1.625 5.9375 C1.36976562 6.85402344 1.11453125 7.77054687 0.8515625 8.71484375 C0 11 0 11 -2 12 C-1.34 8.04 -0.68 4.08 0 0 Z " fill="#CFBC92" transform="translate(56,79)"/>
<path d="M0 0 C1.39195915 4.17587745 -0.17676781 6.13474776 -2 10 C-2.99 10 -3.98 10 -5 10 C-3.84414715 6.08788267 -2.64465038 3.1254959 0 0 Z " fill="#F8F7F2" transform="translate(109,19)"/>
<path d="M0 0 C0.66 0.33 1.32 0.66 2 1 C1.01 3.97 0.02 6.94 -1 10 C-1.99 10 -2.98 10 -4 10 C-2.8905928 6.51329166 -1.73662334 3.22515763 0 0 Z " fill="#F9F7F3" transform="translate(95,28)"/>
<path d="M0 0 C0.33 0.66 0.66 1.32 1 2 C-0.98 4.97 -0.98 4.97 -3 8 C-3.66 7.34 -4.32 6.68 -5 6 C-3.63016497 2.83884224 -3.0109362 2.0072908 0 0 Z " fill="#EEE8DA" transform="translate(69,72)"/>
<path d="M0 0 C0.66 0.33 1.32 0.66 2 1 C1.360625 1.78375 0.72125 2.5675 0.0625 3.375 C-1.98142313 5.79539281 -1.98142313 5.79539281 -3 8 C-3.66 8 -4.32 8 -5 8 C-3.8141763 4.62496331 -2.72426311 2.35277269 0 0 Z " fill="#F6F4ED" transform="translate(367,222)"/>
<path d="M0 0 C0.33 0.66 0.66 1.32 1 2 C0.0625 4.625 0.0625 4.625 -1 7 C-1.99 7 -2.98 7 -4 7 C-4 4 -4 4 -2 1.8125 C-1.34 1.214375 -0.68 0.61625 0 0 Z " fill="#C9B381" transform="translate(68,52)"/>
<path d="M0 0 C3 1 3 1 4.25 3.375 C5 6 5 6 4 9 C0 2.25 0 2.25 0 0 Z " fill="#CCB584" transform="translate(319,46)"/>
<path d="M0 0 C0.66 0.33 1.32 0.66 2 1 C2 1.66 2 2.32 2 3 C-0.2727675 4.49524178 -2.5679943 5.78399715 -5 7 C-3.75023244 3.34683329 -3.32901247 2.21934164 0 0 Z " fill="#F9F8F4" transform="translate(172,11)"/>
<path d="M0 0 C0.99 0.33 1.98 0.66 3 1 C-0.625 5.875 -0.625 5.875 -4 7 C-2.79618552 4.50638429 -1.54571278 2.31856917 0 0 Z " fill="#F7F5EF" transform="translate(135,7)"/>
</svg>
