<svg width="52" height="52" viewBox="0 0 52 52" fill="none" xmlns="http://www.w3.org/2000/svg">
<rect width="52" height="52" fill="black"/>
<path fill-rule="evenodd" clip-rule="evenodd" d="M26 42.9965C37.667 42.9965 47.125 35.1903 47.125 25.5608C47.125 15.9313 37.667 8.125 26 8.125C14.333 8.125 4.875 15.9313 4.875 25.5608C4.875 35.1903 14.333 42.9965 26 42.9965ZM17.5099 16.369C12.1783 15.9148 7.5998 20.1198 7.5998 25.4707C7.5998 30.5156 11.6895 34.6054 16.7345 34.6054H27.9241C32.9767 34.6054 37.0726 30.5095 37.0726 25.4569C37.0726 20.1085 32.5043 15.9006 27.1738 16.3393L23.1151 16.6733C22.4267 16.7299 21.7347 16.7289 21.0465 16.6703L17.5099 16.369Z" fill="white"/>
<path d="M11.8544 27.2453C12.1545 27.8071 12.8635 28.0215 13.4371 27.7367L18.1599 25.3916C18.5497 25.198 18.7998 24.8083 18.8012 24.3776C18.8026 23.9469 18.5551 23.5557 18.1665 23.3597L13.5231 21.0178C12.9514 20.7294 12.2411 20.9395 11.9373 21.4994C11.631 22.0638 11.8607 22.756 12.4363 23.0463L15.0529 24.366L12.3635 25.7015C11.786 25.9882 11.5518 26.6789 11.8544 27.2453Z" fill="white"/>
<path d="M30.0252 25.9206C30.8285 25.9332 31.4714 25.2923 31.4846 24.5126C31.4978 23.7328 30.8767 23.0716 30.0732 23.0589L24.7137 22.9742C23.9104 22.9615 23.2675 23.6025 23.2543 24.3821C23.2411 25.1619 23.8622 25.8232 24.6657 25.8359L30.0252 25.9206Z" fill="white"/>
</svg>
