<svg width="101" height="101" viewBox="0 0 101 101" fill="none" xmlns="http://www.w3.org/2000/svg">
<path d="M1.96806 61.6724C2.08059 61.6724 2.16766 61.7635 2.1757 61.8746C2.3378 64.327 4.72237 64.9672 6.87518 64.9672C9.18741 64.9672 10.8258 64.0872 10.8258 62.4907C10.8258 61.1608 9.78087 60.6076 8.10363 60.321L4.78801 59.7692C3.04781 59.4826 0.448898 58.7861 0.448898 55.9427C0.448898 53.2828 2.5575 51.5015 6.30315 51.5015C9.16329 51.5015 12.1802 52.518 12.5071 55.8503C12.5191 55.9748 12.4173 56.086 12.2927 56.086H10.5297C10.4279 56.086 10.3422 56.0137 10.3221 55.9132C10.097 54.7909 9.34147 53.3846 6.01379 53.3846C4.41693 53.3846 2.61645 54.0596 2.61645 55.7793C2.61645 56.6807 3.20991 57.3959 5.01039 57.7026L8.59261 58.316C9.738 58.5209 12.9933 59.0727 12.9933 62.0608C12.9933 65.7855 9.65628 66.8489 6.7104 66.8489C3.4765 66.8489 0.124704 65.7453 0.000116548 61.8947C-0.00390239 61.7742 0.0965711 61.671 0.2158 61.671H1.96806V61.6724Z" fill="#2F759D"/>
<path d="M14.782 51.7495H16.4056C16.5222 51.7495 16.6173 51.8446 16.6173 51.9611V57.3761H16.6588C17.6207 55.8827 19.3194 55.3912 20.8546 55.3912C23.4334 55.3912 25.3571 56.4961 25.3571 59.1775V66.2706C25.3571 66.3871 25.262 66.4822 25.1455 66.4822H23.5218C23.4053 66.4822 23.3102 66.3871 23.3102 66.2706V59.5873C23.3102 58.0122 22.3282 57.1109 20.1379 57.1109C18.2758 57.1109 16.6173 58.1957 16.6173 60.3025V66.2706C16.6173 66.3871 16.5222 66.4822 16.4056 66.4822H14.782C14.6654 66.4822 14.5703 66.3871 14.5703 66.2706V51.9611C14.5703 51.8446 14.6641 51.7495 14.782 51.7495Z" fill="#2F759D"/>
<path d="M33.6094 55.3911C37.7851 55.3911 39.8307 58.0309 39.8307 61.1208C39.8307 64.2106 37.7837 66.8505 33.6094 66.8505C29.4337 66.8505 27.3867 64.2106 27.3867 61.1208C27.3867 58.0309 29.4337 55.3911 33.6094 55.3911ZM33.6094 57.1108C30.6421 57.1108 29.5569 59.1774 29.5569 61.1221C29.5569 63.0669 30.6421 65.1334 33.6094 65.1334C36.5767 65.1334 37.6618 63.0669 37.6618 61.1221C37.6618 59.1774 36.5767 57.1108 33.6094 57.1108Z" fill="#2F759D"/>
<path d="M84.6976 61.1208C84.6976 59.1774 83.6125 57.1095 80.6451 57.1095C77.6778 57.1095 76.5927 59.1761 76.5927 61.1208V66.2706C76.5927 66.3871 76.4976 66.4822 76.381 66.4822H74.6355C74.5189 66.4822 74.4238 66.3871 74.4238 66.2706V61.1208C74.4238 58.0309 76.4708 55.3911 80.6465 55.3911C84.8222 55.3911 86.8678 58.0309 86.8678 61.1208V66.2706C86.8678 66.3871 86.7727 66.4822 86.6561 66.4822H84.9106C84.794 66.4822 84.6989 66.3871 84.6989 66.2706V61.1208H84.6976Z" fill="#2F759D"/>
<path d="M53.8755 61.7342C53.7482 61.7342 53.6437 61.8481 53.6611 61.974C53.9438 64.0298 55.8314 65.1308 57.5863 65.1308C58.7223 65.1308 60.2656 64.7624 60.989 63.3454C61.0252 63.2758 61.0948 63.2289 61.1739 63.2289H62.89C63.0427 63.2289 63.1512 63.3896 63.0869 63.5289C62.0018 65.8888 59.7137 66.8505 57.6895 66.8505C53.5138 66.8505 51.4668 64.2106 51.4668 61.1208C51.4668 58.0309 53.5138 55.3911 57.6895 55.3911C60.5134 55.3911 63.5022 57.0278 63.5022 61.469V61.7356H53.8755V61.7342ZM61.0734 60.1391C61.2074 60.1391 61.3132 60.0132 61.2837 59.8832C60.8885 58.1006 59.4243 57.1108 57.5863 57.1108C55.7885 57.1108 54.1595 58.118 53.7482 59.8819C53.7174 60.0132 53.8246 60.1391 53.9585 60.1391H61.0734Z" fill="#2F759D"/>
<path d="M65.8035 51.7495H67.4271C67.5437 51.7495 67.6388 51.8446 67.6388 51.9611V66.2706C67.6388 66.3871 67.5437 66.4822 67.4271 66.4822H65.8035C65.6869 66.4822 65.5918 66.3871 65.5918 66.2706V51.9611C65.5918 51.8446 65.6869 51.7495 65.8035 51.7495Z" fill="#2F759D"/>
<path d="M71.1439 51.7041C71.9691 51.7041 72.3737 52.2264 72.3737 52.8372C72.3737 53.4479 71.9691 53.9702 71.1439 53.9702C70.3186 53.9702 69.9141 53.4479 69.9141 52.8372C69.9141 52.2251 70.3186 51.7041 71.1439 51.7041Z" fill="#2F759D"/>
<path d="M70.3464 55.7598H71.9701C72.0866 55.7598 72.1817 55.8549 72.1817 55.9714V66.2696C72.1817 66.3861 72.0866 66.4812 71.9701 66.4812H70.3464C70.2299 66.4812 70.1348 66.3861 70.1348 66.2696V55.9714C70.1348 55.8549 70.2285 55.7598 70.3464 55.7598Z" fill="#2F759D"/>
<path d="M90.3755 61.7342C90.2482 61.7342 90.1437 61.8481 90.1611 61.974C90.4438 64.0298 92.3314 65.1308 94.0863 65.1308C95.2223 65.1308 96.7656 64.7624 97.489 63.3454C97.5252 63.2758 97.5948 63.2289 97.6739 63.2289H99.39C99.5427 63.2289 99.6512 63.3896 99.5869 63.5289C98.5018 65.8888 96.2137 66.8505 94.1895 66.8505C90.0138 66.8505 87.9668 64.2106 87.9668 61.1208C87.9668 58.0309 90.0138 55.3911 94.1895 55.3911C97.0134 55.3911 100.002 57.0278 100.002 61.469V61.7356H90.3755V61.7342ZM97.5734 60.1391C97.7074 60.1391 97.8132 60.0132 97.7837 59.8832C97.3885 58.1006 95.9243 57.1108 94.0863 57.1108C92.2885 57.1108 90.6595 58.118 90.2482 59.8819C90.2174 60.0132 90.3246 60.1391 90.4585 60.1391H97.5734Z" fill="#2F759D"/>
<path d="M50.4708 55.9578C50.4708 55.8654 50.4132 55.781 50.3248 55.7529C49.6147 55.5225 48.8056 55.3926 47.8906 55.3926C43.7149 55.3926 41.668 58.0324 41.668 61.1223V66.272C41.668 66.3885 41.7631 66.4836 41.8796 66.4836H43.6252C43.7417 66.4836 43.8369 66.3885 43.8369 66.272V61.1223C43.8369 59.1789 44.922 57.1109 47.8893 57.1109C48.8284 57.1109 49.5705 57.3252 50.1546 57.6721C50.2939 57.7552 50.4694 57.652 50.4694 57.49V55.9578H50.4708Z" fill="#2F759D"/>
<path d="M80.0286 37.5259H44.7383L45.7537 39.7278H80.0286C80.188 39.7278 80.3166 39.6327 80.3166 39.5148V37.7375C80.3166 37.6223 80.188 37.5259 80.0286 37.5259Z" fill="#2F759D"/>
<path d="M32.9901 39.7297L34.0123 37.5278H19.4208C19.2614 37.5278 19.1328 37.6229 19.1328 37.7408V39.5181C19.1328 39.6359 19.2614 39.731 19.4208 39.731H32.9901V39.7297Z" fill="#2F759D"/>
<path d="M70.1197 48.7253C66.6634 48.7253 64.7719 47.548 63.3893 46.6895C62.252 45.9823 61.5647 45.5551 59.9223 45.5551C58.2799 45.5551 57.5927 45.9823 56.4553 46.6895L56.3254 46.7698C53.208 48.7038 49.2547 48.6637 46.1762 46.6694L45.7275 46.3787C44.1641 45.3649 42.9196 43.9291 42.1399 42.2375L40.1452 37.9074C39.9027 37.5284 39.5249 37.4869 39.3708 37.4869C39.2168 37.4869 38.839 37.5284 38.5965 37.9074L36.5469 42.3554C35.806 43.9639 34.6446 45.3421 33.1857 46.3453L33.0102 46.4658C29.9049 48.602 25.8351 48.6998 22.6413 46.7136L22.6012 46.6881C21.5616 46.0412 20.6922 45.6394 19.3418 45.5658C19.2266 45.5591 19.1328 45.4667 19.1328 45.3515V43.2447C19.1328 43.1201 19.24 43.0197 19.3632 43.0264C21.3955 43.1309 22.7874 43.8112 23.9448 44.5305L23.9904 44.5586C26.32 46.0064 29.2967 45.9354 31.5687 44.3724L31.7442 44.2519C32.8267 43.5072 33.6881 42.484 34.2373 41.2906L36.37 36.6766C36.997 35.5917 38.1183 34.9448 39.3708 34.9448C40.6234 34.9448 41.746 35.5931 42.3716 36.6766L42.4252 36.7797L44.4494 41.1741C45.0282 42.4304 45.9512 43.4951 47.1126 44.2479L47.5547 44.5345C49.808 45.9944 52.7003 46.0238 54.9844 44.6108L55.1157 44.5291C56.3683 43.7496 57.5538 43.0117 59.9237 43.0117C62.2922 43.0117 63.4791 43.7496 64.7344 44.5305C65.9789 45.3046 67.3909 46.1819 70.1211 46.1819C72.8513 46.1819 74.2633 45.3046 75.5078 44.5305C76.6639 43.8112 78.0571 43.1295 80.088 43.0264C80.2113 43.0197 80.3184 43.1215 80.3184 43.2447V45.3515C80.3184 45.4667 80.2247 45.5591 80.1095 45.5658C78.7591 45.6394 77.8897 46.0426 76.8501 46.6881C75.4676 47.5493 73.576 48.7253 70.1197 48.7253Z" fill="#ADD9E5"/>
</svg>
