<?xml version="1.0" encoding="UTF-8"?>
<!DOCTYPE svg PUBLIC "-//W3C//DTD SVG 1.1//EN" "http://www.w3.org/Graphics/SVG/1.1/DTD/svg11.dtd">
<svg xmlns="http://www.w3.org/2000/svg" version="1.1" width="512px" height="512px" style="shape-rendering:geometricPrecision; text-rendering:geometricPrecision; image-rendering:optimizeQuality; fill-rule:evenodd; clip-rule:evenodd" xmlns:xlink="http://www.w3.org/1999/xlink">
<g><path style="opacity:0.989" fill="#fefefe" d="M 316.5,-0.5 C 327.833,-0.5 339.167,-0.5 350.5,-0.5C 363.375,1.85434 375.375,6.68767 386.5,14C 419.167,37 451.833,60 484.5,83C 494.373,90.5334 500.539,100.367 503,112.5C 503.667,223.167 503.667,333.833 503,444.5C 498.294,471.54 482.461,487.706 455.5,493C 359.36,499.311 263.36,505.478 167.5,511.5C 154.167,511.5 140.833,511.5 127.5,511.5C 112.572,508.448 100.072,501.114 90,489.5C 65.616,458.117 41.616,426.45 18,394.5C 13.0787,385.736 9.74538,376.403 8,366.5C 7.33333,266.833 7.33333,167.167 8,67.5C 13.7295,39.7705 30.5629,23.6038 58.5,19C 144.679,12.8212 230.679,6.3212 316.5,-0.5 Z"/></g>
<g><path style="opacity:1" fill="#010101" d="M 320.5,29.5 C 336.312,27.6078 351.312,30.1078 365.5,37C 398.833,60.3333 432.167,83.6667 465.5,107C 468.762,109.592 471.262,112.759 473,116.5C 473.667,224.5 473.667,332.5 473,440.5C 471.32,450.051 466.153,456.885 457.5,461C 452.552,462.256 447.552,463.256 442.5,464C 347.148,469.334 251.815,475.001 156.5,481C 146.781,481.859 137.115,481.526 127.5,480C 122.446,477.611 117.946,474.445 114,470.5C 91.6667,441.5 69.3333,412.5 47,383.5C 43.5646,377.868 40.898,371.868 39,365.5C 37.8496,315.527 37.3496,265.527 37.5,215.5C 37.3449,166.13 37.8449,116.797 39,67.5C 43.1493,56.673 50.9826,50.5064 62.5,49C 148.672,42.7787 234.672,36.2787 320.5,29.5 Z"/></g>
<g><path style="opacity:1" fill="#fcfcfc" d="M 325.5,54.5 C 337.875,53.7416 349.542,56.2416 360.5,62C 377.615,74.1146 394.449,86.6146 411,99.5C 411.483,100.448 411.649,101.448 411.5,102.5C 326.146,107.174 240.813,112.341 155.5,118C 146.5,118.667 137.5,118.667 128.5,118C 125.382,116.941 122.382,115.608 119.5,114C 105.046,103.214 90.8794,92.0477 77,80.5C 76.3184,76.8198 77.8184,74.3198 81.5,73C 162.997,66.9652 244.33,60.7985 325.5,54.5 Z"/></g>
<g><path style="opacity:1" fill="#fcfcfc" d="M 415.5,132.5 C 422.175,132.334 428.842,132.5 435.5,133C 439.49,134.99 441.99,138.157 443,142.5C 443.667,233.833 443.667,325.167 443,416.5C 442.654,423.038 439.487,427.538 433.5,430C 338.581,436.75 243.581,442.584 148.5,447.5C 138.131,448.615 131.297,444.281 128,434.5C 127.333,342.833 127.333,251.167 128,159.5C 129.702,153.136 133.868,149.636 140.5,149C 232.348,143.861 324.015,138.361 415.5,132.5 Z"/></g>
<g><path style="opacity:1" fill="#010101" d="M 233.5,252.5 C 233.217,251.711 232.717,251.044 232,250.5C 231.169,294.335 231.335,338.002 232.5,381.5C 241.672,383.303 250.672,385.637 259.5,388.5C 257.426,397.4 251.759,402.233 242.5,403C 220.155,404.069 197.822,405.236 175.5,406.5C 174.634,400.731 176.634,396.231 181.5,393C 187.142,391.34 192.809,389.84 198.5,388.5C 198.5,330.833 198.5,273.167 198.5,215.5C 191.205,214.467 183.871,213.801 176.5,213.5C 174.959,204.413 178.293,197.913 186.5,194C 210.074,191.117 233.74,189.784 257.5,190C 287.209,235.252 317.042,280.419 347,325.5C 347.5,285.168 347.667,244.835 347.5,204.5C 339.578,203.931 331.744,202.931 324,201.5C 323.34,193.469 326.84,187.969 334.5,185C 356.147,183.462 377.814,182.295 399.5,181.5C 400.362,187.039 399.028,191.872 395.5,196C 389.741,197.884 383.908,199.384 378,200.5C 377.833,265.169 377.333,329.836 376.5,394.5C 365.322,400.968 353.322,403.801 340.5,403C 333.639,401.652 328.139,398.152 324,392.5C 293.216,346.219 263.049,299.553 233.5,252.5 Z"/></g>
<g><path style="opacity:1" fill="#7f7f7f" d="M 233.5,252.5 C 232.501,295.33 232.168,338.33 232.5,381.5C 231.335,338.002 231.169,294.335 232,250.5C 232.717,251.044 233.217,251.711 233.5,252.5 Z"/></g>
</svg>
