<svg width="1063" height="400" viewBox="0 0 1063 400" fill="none" xmlns="http://www.w3.org/2000/svg">
<path d="M46.0587 40.0921L239.728 25.7982C263.511 23.7538 269.63 25.1232 284.578 36.0061L346.399 79.5544C356.6 87.043 360 89.0818 360 97.2453V336.092C360 351.061 354.559 359.914 335.537 361.268L110.63 374.88C96.3505 375.562 89.5545 373.523 82.0765 363.99L36.5501 304.79C28.3923 293.893 25 285.741 25 276.202V63.8995C25 51.6583 30.4422 41.4476 46.0587 40.0921Z" fill="white"/>
<path fill-rule="evenodd" clip-rule="evenodd" d="M239.728 25.7982L46.0587 40.0921C30.4422 41.4476 25 51.6583 25 63.8995V276.202C25 285.741 28.3923 293.893 36.5501 304.79L82.0765 363.99C89.5545 373.523 96.3505 375.562 110.63 374.88L335.537 361.268C354.559 359.914 360 351.061 360 336.092V97.2453C360 89.5075 356.945 87.2723 347.94 80.6831C347.444 80.3206 346.931 79.9449 346.399 79.5544L284.578 36.0061C269.63 25.1232 263.511 23.7538 239.728 25.7982ZM115.723 93.3277C97.3623 94.5704 93.1902 94.8527 82.7632 86.3625L56.2474 65.2687C53.543 62.541 54.8994 59.1385 61.6891 58.4636L247.868 44.853C263.492 43.4891 271.644 48.9417 277.763 53.7027L309.695 76.8407C311.055 77.5183 314.446 81.596 310.368 81.596L118.094 93.1679C117.292 93.2215 116.516 93.274 115.763 93.325L115.737 93.3267L115.723 93.3277ZM94.3069 334.047V131.275C94.3069 122.431 97.0249 118.345 105.174 117.658L325.994 104.734C333.484 104.054 336.876 108.82 336.876 117.658V319.07C336.876 327.922 335.513 335.418 323.278 336.092L111.969 348.347C99.7402 349.021 94.3069 344.945 94.3069 334.047ZM302.911 142.152C304.266 148.282 302.911 154.407 296.784 155.096L286.602 157.129V306.828C277.763 311.59 269.611 314.313 262.818 314.313C251.943 314.313 249.219 310.908 241.073 300.707L174.476 195.916V297.304L195.55 302.071C195.55 302.071 195.55 314.313 178.548 314.313L131.676 317.038C130.314 314.313 131.676 307.514 136.43 306.151L148.662 302.754V168.701L131.679 167.337C130.317 161.207 133.709 152.368 143.228 151.682L193.511 148.285L262.818 254.439V160.531L245.148 158.498C243.791 151.004 249.219 145.563 256.015 144.888L302.911 142.152Z" fill="black"/>
<path d="M508.402 272.932V180.639H510L576.541 272.932H597.5V137.312H574.192V229.511H572.594L506.053 137.312H485V272.932H508.402Z" fill="black"/>
<path d="M663.346 275C694.079 275 712.782 254.887 712.782 221.523C712.782 188.252 693.985 168.045 663.346 168.045C632.801 168.045 613.91 188.346 613.91 221.523C613.91 254.887 632.519 275 663.346 275ZM663.346 255.451C647.086 255.451 637.782 243.045 637.782 221.523C637.782 200.094 647.086 187.594 663.346 187.594C679.511 187.594 688.816 200.094 688.816 221.523C688.816 243.045 679.605 255.451 663.346 255.451Z" fill="black"/>
<path d="M734.079 144.925V170.771H717.82V189.38H734.079V245.489C734.079 265.414 743.477 273.402 767.068 273.402C771.579 273.402 775.902 272.932 779.286 272.274V254.041C776.466 254.323 774.68 254.511 771.391 254.511C761.617 254.511 757.293 250 757.293 239.85V189.38H779.286V170.771H757.293V144.925H734.079Z" fill="black"/>
<path d="M793.252 272.932H816.466V170.113H793.252V272.932ZM804.812 153.102C812.519 153.102 818.722 146.899 818.722 139.098C818.722 131.297 812.519 125 804.812 125C797.199 125 790.902 131.297 790.902 139.098C790.902 146.899 797.199 153.102 804.812 153.102Z" fill="black"/>
<path d="M880.15 275C910.883 275 929.586 254.887 929.586 221.523C929.586 188.252 910.789 168.045 880.15 168.045C849.605 168.045 830.714 188.346 830.714 221.523C830.714 254.887 849.323 275 880.15 275ZM880.15 255.451C863.891 255.451 854.586 243.045 854.586 221.523C854.586 200.094 863.891 187.594 880.15 187.594C896.316 187.594 905.62 200.094 905.62 221.523C905.62 243.045 896.41 255.451 880.15 255.451Z" fill="black"/>
<path d="M943.459 272.932H966.767V213.064C966.767 197.932 975.508 188.346 989.417 188.346C1003.61 188.346 1010.19 196.241 1010.19 211.936V272.932H1033.5V206.391C1033.5 181.861 1021 168.045 998.064 168.045C982.744 168.045 972.406 175.094 967.519 186.56H965.921V170.113H943.459V272.932Z" fill="black"/>
</svg>
