<?xml version="1.0" encoding="utf-8"?>
<!-- Generator: Adobe Illustrator 19.2.1, SVG Export Plug-In . SVG Version: 6.00 Build 0)  -->
<svg version="1.1" id="layer" xmlns="http://www.w3.org/2000/svg" xmlns:xlink="http://www.w3.org/1999/xlink" x="0px" y="0px"
	 viewBox="0 0 652 652" style="enable-background:new 0 0 652 652;" xml:space="preserve">
<path d="M58.9,259.4c6.3,5.1,8.7,4.8,20.6,4l112.2-6.7c2.4,0,0.4-2.4-0.4-2.8l-18.6-13.5c-3.6-2.8-8.3-5.9-17.4-5.2l-108.6,7.9
	c-4,0.4-4.8,2.4-3.2,4L58.9,259.4z M65.6,285.5v118c0,6.3,3.2,8.7,10.3,8.3l123.3-7.1c7.1-0.4,7.9-4.8,7.9-9.9V277.6
	c0-5.1-2-7.9-6.3-7.5L72,277.6C67.2,278,65.6,280.4,65.6,285.5z M187.3,291.9c0.8,3.6,0,7.1-3.6,7.5l-5.9,1.2v87.1
	c-5.2,2.8-9.9,4.4-13.9,4.4c-6.3,0-7.9-2-12.7-7.9l-38.9-61v59l12.3,2.8c0,0,0,7.1-9.9,7.1l-27.3,1.6c-0.8-1.6,0-5.5,2.8-6.3l7.1-2
	v-78l-9.9-0.8c-0.8-3.6,1.2-8.7,6.7-9.1l29.3-2l40.4,61.8v-54.7l-10.3-1.2c-0.8-4.4,2.4-7.5,6.3-7.9L187.3,291.9z M37.5,232.5
	l113-8.3c13.9-1.2,17.4-0.4,26.2,5.9l36.1,25.3c6,4.4,7.9,5.5,7.9,10.3v139c0,8.7-3.2,13.9-14.3,14.7l-131.2,7.9
	c-8.3,0.4-12.3-0.8-16.7-6.3l-26.6-34.5c-4.8-6.3-6.7-11.1-6.7-16.6V246.3C25.2,239.2,28.4,233.3,37.5,232.5z"/>
<g>
	<path d="M329.2,393.4h-14l-40.4-76.3v76.3h-10.6v-85.3h17.6l36.9,69.6v-69.6h10.6V393.4z"/>
	<path d="M405.5,361.5c0,10.4-2.7,18.6-8,24.7c-5.3,6-12.5,9-21.5,9c-9,0-16.2-3-21.6-9c-5.3-6-8-14.3-8-24.7
		c0-10.4,2.7-18.7,8-24.7c5.3-6,12.5-9.1,21.6-9.1c9,0,16.1,3,21.5,9.1C402.8,342.8,405.5,351.1,405.5,361.5z M394.4,361.5
		c0-8.3-1.6-14.4-4.9-18.5c-3.2-4-7.7-6-13.5-6c-5.8,0-10.4,2-13.6,6c-3.2,4-4.8,10.2-4.8,18.5c0,8,1.6,14.1,4.9,18.2
		c3.2,4.1,7.8,6.2,13.6,6.2c5.7,0,10.2-2.1,13.5-6.2C392.8,375.7,394.4,369.6,394.4,361.5z"/>
	<path d="M455.4,392.9c-2,0.5-4.2,1-6.6,1.3c-2.4,0.3-4.5,0.5-6.4,0.5c-6.5,0-11.5-1.8-14.9-5.3c-3.4-3.5-5.1-9.1-5.1-16.9v-34h-7.3
		v-9h7.3v-18.4h10.8v18.4h22.2v9h-22.2v29.1c0,3.4,0.1,6,0.2,7.9c0.2,1.9,0.7,3.7,1.6,5.3c0.8,1.5,2,2.6,3.5,3.3
		c1.5,0.7,3.7,1.1,6.7,1.1c1.8,0,3.6-0.3,5.5-0.8c1.9-0.5,3.3-0.9,4.1-1.3h0.6V392.9z"/>
	<path d="M479.9,318.8h-12.1v-11.2h12.1V318.8z M479.2,393.4h-10.8v-64h10.8V393.4z"/>
	<path d="M555.1,361.5c0,10.4-2.7,18.6-8,24.7c-5.3,6-12.5,9-21.5,9c-9,0-16.2-3-21.6-9c-5.3-6-8-14.3-8-24.7
		c0-10.4,2.7-18.7,8-24.7c5.3-6,12.5-9.1,21.6-9.1c9,0,16.1,3,21.5,9.1C552.4,342.8,555.1,351.1,555.1,361.5z M543.9,361.5
		c0-8.3-1.6-14.4-4.9-18.5c-3.2-4-7.7-6-13.5-6c-5.8,0-10.4,2-13.6,6c-3.2,4-4.8,10.2-4.8,18.5c0,8,1.6,14.1,4.9,18.2
		c3.2,4.1,7.8,6.2,13.6,6.2c5.7,0,10.2-2.1,13.5-6.2C542.3,375.7,543.9,369.6,543.9,361.5z"/>
	<path d="M625.2,393.4h-10.8V357c0-2.9-0.2-5.7-0.5-8.3c-0.3-2.6-1-4.6-1.9-6c-1-1.6-2.3-2.8-4.1-3.6c-1.8-0.8-4.1-1.2-7-1.2
		c-2.9,0-6,0.7-9.2,2.2c-3.2,1.5-6.3,3.3-9.2,5.6v47.8h-10.8v-64h10.8v7.1c3.4-2.8,6.8-5,10.4-6.5c3.6-1.6,7.3-2.3,11.1-2.3
		c6.9,0,12.2,2.1,15.8,6.2c3.6,4.2,5.4,10.2,5.4,18V393.4z"/>
</g>
</svg>
