<svg id="Layer_1" data-name="Layer 1" xmlns="http://www.w3.org/2000/svg" viewBox="0 0 1061.73 1682.91"><defs><style>.cls-1{fill:#9554ff;}</style></defs><path class="cls-1" d="M1520.94,1413.77C1504.91,1309,1473.8,1210,1414,1121.41c-47.53-70.48-149.76-104.32-241.24-94.46-.64,0-1.39.14-2,.14a1636.68,1636.68,0,0,1-169.87,12.35A1636.61,1636.61,0,0,1,831,1027.09c-.61,0-1.35-.14-2-.14-91.51-9.86-193.74,24-241.27,94.46C528.05,1210,496.94,1309,480.88,1413.77c-9.62,63.46-14.34,126.71,1.84,189.67,6.81,26.18,16.18,55.55,45.58,60.73a41.14,41.14,0,0,0,7.52.74c27.17,1.24,41.86-19.62,54.95-40.51,11.49-18.27,26.42-64.7,26.42-64.7,104.18,188.57,244.33,281.15,383.74,281.75,139.36-.6,279.51-93.18,383.69-281.75,0,0,15,46.43,26.43,64.7,13.09,20.89,27.81,41.75,54.94,40.51a41.48,41.48,0,0,0,7.56-.74c29.37-5.18,38.77-34.55,45.55-60.73C1535.27,1540.48,1530.59,1477.23,1520.94,1413.77ZM935,1662.78l32.92-197.72H819.24l247.49-295.76-32.67,196.41,148.52,1Z" transform="translate(-470.67 -158.55)"/><path class="cls-1" d="M1123.88,609.78c-42.22-.37-49.88,35.31-49.51,69.88.38,33,11,65,49.39,64,25.68-.74,36.66-16.41,42.47-36a110.07,110.07,0,0,0,.06-61.92C1160.5,625.85,1149.56,609.94,1123.88,609.78Z" transform="translate(-470.67 -158.55)"/><path class="cls-1" d="M882,609.75c-42.23-.37-49.88,35.31-49.51,69.88.37,33,11,65,49.39,64,25.68-.74,36.65-16.41,42.47-36a110.07,110.07,0,0,0,0-61.92C918.61,625.81,907.68,609.92,882,609.75Z" transform="translate(-470.67 -158.55)"/><path class="cls-1" d="M1451.31,509.17c-19.51-10.75-41.22-16.92-57.39-34.33-86.31-92.83-195.7-138.52-319.28-156.19-64.1-9.15-71.87-25.43-37.82-78.28,16.92-26.43,21.75-49.88-4.18-70-21.71-16.92-46.79-15.82-67.29,4.08-21.85,21.11-14.94,41.72.74,65.41,34.09,51,25.44,69.28-36.78,78.54C806.08,336.67,696.58,381.76,609,473.49,598.18,485,582.75,492.61,568.53,500,451.26,561.63,438,665.46,536.18,756.84c6.06,5.53,13.08,10.5,17.31,17.27C656.07,942.78,819.91,985.59,986.2,994.39c167.68-3.72,306.94-40.76,417.22-154.73,28.38-29.37,45-66.9,77.26-94.67C1561.2,676,1544.88,560.39,1451.31,509.17Zm-210.88,301c-60.87,37.17-144.09,57.54-213.47,57.68-107.9,1.34-189.77-13.84-264.23-57.89-107.16-63.6-114.07-168.81-16.88-244.72,128.62-100.64,379.9-101.13,509.76-1C1359,643.72,1352.91,741.51,1240.43,810.15Z" transform="translate(-470.67 -158.55)"/></svg>