<svg id="svg" version="1.1" xmlns="http://www.w3.org/2000/svg" style="display: block;" viewBox="0 0 128 128"><path d="M0 0 C42.24 0 84.48 0 128 0 C128 42.24 128 84.48 128 128 C85.76 128 43.52 128 0 128 C0 85.76 0 43.52 0 0 Z " transform="translate(0,0)" style="fill: #FEFEFE;"/><path d="M0 0 C4.50871015 0.72968904 7.28474359 2.32155933 11 5 C9.94124926 8.40312738 8.99097846 11.01353231 7 14 C6.2936576 19.48691059 6.2936576 19.48691059 8.6015625 24.20703125 C11.72583335 26.54260181 13.882905 26.5953162 17.75 26.75 C18.92046875 26.80671875 20.0909375 26.8634375 21.296875 26.921875 C22.18890625 26.94765625 23.0809375 26.9734375 24 27 C24 30.96 24 34.92 24 39 C-9.91900101 46.65912926 -9.91900101 46.65912926 -17.8046875 41.9140625 C-19.1875 40.5625 -19.1875 40.5625 -21 38 C-21.33 37.67 -21.66 37.34 -22 37 C-22.84317982 31.12812613 -21.31283633 28.2801068 -17.83276367 23.59130859 C-16.95648315 22.46329834 -16.95648315 22.46329834 -16.0625 21.3125 C-15.47509033 20.52955566 -14.88768066 19.74661133 -14.2824707 18.93994141 C-13.0961581 17.36196607 -11.90277948 15.78927641 -10.70214844 14.22216797 C-9.1630273 12.2128334 -7.64288031 10.19136452 -6.1328125 8.16015625 C-4.10236294 5.42952467 -2.05697461 2.71074173 0 0 Z " transform="translate(36,63)" style="fill: #F76F6F;"/><path d="M0 0 C6.66121533 6.06317804 9.49615562 14.29539722 12.875 22.4375 C13.47278641 23.85140751 14.07173542 25.26482407 14.671875 26.67773438 C16.12803696 30.11293013 17.56833212 33.55451206 19 37 C16.18045442 39.89138113 13.6613124 42.2162837 10 44 C6.35167549 42.78389183 5.88114477 41.68563692 3.875 38.5 C2.13228203 35.5968522 2.13228203 35.5968522 0 33 C-5.1272159 32.35682597 -5.1272159 32.35682597 -9.58984375 34.25390625 C-11.12564118 36.15557232 -12.41986438 38.09761425 -13.6875 40.1875 C-14.12449219 40.90292969 -14.56148437 41.61835937 -15.01171875 42.35546875 C-15.33785156 42.89816406 -15.66398437 43.44085938 -16 44 C-19.7910119 42.55049545 -23.3874638 40.84827434 -27 39 C-24.55406232 31.12898948 -21.38896992 23.66121688 -18.0625 16.125 C-17.53180744 14.89066524 -17.00120788 13.65629049 -16.47070312 12.421875 C-15.95572266 11.25398438 -15.44074219 10.08609375 -14.91015625 8.8828125 C-14.21611694 7.29557373 -14.21611694 7.29557373 -13.50805664 5.67626953 C-10.4620454 0.27067211 -6.10194771 -1.56576873 0 0 Z " transform="translate(68,17)" style="fill: #6E93E1;"/><path d="M0 0 C1.62817383 1.69897461 1.62817383 1.69897461 3.20703125 3.90234375 C3.79081543 4.70583252 4.37459961 5.50932129 4.97607422 6.3371582 C5.58209473 7.195271 6.18811523 8.05338379 6.8125 8.9375 C7.74473389 10.23723755 7.74473389 10.23723755 8.69580078 11.56323242 C9.92101017 13.27386881 11.14216159 14.98742021 12.35888672 16.70410156 C13.70293016 18.58440274 15.07019963 20.43672986 16.47265625 22.2734375 C17.10042969 23.11132812 17.72820312 23.94921875 18.375 24.8125 C18.89835937 25.49957031 19.42171875 26.18664062 19.9609375 26.89453125 C21.36811239 29.74591196 21.2957194 31.85954329 21 35 C17.87692308 40.70769231 17.87692308 40.70769231 14 42 C11.50142172 41.9616511 9.05251473 41.85771862 6.5625 41.6875 C5.82765381 41.64044922 5.09280762 41.59339844 4.33569336 41.54492188 C-1.76456994 41.13173377 -7.85199486 40.58973846 -13.9375 40 C-15.24255493 39.87564575 -15.24255493 39.87564575 -16.57397461 39.7487793 C-17.38358643 39.66668213 -18.19319824 39.58458496 -19.02734375 39.5 C-19.74656006 39.4278125 -20.46577637 39.355625 -21.20678711 39.28125 C-23 39 -23 39 -25 38 C-25 34.04 -25 30.08 -25 26 C-24.10796875 25.97421875 -23.2159375 25.9484375 -22.296875 25.921875 C-21.12640625 25.86515625 -19.9559375 25.8084375 -18.75 25.75 C-17.00976562 25.68039063 -17.00976562 25.68039063 -15.234375 25.609375 C-11.47654845 24.90137869 -10.24252334 24.053533 -8 21 C-7.36499155 16.15806059 -7.52513058 13.36045598 -10.0625 9.1875 C-10.701875 8.135625 -11.34125 7.08375 -12 6 C-10.90012224 2.70036671 -10.54413252 2.38935228 -7.6875 0.75 C-7.09324219 0.39421875 -6.49898437 0.0384375 -5.88671875 -0.328125 C-3.43897896 -1.19978389 -2.4208195 -0.91355428 0 0 Z " transform="translate(93,64)" style="fill: #F9B805;"/></svg>