<?xml version="1.0" encoding="UTF-8"?>
<svg version="1.1" xmlns="http://www.w3.org/2000/svg" width="1413" height="313">
<path d="M0 0 C30.4228796 26.87249168 49.41206077 62.56628282 52.71875 103.3203125 C54.68194539 144.40691625 43.02374693 184.40389923 15.30078125 215.41625977 C-9.67392687 242.60193578 -43.90583321 262.38007012 -81.28125 265.3203125 C-98.2647547 265.94473265 -115.71632476 266.55830155 -132.28125 262.3203125 C-133.43560547 262.03824951 -133.43560547 262.03824951 -134.61328125 261.75048828 C-152.75495662 257.20421915 -170.27932346 249.57695918 -185.28125 238.3203125 C-185.82797363 237.91731934 -186.37469727 237.51432617 -186.93798828 237.09912109 C-219.1502249 213.24717535 -240.56463336 178.64648968 -247.09375 138.9453125 C-249.83061597 120.24615955 -249.4350187 100.76697035 -245.28125 82.3203125 C-245.11496094 81.57523437 -244.94867188 80.83015625 -244.77734375 80.0625 C-238.61447605 53.4936926 -224.96503937 30.05583836 -206.28125 10.3203125 C-205.46140625 9.43601563 -204.6415625 8.55171875 -203.796875 7.640625 C-150.66123557 -47.85310494 -57.4467468 -49.33037744 0 0 Z " fill="#E4012B" transform="translate(248.28125,35.6796875)"/>
<path d="M0 0 C3.09773311 0.0124407 6.15755463 0.10113131 9.25 0.25 C10.22074463 0.29664795 11.19148926 0.3432959 12.19165039 0.39135742 C32.16127566 1.46549902 51.97722516 3.73464452 71.59570312 7.62597656 C73.98787989 8.05738564 73.98787989 8.05738564 76.38867188 8.02246094 C80.0356298 8.07324136 82.21327911 8.41722103 85.1887207 10.62133789 C88.2476654 13.91446731 89.96092306 16.41596067 90.07373047 20.98876953 C89.56856204 24.26701191 88.82541618 27.36715739 87.9375 30.5625 C87.66744141 31.66658203 87.39738281 32.77066406 87.11914062 33.90820312 C86.45058709 36.61760428 85.74414345 39.31056679 85 42 C76.8464198 42.24400623 68.90871925 41.46914621 60.8125 40.5625 C58.20981226 40.28479587 55.60694885 40.00873294 53.00390625 39.734375 C51.77687988 39.60482422 50.54985352 39.47527344 49.28564453 39.34179688 C34.85735194 37.84085991 20.4922528 37.89689306 6 38 C3.69 45.26 1.38 52.52 -1 60 C1.97 60 4.94 60 8 60 C9.62897846 60.12882228 11.25635229 60.29169287 12.875 60.515625 C14.12180542 60.68735229 14.12180542 60.68735229 15.39379883 60.86254883 C16.25384521 60.99040771 17.1138916 61.1182666 18 61.25 C19.37031372 61.4524231 19.37031372 61.4524231 20.76831055 61.65893555 C43.63575062 65.17072809 65.23032093 71.52022802 83 87 C83.62648438 87.51949219 84.25296875 88.03898437 84.8984375 88.57421875 C94.21153213 96.93914764 99.01125166 109.14632014 102 121 C102.1750708 121.6381665 102.3501416 122.27633301 102.53051758 122.93383789 C106.29411593 139.4971935 101.44788868 160.21242333 92.95703125 174.41796875 C79.94175519 194.36427134 58.53658429 207.27642206 35.3996582 212.33789062 C19.00156596 215.57569384 1.38174654 215.08464802 -15 212 C-16.13405273 211.79866455 -16.13405273 211.79866455 -17.29101562 211.59326172 C-19.74155257 211.15104852 -22.18317221 210.67537474 -24.625 210.1875 C-25.38409668 210.04666992 -26.14319336 209.90583984 -26.92529297 209.76074219 C-28.00254639 209.52919434 -28.00254639 209.52919434 -29.1015625 209.29296875 C-30.05023193 209.09997192 -30.05023193 209.09997192 -31.01806641 208.90307617 C-36.24105791 206.52319867 -38.77185052 202.04171303 -40.9296875 196.96484375 C-41.414375 195.82595703 -41.8990625 194.68707031 -42.3984375 193.51367188 C-42.88570312 192.33353516 -43.37296875 191.15339844 -43.875 189.9375 C-44.38546875 188.75349609 -44.8959375 187.56949219 -45.421875 186.34960938 C-49.05287511 177.68918344 -49.05287511 177.68918344 -48.83569336 174.85839844 C-47.80334092 172.56267342 -46.53680574 171.14841726 -44.76171875 169.36328125 C-43.77848633 168.37424805 -43.77848633 168.37424805 -42.77539062 167.36523438 C-42.08638672 166.68783203 -41.39738281 166.01042969 -40.6875 165.3125 C-40.01009766 164.62349609 -39.33269531 163.93449219 -38.63476562 163.22460938 C-37.97541016 162.56912109 -37.31605469 161.91363281 -36.63671875 161.23828125 C-36.03561279 160.64055908 -35.43450684 160.04283691 -34.81518555 159.42700195 C-32.86050668 157.8903378 -31.4300581 157.40796596 -29 157 C-24.74266313 162.64798559 -20.72769718 168.36635892 -16.95996094 174.34887695 C-9.72787079 185.80474022 -2.86355897 196.60310944 10.86987305 200.53540039 C22.05196985 202.97431503 35.2605246 202.11014258 45 196 C47.92607028 193.87327011 50.49350119 191.60383857 53 189 C54.11375 187.88625 54.11375 187.88625 55.25 186.75 C59.80976893 179.58464882 62.42841955 171.48124105 61 163 C57.75973603 151.26962132 50.91518549 142.84160952 40.4375 136.75 C32.94887001 132.65451295 25.12740149 129.57026747 17 127 C16.31389648 126.7824707 15.62779297 126.56494141 14.92089844 126.34082031 C-2.5483843 121.01216508 -20.9421385 119.29486553 -39 117 C-37.06079016 109.62044073 -34.88430617 102.3629945 -32.46240234 95.12841797 C-31.95209221 93.59223061 -31.95209221 93.59223061 -31.43147278 92.02500916 C-30.31928676 88.67973067 -29.20277696 85.33591501 -28.0859375 81.9921875 C-27.30773687 79.65623719 -26.52971433 77.32022755 -25.75186157 74.98416138 C-24.12818952 70.11020796 -22.50236579 65.23697913 -20.875 60.36425781 C-18.78484565 54.10524936 -16.70013268 47.84444415 -14.61699486 41.58309746 C-13.01499374 36.76988955 -11.41015257 31.9576324 -9.80443192 27.14566422 C-9.03402138 24.83576985 -8.26450722 22.52557631 -7.49589157 20.21508408 C-6.42642227 17.00162759 -5.35314658 13.78946819 -4.27880859 10.57763672 C-3.80035744 9.13621056 -3.80035744 9.13621056 -3.3122406 7.66566467 C-3.02070602 6.79670059 -2.72917145 5.92773651 -2.42880249 5.03244019 C-2.1755187 4.27334288 -1.92223492 3.51424557 -1.66127586 2.73214531 C-1 1 -1 1 0 0 Z " fill="#FEFDFD" transform="translate(185,47)"/>
<path d="M0 0 C1.05896484 -0.04125 2.11792969 -0.0825 3.20898438 -0.125 C14.22188114 -0.2335683 20.99575944 4.93385115 29.0625 11.875 C29.58972656 12.32488281 30.11695313 12.77476563 30.66015625 13.23828125 C31.92485318 14.31902226 33.18206931 15.40850871 34.4375 16.5 C33.92996134 21.03510348 32.27363983 23.45212311 29.3125 26.875 C28.56742188 27.76960938 27.82234375 28.66421875 27.0546875 29.5859375 C24.4375 31.5 24.4375 31.5 21.19921875 31.55859375 C16.60221264 30.2649399 12.61563392 28.35286588 8.375 26.1875 C-6.89946994 18.6459171 -6.89946994 18.6459171 -23.5625 17.5 C-27.98733445 19.75416094 -30.43332141 22.01751875 -32.5625 26.5 C-33.38595849 29.29634428 -33.72824903 31.90191192 -33.85961914 34.80957031 C-33.89958511 35.65013977 -33.93955109 36.49070923 -33.98072815 37.35675049 C-34.03860756 38.70383087 -34.03860756 38.70383087 -34.09765625 40.078125 C-34.14063339 41.0046991 -34.18361053 41.93127319 -34.22789001 42.88592529 C-34.36405686 45.84045768 -34.49459915 48.79520806 -34.625 51.75 C-34.7164261 53.75522527 -34.80821863 55.76043387 -34.90039062 57.765625 C-35.12534343 62.67690013 -35.34525276 67.58837823 -35.5625 72.5 C-34.54486572 72.4285376 -33.52723145 72.3570752 -32.47875977 72.28344727 C-21.80502476 71.57264116 -11.19445672 71.37609753 -0.5 71.4375 C1.0605454 71.44253664 2.62109242 71.44709563 4.18164062 71.45117188 C7.93362844 71.46197954 11.68555306 71.47911837 15.4375 71.5 C15.4375 75.46 15.4375 79.42 15.4375 83.5 C4.12311801 91.45736756 -6.35618283 92.03745685 -19.73046875 91.75 C-21.36793864 91.7298938 -23.00543251 91.71165035 -24.64294434 91.6953125 C-28.6167319 91.65166646 -32.58934487 91.5828716 -36.5625 91.5 C-36.45349956 100.71668748 -36.3406118 109.93331771 -36.22316074 119.14990139 C-36.1686991 123.43251562 -36.1154294 127.71513678 -36.06518555 131.99780273 C-35.79423537 155.92558356 -35.79423537 155.92558356 -35.09375 179.84375 C-35.05717789 180.81191147 -35.02060577 181.78007294 -34.98292542 182.77757263 C-34.65241681 190.42837757 -33.82749486 197.94687534 -32.5625 205.5 C-22.81400532 209.70916312 -12.08269365 210.94123514 -1.5625 211.5 C-1.5625 214.8 -1.5625 218.1 -1.5625 221.5 C-23.23437577 222.31524298 -44.62444681 220.10240857 -66.14135742 217.75915527 C-68.36606985 217.52102557 -70.59157498 217.29685571 -72.81835938 217.07910156 C-93.56847554 214.97843292 -93.56847554 214.97843292 -99.125 208.3125 C-101.5625 204.16084788 -101.5625 204.16084788 -101.5625 202.5 C-100.85222656 202.36722656 -100.14195313 202.23445312 -99.41015625 202.09765625 C-98.03150391 201.83275391 -98.03150391 201.83275391 -96.625 201.5625 C-95.70847656 201.38847656 -94.79195312 201.21445313 -93.84765625 201.03515625 C-91.60960156 200.72285012 -91.60960156 200.72285012 -90.5625 199.5 C-89.78481831 188.08797328 -91.07969245 176.58484663 -92.02734375 165.22265625 C-92.20720743 162.981889 -92.38554532 160.74099885 -92.5625 158.5 C-92.65732666 157.35063965 -92.75215332 156.2012793 -92.84985352 155.01708984 C-93.78174104 142.35102677 -93.67391498 129.69389949 -93.625 117 C-93.61997231 114.71224057 -93.61541166 112.42448006 -93.61132812 110.13671875 C-93.60042916 104.59111874 -93.58323528 99.04557159 -93.5625 93.5 C-100.1625 93.5 -106.7625 93.5 -113.5625 93.5 C-113.583125 91.06625 -113.60375 88.6325 -113.625 86.125 C-113.634104 85.36010254 -113.64320801 84.59520508 -113.65258789 83.80712891 C-113.67361111 78.72222222 -113.67361111 78.72222222 -112.5625 76.5 C-102.1675 76.005 -102.1675 76.005 -91.5625 75.5 C-91.624375 73.458125 -91.68625 71.41625 -91.75 69.3125 C-91.70010446 52.81370901 -86.17765348 40.1161578 -74.6640625 28.41796875 C-55.07033957 9.48070431 -26.8594886 0.26252402 0 0 Z " fill="#FEFCFD" transform="translate(130.5625,37.5)"/>
<path d="M0 0 C65.78155941 0 65.78155941 0 78.8984375 12.6171875 C83.31317096 17.62274031 86.08802237 23.48858395 86.17700195 30.22094727 C86.19625481 31.49356163 86.19625481 31.49356163 86.21589661 32.79188538 C86.22328354 33.70747726 86.23067047 34.62306915 86.23828125 35.56640625 C86.246353 36.51507065 86.25442474 37.46373505 86.26274109 38.44114685 C86.27657708 40.45268938 86.28730141 42.46425534 86.29516602 44.47583008 C86.30665202 46.52114804 86.32704981 48.56643682 86.35668945 50.61157227 C86.39965057 53.57588964 86.41557786 56.539315 86.42578125 59.50390625 C86.44328934 60.40532852 86.46079742 61.30675079 86.47883606 62.23548889 C86.45347651 69.78098137 84.57295698 76.33157006 80.2109375 82.55078125 C59.10721866 102.80137103 26.49984146 96 0 96 C0 64.32 0 32.64 0 0 Z M21 20 C21 38.48 21 56.96 21 76 C41.0042287 77.78997508 41.0042287 77.78997508 60.15625 71.3515625 C60.5996875 70.78179687 61.043125 70.21203125 61.5 69.625 C61.9640625 69.06039062 62.428125 68.49578125 62.90625 67.9140625 C66.21243102 62.12824572 65.18394928 54.55179484 65.1875 48.125 C65.20586914 46.38669922 65.20586914 46.38669922 65.22460938 44.61328125 C65.46336984 34.78882825 65.46336984 34.78882825 61.51953125 26.07421875 C60.95621094 25.61660156 60.39289063 25.15898438 59.8125 24.6875 C58.98685547 23.98173828 58.98685547 23.98173828 58.14453125 23.26171875 C47.24836426 16.85104127 32.2649816 20 21 20 Z " fill="#222222" transform="translate(450,41)"/>
<path d="M0 0 C7.942934 8.21371584 8.85016099 14.73882027 8.71875 25.77734375 C1.78875 25.77734375 -5.14125 25.77734375 -12.28125 25.77734375 C-13.27125 22.80734375 -14.26125 19.83734375 -15.28125 16.77734375 C-22.78183727 11.93825519 -30.97112752 10.42375281 -39.7578125 12.30859375 C-43.19358367 13.33820596 -45.72960434 14.30450461 -48.46875 16.65234375 C-49.51951346 18.80794269 -49.51951346 18.80794269 -48.703125 21.28125 C-47.47794547 23.98769968 -47.47794547 23.98769968 -44.69140625 25 C-43.58667969 25.27714844 -42.48195313 25.55429688 -41.34375 25.83984375 C-39.46042969 26.32324219 -39.46042969 26.32324219 -37.5390625 26.81640625 C-33.76178484 27.69356022 -29.96506345 28.46201136 -26.16308594 29.22363281 C-13.02138338 31.86457424 -0.60385682 34.51455905 8.08984375 45.51171875 C12.21442681 52.19097436 11.64508564 60.69903943 10.28125 68.17578125 C8.03262125 75.28706967 2.73359943 80.84942833 -3.59375 84.58984375 C-18.54671325 92.07893327 -35.78988756 92.30164169 -51.71484375 87.80859375 C-60.17891938 84.61704421 -67.56076618 79.66464089 -71.78125 71.46484375 C-74.36203675 65.12040966 -74.36160381 60.6074174 -74.28125 53.77734375 C-67.35125 53.77734375 -60.42125 53.77734375 -53.28125 53.77734375 C-52.29125 56.74734375 -51.30125 59.71734375 -50.28125 62.77734375 C-45.86514456 68.02146896 -38.44549495 69.27546406 -31.8828125 70.06640625 C-25.30298673 70.32036444 -19.03376145 68.91054012 -13.78125 64.83984375 C-12.18310139 62.64238941 -11.36370297 61.49829164 -11.28125 58.77734375 C-12.67323136 55.81302464 -13.60546169 54.13277567 -16.5390625 52.58984375 C-23.16715631 50.71158283 -29.75391746 49.28486468 -36.52563477 48.02416992 C-60.96282298 43.44455706 -60.96282298 43.44455706 -67.96875 34.58984375 C-72.41435131 27.94111259 -71.95593535 20.47030771 -71.28125 12.77734375 C-68.97561989 4.83687771 -64.28749088 -0.42286968 -57.171875 -4.40234375 C-40.55166229 -12.04317979 -14.42561723 -12.01116011 0 0 Z " fill="#222222" transform="translate(933.28125,189.22265625)"/>
<path d="M0 0 C5.13876622 4.91614819 9.06540263 11.45936138 9.26171875 18.64453125 C9.25602636 20.01566326 9.24307759 21.38676813 9.2265625 22.7578125 C9.2059375 25.1709375 9.1853125 27.5840625 9.1640625 30.0703125 C1.9040625 30.0703125 -5.3559375 30.0703125 -12.8359375 30.0703125 C-13.2071875 28.1934375 -13.5784375 26.3165625 -13.9609375 24.3828125 C-15.25052446 19.07957869 -15.25052446 19.07957869 -18.5859375 14.9453125 C-25.87692836 10.73897162 -33.33684184 9.97528909 -41.5234375 11.60546875 C-46.33533025 12.91585026 -50.44233388 14.25250843 -53.8359375 18.0703125 C-55.48710946 22.84198124 -56.09190347 27.03657896 -56.1015625 32.0703125 C-56.10414063 33.3696875 -56.10671875 34.6690625 -56.109375 36.0078125 C-56.10518555 36.67554688 -56.10099609 37.34328125 -56.09667969 38.03125 C-56.08596334 40.06540744 -56.0966126 42.098682 -56.109375 44.1328125 C-56.10550781 46.081875 -56.10550781 46.081875 -56.1015625 48.0703125 C-56.09930664 49.2459375 -56.09705078 50.4215625 -56.09472656 51.6328125 C-55.73201124 56.45076702 -55.09890986 60.6494686 -51.8359375 64.3203125 C-43.16727543 69.37703204 -34.23085499 70.34227424 -24.5859375 67.9453125 C-19.8254856 66.34124719 -17.42036455 64.51229649 -14.8359375 60.0703125 C-14.1759375 56.7703125 -13.5159375 53.4703125 -12.8359375 50.0703125 C-5.5759375 50.0703125 1.6840625 50.0703125 9.1640625 50.0703125 C9.74561553 60.53826705 9.78004555 68.33875348 3.1640625 77.0703125 C-6.16558966 86.35423107 -18.23731688 89.52889287 -31.09375 90.1015625 C-45.4216598 89.98191398 -59.42920425 88.16997176 -70.21875 77.828125 C-77.15784928 70.28562578 -78.1497885 63.13251964 -78.171875 53.30078125 C-78.1785318 52.26520584 -78.1851886 51.22963043 -78.19204712 50.16267395 C-78.20214878 47.97654998 -78.20686491 45.79039533 -78.20654297 43.60424805 C-78.21090933 40.27926162 -78.24723788 36.95561067 -78.28515625 33.63085938 C-78.29102646 31.50000451 -78.29499448 29.36914338 -78.296875 27.23828125 C-78.31124603 26.25361374 -78.32561707 25.26894623 -78.34042358 24.25444031 C-78.27993226 15.00416915 -75.32427199 7.71863095 -69.01953125 0.92578125 C-51.06164182 -14.33360601 -18.37122224 -13.82329752 0 0 Z " fill="#222222" transform="translate(526.8359375,189.9296875)"/>
<path d="M0 0 C6.6 0 13.2 0 20 0 C20 33.99 20 67.98 20 103 C6 103 6 103 2 100 C1.113125 100.61875 0.22625 101.2375 -0.6875 101.875 C-10.79488135 107.53513356 -23.09523312 106.48477949 -34 104 C-40.8466412 101.27156239 -45.34356583 96.3329707 -48.609375 89.76171875 C-50.71114278 83.93163251 -50.48439903 77.82046115 -50.44604492 71.70117188 C-50.43754404 69.63570025 -50.46634641 67.57301159 -50.49804688 65.5078125 C-50.54689298 56.55746998 -49.75194561 48.84757679 -44.140625 41.59765625 C-35.14123585 34.29030101 -26.07331243 32.26524793 -14.48046875 33.3203125 C-9.4602865 34.03023726 -5.56868901 34.7156555 -1 37 C-0.67 24.79 -0.34 12.58 0 0 Z M-27 57 C-31.13725053 63.2058758 -30.59534646 70.69853329 -29.3125 77.8125 C-27.54746985 82.0990018 -25.07656843 83.96171578 -21 86 C-15.91616 86.51428564 -10.70989806 86.78129566 -6 84.5625 C-1.11315003 80.38831565 -0.29105105 75.71647646 0.375 69.5 C-0.19478667 64.1819911 -1.12008611 58.87991389 -5 55 C-12.27982436 51.36008782 -20.84168351 51.47330571 -27 57 Z " fill="#222222" transform="translate(792,174)"/>
<path d="M0 0 C6.6 0 13.2 0 20 0 C20 33.99 20 67.98 20 103 C6 103 6 103 2 100 C1.113125 100.61875 0.22625 101.2375 -0.6875 101.875 C-10.79488135 107.53513356 -23.09523312 106.48477949 -34 104 C-40.8466412 101.27156239 -45.34356583 96.3329707 -48.609375 89.76171875 C-50.71114278 83.93163251 -50.48439903 77.82046115 -50.44604492 71.70117188 C-50.43754404 69.63570025 -50.46634641 67.57301159 -50.49804688 65.5078125 C-50.54689298 56.55746998 -49.75194561 48.84757679 -44.140625 41.59765625 C-35.14123585 34.29030101 -26.07331243 32.26524793 -14.48046875 33.3203125 C-9.4602865 34.03023726 -5.56868901 34.7156555 -1 37 C-0.67 24.79 -0.34 12.58 0 0 Z M-27 57 C-31.13725053 63.2058758 -30.59534646 70.69853329 -29.3125 77.8125 C-27.54746985 82.0990018 -25.07656843 83.96171578 -21 86 C-15.91616 86.51428564 -10.70989806 86.78129566 -6 84.5625 C-1.11315003 80.38831565 -0.29105105 75.71647646 0.375 69.5 C-0.19478667 64.1819911 -1.12008611 58.87991389 -5 55 C-12.27982436 51.36008782 -20.84168351 51.47330571 -27 57 Z " fill="#222222" transform="translate(1137,33)"/>
<path d="M0 0 C6.6 0 13.2 0 20 0 C20.495 18.315 20.495 18.315 21 37 C23.64 36.01 26.28 35.02 29 34 C38.40282565 32.16620285 48.98330679 32.33292702 57.4375 37.25 C63.44728813 41.52667495 67.29627039 46.79644122 69 54 C69.39697676 58.43828326 69.47394531 62.84739992 69.44604492 67.29882812 C69.43754404 69.36429975 69.46634641 71.42698841 69.49804688 73.4921875 C69.54689298 82.44253002 68.75194561 90.15242321 63.140625 97.40234375 C54.23962217 104.62981092 45.31996517 106.65900714 33.84375 105.75 C27.50817487 104.85406008 22.53614091 103.19392745 17 100 C16.01 100.99 15.02 101.98 14 103 C9.38 103 4.76 103 0 103 C0 69.01 0 35.02 0 0 Z M23 57 C19.56837558 63.78466202 19.12368417 70.38507975 21.125 77.6875 C22.28266103 80.79937782 23.11214782 82.11495151 25.5 84.5625 C30.4143692 86.58090163 34.75978171 86.78642206 40 86 C43.91075925 84.01031547 45.57689098 82.63466354 48 79 C49.99403752 72.22027245 49.67631393 64.49961955 47 58 C41.98340583 53.23423554 38.50881362 52.62846104 31.765625 52.734375 C27.73788463 53.12122012 25.82705366 54.10227 23 57 Z " fill="#222222" transform="translate(798,33)"/>
<path d="M0 0 C6.96385207 4.32239094 12.35539246 8.21461489 15.0390625 16.265625 C15.0390625 23.525625 15.0390625 30.785625 15.0390625 38.265625 C-0.1409375 38.265625 -15.3209375 38.265625 -30.9609375 38.265625 C-28.29081566 46.00606933 -28.29081566 46.00606933 -22.9609375 50.265625 C-18.11857088 51.84220948 -14.59892755 50.83757081 -9.9140625 49.34765625 C-7.47537368 48.23727267 -7.47537368 48.23727267 -5.9609375 44.265625 C0.9690625 44.265625 7.8990625 44.265625 15.0390625 44.265625 C15.0390625 51.17343544 14.94111926 54.00792403 10.4453125 59.0546875 C1.52436438 67.64658425 -8.23645515 68.91339016 -20.17919922 68.80224609 C-29.96193478 68.44666949 -37.45506041 66.24859137 -44.4609375 59.140625 C-53.22939724 47.90603596 -53.24588381 34.98614647 -51.9609375 21.265625 C-50.60148401 14.46108776 -48.038788 9.00495213 -42.9609375 4.265625 C-30.98518539 -3.6738551 -13.33954807 -6.69334214 0 0 Z M-26.9609375 16.265625 C-29.08449317 18.08834427 -29.08449317 18.08834427 -29.9609375 20.265625 C-29.9609375 21.255625 -29.9609375 22.245625 -29.9609375 23.265625 C-22.0409375 23.265625 -14.1209375 23.265625 -5.9609375 23.265625 C-6.47110671 18.36209388 -6.47110671 18.36209388 -9.1484375 16.015625 C-15.38334318 12.13612813 -20.60277665 13.2112144 -26.9609375 16.265625 Z " fill="#222222" transform="translate(1323.9609375,210.734375)"/>
<path d="M0 0 C6.96385207 4.32239094 12.35539246 8.21461489 15.0390625 16.265625 C15.0390625 23.525625 15.0390625 30.785625 15.0390625 38.265625 C-0.1409375 38.265625 -15.3209375 38.265625 -30.9609375 38.265625 C-28.29081566 46.00606933 -28.29081566 46.00606933 -22.9609375 50.265625 C-18.11857088 51.84220948 -14.59892755 50.83757081 -9.9140625 49.34765625 C-7.47537368 48.23727267 -7.47537368 48.23727267 -5.9609375 44.265625 C0.9690625 44.265625 7.8990625 44.265625 15.0390625 44.265625 C15.0390625 51.17343544 14.94111926 54.00792403 10.4453125 59.0546875 C1.52436438 67.64658425 -8.23645515 68.91339016 -20.17919922 68.80224609 C-29.96193478 68.44666949 -37.45506041 66.24859137 -44.4609375 59.140625 C-53.22939724 47.90603596 -53.24588381 34.98614647 -51.9609375 21.265625 C-50.60148401 14.46108776 -48.038788 9.00495213 -42.9609375 4.265625 C-30.98518539 -3.6738551 -13.33954807 -6.69334214 0 0 Z M-26.9609375 16.265625 C-29.08449317 18.08834427 -29.08449317 18.08834427 -29.9609375 20.265625 C-29.9609375 21.255625 -29.9609375 22.245625 -29.9609375 23.265625 C-22.0409375 23.265625 -14.1209375 23.265625 -5.9609375 23.265625 C-6.47110671 18.36209388 -6.47110671 18.36209388 -9.1484375 16.015625 C-15.38334318 12.13612813 -20.60277665 13.2112144 -26.9609375 16.265625 Z " fill="#222222" transform="translate(1005.9609375,210.734375)"/>
<path d="M0 0 C6.96385207 4.32239094 12.35539246 8.21461489 15.0390625 16.265625 C15.0390625 23.525625 15.0390625 30.785625 15.0390625 38.265625 C-0.1409375 38.265625 -15.3209375 38.265625 -30.9609375 38.265625 C-28.29081566 46.00606933 -28.29081566 46.00606933 -22.9609375 50.265625 C-18.11857088 51.84220948 -14.59892755 50.83757081 -9.9140625 49.34765625 C-7.47537368 48.23727267 -7.47537368 48.23727267 -5.9609375 44.265625 C0.9690625 44.265625 7.8990625 44.265625 15.0390625 44.265625 C15.0390625 51.17343544 14.94111926 54.00792403 10.4453125 59.0546875 C1.52436438 67.64658425 -8.23645515 68.91339016 -20.17919922 68.80224609 C-29.96193478 68.44666949 -37.45506041 66.24859137 -44.4609375 59.140625 C-53.22939724 47.90603596 -53.24588381 34.98614647 -51.9609375 21.265625 C-50.60148401 14.46108776 -48.038788 9.00495213 -42.9609375 4.265625 C-30.98518539 -3.6738551 -13.33954807 -6.69334214 0 0 Z M-26.9609375 16.265625 C-29.08449317 18.08834427 -29.08449317 18.08834427 -29.9609375 20.265625 C-29.9609375 21.255625 -29.9609375 22.245625 -29.9609375 23.265625 C-22.0409375 23.265625 -14.1209375 23.265625 -5.9609375 23.265625 C-6.47110671 18.36209388 -6.47110671 18.36209388 -9.1484375 16.015625 C-15.38334318 12.13612813 -20.60277665 13.2112144 -26.9609375 16.265625 Z " fill="#222222" transform="translate(1061.9609375,69.734375)"/>
<path d="M0 0 C6.96973851 4.69803193 10.38262184 10.14786551 13 18 C13.28903456 22.37020258 13.27785859 26.7463258 13.3125 31.125 C13.35600586 32.92324219 13.35600586 32.92324219 13.40039062 34.7578125 C13.47034708 44.57324152 11.55005715 52.07327915 4.84375 59.4296875 C-5.67111936 68.38514827 -18.98634945 67.91638216 -32 67 C-39.72551501 65.58762611 -45.8882732 61.97975588 -51 56 C-55.98536012 48.1161747 -56.24006818 41.03038174 -56.3125 31.875 C-56.34150391 30.67617187 -56.37050781 29.47734375 -56.40039062 28.2421875 C-56.47034708 18.42675848 -54.55005715 10.92672085 -47.84375 3.5703125 C-35.99040439 -6.52512168 -13.24192553 -7.87546097 0 0 Z M-32.9375 18.3125 C-36.81880341 23.64929219 -36.29498568 31.15289512 -35.8125 37.4453125 C-35.12824276 41.19447198 -33.88158391 43.12943154 -31.3125 45.9375 C-26.45507729 48.96193301 -22.43015305 49.43993363 -16.875 48.4375 C-13.50942949 47.41802621 -11.03359293 46.02275278 -8.90625 43.09765625 C-6.34729438 37.17455638 -6.4160399 29.78164597 -7.5625 23.5 C-9.33882728 19.17502923 -11.04168361 17.46461209 -15 15 C-21.78277012 13.11589719 -27.44617804 13.98954442 -32.9375 18.3125 Z " fill="#222222" transform="translate(638,212)"/>
<path d="M0 0 C5.4691464 3.50198307 9.85616199 6.90442346 11.9765625 13.265625 C12.04778006 14.83056799 12.06715439 16.39846781 12.04296875 17.96484375 C12.03338135 18.77139404 12.02379395 19.57794434 12.01391602 20.40893555 C12.00158936 21.02164307 11.9892627 21.63435059 11.9765625 22.265625 C8.70418219 22.24284119 5.43530347 22.16556736 2.1640625 22.078125 C1.23529297 22.07232422 0.30652344 22.06652344 -0.65039062 22.06054688 C-3.2038906 21.97758117 -5.5369378 21.8574844 -8.0234375 21.265625 C-9.97265625 18.77734375 -9.97265625 18.77734375 -11.0234375 16.265625 C-15.55084922 14.75648776 -20.08770548 14.49133219 -24.5234375 16.265625 C-25.0184375 16.595625 -25.5134375 16.925625 -26.0234375 17.265625 C-26.0234375 18.255625 -26.0234375 19.245625 -26.0234375 20.265625 C-25.18683594 20.43578125 -24.35023437 20.6059375 -23.48828125 20.78125 C-16.97109536 22.1380949 -10.47753467 23.57196767 -4.0234375 25.203125 C-2.8271875 25.50089844 -1.6309375 25.79867187 -0.3984375 26.10546875 C6.08294536 28.33344411 10.88591821 32.08433643 13.9765625 38.265625 C14.64201095 45.50950668 15.22578581 52.55878912 10.66015625 58.5859375 C3.57714372 65.65251613 -4.28425168 68.47043816 -14.19287109 68.64575195 C-24.2843732 68.62570261 -33.00010661 68.14816828 -41.4609375 62.015625 C-47.63292488 55.39202879 -48.0234375 51.69277831 -48.0234375 42.265625 C-41.4234375 42.265625 -34.8234375 42.265625 -28.0234375 42.265625 C-27.0334375 44.245625 -26.0434375 46.225625 -25.0234375 48.265625 C-20.89893821 50.85816741 -16.74448016 50.56537374 -12.0234375 50.265625 C-9.5990941 49.68307263 -9.5990941 49.68307263 -8.0234375 48.265625 C-7.40917782 46.22573784 -7.40917782 46.22573784 -7.0234375 44.265625 C-8.24417969 44.02328125 -9.46492188 43.7809375 -10.72265625 43.53125 C-39.62821301 37.69950461 -39.62821301 37.69950461 -47.0234375 29.265625 C-49.58586743 24.14076515 -48.93785458 16.11146937 -47.22265625 10.7734375 C-43.70901626 4.56721428 -37.77930859 0.86666786 -31.34765625 -1.875 C-21.84721433 -4.33104844 -8.86346333 -4.44739149 0 0 Z " fill="#222222" transform="translate(1396.0234375,210.734375)"/>
<path d="M0 0 C5.4691464 3.50198307 9.85616199 6.90442346 11.9765625 13.265625 C12.04778006 14.83056799 12.06715439 16.39846781 12.04296875 17.96484375 C12.03338135 18.77139404 12.02379395 19.57794434 12.01391602 20.40893555 C12.00158936 21.02164307 11.9892627 21.63435059 11.9765625 22.265625 C8.70418219 22.24284119 5.43530347 22.16556736 2.1640625 22.078125 C1.23529297 22.07232422 0.30652344 22.06652344 -0.65039062 22.06054688 C-3.2038906 21.97758117 -5.5369378 21.8574844 -8.0234375 21.265625 C-9.97265625 18.77734375 -9.97265625 18.77734375 -11.0234375 16.265625 C-15.55084922 14.75648776 -20.08770548 14.49133219 -24.5234375 16.265625 C-25.0184375 16.595625 -25.5134375 16.925625 -26.0234375 17.265625 C-26.0234375 18.255625 -26.0234375 19.245625 -26.0234375 20.265625 C-25.18683594 20.43578125 -24.35023438 20.6059375 -23.48828125 20.78125 C-16.97109536 22.1380949 -10.47753467 23.57196767 -4.0234375 25.203125 C-2.8271875 25.50089844 -1.6309375 25.79867187 -0.3984375 26.10546875 C6.08294536 28.33344411 10.88591821 32.08433643 13.9765625 38.265625 C14.64201095 45.50950668 15.22578581 52.55878912 10.66015625 58.5859375 C3.57714372 65.65251613 -4.28425168 68.47043816 -14.19287109 68.64575195 C-24.2843732 68.62570261 -33.00010661 68.14816828 -41.4609375 62.015625 C-47.63292488 55.39202879 -48.0234375 51.69277831 -48.0234375 42.265625 C-41.4234375 42.265625 -34.8234375 42.265625 -28.0234375 42.265625 C-27.0334375 44.245625 -26.0434375 46.225625 -25.0234375 48.265625 C-20.89893821 50.85816741 -16.74448016 50.56537374 -12.0234375 50.265625 C-9.5990941 49.68307263 -9.5990941 49.68307263 -8.0234375 48.265625 C-7.40917782 46.22573784 -7.40917782 46.22573784 -7.0234375 44.265625 C-8.24417969 44.02328125 -9.46492187 43.7809375 -10.72265625 43.53125 C-39.62821301 37.69950461 -39.62821301 37.69950461 -47.0234375 29.265625 C-49.58586743 24.14076515 -48.93785458 16.11146937 -47.22265625 10.7734375 C-43.70901626 4.56721428 -37.77930859 0.86666786 -31.34765625 -1.875 C-21.84721433 -4.33104844 -8.86346333 -4.44739149 0 0 Z " fill="#222222" transform="translate(630.0234375,69.734375)"/>
<path d="M0 0 C6.6 0 13.2 0 20 0 C20.04898438 2.49433594 20.09796875 4.98867187 20.1484375 7.55859375 C20.2026026 10.00127647 20.25984871 12.44386918 20.31738281 14.88647461 C20.35542877 16.57097537 20.39032199 18.25555065 20.421875 19.94018555 C20.46806066 22.37575744 20.52595994 24.81082692 20.5859375 27.24609375 C20.59748871 27.98709824 20.60903992 28.72810272 20.62094116 29.49156189 C20.79412204 35.76754738 21.00809174 42.59799298 25.125 47.5625 C28.92620045 49.46310023 31.83356945 49.65919185 36 49 C38.92836371 48.24300635 38.92836371 48.24300635 41 46 C43.69425489 40.13406338 44.45824272 34.41172411 44.51171875 28.02734375 C44.52966995 27.21882462 44.54762115 26.41030548 44.56611633 25.57728577 C44.61968544 23.03074138 44.65394079 20.48437843 44.6875 17.9375 C44.72072044 16.19593856 44.75521437 14.45440092 44.79101562 12.71289062 C44.87774522 8.47524208 44.93826571 4.23837865 45 0 C51.6 0 58.2 0 65 0 C65 22.11 65 44.22 65 67 C51 67 51 67 47 64 C46.29875 64.61875 45.5975 65.2375 44.875 65.875 C38.22811888 70.27482675 28.79520943 70.56075243 21.125 69.4375 C14.9156295 68.01089941 10.34671047 65.21633766 5.75 60.875 C0.84693072 52.81995761 -0.58838039 44.9483434 -0.390625 35.64453125 C-0.38496521 34.61688156 -0.37930542 33.58923187 -0.37347412 32.53044128 C-0.35131943 29.29062674 -0.30116354 26.05197275 -0.25 22.8125 C-0.22990795 20.59832341 -0.21166196 18.38412926 -0.1953125 16.16992188 C-0.15494735 10.77915551 -0.07661699 5.39085627 0 0 Z " fill="#222222" transform="translate(664,210)"/>
<path d="M0 0 C6.6 0 13.2 0 20 0 C20.04898438 2.49433594 20.09796875 4.98867187 20.1484375 7.55859375 C20.2026026 10.00127647 20.25984871 12.44386918 20.31738281 14.88647461 C20.35542877 16.57097537 20.39032199 18.25555065 20.421875 19.94018555 C20.46806066 22.37575744 20.52595994 24.81082692 20.5859375 27.24609375 C20.59748871 27.98709824 20.60903992 28.72810272 20.62094116 29.49156189 C20.79412204 35.76754738 21.00809174 42.59799298 25.125 47.5625 C28.92620045 49.46310023 31.83356945 49.65919185 36 49 C38.92836371 48.24300635 38.92836371 48.24300635 41 46 C43.69425489 40.13406338 44.45824272 34.41172411 44.51171875 28.02734375 C44.52966995 27.21882462 44.54762115 26.41030548 44.56611633 25.57728577 C44.61968544 23.03074138 44.65394079 20.48437843 44.6875 17.9375 C44.72072044 16.19593856 44.75521437 14.45440092 44.79101562 12.71289062 C44.87774522 8.47524208 44.93826571 4.23837865 45 0 C51.6 0 58.2 0 65 0 C65 22.11 65 44.22 65 67 C51 67 51 67 47 64 C46.29875 64.61875 45.5975 65.2375 44.875 65.875 C38.22811888 70.27482675 28.79520943 70.56075243 21.125 69.4375 C14.9156295 68.01089941 10.34671047 65.21633766 5.75 60.875 C0.84693072 52.81995761 -0.58838039 44.9483434 -0.390625 35.64453125 C-0.38496521 34.61688156 -0.37930542 33.58923187 -0.37347412 32.53044128 C-0.35131943 29.29062674 -0.30116354 26.05197275 -0.25 22.8125 C-0.22990795 20.59832341 -0.21166196 18.38412926 -0.1953125 16.16992188 C-0.15494735 10.77915551 -0.07661699 5.39085627 0 0 Z " fill="#222222" transform="translate(879,69)"/>
<path d="M0 0 C6.29979074 4.23354922 10.87234333 9.61457638 13 17 C13 19.97 13 22.94 13 26 C6.07 26 -0.86 26 -8 26 C-8.66 23.69 -9.32 21.38 -10 19 C-12.25433529 16.54483306 -13.54400939 16.06962167 -16.83984375 15.56640625 C-23.18510432 15.53117684 -23.18510432 15.53117684 -29.125 17.5 C-33.83881914 23.78509218 -33.12828457 30.45764768 -32.6796875 37.94921875 C-31.87494228 41.56132231 -30.53598334 43.34439481 -28 46 C-25.426671 47.2866645 -23.49776962 47.16824551 -20.625 47.1875 C-19.66851563 47.20167969 -18.71203125 47.21585937 -17.7265625 47.23046875 C-14.90649717 46.99209647 -13.34468663 46.55451691 -11 45 C-8.64644661 41.88214887 -8.64644661 41.88214887 -8 37 C-1.07 37 5.86 37 13 37 C13 46.29613232 12.20490722 51.11447587 6.23828125 58.046875 C-2.33539882 66.18578427 -11.15056425 67.59684352 -22.59570312 67.47070312 C-32.44196701 67.12353553 -40.08741418 64.83696684 -47.34375 57.9375 C-54.03747121 50.10710915 -54.2344032 41.74643539 -54.3125 31.875 C-54.34150391 30.67617187 -54.37050781 29.47734375 -54.40039062 28.2421875 C-54.47034708 18.42675848 -52.55005715 10.92672085 -45.84375 3.5703125 C-34.52478692 -6.0699908 -12.571875 -8.13190379 0 0 Z " fill="#222222" transform="translate(1249,212)"/>
<path d="M0 0 C7.26 0 14.52 0 22 0 C26.66666667 14 31.33333333 28 36 42 C39.96 28.14 43.92 14.28 48 0 C55.26 0 62.52 0 70 0 C69.32202924 4.7457953 68.69711192 8.42594077 67.26586914 12.85595703 C66.91202652 13.96045197 66.5581839 15.0649469 66.19361877 16.20291138 C65.81132614 17.37602875 65.42903351 18.54914612 65.03515625 19.7578125 C64.64178574 20.97902802 64.24841522 22.20024353 63.84312439 23.45846558 C63.01352396 26.03317169 62.18026083 28.60665073 61.34399414 31.17919922 C60.2752627 34.46700799 59.21302203 37.7568657 58.15317631 41.04754829 C57.13696236 44.20171242 56.11736134 47.35477514 55.09765625 50.5078125 C54.71738785 51.68497833 54.33711945 52.86214417 53.94532776 54.07498169 C53.58833298 55.1731723 53.2313382 56.27136292 52.86352539 57.40283203 C52.55121475 58.36544952 52.23890411 59.32806702 51.91712952 60.31985474 C51.03050616 62.91085126 50.01705213 65.45736968 49 68 C39.76 68 30.52 68 21 68 C15.96420241 53.06046714 11.02513454 38.09790116 6.2545166 23.07183838 C5.70984528 21.35729966 5.16370234 19.64322775 4.61608887 17.92962646 C3.84245811 15.50655765 3.07467341 13.08171518 2.30859375 10.65625 C2.07464401 9.92612701 1.84069427 9.19600403 1.59965515 8.4437561 C0.68038032 5.51292332 0 3.09197912 0 0 Z " fill="#222222" transform="translate(1083,210)"/>
<path d="M0 0 C6.6 0 13.2 0 20 0 C20 6.6 20 13.2 20 20 C25.94 20 31.88 20 38 20 C38 25.94 38 31.88 38 38 C32.06 38 26.12 38 20 38 C20.12375 40.805 20.2475 43.61 20.375 46.5 C20.40899902 47.36689453 20.44299805 48.23378906 20.47802734 49.12695312 C20.76217595 58.14943196 20.76217595 58.14943196 24.703125 65.92578125 C29.48512698 68.16226177 34.81622355 68.32610906 40 69 C40 74.94 40 80.88 40 87 C36.66616498 87.08153401 33.33435765 87.14075667 30 87.1875 C29.06542969 87.21263672 28.13085938 87.23777344 27.16796875 87.26367188 C18.80792016 87.35136469 11.85042255 85.83740987 5.66308594 79.83569336 C-1.27846622 72.17369532 -0.48386039 62.60189091 -0.25 52.9375 C-0.2298969 51.48505077 -0.21165288 50.03257456 -0.1953125 48.58007812 C-0.15163506 45.05281666 -0.08282107 41.52658501 0 38 C-3.3 38 -6.6 38 -10 38 C-10 32.06 -10 26.12 -10 20 C-6.7 20 -3.4 20 0 20 C0 13.4 0 6.8 0 0 Z " fill="#222222" transform="translate(963,49)"/>
<path d="M0 0 C6.6 0 13.2 0 20 0 C20 6.6 20 13.2 20 20 C25.94 20 31.88 20 38 20 C38 25.94 38 31.88 38 38 C32.06 38 26.12 38 20 38 C20.12375 40.805 20.2475 43.61 20.375 46.5 C20.40899902 47.36689453 20.44299805 48.23378906 20.47802734 49.12695312 C20.76217595 58.14943196 20.76217595 58.14943196 24.703125 65.92578125 C29.48512698 68.16226177 34.81622355 68.32610906 40 69 C40 74.94 40 80.88 40 87 C36.66616498 87.08153401 33.33435765 87.14075667 30 87.1875 C29.06542969 87.21263672 28.13085938 87.23777344 27.16796875 87.26367188 C18.80792016 87.35136469 11.85042255 85.83740987 5.66308594 79.83569336 C-1.27846622 72.17369532 -0.48386039 62.60189091 -0.25 52.9375 C-0.2298969 51.48505077 -0.21165288 50.03257456 -0.1953125 48.58007812 C-0.15163506 45.05281666 -0.08282107 41.52658501 0 38 C-3.3 38 -6.6 38 -10 38 C-10 32.06 -10 26.12 -10 20 C-6.7 20 -3.4 20 0 20 C0 13.4 0 6.8 0 0 Z " fill="#222222" transform="translate(658,49)"/>
<path d="M0 0 C6.6 0 13.2 0 20 0 C20 33.99 20 67.98 20 103 C13.4 103 6.8 103 0 103 C0 69.01 0 35.02 0 0 Z " fill="#222222" transform="translate(551,174)"/>
<path d="M0 0 C0 5.94 0 11.88 0 18 C-3.48307292 17.90234375 -6.96614583 17.8046875 -10.44921875 17.70703125 C-14.21880345 18.01805309 -16.01328757 18.7448396 -19 21 C-22.69349334 26.35556535 -22.18558251 33.63427063 -22.31640625 39.8984375 C-22.33718735 40.73339752 -22.35796844 41.56835754 -22.37937927 42.42861938 C-22.44439469 45.0773349 -22.50353491 47.72614359 -22.5625 50.375 C-22.60573096 52.17839478 -22.64934666 53.98178038 -22.69335938 55.78515625 C-22.80074542 60.19001036 -22.90017468 64.59494218 -23 69 C-29.6 69 -36.2 69 -43 69 C-43 46.89 -43 24.78 -43 2 C-38.38 2 -33.76 2 -29 2 C-28.01 2.99 -27.02 3.98 -26 5 C-25.34 4.731875 -24.68 4.46375 -24 4.1875 C-23.01 3.795625 -22.02 3.40375 -21 3 C-20.38382813 2.74734375 -19.76765625 2.4946875 -19.1328125 2.234375 C-12.38510098 -0.44370506 -7.31344143 -1.21890691 0 0 Z " fill="#222222" transform="translate(1077,208)"/>
<path d="M0 0 C0 5.94 0 11.88 0 18 C-3.48307292 17.90234375 -6.96614583 17.8046875 -10.44921875 17.70703125 C-14.21880345 18.01805309 -16.01328757 18.7448396 -19 21 C-22.69349334 26.35556535 -22.18558251 33.63427063 -22.31640625 39.8984375 C-22.33718735 40.73339752 -22.35796844 41.56835754 -22.37937927 42.42861938 C-22.44439469 45.0773349 -22.50353491 47.72614359 -22.5625 50.375 C-22.60573096 52.17839478 -22.64934666 53.98178038 -22.69335938 55.78515625 C-22.80074542 60.19001036 -22.90017468 64.59494218 -23 69 C-29.6 69 -36.2 69 -43 69 C-43 46.89 -43 24.78 -43 2 C-38.38 2 -33.76 2 -29 2 C-28.01 2.99 -27.02 3.98 -26 5 C-25.34 4.731875 -24.68 4.46375 -24 4.1875 C-23.01 3.795625 -22.02 3.40375 -21 3 C-20.38382813 2.74734375 -19.76765625 2.4946875 -19.1328125 2.234375 C-12.38510098 -0.44370506 -7.31344143 -1.21890691 0 0 Z " fill="#222222" transform="translate(752,67)"/>
<path d="M0 0 C6.6 0 13.2 0 20 0 C20 22.11 20 44.22 20 67 C13.4 67 6.8 67 0 67 C0 44.89 0 22.78 0 0 Z " fill="#222222" transform="translate(1164,210)"/>
<path d="M0 0 C6.6 0 13.2 0 20 0 C20 22.11 20 44.22 20 67 C13.4 67 6.8 67 0 67 C0 44.89 0 22.78 0 0 Z " fill="#222222" transform="translate(763,69)"/>
<path d="M0 0 C6.6 0 13.2 0 20 0 C20 22.11 20 44.22 20 67 C13.4 67 6.8 67 0 67 C0 44.89 0 22.78 0 0 Z " fill="#222222" transform="translate(550,69)"/>
<path d="M0 0 C6.6 0 13.2 0 20 0 C20 6.6 20 13.2 20 20 C13.4 20 6.8 20 0 20 C0 13.4 0 6.8 0 0 Z " fill="#222222" transform="translate(1164,183)"/>
<path d="M0 0 C6.6 0 13.2 0 20 0 C20 6.6 20 13.2 20 20 C13.4 20 6.8 20 0 20 C0 13.4 0 6.8 0 0 Z " fill="#222222" transform="translate(763,42)"/>
<path d="M0 0 C6.6 0 13.2 0 20 0 C20 6.6 20 13.2 20 20 C13.4 20 6.8 20 0 20 C0 13.4 0 6.8 0 0 Z " fill="#222222" transform="translate(550,42)"/>
<path d="M0 0 C2.87029869 1.79393668 4.49131638 2.98263276 6 6 C6.45487581 10.54875813 6.71689456 13.67392638 3.9375 17.4375 C0.41360794 20.5115335 -1.34975862 21.08158318 -6 21 C-9.60115926 19.75344487 -11.47582284 18.64648516 -13.875 15.6875 C-15.23833511 12.43064391 -15.50047119 10.50329831 -15 7 C-11.06142639 0.04185329 -7.71503326 -0.99935664 0 0 Z M-9 4 C-6.36 4.33 -3.72 4.66 -1 5 C0.125 8.75 0.125 8.75 -1 11 C-0.01 12.32 0.98 13.64 2 15 C4.28441618 12.19333909 4.28441618 12.19333909 3.9375 9.0625 C2.7565731 5.20480547 1.44588875 4.03620699 -2 2 C-5.5397996 1.50607447 -6.43249683 1.43249683 -9 4 Z M-10 4 C-12.45331002 7.67996503 -12.39507893 9.65413172 -12 14 C-10.515 14.99 -10.515 14.99 -9 16 C-9 12.04 -9 8.08 -9 4 C-9.33 4 -9.66 4 -10 4 Z M-6 6 C-6 6.99 -6 7.98 -6 9 C-5.01 9 -4.02 9 -3 9 C-3.33 8.01 -3.66 7.02 -4 6 C-4.66 6 -5.32 6 -6 6 Z M-6 12 C-6 13.32 -6 14.64 -6 16 C-6.99 16.33 -7.98 16.66 -9 17 C-6.29120665 18.35439668 -3.99066732 18.06501451 -1 18 C-0.67 17.34 -0.34 16.68 0 16 C-0.66 16 -1.32 16 -2 16 C-2.33 14.68 -2.66 13.36 -3 12 C-3.99 12 -4.98 12 -6 12 Z " fill="#E4002B" transform="translate(280,266)"/>
</svg>
