<?xml version="1.0" encoding="UTF-8"?>
<svg version="1.1" xmlns="http://www.w3.org/2000/svg" width="1000" height="1000">
<path d="M0 0 C1.43005364 0.0022225 2.86010735 0.00439901 4.29016113 0.00653076 C24.50193045 0.04827889 44.46974693 0.33266124 64.5 3.3125 C65.92804562 3.51865358 67.35610623 3.72470338 68.78417969 3.93066406 C117.88313012 11.10892178 165.4034105 24.46867227 210.5 45.3125 C211.95913818 45.97934814 211.95913818 45.97934814 213.44775391 46.65966797 C235.07484427 56.57314081 255.6224839 68.25257195 275.5 81.3125 C276.50522705 81.97233887 276.50522705 81.97233887 277.53076172 82.64550781 C293.27359592 93.05729033 308.40598003 104.52133405 322.66796875 116.8828125 C325.37314395 119.20366626 328.14122331 121.41549628 330.9375 123.625 C336.13183994 127.83827134 340.80906693 132.47624731 345.46655273 137.26489258 C348.82270451 140.70425068 352.28791233 143.88118637 355.96435547 146.97485352 C357.80596616 148.57901647 359.38286362 150.30578428 360.9375 152.1875 C363.35076391 155.02726916 365.84171419 157.70031164 368.5 160.3125 C372.38030325 164.14828734 375.96046038 168.16293952 379.5 172.3125 C380.27730469 173.20066406 381.05460938 174.08882812 381.85546875 175.00390625 C405.00770568 201.65305005 424.43774725 231.48273454 441.5 262.3125 C441.95197754 263.12315918 442.40395508 263.93381836 442.86962891 264.76904297 C472.15905031 317.64826488 489.17681342 376.67057653 497.5 436.3125 C497.74991699 438.02469727 497.74991699 438.02469727 498.00488281 439.77148438 C503.58737483 479.64642732 503.42179786 524.50661811 497.5 564.3125 C497.29384642 565.74054562 497.08779662 567.16860623 496.88183594 568.59667969 C489.70357822 617.69563012 476.34382773 665.2159105 455.5 710.3125 C455.05543457 711.28525879 454.61086914 712.25801758 454.15283203 713.26025391 C434.69133897 755.71716844 408.4123167 796.4926584 376.6953125 830.90625 C374.82712043 832.95394807 372.99922263 835.02649602 371.1796875 837.1171875 C360.60904607 849.22286745 349.39572697 860.51478616 337.5 871.3125 C336.58347656 872.15554688 335.66695312 872.99859375 334.72265625 873.8671875 C328.83023341 879.24763048 322.71220681 884.30732819 316.5 889.3125 C315.39007259 890.22589164 314.28072183 891.13998435 313.171875 892.0546875 C242.41302616 950.03424845 153.87312585 985.93986271 18.2578125 1000.515625 C16.94330109 1000.52268463 15.62878967 1000.52974426 14.27444458 1000.53701782 C10.05795733 1000.55653071 5.84152818 1000.56170958 1.625 1000.5625 C0.90640305 1000.56279457 0.18780609 1000.56308914 -0.55256653 1000.56339264 C-21.67442666 1000.56479182 -42.55941867 1000.42776548 -63.5 997.3125 C-64.92804562 997.10634642 -66.35610623 996.90029662 -67.78417969 996.69433594 C-116.90089066 989.51348164 -164.37004076 976.11595786 -209.5 955.3125 C-210.4079834 954.90032227 -211.3159668 954.48814453 -212.25146484 954.06347656 C-249.93577169 936.93612817 -285.89318907 914.0640478 -317.5 887.3125 C-318.53073806 886.45511334 -319.5620156 885.59837495 -320.59375 884.7421875 C-333.00482172 874.39893253 -344.65857644 863.32438298 -356.05908203 851.88378906 C-357.89110995 850.0463424 -359.72850605 848.2143835 -361.56640625 846.3828125 C-367.4236393 840.52913348 -373.16773461 834.65570139 -378.5 828.3125 C-379.345625 827.34828125 -380.19125 826.3840625 -381.0625 825.390625 C-404.06427335 798.70267002 -423.45172098 769.07996395 -440.5 738.3125 C-441.14533691 737.15379395 -441.14533691 737.15379395 -441.80371094 735.97167969 C-477.85567129 670.81922987 -499.43616875 592.85676755 -499.703125 518.16796875 C-499.71018463 516.85204239 -499.71724426 515.53611603 -499.72451782 514.18031311 C-499.74405712 509.95353646 -499.74920991 505.72681758 -499.75 501.5 C-499.75029457 500.78001328 -499.75058914 500.06002655 -499.75089264 499.31822205 C-499.75229096 478.1769745 -499.61812471 457.27230087 -496.5 436.3125 C-496.29384642 434.88445438 -496.08779662 433.45639377 -495.88183594 432.02832031 C-488.70357822 382.92936988 -475.34382773 335.4090895 -454.5 290.3125 C-454.05543457 289.33974121 -453.61086914 288.36698242 -453.15283203 287.36474609 C-438.48599883 255.36779285 -419.98886526 225.18600265 -398.5 197.3125 C-398.08282715 196.76916016 -397.6656543 196.22582031 -397.23583984 195.66601562 C-387.41143275 182.89683441 -376.97335395 170.71873041 -365.99658203 158.92675781 C-364.36288344 157.16460201 -362.7418801 155.39122348 -361.12109375 153.6171875 C-353.90541251 145.75432865 -346.46261875 138.41630102 -338.5 131.3125 C-337.48860885 130.38006748 -336.47951751 129.44513468 -335.47265625 128.5078125 C-329.02337105 122.50645193 -322.39566053 116.799169 -315.5 111.3125 C-314.98775879 110.90064453 -314.47551758 110.48878906 -313.94775391 110.06445312 C-244.62128279 54.33510493 -161.96549528 18.05206794 -71.9375 4.5 C-70.64505371 4.30510986 -69.35260742 4.11021973 -68.02099609 3.90942383 C-45.38923559 0.69473342 -22.83447207 -0.0627709 0 0 Z " fill="#E4002B" transform="translate(499.5,-0.3125)"/>
<path d="M0 0 C16.45377587 -0.29083269 32.71935864 0.6089583 49.125 1.8125 C51.73826991 2.00048325 54.35155129 2.18830701 56.96484375 2.37597656 C63.24224299 2.82956114 69.51874315 3.29449464 75.79504395 3.76300049 C78.53847233 3.96587104 81.2821595 4.16300676 84.02636719 4.35498047 C131.93313065 7.71373368 179.551977 14.37599896 226.71607971 23.28636169 C234.32369017 24.71294719 241.94384434 26.04423723 249.58203125 27.296875 C250.60841202 27.46938782 251.63479279 27.64190063 252.692276 27.81964111 C258.26060917 28.71432936 263.48898492 29.12777541 269.125 29 C275.54784956 29.76375901 278.13829291 32.87974048 281.96337891 37.72509766 C284.55890671 41.29130022 286.97150448 44.96110939 289.36865234 48.66259766 C290.76853231 50.66835204 292.09480889 52.22206994 293.89453125 53.85546875 C296.76093554 56.61729444 297.79910114 58.16844688 299 62 C298.73399234 65.94329791 297.86314589 69.72640568 297.00390625 73.578125 C296.5160609 75.92370959 296.02961966 78.26958655 295.54443359 80.61572266 C295.15913483 82.43876923 295.15913483 82.43876923 294.76605225 84.29864502 C293.52421675 90.29885457 292.42670978 96.3244711 291.32421875 102.3515625 C290.88506694 104.72792029 290.44561402 107.10422245 290.00585938 109.48046875 C289.56638548 111.86197533 289.12693259 114.24348579 288.6875 116.625 C288.22860129 119.10808875 287.76961725 121.59116173 287.31054688 124.07421875 C286.20605372 130.0492989 285.10259029 136.02456844 284 142 C272.70190511 141.27983721 261.49824039 139.92805009 250.25985718 138.58905029 C194.38428392 131.96045368 138.36405348 127.84424239 82.1875 124.8125 C81.39972546 124.76986023 80.61195091 124.72722046 79.80030441 124.68328857 C60.20529381 123.62396677 40.61264338 122.67617387 21 122 C20.74694092 122.956502 20.74694092 122.956502 20.48876953 123.93232727 C18.45765746 131.50468992 16.20155414 138.99422306 13.875 146.48046875 C13.48683105 147.73330154 13.09866211 148.98613434 12.69873047 150.27693176 C11.88308533 152.9085622 11.06605596 155.53975774 10.24804688 158.1706543 C9.20632557 161.5215653 8.16846808 164.87365877 7.13168335 168.22609997 C6.13169167 171.45741781 5.12816254 174.68763389 4.125 177.91796875 C3.75616699 179.11085007 3.38733398 180.30373138 3.00732422 181.53276062 C1.17027515 187.4302424 -0.75377062 193.24536165 -3 199 C-2.21633057 198.97969727 -1.43266113 198.95939453 -0.62524414 198.93847656 C9.86604871 198.79093452 20.13596557 199.68433473 30.5625 200.75 C31.46416901 200.84058685 32.36583801 200.93117371 33.29483032 201.02450562 C91.68743659 206.90746529 150.32760916 217.32880551 204 242 C204.80969238 242.36448242 205.61938477 242.72896484 206.45361328 243.10449219 C227.87731946 252.75388956 247.99381734 264.84272181 266 280 C266.51739746 280.42861328 267.03479492 280.85722656 267.56787109 281.29882812 C311.52141967 317.7388413 339.01602389 368.46460934 344.47949219 425.58691406 C346.39044473 450.00049801 345.14509382 473.88073533 341 498 C340.77570313 499.34505615 340.77570313 499.34505615 340.546875 500.71728516 C336.83512658 522.3476709 329.78393203 543.38626074 320 563 C319.62198242 563.7616748 319.24396484 564.52334961 318.85449219 565.30810547 C303.86707539 595.21254555 281.38684374 622.41743858 255 643 C254.28714844 643.60328125 253.57429688 644.2065625 252.83984375 644.828125 C238.6239782 656.76243188 222.39834425 666.4025109 206 675 C205.35853027 675.34192383 204.71706055 675.68384766 204.05615234 676.03613281 C173.70965191 692.15501357 140.86574936 702.57200609 107.25 709.25 C106.50854736 709.40114258 105.76709473 709.55228516 105.00317383 709.70800781 C86.30312424 713.2253083 67.41724629 713.36867867 48.45223236 713.31785583 C46.34919556 713.31243347 44.24616997 713.31005334 42.14312744 713.3079834 C21.28171405 713.27598356 0.70959775 712.6745774 -20 710 C-21.23572754 709.85014648 -22.47145508 709.70029297 -23.74462891 709.54589844 C-107.86829294 699.29567317 -107.86829294 699.29567317 -121 684 C-122.71250009 680.87798295 -124.05905589 677.63007274 -125.4140625 674.33984375 C-125.82210617 673.37789597 -126.23014984 672.41594818 -126.65055847 671.42485046 C-127.98710697 668.26720439 -129.30645756 665.10270252 -130.625 661.9375 C-132.01788361 658.62350519 -133.41413843 655.31094624 -134.81092834 651.99859619 C-135.76753028 649.7297818 -136.72270588 647.46036553 -137.67649841 645.19036865 C-140.89938691 637.5387474 -144.22035895 629.93655685 -147.60546875 622.35546875 C-148.49110285 620.35897395 -149.37636429 618.36231379 -150.26123047 616.36547852 C-151.52280807 613.51855851 -152.78979764 610.67495297 -154.07818604 607.84005737 C-163.08461761 588.00085406 -163.08461761 588.00085406 -161 580 C-159.08904402 576.79656075 -156.71953475 574.54226778 -154 572 C-152.89524676 570.88464058 -151.79538714 569.76442267 -150.69921875 568.640625 C-146.00029828 563.84716778 -141.31721771 559.09422041 -136.21484375 554.7265625 C-130.05355108 549.39994416 -124.46463184 543.47231323 -118.77734375 537.65039062 C-106.36379854 525.08325716 -106.36379854 525.08325716 -99.3125 522.8125 C-95.62755097 523.02108202 -94.81009361 523.7244488 -92.36764526 526.3336792 C-89.60295483 529.70214126 -87.32834394 533.39123372 -85.00390625 537.0703125 C-83.84705686 538.87567162 -82.68965227 540.68067507 -81.53173828 542.48535156 C-80.94467102 543.40401001 -80.35760376 544.32266846 -79.75274658 545.26916504 C-77.04362342 549.49006514 -74.28712439 553.67930074 -71.52734375 557.8671875 C-70.99262955 558.67986084 -70.45791534 559.49253418 -69.90699768 560.32983398 C-64.16008824 569.06248163 -58.40215287 577.78786587 -52.64208984 586.51184082 C-51.08574235 588.87007982 -49.53088292 591.2292918 -47.9765625 593.58886719 C-45.7151632 597.02110497 -43.44872735 600.44995842 -41.17800903 603.8760376 C-40.36993615 605.09674471 -39.56343827 606.31849636 -38.75875854 607.54144287 C-31.29530931 618.87878813 -23.49626138 630.11254493 -13.8125 639.6875 C-13.18085937 640.31269531 -12.54921875 640.93789063 -11.8984375 641.58203125 C13.75525958 666.27053973 49.31600765 673.59840488 83.85546875 673.14453125 C114.69891284 672.43608239 143.39440362 661.93361472 167 642 C167.81210937 641.33484375 168.62421875 640.6696875 169.4609375 639.984375 C184.09930346 627.51636614 194.40251015 610.95423764 201 593 C201.29648437 592.19433594 201.59296875 591.38867188 201.8984375 590.55859375 C210.34034447 565.19108123 205.46754419 537.20650917 194.37109375 513.5234375 C169.30674168 464.79042813 114.96115279 441.04708022 65.59375 424.875 C2.62186053 404.76147459 -63.34362376 395.82178336 -129 390 C-127.76117252 383.91459155 -126.16297013 378.0761007 -124.1640625 372.19921875 C-123.88460785 371.36509964 -123.6051532 370.53098053 -123.31723022 369.67158508 C-122.42408726 367.00876671 -121.52477122 364.34808502 -120.625 361.6875 C-120.06076845 360.00991001 -119.49696451 358.33217614 -118.93359375 356.65429688 C-118.02998232 353.96386616 -117.12598269 351.27356954 -116.22071838 348.58369446 C-109.04773583 327.26683966 -101.94857332 305.92538624 -94.92578125 284.55859375 C-94.53652183 283.37429779 -94.53652183 283.37429779 -94.13939857 282.16607666 C-93.05463959 278.8655423 -91.96998095 275.56497498 -90.88537312 272.26439095 C-78.20917415 233.69320821 -65.42389548 195.15858658 -52.58774287 156.64039797 C-51.03272391 151.97407599 -49.47844481 147.30750807 -47.92446899 142.64083862 C-39.25258264 116.60056042 -30.55321222 90.57123476 -21.65452576 64.60745239 C-16.9027767 50.74215466 -12.24296309 36.84799242 -7.625 22.9375 C-6.8699405 20.6672682 -6.11473171 18.39708605 -5.359375 16.12695312 C-3.57122465 10.75186339 -1.78480393 5.37620179 0 0 Z " fill="#FEFEFE" transform="translate(614,154)"/>
<path d="M0 0 C0.74340637 -0.00100708 1.48681274 -0.00201416 2.25274658 -0.00305176 C13.8406185 0.00752708 25.00217284 0.5715461 36.3125 3.25 C37.40433594 3.49363281 38.49617188 3.73726563 39.62109375 3.98828125 C48.45055667 6.41092972 55.20965369 11.72498025 62.3125 17.25 C63.03308594 17.80606934 63.75367188 18.36213867 64.49609375 18.93505859 C68.36577427 21.92248503 72.22276437 24.92553874 76.0703125 27.94140625 C79.45263917 30.5882822 82.86614572 33.18671434 86.3125 35.75 C91.55538821 39.66370528 96.75580821 43.63060924 101.9375 47.625 C102.73285156 48.23279297 103.52820313 48.84058594 104.34765625 49.46679688 C105.09144531 50.04236328 105.83523438 50.61792969 106.6015625 51.2109375 C107.60243896 51.98123291 107.60243896 51.98123291 108.62353516 52.76708984 C111.36672672 55.17561045 112.26929834 56.87558565 112.6875 60.5 C111.86493947 68.72560527 106.37552936 73.5521413 100.95703125 79.359375 C98.46496471 82.08334729 96.12579396 84.87379081 93.8125 87.75 C80.11413387 104.69592887 80.11413387 104.69592887 74.86328125 105.734375 C61.78143951 106.80743319 51.5561549 100.14812775 40.3125 94.25 C36.75793919 92.42165014 33.19408729 90.61231299 29.625 88.8125 C28.73965576 88.36511475 27.85431152 87.91772949 26.94213867 87.45678711 C-2.09118993 72.96714133 -33.00691252 59.68188877 -65.6875 57.25 C-67.32138672 57.12431641 -67.32138672 57.12431641 -68.98828125 56.99609375 C-81.79823557 56.48103722 -91.05681163 61.25080576 -100.3125 69.625 C-113.44378637 84.13852704 -116.8555297 100.33063117 -117.78515625 119.51171875 C-117.86424816 120.97191773 -117.94427991 122.43206606 -118.025177 123.89216614 C-118.23710151 127.7726404 -118.43449953 131.65372107 -118.62853622 135.53512573 C-118.79163478 138.76097443 -118.96343929 141.98633667 -119.13514805 145.21173668 C-120.29551928 167.03932539 -121.30513764 188.87306439 -122.09204102 210.7175293 C-122.15891517 212.57210654 -122.22588713 214.42668025 -122.29296875 216.28125 C-122.33959404 217.57087395 -122.33959404 217.57087395 -122.38716125 218.8865509 C-122.68090736 226.6842306 -123.14799345 234.46559234 -123.6875 242.25 C-123.03700684 242.18361328 -122.38651367 242.11722656 -121.71630859 242.04882812 C-114.58229491 241.3560336 -107.47548165 240.97271754 -100.3125 240.75 C-98.39449585 240.69017944 -98.39449585 240.69017944 -96.43774414 240.62915039 C-91.85462373 240.49138286 -87.27112279 240.36970615 -82.6875 240.25 C-81.82336487 240.22701843 -80.95922974 240.20403687 -80.06890869 240.18035889 C-37.60937293 239.06257564 4.84209606 239.15033021 47.3125 239.25 C47.3125 252.12 47.3125 264.99 47.3125 278.25 C41.785 280.869375 36.2575 283.48875 30.5625 286.1875 C26.90480906 287.9234275 26.90480906 287.9234275 23.24736404 289.65987301 C21.79667734 290.34328186 20.34268055 291.01969375 18.88602829 291.69029331 C14.83499016 293.55888118 10.84986833 295.4744939 6.93847656 297.62145996 C-7.23219542 305.11036471 -20.22641073 305.58992041 -36.015625 305.56640625 C-38.58783349 305.59456939 -41.16000207 305.62661689 -43.7321167 305.66233826 C-49.75239394 305.73674495 -55.7716504 305.77269972 -61.79226184 305.78893656 C-68.66119753 305.80968889 -75.52933479 305.881221 -82.39785624 305.95642769 C-96.49421904 306.10966852 -110.59041572 306.20106317 -124.6875 306.25 C-124.73524061 327.78133983 -124.76996815 349.3126704 -124.79112434 370.84405327 C-124.80122951 380.85227153 -124.81492577 390.86045574 -124.83837891 400.86865234 C-124.93446723 442.77588301 -124.83474275 484.65870652 -123.7734375 526.5546875 C-123.75268866 527.37916051 -123.73193982 528.20363353 -123.71056223 529.05309057 C-122.99367033 557.35774065 -121.96056616 585.65118582 -120.80596924 613.94110107 C-120.76344109 614.98558247 -120.76344109 614.98558247 -120.72005379 616.05116451 C-121.62353046 652.76433389 -121.62353046 652.76433389 -108.8046875 685.06640625 C-83.31849826 705.06658527 -39.31733969 703.97464048 -8.6875 706.25 C-8.6875 717.47 -8.6875 728.69 -8.6875 740.25 C-20.67808319 740.32686271 -32.63417064 740.29501902 -44.6171875 739.859375 C-45.81791901 739.81577347 -47.01865051 739.77217194 -48.25576782 739.72724915 C-62.20520483 739.19133111 -76.13263157 738.33931535 -90.0625 737.4375 C-91.44213716 737.34883304 -92.82177585 737.26018998 -94.20141602 737.17156982 C-152.3509262 733.42424266 -210.29958174 727.6650155 -267.94482422 719.09375 C-272.65501028 718.39575284 -277.36968587 717.73724529 -282.08734131 717.09191895 C-285.54841597 716.61317388 -289.00557313 716.10983489 -292.46209717 715.59936523 C-294.0442403 715.37028605 -295.6277941 715.15070453 -297.21270752 714.94165039 C-311.53552321 713.03841522 -311.53552321 713.03841522 -316.43432617 706.99853516 C-316.84787354 706.42151855 -317.2614209 705.84450195 -317.6875 705.25 C-318.75677734 704.03376953 -318.75677734 704.03376953 -319.84765625 702.79296875 C-322.13984502 699.95479662 -324.42283219 697.11014585 -326.6875 694.25 C-327.27144531 693.51587891 -327.85539062 692.78175781 -328.45703125 692.02539062 C-330.39466942 689.58459794 -332.32360779 687.13717577 -334.25 684.6875 C-334.88236572 683.88916748 -335.51473145 683.09083496 -336.16625977 682.26831055 C-337.04495728 681.14356323 -337.04495728 681.14356323 -337.94140625 679.99609375 C-338.73526733 678.98567017 -338.73526733 678.98567017 -339.54516602 677.95483398 C-340.6875 676.25 -340.6875 676.25 -340.6875 674.25 C-340.10895264 674.21036133 -339.53040527 674.17072266 -338.93432617 674.12988281 C-321.68252891 673.55852688 -321.68252891 673.55852688 -306.53515625 666.4296875 C-302.37426375 661.52106591 -302.3767447 656.6732291 -302.45703125 650.53125 C-302.46655571 649.26855286 -302.46655571 649.26855286 -302.47627258 647.98034668 C-302.58781634 640.31001744 -303.2578292 632.7522528 -304.1111145 625.13406372 C-306.24023235 605.89862771 -307.79515363 586.6086311 -309.25 567.3125 C-309.30320782 566.60680752 -309.35641563 565.90111504 -309.41123581 565.17403793 C-311.11402898 542.48620003 -312.4283714 519.79144916 -313.4375 497.0625 C-313.46732594 496.39299946 -313.49715187 495.72349892 -313.52788162 495.03371048 C-313.95337205 485.44052977 -314.33058419 475.84594738 -314.6875 466.25 C-314.73622253 464.99339569 -314.78494507 463.73679138 -314.83514404 462.44210815 C-315.63459546 441.55614898 -315.84594828 420.6980153 -315.81787109 399.79858398 C-315.81220663 395.56004884 -315.81555223 391.32157699 -315.82130814 387.08304405 C-315.84225385 368.87412595 -315.6846347 350.67656103 -315.2421875 332.47265625 C-315.22277225 331.62501646 -315.20335701 330.77737667 -315.18335342 329.90405083 C-315.12732466 327.51927771 -315.06471083 325.1347822 -314.99951172 322.75024414 C-314.98319073 322.04629831 -314.96686974 321.34235249 -314.95005417 320.61707497 C-314.85262667 317.36825418 -314.66419942 314.36250439 -313.6875 311.25 C-314.32848633 311.28758423 -314.96947266 311.32516846 -315.62988281 311.3638916 C-322.37956919 311.75873751 -329.12961119 312.14703037 -335.87988281 312.53173828 C-338.38974279 312.67560945 -340.89951169 312.82107967 -343.40917969 312.96826172 C-356.84385023 313.7550731 -370.22578617 314.53219431 -383.6875 314.25 C-383.92916154 301.6746496 -383.17278516 289.28097569 -382.1875 276.75 C-382.04241744 274.84769822 -381.89788293 272.94535455 -381.75390625 271.04296875 C-381.40473313 266.44480678 -381.04822068 261.84726989 -380.6875 257.25 C-366.24736292 255.37183425 -351.76662075 254.23248508 -337.25 253.125 C-334.88734716 252.94169772 -332.52471676 252.75810594 -330.16210938 252.57421875 C-327.92189494 252.40078395 -325.68166127 252.22759736 -323.44140625 252.0546875 C-322.389496 251.97346649 -321.33758575 251.89224548 -320.25379944 251.80856323 C-318.80474464 251.6981218 -318.80474464 251.6981218 -317.32641602 251.58544922 C-316.4761232 251.52042206 -315.62583038 251.4553949 -314.74977112 251.38839722 C-313.3979358 251.29767673 -312.04237599 251.25 -310.6875 251.25 C-310.657771 250.26495483 -310.657771 250.26495483 -310.62744141 249.26000977 C-308.79370574 190.77802551 -298.06057356 143.41225441 -256.6875 100.25 C-256.18492676 99.72019531 -255.68235352 99.19039063 -255.16455078 98.64453125 C-247.7798485 90.89393066 -240.04699704 83.98910381 -231.47021484 77.58398438 C-229.70460851 76.26280209 -227.95545257 74.92193269 -226.20703125 73.578125 C-163.15241483 25.63957943 -78.90604188 0.07496173 0 0 Z " fill="#FEFEFE" transform="translate(437.6875,121.75)"/>
<path d="M0 0 C9.64972894 7.29811433 14.86201217 15.04063059 17 27 C18.06854149 38.15290181 15.37470813 47.78453707 9 57 C1.51327994 65.27552421 -7.41243586 70.1116313 -18.4921875 71.2578125 C-29.00680939 71.71496997 -38.96606509 68.89592195 -47 61.984375 C-56.07891979 52.97638427 -59.34841478 45.17466175 -60 32.46875 C-60 20.91959429 -55.93733455 12.38665694 -48.125 4.04296875 C-35.41894519 -8.17259497 -14.70587252 -9.50398645 0 0 Z M-46 12 C-46.70125 12.763125 -47.4025 13.52625 -48.125 14.3125 C-53.7126417 22.3214531 -53.91488849 30.46048853 -53 40 C-52.13201862 43.37384851 -50.85123626 46.06116244 -49 49 C-48.5875 49.69609375 -48.175 50.3921875 -47.75 51.109375 C-43.19761254 57.98968786 -36.50121054 62.28921095 -28.5625 64.4375 C-19.2010227 66.01972152 -10.87575286 64.2766238 -3 59 C3.55081971 53.70503692 7.35802364 47.92592908 10 40 C10.81884916 28.80458683 9.99853322 20.70312714 2.8125 11.8125 C-4.21028415 4.31054935 -11.3591568 0.76408432 -21.5 -0.25 C-31.74528844 0.77452884 -39.04510906 4.2723434 -46 12 Z " fill="#E4002B" transform="translate(939,885)"/>
<path d="M0 0 C3.465 -0.061875 6.93 -0.12375 10.5 -0.1875 C12.11358398 -0.22846802 12.11358398 -0.22846802 13.75976562 -0.27026367 C19.9014647 -0.32295537 24.43516403 0.34521587 30 3 C33.10884106 6.40029491 33.46923162 9.62177338 33.29296875 14.0703125 C32.86045852 16.91911321 31.77720667 18.76203604 30 21 C29.01 21.66 28.02 22.32 27 23 C28.2065625 24.0828125 28.2065625 24.0828125 29.4375 25.1875 C33.4717283 29.89409968 32.90361443 36.09419344 33 42 C30.36 42 27.72 42 25 42 C24.91363281 41.16855469 24.82726562 40.33710937 24.73828125 39.48046875 C24.59777344 38.39378906 24.45726562 37.30710937 24.3125 36.1875 C24.18488281 35.10855469 24.05726563 34.02960937 23.92578125 32.91796875 C23.24802577 29.86126593 23.24802577 29.86126593 20.75 28.15625 C16.4834997 26.36238056 12.60469416 26.30697961 8 26 C8 31.28 8 36.56 8 42 C5.36 42 2.72 42 0 42 C0 28.14 0 14.28 0 0 Z M8 6 C8 10.62 8 15.24 8 20 C15.20362054 20.38538336 15.20362054 20.38538336 22.125 18.875 C24.22327588 17.0526664 24.22327588 17.0526664 25 14.0625 C25.24271182 11.01089727 25.24271182 11.01089727 23.75 8.6875 C20.59581569 5.64596513 17.4728729 5.88855444 13.3125 5.9375 C11.559375 5.958125 9.80625 5.97875 8 6 Z " fill="#E4002B" transform="translate(902,896)"/>
</svg>
