<?xml version="1.0" encoding="utf-8"?>
<!-- Generator: Adobe Illustrator 26.5.0, SVG Export Plug-In . SVG Version: 6.00 Build 0)  -->
<svg version="1.1" xmlns="http://www.w3.org/2000/svg" xmlns:xlink="http://www.w3.org/1999/xlink" x="0px" y="0px"
	 viewBox="0 0 464 464" style="enable-background:new 0 0 464 464;" xml:space="preserve">
<style type="text/css">
	.st0{display:none;}
	.st1{display:inline;fill:#86CDB2;}
	.st2{display:inline;fill:none;stroke:#891286;stroke-width:1.2128;stroke-miterlimit:10;}
	.st3{fill:#12438C;}
</style>
<g id="Reperes" class="st0">
	<rect x="232" class="st1" width="232" height="464"/>
	<rect x="156.7" y="0.5" class="st2" width="6.1" height="35.2"/>
	<rect x="156.7" y="429.4" class="st2" width="6.1" height="35.2"/>
	
		<rect x="15.6" y="143.2" transform="matrix(7.439672e-06 1 -1 7.439672e-06 179.5004 142.1107)" class="st2" width="6.1" height="35.2"/>
	
		<rect x="15" y="288.4" transform="matrix(7.439672e-06 1 -1 7.439672e-06 324.0827 287.9715)" class="st2" width="6.1" height="35.2"/>
</g>
<g id="Layer_1">
	<g>
		<path class="st3" d="M84.7,354.4l-48.9-48.9l73.5-73.6l-73-73l48.9-48.9l121.9,121.9L84.7,354.4z"/>
		<path class="st3" d="M159.8,429.5l-48.9-48.9l122.6-122.5L355.4,380L306.5,429l-73-73.1L159.8,429.5z"/>
		<path class="st3" d="M233.1,205.9L111,84L160,35l73.1,73.1l73.5-73.6l48.9,48.9L233.1,205.9z"/>
	</g>
</g>
</svg>
