<svg xmlns="http://www.w3.org/2000/svg" width="1156.879" height="713.807" viewBox="0 0 1156.879 713.807">
  <g>
    <path d="M701.833,376.256V416.93H816.386v44.563H657.309V252.363H817.3v44.562H701.833V337.6h93.939v38.656Z" fill="#10111d"/>
    <g>
      <path d="M511.057,392.159v4.022a65.311,65.311,0,0,1-65.311,65.311H337.724V392.159Z" fill="#ed681e"/>
      <rect x="376.512" y="270.312" width="86.667" height="86.667" transform="translate(-98.811 388.739) rotate(-45)" fill="#ffbd07"/>
    </g>
    <path d="M615.526,252.363c0-.017,0-.032,0-.049l-12.789.049h-20.4l-.01.078-3.08.011a58.822,58.822,0,0,1-58.6,59.049l.138,36.274a94.656,94.656,0,0,0,60.592-22.167V461.492H625.66V252.363Z" fill="#10111d"/>
  </g>
</svg>
