<svg xmlns="http://www.w3.org/2000/svg" width="176" height="33" viewBox="0 0 176 33" fill="none">
  <path d="M19.9527 7.08475L17.3048 3.50509H5.48233L3.50571 6.18984V19.9119L5.48233 22.5966H17.2675L19.9527 19.0169L22.7125 21.1424L18.983 26.1017H3.76677L0 21.1051V4.99661L3.76677 0H19.0203L22.7498 4.95933L19.9527 7.08475Z" fill="#1A68FF"/>
  <path d="M29.5162 26.1017L26.1223 21.1797V0H29.2924V19.9864L31.0825 22.5966H33.7678V26.1017H29.5162Z" fill="#1A68FF"/>
  <path d="M50.1 26.1763H40.8509L36.7484 23.1186V11.3356L40.8509 8.31526H50.1L54.2024 11.3356V23.1186L50.1 26.1763ZM50.7713 13.0881L48.9438 11.7085H42.007L40.1796 13.0881V21.3661L42.007 22.7458H48.9438L50.7713 21.3661V13.0881Z" fill="#1A68FF"/>
  <path d="M70.4573 26.0644V24.6475L68.7045 26.1017H61.2828L57.1804 23.0441V8.27797H60.6115V20.9559L62.4017 22.6712H68.6299L70.4573 20.9559V8.27797H73.8512V26.0644H70.4573Z" fill="#1A68FF"/>
  <path d="M91.533 26.0644V25.0203L90.1158 26.1017H80.9785L77.2118 22.9322V11.4102L80.9785 8.27797H90.2649L91.533 9.39662V0.111865H94.9641V26.0644H91.533ZM91.533 13.9458L89.5563 11.7458H82.2093L80.6429 13.0508V21.2915L82.2093 22.5966H89.7055L91.533 20.8441V13.9458Z" fill="#1A68FF"/>
  <path fill-rule="evenodd" clip-rule="evenodd" d="M115.492 17.4881V26.1017H118.96V13.1254L118.361 12.2252L118.233 12.3972L117.075 13.9484L115.917 15.4996L114.759 17.0507V17.0534L114.435 17.4881H115.492ZM112.705 17.4881V14.013L101.842 13.9831L108.406 3.54238L114.098 12.0946L115.021 10.8584L116.178 9.30724L116.307 9.13514L114.596 6.56272L110.233 0H106.503L98.3359 13.0881V26.1017H101.767V17.4881H112.705Z" fill="#1A68FF"/>
  <path d="M143.648 33L141 30.8L144.991 25.8407L138.725 18.4949V8.27797H142.157V17.1898L147.079 22.9695H147.266L151.853 17.339V8.27797H155.247V18.5695L143.648 33Z" fill="#1A68FF"/>
  <path d="M161.678 18.3831V21.3288L163.505 22.6712H171.002L173.575 20.5085L175.813 23.1932L172.232 26.1017H162.349L158.247 23.0441V11.3356L162.349 8.31526H172.232L175.999 11.4102V18.3831H161.678ZM172.568 13.0136L171.002 11.7085H163.505L161.678 13.0881V15.1017H172.568V13.0136Z" fill="#1A68FF"/>
  <path fill-rule="evenodd" clip-rule="evenodd" d="M127.145 26.1017H135.73V22.5966H124.84L127.145 26.1017ZM125.105 14.878H133.194V11.3729H122.863L125.105 14.878ZM122.863 6.19251V6.18984L124.84 3.50509H135.73V0H123.124L120.809 3.10241L122.863 6.19251Z" fill="#1A68FF"/>
</svg>