<?xml version="1.0" encoding="utf-8"?>
<!-- Generator: Adobe Illustrator 27.2.0, SVG Export Plug-In . SVG Version: 6.00 Build 0)  -->
<svg version="1.1" id="Layer_1" xmlns="http://www.w3.org/2000/svg" xmlns:xlink="http://www.w3.org/1999/xlink" x="0px" y="0px"
	 viewBox="0 0 600 600" style="enable-background:new 0 0 600 600;" xml:space="preserve">
<style type="text/css">
	.st0{fill:#00ADE4;}
</style>
<path class="st0" d="M550.6,198.2L401.8,49.4c-2.6-2.6-26.1-25.4-61.5-37.2C289.6-4.7,239,8.5,198.2,49.4L49.4,198.2
	c-2.6,2.6-25.4,26.1-37.2,61.5C-4.7,310.5,8.4,361,49.4,401.9l148.7,148.7c2.6,2.6,26.1,25.4,61.5,37.2c14.5,4.9,28.8,7.1,43.1,7.1
	c35.7,0,70-15,99.1-44.4l148.7-148.7c2.6-2.6,25.4-26.1,37.2-61.5C604.7,289.6,591.6,239.2,550.6,198.2 M311.6,92.5
	c16.7,5.1,29.3,16.5,30.3,17.5l44,44l-85.8,85.8L214.3,154l44.2-44.2C270.4,98,287.1,85.4,311.6,92.5 M92.5,288.6
	c4.9-16.7,16.4-29.3,17.5-30.3l44-44l85.8,85.8L154,385.9l-44.2-44.2C97.9,329.8,85.3,313.1,92.5,288.6 M288.6,507.5
	c-16.7-4.9-29.3-16.4-30.3-17.5l-44-44l85.8-85.8l85.8,85.8l-44.2,44.2C329.8,502.3,313.1,514.9,288.6,507.5 M507.5,311.6
	c-4.9,16.7-16.4,29.3-17.5,30.3l-44,44l-85.8-85.8l85.8-85.8l44.2,44.2C502.2,270.4,514.8,287.1,507.5,311.6"/>
</svg>
