<?xml version="1.0" encoding="utf-8"?>
<!-- Generator: Adobe Illustrator 27.5.0, SVG Export Plug-In . SVG Version: 6.00 Build 0)  -->
<svg version="1.1" id="Mezmo" xmlns="http://www.w3.org/2000/svg" xmlns:xlink="http://www.w3.org/1999/xlink" x="0px" y="0px"
	 viewBox="0 0 669 669" style="enable-background:new 0 0 669 669;" xml:space="preserve">
<style type="text/css">
	.st0{fill:#031403;}
	.st1{fill:#E9FF92;}
</style>
<rect x="-13" y="-8.8" class="st0" width="695.4" height="692"/>
<path class="st1" d="M512.8,357.5v-45.9c0-10.2,7.9-18,18-18h36.1c10.2,0,18,7.9,18,18v45.9c0,10.2-7.9,18-18,18h-36.1
	C520.6,375.5,512.8,367.6,512.8,357.5z M527.8,311.9v45.3c0,2,1.3,3.3,3.3,3.3h35.4c2,0,3.3-1.3,3.3-3.3v-45.3c0-2-1.3-3.3-3.3-3.3
	h-35.4C529.2,308.5,527.8,310,527.8,311.9 M429.3,314.1v51.5c0,6.6,3,11.2,9.8,11.2c5.2,0,8.9-3.9,10.8-9.5l18.4-53.1
	c1.5-4.4,3.8-6.9,8.4-6.9c3.4,0,6.4,2.5,6.4,6.9v60.4c0,0.7,0.3,1,1,1h13c0.7,0,1-0.3,1-1V314c0-12.1-9.3-21.6-21-21.6
	c-11.3,0-18.9,7.1-22.5,17.7l-8.7,25.6c-0.3,1-0.5,1.3-1,1.3s-0.7-0.3-0.7-0.7V314c0-12.1-9.3-21.6-21-21.6
	c-11.3,0-18.9,7.1-22.5,17.7l-8.7,25.6c-0.3,1-0.5,1.3-1,1.3s-0.7-0.3-0.7-0.7v-41.8c0-0.7-0.3-1-1-1h-13c-0.7,0-1,0.3-1,1v71.2
	c0,6.6,3,11.2,9.8,11.2c5.2,0,8.9-3.9,10.8-9.5l18.4-53.1c1.5-4.1,4.1-6.9,8.4-6.9C426.3,307.2,429.3,309.8,429.3,314.1z
	 M344.3,293.5h-45.6c-0.7,0-1,0.3-1,1v13.1c0,0.7,0.3,1,1,1H344c2.5,0,3.9,1.3,3.9,3.4c0,2.3-1.1,3.1-3.6,4.8l-35.1,22.3
	c-6.7,4.3-11.8,9.5-11.8,18.7c0,9.8,8.2,17.7,19,17.7h45.9c0.7,0,1-0.3,1-1v-13.1c0-0.7-0.3-1-1-1h-45.6c-2.5,0-3.9-1.3-3.9-3.4
	s1.1-3.1,3.6-4.8l35.1-22.3c6.2-3.9,11.8-9.5,11.8-18.7C363.4,301.4,355.2,293.5,344.3,293.5z M221.3,357.5v-45.9
	c0-10.2,7.9-18,18-18h29.5c10.8,0,18.7,8.5,18.7,17.7c0,7.5-3.3,12.8-10.5,17.4L237.3,354c-0.5,0.3-1,0.7-1,1.6v1.6
	c0,2,1.3,3.3,3.3,3.3h45.6c0.7,0,1,0.3,1,1v13.1c0,0.7-0.3,1-1,1h-45.9C229.2,375.5,221.3,367.6,221.3,357.5z M236.4,311.9V336
	c0,0.5,0.3,0.8,0.8,0.8s0.8-0.2,2.1-1l29.8-19c2-1.1,3.3-2.3,3.3-4.6c0-2.1-1.5-3.6-3.9-3.6h-28.9
	C237.7,308.5,236.4,310,236.4,311.9z M137.9,314.1v51.5c0,6.6,3,11.2,9.8,11.2c5.2,0,8.9-3.9,10.8-9.5l18.4-53.1
	c1.5-4.4,3.8-6.9,8.4-6.9c3.4,0,6.4,2.5,6.4,6.9v60.4c0,0.7,0.3,1,1,1h13c0.7,0,1-0.3,1-1V314c0-12.1-9.3-21.6-21-21.6
	c-11.3,0-18.9,7.1-22.5,17.7l-8.7,25.6c-0.3,1-0.5,1.3-1,1.3s-0.7-0.3-0.7-0.7V314c0-12.1-9.3-21.6-21-21.6
	c-11.3,0-18.9,7.1-22.5,17.7l-8.7,25.6c-0.3,1-0.5,1.3-1,1.3s-0.7-0.3-0.7-0.7v-41.8c0-0.7-0.3-1-1-1H85c-0.7,0-1,0.3-1,1v71.2
	c0,6.6,3,11.2,9.8,11.2c5.2,0,8.9-3.9,10.8-9.5l18.4-53.1c1.5-4.1,4.1-6.9,8.4-6.9C134.9,307.2,137.9,309.8,137.9,314.1z"/>
</svg>
