<svg width="125" height="56" viewBox="0 0 125 56" fill="none" xmlns="http://www.w3.org/2000/svg">
<path fill-rule="evenodd" clip-rule="evenodd" d="M101.217 34.7461C102.464 31.3413 103.638 28.134 104.812 24.9268C105.86 22.0657 106.909 19.2046 107.96 16.3445C108.299 15.421 108.486 15.2897 109.501 15.2866C111.448 15.2805 113.395 15.2795 115.342 15.2856C116.494 15.2897 116.679 15.5585 116.254 16.6235C112.858 25.1375 109.46 33.6505 106.061 42.1636C104.435 46.2383 102.808 50.3121 101.181 54.3858C100.801 55.3378 100.601 55.4865 99.5856 55.4895C97.7081 55.4956 95.8305 55.4977 93.953 55.4885C92.855 55.4834 92.6663 55.1953 93.0816 54.1873C94.3489 51.1134 95.6122 48.0375 96.8999 44.9717C97.0928 44.5125 97.0989 44.1297 96.9112 43.6613C93.2979 34.6616 89.7009 25.6558 86.102 16.651C85.6673 15.5625 85.856 15.2887 87.0438 15.2856C88.9224 15.2805 90.7999 15.2825 92.6765 15.2846C93.8887 15.2866 94.0448 15.3956 94.4571 16.5115C96.5999 22.3151 98.7418 28.1198 100.886 33.9224C100.963 34.1332 101.053 34.3388 101.217 34.7461" fill="#00D184"/>
<path fill-rule="evenodd" clip-rule="evenodd" d="M76.3159 21.6837V22.5715C76.3159 29.2915 76.3159 36.0115 76.3159 42.7315C76.3159 44.0979 76.1404 44.268 74.7424 44.268C72.9588 44.269 71.1741 44.271 69.3894 44.267C68.2853 44.2649 68.0455 44.0246 68.0445 42.9179C68.0424 36.1297 68.0434 29.3404 68.0434 22.5512V21.5941C66.9363 21.5941 65.922 21.5982 64.9088 21.5931C63.9792 21.588 63.7404 21.366 63.7332 20.4588C63.722 19.0965 63.72 17.7342 63.7343 16.3708C63.7434 15.5308 63.9812 15.3007 64.82 15.2885C65.6771 15.2742 66.5363 15.2549 67.3914 15.2946C67.9281 15.3201 68.0465 15.1134 68.0547 14.6155C68.0904 12.5628 68.0618 10.5 68.2588 8.46057C68.6251 4.66479 71.2547 1.96457 75.019 1.30784C76.9516 0.970822 78.8833 0.878167 80.8169 1.29969C80.9741 1.33431 81.1302 1.38115 81.2843 1.43002C82.9302 1.95744 83.0149 2.07351 83.0149 3.76064C83.0149 5.05373 83.0169 6.34682 83.0139 7.63991C83.0128 8.5858 82.9282 8.65402 81.9547 8.53999C81.22 8.45344 80.4843 8.30784 79.7486 8.30377C77.4343 8.29053 76.3822 9.32602 76.3292 11.62C76.3047 12.6351 76.3404 13.6523 76.3067 14.6674C76.2904 15.1633 76.4771 15.2987 76.9516 15.2926C78.573 15.2702 80.1955 15.2783 81.8179 15.2865C82.772 15.2915 83.0088 15.5308 83.0128 16.4777C83.019 17.7708 83.0179 19.0639 83.0139 20.357C83.0108 21.3528 82.7771 21.589 81.7935 21.5931C80.0557 21.6002 78.3179 21.6012 76.5802 21.6073C76.5363 21.6073 76.4924 21.6318 76.3159 21.6837" fill="#00D184"/>
<path fill-rule="evenodd" clip-rule="evenodd" d="M46.1699 22.0963C44.9954 22.0779 43.7372 22.362 42.5975 23.0381C39.8403 24.6723 38.8872 27.2381 39.0107 30.2723C39.2209 35.4008 43.7087 38.5704 48.625 37.1165C51.6413 36.2245 53.5454 33.5274 53.6577 29.9872C53.8026 25.4074 50.7117 22.083 46.1699 22.0963M46.3361 44.9636C37.6525 44.9554 31.1219 38.4411 31.1096 29.7754C31.0974 21.0893 37.6657 14.5576 46.3872 14.5831C55.0443 14.6075 61.527 21.1025 61.53 29.757C61.5341 38.4309 54.9994 44.9707 46.3361 44.9636" fill="#00D184"/>
<path fill-rule="evenodd" clip-rule="evenodd" d="M13.5392 45.1203C8.44123 44.88 4.09837 43.1613 0.713678 39.2963C0.486127 39.0356 0.19429 38.778 0.098372 38.4695C-0.00570962 38.1366 -0.0648933 37.6224 0.11776 37.3974C1.28103 35.9607 2.50347 34.5689 3.73715 33.1902C4.18409 32.6893 4.67592 32.84 5.13919 33.2493C5.95245 33.9692 6.73307 34.7389 7.61266 35.3681C10.182 37.207 13.0361 37.6672 16.0718 36.8313C17.7127 36.3792 18.832 35.3518 19.1218 33.5975C19.4331 31.7088 18.8137 30.1683 17.1494 29.2295C15.3984 28.2429 13.5371 27.4548 11.7494 26.5324C9.65449 25.451 7.45654 24.5052 5.53613 23.1693C1.4647 20.3377 0.230005 16.2294 1.1198 11.5142C1.98103 6.94865 4.93103 4.12625 9.35756 2.98486C15.7188 1.34356 21.2147 2.99708 25.7606 7.73774C26.2688 8.26719 26.2922 8.69687 25.8259 9.2701C24.7463 10.5978 23.6545 11.9164 22.5514 13.2247C22.0331 13.8397 21.6555 13.857 21.0147 13.3204C19.5514 12.0966 18.0525 10.9267 16.1616 10.4349C14.4627 9.99199 12.7576 9.94414 11.1351 10.7251C8.74531 11.8756 8.2596 15.0798 10.2688 16.8067C11.0963 17.5194 12.1116 18.0407 13.0974 18.5366C15.828 19.905 18.6361 21.1258 21.3218 22.5726C23.7147 23.8606 25.6137 25.7178 26.6443 28.3091C29.3708 35.1614 25.7014 42.3692 18.4535 44.2854C16.8535 44.7079 15.179 44.8495 13.5392 45.1203" fill="#00D184"/>
<path fill-rule="evenodd" clip-rule="evenodd" d="M113.957 39.577C113.966 36.5174 116.38 34.0605 119.376 34.0615C122.396 34.0636 124.87 36.5673 124.864 39.6177C124.86 42.6173 122.382 45.0355 119.335 45.0151C116.315 44.9948 113.948 42.601 113.957 39.577" fill="#00D184"/>
</svg>
