<svg width="1063" height="400" viewBox="0 0 1063 400" fill="none" xmlns="http://www.w3.org/2000/svg">
<rect width="1063" height="400" fill="white"/>
<g clip-path="url(#clip0_32_32)">
<path d="M203.759 114.149L217.405 139.307L205.249 166.912L179.353 169.314L165.707 144.202L177.91 116.597L203.759 114.149Z" fill="#FF9700"/>
<path d="M152.992 159.659L163.099 178.244L154.063 198.687L134.921 200.5L124.814 181.87L133.849 161.427L152.992 159.659Z" fill="#468DFD"/>
<path d="M111.027 209.52L118.2 222.756L111.773 237.261L98.1726 238.531L91 225.295L97.4274 210.79L111.027 209.52Z" fill="#B33FFE"/>
<path d="M250.055 197.69L263.701 222.847L251.499 250.452L225.649 252.854L212.003 227.742L224.159 200.137L250.055 197.69Z" fill="#FF9700"/>
<path d="M207.066 231.641L220.712 256.798L208.51 284.403L182.66 286.851L169.014 261.693L181.17 234.088L207.066 231.641Z" fill="#FF5C00"/>
<path d="M248.424 139.851L262.071 165.008L249.915 192.568L224.019 195.015L210.372 169.858L222.529 142.298L248.424 139.851Z" fill="#FF9700"/>
<path d="M152.806 213.509L162.773 231.777L153.877 251.857L135.107 253.625L125.14 235.312L134.036 215.277L152.806 213.509Z" fill="#FE4792"/>
</g>
<path d="M331.306 263L295.858 137.399H320.328L342.958 229.699H344.124L368.287 137.399H390.549L414.774 229.76H415.878L438.508 137.399H462.978L427.53 263H405.084L379.939 174.871H378.958L353.752 263H331.306ZM509.864 264.84C500.419 264.84 492.263 262.877 485.394 258.952C478.566 254.986 473.312 249.385 469.632 242.148C465.953 234.871 464.113 226.305 464.113 216.452C464.113 206.762 465.953 198.257 469.632 190.939C473.353 183.58 478.546 177.856 485.21 173.767C491.874 169.637 499.704 167.573 508.699 167.573C514.505 167.573 519.983 168.513 525.135 170.394C530.327 172.234 534.906 175.096 538.872 178.98C542.879 182.864 546.027 187.811 548.317 193.821C550.607 199.791 551.751 206.905 551.751 215.164V221.971H474.539V207.007H530.47C530.43 202.755 529.51 198.973 527.711 195.661C525.912 192.309 523.397 189.671 520.167 187.75C516.978 185.828 513.258 184.867 509.005 184.867C504.467 184.867 500.481 185.971 497.046 188.179C493.612 190.346 490.934 193.208 489.012 196.765C487.132 200.281 486.171 204.145 486.13 208.356V221.419C486.13 226.898 487.132 231.6 489.135 235.525C491.138 239.409 493.939 242.394 497.537 244.479C501.135 246.523 505.346 247.545 510.171 247.545C513.401 247.545 516.324 247.095 518.941 246.196C521.557 245.256 523.826 243.886 525.748 242.087C527.67 240.288 529.121 238.06 530.102 235.402L550.831 237.733C549.523 243.211 547.029 247.995 543.349 252.084C539.711 256.131 535.05 259.279 529.366 261.528C523.683 263.736 517.183 264.84 509.864 264.84ZM571.515 263V137.399H593.715V184.377H594.635C595.78 182.087 597.395 179.654 599.48 177.079C601.566 174.462 604.387 172.234 607.944 170.394C611.501 168.513 616.039 167.573 621.559 167.573C628.836 167.573 635.398 169.433 641.245 173.154C647.133 176.833 651.794 182.292 655.228 189.528C658.703 196.724 660.441 205.556 660.441 216.022C660.441 226.366 658.744 235.157 655.351 242.394C651.957 249.63 647.337 255.15 641.49 258.952C635.644 262.755 629.02 264.656 621.62 264.656C616.223 264.656 611.746 263.756 608.189 261.957C604.632 260.158 601.77 257.992 599.603 255.457C597.477 252.881 595.821 250.448 594.635 248.158H593.348V263H571.515ZM593.286 215.9C593.286 221.992 594.145 227.327 595.862 231.906C597.62 236.486 600.135 240.063 603.405 242.639C606.717 245.174 610.724 246.441 615.426 246.441C620.332 246.441 624.441 245.133 627.753 242.516C631.065 239.859 633.559 236.24 635.235 231.661C636.952 227.041 637.811 221.787 637.811 215.9C637.811 210.053 636.973 204.861 635.296 200.322C633.62 195.784 631.126 192.227 627.814 189.651C624.502 187.075 620.373 185.787 615.426 185.787C610.683 185.787 606.656 187.034 603.344 189.528C600.032 192.022 597.518 195.518 595.801 200.016C594.124 204.513 593.286 209.808 593.286 215.9ZM680.296 263V137.399H702.497V184.377H703.417C704.562 182.087 706.177 179.654 708.262 177.079C710.347 174.462 713.168 172.234 716.725 170.394C720.282 168.513 724.821 167.573 730.34 167.573C737.618 167.573 744.18 169.433 750.027 173.154C755.914 176.833 760.575 182.292 764.01 189.528C767.485 196.724 769.223 205.556 769.223 216.022C769.223 226.366 767.526 235.157 764.132 242.394C760.739 249.63 756.119 255.15 750.272 258.952C744.425 262.755 737.802 264.656 730.402 264.656C725.005 264.656 720.528 263.756 716.971 261.957C713.414 260.158 710.552 257.992 708.385 255.457C706.259 252.881 704.603 250.448 703.417 248.158H702.129V263H680.296ZM702.068 215.9C702.068 221.992 702.926 227.327 704.644 231.906C706.402 236.486 708.916 240.063 712.187 242.639C715.499 245.174 719.505 246.441 724.207 246.441C729.114 246.441 733.223 245.133 736.534 242.516C739.846 239.859 742.34 236.24 744.016 231.661C745.734 227.041 746.592 221.787 746.592 215.9C746.592 210.053 745.754 204.861 744.078 200.322C742.401 195.784 739.907 192.227 736.596 189.651C733.284 187.075 729.155 185.787 724.207 185.787C719.465 185.787 715.437 187.034 712.126 189.528C708.814 192.022 706.299 195.518 704.582 200.016C702.906 204.513 702.068 209.808 702.068 215.9ZM801.773 264.349C798.052 264.349 794.863 263.041 792.205 260.424C789.548 257.808 788.239 254.618 788.28 250.857C788.239 247.177 789.548 244.029 792.205 241.412C794.863 238.796 798.052 237.487 801.773 237.487C805.371 237.487 808.498 238.796 811.156 241.412C813.854 244.029 815.224 247.177 815.265 250.857C815.224 253.351 814.57 255.62 813.302 257.664C812.076 259.709 810.44 261.344 808.396 262.571C806.393 263.756 804.185 264.349 801.773 264.349ZM865.294 264.901C859.324 264.901 853.948 263.838 849.164 261.712C844.422 259.545 840.66 256.356 837.88 252.145C835.141 247.934 833.771 242.741 833.771 236.567C833.771 231.252 834.752 226.857 836.715 223.382C838.677 219.906 841.355 217.126 844.749 215.041C848.142 212.956 851.965 211.382 856.217 210.319C860.51 209.215 864.946 208.418 869.525 207.927C875.045 207.355 879.522 206.843 882.956 206.394C886.391 205.903 888.885 205.167 890.438 204.186C892.033 203.164 892.83 201.59 892.83 199.464V199.096C892.83 194.476 891.461 190.898 888.721 188.363C885.982 185.828 882.036 184.561 876.885 184.561C871.447 184.561 867.134 185.746 863.945 188.118C860.796 190.489 858.67 193.29 857.566 196.52L836.837 193.576C838.473 187.852 841.171 183.068 844.933 179.225C848.694 175.341 853.294 172.438 858.732 170.517C864.169 168.554 870.18 167.573 876.762 167.573C881.301 167.573 885.818 168.104 890.316 169.167C894.813 170.23 898.922 171.988 902.643 174.442C906.363 176.854 909.348 180.145 911.597 184.315C913.886 188.486 915.031 193.699 915.031 199.954V263H893.689V250.06H892.953C891.604 252.676 889.703 255.13 887.249 257.419C884.837 259.668 881.791 261.487 878.111 262.877C874.473 264.227 870.2 264.901 865.294 264.901ZM871.059 248.588C875.515 248.588 879.379 247.709 882.65 245.951C885.921 244.152 888.435 241.78 890.193 238.837C891.992 235.893 892.892 232.683 892.892 229.208V218.107C892.197 218.68 891.011 219.211 889.335 219.702C887.699 220.193 885.859 220.622 883.815 220.99C881.771 221.358 879.747 221.685 877.743 221.971C875.74 222.257 874.002 222.503 872.531 222.707C869.219 223.157 866.255 223.893 863.638 224.915C861.021 225.937 858.956 227.368 857.444 229.208C855.931 231.007 855.175 233.337 855.175 236.199C855.175 240.288 856.667 243.375 859.652 245.46C862.636 247.545 866.439 248.588 871.059 248.588ZM937.355 263V168.799H959.556V263H937.355ZM948.517 155.43C945 155.43 941.975 154.264 939.44 151.934C936.905 149.563 935.638 146.721 935.638 143.409C935.638 140.057 936.905 137.215 939.44 134.885C941.975 132.513 945 131.328 948.517 131.328C952.074 131.328 955.099 132.513 957.593 134.885C960.128 137.215 961.396 140.057 961.396 143.409C961.396 146.721 960.128 149.563 957.593 151.934C955.099 154.264 952.074 155.43 948.517 155.43Z" fill="black"/>
<defs>
<clipPath id="clip0_32_32">
<rect width="172.701" height="172.701" fill="white" transform="translate(91 114.149)"/>
</clipPath>
</defs>
</svg>
