<svg width="628" height="628" viewBox="0 0 628 628" fill="none" xmlns="http://www.w3.org/2000/svg">
<rect width="628" height="628" fill="white"/>
<path d="M348.449 471.728L508.61 195.43C523.918 169.018 504.783 136 474.159 136H153.84C123.216 136 104.077 169.018 119.389 195.43L147.571 244.046L158.244 262.461C174.398 290.327 210.109 299.875 238.057 283.803L286.088 256.182C289.703 254.103 290.941 249.489 288.854 245.884L274.263 220.712C268.458 210.7 275.697 198.172 287.288 198.172H408.809C420.415 198.172 427.665 210.719 421.853 220.746L361.134 325.5C355.321 335.526 340.813 335.526 335.001 325.5L320.399 300.305C318.315 296.707 313.703 295.476 310.095 297.547L262.042 325.179C234.121 341.237 224.557 376.858 240.692 404.697L251.365 423.112L279.547 471.728C294.878 498.166 333.125 498.166 348.449 471.728Z" fill="#29063E"/>
</svg>
