<svg width="109" height="53" viewBox="0 0 109 53" fill="none" xmlns="http://www.w3.org/2000/svg">
<g clip-path="url(#clip0_22332_8144)">
<path d="M3.37084 44.8567C3.29048 44.8567 3.11021 44.7414 3.11021 44.5759V19.5496C3.08198 18.6506 2.60198 17.5383 1.41177 17.0703C1.04037 16.9114 0.490876 16.8961 0.186807 16.8482C0.119477 16.8374 0.00219345 16.7699 0.00219345 16.6131V13.7725C0.00219345 13.6223 0.123821 13.5004 0.273683 13.5004H10.5295C10.6794 13.5004 10.801 13.6223 10.801 13.7725V38.8075C10.801 39.9089 11.5438 41.006 12.6775 41.3478C12.9468 41.4283 13.4572 41.4632 13.7179 41.5067C13.8438 41.5285 13.9133 41.6199 13.9133 41.744V44.5803C13.9133 44.7305 13.7917 44.8524 13.6419 44.8524L3.37519 44.8589L3.37084 44.8567Z" fill="#0A89FC"/>
<path d="M108.993 50.2855V49.8871C108.993 49.7609 108.924 49.6695 108.798 49.6499C108.537 49.6063 108.027 49.5715 107.758 49.491C106.774 49.1971 106.085 48.3286 105.918 47.386C105.896 47.2511 105.879 47.0486 105.879 46.9485V27.7189C105.907 26.8199 106.396 25.7076 107.586 25.2396C107.957 25.0807 108.507 25.0654 108.811 25.0175C108.878 25.0067 108.996 24.9392 108.996 24.7825V21.9418C108.996 21.8286 108.946 21.6697 108.737 21.6697H107.388H98.5313C98.5313 21.6697 98.5313 21.6697 98.5292 21.6697H98.527C98.527 21.6697 98.5183 21.6718 98.514 21.6718C98.3619 21.6806 98.2512 21.8025 98.2512 21.9614V23.0236C98.2512 23.2457 97.997 23.3741 97.8168 23.2413L97.4649 22.9757C95.7339 21.5565 94.0941 20.7337 91.1164 20.7337C85.1501 20.7337 80.6543 26.193 80.6543 33.1434C80.6543 34.1926 80.7585 35.2135 80.9627 36.1974C81.0213 36.4891 81.0061 36.7939 80.8932 37.0703C80.3676 38.3546 79.4575 39.3189 78.3781 39.3189C76.5667 39.3189 75.6654 37.4774 75.6654 34.3319L75.6523 21.8525C75.6523 21.7263 75.5502 21.6218 75.4221 21.6218H68.1614C68.0354 21.6218 67.9311 21.7241 67.9311 21.8525V29.9087C67.9311 29.9087 67.9333 30.0611 67.916 30.17C67.9051 30.2331 67.8921 30.3027 67.8747 30.3637C65.2771 38.6615 60.7638 39.3516 58.6701 39.3516C56.4417 39.3516 52.5583 38.2501 51.9219 32.1878C51.2856 26.1255 54.4587 23.5765 55.8596 23.5765C59.0371 23.5765 59.7669 28.459 59.9037 29.937C59.9276 30.1351 60.1144 30.2113 60.2447 30.2113H62.901C63.1073 30.2113 63.2572 30.0829 63.2572 29.8674V23.213C63.2572 23.1194 63.2181 22.9801 63.1051 22.8995C62.7967 22.6819 62.5122 22.4816 62.0583 22.2182C61.0266 21.6174 59.3021 20.7293 55.549 20.7293C46.5703 20.7293 43.7055 27.055 43.7055 32.1203C43.7055 33.5483 43.8359 34.9436 44.1182 36.2606C44.1812 36.5588 44.1682 36.8701 44.0531 37.153C43.5296 38.4308 42.6413 39.2863 41.5705 39.345C39.6354 39.4539 38.9099 37.3141 38.8426 34.3232V21.8438C38.8426 21.7176 38.7405 21.6131 38.6124 21.6131H31.3517C31.2257 21.6131 31.1214 21.7154 31.1214 21.8438V34.6911V34.6976C31.078 35.6424 30.8912 37.0181 30.4286 37.8017C29.7271 38.8814 28.7475 39.3516 27.857 39.3516C25.6395 39.3516 24.5883 37.8735 24.5883 35.3245V21.8939C24.5883 21.7393 24.4667 21.6153 24.3146 21.6109H24.3168H24.3038H14.0806C13.9307 21.6109 13.8091 21.7328 13.8091 21.883V24.7237C13.8091 24.8826 13.9263 24.9479 13.9937 24.9588C14.2977 25.0067 14.8472 25.0219 15.2186 25.1808C16.4089 25.6488 16.8888 26.7611 16.9171 27.6601V35.6576C16.9171 41.7395 20.2922 45.2854 24.7773 45.2854C28.5933 45.2854 30.6805 43.6638 31.8447 42.0181C31.9229 41.9071 31.988 41.8549 32.0641 41.8549C32.1531 41.8549 32.1813 41.9027 32.24 42.0116C33.3303 44.0033 35.2329 45.2854 37.9782 45.2854C41.3816 45.2854 44.0661 43.4221 45.543 40.4878C45.5691 40.4356 45.632 40.4182 45.6603 40.4204C45.6994 40.4204 45.7363 40.4378 45.758 40.4704C47.5737 43.3677 50.7165 45.2876 55.6707 45.2876C62.3862 45.2876 65.9634 41.1866 67.614 38.1522C67.7009 38.0085 67.7574 37.941 67.8486 37.9563C67.9007 37.965 67.9616 38.0216 67.9789 38.1739C68.3004 42.1988 70.5222 45.2898 74.7662 45.2898C77.6809 45.2898 79.2686 44.2645 80.6304 42.9019C81.3623 42.1683 81.8532 41.3738 81.8619 41.3586C82.0443 41.0712 82.218 40.7752 82.3744 40.4639C82.4005 40.4095 82.4613 40.3834 82.5026 40.3855C82.5525 40.3877 82.5981 40.4138 82.6199 40.4465C82.7458 40.6489 82.8761 40.8492 83.013 41.0429C84.9699 43.8096 87.8455 45.3377 91.1077 45.3377C93.3882 45.3377 95.5862 44.5889 97.4562 43.174L97.8081 42.9084C97.984 42.7735 98.2425 42.8997 98.2425 43.1239V52.73C98.2425 52.8628 98.3902 53.0065 98.5053 53.0065H108.739C108.878 53.0065 108.989 52.8933 108.989 52.7561V50.2985L108.983 50.292L108.993 50.2855ZM93.5337 41.1365C90.7776 41.1365 88.8359 37.8714 88.8359 33.1391C88.8359 28.4068 90.9948 24.7084 93.7509 24.7084C96.5071 24.7084 97.8906 28.4111 97.8906 33.1391C97.8906 37.867 96.2964 41.1343 93.5337 41.1343V41.1365Z" fill="#0A89FC"/>
<path d="M108.993 50.2856V49.8872C108.993 49.761 108.924 49.6695 108.798 49.6499C108.537 49.6064 108.027 49.5716 107.757 49.491C106.774 49.1972 106.085 48.3286 105.918 47.3861C105.896 47.2511 105.879 47.0487 105.879 46.9486V27.719C105.907 26.82 106.396 25.7076 107.586 25.2396C107.957 25.0807 108.507 25.0655 108.811 25.0176C108.878 25.0067 108.995 24.9392 108.995 24.7825V21.9418C108.995 21.8286 108.946 21.6697 108.737 21.6697H98.529C98.529 21.6697 98.529 21.6697 98.5268 21.6697H98.5246C98.5246 21.6697 98.5159 21.6719 98.5116 21.6719C98.3596 21.6806 98.2488 21.8025 98.2488 21.9614V23.0237C98.2488 23.2457 97.9947 23.3741 97.8144 23.2414L97.4626 22.9758C95.7315 21.5565 94.0917 20.7337 91.114 20.7337C85.1478 20.7337 80.6519 26.1931 80.6519 33.1435C80.6519 34.1927 80.7562 35.2136 80.9603 36.1975C81.019 36.4892 81.0037 36.7939 80.8908 37.0704C80.3652 38.3547 79.4552 39.319 78.3757 39.319C76.5643 39.319 75.663 37.4774 75.663 34.332L75.65 21.8526C75.65 21.7263 75.5479 21.6218 75.4197 21.6218H68.159C68.033 21.6218 67.9288 21.7242 67.9288 21.8526V29.9088C67.9288 29.9088 67.931 30.0612 67.9136 30.17C67.9027 30.2331 67.8897 30.3028 67.8723 30.3638C65.2747 38.6616 60.7614 39.3516 58.6677 39.3516C56.4393 39.3516 52.5559 38.2502 51.9196 32.1879C51.2832 26.1256 54.4564 23.5766 55.8573 23.5766C59.0348 23.5766 59.7645 28.4591 59.9014 29.9371C59.9253 30.1352 60.112 30.2114 60.2424 30.2114H62.8986C63.105 30.2114 63.2548 30.083 63.2548 29.8675V23.2131C63.2548 23.1195 63.2157 22.9801 63.1028 22.8996C62.7944 22.6819 62.5098 22.4817 62.0559 22.2183C61.0243 21.6175 59.2997 20.7294 55.5467 20.7294C46.568 20.7294 43.7032 27.0551 43.7032 32.1204C43.7032 33.5484 43.8335 34.9437 44.1159 36.2606C44.1788 36.5588 44.1658 36.8701 44.0507 37.1531C43.5273 38.4309 42.6389 39.2863 41.5682 39.3473C39.633 39.4561 38.9076 37.3164 38.8403 34.3255V21.8461C38.8403 21.7198 38.7382 21.6153 38.61 21.6153H31.3493C31.2233 21.6153 31.1191 21.7176 31.1191 21.8461V34.6934V34.6999C31.0756 35.6446 30.8889 37.0203 30.4262 37.804C29.7247 38.8836 28.7452 39.3538 27.8547 39.3538C25.6372 39.3538 24.5859 37.8758 24.5859 35.3268V21.8961C24.5859 21.7416 24.4643 21.6175 24.3123 21.6131H24.3145H24.3014H14.0782C13.9283 21.6131 13.8067 21.735 13.8067 21.8852V24.7259C13.8067 24.8848 13.924 24.9501 13.9913 24.961C14.2954 25.0089 14.8449 25.0241 15.2163 25.183C16.4065 25.651 16.8865 26.7634 16.9147 27.6624V35.6598C16.9147 41.7417 20.2899 45.2877 24.7749 45.2877C28.591 45.2877 30.6782 43.666 31.8423 42.0204C31.9205 41.9093 31.9857 41.8571 32.0617 41.8571C32.1507 41.8571 32.179 41.905 32.2376 42.0138C33.3279 44.0056 35.2305 45.2877 37.9758 45.2877C41.3792 45.2877 44.0637 43.4244 45.5406 40.4901C45.5667 40.4378 45.6297 40.4204 45.6579 40.4226C45.697 40.4226 45.7339 40.44 45.7557 40.4727C47.5714 43.37 50.7141 45.2899 55.6683 45.2899C62.3839 45.2899 65.961 41.1888 67.6117 38.1544C67.6986 38.0107 67.755 37.9433 67.8463 37.9585C67.8984 37.9672 67.9592 38.0238 67.9766 38.1762C68.298 42.201 70.5199 45.292 74.7638 45.292C77.6785 45.292 79.2662 44.2668 80.628 42.9041C81.3599 42.1706 81.8508 41.376 81.8595 41.3608C82.0419 41.0735 82.2157 40.7774 82.3721 40.4661C82.3981 40.4117 82.4589 40.3856 82.5002 40.3878C82.5502 40.39 82.5958 40.4161 82.6175 40.4487C82.7435 40.6512 82.8738 40.8514 83.0106 41.0452C84.9675 43.8118 87.8431 45.3399 91.1053 45.3399C93.3859 45.3399 95.5838 44.5911 97.4539 43.1762L97.8057 42.9107C97.9817 42.7757 98.2401 42.902 98.2401 43.1262V52.7322C98.2401 52.865 98.3878 53.0087 98.5029 53.0087H108.737C108.876 53.0087 108.987 52.8955 108.987 52.7584V50.3008L108.98 50.2943L108.993 50.2856ZM93.5336 41.1366C90.7774 41.1366 88.8357 37.8714 88.8357 33.1391C88.8357 28.4068 90.9946 24.7085 93.7508 24.7085C96.5069 24.7085 97.8904 28.4112 97.8904 33.1391C97.8904 37.8671 96.2962 41.1344 93.5336 41.1344V41.1366Z" fill="#0A89FC"/>
<path d="M85.7039 16.254L76.8924 19.3537C76.7165 19.4168 76.5188 19.358 76.4037 19.2078L72.1402 13.0323C71.9665 12.806 71.6255 12.806 71.4517 13.0323L67.1882 19.21C67.0731 19.358 66.8777 19.4168 66.6996 19.3559L57.8881 16.254C57.4776 16.1103 57.5102 15.5182 57.9337 15.4203L65.2075 13.7158C65.492 13.6484 65.631 13.3284 65.4855 13.0759L61.702 6.48026C61.4848 6.10368 61.8953 5.67486 62.2797 5.8773L68.3046 9.02926C68.5479 9.15552 68.8454 9.02926 68.9236 8.76587L71.3822 0.315652C71.5039 -0.102288 72.0946 -0.102288 72.2162 0.315652L74.6749 8.76587C74.7509 9.02926 75.0506 9.15769 75.2939 9.02926L81.3188 5.8773C81.7032 5.67486 82.1137 6.10368 81.8965 6.48026L78.113 13.0759C77.9675 13.3284 78.1065 13.6505 78.391 13.7158L85.6648 15.4203C86.0883 15.5204 86.1187 16.1103 85.7104 16.254H85.7039Z" fill="#0A89FC"/>
</g>
<defs>
<clipPath id="clip0_22332_8144">
<rect width="109" height="53" fill="white"/>
</clipPath>
</defs>
</svg>
