<svg xmlns="http://www.w3.org/2000/svg" xmlns:xlink="http://www.w3.org/1999/xlink" viewBox="0 0 235.68 150.04"><defs><linearGradient id="linear-gradient" x1="84.2" y1="62.93" x2="3.54" y2="209.31" gradientUnits="userSpaceOnUse"><stop offset="0" stop-color="#00287a" stop-opacity="0"/><stop offset="1" stop-color="#00287a"/></linearGradient><linearGradient id="linear-gradient-2" x1="193.71" y1="60.89" x2="25.51" y2="252.05" xlink:href="#linear-gradient"/><linearGradient id="linear-gradient-3" x1="134.83" y1="33.61" x2="29.03" y2="224.17" xlink:href="#linear-gradient"/><linearGradient id="linear-gradient-4" x1="35.85" y1="93.83" x2="118.19" y2="93.83" gradientUnits="userSpaceOnUse"><stop offset="0" stop-color="#19a3ff" stop-opacity="0"/><stop offset="1" stop-color="#0e5fc1"/></linearGradient><linearGradient id="linear-gradient-5" x1="68.23" y1="87.57" x2="172.05" y2="77.41" gradientUnits="userSpaceOnUse"><stop offset="0" stop-color="#002061" stop-opacity="0"/><stop offset="1" stop-color="#00143d"/></linearGradient><linearGradient id="linear-gradient-6" x1="94.87" y1="-35.29" x2="-18.63" y2="170.7" xlink:href="#linear-gradient"/><linearGradient id="linear-gradient-7" x1="121.09" y1="-26.69" x2="15.29" y2="163.87" xlink:href="#linear-gradient"/><linearGradient id="linear-gradient-8" x1="163.02" y1="-0.95" x2="104.31" y2="124.96" xlink:href="#linear-gradient"/></defs><title>Instabug-Logo-H_color</title><g id="Layer_2" data-name="Layer 2"><g id="Layer_1-2" data-name="Layer 1"><polygon points="44.27 150.04 115.11 60.3 84.63 60.3 13.75 150.04 44.27 150.04" fill="#64b5f9"/><polygon points="44.26 150.04 91.98 89.74 61.37 89.74 13.65 150.04 44.26 150.04" opacity="0.2" fill="url(#linear-gradient)"/><path d="M145.93,60.3,75.1,150h70.61a39.48,39.48,0,0,0,31-15l59-74.73Z" fill="#00287a"/><path d="M145.93,60.3,75.1,150h70.61a39.48,39.48,0,0,0,31-15l59-74.73Z" fill="url(#linear-gradient-2)"/><polygon points="75.1 150.04 145.93 60.3 115.09 60.3 44.26 150.04 75.1 150.04" fill="#0098ff"/><polygon points="75.1 150.04 145.93 60.3 115.09 60.3 44.26 150.04 75.1 150.04" opacity="0.35" fill="url(#linear-gradient-3)"/><polygon points="61.37 89.74 54.92 97.91 116.26 97.91 122.69 89.74 61.37 89.74" opacity="0.8" fill="url(#linear-gradient-4)"/><path d="M174.35,60.3,163,74.73a39.46,39.46,0,0,1-31,15h-9.29l-6.43,8.17h16.59a45.63,45.63,0,0,0,36-17.45L184.78,60.3Z" opacity="0.8" fill="url(#linear-gradient-5)"/><polygon points="30.53 89.74 101.36 0 70.88 0 0 89.74 30.53 89.74" fill="#64b5f9"/><polygon points="30.53 89.74 101.36 0 70.87 0 0.04 89.74 30.53 89.74" opacity="0.2" fill="url(#linear-gradient-6)"/><polygon points="61.37 89.74 132.2 0 101.36 0 30.53 89.74 61.37 89.74" fill="#0098ff"/><polygon points="61.37 89.74 132.2 0 101.36 0 30.53 89.74 61.37 89.74" opacity="0.35" fill="url(#linear-gradient-7)"/><path d="M163,74.73,221.94,0H132.2L61.37,89.74H132A39.46,39.46,0,0,0,163,74.73Z" fill="#0e5fc1"/><path d="M163,74.73,221.94,0H132.2L61.37,89.74H132A39.46,39.46,0,0,0,163,74.73Z" opacity="0.5" fill="url(#linear-gradient-8)"/></g></g></svg>