<svg width="871" height="157" viewBox="0 0 871 157" fill="none" xmlns="http://www.w3.org/2000/svg">
<path d="M78.5586 0C35.4061 0.000657983 0.424242 34.9827 0.423828 78.1352C0.423824 121.288 35.4053 156.271 78.5587 156.271H114.218V118.005H163.996L126.554 74.2976H76.529L113.935 117.963L78.5587 117.963C56.5629 117.963 38.7326 100.132 38.7322 78.136C38.7322 56.1402 56.5632 38.3091 78.5587 38.3084C89.4891 38.3087 99.3848 42.7064 106.586 49.8388L109.743 52.9667L136.49 25.5208L133.363 22.4434C119.265 8.56842 99.9074 0.000331895 78.5586 0Z" fill="#ECE7E3"/>
<path d="M78.5586 0C35.4061 0.000657983 0.424242 34.9827 0.423828 78.1352C0.423824 121.288 35.4053 156.271 78.5587 156.271H114.218V118.005H163.996L126.554 74.2976H76.529L113.935 117.963L78.5587 117.963C56.5629 117.963 38.7326 100.132 38.7322 78.136C38.7322 56.1402 56.5632 38.3091 78.5587 38.3084C89.4891 38.3087 99.3848 42.7064 106.586 49.8388L109.743 52.9667L136.49 25.5208L133.363 22.4434C119.265 8.56842 99.9074 0.000331895 78.5586 0Z" fill="url(#paint0_linear_10485_5383)"/>
<path d="M795.677 37.5457H870.977V47.0431H813.621C809.58 47.0431 806.305 50.3185 806.305 54.3589V64.7142C806.305 68.7547 809.58 72.0301 813.621 72.0301H864.533V81.5274H813.621C809.58 81.5274 806.305 84.8028 806.305 88.8433V101.912C806.305 105.953 809.58 109.228 813.621 109.228H870.977V118.725H795.677V37.5457Z" fill="#230E0E"/>
<path d="M704.397 37.5457H779.698V47.0431H722.341C718.301 47.0431 715.025 50.3185 715.025 54.3589V64.7142C715.025 68.7547 718.301 72.0301 722.341 72.0301H773.253V81.5274H722.341C718.301 81.5274 715.025 84.8028 715.025 88.8433V101.912C715.025 105.953 718.301 109.228 722.341 109.228H779.698V118.725H704.397V37.5457Z" fill="#230E0E"/>
<path d="M691.089 47.0431H660.076C656.035 47.0431 652.76 50.3185 652.76 54.3589V118.725H641.906V54.3589C641.906 50.3185 638.63 47.0431 634.59 47.0431H603.577V37.5457H691.089V47.0431Z" fill="#230E0E"/>
<path d="M590.214 37.5457V118.725H579.36V37.5457H590.214Z" fill="#230E0E"/>
<path d="M525.489 118.725H513.052L470.427 37.5457H482.073L515.067 100.333C516.894 103.811 521.874 103.811 523.701 100.333L556.695 37.5457H568.227L525.489 118.725Z" fill="#230E0E"/>
<path d="M430.908 37.5457H442.779L485.404 118.725H473.872L462.113 96.2257H411.574L399.702 118.725H388.17L430.908 37.5457ZM441.206 56.3775C439.382 52.9015 434.407 52.8958 432.575 56.3676L420.325 79.5743C418.61 82.8224 420.965 86.7283 424.638 86.7283H449.07C452.738 86.7283 455.093 82.8318 453.388 79.5843L441.206 56.3775Z" fill="#230E0E"/>
<path d="M313.91 84.6932V118.725H303.056V37.5457H353.822C370.781 37.5457 382.54 45.5732 382.54 61.0629C382.54 74.0652 373.947 82.0927 360.832 84.1279L384.236 118.725H371.799L348.96 84.6932H313.91ZM313.91 70.4317C313.91 73.1253 316.094 75.3089 318.787 75.3089H353.256C364.789 75.3089 371.912 70.2211 371.912 61.0629C371.912 51.9048 364.789 46.93 353.256 46.93H318.787C316.094 46.93 313.91 49.1136 313.91 51.8072V70.4317Z" fill="#230E0E"/>
<path d="M242.141 36.302C263.17 36.302 278.66 46.7038 284.426 62.5327L275.268 67.3945C270.406 54.166 258.874 46.0255 242.141 46.0255C220.772 46.0255 205.621 58.9147 205.621 78.0224C205.621 97.2432 220.658 110.246 241.688 110.246C256.594 110.246 269.529 103.65 273.974 93.3764C275.614 89.5853 272.188 86.0499 268.057 86.0499H235.809V76.5526H273.025C279.759 76.5526 285.218 82.0116 285.218 88.7457V118.725H275.042V104.592C270.067 113.185 257.63 119.856 241.688 119.969C214.44 119.969 194.541 102.444 194.541 78.0224C194.541 53.6007 214.779 36.302 242.141 36.302Z" fill="#230E0E"/>
<defs>
<linearGradient id="paint0_linear_10485_5383" x1="148.216" y1="8.4793" x2="18.0578" y2="156.271" gradientUnits="userSpaceOnUse">
<stop stop-color="#FF7200"/>
<stop offset="1" stop-color="#F01114"/>
</linearGradient>
</defs>
</svg>
