<?xml version="1.0" encoding="UTF-8"?>
<svg id="Layer_2" data-name="Layer 2" xmlns="http://www.w3.org/2000/svg" xmlns:xlink="http://www.w3.org/1999/xlink" viewBox="0 0 871 157">
  <defs>
    <style>
      .cls-1 {
        fill: url(#linear-gradient);
      }

      .cls-2 {
        fill: #cdc4c1;
      }

      .cls-3 {
        fill: #ece7e3;
      }
    </style>
    <linearGradient id="linear-gradient" x1="147.97" y1="3258" x2="17.77" y2="3405.8" gradientTransform="translate(0 -3249.62)" gradientUnits="userSpaceOnUse">
      <stop offset="0" stop-color="#ff7200"/>
      <stop offset="1" stop-color="#f01114"/>
    </linearGradient>
  </defs>
  <path class="cls-3" d="M78.4,0C35.2,0,.2,35,.2,78.1s35,78.1,78.1,78.1h35.7v-38.3h49.8l-37.4-43.7h-50l37.4,43.7h-35.4c-22,0-39.8-17.8-39.8-39.8s17.8-39.8,39.8-39.8,20.8,4.4,28,11.5l3.2,3.1,26.7-27.4-3.1-3.1C119.1,8.6,99.7,0,78.4,0Z"/>
  <path class="cls-1" d="M78.4,0C35.2,0,.2,35,.2,78.1s35,78.1,78.1,78.1h35.7v-38.3h49.8l-37.4-43.7h-50l37.4,43.7h-35.4c-22,0-39.8-17.8-39.8-39.8s17.8-39.8,39.8-39.8,20.8,4.4,28,11.5l3.2,3.1,26.7-27.4-3.1-3.1C119.1,8.6,99.7,0,78.4,0Z"/>
  <path class="cls-2" d="M795.5,37.5h75.3v9.5h-57.4c-4,0-7.3,3.3-7.3,7.3v10.4c0,4,3.3,7.3,7.3,7.3h50.9v9.5h-50.9c-4,0-7.3,3.3-7.3,7.3v13.1c0,4,3.3,7.3,7.3,7.3h57.4v9.5h-75.3V37.5Z"/>
  <path class="cls-2" d="M704.2,37.5h75.3v9.5h-57.4c-4,0-7.3,3.3-7.3,7.3v10.4c0,4,3.3,7.3,7.3,7.3h50.9v9.5h-50.9c-4,0-7.3,3.3-7.3,7.3v13.1c0,4,3.3,7.3,7.3,7.3h57.4v9.5h-75.3V37.5Z"/>
  <path class="cls-2" d="M690.9,47h-31c-4,0-7.3,3.3-7.3,7.3v64.4h-10.9V54.4c0-4-3.3-7.3-7.3-7.3h-31v-9.5h87.5v9.5h0v-.1Z"/>
  <path class="cls-2" d="M590,37.5v81.2h-10.9V37.5h10.9Z"/>
  <path class="cls-2" d="M525.3,118.7h-12.4l-42.6-81.2h11.6l33,62.8c1.8,3.5,6.8,3.5,8.6,0l33-62.8h11.5l-42.7,81.2h0Z"/>
  <path class="cls-2" d="M430.7,37.5h11.9l42.6,81.2h-11.5l-11.8-22.5h-50.5l-11.9,22.5h-11.5l42.7-81.2h0ZM441,56.4c-1.8-3.5-6.8-3.5-8.6,0l-12.2,23.2c-1.7,3.2.6,7.2,4.3,7.2h24.4c3.7,0,6-3.9,4.3-7.1l-12.2-23.2h0v-.1Z"/>
  <path class="cls-2" d="M313.7,84.7v34h-10.9V37.5h50.8c17,0,28.7,8,28.7,23.5s-8.6,21-21.7,23.1l23.4,34.6h-12.4l-22.8-34h-35.1ZM313.7,70.4c0,2.7,2.2,4.9,4.9,4.9h34.5c11.5,0,18.7-5.1,18.7-14.2s-7.1-14.1-18.7-14.1h-34.5c-2.7,0-4.9,2.2-4.9,4.9v18.6h0v-.1Z"/>
  <path class="cls-2" d="M241.9,36.3c21,0,36.5,10.4,42.3,26.2l-9.2,4.9c-4.9-13.2-16.4-21.4-33.1-21.4s-36.5,12.9-36.5,32,15,32.2,36.1,32.2,27.8-6.6,32.3-16.9c1.6-3.8-1.8-7.3-5.9-7.3h-32.2v-9.5h37.2c6.7,0,12.2,5.5,12.2,12.2v30h-10.2v-14.1c-5,8.6-17.4,15.3-33.4,15.4-27.2,0-47.1-17.5-47.1-41.9s20.2-41.7,47.6-41.7h0l-.1-.1Z"/>
</svg>