<svg id="Layer_1" data-name="Layer 1" xmlns="http://www.w3.org/2000/svg" width="495.1255" height="136.1303" viewBox="0 0 495.1255 136.1303"><defs><style>.cls-1{fill:#808285;opacity:0.3;}.cls-2{fill:#f2bc24;}.cls-3{fill:#6ed6d3;}.cls-4{fill:#f26c4a;}</style></defs><path class="cls-1" d="M33.1054,110.41a.7032.7032,0,0,1-.2955-.0654,41.1668,41.1668,0,0,1,7.83-77.4216.7038.7038,0,1,1,.3221,1.37,39.7577,39.7577,0,0,0-7.56,74.7741.704.704,0,0,1-.2964,1.3426Z" transform="translate(-8.9372 -4.9728)"/><path class="cls-1" d="M59.5987,113.013a.7039.7039,0,0,1-.1642-1.3882,39.7576,39.7576,0,0,0,7.8132-74.5009.7037.7037,0,1,1,.6083-1.2692,41.1668,41.1668,0,0,1-8.0918,77.1385A.7041.7041,0,0,1,59.5987,113.013Z" transform="translate(-8.9372 -4.9728)"/><path class="cls-2" d="M42.1374,131.4285a.7043.7043,0,0,1-.7414-.9l6.143-20.7508a.7037.7037,0,0,1,1.35.3988L42.7459,130.927A.704.704,0,0,1,42.1374,131.4285Z" transform="translate(-8.9372 -4.9728)"/><path class="cls-2" d="M39.3236,141.1a.7043.7043,0,0,1-.7413-.9l1.1527-3.9025a.7037.7037,0,0,1,1.35.3988l-1.1527,3.9025A.7042.7042,0,0,1,39.3236,141.1Z" transform="translate(-8.9372 -4.9728)"/><path class="cls-2" d="M49.7088,105.89a.7043.7043,0,0,1-.7414-.9l.95-3.2159a.7038.7038,0,0,1,1.35.3988l-.95,3.2159A.704.704,0,0,1,49.7088,105.89Z" transform="translate(-8.9372 -4.9728)"/><path class="cls-2" d="M49.7761,122.7643a.7043.7043,0,0,1-.7413-.9l8.6876-29.41a.7037.7037,0,1,1,1.35.3988l-8.6876,29.4105A.704.704,0,0,1,49.7761,122.7643Z" transform="translate(-8.9372 -4.9728)"/><path class="cls-2" d="M51.1943,39.692a.7043.7043,0,0,1-.7413-.9L60.2938,5.4774a.7037.7037,0,1,1,1.35.3988L51.8028,39.1905A.7039.7039,0,0,1,51.1943,39.692Z" transform="translate(-8.9372 -4.9728)"/><path class="cls-2" d="M49.961,26.8679a.7043.7043,0,0,1-.7413-.9l1.1527-3.9025a.7037.7037,0,1,1,1.35.3988L50.57,26.3664A.7042.7042,0,0,1,49.961,26.8679Z" transform="translate(-8.9372 -4.9728)"/><path class="cls-2" d="M41.9392,54.0239a.7043.7043,0,0,1-.7413-.9L47.12,33.0758a.7037.7037,0,0,1,1.35.3988l-5.922,20.0478A.704.704,0,0,1,41.9392,54.0239Z" transform="translate(-8.9372 -4.9728)"/><path class="cls-3" d="M53.7022,60.454a11.9312,11.9312,0,0,1,6.5232,4.5731,22.6854,22.6854,0,0,1-2.1188-5.835c-.1721-.8533-.3156-1.7447-.4351-2.6654A17.0143,17.0143,0,0,0,52.34,55.04c-.5789.7264-1.1628,1.415-1.7517,2.0565a22.6653,22.6653,0,0,1-4.8213,3.8912A11.9324,11.9324,0,0,1,53.7022,60.454Z" transform="translate(-8.9372 -4.9728)"/><path class="cls-3" d="M81.4921,80.4508l-.0229-.0168c-2.2975-1.6788-10.7-8.0929-15.4039-15.39a16.9868,16.9868,0,0,1,1.2669,9.67c.8.85,1.6448,1.7068,2.5433,2.5694.0813.0783.1632.1563.2446.2336q-.1425.0314-.2825.0626c-1.2361.2769-2.4215.5775-3.5646.8975a46.5922,46.5922,0,0,0-9.27,3.584,12.0777,12.0777,0,0,1-1.2978.7312A23.51,23.51,0,0,0,50.36,87.0082c-.5682.6153-1.1315,1.274-1.69,1.9685a64.4666,64.4666,0,0,0-4.9337,7.2088,64.9792,64.9792,0,0,0-.4845-8.72c-.1163-.8777-.255-1.728-.4194-2.5437A23.1828,23.1828,0,0,0,40.4089,78.5a12.1191,12.1191,0,0,1-.6663-1.1719A11.9635,11.9635,0,0,1,43.524,62.2472,47.6889,47.6889,0,0,1,34.66,65.6088,16.6854,16.6854,0,0,0,33.6156,69.41a16.9955,16.9955,0,0,0,1.5507,10.1237c.3669.5924.7093,1.19,1.02,1.79a17.7418,17.7418,0,0,1,1.6883,4.5978c2.31,11.4525-.8706,30.8692-2.3773,38.8381l-.0285.15a.2656.2656,0,0,0,.1943.2738.2712.2712,0,0,0,.1021.0072.2652.2652,0,0,0,.2057-.1635l.0446-.12c2.825-7.6025,10.1361-25.8818,18.0607-34.47a18.0755,18.0755,0,0,1,3.8-3.0528c.6051-.3742,1.2372-.727,1.8892-1.06,7.887-4.033,18.7383-5.1764,21.5884-5.4089l.02-.0016a.2641.2641,0,0,0,.2052-.1909A.2684.2684,0,0,0,81.4921,80.4508Z" transform="translate(-8.9372 -4.9728)"/><path class="cls-4" d="M47.262,83.5584A11.941,11.941,0,0,1,40.4089,78.5a23.1828,23.1828,0,0,1,2.4233,6.4222c.1644.8157.3031,1.666.4194,2.5437A16.9673,16.9673,0,0,0,48.67,88.9767c.5583-.6945,1.1216-1.3532,1.69-1.9685a23.51,23.51,0,0,1,5.3454-4.2158A11.9391,11.9391,0,0,1,47.262,83.5584Z" transform="translate(-8.9372 -4.9728)"/><path class="cls-4" d="M66.0653,65.0441A26.5045,26.5045,0,0,1,64.47,62.2252a17.12,17.12,0,0,1-1.406-4.0329c-2.31-11.4577.8737-30.887,2.38-38.8491l.0082-.031c.0017-.0062,0-.0121.0012-.0183a.2677.2677,0,0,0-.5215-.12l0,0,0,0c-2.8235,7.5783-10.1562,25.8828-18.069,34.5024a17.1169,17.1169,0,0,1-3.2818,2.7189,26.5233,26.5233,0,0,1-2.8461,1.6c-7.8339,3.8225-18.39,4.9572-21.1663,5.1984l-.0044,0a.2648.2648,0,0,0-.2086.1923.2692.2692,0,0,0,.09.2763l.0135.01c2.33,1.7017,11.0611,8.3625,15.7073,15.8612A16.9955,16.9955,0,0,1,33.6156,69.41q-1.2135-1.2909-2.5742-2.6-.1243-.1191-.2482-.237.1668-.0366.3348-.0743c1.2248-.2753,2.3994-.573,3.5319-.8893a47.6889,47.6889,0,0,0,8.8641-3.3616,12.0779,12.0779,0,0,1,2.2429-1.26,22.6653,22.6653,0,0,0,4.8213-3.8912c.5889-.6415,1.1728-1.33,1.7517-2.0565a65.4472,65.4472,0,0,0,4.8632-7.14c-.0005.1022.0006.2033,0,.3053q-.0015,1.0184.02,2.02a59.8639,59.8639,0,0,0,.4482,6.3015c.1195.9207.263,1.8121.4351,2.6654a22.6854,22.6854,0,0,0,2.1188,5.835,12.0889,12.0889,0,0,1,1.2548,2.215,11.9607,11.9607,0,0,1-4.4774,14.8191,46.5922,46.5922,0,0,1,9.27-3.584,16.6921,16.6921,0,0,0,1.0592-3.7631A16.9868,16.9868,0,0,0,66.0653,65.0441Z" transform="translate(-8.9372 -4.9728)"/><path d="M179.2628,94.6771h-34.9v-18.4h26.1a1.3237,1.3237,0,0,0,1.3-1.3v-6.6a1.3237,1.3237,0,0,0-1.3-1.3h-26.1v-18h34.5a1.3237,1.3237,0,0,0,1.3-1.3v-6.6a1.3237,1.3237,0,0,0-1.3-1.3h-34.8a8.9,8.9,0,0,0-9.3,9.2v52.8a1.8268,1.8268,0,0,0,2,2.1h42.6a1.3237,1.3237,0,0,0,1.3-1.3v-6.6A1.43,1.43,0,0,0,179.2628,94.6771Z" transform="translate(-8.9372 -4.9728)"/><path d="M244.0628,58.8771c-6.7,0-12.3,2.7-15.7,7.5-3.2-4.8-8.8-7.5-15.6-7.5-3.1,0-8.5.7-12.7,4.6v-2.5a1.3237,1.3237,0,0,0-1.3-1.3h-6.5a1.3237,1.3237,0,0,0-1.3,1.3v41.6a1.3237,1.3237,0,0,0,1.3,1.3h6.6a1.3237,1.3237,0,0,0,1.3-1.3v-23.4c0-6.7,4.7-11.5,11.5-11.5,6.9,0,10.7,4,10.7,11.3v17.2a1.3237,1.3237,0,0,0,1.3,1.3h6.5a1.3237,1.3237,0,0,0,1.3-1.3v-17c0-6.7,4.7-11.5,11.5-11.5,6.9,0,10.7,4,10.7,11.3v23.6a1.3237,1.3237,0,0,0,1.3,1.3h6.5a1.3237,1.3237,0,0,0,1.3-1.3v-25.7C262.6628,66.0771,255.2628,58.8771,244.0628,58.8771Z" transform="translate(-8.9372 -4.9728)"/><path d="M296.1628,58.8771a20.2628,20.2628,0,0,0-13.9,5v-14.7c0-6.3-3.7-9.2-7.9-9.2h0a1.3237,1.3237,0,0,0-1.3,1.3v61.4a1.3237,1.3237,0,0,0,1.3,1.3h6.6a1.3237,1.3237,0,0,0,1.3-1.3v-3a20.087,20.087,0,0,0,13.9,5c12.6,0,22-9.9,22-22.9S308.6628,58.8771,296.1628,58.8771Zm12.8,22.9c0,8.2-5.7,14.2-13.6,14.2-7.8,0-13.5-6-13.5-14.2s5.7-14.2,13.5-14.2C303.1628,67.6771,308.9628,73.5771,308.9628,81.7771Z" transform="translate(-8.9372 -4.9728)"/><path d="M354.9628,61.4771a1.93,1.93,0,0,0-1.6-1.8,18.78,18.78,0,0,0-5.7-.6,15.4761,15.4761,0,0,0-11.1,4.3v-2.3a1.3237,1.3237,0,0,0-1.3-1.3h-6.5a1.3237,1.3237,0,0,0-1.3,1.3v41.6a1.3237,1.3237,0,0,0,1.3,1.3h6.5a1.3236,1.3236,0,0,0,1.3-1.3v-23.3c0-7,4-11.7,9.9-11.7a28.0111,28.0111,0,0,1,6.1.6c.8.2,1.5.4,1.7-.5C354.2628,67.7771,354.9628,62.4771,354.9628,61.4771Z" transform="translate(-8.9372 -4.9728)"/><path d="M403.7628,59.7771h-6.5a1.3237,1.3237,0,0,0-1.3,1.3v2.9a20.087,20.087,0,0,0-13.9-5c-12.6,0-22,9.8-22,22.9h0c0,13,9.5,22.9,22,22.9a20.087,20.087,0,0,0,13.9-5v2.9a1.3237,1.3237,0,0,0,1.3,1.3h6.5a1.3237,1.3237,0,0,0,1.3-1.3v-41.6A1.2605,1.2605,0,0,0,403.7628,59.7771Zm-21,36.2c-7.9,0-13.6-6-13.6-14.2s5.7-14.2,13.6-14.2c7.8,0,13.5,6,13.5,14.2C396.2628,90.0771,390.6628,95.9771,382.7628,95.9771Z" transform="translate(-8.9372 -4.9728)"/><path d="M449.1628,91.5771a1.2125,1.2125,0,0,0-1.8,0,15.3732,15.3732,0,0,1-10.6,4.5c-7.8,0-13.4-6-13.4-14.2s5.7-14.2,13.4-14.2a14.5548,14.5548,0,0,1,10.5,4.5,1.2125,1.2125,0,0,0,1.8,0l4.2-4.4a1.1508,1.1508,0,0,0,0-1.7c-3.9-4.5-9.8-7-16.4-7-13.2,0-22.8,9.6-22.8,22.9s9.6,22.9,22.8,22.9a21.4968,21.4968,0,0,0,16.4-7,1.3542,1.3542,0,0,0,0-1.7Z" transform="translate(-8.9372 -4.9728)"/><path d="M483.2628,58.8771c-12.7,0-21.9,9.6-21.9,22.9,0,13.5,9.2,22.9,22.3,22.9,7.4,0,13.1-2.2,18-6.9a1.244,1.244,0,0,0,.1-1.7l-3.5-4.5a1.05,1.05,0,0,0-.9-.5,1.6894,1.6894,0,0,0-1,.3,18.1033,18.1033,0,0,1-12.3,4.9c-7,0-12-4.2-13.2-11h31.8a1.3842,1.3842,0,0,0,1.3-1.1,21.75,21.75,0,0,0,.1-2.6h0C504.0628,68.4771,495.2628,58.8771,483.2628,58.8771Zm-12.2,18.7c1.4-6.3,6-10.2,12.2-10.2,5.9,0,10.3,4,11.5,10.2Z" transform="translate(-8.9372 -4.9728)"/></svg>