<?xml version="1.0" encoding="UTF-8" standalone="no"?>
<svg
   id="b5818da1-5508-4968-8837-2892d9ee3958"
   data-name="Layer 1"
   width="254.39"
   height="147.42314"
   viewBox="0 0 254.39001 147.42315"
   version="1.1"
   sodipodi:docname="Mobile-1.svg"
   inkscape:version="1.1 (c4e8f9e, 2021-05-24)"
   xmlns:inkscape="http://www.inkscape.org/namespaces/inkscape"
   xmlns:sodipodi="http://sodipodi.sourceforge.net/DTD/sodipodi-0.dtd"
   xmlns="http://www.w3.org/2000/svg"
   xmlns:svg="http://www.w3.org/2000/svg"
   xmlns:rdf="http://www.w3.org/1999/02/22-rdf-syntax-ns#"
   xmlns:cc="http://creativecommons.org/ns#"
   xmlns:dc="http://purl.org/dc/elements/1.1/">
  <sodipodi:namedview
     id="namedview187"
     pagecolor="#ffffff"
     bordercolor="#666666"
     borderopacity="1.0"
     inkscape:pageshadow="2"
     inkscape:pageopacity="0.0"
     inkscape:pagecheckerboard="0"
     showgrid="false"
     inkscape:zoom="2.769657"
     inkscape:cx="127.27208"
     inkscape:cy="73.655331"
     inkscape:window-width="1296"
     inkscape:window-height="942"
     inkscape:window-x="0"
     inkscape:window-y="25"
     inkscape:window-maximized="0"
     inkscape:current-layer="b5818da1-5508-4968-8837-2892d9ee3958" />
  <defs
     id="defs146">
    <style
       id="style144">.b8a441a1-56eb-4fb5-acaf-f52a83242331{fill:#8d8d8d;}.bd51a592-59ab-46e6-81fd-205c58d62f93{fill:gray;}</style>
  </defs>
  <title
     id="title148">Mobile-1</title>
  <path
     class="b8a441a1-56eb-4fb5-acaf-f52a83242331"
     d="m 26.63,107.23001 a 2.26,2.26 0 0 1 -2.26,-2.26 v 0 V 9.4400053 A 9.46,9.46 0 0 1 33.84,5.307774e-6 H 220.56 A 9.44,9.44 0 0 1 230.01,9.4400053 V 102.56001 a 2.26,2.26 0 0 1 -4.51,0 V 9.4400053 a 5,5 0 0 0 -4.94,-4.93 H 33.84 a 5,5 0 0 0 -4.94,4.93 V 104.97001 a 2.26,2.26 0 0 1 -2.25,2.26 z"
     id="path150" />
  <path
     class="b8a441a1-56eb-4fb5-acaf-f52a83242331"
     d="m 37.09,102.73001 a 2.26,2.26 0 0 1 -2.28,-2.24 v 0 -98.2400047 a 2.27,2.27 0 0 1 4.53,0 V 100.52001 a 2.25,2.25 0 0 1 -2.25,2.21 z"
     id="path152" />
  <path
     class="b8a441a1-56eb-4fb5-acaf-f52a83242331"
     d="m 212.27,96.650005 a 2.25,2.25 0 0 1 -2.25,-2.26 V 2.2500053 a 2.27,2.27 0 0 1 4.52,0 V 94.390005 a 2.26,2.26 0 0 1 -2.25,2.26 z"
     id="path154" />
  <path
     class="b8a441a1-56eb-4fb5-acaf-f52a83242331"
     d="m 220.05,60.050005 a 2.26,2.26 0 0 1 -2.26,-2.26 v -6.46 a 2.26,2.26 0 0 1 4.51,0 v 0 6.46 a 2.26,2.26 0 0 1 -2.25,2.26 z"
     id="path156" />
  <path
     class="b8a441a1-56eb-4fb5-acaf-f52a83242331"
     d="m 2.66,146.73001 v 0 a 2.64,2.64 0 0 1 -2.66,-2.61 c 0,-13.72 1.77,-23.8 5.5,-32.68 2.93,-6.91 11.28,-16.800005 19,-20.520005 a 2.69,2.69 0 0 1 3.55,1.19 2.58,2.58 0 0 1 -1.1,3.49 l -0.12,0.06 c -6.57,3.16 -13.95,11.930005 -16.46,17.840005 -3.45,8.12 -5.05,17.59 -5.05,30.6 a 2.62,2.62 0 0 1 -2.66,2.63 z"
     id="path158" />
  <path
     class="b8a441a1-56eb-4fb5-acaf-f52a83242331"
     d="m 25.74,147.42001 a 2.64,2.64 0 0 1 -2.66,-2.43 15.09,15.09 0 0 1 3.44,-10.65 28,28 0 0 1 4.28,-3.93 l 0.55,-0.42 a 89.75,89.75 0 0 0 14.29,-14.21 c 2.31,-2.91 4.92,-6.71 4.39,-10.4 a 2,2 0 0 0 -0.29,-0.94 1.74,1.74 0 0 0 -1.54,0 10.88,10.88 0 0 0 -2.68,1.88 l -0.6,0.5 a 72.21,72.21 0 0 1 -6.59,4.69 l -7.1,4.7 a 2.71,2.71 0 0 1 -3.7,-0.71 2.58,2.58 0 0 1 0.73,-3.55 l 7.19,-4.71 a 68.48,68.48 0 0 0 6.09,-4.33 l 0.55,-0.46 a 14.86,14.86 0 0 1 4.07,-2.870005 6.26,6.26 0 0 1 9.11,5.000005 c 0.79,5.62 -2.51,10.65 -5.47,14.34 a 95,95 0 0 1 -15.13,15.13 l -0.57,0.44 a 24.62,24.62 0 0 0 -3.55,3.14 10,10 0 0 0 -2.15,7 2.62,2.62 0 0 1 -2.45,2.79 z"
     id="path160" />
  <path
     class="b8a441a1-56eb-4fb5-acaf-f52a83242331"
     d="m 251.66,146.73001 a 2.68,2.68 0 0 1 -2.73,-2.59 c 0,-13 -1.63,-22.48 -5.18,-30.69 -2.58,-5.92 -10,-14.620005 -16.76,-17.760005 a 2.47,2.47 0 0 1 -1.12,-3.41 2.67,2.67 0 0 1 3.54,-1.28 v 0 c 8,3.72 16.39,13.530005 19.4,20.440005 3.8,8.88 5.58,19 5.58,32.68 a 2.67,2.67 0 0 1 -2.72,2.61 v 0 z"
     id="path162" />
  <path
     class="b8a441a1-56eb-4fb5-acaf-f52a83242331"
     d="m 228.02,147.42001 h -0.25 a 2.66,2.66 0 0 1 -2.54,-2.78 v 0 a 9.63,9.63 0 0 0 -2.31,-7 24.1,24.1 0 0 0 -3.55,-3.14 l -0.48,-0.44 a 97.49,97.49 0 0 1 -15.59,-15.07 c -3,-3.73 -6.4,-8.72 -5.59,-14.35 a 6.79,6.79 0 0 1 1.55,-3.55 7.1,7.1 0 0 1 7.79,-1.460005 15.88,15.88 0 0 1 4.28,2.770005 l 0.55,0.47 a 71.22,71.22 0 0 0 6.27,4.33 l 7.35,4.68 a 2.52,2.52 0 0 1 0.79,3.48 v 0.07 a 2.79,2.79 0 0 1 -3.78,0.71 l -7.35,-4.7 a 71.41,71.41 0 0 1 -6.76,-4.69 l -0.61,-0.49 a 11,11 0 0 0 -2.75,-1.89 1.9,1.9 0 0 0 -1.58,0 2,2 0 0 0 -0.28,1 c -0.55,3.69 2.11,7.49 4.49,10.4 a 90.3,90.3 0 0 0 14.65,14.2 l 0.56,0.43 a 27.72,27.72 0 0 1 4.39,3.92 14.73,14.73 0 0 1 3.55,10.65 2.68,2.68 0 0 1 -2.8,2.45 z"
     id="path164" />
  <path
     class="b8a441a1-56eb-4fb5-acaf-f52a83242331"
     d="m 195.22,117.24001 h -137 a 2.27,2.27 0 0 1 0,-4.51 h 137 a 2.27,2.27 0 0 1 0,4.53 z"
     id="path166" />
  <path
     class="bd51a592-59ab-46e6-81fd-205c58d62f93"
     d="m 112.31,90.400005 a 1.37,1.37 0 0 0 0.48,0.1 1.18,1.18 0 0 0 0.5,-2.24 33.14,33.14 0 0 1 6.3,-62.33 1.18,1.18 0 0 0 0.87,-1.41 1.2,1.2 0 0 0 -1.41,-0.87 35.49,35.49 0 0 0 -6.74,66.75 z"
     id="path168" />
  <path
     class="bd51a592-59ab-46e6-81fd-205c58d62f93"
     d="m 157.07,39.030005 a 35.53,35.53 0 0 0 -14.56,-12.85 1.12,1.12 0 0 0 -0.9,0 1.18,1.18 0 0 0 -0.66,0.6 1.17,1.17 0 0 0 0.55,1.56 33.14,33.14 0 0 1 -6.51,62.1 1.2,1.2 0 0 0 -0.87,1.42 1.18,1.18 0 0 0 1.14,0.9 h 0.28 a 35.5,35.5 0 0 0 21.53,-53.73 z"
     id="path170" />
  <path
     class="bd51a592-59ab-46e6-81fd-205c58d62f93"
     d="m 124.48,89.220005 -5.21,17.610005 a 1.17,1.17 0 0 0 0.8,1.45 1.19,1.19 0 0 0 0.33,0 h 0.11 a 1.16,1.16 0 0 0 1,-0.84 l 5.21,-17.590005 a 1.15,1.15 0 0 0 -0.09,-0.89 1.17,1.17 0 0 0 -2.16,0.22 z"
     id="path172" />
  <path
     class="bd51a592-59ab-46e6-81fd-205c58d62f93"
     d="m 126.93,86.660005 a 1.17,1.17 0 0 0 1,-0.83 l 0.81,-2.73 a 1.19,1.19 0 0 0 -0.09,-0.89 1.16,1.16 0 0 0 -0.71,-0.56 1.15,1.15 0 0 0 -1.45,0.79 l -0.8,2.72 a 1.16,1.16 0 0 0 0.79,1.46 1.21,1.21 0 0 0 0.34,0.05 z"
     id="path174" />
  <path
     class="bd51a592-59ab-46e6-81fd-205c58d62f93"
     d="m 135.37,75.200005 a 1.1738186,1.1738186 0 0 0 -2.25,-0.67 l -7.37,24.94 a 1.18,1.18 0 0 0 0.79,1.460005 1.26,1.26 0 0 0 0.33,0.05 h 0.12 a 1.16,1.16 0 0 0 1,-0.83 z"
     id="path176" />
  <path
     class="bd51a592-59ab-46e6-81fd-205c58d62f93"
     d="m 127.74,30.480005 a 1.33,1.33 0 0 0 0.34,0 h 0.14 a 1.16,1.16 0 0 0 1,-0.83 l 5.46,-18.79 a 1.18,1.18 0 0 0 -0.09,-0.8999997 1.16,1.16 0 0 0 -0.7,-0.56 1.14,1.14 0 0 0 -1.45,0.7899997 l -5.47,18.8 a 1.19,1.19 0 0 0 0.77,1.49 z"
     id="path178" />
  <path
     class="bd51a592-59ab-46e6-81fd-205c58d62f93"
     d="m 126.7,19.600005 a 1,1 0 0 0 0.33,0 h 0.12 a 1.18,1.18 0 0 0 1,-0.84 l 1,-3.3 a 1.15,1.15 0 0 0 -0.09,-0.89 1.17,1.17 0 0 0 -2.15,0.22 l -1,3.3 a 1.18,1.18 0 0 0 0.09,0.9 1.15,1.15 0 0 0 0.7,0.61 z"
     id="path180" />
  <path
     class="bd51a592-59ab-46e6-81fd-205c58d62f93"
     d="m 119.9,42.630005 v 0 a 1.24,1.24 0 0 0 0.33,0 h 0.11 a 1.17,1.17 0 0 0 1,-0.84 l 5,-17 a 1.18,1.18 0 0 0 -0.8,-1.45 1.23,1.23 0 0 0 -0.9,0.1 1.16,1.16 0 0 0 -0.55,0.7 l -5,17 a 1.17,1.17 0 0 0 0.81,1.49 z"
     id="path182" />
  <path
     class="bd51a592-59ab-46e6-81fd-205c58d62f93"
     d="m 134.36,71.300005 c 0.47,-0.29 1,-0.58 1.53,-0.86 6.66,-3.41 16.09,-4.33 18.05,-4.49 a 1.3,1.3 0 0 0 1,-0.94 1.33,1.33 0 0 0 -0.5,-1.36 c -2,-1.49 -8.94,-6.8 -12.79,-12.78 a 18.68,18.68 0 0 1 -1.29,-2.27 13.24,13.24 0 0 1 -1.14,-3.17 c -1.93,-9.54 0.77,-25.92 2,-32.52 a 0.78,0.78 0 0 0 0,-0.16 1.29,1.29 0 0 0 -0.95,-1.39 1.28,1.28 0 0 0 -1.55,0.83 c -2.34,6.31 -8.51,21.73 -15.1,28.9 a 13.28,13.28 0 0 1 -2.58,2.14 23,23 0 0 1 -2.3,1.29 c -6.44,3.14 -15.09,4.09 -17.68,4.32 a 1.27,1.27 0 0 0 -1,0.93 1.3,1.3 0 0 0 0.49,1.37 c 2.09,1.54 9.24,7 13,13.16 0.31,0.49 0.59,1 0.83,1.44 a 14.35,14.35 0 0 1 1.33,3.62 c 1.92,9.54 -0.77,25.93 -2,32.650005 a 0.88,0.88 0 0 0 0,0.16 1.28,1.28 0 0 0 1,1.31 1.86,1.86 0 0 0 0.33,0 h 0.18 a 1.28,1.28 0 0 0 1,-0.78 v -0.14 c 2.34,-6.300005 8.5,-21.720005 15.11,-28.890005 a 14.22,14.22 0 0 1 3.03,-2.37 z m 3.53,-51.11 c -1.14,7.86 -2.17,18.52 -0.72,25.66 a 15.44,15.44 0 0 0 1.27,3.67 22.14,22.14 0 0 0 1.35,2.38 l 0.51,1.37 c 0,0.15 0.11,0.31 0.15,0.45 0.04,0.14 0.08,0.32 0.15,0.62 0,0.11 0.05,0.21 0.08,0.34 0.03,0.13 0,0.24 0.08,0.5 a 3.64,3.64 0 0 1 0.07,0.44 v 0.54 c 0,0.14 0,0.29 0.05,0.42 0.05,0.13 0,0.39 0,0.58 v 0.18 a 1.34,1.34 0 0 1 0,0.21 c 0,0.21 0,0.42 0,0.77 v 0.19 c 0,0.3 -0.07,0.59 -0.12,1 -0.05,0.41 -0.2,1 -0.33,1.47 -0.13,0.47 -0.2,0.68 -0.32,1 l -2.47,0.79 -0.35,0.12 a 11.76,11.76 0 0 0 1,-2.51 11.25,11.25 0 0 0 -0.52,-7.48 10.44,10.44 0 0 0 -1.11,-2 l -0.18,-0.38 -0.38,-0.82 a 4.89,4.89 0 0 1 -0.2,-0.48 l -0.28,-0.7 c -0.1,-0.28 -0.19,-0.56 -0.28,-0.88 l -0.1,-0.27 c -0.1,-0.38 -0.19,-0.76 -0.27,-1.12 -0.13,-0.68 -0.25,-1.41 -0.35,-2.19 a 51.41,51.41 0 0 1 -0.38,-5.23 c 0,-0.53 0,-1.08 0,-1.81 v -1.9 a 0.58,0.58 0 0 0 -0.42,-0.56 h -0.15 a 0.58,0.58 0 0 0 -0.5,0.28 l -0.91,1.52 a 54.11,54.11 0 0 1 -4,5.93 c -0.49,0.62 -1,1.19 -1.44,1.69 -0.26,0.28 -0.53,0.55 -0.81,0.82 l -0.27,0.23 c -0.21,0.19 -0.42,0.38 -0.65,0.56 l -0.38,0.29 -0.63,0.48 -0.6,0.4 -0.43,0.29 a 10.24,10.24 0 0 0 -2,1.09 l -3.38,1.49 -0.51,0.19 -2.37,0.78 -1,0.3 c -1,0.27 -2,0.52 -2.94,0.74 l -1.17,0.26 a 0.55,0.55 0 0 0 -0.43,0.41 0.56,0.56 0 0 0 0.16,0.57 l 0.86,0.82 c 0.61,0.59 1.22,1.19 1.8,1.8 l -0.06,0.58 v 0.2 c 0,0.35 0,0.71 0,1.11 0,0.4 0,0.69 0,1 v 0.23 a 63.42,63.42 0 0 0 -8.52,-8 c 3.8,-0.46 10.73,-1.62 16.2,-4.29 a 22.32,22.32 0 0 0 2.53,-1.42 16,16 0 0 0 3,-2.47 c 4.94,-5.26 9.58,-14.92 12.67,-22.25 z m -13.37,48 a 10.58,10.58 0 0 0 2.9,0.41 l -0.12,0.11 0.4,0.42 -0.56,-0.27 -0.11,0.12 -0.38,0.4 c -0.23,0.24 -0.46,0.51 -0.71,0.79 l -0.39,0.47 a 13,13 0 0 1 -1.62,-0.34 12,12 0 0 1 -1.56,-0.55 l -0.05,-0.26 a 0.76,0.76 0 0 0 0,-0.16 v -0.18 c -0.06,-0.36 -0.12,-0.7 -0.19,-1 a 5.84,5.84 0 0 0 -0.15,-0.66 l -0.1,-0.41 a 10.67,10.67 0 0 0 2.64,1.09 z m 0.56,-2 a 9.1,9.1 0 0 1 -5.21,-3.85 9.5,9.5 0 0 1 -0.5,-0.88 9.11,9.11 0 0 1 2.85,-11.52 8.57,8.57 0 0 1 1.7,-1 9.06,9.06 0 0 1 6,-0.4 9,9 0 0 1 5,3.47 9.52,9.52 0 0 1 1,1.68 9.12,9.12 0 0 1 -3.4,11.26 9.66,9.66 0 0 1 -1,0.56 9.08,9.08 0 0 1 -6.44,0.62 z m 6.62,-23.74 -0.7,-0.17 c 0.41,-0.56 0.82,-1.15 1.24,-1.77 0,0.73 0.09,1.45 0.15,2.15 -0.23,-0.13 -0.46,-0.21 -0.69,-0.27 z m -8.34,29.93 0.73,0.18 c -0.43,0.58 -0.86,1.19 -1.3,1.83 0,-0.77 -0.09,-1.51 -0.15,-2.24 0.24,0.03 0.48,0.1 0.72,0.17 z"
     id="path184" />
  <metadata
     id="metadata189">
    <rdf:RDF>
      <cc:Work
         rdf:about="">
        <dc:title>Mobile-1</dc:title>
      </cc:Work>
    </rdf:RDF>
  </metadata>
</svg>
