<svg width="696" height="178" viewBox="0 0 696 178" fill="none" xmlns="http://www.w3.org/2000/svg">
<path fill-rule="evenodd" clip-rule="evenodd" d="M40.5708 14.9992C55.5829 5.21977 73.2323 3.37369e-06 91.2872 3.37369e-06C103.276 -0.00321528 115.148 2.29666 126.225 6.76818C137.302 11.2397 147.367 17.7953 155.844 26.0603C164.322 34.3254 171.046 44.1379 175.632 54.9374C180.219 65.7368 182.578 77.3115 182.574 89C182.574 106.603 177.22 123.81 167.19 138.446C157.159 153.082 142.902 164.489 126.221 171.225C109.541 177.961 91.1859 179.724 73.4779 176.29C55.7699 172.856 39.5042 164.379 26.7375 151.932C13.9707 139.486 5.27644 123.627 1.7541 106.363C-1.76824 89.0987 0.0395477 71.2038 6.94886 54.9412C13.8582 38.6786 25.5587 24.7786 40.5708 14.9992ZM25.6549 76.9226L53.0436 103.65C53.3155 103.924 53.6413 104.143 54.0018 104.292C54.3623 104.442 54.75 104.519 55.1416 104.519C55.5333 104.519 55.9211 104.442 56.2816 104.292C56.6421 104.143 56.9679 103.924 57.2398 103.65L84.5783 76.9226C85.1245 76.3897 85.4313 75.6672 85.4313 74.9139C85.4313 74.1605 85.1245 73.4379 84.5783 72.905L57.1644 46.2026C56.6178 45.67 55.8768 45.3709 55.1041 45.3709C54.3313 45.3709 53.5902 45.67 53.0436 46.2026L25.6549 72.905C25.1086 73.4379 24.8019 74.1605 24.8019 74.9139C24.8019 75.6672 25.1086 76.3897 25.6549 76.9226ZM93.3476 138.902L120.736 112.199C121.283 111.666 121.589 110.944 121.589 110.19C121.589 109.437 121.283 108.715 120.736 108.182L93.3476 81.4547C92.8011 80.9221 92.0599 80.623 91.2872 80.623C90.5144 80.623 89.7733 80.9221 89.2267 81.4547L61.813 108.182C61.2667 108.715 60.9598 109.437 60.9598 110.19C60.9598 110.944 61.2667 111.666 61.813 112.199L89.2267 138.902C89.7733 139.434 90.5144 139.733 91.2872 139.733C92.0599 139.733 92.8011 139.434 93.3476 138.902ZM129.506 103.65L156.894 76.9226C157.168 76.6604 157.385 76.3478 157.533 76.0029C157.682 75.658 157.758 75.2878 157.758 74.9139C157.758 74.5399 157.682 74.1696 157.533 73.8247C157.385 73.4798 157.168 73.1672 156.894 72.905L129.506 46.2026C128.959 45.67 128.218 45.3709 127.445 45.3709C126.673 45.3709 125.931 45.67 125.385 46.2026L97.9711 72.905C97.4249 73.4379 97.118 74.1605 97.118 74.9139C97.118 75.6672 97.4249 76.3897 97.9711 76.9226L125.385 103.65C125.931 104.182 126.673 104.481 127.445 104.481C128.218 104.481 128.959 104.182 129.506 103.65Z" fill="#8411DF"/>
<path d="M213.782 38.8654L242.477 131.099C242.625 131.669 242.977 132.168 243.471 132.505C243.964 132.842 244.566 132.995 245.166 132.936H262.328C262.908 133.001 263.491 132.847 263.959 132.505C264.426 132.163 264.741 131.66 264.84 131.099L293.209 38.8654C293.611 37.6895 293.083 36.7586 291.852 36.7586H278.911C278.357 36.7339 277.81 36.8887 277.356 37.1989C276.901 37.5091 276.565 37.9572 276.399 38.4734L261.875 87.2238C259.086 96.4104 255.945 107.459 254.061 115.715H253.659C251.9 107.581 248.809 96.5329 246.12 87.4687L231.295 38.4734C231.214 37.9554 230.931 37.4879 230.505 37.1684C230.079 36.8489 229.543 36.7021 229.009 36.7586H214.988C214.731 36.7467 214.476 36.8049 214.251 36.9267C214.026 37.0484 213.841 37.2289 213.715 37.4478C213.59 37.6667 213.53 37.9154 213.542 38.1658C213.553 38.4162 213.636 38.6585 213.782 38.8654Z" fill="#8411DF"/>
<path fill-rule="evenodd" clip-rule="evenodd" d="M352.584 82.8875V131.099C352.612 131.347 352.582 131.598 352.497 131.833C352.412 132.068 352.274 132.282 352.093 132.458C351.913 132.634 351.693 132.769 351.452 132.852C351.211 132.934 350.954 132.963 350.699 132.936H338.839C338.585 132.963 338.328 132.934 338.086 132.852C337.845 132.769 337.626 132.634 337.445 132.458C337.264 132.282 337.126 132.068 337.041 131.833C336.956 131.598 336.927 131.347 336.955 131.099V122.5C334.775 126.112 331.663 129.104 327.93 131.18C324.196 133.256 319.97 134.343 315.672 134.333C301.651 134.333 292.756 125.391 292.756 112.285C292.756 99.1784 301.651 91.5351 321.049 90.2368C326.116 89.8663 331.203 89.8254 336.276 90.1143V83.5244C336.276 75.3912 331.703 72.1085 324.014 72.1085C316.325 72.1085 313.511 74.8522 311.576 79.9967C311.023 81.4421 310.496 81.6871 309.063 81.2951L297.329 78.4044C296.123 78.0124 295.721 77.351 296.123 76.2976C298.284 66.0576 307.857 58.9533 324.693 58.9533C342.081 58.9533 352.584 66.9885 352.584 82.8875ZM336.276 109.541V100.624C331.652 100.435 327.02 100.516 322.406 100.869C313.637 101.8 308.661 104.69 308.661 111.525C308.661 117.429 312.833 121.324 319.969 121.324C327.532 121.251 333.311 116.915 336.276 109.541Z" fill="#8411DF"/>
<path d="M385.224 131.099V86.4153C387.913 78.9436 393.843 73.799 401.029 73.799C408.567 73.799 412.361 78.5516 412.361 86.4153V131.099C412.361 132.275 413.015 132.936 414.372 132.936H427.186C427.444 132.979 427.708 132.961 427.957 132.884C428.205 132.807 428.431 132.673 428.616 132.493C428.8 132.313 428.938 132.092 429.017 131.85C429.096 131.607 429.115 131.35 429.071 131.099V83.7941C429.071 69.071 421.382 59.076 407.235 59.076C402.781 59.1218 398.406 60.2392 394.501 62.3289C390.595 64.4187 387.279 67.4162 384.847 71.0553V62.1137C384.86 61.8745 384.819 61.6355 384.727 61.4135C384.635 61.1914 384.494 60.9917 384.315 60.8283C384.135 60.6648 383.921 60.5417 383.687 60.4676C383.454 60.3934 383.206 60.3699 382.963 60.3988H370.399C370.153 60.366 369.903 60.3865 369.666 60.4589C369.43 60.5313 369.212 60.6538 369.03 60.8177C368.847 60.9815 368.704 61.1827 368.611 61.4067C368.517 61.6308 368.476 61.8722 368.489 62.1137V131.099C368.489 132.275 369.168 132.936 370.525 132.936H383.339C383.594 132.964 383.851 132.935 384.092 132.852C384.334 132.769 384.553 132.635 384.734 132.458C384.915 132.282 385.053 132.068 385.137 131.833C385.222 131.598 385.252 131.347 385.224 131.099Z" fill="#8411DF"/>
<path d="M465.682 44.3763V60.9367H480.508C481.588 60.9367 482.266 61.5982 482.266 62.8965V72.3771C482.266 73.6755 481.588 74.2145 480.508 74.2145H465.682V110.74C465.682 115.983 468.647 118.604 474.703 118.604H480.382C480.641 118.566 480.905 118.588 481.153 118.669C481.402 118.749 481.627 118.886 481.811 119.067C481.994 119.249 482.131 119.47 482.211 119.713C482.29 119.956 482.309 120.214 482.266 120.466V131.098C482.31 131.349 482.292 131.606 482.213 131.849C482.134 132.091 481.996 132.312 481.811 132.492C481.627 132.672 481.401 132.806 481.152 132.883C480.903 132.96 480.639 132.978 480.382 132.935H472.015C456.938 132.935 449.4 125.047 449.4 112.97V74.2145H440.103C439.847 74.2517 439.585 74.2298 439.339 74.1506C439.093 74.0714 438.869 73.9372 438.686 73.7585C438.503 73.5799 438.365 73.3619 438.284 73.122C438.203 72.8821 438.18 72.627 438.218 72.3771V62.8965C438.218 61.5982 438.897 60.9367 440.103 60.9367H449.526V44.3763C449.507 44.1304 449.543 43.8833 449.631 43.6521C449.719 43.4209 449.857 43.2109 450.036 43.0365C450.215 42.8621 450.43 42.7274 450.667 42.6415C450.905 42.5557 451.158 42.5207 451.41 42.539H463.823C464.075 42.5158 464.33 42.5475 464.568 42.632C464.806 42.7165 465.022 42.8516 465.2 43.0275C465.378 43.2033 465.514 43.4156 465.597 43.6489C465.681 43.8822 465.71 44.1307 465.682 44.3763Z" fill="#8411DF"/>
<path fill-rule="evenodd" clip-rule="evenodd" d="M549.784 131.099V82.8875C549.784 66.9885 539.281 58.9533 521.893 58.9533C505.057 58.9533 495.459 66.1556 493.323 76.2976C492.921 77.351 493.323 78.0124 494.529 78.4044L506.289 81.2951C507.721 81.6871 508.274 81.4421 508.801 79.9967C510.711 74.8522 513.525 72.1085 521.214 72.1085C528.903 72.1085 533.476 75.3912 533.476 83.5244V90.1143C528.403 89.8253 523.316 89.8662 518.249 90.2368C498.826 91.5351 489.956 99.1784 489.956 112.285C489.956 125.391 498.826 134.333 512.847 134.333C517.149 134.345 521.379 133.259 525.117 131.183C528.855 129.107 531.971 126.114 534.155 122.5V131.099C534.127 131.347 534.156 131.598 534.241 131.833C534.326 132.068 534.464 132.282 534.645 132.458C534.826 132.634 535.045 132.769 535.286 132.852C535.528 132.934 535.785 132.963 536.039 132.936H547.899C548.154 132.963 548.411 132.934 548.652 132.852C548.893 132.769 549.113 132.634 549.293 132.458C549.474 132.282 549.612 132.068 549.697 131.833C549.782 131.598 549.812 131.347 549.784 131.099ZM533.476 100.624V109.541C530.511 116.915 524.707 121.251 517.169 121.324C510.032 121.324 505.836 117.429 505.836 111.525C505.836 104.69 510.837 101.8 519.581 100.869C524.203 100.517 528.844 100.435 533.476 100.624Z" fill="#8411DF"/>
<path fill-rule="evenodd" clip-rule="evenodd" d="M627.426 137.933C627.426 150.181 617.978 160.519 592.524 160.519C569.457 160.519 560.713 152.656 560.713 141.093C560.713 134.919 564.482 129.138 572.171 125.978C570.611 124.863 569.328 123.422 568.415 121.76C567.501 120.098 566.982 118.258 566.894 116.375C566.906 114.084 567.634 111.85 568.98 109.973C570.327 108.095 572.229 106.662 574.432 105.865C570.771 103.836 567.753 100.862 565.71 97.2716C563.666 93.6807 562.677 89.6107 562.849 85.5077C562.849 71.054 571.995 60.3976 591.82 60.3976H625.24C625.455 60.4096 625.665 60.4642 625.857 60.5581C626.05 60.652 626.221 60.7832 626.36 60.9438C626.498 61.1043 626.602 61.2907 626.664 61.4916C626.727 61.6926 626.746 61.9038 626.722 62.1124V71.3235C626.737 71.5685 626.698 71.8138 626.608 72.0431C626.519 72.2725 626.381 72.4808 626.203 72.6543C626.025 72.8279 625.811 72.9627 625.576 73.05C625.34 73.1373 625.089 73.1751 624.838 73.1608H613.103C615.271 74.9662 616.991 77.2262 618.135 79.7717C619.28 82.3172 619.819 85.0821 619.712 87.8594C619.712 100.353 610.691 109.907 592.072 109.907H587.348C582.9 109.907 581.016 111.769 581.016 114.243C581.016 116.718 583.051 118.335 587.348 118.335H602.726C620.139 118.481 627.426 126.762 627.426 137.933ZM611.52 139.378C611.52 135.164 609.007 131.22 600.339 131.22H586.72C578.754 131.22 575.94 135.311 575.94 139.5C575.94 145.551 580.965 149.496 593.529 149.496C606.093 149.496 611.52 145.159 611.52 139.378ZM577.925 85.5077C577.925 93.3959 582.649 98.6384 591.82 98.6384C600.439 98.6384 605.289 93.9104 605.289 85.6302C605.289 77.7419 600.841 72.6219 591.67 72.6219C582.498 72.6219 577.925 77.3499 577.925 85.5077Z" fill="#8411DF"/>
<path fill-rule="evenodd" clip-rule="evenodd" d="M650.595 105.866V101.677H692.608C695.171 101.677 696 100.624 696 98.517V87.4685C696 71.2021 685.773 58.9533 665.847 58.9533C645.092 58.9533 634.564 71.3246 634.564 87.738V105.597C634.564 122.427 645.494 134.382 666.099 134.382C680.245 134.382 690.623 128.6 695.07 119.021C695.899 117.429 695.749 116.376 693.864 115.469L685.371 111.256C683.612 110.472 682.959 110.741 681.878 112.432C679.316 117.307 676.3 121.104 666.249 121.104C655.62 120.981 650.595 115.2 650.595 105.866ZM650.595 90.8982V87.0766C650.595 78.1594 655.394 72.231 665.445 72.231C675.496 72.231 680.522 78.1594 680.522 87.0766V90.8982H650.595Z" fill="#8411DF"/>
</svg>
