<svg width="617" height="160" viewBox="0 0 617 160" fill="none" xmlns="http://www.w3.org/2000/svg">
<g clip-path="url(#clip0)">
<path d="M194.787 64.5402V58.7062C194.787 39.522 211.269 25.3311 230.638 25.3311C234.522 25.3311 238.406 25.9092 240.138 26.4874L235.677 43.6217C234.102 43.0435 232.37 42.8333 230.638 42.8333C220.56 42.8333 213.789 50.1916 213.789 58.7587V64.5928H237.041V78.9415H213.789V151.894H194.787V78.8889H183.555V64.5402H194.787Z" fill="#3F00A5"/>
<path d="M240.874 108.217C240.874 82.9886 259.088 63.5942 283.128 63.5942C295.515 63.5942 306.381 70.2167 312.784 80.0978V64.5929H331.733V151.894H312.732V136.389C306.118 146.27 295.305 152.892 283.075 152.892C259.088 152.84 240.874 133.235 240.874 108.217ZM259.875 108.217C259.875 125.089 271.685 138.281 286.225 138.281C298.612 138.281 312.784 127.979 312.784 108.217C312.784 91.5558 301.342 78.1531 286.225 78.1531C271.685 78.1531 259.875 91.7134 259.875 108.217Z" fill="#3F00A5"/>
<path d="M343.962 115.202V64.5879H362.753V116.411C362.753 127.659 371.256 137.382 383.276 137.382C398.603 137.382 406.897 124.4 406.897 115.255V64.6404H425.688V151.941H406.897V140.116C400.913 147.684 391.412 152.94 380.337 152.94C357.504 152.835 343.962 135.543 343.962 115.202Z" fill="#3F00A5"/>
<path d="M436.186 151.843V64.5416H454.977V76.3674C460.803 68.7989 470.304 63.543 481.536 63.543C504.212 63.543 517.964 80.835 517.964 101.175V151.79H499.173V99.9665C499.173 88.1407 490.092 78.9954 478.439 78.9954C462.955 78.9954 454.977 92.5557 454.977 101.123V151.737H436.186V151.843Z" fill="#3F00A5"/>
<path d="M526.467 108.217C526.467 82.9886 544.681 63.5942 568.721 63.5942C581.109 63.5942 591.974 70.2167 598.378 80.0978V64.5929H617.379V151.894H598.378V136.389C591.764 146.27 580.951 152.892 568.721 152.892C544.681 152.84 526.467 133.235 526.467 108.217ZM545.468 108.217C545.468 125.089 557.279 138.281 571.818 138.281C584.206 138.281 598.378 127.979 598.378 108.217C598.378 91.5558 586.935 78.1531 571.818 78.1531C557.279 78.1531 545.468 91.7134 545.468 108.217Z" fill="#3F00A5"/>
<path d="M112.222 33.6379C102.302 36.9492 97.5252 42.8884 94.2708 52.1388C93.431 54.6091 91.3314 57.3421 88.9694 59.1817L97.1052 67.9066L71.2805 49.8262L0 0C0 0 5.14395 33.4277 6.92859 45.7266C8.18833 54.3988 10.3404 58.2882 17.164 62.2302L19.8935 63.7018L31.6511 69.9038L24.67 66.2772L56.8984 83.8846L56.6885 84.3576L21.993 68.2745C23.8302 74.5816 27.3994 86.7228 28.9216 92.0838C30.5488 97.8653 32.3859 99.9677 38.0023 102.018L48.3427 105.802L54.7464 103.279L46.6105 108.693L5.93129 160.358C32.9633 135.235 55.8486 126.3 72.5927 118.994C93.9559 109.744 106.816 103.805 115.214 82.4655C121.198 67.4861 125.869 48.302 131.801 40.8911L144.451 24.7029C144.451 24.7029 118.258 31.6407 112.222 33.6379Z" fill="#3F00A5"/>
</g>
<defs>
<clipPath id="clip0">
<rect width="617" height="160" fill="white"/>
</clipPath>
</defs>
</svg>
