<svg width="800" height="560" viewBox="0 0 800 560" fill="none" xmlns="http://www.w3.org/2000/svg">
<path d="M175.845 313.646H191.313V451.999H175.845V439.796H175.458C169.654 447.343 160.37 454.697 144.501 454.697C119.736 454.697 100 435.155 100 402.649C100 370.143 119.736 350.6 144.501 350.6C160.37 350.6 169.654 357.566 175.458 366.082H175.845V313.646ZM175.845 402.649C175.845 379.433 164.431 364.145 146.051 364.145C125.734 364.145 115.475 383.3 115.475 402.649C115.475 421.997 125.734 441.152 146.051 441.152C164.431 441.152 175.845 425.864 175.845 402.649Z" fill="#030615"/>
<path d="M249.083 364.146C230.315 364.146 224.117 369.563 223.155 383.882H207.674C208.642 364.921 220.444 350.602 249.083 350.602C267.85 350.602 284.681 357.955 284.681 381.731V429.718C284.681 437.459 286.064 441.714 295.901 440.551V451.391C292.994 452.468 289.911 452.991 286.811 452.934C277.521 452.934 271.911 450.423 269.206 439.583H268.791C262.6 448.873 251.573 454.677 235.323 454.677C215.394 454.677 202.811 443.263 202.811 426.619C202.811 404.179 219.447 398.375 245.008 393.539C261.652 390.44 269.22 388.31 269.22 378.445C269.206 370.725 264.945 364.146 249.083 364.146ZM269.206 413.87V397.427C266.3 400.325 256.816 403.037 246.378 405.168C227.216 409.228 218.292 414.064 218.292 425.865C218.292 435.55 224.096 441.153 236.873 441.153C255.274 441.153 269.206 432.831 269.206 413.87Z" fill="#030615"/>
<path d="M373.939 353.313H389.421V446.57C389.421 472.857 372.784 486.235 345.694 486.235C318.605 486.235 302.542 471.916 301 455.106H316.523C318.46 465.164 326.588 472.711 344.968 472.711C363.348 472.711 373.987 464.777 373.987 446.425V431.482H373.6C367.796 439.991 358.513 446.957 342.256 446.957C317.879 446.957 298.143 431.289 298.143 398.783C298.143 366.277 317.879 350.602 342.256 350.602C358.513 350.602 367.796 357.955 373.6 365.502H373.987L373.939 353.313ZM373.939 398.783C373.939 375.56 362.525 364.146 344.145 364.146C323.828 364.146 313.576 379.434 313.576 398.783C313.576 418.131 323.828 433.412 344.145 433.412C362.553 433.412 373.939 421.998 373.939 398.783V398.783Z" fill="#030615"/>
<path d="M484.543 424.904C484.543 442.89 468.1 454.698 445.653 454.698C415.471 454.698 401.539 440.379 400.57 419.1H416.052C417.014 430.127 420.894 441.153 445.653 441.153C462.483 441.153 469.062 432.444 469.062 425.865C469.062 411.553 456.098 410.778 441.979 407.291C426.885 403.618 404.437 401.875 404.437 378.659C404.437 363.178 418.176 350.602 441.398 350.602C465.97 350.602 479.127 364.534 480.67 381.558H465.195C463.645 374.018 459.972 364.146 441.398 364.146C427.466 364.146 419.954 369.756 419.954 377.497C419.954 389.105 433.305 390.074 447.043 393.366C464.614 397.621 484.543 400.519 484.543 424.904Z" fill="#030615"/>
<path d="M536.862 366.858H517.493V426.253C517.493 437.48 523.719 439.396 536.862 438.448V452C533.045 452.799 529.154 453.188 525.254 453.162C512.111 453.162 502.032 447.939 502.032 427.816V366.872H487.505V353.313H502.032V320.42H517.514V353.313H536.883L536.862 366.858Z" fill="#030615"/>
<path d="M619.126 421.611H634.608C629.572 439.991 615.453 454.698 590.881 454.698C560.887 454.698 542.7 433.606 542.7 402.65C542.7 369.756 561.274 350.602 590.107 350.602C621.063 350.602 636.157 371.693 636.157 406.71H558.182C558.182 424.516 568.821 441.153 590.3 441.153C610.036 441.153 617.383 428.383 619.126 421.611ZM558.182 393.2H620.676C620.676 377.331 608.681 364.146 590.107 364.146C571.533 364.146 558.182 377.29 558.182 393.2Z" fill="#030615"/>
<path d="M700 351.18V366.662H699.612C678.168 363.203 663.239 378.27 663.239 399.361V451.998H647.758V353.311H663.239V372.853H663.627C668.85 359.889 676.77 350.599 690.91 350.599C693.95 350.567 696.988 350.762 700 351.18V351.18Z" fill="#030615"/>
<path d="M363.25 285.039C363.254 286.267 363.511 287.482 364.005 288.608C364.499 289.733 365.219 290.744 366.122 291.578C367.024 292.412 368.088 293.051 369.248 293.455C370.408 293.859 371.639 294.02 372.864 293.927C419.423 290.594 463.396 257.644 477.435 206.18C478.173 203.22 480.394 201.736 483.352 201.736C484.869 201.797 486.301 202.453 487.337 203.563C488.373 204.673 488.93 206.146 488.888 207.664C488.888 219.139 474.138 249.129 453.045 266.533C451.97 267.437 451.113 268.573 450.537 269.855C449.962 271.137 449.683 272.532 449.722 273.937C449.743 275.079 449.99 276.206 450.447 277.252C450.905 278.299 451.565 279.245 452.388 280.036C453.212 280.827 454.184 281.448 455.248 281.862C456.312 282.277 457.448 282.477 458.589 282.452C460.437 282.452 463.396 281.341 467.092 278.008C481.843 264.675 509.955 227.281 509.955 186.181C509.955 125.924 463.37 74 398.356 74C340.344 74 290.089 121.393 290.089 176.19C290.089 212.473 318.913 239.867 356.968 239.867C386.165 239.867 413.141 219.139 420.534 190.625C421.271 187.666 423.484 186.181 426.442 186.181C427.96 186.242 429.392 186.899 430.43 188.008C431.467 189.117 432.027 190.591 431.987 192.11C431.987 205.069 407.597 250.266 358.079 250.266C346.253 250.266 331.476 246.933 321.125 241.005C319.74 240.333 318.23 239.955 316.691 239.894C315.513 239.848 314.339 240.047 313.241 240.478C312.144 240.909 311.147 241.562 310.314 242.397C309.481 243.232 308.83 244.23 308.402 245.329C307.973 246.428 307.776 247.603 307.824 248.782C307.872 250.292 308.304 251.764 309.08 253.06C309.856 254.355 310.95 255.432 312.258 256.186C325.932 263.998 342.192 268.034 358.817 268.034C400.204 268.034 437.896 239.894 448.984 198.429C449.722 195.469 451.943 193.985 454.893 193.985C456.411 194.046 457.843 194.702 458.881 195.811C459.918 196.921 460.477 198.394 460.437 199.913C460.437 216.943 430.139 271.741 371.753 276.185C369.494 276.353 367.377 277.349 365.808 278.983C364.238 280.617 363.328 282.774 363.25 285.039V285.039Z" fill="#4F43DD"/>
<path d="M421.106 143.24C429.075 143.18 436.898 145.383 443.665 149.593C444.349 145.849 444.726 142.055 444.793 138.249C444.793 120.671 431.397 104.926 415.085 104.926C402.399 104.926 394.469 115.437 394.469 128.423C394.408 135.438 396.872 142.24 401.41 147.588C407.558 144.656 414.295 143.168 421.106 143.24V143.24Z" fill="white"/>
<path d="M459.327 206.919C461.592 199.177 462.589 193.804 462.589 190.314C462.52 188.807 461.875 187.385 460.786 186.341C459.697 185.297 458.249 184.712 456.741 184.707C455.337 184.733 453.981 185.228 452.89 186.114C451.799 186.999 451.035 188.224 450.72 189.594C450.104 192.137 448.785 199.029 447.483 203.404C448.021 201.766 448.513 200.103 448.958 198.413C449.696 195.444 451.917 193.969 454.867 193.969C456.384 194.027 457.816 194.682 458.854 195.79C459.892 196.898 460.452 198.371 460.412 199.888C460.342 202.275 459.96 204.641 459.275 206.928L459.327 206.919Z" fill="#352D8E"/>
<path d="M490.735 198.828C490.664 197.323 490.019 195.903 488.933 194.86C487.847 193.817 486.402 193.23 484.896 193.221C483.493 193.249 482.139 193.745 481.05 194.63C479.961 195.515 479.198 196.739 478.883 198.108C478.258 200.712 476.914 207.708 475.595 212.074H475.655C476.298 210.129 476.896 208.159 477.391 206.154C478.128 203.185 480.35 201.71 483.308 201.71C484.824 201.769 486.256 202.423 487.292 203.532C488.329 204.64 488.886 206.112 488.844 207.63C488.802 209.472 488.548 211.304 488.089 213.089C489.929 206.631 490.735 201.962 490.735 198.828Z" fill="#352D8E"/>
<path d="M421.106 143.241C425.066 143.233 429.009 143.762 432.828 144.812C434.833 142.077 435.835 138.735 435.665 135.347C435.495 131.96 434.164 128.735 431.896 126.214C429.628 123.693 426.561 122.031 423.211 121.507C419.862 120.983 416.434 121.63 413.505 123.338L419.579 133.337L408.204 128.416C406.663 130.903 405.89 133.79 405.983 136.714C406.076 139.639 407.029 142.471 408.724 144.856C412.761 143.767 416.925 143.224 421.106 143.241V143.241Z" fill="#030615"/>
<path d="M333.473 207.595C338.265 207.595 342.149 203.708 342.149 198.914C342.149 194.121 338.265 190.234 333.473 190.234C328.681 190.234 324.796 194.121 324.796 198.914C324.796 203.708 328.681 207.595 333.473 207.595Z" fill="#352D8E"/>
<path d="M333.473 172.876C338.265 172.876 342.149 168.99 342.149 164.196C342.149 159.402 338.265 155.516 333.473 155.516C328.681 155.516 324.796 159.402 324.796 164.196C324.796 168.99 328.681 172.876 333.473 172.876Z" fill="#352D8E"/>
<path d="M316.118 190.235C320.91 190.235 324.795 186.349 324.795 181.555C324.795 176.761 320.91 172.875 316.118 172.875C311.326 172.875 307.441 176.761 307.441 181.555C307.441 186.349 311.326 190.235 316.118 190.235Z" fill="#352D8E"/>
<path d="M355.164 239.851H356.899C386.096 239.851 413.072 219.123 420.464 190.609C421.202 187.649 423.414 186.165 426.373 186.165C427.89 186.226 429.323 186.882 430.36 187.991C431.398 189.101 431.957 190.574 431.917 192.093C431.785 195.123 431.1 198.103 429.896 200.886C430.105 200.563 430.288 200.223 430.442 199.87C432.638 194.85 433.772 189.431 433.774 183.951C433.774 175.436 427.856 169.881 419.362 169.881C404.551 169.881 401.584 182.814 395.336 196.641C388.855 210.998 376.951 226.527 346.929 226.527C315.737 226.527 283.685 204.679 291.503 160.255C291.598 159.699 291.677 159.204 291.737 158.744C290.592 164.483 290.011 170.321 290.002 176.174C290.089 211.936 318.019 239.017 355.164 239.851Z" fill="#352D8E"/>
</svg>
