<?xml version="1.0" encoding="UTF-8"?>
<svg width="708px" height="193px" viewBox="0 0 708 193" version="1.1" xmlns="http://www.w3.org/2000/svg" xmlns:xlink="http://www.w3.org/1999/xlink">
    <!-- Generator: Sketch 47.1 (45422) - http://www.bohemiancoding.com/sketch -->
    <title>logo-cmyk-indigo</title>
    <desc>Created with Sketch.</desc>
    <defs></defs>
    <g id="exports" stroke="none" stroke-width="1" fill="none" fill-rule="evenodd">
        <g id="Artboard" transform="translate(-186.000000, -189.000000)">
            <g id="logo-cmyk-indigo" transform="translate(186.000000, 189.000000)">
                <path d="M277.062313,79.0258103 C268.920873,74.4284068 261.241719,72.3846154 253.56654,72.3846154 C247.217962,72.3846154 243.161926,75.027972 243.161926,79.0811189 C243.161926,91.2405594 289.012766,81.0195804 289.012766,113.973427 C289.012766,128.952448 275.786562,141.111888 254.624636,141.111888 C245.120561,141.111888 233.482289,138.979211 225.460781,134.713858 C225.264558,134.609518 225.041724,134.468158 224.792281,134.289778 L224.792271,134.289791 C223.633846,133.461388 223.217482,131.932708 223.795807,130.63127 L229.19263,118.486491 L229.192621,118.486487 C229.861538,116.981184 231.619062,116.296787 233.129813,116.953306 C233.455214,117.094713 233.742651,117.216501 233.992124,117.318668 C240.958498,120.17161 248.18076,121.727273 254.624636,121.727273 C264.676551,121.727273 267.85084,119.083916 267.85084,113.973427 C267.85084,100.227972 222,110.272727 222,79.0811189 C222,64.9832168 234.344457,53 253.56654,53 C263.288867,53 276.417443,56.3875422 285.05248,61.3534682 C285.286667,61.4881467 285.551369,61.6474496 285.846586,61.8313768 L285.846585,61.8313777 C287.11652,62.6225773 287.609314,64.2285678 287.001714,65.5958839 L281.577523,77.8022532 L281.577538,77.8022598 C280.904711,79.3163603 279.131857,79.9983475 277.617756,79.3255208 C277.521868,79.2829105 277.428281,79.2352988 277.337381,79.182882 C277.240198,79.1268415 277.148508,79.0744842 277.062313,79.0258103 Z" id="s" fill="#1E0936"></path>
                <path d="M363.257947,55.6433566 L377.714475,55.6433566 L377.714475,55.6433566 C379.37133,55.6433566 380.714475,56.9865024 380.714475,58.6433566 L380.714475,176 C380.714475,177.656854 379.37133,179 377.714475,179 L363.257947,179 C361.601093,179 360.257947,177.656854 360.257947,176 L360.257947,134.944056 C354.791116,138.468531 347.031743,141.111888 339.096021,141.111888 C314.407107,141.111888 295.714073,121.551049 295.714073,97.0559441 C295.714073,72.5608392 314.407107,53 339.096021,53 C347.031743,53 354.791116,55.6433566 360.257947,59.1678322 L360.257947,58.6433566 L360.257947,58.6433566 C360.257947,56.9865024 361.601093,55.6433566 363.257947,55.6433566 L363.257947,55.6433566 Z M360.257947,111.858741 L360.257947,82.2531469 C354.438417,76.2615385 347.384442,72.7370629 339.801419,72.7370629 C326.575215,72.7370629 316.699649,83.1342657 316.699649,97.0559441 C316.699649,110.977622 326.575215,121.374825 339.801419,121.374825 C347.384442,121.374825 354.438417,118.731469 360.257947,111.858741 Z" id="q" fill="#1E0936"></path>
                <path d="M449.006217,55.5621584 C449.006217,55.5621584 449.006217,55.5621584 449.006217,55.5621584 C444.418614,53.6625456 439.831011,53 435.243408,53 C427.307686,53 419.371963,55.6433566 413.199735,59.1678322 L413.199735,58.0979021 C413.199735,56.7422941 412.102645,55.6433566 410.749315,55.6433566 L395.193627,55.6433566 C393.840297,55.6433566 392.743207,56.7422941 392.743207,58.0979021 L392.743207,138.657343 C392.743207,140.012951 393.840297,141.111888 395.193627,141.111888 L410.749315,141.111888 C412.102645,141.111888 413.199735,140.012951 413.199735,138.657343 L413.199735,81.5482517 C417.961168,76.0853147 426.07324,72.7370629 434.185312,72.7370629 C436.064469,72.7370629 438.456241,72.8971413 440.99192,73.4219911 C441.001515,73.4239772 441.011203,73.4259941 441.020982,73.4280417 L441.020983,73.4280389 C442.405465,73.7179251 443.80434,73.0013445 444.378003,71.7083882 L450.208017,58.5683563 L450.208024,58.5683598 C450.714491,57.4268547 450.199691,56.0909095 449.058186,55.5844427 C449.040956,55.5767982 449.023632,55.5693696 449.006217,55.5621584 Z" id="r" fill="#1E0936"></path>
                <path d="M523.739306,132.147034 C515.827971,136.887508 504.590067,141.111888 493.20639,141.111888 C466.224934,141.111888 446.297454,121.198601 446.297454,96.351049 C446.297454,72.3846154 463.050645,53 488.974005,53 C512.428473,53 527.065472,73.0895105 527.065472,93.8839161 C527.065472,95.6340792 526.891012,97.7458218 526.666868,99.5124204 C526.6637,99.5373864 526.660466,99.5625658 526.657167,99.5879584 L526.657159,99.5879573 C526.462835,101.083509 525.188445,102.202327 523.680321,102.201395 L467.106681,102.166434 C469.575573,115.030769 479.627488,122.608392 493.20639,122.608392 C500.795303,122.608392 508.823045,120.503512 516.237048,116.293752 C516.237048,116.293752 516.237048,116.293752 516.237048,116.293752 L516.237048,116.293752 C517.468722,115.594393 519.034134,116.025919 519.733493,117.257593 C519.774973,117.330645 519.812838,117.405691 519.846952,117.482459 L525.090266,129.281862 L525.090274,129.281859 C525.495638,130.194072 525.166308,131.265511 524.318558,131.792554 C524.099479,131.928754 523.906395,132.046914 523.739306,132.147034 Z M467.812079,86.6587413 L506.432594,86.6587413 C505.550847,78.3762238 497.967823,71.5034965 488.974005,71.5034965 C477.334946,71.5034965 470.45732,78.3762238 467.812079,86.6587413 Z" id="e" fill="#1E0936"></path>
                <path d="M613.095634,132.147034 C605.184298,136.887508 593.946394,141.111888 582.562717,141.111888 C555.581262,141.111888 535.653782,121.198601 535.653782,96.351049 C535.653782,72.3846154 552.406973,53 578.330332,53 C601.7848,53 616.421799,73.0895105 616.421799,93.8839161 C616.421799,95.6340792 616.24734,97.7458218 616.023195,99.5124204 C616.020027,99.5373864 616.016794,99.5625658 616.013494,99.5879584 L616.013486,99.5879573 C615.819162,101.083509 614.544772,102.202327 613.036649,102.201395 L556.463009,102.166434 C558.9319,115.030769 568.983815,122.608392 582.562717,122.608392 C590.15163,122.608392 598.179373,120.503512 605.593376,116.293752 C605.593376,116.293752 605.593376,116.293752 605.593376,116.293752 L605.593376,116.293752 C606.82505,115.594393 608.390461,116.025919 609.089821,117.257593 C609.1313,117.330645 609.169166,117.405691 609.20328,117.482459 L614.446593,129.281862 L614.446601,129.281859 C614.851965,130.194072 614.522635,131.265511 613.674886,131.792554 C613.455806,131.928754 613.262722,132.046914 613.095634,132.147034 Z M557.168406,86.6587413 L595.788921,86.6587413 C594.907174,78.3762238 587.324151,71.5034965 578.330332,71.5034965 C566.691273,71.5034965 559.813647,78.3762238 557.168406,86.6587413 Z" id="e" fill="#1E0936"></path>
                <path d="M625.821187,58.6433566 L625.821187,138.111888 L625.821187,138.111888 C625.821187,139.768742 627.164333,141.111888 628.821187,141.111888 L643.277716,141.111888 L643.277716,141.111888 C644.93457,141.111888 646.277716,139.768742 646.277716,138.111888 L646.277716,81.5482517 C651.039149,76.0853147 659.151221,72.7370629 667.263292,72.7370629 C680.489496,72.7370629 687.543472,79.9622378 687.543472,94.0601399 L687.543472,138.111888 L687.543472,138.111888 C687.543472,139.768742 688.886617,141.111888 690.543472,141.111888 L705,141.111888 L705,141.111888 C706.656854,141.111888 708,139.768742 708,138.111888 L708,91.7692308 C708,67.979021 694.773796,53 668.321389,53 C660.385667,53 652.449944,55.6433566 646.277716,59.1678322 L646.277716,58.6433566 L646.277716,58.6433566 C646.277716,56.9865024 644.93457,55.6433566 643.277716,55.6433566 L628.821187,55.6433566 L628.821187,55.6433566 C627.164333,55.6433566 625.821187,56.9865024 625.821187,58.6433566 Z" id="n" fill="#1E0936"></path>
                <g id="nest-cmyk-indigo">
                    <ellipse id="sqreen" fill="#B0ACFF" cx="85" cy="96.5" rx="45.7692308" ry="45.7966102"></ellipse>
                    <path d="M78.4615385,175.749389 L78.4615385,102.2092 L13.1398162,64.4731256 L13.1398162,129.181112 L36.352167,115.771438 C37.9764468,119.873152 40.1038639,123.720553 42.6582364,127.237412 L18.5723996,141.151695 L78.4615385,175.749389 Z M91.5384615,175.749389 L151.4276,141.151695 L127.341764,127.237412 C129.896136,123.720553 132.023553,119.873152 133.647833,115.771438 L156.860184,129.181112 L156.860184,64.4731256 L91.5384615,102.2092 L91.5384615,175.749389 Z M18.0061522,52.1754237 L85,90.8774777 L151.993848,52.1754237 L91.5384615,17.2506105 L91.5384615,44.565949 C89.3964992,44.2986903 87.2143177,44.1610169 85,44.1610169 C82.7856823,44.1610169 80.6035008,44.2986903 78.4615385,44.565949 L78.4615385,17.2506105 L18.0061522,52.1754237 Z M90.8846156,1.76392358 L164.052491,44.0326866 C167.693904,46.1363149 169.937107,50.0239804 169.937107,54.231237 L169.937107,138.768763 C169.937107,142.97602 167.693904,146.863685 164.052491,148.967313 L90.8846156,191.236076 C87.2432028,193.339705 82.7567972,193.339705 79.1153844,191.236076 L5.94750871,148.967313 C2.30609589,146.863685 0.0628930904,142.97602 0.0628930904,138.768763 L0.0628930904,54.231237 C0.0628930904,50.0239804 2.30609589,46.1363149 5.94750871,44.0326866 L79.1153844,1.76392358 C82.7567972,-0.339704735 87.2432028,-0.339704735 90.8846156,1.76392358 Z" id="app" fill="#4842B7"></path>
                </g>
            </g>
        </g>
    </g>
</svg>