<svg id="Layer_1" data-name="Layer 1" xmlns="http://www.w3.org/2000/svg" viewBox="0 0 300 300"><defs><style>.cls-1{fill:#bd1b25;}.cls-2{fill:#fff;}</style></defs><rect class="cls-1" width="300" height="300"/><path class="cls-2" d="M83.9,123c-5.31-3.17-10.2-4.89-26.24-4.89H32.8V218h19V181.21H62.28c10.46,0,14.54-1.15,18.89-3.31,10.33-5.17,16.3-15.82,16.3-29C97.47,137.34,92.72,128.14,83.9,123Zm-9.53,36.68c-2.57,4.17-4.88,5.17-12.63,5.17H51.83V134.32H63.91c8,0,12.77,5.61,12.77,15C76.68,154,76,156.91,74.37,159.64ZM32.8,227.47h4.37V268H32.8Zm49.73,10.34a9.87,9.87,0,0,0-8.14,4.08c-2.29,3-3.27,6.15-3.27,11.12,0,9.75,4.53,15.66,12.07,15.66A13,13,0,0,0,92.36,265l-1.64-3a8.94,8.94,0,0,1-6.66,2.77,7.51,7.51,0,0,1-6.77-3.6c-.93-1.53-1.26-3.66-1.26-6.44v-.71H93v-.65c-.11-7-.77-9.81-3.11-12.41A9.68,9.68,0,0,0,82.53,237.81ZM76,250.58c.22-6.09,2.4-9.16,6.28-9.16a5.67,5.67,0,0,1,4.92,2.6c.82,1.42,1.2,3.37,1.26,6.56Zm42.19-8.33a9,9,0,0,1,.66,3.43V268h-4.32V248.1c0-3.13-.22-3.9-1-4.9a3.84,3.84,0,0,0-3-1.25c-2.18,0-5.57,1.9-7.53,4.14V268H98.88v-22.7a14.72,14.72,0,0,0-1-6.2l4.15-1.24a12.68,12.68,0,0,1,1,4.61c2.84-3.08,5.68-4.55,8.58-4.55A7.17,7.17,0,0,1,118.22,242.25ZM103.06,124.11a11.71,11.71,0,0,1,11.41-11.94c6.12,0,11,5.33,11,11.94s-5,11.94-11.29,11.94S103.06,130.72,103.06,124.11Zm2,21.57,18.21-3V218H105.1Zm25.53,93h7l-1.3,3.48h-5.89v19c0,3.26.82,4.38,3.5,4.38,1.2,0,.88,0,1.65-.4l.6,2.95a5.92,5.92,0,0,1-3.78,1,7.45,7.45,0,0,1-3.55-.82c-1.91-1-2.63-2.9-2.63-5.86V242.13h-3.54v-3.48h3.54V227.49h4.38Zm-65-11.22H61.32v9.8c0,2.12,0,4.55,0,4.55A8.76,8.76,0,0,0,54,238.06a8.16,8.16,0,0,0-5.25,1.83c-3.71,2.77-5.62,7.38-5.62,13.65,0,9.39,4,14.89,11.08,14.89A8.38,8.38,0,0,0,61.43,265a10.91,10.91,0,0,0,.6,3H66.4c-.61-1.72-.82-4.44-.82-9.51Zm-4.32,33.08a5.63,5.63,0,0,1-1.64,2.13,7.43,7.43,0,0,1-5.24,1.89,5.59,5.59,0,0,1-5.46-3.43c-.88-1.71-1.1-4.25-1.1-7.68,0-4.14.44-6.26,1.75-8.51a5.69,5.69,0,0,1,5.09-3.07c3.21,0,5.24,1,6.6,3.07Zm131.58-21.92-9.35,30.49c-1.85,5.91-4,9.81-8.79,11.06L173.44,277c2.66-.9,4.06-2.21,5.22-5.41-.44-2.32-.69-3.34-.69-3.34-.32-1.89-1.8-7.62-2.73-10.57l-5.85-18.44,4.22-1.54,5.57,19.09c.82,2.78,1.64,7.33,1.64,7.33h.11l1.69-6.21L188,238.59Zm3.67,24.06c0-1-.59-1.43-1.7-1.43H193.1v4.87H194V264h.52l1.19,2.1h.88L195.31,264A1.19,1.19,0,0,0,196.51,262.65Zm-2.55.65v-1.39h.76c.44,0,.94.09.94.66s-.44.73-.95.73Zm.71-3.93a4.31,4.31,0,1,0,4.06,4.3A4.19,4.19,0,0,0,194.67,259.37Zm0,7.77a3.49,3.49,0,1,1,3.07-3.47A3.23,3.23,0,0,1,194.67,267.14Zm44-67.95-9.79-.14c-1.91,0-3-.73-3-1.73,0-2,2.58-3.74,7.2-6a21.45,21.45,0,0,0,2.71.14c14.82,0,25.7-9.21,25.7-21.86a18.38,18.38,0,0,0-4.09-12.08,35.64,35.64,0,0,0,4.76.43c5,0,8.83-1.59,12.77-5.47l-7.61-12.22c-4.21,4-9.38,6.33-14.4,6.33-2.31,0-4.76-.58-8.56-1.58a47.79,47.79,0,0,0-12.51-1.87c-17.79,0-29.34,9.78-29.34,24.88,0,10.93,4.88,17.69,14.94,20.43-11.42,3.15-12.77,7.62-12.77,12.36,0,5,2,8.34,5.3,9.63,3.26,1.45,8.56,2.16,16.71,2.31l7.74.14c7.21.15,12.78,2.16,12.78,8.78a9,9,0,0,1-4.48,7.47c-2.85,1.88-6.8,2.44-11.41,2.44-8.43,0-13.06-3.15-13.06-9.06a10.66,10.66,0,0,1,.83-4.73H202.27a15.44,15.44,0,0,0-1.62,7.48,17.73,17.73,0,0,0,5.7,13.08c6.25,6.19,16.45,7.91,26.36,7.91,10.86,0,21.34-2.58,27.45-9.49a21.59,21.59,0,0,0,5.58-15.24c0-6.62-1.91-11.66-6-15.68C254.86,201.06,249.29,199.33,238.7,199.19Zm-17.81-31.07c0-6.9,3.94-10.93,10.87-10.93s11,4,11,10.93-3.94,10.5-11.15,10.5C225.23,178.62,220.89,175.6,220.89,168.12ZM169,159.35c-3.66,0-8.42,2.59-12.63,6.61V218H138.12V164.67a56,56,0,0,0-2.44-17.26l16.16-4.89a19.63,19.63,0,0,1,2.59,9.21,78.61,78.61,0,0,1,8-5.47A27.46,27.46,0,0,1,175,143.1c7.75,0,14.54,4.31,16.71,10.64a31.36,31.36,0,0,1,1.36,10.5V218H175.08V170.14C175.08,161.8,173.73,159.35,169,159.35Zm-9.33,82.72v19c0,3.25.82,4.38,3.5,4.38,1.2,0,.88,0,1.65-.4l.6,3a5.93,5.93,0,0,1-3.79,1,7.45,7.45,0,0,1-3.55-.82c-1.91-1-2.62-2.9-2.62-5.86V242.07h-3.55v-3.48h3.55V227.43h4.38v11.16h6.82l-1.31,3.48Zm-17.35-3.4,4.43-.73V268h-4.43Z"/></svg>