<?xml version="1.0" standalone="yes"?>
<svg
    xmlns="http://www.w3.org/2000/svg" viewBox="52 22 284 62" style="zoom: 1;">
    <defs>
        <style>
          .cls-1{fill:#ff160a;}
          .cls-2{fill:#fff;}
          .cls-grey{fill:#333;}
        </style>
    </defs>
    <title>Downdetector_rgb_reverse</title>
    <g id="Layer_2" data-name="Layer 2">
        <g id="Layer_1-2" data-name="Layer 1">
            <path class="cls-1" d="M300.26,45.77a12.8,12.8,0,1,1,12.8,12.8h-12.8Z"></path>
            <path class="cls-2" d="M314.53,54.59a7.65,7.65,0,0,1-2.94,0,.6.6,0,0,1-.47-.48,7.28,7.28,0,0,1,0-2.94.59.59,0,0,1,.47-.47,7.28,7.28,0,0,1,2.94,0,.59.59,0,0,1,.47.47,7.28,7.28,0,0,1,0,2.94A.6.6,0,0,1,314.53,54.59Z"></path>
            <path class="cls-2" d="M311.29,48.55l-.72-10.77a.81.81,0,0,1,.66-.8,10.23,10.23,0,0,1,3.66,0,.81.81,0,0,1,.66.8l-.72,10.77a.56.56,0,0,1-.56.56,7,7,0,0,1-2.42,0A.56.56,0,0,1,311.29,48.55Z"></path>
            <path class="cls-1" d="M62.54,47.37h9.92c7.88,0,13.34,5,13.34,12.6S80.34,72.52,72.46,72.52H62.54Zm9.92,20.44A7.52,7.52,0,0,0,80.34,60c0-4.45-2.72-7.88-7.88-7.88H67.9V67.81Z"></path>
            <path class="cls-1" d="M87.64,63.4a9.64,9.64,0,0,1,19.27,0,9.64,9.64,0,0,1-19.27,0Zm14.29,0c0-2.83-1.7-5.28-4.67-5.28s-4.64,2.45-4.64,5.28,1.66,5.31,4.64,5.31S101.93,66.26,101.93,63.4Z"></path>
            <path class="cls-1" d="M121.4,60.12l-3.85,12.4h-5.13l-5.54-18.21h5l3.39,12.25,4-12.25h4.26l4,12.25,3.4-12.25h5l-5.54,18.21h-5.09Z"></path>
            <path class="cls-1" d="M150.9,61.51c0-2.52-1.32-3.39-3.35-3.39a5.16,5.16,0,0,0-4.15,2.15V72.52h-4.79V54.31h4.79v2.38a8.32,8.32,0,0,1,6.37-2.83c4,0,5.92,2.26,5.92,5.8V72.52H150.9Z"></path>
            <path class="cls-grey" d="M171.76,70.22A7.14,7.14,0,0,1,166.14,73c-4.59,0-8.06-3.47-8.06-9.54s3.43-9.57,8.06-9.57a7,7,0,0,1,5.62,2.79V47.37h4.83V72.52h-4.83Zm0-10a5.27,5.27,0,0,0-4.15-2.07c-2.71,0-4.59,2.15-4.59,5.31s1.88,5.28,4.59,5.28a5.25,5.25,0,0,0,4.15-2.07Z"></path>
            <path class="cls-grey" d="M188.4,53.86c5.43,0,9.12,4.07,9.12,10v1H184a4.9,4.9,0,0,0,5.24,4.22,7.39,7.39,0,0,0,4.86-1.81l2.11,3.1A11.23,11.23,0,0,1,188.7,73c-5.54,0-9.72-3.73-9.72-9.57A9.26,9.26,0,0,1,188.4,53.86Zm-4.49,7.84h9a4.22,4.22,0,0,0-4.49-4A4.38,4.38,0,0,0,183.91,61.7Z"></path>
            <path class="cls-grey" d="M201.66,68V58.5h-3V54.31h3v-5h4.82v5h3.7V58.5h-3.7v8.21c0,1.14.61,2,1.66,2a2.57,2.57,0,0,0,1.66-.53l1,3.62a5.93,5.93,0,0,1-4,1.17C203.47,73,201.66,71.24,201.66,68Z"></path>
            <path class="cls-grey" d="M221.44,53.86c5.43,0,9.12,4.07,9.12,10v1H217a4.9,4.9,0,0,0,5.24,4.22,7.41,7.41,0,0,0,4.86-1.81l2.11,3.1a11.25,11.25,0,0,1-7.5,2.52C216.2,73,212,69.24,212,63.4A9.27,9.27,0,0,1,221.44,53.86ZM217,61.7h9a4.21,4.21,0,0,0-4.48-4A4.38,4.38,0,0,0,217,61.7Z"></path>
            <path class="cls-grey" d="M242.23,53.86c3.74,0,6,1.62,7.21,3.32l-3.13,2.9a4.5,4.5,0,0,0-3.85-2c-2.9,0-4.94,2.11-4.94,5.28s2,5.31,4.94,5.31a4.6,4.6,0,0,0,3.85-2l3.13,2.9C248.23,71.35,246,73,242.23,73a9.25,9.25,0,0,1-9.65-9.57A9.24,9.24,0,0,1,242.23,53.86Z"></path>
            <path class="cls-grey" d="M254.79,68V58.5h-3V54.31h3v-5h4.82v5h3.7V58.5h-3.7v8.21c0,1.14.61,2,1.66,2a2.57,2.57,0,0,0,1.66-.53l1,3.62A5.93,5.93,0,0,1,260,73C256.6,73,254.79,71.24,254.79,68Z"></path>
            <path class="cls-grey" d="M265.14,63.4a9.64,9.64,0,0,1,19.27,0,9.64,9.64,0,0,1-19.27,0Zm14.29,0c0-2.83-1.7-5.28-4.67-5.28s-4.64,2.45-4.64,5.28,1.66,5.31,4.64,5.31S279.43,66.26,279.43,63.4Z"></path>
            <path class="cls-grey" d="M286.76,54.31h4.78V56.8a7.82,7.82,0,0,1,5.81-2.9v4.67a6.78,6.78,0,0,0-1.32-.11,6.09,6.09,0,0,0-4.49,2v12h-4.78Z"></path>
        </g>
    </g>
</svg>
