<?xml version="1.0" standalone="yes"?>
<svg xmlns="http://www.w3.org/2000/svg" width="256" height="256">
<path style="fill:#ffffff; stroke:none;" d="M0 0L0 159L1 159C3.94626 137.228 21.6251 120.713 41 112.427C73.2623 98.6301 109.597 99 144 99C140.959 108.329 135.732 128.748 126.79 133.972C120.835 137.451 106.935 135.733 100 136.039C81.8283 136.842 52.2953 140.341 40.5579 156.004C26.4424 174.84 44.5325 208.09 66 211.674C79.7177 213.965 86.7528 204.012 98 199C101.341 206.903 117.045 217.891 116.948 225.999C116.897 230.287 110.088 234.152 107 236.254C94.5192 244.75 81.9378 248.071 67 247.999C34.2278 247.841 5.18466 215.051 1 184L0 184L0 256L256 256L256 183L255 183C251.452 226.442 201.831 261.226 161 242.688C125.96 226.778 97.4079 183.606 83 149C92.3028 148.601 113.841 141.464 121.621 147.603C126.322 151.313 129.1 159.03 132.344 164C143.578 181.21 161.723 211.109 185 211.956C207.549 212.777 226.861 181.415 218.517 161C214.084 150.153 202.34 145.37 192 142C196.088 134.816 199.1 126.756 201.947 119C202.903 116.394 203.619 111.562 206.419 110.238C210.597 108.262 220.448 114.353 224 116.454C238.901 125.266 253.423 140.933 255 159L256 159L256 0L0 0z"/>
<path style="fill:#61798d; stroke:none;" d="M99 89C96.1467 78.8464 94.0674 67.2257 100.638 58C114.291 38.8302 150.308 38.6243 162.095 60C173.01 79.7946 155.559 111.26 146.752 129C144.091 134.361 137.803 141.949 137.665 148C137.437 158.008 152.439 172.258 158 180C167.867 171.825 174.552 155.36 180.247 144C201.259 102.084 218.734 40.1448 165 14.7809C157.612 11.2933 149.194 8.66382 141 8.08951C131.165 7.40021 120.635 7.50722 111 9.66513C83.0074 15.9343 62.0801 38.0948 60.0895 67C59.726 72.278 58.5707 89.5931 63.5887 92.8827C66.1616 94.5693 71.2346 92.5469 74 92.081C82.2922 90.6841 90.6699 90.0528 99 89z"/>
<path style="fill:#ffd143; stroke:none;" d="M98 199C86.7092 202.076 80.2525 213.867 67 211.674C44.2236 207.906 25.2701 172.443 43.0941 154.043C56.3717 140.337 82.7996 136.843 101 136.039C107.693 135.744 121.985 137.495 127.621 133.972C135.973 128.752 141.883 108.146 144 99C106.619 99 63.3293 97.5737 30 117.453C-12.4147 142.751 -7.38767 204.658 29 233.331C48.9251 249.032 77.152 253.684 100 241.135C104.745 238.529 117.763 232.344 117.794 225.999C117.809 222.996 114.36 220.115 112.59 218C107.476 211.889 102.218 205.773 98 199z"/>
<path style="fill:#03a981; stroke:none;" d="M192 142C202.508 146.681 214.715 150.99 218.891 163C225.55 182.15 206.224 213.051 185 211.892C162.696 210.674 144.615 181.503 133.667 165C130.289 159.908 126.864 150.305 121.621 147.028C113.106 141.706 92.5582 148.246 83 149C85.9667 159.298 92.6794 168.901 98.2029 178C113.247 202.782 132.799 230.337 160 242.688C201.701 261.621 245.292 229.486 254.575 188C260.473 161.641 251.993 134.245 229 119.004C224.438 115.98 212.206 107.6 206.419 109.708C203.558 110.749 202.861 115.512 201.947 118C198.959 126.137 195.287 133.989 192 142z"/>
</svg>
