<?xml version="1.0" encoding="utf-8"?>
<!-- Generator: Adobe Illustrator 22.0.0, SVG Export Plug-In . SVG Version: 6.00 Build 0)  -->
<svg version="1.1" id="Layer_1" xmlns="http://www.w3.org/2000/svg" xmlns:xlink="http://www.w3.org/1999/xlink" x="0px" y="0px"
	 viewBox="0 0 216 108" style="enable-background:new 0 0 216 108;" xml:space="preserve">
<style type="text/css">
	.st0{fill:#25548D;}
	.st1{fill:#3D7AB4;}
	.st2{fill:#3D87C3;}
	.st3{fill:#366EAA;}
	.st4{fill:#1D4680;}
	.st5{fill:#3E94D0;}
	.st6{fill:#46A8C6;}
	.st7{fill:#2E5F9A;}
	.st8{fill:#C24327;}
	.st9{fill:#D15527;}
	.st10{fill:#E68D24;}
	.st11{fill:#EDC51A;}
	.st12{fill:#B12F25;}
	.st13{fill:#EEA71F;}
	.st14{fill:#FFFFFF;}
</style>
<g id="Layer_4">
	<polygon class="st0" points="69,40 42.9,4.1 33.1,61.3 43.9,66.1 	"/>
	<polygon class="st1" points="6,49.1 33.1,61.3 42.9,4.1 	"/>
	<polygon class="st2" points="80.3,28.1 42.9,4.1 69,40 	"/>
	<polygon class="st3" points="78.1,52.6 84.3,30.6 80.3,28.1 69,40 	"/>
	<polygon class="st4" points="43.9,66.1 71,78.3 78.1,52.6 69,40 	"/>
	<polygon class="st2" points="33.1,61.3 29.8,80.9 43.9,66.1 	"/>
	<polygon class="st5" points="43.9,66.1 29.8,80.9 63.9,103.9 71,78.3 	"/>
	<polygon class="st6" points="63.9,103.9 95.3,89.2 71,78.3 	"/>
	<polygon class="st7" points="78.1,52.6 102.3,86 141.9,67.5 84.3,30.6 	"/>
	<polygon class="st0" points="78.1,52.6 71,78.3 95.3,89.2 102.3,86 	"/>
	<polygon class="st1" points="102.3,86 95.3,89.2 109.2,95.4 	"/>
	<polygon class="st5" points="109.2,95.4 141.9,67.5 102.3,86 	"/>
	<polygon class="st6" points="141.9,67.5 86.8,21.3 84.3,30.6 	"/>
	<polygon class="st5" points="86.8,21.3 80.3,28.1 84.3,30.6 	"/>
	<g>
		<polygon class="st8" points="171.5,63.9 190.7,95.2 194.4,47.2 187,42.5 		"/>
		<polygon class="st9" points="210,56.8 194.4,47.2 190.7,95.2 		"/>
		<polygon class="st10" points="162.7,76.2 190.7,95.2 171.5,63.9 		"/>
		<polygon class="st10" points="187,42.5 195.7,30.4 173.7,9 169,31.5 		"/>
		<polygon class="st11" points="173.7,9 150.3,19.9 169,31.5 		"/>
		<polygon class="st10" points="141.1,14.2 108.4,39.5 145.9,22 		"/>
		<polygon class="st9" points="150.3,19.9 141.1,14.2 145.9,22 		"/>
		<polygon class="st9" points="164.7,52.7 145.9,22 108.4,39.5 160.2,74.5 		"/>
		<polygon class="st8" points="164.7,52.7 169,31.5 150.3,19.9 145.9,22 		"/>
		<polygon class="st12" points="169,31.5 164.7,52.7 171.5,63.9 187,42.5 		"/>
		<polygon class="st8" points="171.5,63.9 164.7,52.7 160.2,74.5 162.7,76.2 162.7,76.2 		"/>
		<polygon class="st10" points="158.7,81.7 162.7,76.2 160.2,74.5 		"/>
		<polygon class="st11" points="108.4,39.5 158.7,81.7 160.2,74.5 		"/>
		<polygon class="st13" points="194.4,47.2 195.7,30.4 187,42.5 		"/>
	</g>
</g>
<g id="Layer_2_1_">
	<g id="CloudZero_Word">
		<path class="st14" d="M27.8,54L27.8,54c0-5.6,4.3-10,10.1-10c3.9,0,6.4,1.6,8.1,4L42,51c-1.1-1.3-2.4-2.2-4.2-2.2
			c-2.7,0-4.6,2.3-4.6,5.1v0.1c0,2.9,1.9,5.1,4.6,5.1c2,0,3.2-0.9,4.3-2.3l4,2.8c-1.8,2.5-4.2,4.3-8.5,4.3
			C32.2,63.9,27.8,59.7,27.8,54z"/>
		<path class="st14" d="M47.6,44.3h5.3v14.5h9.3v4.7H47.6V44.3z"/>
		<path class="st14" d="M62.5,54L62.5,54c0-5.6,4.4-10,10.3-10c5.9,0,10.3,4.4,10.3,9.9v0.1c0,5.5-4.4,10-10.3,10
			C66.9,63.9,62.5,59.5,62.5,54z M77.7,54L77.7,54c0-2.8-2-5.2-4.9-5.2c-2.9,0-4.9,2.4-4.9,5.1v0.1c0,2.8,2,5.2,4.9,5.2
			C75.8,59.1,77.7,56.7,77.7,54z"/>
		<path class="st14" d="M85,55.1V44.3h5.4V55c0,2.8,1.4,4.1,3.5,4.1c2.2,0,3.6-1.3,3.6-3.9V44.3h5.4v10.6c0,6.2-3.5,8.9-9,8.9
			C88.4,63.8,85,61.1,85,55.1z"/>
		<path class="st14" d="M105.5,44.3h7.4c6.8,0,10.8,3.9,10.8,9.5v0.1c0,5.5-4,9.6-10.9,9.6h-7.3C105.5,63.5,105.5,44.3,105.5,44.3z
			 M110.8,49v9.8h2.2c3.2,0,5.3-1.8,5.3-4.8v-0.1c0-3.1-2.1-4.9-5.3-4.9L110.8,49L110.8,49z"/>
		<path class="st14" d="M124.6,59.6l9.6-10.8h-9.3v-4.5h16.6v3.8L131.9,59h9.6v4.5h-16.9V59.6z"/>
		<path class="st14" d="M143.8,44.3h15.4v4.5h-10.2v2.9h9.2v4.2h-9.2v3h10.3v4.5h-15.5L143.8,44.3L143.8,44.3z"/>
		<path class="st14" d="M161.8,44.3h9.1c2.9,0,5,0.8,6.2,2.1c1.1,1.1,1.7,2.6,1.7,4.5v0.1c0,3-1.6,4.9-3.9,5.9l4.6,6.7h-6.1
			l-3.9-5.8h-2.4v5.8h-5.3V44.3z M170.6,53.5c1.8,0,2.8-0.9,2.8-2.3v-0.1c0-1.5-1.1-2.3-2.9-2.3h-3.5v4.6H170.6z"/>
		<path class="st14" d="M179.8,54L179.8,54c0-5.6,4.4-10,10.3-10c5.9,0,10.3,4.4,10.3,9.9v0.1c0,5.5-4.4,10-10.3,10
			C184.2,63.9,179.8,59.5,179.8,54z M195,54L195,54c0-2.8-2-5.2-4.9-5.2c-2.9,0-4.9,2.4-4.9,5.1v0.1c0,2.8,2,5.2,4.9,5.2
			C193,59.1,195,56.7,195,54z"/>
	</g>
</g>
</svg>
