<svg viewBox="0 0 1389.92 417.54">
    <defs>
        <style>
            .sedai-icon {
                fill:url(#Sedai_Gradient);
            }
            .sedai-name {
                fill:#0b1a33;
            }
        </style>
        <linearGradient
            id="Sedai_Gradient"
            x1="-2586.31"
            y1="-729.92"
            x2="-2427.13"
            y2="-343.92"
            gradientTransform="translate(-1243.27 2321.47) rotate(112.41)"
            gradientUnits="userSpaceOnUse"
            >
            <stop offset="0" stop-color="#1ae1e8"/>
            <stop offset="1" stop-color="#4d31eb"/>
        </linearGradient>
    </defs>
    <g>
        <path class="sedai-icon" d="M335.4,82.06,318.56,23.73l75.27,74.85ZM155.55.29l53.16,29.34L261.71,0Zm-57,23.43L23.73,99,82.06,82.14ZM0,155.83.29,262l29.34-53.16ZM23.7,319,99,393.81,82.14,335.48ZM262,417.25l-53.15-29.34-53,29.63Zm57-23.42,74.85-75.26L335.47,335.4Zm98.59-132.12-.31-106.14L387.9,208.72ZM336.82,155.07l33.34,26.11L341.36,113ZM261.33,80.26l42.05-5.13-68.6-27.86Zm-106.26.47,26.1-33.35L113,76.18ZM80.26,156.2l-5.12-42-27.87,68.6Zm.46,106.27L47.37,236.36l28.8,68.22Zm75.47,74.82-42,5.12,68.6,27.86Zm106.27-.47-26.1,33.35,68.21-28.81Zm74.82-75.48,5.12,42,27.86-68.59Z"/>
        <g class="sedai-name">
            <path d="M679.42,213.09a41.41,41.41,0,0,0-10.74-7.72,76.32,76.32,0,0,0-12.42-4.92A114,114,0,0,0,644,197.54c-4.06-.72-7.6-1.42-10.56-2.14-4-1-8.08-2-12.31-3a79.36,79.36,0,0,1-12-3.72,29.59,29.59,0,0,1-9.37-5.72,12.56,12.56,0,0,1-4.1-9.47,13.84,13.84,0,0,1,3.4-9.43,24.87,24.87,0,0,1,7.93-6,40,40,0,0,1,9.78-3.26,48.12,48.12,0,0,1,9.1-1,60.37,60.37,0,0,1,22.22,4.19,102.82,102.82,0,0,1,16.21,8.32l3.61,2.26L681.82,149l-3.89-2.58c-2.65-1.75-5.18-3.35-7.58-4.77a77.42,77.42,0,0,0-12.45-6,75.39,75.39,0,0,0-13.77-3.59,106.15,106.15,0,0,0-36.77.83A57.08,57.08,0,0,0,589,140a39.21,39.21,0,0,0-13.35,13.44c-3.42,5.61-5.16,12.81-5.16,21.37a37.42,37.42,0,0,0,2.87,15.27,35.83,35.83,0,0,0,7.67,11.16,44.62,44.62,0,0,0,10.9,7.88,77.09,77.09,0,0,0,12.54,5.15,115.85,115.85,0,0,0,12.48,3.1l10.76,2q7,1.29,13.54,2.77a63.48,63.48,0,0,1,11.64,3.75,23.7,23.7,0,0,1,8.41,6,14,14,0,0,1,3.42,9.42,18.14,18.14,0,0,1-2.17,8.35,21.66,21.66,0,0,1-6.35,7.32,34.73,34.73,0,0,1-10,5,43.37,43.37,0,0,1-13.39,1.9,62.91,62.91,0,0,1-26.9-6,171.51,171.51,0,0,1-18.81-10.38l-3.7-2.36-13.56,20,3.74,2.53c2.83,1.91,5.6,3.72,8.34,5.43a87.62,87.62,0,0,0,30.46,11.86,106.73,106.73,0,0,0,19.81,1.75,96,96,0,0,0,24.37-2.87,53.33,53.33,0,0,0,17.88-8.43,36.4,36.4,0,0,0,11.39-13.88c2.66-5.6,4-12.32,4-20a43.58,43.58,0,0,0-2.89-16.8A36.08,36.08,0,0,0,679.42,213.09Z"/>
            <polygon points="765.75 283.69 875.38 283.69 875.38 261.52 790.89 261.52 790.89 220.59 865.85 220.59 865.85 198.21 790.89 198.21 790.89 154.95 875.38 154.95 875.38 133.21 765.75 133.21 765.75 283.69"/>
            <polygon points="1148.43 283.69 1176.04 283.69 1219.18 190.8 1262.33 283.69 1290.14 283.69 1219.18 134.63 1148.43 283.69"/>
            <rect x="1364.79" y="133.42" width="25.13" height="150.27"/>
            <path d="M1068.84,151.88A67.65,67.65,0,0,0,1045.4,138a88.8,88.8,0,0,0-29.59-4.74H957V283.69h58.84c21.75,0,39.09-6.18,53-18.89a64.4,64.4,0,0,0,16.65-24.25,87.1,87.1,0,0,0,5.66-32.1,87.91,87.91,0,0,0-5.65-32.31A64.61,64.61,0,0,0,1068.84,151.88Zm-7.46,83.43c-3.11,7-7.18,12.53-12.11,16.41a40.6,40.6,0,0,1-16.35,7.85,78.4,78.4,0,0,1-17,1.95H982.1V155h33.81a77.21,77.21,0,0,1,17.22,2,39,39,0,0,1,16.29,8c4.84,3.94,8.86,9.45,12,16.39s4.64,15.95,4.64,27S1064.46,228.33,1061.38,235.31Z"/>
        </g>
    </g>
</svg>
