<?xml version="1.0" encoding="utf-8"?>
<!-- Generator: Adobe Illustrator 26.0.3, SVG Export Plug-In . SVG Version: 6.00 Build 0)  -->
<svg version="1.1" id="Layer_1" xmlns="http://www.w3.org/2000/svg" xmlns:xlink="http://www.w3.org/1999/xlink" x="0px" y="0px"
	 viewBox="0 0 402.2 363" style="enable-background:new 0 0 402.2 363;" xml:space="preserve">
<style type="text/css">
	.st0{fill:#2A3947;}
	.st1{fill-rule:evenodd;clip-rule:evenodd;fill:url(#SVGID_1_);}
</style>
<path class="st0" d="M36.9,357.9c-4.7,0-9.1-0.6-13.2-1.9c-4.2-1.2-8-3-11.5-5.2c-3.5-2.2-6.5-4.9-9.1-8.1l10.2-10.2
	c3,3.7,6.5,6.5,10.5,8.3c4,1.8,8.4,2.7,13.3,2.7c4.9,0,8.7-0.9,11.4-2.6c2.6-1.7,4-4.1,4-7.1c0-3-1.1-5.4-3.3-7.1
	c-2.1-1.7-4.9-3.1-8.3-4.2c-3.4-1.1-7-2.2-10.8-3.4c-3.8-1.1-7.3-2.6-10.8-4.2c-3.4-1.8-6.2-4.2-8.3-7.2c-2.1-3-3.3-7.1-3.3-12
	c0-5,1.2-9.4,3.7-13c2.5-3.7,5.8-6.4,10.2-8.5c4.3-1.9,9.6-3,15.8-3c6.5,0,12.3,1.1,17.4,3.4c5.1,2.3,9.2,5.7,12.5,10.2l-10.2,10.2
	c-2.3-3-5.2-5.4-8.7-7c-3.4-1.6-7.3-2.5-11.7-2.5c-4.5,0-8,0.8-10.4,2.4c-2.4,1.6-3.6,3.8-3.6,6.5c0,2.7,1.1,4.9,3.2,6.4
	c2.1,1.5,4.9,2.8,8.3,3.9c3.4,1.1,7,2.1,10.8,3.3c3.7,1.1,7.2,2.6,10.7,4.4c3.4,1.9,6.2,4.3,8.3,7.5s3.3,7.2,3.3,12.4
	c0,7.8-2.7,14-8.3,18.6C53.6,355.6,46.2,357.9,36.9,357.9z"/>
<path class="st0" d="M123.5,357.9c-8.3,0-15.7-1.9-22.3-5.7c-6.6-3.8-11.8-8.9-15.7-15.5c-3.9-6.5-5.7-14-5.7-22.2
	c0-8.1,1.9-15.5,5.7-22c3.8-6.5,8.9-11.7,15.4-15.5c6.4-3.8,13.7-5.7,21.7-5.7c7.7,0,14.5,1.8,20.3,5.2c5.9,3.5,10.5,8.3,13.8,14.5
	c3.4,6.2,5,13.2,5,20.9c0,1.1-0.1,2.4-0.2,3.8c-0.1,1.3-0.3,2.9-0.7,4.6h-70v-13.1h61.7l-5.7,5c0-5.6-1-10.3-3-14.2
	c-1.9-3.9-4.8-6.9-8.4-9.1c-3.6-2.1-7.9-3.3-13.1-3.3c-5.4,0-10.1,1.1-14.1,3.5c-4.1,2.3-7.2,5.6-9.5,9.8c-2.2,4.2-3.4,9.2-3.4,14.8
	c0,5.8,1.1,11,3.5,15.3c2.3,4.3,5.7,7.8,10,10.2c4.3,2.4,9.3,3.6,14.8,3.6c4.7,0,8.9-0.8,12.8-2.5c3.9-1.6,7.2-4.1,10.1-7.3
	l10.1,10.3c-4,4.7-8.8,8.2-14.6,10.7C136.2,356.7,130.1,357.9,123.5,357.9z"/>
<path class="st0" d="M213.8,357.9c-7.7,0-14.6-1.9-20.6-5.7c-6.1-3.8-10.9-8.9-14.4-15.5c-3.5-6.5-5.3-13.9-5.3-22
	c0-8.1,1.8-15.5,5.3-22c3.5-6.5,8.4-11.7,14.4-15.5c6.1-3.9,12.9-5.7,20.6-5.7c6.2,0,11.8,1.3,16.8,4c5,2.7,9.1,6.3,12.1,10.9
	c3.1,4.6,4.8,9.9,5.1,16v25c-0.4,5.9-2,11.2-5,15.9c-3,4.7-7.1,8.3-12,11C225.7,356.6,220.1,357.9,213.8,357.9z M216.5,343
	c5.2,0,9.8-1.2,13.7-3.7c3.9-2.5,7-5.8,9.2-10.1s3.4-9.1,3.4-14.6c0-5.7-1.2-10.7-3.4-14.8c-2.3-4.2-5.4-7.5-9.3-10
	c-3.9-2.5-8.5-3.7-13.7-3.7c-5.2,0-9.8,1.2-13.8,3.7c-4,2.5-7.1,5.8-9.4,10.1c-2.3,4.2-3.4,9.1-3.4,14.6c0,5.6,1.1,10.5,3.4,14.8
	c2.3,4.2,5.4,7.6,9.4,10.1C206.6,341.8,211.2,343,216.5,343z M257.5,356.2h-15.9v-22.3l3-20.2l-3-20.1v-62h15.9V356.2z"/>
<path class="st0" d="M315.7,357.9c-7.6,0-14.5-1.9-20.6-5.7c-6.2-3.8-11-8.9-14.6-15.5c-3.5-6.5-5.3-13.9-5.3-22s1.8-15.5,5.3-22
	c3.5-6.5,8.4-11.7,14.5-15.5c6.1-3.9,13-5.7,20.7-5.7c6.3,0,11.9,1.3,16.9,4c4.9,2.7,8.9,6.3,11.9,10.9c3,4.6,4.7,9.9,5,16v25
	c-0.3,5.9-2,11.2-5,15.9c-3,4.7-6.9,8.3-11.8,11C327.8,356.6,322.1,357.9,315.7,357.9z M318.3,343c7.8,0,14.1-2.6,18.9-7.9
	c4.8-5.3,7.2-12.1,7.2-20.3c0-5.7-1.1-10.7-3.3-14.9c-2.1-4.2-5.2-7.6-9.2-10c-4-2.4-8.6-3.6-13.8-3.6c-5.2,0-9.9,1.2-13.9,3.7
	c-4,2.5-7.2,5.8-9.5,10.1c-2.3,4.2-3.4,9.1-3.4,14.6c0,5.6,1.2,10.5,3.4,14.8c2.3,4.2,5.5,7.6,9.5,10.1
	C308.4,341.8,313.1,343,318.3,343z M343.3,356.2v-22.3l3-20.2l-3-20.1v-20.2h15.9v82.9L343.3,356.2L343.3,356.2z"/>
<path class="st0" d="M390.1,256.5c-2.9,0-5.3-1-7.2-2.9c-1.8-1.9-2.8-4.3-2.8-7.2c0-2.8,1-5.1,2.8-7.1c1.9-1.9,4.2-2.9,7.2-2.9
	c2.9,0,5.3,1,7.2,2.9c1.9,1.9,2.8,4.2,2.8,7.1c0,2.9-1,5.3-2.8,7.2C395.4,255.5,393,256.5,390.1,256.5z M382.3,356.2v-82.9H398v82.9
	H382.3z"/>
<linearGradient id="SVGID_1_" gradientUnits="userSpaceOnUse" x1="201.788" y1="156.2429" x2="201.788" y2="359.8919" gradientTransform="matrix(1 0 0 -1 0 363.9838)">
	<stop  offset="0" style="stop-color:#66DDD7"/>
	<stop  offset="1" style="stop-color:#8A43FF"/>
</linearGradient>
<path class="st1" d="M270.8,208.3c-5.5-0.1-11-0.9-16.3-2.6c-4.3-1.3-7.8-4.3-9.7-8.1c-10.4-20.9-7.2-45.8,8.1-63.3
	c6.5-7.4,11.3-15.9,14-25.3c1.1-3.8,1.9-7.7,2.4-11.5c1.7-14.1-0.9-28.1-7.7-40.6c-8.6-16.1-23.1-27.8-40.6-33.1
	c-6.3-1.9-12.9-2.8-19.4-2.9c-6.6,0-13.2,1-19.4,2.9c-17.5,5.2-31.9,17-40.6,33.1c-6.7,12.5-9.4,26.6-7.7,40.6
	c0.5,3.9,1.3,7.8,2.4,11.5c2.8,9.4,7.6,17.9,14,25.3c15.3,17.5,18.6,42.3,8.2,63.2c-2,4-5.6,7-9.8,8.3c-5.2,1.6-10.7,2.5-16.2,2.6
	c1.6-1.1,3-2.4,4.4-3.7c17.7-16.6,17.9-40.5,0.5-59.3c-11.3-12.9-18.4-28.8-20.4-45.9c-2.2-17.5,1.1-35,9.6-50.6
	c11.1-20.1,29-34.7,50.8-41.2c7.8-2.4,15.9-3.6,24-3.6h0.5c8.1,0.1,16.2,1.2,24,3.6c21.8,6.5,39.7,21.2,50.5,41.2
	c8.4,15.6,11.7,33.1,9.6,50.6c-2.1,17.1-9.2,33-20.4,45.9c-17.3,18.7-17.1,42.6,0.6,59.2C267.7,206.1,269.2,207.3,270.8,208.3z
	 M213.9,154.4c0.7,10.1,4,19.8,9.5,28.1c-3-21,3.2-42.7,17.4-58.8c4.9-5.7,8.5-12.1,10.7-19.3c4-13.1,2.5-27.7-4-39.7
	c-6.6-12.2-17.6-21.2-30.9-25.2c-4.6-1.4-9.6-2.1-14.5-2.2h-0.5c-4.9,0-9.7,0.8-14.5,2.2c-13.3,4-24.3,12.9-30.9,25.2
	c-6.4,12-7.9,26.6-4,39.7c2.2,7.2,5.8,13.7,10.7,19.3c14.2,16.2,20.3,37.8,17.4,58.8c5.5-8.3,8.8-18,9.5-28.1
	c1-15.4-4.1-30.3-14.2-41.9c-9.7-11-11.5-27.1-4.5-39.9c4.4-8.2,11.9-14.3,20.9-17c3.2-0.9,6.5-1.5,9.9-1.5c3.3,0.1,6.6,0.6,9.8,1.5
	c9,2.6,16.5,8.7,20.9,17c6.9,12.9,5.1,28.9-4.5,39.9C217.9,124.1,212.9,139,213.9,154.4z M269.3,175.1c0.8,0.1,1.5,0.1,2.3,0.1
	c7.2,0,13.9-3,18.4-8.4c1.2-1.3,2.3-2.6,3.2-3.8c6.9-8.6,12.6-18.2,16.8-28.3c0.9-2.2,0.9-4.5-0.2-6.7c-0.9-2.2-2.9-3.9-5.2-4.5
	c-0.9-0.3-1.6-0.4-2.5-0.4c-3.4,0-6.4,2-7.8,5.1c-3.6,8.7-8.4,16.8-14.4,24.2c-0.6,0.8-1.2,1.5-1.9,2.4l0,0v0
	c-0.3,0.3-0.5,0.6-0.8,0.9C272.1,161.6,269.3,168.3,269.3,175.1z M277.2,193c4.4,4.3,10.4,6.6,16.8,6.6c5.6,0,11.1-1.9,15.4-5.3
	c2.1-1.7,4-3.6,5.7-5.6c1.5-1.7,2.8-3.3,4.1-4.8c3.6-4.4,7-9.2,10-14.1c1.3-2.1,1.7-4.4,1-6.8c-0.6-2.4-2.2-4.2-4.3-5.3
	c-1.1-0.7-2.5-0.9-3.8-0.9c-2.9,0-5.7,1.5-7.3,4.1c-2.7,4.4-5.7,8.5-8.9,12.5c-0.5,0.6-0.9,1.1-1.4,1.7v0c-0.7,0.8-1.4,1.7-2.2,2.6
	c-6.9,7.9-16.5,12.7-26.8,13.7C276.1,191.9,276.6,192.4,277.2,193z M132,175.2c-7.1,0-13.9-3-18.5-8.4c-1.1-1.3-2.2-2.6-3.2-3.8
	c-6.9-8.6-12.6-18.2-16.8-28.3c-0.9-2.2-0.9-4.5,0.2-6.7c1-2.2,2.9-3.8,5.2-4.5c0.9-0.3,1.6-0.4,2.5-0.4c3.4,0,6.4,2,7.8,5.1
	c3.6,8.7,8.5,16.8,14.4,24.2c0.8,1,1.7,2.1,2.7,3.2c5.3,5.9,8.1,12.7,8.1,19.4C133.5,175.2,132.8,175.2,132,175.2z M94.2,194.3
	c4.4,3.4,9.9,5.3,15.5,5.3c6.2,0,12.2-2.4,16.7-6.6l0,0c0.6-0.6,1.1-1.1,1.6-1.7c-10.3-1-19.9-5.9-26.8-13.7
	c-1.3-1.4-2.5-2.8-3.6-4.3c-3.2-4-6.2-8.2-8.9-12.5c-1.6-2.6-4.4-4.1-7.3-4.1c-1.3,0-2.6,0.4-3.8,0.9c-2.1,1.1-3.6,3-4.3,5.3
	c-0.6,2.4-0.3,4.7,1,6.8c3,4.8,6.4,9.7,10,14.1c1.2,1.5,2.6,3.1,4.1,4.8C90.3,190.7,92.2,192.6,94.2,194.3z"/>
</svg>
