<svg width="648" height="170" viewBox="0 0 648 170" fill="none" xmlns="http://www.w3.org/2000/svg">
<path d="M328.287 56.8653V43.8014H266.199V137H280.879V97.404H324.246V84.8788H280.879V56.8653H328.287ZM356.891 52.8249C356.891 47.9764 353.254 44.7441 348.136 44.7441C342.884 44.7441 339.382 47.9764 339.382 52.8249C339.382 57.5387 342.884 60.9057 348.136 60.9057C353.254 60.9057 356.891 57.5387 356.891 52.8249ZM341.268 70.7374V137H355.005V70.7374H341.268ZM384.845 137V97.5387C384.845 87.5724 390.906 82.3199 401.141 82.3199V70.7374C382.017 70.7374 370.973 80.165 370.973 96.3266V137H384.845ZM476.461 104.003C476.327 83.936 461.646 69.5253 441.175 69.5253C420.704 69.5253 405.754 83.936 405.754 103.869C405.754 123.801 420.704 138.212 441.175 138.212C457.471 138.212 471.613 127.707 475.384 113.027H461.377C458.818 120.973 450.737 126.899 441.31 126.899C429.862 126.899 421.242 119.222 419.492 108.178H476.057C476.327 106.832 476.461 105.35 476.461 104.003ZM441.31 80.8384C452.219 80.8384 460.838 87.7071 463.128 97.5387H419.896C422.32 87.7071 430.535 80.8384 441.31 80.8384ZM515.222 54.3064C516.703 54.3064 518.589 54.5758 520.34 55.2492V43.128C518.589 42.7239 516.569 42.5892 515.087 42.5892C502.427 42.5892 493.538 50.5354 493.538 61.8485V70.7374H483.976V82.3199H493.538V137H507.276V82.3199H520.34V70.7374H507.276V61.8485C507.276 57.2694 510.643 54.3064 515.222 54.3064ZM533.208 43.8014V137H546.945V43.8014H533.208ZM610.183 70.7374V106.697C610.183 117.337 603.584 124.34 593.348 124.34C583.382 124.34 576.917 117.337 576.917 106.697V70.7374H563.179V108.582C563.179 124.609 574.223 135.384 589.173 135.384C598.466 135.384 605.873 131.343 610.183 124.34V136.731C610.183 147.37 603.718 154.104 593.752 154.104C584.594 154.104 578.398 148.044 577.59 138.616L564.796 138.481C566.142 154.374 577.725 165.148 594.291 165.148C612.068 165.148 624.055 153.431 624.055 135.923V70.7374H610.183Z" fill="#090606"/>
<path d="M96.2854 13.9675L91.4331 5.56128" stroke="#5724B1" stroke-width="10.7388" stroke-miterlimit="10" stroke-linecap="round" stroke-linejoin="round"/>
<path d="M127.839 13.9675L132.691 5.56128" stroke="#5724B1" stroke-width="10.7388" stroke-miterlimit="10" stroke-linecap="round" stroke-linejoin="round"/>
<path fill-rule="evenodd" clip-rule="evenodd" d="M93.7 49.4473C95.629 41.1082 103.137 34.8942 112.075 34.8942C121.01 34.8942 128.516 41.103 130.449 49.4368C122.828 51.4843 116.333 56.256 112.071 62.6327C107.807 56.2656 101.314 51.5003 93.7 49.4473ZM82.9486 48.336C85.4751 34.624 97.5514 24.2106 112.075 24.2106C126.6 24.2106 138.676 34.624 141.202 48.336H218.718C221.638 48.336 224.025 50.6507 224.095 53.5504C223.526 53.5639 223.029 53.5756 222.598 53.5858C221.639 53.6067 220.516 53.6331 220.195 53.6411C219.874 53.6491 220.354 53.6387 222.598 53.5858C223.404 53.5682 224.095 53.5546 224.095 53.5592L224.095 53.5691L224.096 53.5925L224.097 53.6533C224.097 53.6999 224.097 53.7588 224.097 53.8296C224.097 53.9711 224.095 54.1602 224.088 54.3938C224.075 54.8606 224.043 55.5065 223.973 56.3058C223.831 57.9026 223.531 60.1242 222.9 62.7631C221.64 68.0379 219.041 75.0418 213.691 82.0347C208.623 88.6601 201.287 95.0244 190.763 99.9324C195.022 111.153 196.611 123.911 194.611 138.334C194.31 140.504 192.706 142.271 190.565 142.793L189.285 137.615C190.565 142.793 190.562 142.794 190.559 142.795L190.552 142.796L190.534 142.801L190.486 142.812C190.447 142.821 190.397 142.833 190.336 142.846C190.213 142.874 190.045 142.911 189.832 142.955C189.408 143.043 188.808 143.159 188.049 143.285C186.533 143.537 184.375 143.831 181.711 144.023C176.392 144.408 168.989 144.391 160.6 142.788C154.493 141.62 147.889 139.614 141.214 136.342C136.952 147.624 129.087 159.612 114.721 167.781C113.065 168.722 111.032 168.722 109.377 167.781C95.0178 159.617 87.1538 147.636 82.8894 136.359C76.2269 139.621 69.6365 141.622 63.5406 142.788C55.1535 144.391 47.7535 144.408 42.4363 144.023C39.7727 143.831 37.6161 143.537 36.1001 143.285C35.3416 143.159 34.742 143.043 34.3176 142.955C34.1054 142.911 33.9369 142.874 33.8142 142.846C33.7528 142.832 33.7029 142.821 33.6646 142.812L33.616 142.8L33.5983 142.796L33.5912 142.794C33.5881 142.794 33.5851 142.793 34.8659 137.615L33.5851 142.793C31.4454 142.271 29.8427 140.505 29.5407 138.337C27.5321 123.92 29.1152 111.166 33.3695 99.949C22.8266 95.0387 15.4804 88.6675 10.4061 82.0347C5.05631 75.0418 2.4577 68.0379 1.19701 62.7632C0.56628 60.1242 0.266509 57.9026 0.124852 56.3058C0.0539398 55.5065 0.022382 54.8606 0.00903162 54.3938C0.00235343 54.1602 0.000221399 53.9711 1.66588e-05 53.8296C-8.54974e-05 53.7588 0.000294062 53.6999 0.000829634 53.6533L0.00170972 53.5925L0.00216108 53.5691L0.00237651 53.5592C0.00247867 53.5547 0.00258017 53.5504 5.37939 53.6778L0.00257997 53.5504C0.0721945 50.6507 2.45896 48.336 5.37939 48.336H82.9486ZM37.8989 90.257C28.7871 85.999 22.8597 80.6545 18.9709 75.5712C14.71 70.0016 12.654 64.4428 11.6629 60.2956C11.557 59.8529 11.4635 59.4269 11.3809 59.0196H67.9164C58.1708 65.6091 49.4273 73.4532 42.6706 82.798C40.9396 85.1919 39.3443 87.6776 37.8989 90.257ZM48.0815 94.093C49.1128 92.3541 50.2239 90.6671 51.4077 89.0298C60.3289 76.6916 73.5668 66.9396 88.6073 59.2779C98.843 60.8767 106.697 69.7055 106.697 80.3641C106.697 83.3143 109.105 85.7059 112.076 85.7059C115.046 85.7059 117.454 83.3143 117.454 80.3641C117.454 69.6847 125.312 60.856 135.533 59.2725C150.577 66.9346 163.812 76.688 172.733 89.0292C173.914 90.6632 175.023 92.3469 176.052 94.0822C166.812 96.8425 155.21 98.5863 140.626 98.5863C139.104 98.5863 137.654 99.2266 136.634 100.348C135.616 101.468 135.122 102.964 135.275 104.465L135.276 104.472L135.28 104.517C135.285 104.57 135.292 104.66 135.302 104.785C135.32 105.036 135.346 105.426 135.369 105.942C135.414 106.974 135.447 108.502 135.392 110.406C135.318 112.923 135.09 116.068 134.538 119.578C128.236 114.641 122.116 108.019 116.664 99.1654C115.687 97.5787 113.949 96.611 112.077 96.6106C110.204 96.6102 108.466 97.5773 107.488 99.1635C102.02 108.036 95.8818 114.668 89.5642 119.608C89.009 116.087 88.7796 112.93 88.7058 110.406C88.6501 108.502 88.6834 106.974 88.7288 105.942C88.7515 105.426 88.777 105.036 88.7958 104.785C88.8052 104.66 88.8129 104.57 88.8176 104.517L88.8217 104.472L88.8226 104.463C88.9746 102.962 88.4809 101.468 87.4632 100.348C86.4435 99.2266 84.993 98.5863 83.4713 98.5863C68.9063 98.5863 57.3151 96.847 48.0815 94.093ZM43.392 103.83C40.164 112.395 38.7483 122.061 39.7508 133.023C40.734 133.149 41.8974 133.273 43.2167 133.368C47.8143 133.7 54.2422 133.685 61.5076 132.296C67.2195 131.205 73.4812 129.261 79.8124 125.926C78.5174 119.996 78.0694 114.673 77.9536 110.716C77.938 110.182 77.9284 109.672 77.9237 109.188C64.179 108.773 52.8005 106.816 43.392 103.83ZM92.3266 130.854C95.5238 140.184 101.386 149.905 112.049 156.879C122.721 149.899 128.583 140.167 131.779 130.831C124.916 126.124 118.192 119.853 112.074 111.549C105.941 119.867 99.2024 126.145 92.3266 130.854ZM144.289 125.906C150.633 129.253 156.909 131.202 162.633 132.296C169.9 133.685 176.331 133.7 180.931 133.368C182.25 133.273 183.414 133.149 184.398 133.023C185.394 122.056 183.974 112.386 180.743 103.818C171.327 106.81 159.937 108.772 146.174 109.188C146.169 109.672 146.159 110.182 146.144 110.716C146.028 114.669 145.581 119.984 144.289 125.906ZM186.232 90.2414C195.325 85.986 201.242 80.6483 205.127 75.5712C209.387 70.0016 211.443 64.4428 212.435 60.2956C212.54 59.8529 212.634 59.4269 212.716 59.0196H156.232C165.976 65.6094 174.716 73.4537 181.471 82.7987C183.198 85.1876 184.789 87.6678 186.232 90.2414Z" fill="url(#paint0_radial_9:498)"/>
<defs>
<radialGradient id="paint0_radial_9:498" cx="0" cy="0" r="1" gradientUnits="userSpaceOnUse" gradientTransform="translate(108.015 177.835) rotate(-90) scale(178.506 144.726)">
<stop stop-color="#33FDD8"/>
<stop offset="0.614614" stop-color="#7A4AFF"/>
<stop offset="1" stop-color="#45108A"/>
</radialGradient>
</defs>
</svg>
