<svg width="392" height="313" viewBox="0 0 392 313" fill="none" xmlns="http://www.w3.org/2000/svg">
<path d="M71.9192 199.865V186.801H9.83165V280H24.5118V240.404H67.8788V227.879H24.5118V199.865H71.9192ZM100.523 195.825C100.523 190.976 96.8866 187.744 91.7687 187.744C86.5162 187.744 83.0145 190.976 83.0145 195.825C83.0145 200.539 86.5162 203.906 91.7687 203.906C96.8866 203.906 100.523 200.539 100.523 195.825ZM84.9 213.737V280H98.6374V213.737H84.9ZM128.477 280V240.539C128.477 230.572 134.538 225.32 144.774 225.32V213.737C125.649 213.737 114.605 223.165 114.605 239.327V280H128.477ZM220.094 247.003C219.959 226.936 205.279 212.525 184.807 212.525C164.336 212.525 149.387 226.936 149.387 246.869C149.387 266.801 164.336 281.212 184.807 281.212C201.104 281.212 215.245 270.707 219.016 256.027H205.009C202.451 263.973 194.37 269.899 184.942 269.899C173.494 269.899 164.875 262.222 163.124 251.178H219.69C219.959 249.832 220.094 248.35 220.094 247.003ZM184.942 223.838C195.851 223.838 204.471 230.707 206.76 240.539H163.528C165.952 230.707 174.168 223.838 184.942 223.838ZM258.854 197.306C260.336 197.306 262.221 197.576 263.972 198.249V186.128C262.221 185.724 260.201 185.589 258.719 185.589C246.06 185.589 237.171 193.535 237.171 204.848V213.737H227.608V225.32H237.171V280H250.908V225.32H263.972V213.737H250.908V204.848C250.908 200.269 254.275 197.306 258.854 197.306ZM276.84 186.801V280H290.578V186.801H276.84ZM353.815 213.737V249.697C353.815 260.337 347.216 267.34 336.98 267.34C327.014 267.34 320.549 260.337 320.549 249.697V213.737H306.812V251.582C306.812 267.609 317.856 278.384 332.805 278.384C342.098 278.384 349.505 274.343 353.815 267.34V279.731C353.815 290.37 347.351 297.104 337.384 297.104C328.226 297.104 322.031 291.044 321.223 281.616L308.428 281.481C309.775 297.374 321.357 308.148 337.923 308.148C355.701 308.148 367.687 296.431 367.687 278.923V213.737H353.815Z" fill="#090606"/>
<path d="M162.285 14.4062L157.433 6" stroke="#5724B1" stroke-width="10.7388" stroke-miterlimit="10" stroke-linecap="round" stroke-linejoin="round"/>
<path d="M193.839 14.4062L198.691 6" stroke="#5724B1" stroke-width="10.7388" stroke-miterlimit="10" stroke-linecap="round" stroke-linejoin="round"/>
<path fill-rule="evenodd" clip-rule="evenodd" d="M159.7 49.886C161.629 41.5469 169.137 35.3329 178.075 35.3329C187.01 35.3329 194.516 41.5417 196.449 49.8755C188.828 51.923 182.333 56.6946 178.071 63.0714C173.807 56.7043 167.314 51.939 159.7 49.886ZM148.949 48.7746C151.475 35.0626 163.551 24.6492 178.075 24.6492C192.6 24.6492 204.676 35.0627 207.202 48.7746H284.718C287.638 48.7746 290.025 51.0893 290.095 53.9891C289.526 54.0026 289.029 54.0143 288.598 54.0245C287.639 54.0454 286.516 54.0718 286.195 54.0798C285.874 54.0878 286.354 54.0773 288.598 54.0245C289.404 54.0069 290.095 53.9933 290.095 53.9979L290.095 54.0078L290.096 54.0312L290.097 54.0919C290.097 54.1386 290.097 54.1975 290.097 54.2683C290.097 54.4098 290.095 54.5989 290.088 54.8324C290.075 55.2993 290.043 55.9451 289.973 56.7445C289.831 58.3413 289.531 60.5628 288.9 63.2018C287.64 68.4766 285.041 75.4804 279.691 82.4734C274.623 89.0988 267.287 95.4631 256.763 100.371C261.022 111.592 262.611 124.349 260.611 138.773C260.31 140.942 258.706 142.71 256.565 143.232L255.285 138.053C256.565 143.232 256.562 143.232 256.559 143.233L256.552 143.235L256.534 143.239L256.486 143.251C256.447 143.26 256.397 143.271 256.336 143.285C256.213 143.313 256.045 143.35 255.832 143.394C255.408 143.481 254.808 143.597 254.049 143.723C252.533 143.976 250.375 144.27 247.711 144.462C242.392 144.846 234.989 144.829 226.6 143.226C220.493 142.059 213.889 140.053 207.214 136.781C202.952 148.063 195.087 160.051 180.721 168.22C179.065 169.161 177.032 169.161 175.377 168.22C161.018 160.055 153.154 148.075 148.889 136.798C142.227 140.06 135.636 142.061 129.541 143.226C121.154 144.829 113.753 144.846 108.436 144.462C105.773 144.27 103.616 143.975 102.1 143.723C101.342 143.597 100.742 143.481 100.318 143.394C100.105 143.35 99.9369 143.313 99.8142 143.285C99.7528 143.271 99.7029 143.26 99.6646 143.251L99.616 143.239L99.5983 143.235L99.5912 143.233C99.5881 143.232 99.5851 143.232 100.866 138.053L99.5851 143.232C97.4454 142.709 95.8427 140.944 95.5407 138.776C93.5321 124.358 95.1152 111.605 99.3695 100.388C88.8266 95.4773 81.4804 89.1062 76.4061 82.4734C71.0563 75.4804 68.4577 68.4766 67.197 63.2018C66.5663 60.5628 66.2665 58.3413 66.1249 56.7445C66.0539 55.9451 66.0224 55.2993 66.009 54.8324C66.0024 54.5989 66.0002 54.4098 66 54.2683C65.9999 54.1975 66.0003 54.1386 66.0008 54.0919L66.0017 54.0312L66.0022 54.0078L66.0024 53.9979C66.0025 53.9934 66.0026 53.9891 71.3794 54.1164L66.0026 53.9891C66.0722 51.0893 68.459 48.7746 71.3794 48.7746H148.949ZM103.899 90.6957C94.7871 86.4377 88.8597 81.0932 84.9709 76.0098C80.71 70.4402 78.654 64.8815 77.6629 60.7343C77.557 60.2916 77.4635 59.8656 77.3809 59.4582H133.916C124.171 66.0478 115.427 73.8919 108.671 83.2367C106.94 85.6306 105.344 88.1162 103.899 90.6957ZM114.082 94.5316C115.113 92.7927 116.224 91.1058 117.408 89.4685C126.329 77.1302 139.567 67.3782 154.607 59.7165C164.843 61.3154 172.697 70.1442 172.697 80.8028C172.697 83.753 175.105 86.1446 178.076 86.1446C181.046 86.1446 183.454 83.753 183.454 80.8028C183.454 70.1233 191.312 61.2947 201.533 59.7112C216.577 67.3733 229.812 77.1267 238.733 89.4678C239.914 91.1019 241.023 92.7855 242.052 94.5209C232.812 97.2811 221.21 99.025 206.626 99.025C205.104 99.025 203.654 99.6652 202.634 100.787C201.616 101.907 201.122 103.402 201.275 104.904L201.276 104.911L201.28 104.956C201.285 105.009 201.292 105.099 201.302 105.224C201.32 105.474 201.346 105.865 201.369 106.38C201.414 107.412 201.447 108.94 201.392 110.845C201.318 113.361 201.09 116.507 200.538 120.017C194.236 115.08 188.116 108.458 182.664 99.6041C181.687 98.0174 179.949 97.0496 178.077 97.0493C176.204 97.0489 174.466 98.0159 173.488 99.6022C168.02 108.475 161.882 115.106 155.564 120.047C155.009 116.525 154.78 113.368 154.706 110.845C154.65 108.94 154.683 107.412 154.729 106.38C154.751 105.865 154.777 105.474 154.796 105.224C154.805 105.099 154.813 105.009 154.818 104.956L154.822 104.911L154.823 104.901C154.975 103.401 154.481 101.906 153.463 100.787C152.443 99.6652 150.993 99.025 149.471 99.025C134.906 99.025 123.315 97.2856 114.082 94.5316ZM109.392 104.268C106.164 112.834 104.748 122.5 105.751 133.461C106.734 133.588 107.897 133.711 109.217 133.807C113.814 134.139 120.242 134.124 127.508 132.735C133.22 131.643 139.481 129.7 145.812 126.365C144.517 120.435 144.069 115.112 143.954 111.155C143.938 110.621 143.928 110.111 143.924 109.626C130.179 109.212 118.8 107.254 109.392 104.268ZM158.327 131.293C161.524 140.622 167.386 150.343 178.049 157.317C188.721 150.338 194.583 140.606 197.779 131.269C190.916 126.562 184.192 120.292 178.074 111.988C171.941 120.305 165.202 126.583 158.327 131.293ZM210.289 126.345C216.633 129.692 222.909 131.641 228.633 132.735C235.9 134.124 242.331 134.139 246.931 133.807C248.25 133.711 249.414 133.588 250.398 133.461C251.394 122.494 249.974 112.825 246.743 104.257C237.327 107.249 225.937 109.211 212.174 109.626C212.169 110.111 212.159 110.621 212.144 111.155C212.028 115.108 211.581 120.423 210.289 126.345ZM252.232 90.68C261.325 86.4246 267.242 81.0869 271.127 76.0098C275.387 70.4402 277.443 64.8815 278.435 60.7343C278.54 60.2916 278.634 59.8656 278.716 59.4582H222.232C231.976 66.0481 240.716 73.8924 247.471 83.2373C249.198 85.6262 250.789 88.1064 252.232 90.68Z" fill="url(#paint0_radial_0:5)"/>
<defs>
<radialGradient id="paint0_radial_0:5" cx="0" cy="0" r="1" gradientUnits="userSpaceOnUse" gradientTransform="translate(174.015 178.274) rotate(-90) scale(178.506 144.726)">
<stop stop-color="#33FDD8"/>
<stop offset="0.614614" stop-color="#7A4AFF"/>
<stop offset="1" stop-color="#45108A"/>
</radialGradient>
</defs>
</svg>
