<svg width="1376" height="1376" viewBox="0 0 1376 1376" fill="none" xmlns="http://www.w3.org/2000/svg">
<path d="M913.104 407H575.611V519.462H462.87C423.134 519.504 385.039 535.29 356.942 563.356C328.844 591.423 313.041 629.477 313 669.17L313 819.085C313.041 858.779 328.844 896.837 356.94 924.907C385.036 952.978 423.132 968.77 462.87 968.818H875.402V818.877H913.104C933.053 818.904 952.176 826.832 966.282 840.923C980.387 855.013 988.324 874.116 988.352 894.042V969H1063V556.733C1062.95 517.036 1047.14 478.979 1019.04 450.909C990.943 422.839 952.844 407.048 913.104 407ZM800.754 894.251H462.87C442.924 894.223 423.803 886.294 409.701 872.203C395.6 858.112 387.669 839.009 387.648 819.085V669.17C387.669 649.248 395.601 630.147 409.703 616.06C423.805 601.974 442.926 594.05 462.87 594.03H575.611V669.17C575.659 708.864 591.468 746.918 619.569 774.984C647.67 803.05 685.769 818.835 725.507 818.877H800.754V894.251ZM988.352 764.584C965.514 751.278 939.543 744.281 913.104 744.309H725.507C705.563 744.289 686.442 736.366 672.34 722.279C658.237 708.192 650.306 689.091 650.285 669.17V481.593H913.104C933.05 481.614 952.174 489.536 966.28 503.622C980.387 517.709 988.324 536.809 988.352 556.733V764.584Z" fill="#35D7B8"/>
<path d="M888.326 687.909C914.228 687.909 935.226 666.934 935.226 641.06C935.226 615.187 914.228 594.212 888.326 594.212C862.424 594.212 841.427 615.187 841.427 641.06C841.427 666.934 862.424 687.909 888.326 687.909Z" fill="#35D7B8"/>
</svg>
