<?xml version="1.0" encoding="UTF-8"?>
<svg id="Layer_1" data-name="Layer 1" xmlns="http://www.w3.org/2000/svg" version="1.1" viewBox="0 0 365.3 54.2">
  <defs>
    <style>
      .cls-1 {
        fill: #151515;
        stroke-width: 0px;
      }
    </style>
  </defs>
  <g id="Layer_2" data-name="Layer 2">
    <g id="Layer_1-2" data-name="Layer 1-2">
      <path class="cls-1" d="M45,48.6L26,3.2c-.4-1.5-1.8-2.5-3.4-2.4-1.5,0-2.8.9-3.3,2.4L.3,48.5c-.2.5-.3,1-.3,1.5,0,1.8,1.3,3.4,3.2,3.5,0,0,.2,0,.3,0,.7,0,1.3-.1,1.9-.5.6-.4,1-1,1.3-1.6L22.8,12.1l15.8,39.3c.2.7.7,1.3,1.3,1.6.6.4,1.3.6,2,.5.9,0,1.8-.3,2.5-1,.7-.6,1-1.5,1-2.4,0-.5-.1-1-.3-1.5Z"/>
      <path class="cls-1" d="M80.2,26.8l21.6-21.1c.7-.6,1-1.5,1-2.4,0-.9-.3-1.8-1-2.4-.6-.7-1.5-1-2.4-1-.9,0-1.8.3-2.4,1l-23.1,22.5V4.2c0-.9-.3-1.8-1-2.4-1.3-1.3-3.4-1.3-4.7,0-.7.7-1,1.5-1,2.5v46.1c0,.9.3,1.7,1,2.4.6.7,1.5,1,2.4,1,1.8,0,3.3-1.5,3.4-3.4v-20.3l23.1,22.7c1.2,1.3,3.3,1.4,4.6.1,0,0,.1-.1.2-.2.7-.6,1-1.5,1-2.4,0-.9-.3-1.8-1-2.4l-21.7-21.1Z"/>
      <path class="cls-1" d="M165.6,48.6L146.6,3.2c-.4-1.5-1.8-2.4-3.4-2.4-1.5,0-2.8.9-3.3,2.4l-19,45.3c-.2.5-.3,1-.3,1.5,0,1.8,1.3,3.4,3.2,3.5,0,0,.2,0,.3,0,.7,0,1.3-.2,1.9-.5.6-.4,1-1,1.3-1.6l16.1-39.3,15.8,39.3c.2.7.7,1.2,1.3,1.6.6.4,1.3.6,2,.5.9,0,1.8-.3,2.5-1,.7-.6,1-1.5,1-2.4,0-.5-.2-1-.4-1.5Z"/>
      <path class="cls-1" d="M239.5,1.8c-1.4-1.4-3.6-1.4-5,0-.2.3-.5.5-.6.9l-19.5,40.2L194.4,2.7c-.6-1.2-1.8-1.9-3.1-1.9-.9,0-1.8.3-2.5,1-.7.7-1,1.6-1,2.5v45.7c0,.9.3,1.8,1,2.5.7.7,1.6,1,2.5,1,.9,0,1.8-.3,2.5-1,.7-.7,1-1.6,1-2.5V17.1l16.1,32.3c.5,1.3,1.8,2.1,3.2,2.1,1.2,0,2.4-.7,3-1.8l16.3-33.3v33.5c0,.9.3,1.8,1,2.5,1.4,1.3,3.6,1.3,4.9,0,.7-.6,1.1-1.6,1.1-2.5V4.3c0-.9-.3-1.8-1-2.5Z"/>
      <path class="cls-1" d="M307.5,48.6l-19-45.4c-.4-1.5-1.8-2.4-3.4-2.4-1.5,0-2.8.9-3.3,2.4l-19,45.3c-.2.5-.3,1-.3,1.5,0,1.8,1.3,3.4,3.2,3.5,0,0,.2,0,.3,0,.7,0,1.3-.2,1.9-.5.6-.4,1.1-1,1.4-1.6l16.1-39.3,15.8,39.3c.2.7.7,1.3,1.3,1.6.6.4,1.3.6,2,.5.9,0,1.8-.3,2.5-1,.7-.6,1-1.5,1-2.4,0-.5-.2-1-.4-1.5Z"/>
      <path class="cls-1" d="M357.1,2.6c-3-1.6-6.4-2.5-9.8-2.4-3.3,0-6.6.5-9.6,1.7-2.7.9-5,2.6-6.8,4.8-1.6,2.1-2.5,4.7-2.4,7.4,0,4,1.7,7.8,4.8,10.3,3.2,2.7,7.6,4.3,13.2,4.9,4,.4,7,1.5,9,3.4,1.9,1.6,3,4,3,6.5,0,2.6-1.3,5-3.5,6.4-2.6,1.6-5.5,2.4-8.6,2.3-2.7,0-5.5-.6-7.9-1.8-2.1-.9-3.8-2.5-4.8-4.5-.7-1.4-2-2.3-3.5-2.4-.3,0-.5,0-.7,0-.8.1-1.5.5-2,1.1-.5.5-.8,1.1-.7,1.8,0,.5.1.9.3,1.3,1.5,3.4,4.1,6.1,7.4,7.8,3.7,2,7.8,3.1,12,3,3.2,0,6.3-.5,9.3-1.7,2.8-1.1,5.2-2.9,7-5.2,1.8-2.4,2.7-5.4,2.6-8.4.2-4.1-1.5-8-4.5-10.7-3-2.7-7.2-4.4-12.6-4.9-4.9-.5-8.2-1.5-10.1-3.1-1.8-1.4-2.9-3.6-2.8-5.9,0-2.4,1.1-4.6,3.2-5.7,2.5-1.5,5.4-2.1,8.3-2,2.4,0,4.8.5,6.9,1.6,1.9,1.1,3.5,2.7,4.6,4.6.3.6.8,1.1,1.4,1.4.6.3,1.2.5,1.9.5.6,0,1.2-.1,1.8-.5.8-.5,1.4-1.4,1.4-2.4,0-.9-.3-1.7-.8-2.4-1.7-2.8-4-5.1-6.8-6.8Z"/>
    </g>
  </g>
</svg>