<?xml version="1.0" encoding="utf-8"?>
<svg viewBox="-1321.214 -1182.187 5661.785 1071.391" xmlns="http://www.w3.org/2000/svg">
  <clipPath id="a">
    <path d="m385 438h11230v2125h-11230z"/>
  </clipPath>
  <g clip-path="url(#a)" fill="#009fda" transform="matrix(0.504184, 0, 0, 0.504184, -1515.325073, -1403.019409)" style="">
    <path d="m3623.77 1444.49 23.25 7.75c7.75 2.58 14.76 4.73 20.74 6.5 68.47 22.91 135.44 50.04 200.55 81.23 57.12 29.3 107.43 70.31 147.63 120.38 43.11 51.84 64.68 117 64.73 195.47 0 126.88-44.43 219.24-133.3 277.08-88.87 57.85-198.41 86.75-328.62 86.7-107.03 0-200.21-18.56-279.53-55.68-78.31-35.88-141.59-98.07-178.85-175.76l182.47-91.87c22.27 46.47 58.36 84.91 103.34 110.04 47.43 26.73 104.81 40.1 172.13 40.1 75.88 0 136.67-13.81 182.39-41.43 44.88-27.62 67.32-76.85 67.32-147.7 0-43.13-12.08-78.08-36.24-104.86-22.13-26.17-49.89-46.97-81.2-60.86-30.16-13.83-75.9-31.53-137.22-53.09-62.23-21.37-123.13-46.43-182.39-75.03-56.62-28.35-106.2-69-145.12-118.97-43.99-52.63-65.99-119.52-65.99-200.65 0-113.97 42.72-196.39 128.14-247.248 85.38-50.069 188.45-75.104 309.21-75.104 91.48 0 172.67 18.561 243.58 55.682 70.91 37.12 124.77 94.95 161.58 173.47l-177.15 94.45c-43.21-99.89-119.16-149.84-227.87-149.84-149.25 0-223.87 49.95-223.87 149.84 0 50.96 17.67 91.97 53 123.04 40.94 33.3 87.41 59.15 137.29 76.36zm1168.39-169.86c108.65 0 189.3 31.07 241.96 93.2 52.65 62.97 78.95 166.53 78.9 310.68v521.67h-203.28v-445.31c0-75.13-3.89-133.81-11.66-176.05-7.78-42.24-23.57-74.52-47.39-96.82-24.11-22.45-60.35-33.65-108.73-33.6-58.6 0-108.21 15.53-148.8 46.6-37.66 26.81-68.73 61.83-90.87 102.43v603.27h-201.8v-1450.098h201.8v630.448c36.02-34.6 78.72-61.46 125.49-78.94 52.74-18.76 108.41-27.96 164.38-27.18zm1130.89 753.26h245.87v172.14h-449.01v-733.54h-302.63v-171.84h505.92zm1041.57-755.4c118.11 0 207.39 38.82 267.87 116.46 60.63 76.71 90.94 196.61 90.94 359.72 0 161.43-32.35 280.55-97.06 357.35-65.55 75.92-158.7 113.88-279.46 113.88-105.26 0-187.22-36.24-245.87-108.71v451.81h-203.5v-1268.35h148.8l50.49 119.04c31.28-41.81 70.92-76.65 116.4-102.28 46.19-26.01 98.4-39.43 151.39-38.92zm-64.66 773.94c75.88 0 131.51-22.43 166.9-67.28 35.38-44.85 53.07-121.68 53.07-230.48 0-110.38-15.11-188.46-45.32-234.25-30.17-44.9-82.35-67.35-156.56-67.35-49.17-1.15-97.2 14.88-135.82 45.34-36.34 27.19-64.44 63.93-81.19 106.12v321.03c13.32 36.73 37.76 68.4 69.9 90.61 33.41 24.22 76.42 36.31 129.02 36.26zm1306.87-751.78h230.29l-311.86 906.12c-42.22 112.25-93.89 198.56-155.01 258.92-61.26 59.62-136.3 89.4-225.13 89.35-26.07-.02-52.08-2.61-77.65-7.75-25-6.06-42.22-10.81-51.67-14.25l63.41-161.81c.81 0 6.86 1.7 18.08 5.17 10.58 2.6 21.44 3.89 32.33 3.84 45.77 0 83.29-12.95 112.57-38.84 28.49-25.85 57.82-73.31 87.98-142.38l-327.65-898.37h230.22l187.63 639.45zm1353.14 816.54-130.73 125.55-113.82-112.62c-79.32 64-175.08 96-287.28 96-129.37 0-225.1-24.15-287.2-72.45-61.27-48.34-91.9-123-91.9-223.98 0-101.81 33.63-176.47 100.9-223.98 66.43-47.41 171.25-71.14 314.45-71.19h183.72v-48.08c0-48.35-14.22-82.81-42.67-103.39-29.52-21.56-76.54-32.34-141.05-32.34-58.71 0-106.15 6.47-142.32 19.42-34.68 11.34-65.86 31.4-90.56 58.27l-129.4-126.88c37.06-37.17 88.38-66.95 153.98-89.35 64.66-22.45 138.84-33.68 222.54-33.68 115.59 0 206.63 22.89 273.11 68.68 66.33 44.85 99.53 109.13 99.57 192.82v468.65zm-710.38-187.72c0 45.69 15.11 78.06 45.32 97.11 30.17 19.69 84.49 29.54 162.98 29.54 36.82.22 73.31-6.83 107.4-20.75 30.69-11.11 58.85-28.26 82.82-50.44v-190.09h-122.9c-79.33 0-138.38 4.31-177.15 12.93-38.78 8.61-64.64 22-77.58 40.17-13.68 18.12-20.55 45.29-20.59 81.53zm1609.61-471.23c-58.6 0-108.2 13.39-148.8 40.17-41.4 25.85-71.2 56.05-89.2 90.62v445.3h285.9v172.15h-711.67v-172.15h221.47v-561.84h-221.47v-171.84h371.37l35 110.03c32.3-41.98 74.5-75.34 122.9-97.11 49.2-23.34 106.1-34.98 170.8-34.93 53.7-.9 106.8 11.07 155 34.93l-59.5 173.47c-6.1-6.05-21.1-12.53-45.3-19.42-28.4-6.62-57.5-9.67-86.7-9.08zm952.2-701.564h203.2v1449.804h-159.2l-34.9-103.39c-64 81.97-147.2 122.96-249.8 122.96-122.4 0-216.9-38.82-283.4-116.46-67.2-77.69-100.9-196.81-100.9-357.36 0-162.47 30.7-281.56 91.9-357.28 62.1-75.92 153.5-113.87 274.3-113.87 49.9-.65 99.3 9.42 144.9 29.54 43.3 18.68 82.1 46.37 113.9 81.23zm-200.1 1295.754c46.2.99 91.3-14.74 126.8-44.31 34.1-27.79 59.6-64.55 73.8-106.12v-288.38c-19.1-43.44-47.9-81.95-84.1-112.62-37.7-31.32-85.6-47.88-134.6-46.6-76.7 0-129.8 22.42-159.1 67.28-29.5 45.68-44.3 122.49-44.3 230.4 0 104.43 17.2 180.74 51.7 228.94 35.6 47.65 92.2 71.46 169.8 71.41z" style="fill: rgb(0, 0, 0);"/>
    <path d="m2162.12 989.429-170.21-551.429-145.41 551.429h-155.52l-23.11-34.93h-1098.337l-184.533 195.031h1381.41v160.48h80.09v727.85h-52.78l-118.84 188.91h712.67l-118.84-188.91h-102.16v-727.85h80.02v-160.48h79.71v159.89h240.04v-319.991zm-1484.746 89.131h-129.985l53.145-53.17h129.911zm223.949 0h-129.838l53.22-53.17h129.689zm224.167 0h-129.834l53.224-53.17h129.76zm223.95 0h-129.84l53.22-53.17h129.77zm96.92 0 53.22-53.17h130.2l35.21 53.17zm550.05-424.552 40.45 131.081-99.94 94.305zm-149.91 575.502v-159.88h240.33v159.88zm240.19 92.31-160.25 136.03v-136.03zm-9.38 716.34h-150.87v-25.92l160.03-150.8zm9.38-287.35-160.03 150.73v-121.63l160.03-150.65zm0-221.55-160.03 150.66v-121.63l160.03-150.73v121.33zm-159.81-539.092 134.27-126.651 39.04 126.651z" style="fill: rgb(0, 0, 0);"/>
    <path d="m1594.72 1766.25h-1042.165v459.63h1042.165zm-738.129 308.68h-202.248v-214.16h201.953zm319.609 0h-202.246v-214.16h201.956zm319.54 0h-202.25v-214.16h201.95z" style="fill: rgb(0, 0, 0);"/>
    <path d="m1593.1 1461.84h-299.61v73.55h299.61z" style="fill: rgb(0, 0, 0);"/>
    <path d="m1293.49 1329.13h218.34 81.34v72.23h-299.68z" style="fill: rgb(0, 0, 0);"/>
    <path d="m1511.83 1672.9h-218.34v-75.1h299.68v75.1z" style="fill: rgb(0, 0, 0);"/>
    <path d="m852.162 1597.8h-299.607v75.03h299.607z" style="fill: rgb(0, 0, 0);"/>
    <path d="m1222.63 1597.8h-299.607v75.03h299.607z" style="fill: rgb(0, 0, 0);"/>
    <path d="m1222.63 1461.84h-299.607v75.03h299.607z" style="fill: rgb(0, 0, 0);"/>
    <path d="m5818.24 1095.25c-21.36.52-42.6-3.35-62.4-11.37-19.8-8.01-37.76-20-52.75-35.22-15.17-14.5-27.15-32-35.18-51.394-8.02-19.393-11.9-40.248-11.4-61.23-.43-21.18 3.48-42.225 11.49-61.836 8.01-19.61 19.95-37.371 35.09-52.186 15.19-14.872 33.2-26.542 52.98-34.318s40.92-11.5 62.17-10.951c21.03-.569 41.96 3.154 61.51 10.94s37.31 19.473 52.2 34.349 26.6 32.629 34.41 52.178 11.56 40.484 11.02 61.529c.36 21.022-3.51 41.901-11.38 61.396-7.87 19.493-19.57 37.213-34.42 52.093-14.84 14.88-32.53 26.62-52 34.53-19.47 7.9-40.33 11.81-61.34 11.49z" style="fill: rgb(0, 0, 0);"/>
  </g>
</svg>