<svg width="1700" height="364" viewBox="0 0 1700 364" fill="none" xmlns="http://www.w3.org/2000/svg">
<path d="M117.779 233.199L86.4886 108.367V243.635C86.4886 251.161 84.7891 256.781 81.4902 260.494C78.1912 264.207 73.7926 266.113 68.1943 266.113C62.896 266.113 58.4973 264.307 55.0984 260.594C51.6995 256.881 50 251.262 50 243.736V88.5989C50 80.0693 52.1993 74.2492 56.6979 71.3391C61.0965 68.3287 67.0947 66.8235 74.6923 66.8235H86.9884C94.3861 66.8235 99.6845 67.5259 102.983 68.8304C106.282 70.1349 108.782 72.5433 110.381 76.0554C111.981 79.5676 113.78 85.187 115.879 93.0141L144.271 200.285L172.562 93.0141C174.561 85.187 176.46 79.5676 178.06 76.0554C179.659 72.5433 182.159 70.1349 185.458 68.8304C188.757 67.5259 194.155 66.8235 201.453 66.8235H213.749C221.246 66.8235 227.245 68.3287 231.743 71.3391C236.142 74.3495 238.441 80.0693 238.441 88.5989V243.635C238.441 251.161 236.742 256.781 233.443 260.494C230.144 264.207 225.645 266.113 220.047 266.113C214.848 266.113 210.55 264.207 207.151 260.494C203.752 256.781 202.052 251.161 202.052 243.635V108.367L170.762 233.199C168.763 241.327 167.063 247.248 165.764 251.061C164.464 254.874 162.065 258.286 158.666 261.397C155.167 264.508 150.369 266.113 144.271 266.113C139.672 266.113 135.773 265.11 132.574 263.103C129.375 261.096 126.876 258.587 125.077 255.376C123.277 252.265 121.878 248.853 120.878 245.04C119.878 241.227 118.779 237.314 117.779 233.199Z" fill="#1C2554"/>
<path d="M1412.27 166.769C1412.27 152.42 1409.98 139.977 1405.38 129.44C1400.78 118.904 1394.18 110.976 1385.58 105.558C1376.99 100.139 1367.19 97.4295 1356.09 97.4295C1348.19 97.4295 1340.9 98.9347 1334.2 101.945C1327.5 104.956 1321.7 109.27 1316.9 114.99C1312.11 120.71 1308.21 127.935 1305.41 136.866C1302.61 145.697 1301.21 155.731 1301.21 166.769C1301.21 177.908 1302.61 187.943 1305.41 196.974C1308.21 206.005 1312.11 213.431 1317.3 219.351C1322.4 225.272 1328.3 229.687 1334.9 232.698C1341.5 235.608 1348.79 237.113 1356.69 237.113C1366.79 237.113 1376.09 234.604 1384.58 229.486C1393.08 224.369 1399.78 216.542 1404.78 206.005C1409.78 195.368 1412.27 182.323 1412.27 166.769ZM1356.09 66.0208C1376.29 66.0208 1393.68 70.135 1408.18 78.3635C1422.67 86.5919 1433.67 98.3326 1441.17 113.485C1448.66 128.637 1452.36 146.499 1452.36 166.97C1452.36 182.123 1450.36 195.87 1446.26 208.313C1442.17 220.656 1436.07 231.393 1427.87 240.525C1419.67 249.656 1409.68 256.58 1397.78 261.397C1385.88 266.214 1372.29 268.622 1356.89 268.622C1341.6 268.622 1328 266.113 1315.9 261.196C1303.81 256.279 1293.71 249.255 1285.71 240.324C1277.62 231.293 1271.52 220.455 1267.42 207.811C1263.32 195.168 1261.22 181.52 1261.22 166.769C1261.22 151.717 1263.42 137.869 1267.72 125.326C1272.02 112.783 1278.22 102.045 1286.41 93.2149C1294.61 84.3843 1304.51 77.661 1316.2 72.9447C1327.8 68.3287 1341.2 66.0208 1356.09 66.0208Z" fill="#1C2554"/>
<path d="M1537.63 89.8031L1613.61 205.303V88.7996C1613.61 81.2735 1615.21 75.5537 1618.51 71.7405C1621.71 67.9274 1626.11 66.0208 1631.61 66.0208C1637.3 66.0208 1641.8 67.9274 1645.1 71.7405C1648.4 75.5537 1650 81.1732 1650 88.7996V242.933C1650 260.092 1642.9 268.722 1628.71 268.722C1625.11 268.722 1621.91 268.221 1619.11 267.217C1616.31 266.214 1613.61 264.608 1611.11 262.3C1608.61 260.092 1606.31 257.483 1604.21 254.473C1602.11 251.463 1599.92 248.452 1597.82 245.341L1523.64 131.246V246.044C1523.64 253.57 1521.94 259.189 1518.44 263.002C1514.94 266.816 1510.54 268.722 1505.14 268.722C1499.55 268.722 1495.05 266.816 1491.65 262.902C1488.25 258.989 1486.55 253.369 1486.55 246.044V94.8204C1486.55 88.3982 1487.25 83.3808 1488.65 79.7683C1490.35 75.7544 1493.15 72.443 1497.05 69.9343C1500.95 67.4256 1505.14 66.1211 1509.74 66.1211C1513.34 66.1211 1516.34 66.7232 1518.84 67.827C1521.34 69.0312 1523.64 70.5364 1525.54 72.5433C1527.44 74.5503 1529.44 77.059 1531.44 80.1697C1533.44 83.1801 1535.54 86.4916 1537.63 89.8031Z" fill="#1C2554"/>
<path d="M733.5 141.081L762.8 223.566L794.4 137.468C796.9 130.544 799.3 125.627 801.7 122.717C804.1 119.807 807.7 118.402 812.6 118.402C817.2 118.402 821.1 119.907 824.3 123.018C827.5 126.129 829.1 129.741 829.1 133.755C829.1 135.361 828.8 137.167 828.2 139.375C827.6 141.482 827 143.489 826.2 145.396C825.4 147.302 824.6 149.409 823.6 151.818L789 238.317C788 240.826 786.8 243.937 785.2 247.75C783.7 251.563 781.9 254.874 780 257.483C778.1 260.193 775.8 262.3 773 263.805C770.2 265.311 766.8 266.113 762.9 266.113C757.8 266.113 753.7 264.909 750.6 262.601C747.5 260.293 745.3 257.684 743.8 254.874C742.3 252.065 739.9 246.546 736.4 238.317L701.9 152.721C701.1 150.614 700.3 148.506 699.4 146.299C698.6 144.191 697.9 141.984 697.3 139.776C696.7 137.568 696.4 135.662 696.4 134.056C696.4 131.548 697.2 129.139 698.7 126.631C700.2 124.222 702.3 122.215 704.9 120.61C707.6 119.105 710.4 118.302 713.5 118.302C719.5 118.302 723.6 120.008 725.9 123.52C728.3 127.032 730.8 132.852 733.5 141.081Z" fill="#1C2554"/>
<path d="M873.4 101.544C868.4 101.544 864 100.038 860.5 96.9277C856.9 93.817 855.1 89.4017 855.1 83.7822C855.1 78.6645 856.9 74.4499 860.6 71.0381C864.3 67.7267 868.5 66.0208 873.4 66.0208C878.1 66.0208 882.2 67.526 885.9 70.5364C889.5 73.5468 891.3 77.9621 891.3 83.6819C891.3 89.3013 889.5 93.6163 886 96.8274C882.5 99.9381 878.3 101.544 873.4 101.544ZM891.4 139.074V244.037C891.4 251.362 889.7 256.781 886.2 260.494C882.8 264.207 878.4 266.113 873.1 266.113C867.8 266.113 863.5 264.207 860.2 260.393C856.9 256.58 855.2 251.162 855.2 244.037V140.077C855.2 132.852 856.9 127.433 860.2 123.821C863.5 120.208 867.8 118.402 873.1 118.402C878.4 118.402 882.8 120.208 886.2 123.821C889.6 127.534 891.4 132.551 891.4 139.074Z" fill="#1C2554"/>
<path d="M961.6 138.572V142.987C968 134.558 974.9 128.337 982.5 124.423C990.1 120.51 998.7 118.503 1008.6 118.503C1018.1 118.503 1026.7 120.61 1034.2 124.724C1041.7 128.939 1047.3 134.759 1051 142.385C1053.4 146.801 1054.9 151.617 1055.6 156.735C1056.3 161.853 1056.7 168.476 1056.7 176.403V244.037C1056.7 251.362 1055 256.781 1051.7 260.494C1048.4 264.207 1044.1 266.114 1038.8 266.114C1033.4 266.114 1029 264.207 1025.7 260.394C1022.3 256.581 1020.7 251.162 1020.7 244.037V183.528C1020.7 171.586 1019 162.354 1015.7 156.033C1012.4 149.711 1005.8 146.5 995.9 146.5C989.4 146.5 983.6 148.406 978.3 152.32C973 156.133 969.1 161.451 966.6 168.175C964.8 173.593 963.9 183.728 963.9 198.479V244.037C963.9 251.362 962.2 256.882 958.8 260.594C955.4 264.307 951 266.114 945.6 266.114C940.4 266.114 936.1 264.207 932.7 260.394C929.3 256.581 927.7 251.162 927.7 244.037V139.074C927.7 132.15 929.2 127.032 932.2 123.52C935.2 120.108 939.3 118.402 944.5 118.402C947.7 118.402 950.6 119.205 953.1 120.71C955.7 122.216 957.7 124.524 959.3 127.534C960.9 130.444 961.6 134.157 961.6 138.572Z" fill="#1C2554"/>
<path d="M1226 144.994V250.56C1226 262.601 1224.7 273.038 1222.2 281.667C1219.6 290.398 1215.5 297.522 1209.9 303.242C1204.2 308.962 1196.8 313.176 1187.7 315.886C1178.5 318.595 1167.2 320 1153.5 320C1141 320 1129.9 318.294 1120.1 314.782C1110.3 311.27 1102.7 306.754 1097.4 301.235C1092.1 295.716 1089.4 289.996 1089.4 284.176C1089.4 279.761 1090.9 276.148 1093.9 273.339C1096.9 270.529 1100.5 269.124 1104.8 269.124C1110.1 269.124 1114.7 271.432 1118.7 276.148C1120.6 278.557 1122.7 280.965 1124.7 283.373C1126.8 285.782 1129.1 287.889 1131.6 289.595C1134.1 291.301 1137.1 292.605 1140.7 293.408C1144.2 294.211 1148.3 294.713 1152.9 294.713C1162.3 294.713 1169.5 293.408 1174.7 290.799C1179.9 288.19 1183.5 284.477 1185.6 279.861C1187.7 275.145 1188.9 270.127 1189.2 264.709C1189.6 259.39 1189.8 250.76 1190 238.819C1184.4 246.646 1178 252.567 1170.7 256.681C1163.4 260.795 1154.7 262.802 1144.6 262.802C1132.5 262.802 1121.9 259.691 1112.8 253.47C1103.7 247.248 1096.8 238.518 1091.9 227.379C1087 216.241 1084.6 203.296 1084.6 188.645C1084.6 177.708 1086.1 167.874 1089 159.143C1092 150.313 1096.2 142.987 1101.7 136.967C1107.2 130.946 1113.5 126.43 1120.7 123.319C1127.9 120.209 1135.7 118.703 1144.3 118.703C1154.6 118.703 1163.4 120.71 1171 124.624C1178.5 128.537 1185.5 134.759 1192 143.188V138.271C1192 131.949 1193.5 127.133 1196.6 123.62C1199.7 120.209 1203.7 118.402 1208.5 118.402C1215.5 118.402 1220.1 120.71 1222.4 125.226C1224.8 129.842 1226 136.465 1226 144.994ZM1121.1 191.054C1121.1 205.805 1124.3 216.943 1130.7 224.469C1137.1 231.995 1145.4 235.809 1155.6 235.809C1161.6 235.809 1167.3 234.203 1172.6 230.992C1177.9 227.781 1182.3 222.864 1185.7 216.341C1189.1 209.819 1190.7 201.891 1190.7 192.559C1190.7 177.708 1187.5 166.168 1181 157.939C1174.5 149.711 1165.9 145.596 1155.3 145.596C1145 145.596 1136.7 149.51 1130.4 157.437C1124.2 165.365 1121.1 176.503 1121.1 191.054Z" fill="#1C2554"/>
<path d="M674.171 179.854C674.171 156.463 655.677 137.57 632.484 136.671C631.184 136.271 629.585 135.971 628.185 135.671C628.685 133.272 628.885 130.873 628.885 128.374C628.885 107.882 612.29 91.188 591.697 91.188C582.599 91.188 574.202 94.4867 567.704 99.9846C553.708 81.7916 531.715 69.9961 506.923 69.9961C466.836 69.9961 433.946 100.784 430.647 139.969C415.052 146.467 404.055 161.861 404.055 179.854C404.055 202.345 421.25 220.838 443.243 222.938L631.584 223.137C655.277 222.638 674.171 203.445 674.171 179.854Z" fill="white"/>
<path fill-rule="evenodd" clip-rule="evenodd" d="M421.363 133.383C427.679 91.8326 463.581 60 506.923 60C531.566 60 553.756 70.3141 569.494 86.7506C576.129 83.2021 583.701 81.1919 591.696 81.1919C617.451 81.1919 638.272 101.77 638.868 127.249C664.494 131.127 684.167 153.077 684.167 179.854C684.167 208.93 660.879 232.518 631.795 233.131L631.684 233.134L442.761 232.933L442.293 232.889C415.234 230.306 394.058 207.562 394.058 179.854C394.058 159.84 405.104 142.457 421.363 133.383ZM506.923 79.9923C472.068 79.9923 443.474 106.764 440.608 140.808L440.099 146.86L434.492 149.197C422.486 154.199 414.052 166.042 414.052 179.854C414.052 196.98 427.038 211.125 443.755 212.942L631.477 213.141C649.729 212.701 664.174 197.926 664.174 179.854C664.174 161.904 649.994 147.354 632.096 146.659L630.792 146.609L629.544 146.225C628.991 146.055 628.364 145.924 627.338 145.709C626.976 145.633 626.565 145.547 626.09 145.445L616.371 143.363L618.398 133.632C618.732 132.031 618.888 130.331 618.888 128.374C618.888 113.385 606.751 101.184 591.696 101.184C585.052 101.184 578.923 103.587 574.161 107.616L566.166 114.38L559.78 106.079C547.586 90.2279 528.465 79.9923 506.923 79.9923Z" fill="#EE3D72"/>
<path d="M539.113 211.942C539.113 188.551 520.618 169.658 497.426 168.758C496.126 168.359 494.527 168.059 493.127 167.759C493.627 165.36 493.827 162.961 493.827 160.462C493.827 139.969 477.232 123.276 456.638 123.276C447.541 123.276 439.144 126.575 432.646 132.073C418.65 113.879 396.657 102.084 371.865 102.084C331.777 102.084 298.888 132.872 295.589 172.057C279.994 178.555 268.997 193.949 268.997 211.942C268.997 234.433 286.192 252.926 308.185 255.025L496.526 255.225C520.219 254.726 539.113 235.533 539.113 211.942Z" fill="white"/>
<path fill-rule="evenodd" clip-rule="evenodd" d="M286.305 165.47C292.621 123.92 328.523 92.0879 371.865 92.0879C396.508 92.0879 418.698 102.402 434.436 118.839C441.071 115.29 448.643 113.28 456.638 113.28C482.393 113.28 503.214 133.858 503.81 159.337C529.436 163.215 549.109 185.164 549.109 211.942C549.109 241.018 525.821 264.606 496.737 265.219L496.626 265.222L307.703 265.021L307.235 264.976C280.175 262.394 259 239.65 259 211.942C259 191.928 270.046 174.545 286.305 165.47ZM371.865 112.08C337.01 112.08 308.416 138.852 305.55 172.896L305.041 178.948L299.434 181.284C287.428 186.287 278.994 198.13 278.994 211.942C278.994 229.068 291.98 243.213 308.697 245.03L496.419 245.229C514.671 244.789 529.116 230.014 529.116 211.942C529.116 193.992 514.936 179.441 497.038 178.747L495.733 178.697L494.486 178.313C493.933 178.143 493.306 178.011 492.279 177.797C491.918 177.721 491.507 177.635 491.032 177.533L481.313 175.451L483.34 165.72C483.674 164.119 483.83 162.419 483.83 160.462C483.83 145.473 471.693 133.272 456.638 133.272C449.994 133.272 443.865 135.675 439.103 139.704L431.108 146.468L424.722 138.167C412.528 122.316 393.407 112.08 371.865 112.08Z" fill="#EE3D72"/>
</svg>
