<svg width="500" height="300" viewBox="0 0 500 300" fill="none" xmlns="http://www.w3.org/2000/svg">
<path d="M452.171 166.854C452.171 143.463 433.677 124.57 410.484 123.671C409.184 123.271 407.585 122.971 406.185 122.671C406.685 120.272 406.885 117.873 406.885 115.374C406.885 94.8816 390.29 78.188 369.697 78.188C360.599 78.188 352.202 81.4867 345.704 86.9846C331.708 68.7916 309.715 56.9961 284.923 56.9961C244.836 56.9961 211.946 87.7843 208.647 126.969C193.052 133.467 182.055 148.861 182.055 166.854C182.055 189.345 199.25 207.838 221.243 209.938L409.584 210.137C433.277 209.638 452.171 190.445 452.171 166.854Z" fill="white"/>
<path fill-rule="evenodd" clip-rule="evenodd" d="M199.363 120.383C205.679 78.8326 241.581 47 284.923 47C309.566 47 331.756 57.3141 347.494 73.7506C354.129 70.2021 361.701 68.1919 369.696 68.1919C395.451 68.1919 416.272 88.7702 416.868 114.249C442.494 118.127 462.167 140.077 462.167 166.854C462.167 195.93 438.879 219.518 409.795 220.131L409.684 220.134L220.761 219.933L220.293 219.889C193.234 217.306 172.058 194.562 172.058 166.854C172.058 146.84 183.104 129.457 199.363 120.383ZM284.923 66.9923C250.068 66.9923 221.474 93.7639 218.608 127.808L218.099 133.86L212.492 136.197C200.486 141.199 192.052 153.042 192.052 166.854C192.052 183.98 205.038 198.125 221.755 199.942L409.477 200.141C427.729 199.701 442.174 184.926 442.174 166.854C442.174 148.904 427.994 134.354 410.096 133.659L408.792 133.609L407.544 133.225C406.991 133.055 406.364 132.924 405.338 132.709C404.976 132.633 404.565 132.547 404.09 132.445L394.371 130.363L396.398 120.632C396.732 119.031 396.888 117.331 396.888 115.374C396.888 100.385 384.751 88.1842 369.696 88.1842C363.052 88.1842 356.923 90.5868 352.161 94.6156L344.166 101.38L337.78 93.0795C325.586 77.2279 306.465 66.9923 284.923 66.9923Z" fill="#EE3D72"/>
<path d="M317.113 198.942C317.113 175.551 298.618 156.658 275.426 155.758C274.126 155.359 272.527 155.059 271.127 154.759C271.627 152.36 271.827 149.961 271.827 147.462C271.827 126.969 255.232 110.276 234.638 110.276C225.541 110.276 217.144 113.575 210.646 119.073C196.65 100.879 174.657 89.084 149.865 89.084C109.777 89.084 76.8877 119.872 73.5888 159.057C57.9936 165.555 46.9971 180.949 46.9971 198.942C46.9971 221.433 64.1917 239.926 86.1848 242.025L274.526 242.225C298.219 241.726 317.113 222.533 317.113 198.942Z" fill="white"/>
<path fill-rule="evenodd" clip-rule="evenodd" d="M64.3048 152.47C70.6207 110.92 106.523 79.0879 149.865 79.0879C174.508 79.0879 196.698 89.402 212.436 105.839C219.071 102.29 226.643 100.28 234.638 100.28C260.393 100.28 281.214 120.858 281.81 146.337C307.436 150.215 327.109 172.164 327.109 198.942C327.109 228.018 303.821 251.606 274.737 252.219L274.626 252.222L85.7033 252.021L85.2347 251.976C58.1754 249.394 37 226.65 37 198.942C37 178.928 48.0461 161.545 64.3048 152.47ZM149.865 99.0802C115.01 99.0802 86.4163 125.852 83.5502 159.896L83.0406 165.948L77.4335 168.284C65.4278 173.287 56.9938 185.13 56.9938 198.942C56.9938 216.068 69.9803 230.213 86.6967 232.03L274.419 232.229C292.671 231.789 307.116 217.014 307.116 198.942C307.116 180.992 292.936 166.441 275.038 165.747L273.733 165.697L272.486 165.313C271.933 165.143 271.306 165.011 270.279 164.797C269.918 164.721 269.507 164.635 269.032 164.533L259.313 162.451L261.34 152.72C261.674 151.119 261.83 149.419 261.83 147.462C261.83 132.473 249.693 120.272 234.638 120.272C227.994 120.272 221.865 122.675 217.103 126.704L209.108 133.468L202.722 125.167C190.528 109.316 171.407 99.0802 149.865 99.0802Z" fill="#EE3D72"/>
</svg>
