<?xml version="1.0" encoding="UTF-8"?>
<!DOCTYPE svg PUBLIC "-//W3C//DTD SVG 1.1//EN" "http://www.w3.org/Graphics/SVG/1.1/DTD/svg11.dtd">
<svg xmlns="http://www.w3.org/2000/svg" version="1.1" width="763px" height="141px" style="shape-rendering:geometricPrecision; text-rendering:geometricPrecision; image-rendering:optimizeQuality; fill-rule:evenodd; clip-rule:evenodd" xmlns:xlink="http://www.w3.org/1999/xlink">
<g><path style="opacity:0.173" fill="#eff8fc" d="M 36.5,2.5 C 31.3518,4.10549 26.3518,6.10549 21.5,8.5C 14.2833,11.6964 7.78332,16.0297 2,21.5C 1.17962,33.0762 1.34629,44.5762 2.5,56C 8.82458,56.4995 15.1579,56.6662 21.5,56.5C 20.9054,47.2348 21.5721,38.2348 23.5,29.5C 43.8436,17.8493 63.1769,19.3493 81.5,34C 82.7589,34.9819 84.0922,35.3152 85.5,35C 89.4498,30.9282 93.2831,26.7616 97,22.5C 97.6667,21.8333 97.6667,21.1667 97,20.5C 87.2738,11.7217 76.1072,5.7217 63.5,2.5C 73.3392,3.16923 82.3392,6.3359 90.5,12C 94,14.8333 97.5,17.6667 101,20.5C 101.667,21.5 101.667,22.5 101,23.5C 96.8063,27.6937 92.6396,31.8604 88.5,36C 85.8333,36.6667 83.1667,36.6667 80.5,36C 70.2642,26.0148 57.9309,22.0148 43.5,24C 37.0174,25.1551 31.184,27.6551 26,31.5C 25.5434,40.2322 25.0434,48.7322 24.5,57C 16.5069,57.4997 8.50694,57.6664 0.5,57.5C 0.333455,45.1622 0.500122,32.8288 1,20.5C 10.5643,10.1342 22.3976,4.13423 36.5,2.5 Z"/></g>
<g><path style="opacity:1" fill="#0982d1" d="M 21.5,8.5 C 20.8721,15.9131 21.5388,22.9131 23.5,29.5C 21.5721,38.2348 20.9054,47.2348 21.5,56.5C 15.1579,56.6662 8.82458,56.4995 2.5,56C 1.34629,44.5762 1.17962,33.0762 2,21.5C 7.78332,16.0297 14.2833,11.6964 21.5,8.5 Z"/></g>
<g><path style="opacity:1" fill="#0497ed" d="M 36.5,2.5 C 45.5,2.5 54.5,2.5 63.5,2.5C 76.1072,5.7217 87.2738,11.7217 97,20.5C 97.6667,21.1667 97.6667,21.8333 97,22.5C 93.2831,26.7616 89.4498,30.9282 85.5,35C 84.0922,35.3152 82.7589,34.9819 81.5,34C 63.1769,19.3493 43.8436,17.8493 23.5,29.5C 21.5388,22.9131 20.8721,15.9131 21.5,8.5C 26.3518,6.10549 31.3518,4.10549 36.5,2.5 Z"/></g>
<g><path style="opacity:0.21" fill="#fff0e7" d="M 217.5,33.5 C 237.169,33.3334 256.836,33.5 276.5,34C 280.925,36.5488 281.592,39.8821 278.5,44C 260.503,44.4999 242.503,44.6666 224.5,44.5C 224.666,49.1785 224.499,53.8452 224,58.5C 223.535,59.9308 222.701,61.0975 221.5,62C 235.833,62.3333 250.167,62.6667 264.5,63C 268.01,66.048 268.343,69.3813 265.5,73C 251.837,73.4999 238.171,73.6666 224.5,73.5C 224.5,79.5 224.5,85.5 224.5,91.5C 242.17,91.3334 259.836,91.5001 277.5,92C 281.436,95.5078 281.436,98.8411 277.5,102C 257.5,102.667 237.5,102.667 217.5,102C 214.228,100.307 211.728,97.8067 210,94.5C 208.847,86.4305 208.847,78.4305 210,70.5C 211.5,68.3333 213,66.1667 214.5,64C 213,62.5 211.5,61 210,59.5C 209.333,53.5 209.333,47.5 210,41.5C 212.064,38.2744 214.564,35.6077 217.5,33.5 Z"/></g>
<g><path style="opacity:0.987" fill="#ff7f27" d="M 221.5,34.5 C 238.837,34.3334 256.17,34.5001 273.5,35C 276.553,36.5808 277.22,38.9141 275.5,42C 257.5,42.3333 239.5,42.6667 221.5,43C 220.691,48.4171 220.191,53.9171 220,59.5C 216.45,62.4459 213.784,61.7793 212,57.5C 210.83,50.8203 211.663,44.487 214.5,38.5C 216.525,36.4356 218.858,35.1023 221.5,34.5 Z"/></g>
<g><path style="opacity:0.14" fill="#fff6f1" d="M 319.5,32.5 C 326.57,31.2515 332.737,32.9181 338,37.5C 346.788,57.0774 356.122,76.4108 366,95.5C 366.494,102.324 363.328,104.824 356.5,103C 354.448,102.07 352.948,100.57 352,98.5C 343.077,80.9872 334.41,63.3205 326,45.5C 316.593,63.9817 307.426,82.6484 298.5,101.5C 294.033,104.42 289.867,104.086 286,100.5C 285.333,98.8333 285.333,97.1667 286,95.5C 294.711,76.4097 303.711,57.4097 313,38.5C 315.664,37.0016 317.83,35.0016 319.5,32.5 Z"/></g>
<g><path style="opacity:0.964" fill="#ff7f29" d="M 323.5,33.5 C 328.049,33.5912 331.883,35.2579 335,38.5C 344.5,58.1667 354,77.8333 363.5,97.5C 361.584,101.917 358.751,102.584 355,99.5C 346,80.8333 337,62.1667 328,43.5C 326.333,42.1667 324.667,42.1667 323,43.5C 314,62.1667 305,80.8333 296,99.5C 293.333,102.167 290.667,102.167 288,99.5C 287.333,98.1667 287.333,96.8333 288,95.5C 297.605,76.6229 306.939,57.6229 316,38.5C 318.17,36.1769 320.67,34.5103 323.5,33.5 Z"/></g>
<g><path style="opacity:0.123" fill="#fff7f3" d="M 542.5,32.5 C 548.279,31.708 553.446,33.0414 558,36.5C 567.816,54.1316 578.15,71.4649 589,88.5C 589.236,86.236 589.736,84.0693 590.5,82C 590.699,69.9542 590.365,57.6208 589.5,45C 590.288,41.9243 590.788,38.7577 591,35.5C 591.758,33.0904 593.425,32.0904 596,32.5C 598.693,32.3602 600.86,33.3602 602.5,35.5C 602.817,41.9053 603.817,48.072 605.5,54C 604.056,55.126 603.39,56.626 603.5,58.5C 603.449,65.9949 603.783,73.1615 604.5,80C 603.691,85.4171 603.191,90.9171 603,96.5C 595.625,104.949 587.625,105.616 579,98.5C 568.73,81.5406 558.397,64.5406 548,47.5C 547.667,65.5 547.333,83.5 547,101.5C 542.933,104.099 538.933,104.099 535,101.5C 533.358,81.9231 533.025,62.2564 534,42.5C 535.252,37.7532 538.085,34.4199 542.5,32.5 Z"/></g>
<g><path style="opacity:0.965" fill="#ff7f28" d="M 545.5,33.5 C 549.686,33.7527 553.186,35.4194 556,38.5C 566.965,57.1163 578.298,75.4496 590,93.5C 590.772,93.3552 591.439,93.0219 592,92.5C 592.333,73.8333 592.667,55.1667 593,36.5C 594.903,33.0453 597.237,32.712 600,35.5C 601.641,54.4099 601.974,73.4099 601,92.5C 599.511,98.4867 595.678,101.82 589.5,102.5C 586.128,101.731 583.295,100.065 581,97.5C 570.035,78.8837 558.702,60.5504 547,42.5C 546.228,42.6448 545.561,42.9781 545,43.5C 544.667,62.1667 544.333,80.8333 544,99.5C 542.097,102.955 539.763,103.288 537,100.5C 535.359,81.5901 535.026,62.5901 536,43.5C 537.014,37.9883 540.181,34.655 545.5,33.5 Z"/></g>
<g><path style="opacity:0.059" fill="#fff3ec" d="M 155.5,32.5 C 169.965,30.9101 183.632,33.4101 196.5,40C 197.833,41.3333 199.167,42.6667 200.5,44C 200.147,49.0044 197.48,51.5044 192.5,51.5C 186.666,49.0928 180.666,46.9261 174.5,45C 166.903,42.6995 159.569,43.3662 152.5,47C 148.074,52.4414 148.741,57.1081 154.5,61C 164.173,61.9528 173.84,62.9528 183.5,64C 198.368,67.1946 203.535,76.0279 199,90.5C 193.636,97.6039 186.47,101.771 177.5,103C 165.158,104.509 153.158,103.176 141.5,99C 138.397,97.5606 135.564,95.7272 133,93.5C 132.229,85.6143 135.729,82.7809 143.5,85C 155.822,93.189 168.822,94.5223 182.5,89C 188.265,83.7405 187.599,79.4071 180.5,76C 170.171,74.7221 159.838,73.3887 149.5,72C 134.686,66.53 130.853,56.6967 138,42.5C 143.033,37.6052 148.866,34.2718 155.5,32.5 Z"/></g>
<g><path style="opacity:0.988" fill="#ff7f28" d="M 162.5,33.5 C 173.806,33.6599 184.473,36.3265 194.5,41.5C 197.38,45.3581 196.547,48.0248 192,49.5C 183.428,45.4209 174.428,42.7542 165,41.5C 159.499,41.8878 154.333,43.3878 149.5,46C 143.745,52.1367 144.412,57.47 151.5,62C 162.143,63.4527 172.81,64.786 183.5,66C 196.13,70.0915 199.963,78.2582 195,90.5C 191.635,95.1864 187.135,98.3531 181.5,100C 169.792,102.925 158.125,102.592 146.5,99C 142.637,97.8189 139.137,95.9856 136,93.5C 135.333,91.5 135.333,89.5 136,87.5C 136.893,86.9186 137.893,86.5852 139,86.5C 143.545,88.1878 148.045,90.0211 152.5,92C 162.632,95.5524 172.632,95.219 182.5,91C 189.491,86.7361 190.157,81.7361 184.5,76C 181.352,74.3953 178.019,73.3953 174.5,73C 166.074,72.7111 157.741,71.7111 149.5,70C 137.012,64.6049 133.846,55.7716 140,43.5C 146.404,37.5447 153.904,34.2114 162.5,33.5 Z"/></g>
<g><path style="opacity:0.052" fill="#fff3ea" d="M 400.5,32.5 C 412.396,31.1563 423.73,32.9897 434.5,38C 437.645,39.9782 440.312,42.4782 442.5,45.5C 441.787,49.5461 439.454,51.8794 435.5,52.5C 430.583,50.0417 425.583,47.5417 420.5,45C 408.252,41.6452 397.752,44.4786 389,53.5C 383.486,63.5193 383.652,73.5193 389.5,83.5C 397.589,91.4418 407.256,94.2751 418.5,92C 421.779,91.0272 424.779,89.5272 427.5,87.5C 428.493,82.8804 428.827,78.2137 428.5,73.5C 419.827,73.6664 411.16,73.4998 402.5,73C 398.965,70.1616 398.632,66.9949 401.5,63.5C 413.82,62.3341 426.153,62.1674 438.5,63C 439.333,63.8333 440.167,64.6667 441,65.5C 448.222,91.799 438.055,104.466 410.5,103.5C 382.346,102.153 369.179,87.4865 371,59.5C 375.58,44.753 385.413,35.753 400.5,32.5 Z"/></g>
<g><path style="opacity:0.981" fill="#ff7f28" d="M 408.5,33.5 C 418.709,33.5509 428.043,36.3842 436.5,42C 441.24,47.7913 439.906,50.4579 432.5,50C 428.9,46.3659 424.567,44.0326 419.5,43C 406.99,40.0344 396.156,42.8677 387,51.5C 378.826,64.58 379.993,76.7466 390.5,88C 403.415,96.3773 416.415,96.5439 429.5,88.5C 430.495,82.8722 430.829,77.2055 430.5,71.5C 421.494,71.6664 412.494,71.4998 403.5,71C 400.828,68.3212 401.162,65.9879 404.5,64C 414.833,63.3333 425.167,63.3333 435.5,64C 436.931,64.4652 438.097,65.2986 439,66.5C 439.87,74.897 439.537,83.2303 438,91.5C 434.736,96.2193 430.236,99.0527 424.5,100C 410.232,104.05 396.899,102.05 384.5,94C 372.338,81.1957 369.838,66.6957 377,50.5C 384.656,39.4241 395.156,33.7574 408.5,33.5 Z"/></g>
<g><path style="opacity:0.102" fill="#fff2ea" d="M 637.5,46.5 C 633.424,50.0896 630.257,54.4229 628,59.5C 624.828,74.3216 629.995,84.8216 643.5,91C 654.672,94.1827 665.005,92.516 674.5,86C 679.567,84.5328 682.9,86.1995 684.5,91C 684.01,93.5028 682.677,95.5028 680.5,97C 665.622,104.414 650.289,105.414 634.5,100C 621.24,94.0476 614.24,83.7143 613.5,69C 614.329,50.5067 623.662,38.8401 641.5,34C 655.124,30.9957 668.124,32.6624 680.5,39C 684.173,41.9531 684.84,45.2864 682.5,49C 680.801,49.9581 678.967,50.4581 677,50.5C 671.845,47.6806 666.345,45.5139 660.5,44C 652.623,43.0286 644.956,43.8619 637.5,46.5 Z"/></g>
<g><path style="opacity:0.983" fill="#ff7f29" d="M 637.5,46.5 C 631.013,49.4234 626.846,54.4234 625,61.5C 623.131,82.631 632.798,93.2977 654,93.5C 662.531,93.9897 670.197,91.6564 677,86.5C 682.381,88.7511 682.881,91.9178 678.5,96C 661.108,104.986 644.108,104.32 627.5,94C 615.789,82.0402 612.955,68.2069 619,52.5C 627.257,39.7842 639.09,33.4509 654.5,33.5C 664.419,33.5159 673.252,36.5159 681,42.5C 682.418,46.4416 681.084,48.7749 677,49.5C 667.147,42.8477 656.314,40.681 644.5,43C 641.826,43.6701 639.493,44.8368 637.5,46.5 Z"/></g>
<g><path style="opacity:0.004" fill="#fefffe" d="M 760.5,54.5 C 761.833,55.1667 761.833,55.1667 760.5,54.5 Z"/></g>
<g><path style="opacity:0.008" fill="#fefffe" d="M 760.5,56.5 C 761.833,57.1667 761.833,57.1667 760.5,56.5 Z"/></g>
<g><path style="opacity:0.99" fill="#ff7e27" d="M 221.5,63.5 C 234.504,63.3334 247.504,63.5001 260.5,64C 263.553,65.5808 264.22,67.9141 262.5,71C 248.833,71.3333 235.167,71.6667 221.5,72C 220.167,79 220.167,86 221.5,93C 239.5,93.3333 257.5,93.6667 275.5,94C 277.22,97.0859 276.553,99.4192 273.5,101C 264.833,101.167 256.167,101.333 247.5,101.5C 237.444,101.615 227.444,101.115 217.5,100C 214.412,97.9245 212.579,95.0911 212,91.5C 211.333,85.5 211.333,79.5 212,73.5C 213.014,67.9883 216.181,64.655 221.5,63.5 Z"/></g>
<g><path style="opacity:0.204" fill="#ffefe4" d="M 461.5,33.5 C 480.836,33.3334 500.17,33.5 519.5,34C 523.925,36.5488 524.592,39.8821 521.5,44C 503.17,44.4999 484.836,44.6666 466.5,44.5C 466.666,49.8437 466.499,55.1771 466,60.5C 465.5,61 465,61.5 464.5,62C 478.5,62.3333 492.5,62.6667 506.5,63C 510.994,65.467 511.66,68.8003 508.5,73C 494.837,73.4999 481.171,73.6666 467.5,73.5C 467.5,79.5 467.5,85.5 467.5,91.5C 485.17,91.3334 502.836,91.5001 520.5,92C 525.474,94.7758 525.807,98.1091 521.5,102C 501.833,102.667 482.167,102.667 462.5,102C 454.71,98.0815 451.71,91.7482 453.5,83C 452.199,75.4066 454.199,68.9066 459.5,63.5C 454.029,60.9774 452.029,56.6441 453.5,50.5C 453.667,47.5 453.833,44.5 454,41.5C 456.028,38.3078 458.528,35.6411 461.5,33.5 Z"/></g>
<g><path style="opacity:0.989" fill="#ff7e27" d="M 465.5,63.5 C 478.504,63.3334 491.504,63.5001 504.5,64C 507.553,65.5808 508.22,67.9141 506.5,71C 492.833,71.3333 479.167,71.6667 465.5,72C 464.167,79 464.167,86 465.5,93C 483.5,93.3333 501.5,93.6667 519.5,94C 521.22,97.0859 520.553,99.4192 517.5,101C 508.833,101.167 500.167,101.333 491.5,101.5C 481.444,101.615 471.444,101.115 461.5,100C 458.412,97.9245 456.579,95.0911 456,91.5C 455.333,85.5 455.333,79.5 456,73.5C 457.014,67.9883 460.181,64.655 465.5,63.5 Z"/></g>
<g><path style="opacity:0.983" fill="#ff7f27" d="M 465.5,34.5 C 482.837,34.3334 500.17,34.5001 517.5,35C 520.553,36.5808 521.22,38.9141 519.5,42C 501.5,42.3333 483.5,42.6667 465.5,43C 464.691,48.4171 464.191,53.9171 464,59.5C 460.45,62.4459 457.784,61.7793 456,57.5C 454.83,50.8203 455.663,44.487 458.5,38.5C 460.525,36.4356 462.858,35.1023 465.5,34.5 Z"/></g>
<g><path style="opacity:0.199" fill="#ffeee3" d="M 760.5,29.5 C 762.033,43.3696 762.033,48.3696 760.5,44.5C 742.821,44.1671 725.154,44.5005 707.5,45.5C 707.449,48.6651 707.282,51.9984 707,55.5C 706.443,57.6147 705.609,59.6147 704.5,61.5C 718.822,62.3328 733.155,62.8328 747.5,63C 750.077,66.262 750.077,69.5954 747.5,73C 734.171,73.4999 720.837,73.6666 707.5,73.5C 707.5,79.5 707.5,85.5 707.5,91.5C 725.542,91.5273 743.375,91.5273 761,91.5C 761.824,94.8823 761.657,98.2156 760.5,101.5C 740.877,102.654 721.21,102.821 701.5,102C 695.443,98.4675 692.777,93.1341 693.5,86C 694.153,80.5153 694.653,75.0153 695,69.5C 696.167,67 698,65.1667 700.5,64C 698.413,63.2078 696.579,62.0412 695,60.5C 693.071,53.5401 693.071,46.8734 695,40.5C 696.5,37.6667 698.667,35.5 701.5,34C 720.877,33.1794 740.21,33.3461 759.5,34.5C 760.452,32.9547 760.785,31.288 760.5,29.5 Z"/></g>
<g><path style="opacity:0.99" fill="#ff7e27" d="M 705.5,63.5 C 718.504,63.3334 731.504,63.5001 744.5,64C 747.553,65.5808 748.22,67.9141 746.5,71C 732.833,71.3333 719.167,71.6667 705.5,72C 704.167,79 704.167,86 705.5,93C 723.5,93.3333 741.5,93.6667 759.5,94C 761.22,97.0859 760.553,99.4192 757.5,101C 748.833,101.167 740.167,101.333 731.5,101.5C 721.444,101.615 711.444,101.115 701.5,100C 698.412,97.9245 696.579,95.0911 696,91.5C 695.333,85.5 695.333,79.5 696,73.5C 697.014,67.9883 700.181,64.655 705.5,63.5 Z"/></g>
<g><path style="opacity:0.985" fill="#ff7f27" d="M 705.5,34.5 C 722.837,34.3334 740.17,34.5001 757.5,35C 760.553,36.5808 761.22,38.9141 759.5,42C 741.5,42.3333 723.5,42.6667 705.5,43C 704.691,48.4171 704.191,53.9171 704,59.5C 700.45,62.4459 697.784,61.7793 696,57.5C 694.83,50.8203 695.663,44.487 698.5,38.5C 700.525,36.4356 702.858,35.1023 705.5,34.5 Z"/></g>
<g><path style="opacity:0.004" fill="#fefffe" d="M 760.5,86.5 C 761.833,87.1667 761.833,87.1667 760.5,86.5 Z"/></g>
<g><path style="opacity:0.2" fill="#fefcf7" d="M 76.5,83.5 C 84.7524,83.1842 92.919,83.5175 101,84.5C 101.667,96.1667 101.667,107.833 101,119.5C 83.236,136.573 62.0693,143.073 37.5,139C 23.889,136.306 11.889,130.473 1.5,121.5C 0.369117,119.926 0.20245,118.259 1,116.5C 5.1733,112.659 9.00663,108.493 12.5,104C 15.1667,103.333 17.8333,103.333 20.5,104C 31.2586,114.945 44.2586,118.945 59.5,116C 66.2416,114.799 71.9082,111.799 76.5,107C 76.0334,99.8274 76.0334,91.9941 76.5,83.5 Z"/></g>
<g><path style="opacity:1" fill="#fa9109" d="M 78.5,132.5 C 78.5,124.833 78.5,117.167 78.5,109.5C 78.5,101.167 78.5,92.8333 78.5,84.5C 85.1667,84.5 91.8333,84.5 98.5,84.5C 98.6665,95.8382 98.4999,107.172 98,118.5C 92.2643,124.28 85.7643,128.946 78.5,132.5 Z"/></g>
<g><path style="opacity:0.999" fill="#fdbf06" d="M 78.5,109.5 C 78.5,117.167 78.5,124.833 78.5,132.5C 49.8056,143.886 24.1389,139.219 1.5,118.5C 5.83333,113.5 10.5,108.833 15.5,104.5C 35.3439,121.031 56.3439,122.698 78.5,109.5 Z"/></g>
</svg>
