<svg id="Layer_1" data-name="Layer 1" xmlns="http://www.w3.org/2000/svg" viewBox="0 0 500 500"><defs><style>.cls-1{fill:#7cc6ee;}.cls-2{fill:#224292;}</style></defs><title>N2WS Logo</title><path class="cls-1" d="M55,362.36c-34.27-6.53-54-26.3-54-62.09,0-33.6,21.48-62.9,52.4-72-.08-1.77-.13-3.53-.13-5.27,0-59.66,47-108.2,104.72-108.2,42.94,0,81.88,27.64,97.51,68.75,8.31-3.56,17.64-4.95,28.34-4.6,17.39.58,32.15,9.72,44,24.12a86.71,86.71,0,0,1,9.84,14.82,36.7,36.7,0,0,1,1.92,4.24c.29.84.37,1.16.15,1.72a1.43,1.43,0,0,1-1.61.88c-.89-.54-1-.72-1.17-.95-4.52-10.18-21.05-30.93-39.88-33.94-11.2-1.8-35.71.54-45.43,6.53l-1.56,1-.49-1.78c-11.73-41.82-49.3-71.12-91.58-71.12-52.57,0-95.34,44.21-95.34,98.57a101.16,101.16,0,0,0,.66,11.5l.15,1.32-1.28.23c-30,5.57-51.81,32.44-51.81,64.23,0,33.08,25.4,60,57.76,63.58Z"/><path class="cls-2" d="M458.11,319.65q-16.1-4.83-22.7-11.88t-5-17.4q1.77-11.72,12.29-19.38t25.51-7.66a37,37,0,0,1,17.63,3.95,24.09,24.09,0,0,1,10.75,10.9,25.46,25.46,0,0,1,2.1,15.19H485.51q1.37-9-3.58-14.14t-15.37-5.14q-9.68,0-15.73,4.26a17,17,0,0,0-7.21,11.81,11,11,0,0,0,3.6,10.25q4.51,4.2,16.35,7.67t18.19,7.66a23.59,23.59,0,0,1,8.88,9.77A23.09,23.09,0,0,1,492,338.65,27.75,27.75,0,0,1,479.71,358q-10.5,7.26-26.24,7.25A42.63,42.63,0,0,1,435,361.3a25.87,25.87,0,0,1-12-10.73,23.71,23.71,0,0,1-2.46-15.46h13.14q-1.35,9,4.5,14.2t17,5.21q10.35,0,16.51-4.22a16.44,16.44,0,0,0,7.26-11.51q1.09-7.29-3.41-11.27t-17.34-7.87M335,332.59l-.07,13.08,4.57-11.78,30.08-69.2h11l8.69,69.2.92,12,4.13-13.35,25.64-67.83h13.15l-39,99.16H382.14l-9.52-72.25-.43-7.56-2.71,7.56-32.1,72.25H325.46l-9-99.16h13.08ZM151.86,363.84l-84.71-.23C34.66,360.4,9,332,9,298c0-32.26,22.36-59.28,52.79-64.88a101.94,101.94,0,0,1-.67-11.52c0-54.51,43.27-98.85,96.44-98.85,43,0,80.84,29.58,92.64,71.32a62.45,62.45,0,0,1,32.8-9.2c27.22,0,51.6,17.66,60.67,44l-9.31,3.37C326.66,209.94,306,195,283,195a53.11,53.11,0,0,0-32.9,11.34l-6.21,4.81-1.6-7.8c-8.33-40.83-44-70.47-84.73-70.47-47.74,0-86.57,39.8-86.57,88.74a92,92,0,0,0,1.25,15l.89,5.34-5.26.54c-27.94,2.85-49,26.72-49,55.54,0,30.15,23.93,55.18,53.34,55.78l1.56,0,79.62.06,13.47-89.19H180l38.48,76.76,11.59-76.76h13l-15,99.16H214.94l-38.39-76.41L165,363.85H151.86Zm150.77,0h-65l1.37-9.06,40.1-38.13Q288,308,291.75,302.59a26.94,26.94,0,0,0,4.59-11.2q1.17-7.77-2.78-12.73t-11.78-5q-9.4,0-15.43,5.35t-7.45,14.88H246.29a34.57,34.57,0,0,1,12.17-22.13q10.1-8.44,24.88-8.45,13.83,0,20.77,7.26t5.12,19.3Q307,304.53,285.3,324.76l-30.92,28.81h49.8Z"/></svg>