<?xml version="1.0" encoding="UTF-8" standalone="no"?>
<svg
   xmlns:dc="http://purl.org/dc/elements/1.1/"
   xmlns:cc="http://creativecommons.org/ns#"
   xmlns:rdf="http://www.w3.org/1999/02/22-rdf-syntax-ns#"
   xmlns:svg="http://www.w3.org/2000/svg"
   xmlns="http://www.w3.org/2000/svg"
   viewBox="0 0 2560 1440"
   height="1440"
   width="2560"
   xml:space="preserve"
   id="svg2"
   version="1.1"><metadata
     id="metadata8"><rdf:RDF><cc:Work
         rdf:about=""><dc:format>image/svg+xml</dc:format><dc:type
           rdf:resource="http://purl.org/dc/dcmitype/StillImage" /></cc:Work></rdf:RDF></metadata><defs
     id="defs6"><clipPath
       id="clipPath18"
       clipPathUnits="userSpaceOnUse"><path
         id="path16"
         d="M 0,1080 H 1920 V 0 H 0 Z" /></clipPath></defs><g
     transform="matrix(1.3333333,0,0,-1.3333333,0,1440)"
     id="g10"><g
       id="g12"><g
         clip-path="url(#clipPath18)"
         id="g14"><g
           transform="translate(977.9434,591.2969)"
           id="g20"><path
             id="path22"
             style="fill:#099dfd;fill-opacity:1;fill-rule:nonzero;stroke:none"
             d="m 0,0 c -16.854,0 -30.568,-13.713 -30.568,-30.568 0,-16.855 13.714,-30.567 30.568,-30.567 16.855,0 30.567,13.712 30.567,30.567 C 30.567,-13.713 16.855,0 0,0 m 0,-47.423 c -9.294,0 -16.854,7.561 -16.854,16.855 0,9.294 7.56,16.855 16.854,16.855 9.294,0 16.855,-7.561 16.855,-16.855 0,-9.294 -7.561,-16.855 -16.855,-16.855" /></g><g
           transform="translate(1028.8057,583.4229)"
           id="g24"><path
             id="path26"
             style="fill:#099dfd;fill-opacity:1;fill-rule:nonzero;stroke:none"
             d="m 0,0 -0.386,-0.372 -0.407,-0.394 -0.268,0.499 -0.253,0.472 c -2.204,4.094 -6.259,6.911 -10.849,7.534 l -1.135,0.154 v -61.174 l 1.144,0.166 c 6.257,0.909 12.569,5.711 12.569,14.391 v 16.027 c 0,8.533 6.644,15.898 15.123,16.767 l 0.899,0.092 V 7.884 L 15.34,7.777 C 10.021,7.255 4.718,4.566 0,0" /></g><g
           transform="translate(860.4839,585.2402)"
           id="g28"><path
             id="path30"
             style="fill:#099dfd;fill-opacity:1;fill-rule:nonzero;stroke:none"
             d="m 0,0 -0.242,-0.336 -0.257,-0.355 -0.35,0.265 -0.33,0.251 c -5.353,4.064 -11.731,6.211 -18.443,6.211 -16.855,0 -30.568,-13.713 -30.568,-30.568 0,-16.855 13.713,-30.568 30.568,-30.568 6.712,0 13.089,2.148 18.441,6.212 l 0.332,0.251 0.349,0.265 0.257,-0.355 L 0,-49.063 c 2.323,-3.209 5.899,-5.36 9.81,-5.9 l 1.136,-0.156 V 6.056 L 9.81,5.9 C 5.899,5.361 2.323,3.21 0,0 m -19.622,-41.387 c -9.294,0 -16.855,7.561 -16.855,16.855 0,9.294 7.561,16.855 16.855,16.855 9.294,0 16.855,-7.561 16.855,-16.855 0,-9.294 -7.561,-16.855 -16.855,-16.855" /></g><g
           transform="translate(1108.668,591.1401)"
           id="g32"><path
             id="path34"
             style="fill:#099dfd;fill-opacity:1;fill-rule:nonzero;stroke:none"
             d="m 0,0 c -3.911,-0.54 -7.485,-2.69 -9.809,-5.9 l -0.243,-0.335 -0.257,-0.356 -0.349,0.266 -0.33,0.251 c -5.353,4.063 -11.731,6.211 -18.444,6.211 -16.855,0 -30.567,-13.713 -30.567,-30.568 0,-16.855 13.712,-30.569 30.567,-30.569 6.713,0 13.091,2.149 18.445,6.211 l 0.329,0.251 0.349,0.266 0.257,-0.355 0.243,-0.336 c 2.324,-3.21 5.898,-5.36 9.809,-5.9 l 1.137,-0.156 V 0.156 Z m -29.432,-47.286 c -9.293,0 -16.855,7.561 -16.855,16.855 0,9.294 7.562,16.855 16.855,16.855 9.294,0 16.855,-7.561 16.855,-16.855 0,-9.294 -7.561,-16.855 -16.855,-16.855" /></g><g
           transform="translate(928.9824,536.8857)"
           id="g36"><path
             id="path38"
             style="fill:#099dfd;fill-opacity:1;fill-rule:nonzero;stroke:none"
             d="m 0,0 c 6.987,5.606 11.472,14.208 11.472,23.844 0,6.343 -1.944,12.241 -5.266,17.132 -0.443,0.651 -0.919,1.278 -1.409,1.894 3.755,2.382 5.928,6.401 6.509,10.399 l 0.166,1.143 h -30.7 v -0.004 c -16.794,-0.073 -30.435,-13.755 -30.435,-30.564 0,-9.636 4.486,-18.24 11.475,-23.847 -1.312,-1.053 -2.539,-2.205 -3.661,-3.457 l 9.323,-10.216 c 3.081,4.06 7.954,6.687 13.431,6.687 9.294,0 16.855,-7.562 16.855,-16.856 0,-6.026 -3.182,-11.321 -7.952,-14.301 l 9.326,-10.219 c 7.483,5.577 12.338,14.492 12.338,24.52 C 11.472,-14.21 6.987,-5.607 0,0 m -19.107,40.698 h 0.024 c 9.288,-0.007 16.843,-7.565 16.843,-16.854 0,-9.295 -7.561,-16.856 -16.855,-16.856 -9.294,0 -16.855,7.561 -16.855,16.856 0,9.289 7.554,16.847 16.843,16.854" /></g></g></g></g></svg>