<?xml version="1.0" encoding="UTF-8"?>
<svg id="Warstwa_2" data-name="Warstwa 2" xmlns="http://www.w3.org/2000/svg" viewBox="0 0 1071.92 294">
  <defs>
    <style>
      .cls-1 {
        fill: #171717;
        stroke-width: 0px;
      }
    </style>
  </defs>
  <g id="Layer_1" data-name="Layer 1">
    <g>
      <path class="cls-1" d="M382.06,255.3c0,4.28-3.48,7.75-7.77,7.75h-11.26c-4.25,0-7.77-3.4-7.77-7.65.06-42.29-36.06-76.34-79.13-73-38.3,2.97-67.47,35.64-67.47,73.97v.04c0,3.67-2.98,6.64-6.66,6.64h-12.37c-4.29,0-7.77-3.47-7.77-7.75v-52.57c49.03-7.47,86.69-49.82,86.69-100.78,0-14.13-2.9-27.59-8.13-39.84,7.25-1.59,14.77-2.43,22.51-2.36,55.11.53,99.1,46.14,99.1,101.13v94.42h.01ZM226.01,76.87c2.85-1.93,6.78-.66,7.89,2.6,2.37,7.07,3.66,14.62,3.66,22.48,0,31.4-20.54,58.1-48.92,67.45-3.34,1.1-6.77-1.45-6.77-4.95v-4.83c0-34.4,17.54-64.78,44.14-82.73h0ZM286.13,28.89c-15.02-.47-29.5,1.6-43.04,5.8C223.64,12.66,194.85-.99,162.94.06c-55.29,1.82-98.77,47.92-98.77,103.11v142.91c0,8.48-6.22,15.92-14.66,16.89-10.01,1.13-18.51-6.68-18.51-16.44H0c0,27.19,23.05,49.13,50.68,47.37,25.18-1.6,44.49-23.06,44.49-48.23V102.94c0-38.17,29.81-70.29,68.04-71.94,19.08-.83,36.6,5.9,49.85,17.41-37.3,23.08-62.19,64.3-62.19,111.21v134.38h88.79v-37.92c0-22.37,17.17-41.45,39.55-42.86,24.56-1.56,45.05,17.93,45.05,42.11v38.67h88.79v-133.01c0-70.84-55.96-129.87-126.93-132.07l.02-.02Z"/>
      <path class="cls-1" d="M732.62,157c7.27-5.99,17.46-9.29,28.69-9.29,1,0,2.01.03,3.03.08v-32.26c-10.79.16-25.46,2.97-35.99,15-1.02,1.17-2.42,1.8-3.92,1.8-2.62,0-5.33-1.98-5.33-5.29v-8.87h-29.76v144.62h29.76v-72.9c0-14.42,4.56-25.49,13.53-32.89h-.01Z"/>
      <path class="cls-1" d="M831.32,264.1c5.62,0,11.95-.41,18.83-1.2v-26.52c-4.71.22-8.91.41-12.65.41-8.75,0-14.02-1.04-17.63-3.49-4.21-2.85-6.17-7.7-6.17-15.25v-55.01c0-9.01,7.35-16.34,16.38-16.34h20.05v-28.52h-36.44v-29.33h-29.76v129.2c0,32.29,14.17,46.06,47.37,46.06h.01Z"/>
      <rect class="cls-1" x="875.24" y="118.17" width="29.76" height="144.62"/>
      <path class="cls-1" d="M890.12,59.53c-10.63,0-19.28,8.63-19.28,19.24s8.83,19.25,19.28,19.25,19.28-8.81,19.28-19.25-8.65-19.24-19.28-19.24Z"/>
      <path class="cls-1" d="M1037.85,175.21c-1.66,2.46-4.42,3.94-7.4,3.94h-65.19c-3.04,0-5.84-1.53-7.5-4.07-1.65-2.55,3.89-33.96,41.1-33.96,18.29,0,33.18,9.61,39.82,25.71,1.14,2.77.83,5.9-.83,8.39ZM1051.73,136.9c-13.4-14.54-32.07-22.55-52.58-22.55-44.38,0-76.6,32.01-76.6,76.12s32.47,76.12,78.95,76.12c13.91,0,26.52-2.82,37.46-8.4,10.23-5.21,18.8-12.69,25.49-22.26l-24.45-14.25c-8.1,11.2-22.31,17.86-38.2,17.86-9.86,0-18.65-1.99-26.13-5.91-7.74-4.06-13.68-10-17.66-17.65-1.45-2.79-1.34-6.06.3-8.75,1.64-2.67,4.47-4.27,7.62-4.27h104.96c.54-3.83,1.04-8.18,1.04-12.21,0-20.6-7.17-39.73-20.2-53.86h.01Z"/>
      <path class="cls-1" d="M526.56,144.32c0-30.58,24.56-55.84,54.75-56.29h.85c14.83,0,28.79,5.78,39.31,16.27,10.52,10.49,16.31,24.42,16.31,39.21v11.69c0,11-8.97,19.94-19.99,19.94h-71.24c-11.02,0-19.99-8.95-19.99-19.94v-10.87h0ZM545.25,203.62h73.83c10.31,0,18.69,8.37,18.69,18.65v40.52h28.56v-119.3c0-46.29-37.76-83.96-84.17-83.96h-.82c-45.95.44-83.34,38.59-83.34,85.04v118.21h28.56v-40.52c0-10.28,8.39-18.65,18.69-18.65Z"/>
    </g>
  </g>
</svg>