<svg width="2402" height="764" viewBox="0 0 2402 764" fill="none" xmlns="http://www.w3.org/2000/svg">
<path d="M1019.72 347.817C1019.72 335.196 1009.48 324.953 996.863 324.953C984.245 324.953 974.004 335.196 974.004 347.817" stroke="white" stroke-width="46" stroke-miterlimit="10"/>
<path d="M283.531 612.942C283.531 639.596 261.936 661.225 235.259 661.225C208.582 661.225 186.928 636.187 186.928 609.503L186.987 612.942L187.046 217.709C187.046 118.291 267.607 37.7109 367 37.7109C466.393 37.7109 546.954 118.291 546.954 217.709C546.954 317.127 466.393 397.708 367 397.708L138.598 397.443C83.0399 397.443 38 352.392 38 296.82" stroke="white" stroke-width="75" stroke-miterlimit="10"/>
<path d="M369.114 410.198V686.94C369.114 708.511 386.596 725.996 408.161 725.996H466.187C487.752 725.996 505.233 708.511 505.233 686.94V597.808C505.233 513.495 573.571 445.14 657.863 445.14C742.155 445.14 810.494 513.495 810.494 597.808V686.94C810.494 708.511 827.975 725.996 849.54 725.996H907.566C929.131 725.996 946.612 708.511 946.612 686.94V363.561C946.612 204.045 817.339 74.7109 657.834 74.7109C498.064 74.7109 368.674 204.457 369.056 364.266L369.173 410.198H369.114Z" stroke="white" stroke-width="75" stroke-miterlimit="10"/>
<path d="M1068.72 725.999V485.226C1068.72 364.426 1139.88 306.508 1244.96 306.508C1349.21 306.508 1420.37 364.426 1420.37 486.053V490.19H1342.59V485.226C1342.59 409.933 1302.88 379.319 1244.96 379.319C1186.21 379.319 1147.33 409.933 1147.33 485.226V725.999H1068.72Z" fill="white"/>
<path d="M1633.19 725.999C1535.56 725.999 1469.37 671.391 1469.37 560.519L1469.37 306.531H1547.97V406.054H1797.02V478.038H1547.97V560.519C1547.97 625.056 1581.89 653.188 1633.19 653.188C1684.49 653.188 1719.24 625.884 1719.24 560.519V551.418H1797.02V560.519C1797.02 671.391 1730.83 725.999 1633.19 725.999Z" fill="white"/>
<path d="M1846.11 726.001V405.656H1924.72V726.001H1846.11Z" fill="white"/>
<circle cx="1885.28" cy="345.047" r="39.2582" fill="white"/>
<path d="M2188.18 725.997C2062.4 725.997 1973.71 637.31 1973.71 516.374C1973.71 395.437 2062.4 306.75 2188.18 306.75C2313.95 306.75 2401.02 395.437 2401.02 516.374V544.592H2054.34C2065.63 615.542 2118.84 655.048 2188.18 655.048C2239.78 655.048 2276.06 638.923 2299.44 604.254H2384.09C2353.46 678.429 2280.89 725.997 2188.18 725.997ZM2056.76 476.061H2320.4C2305.08 412.368 2252.68 377.7 2188.18 377.7C2122.06 377.7 2072.08 413.174 2056.76 476.061Z" fill="white"/>
</svg>
