<svg width="2414" height="764" viewBox="0 0 2414 764" fill="none" xmlns="http://www.w3.org/2000/svg">
<path d="M1019.72 348.106C1019.72 335.485 1009.48 325.242 996.863 325.242C984.245 325.242 974.004 335.485 974.004 348.106" stroke="#0F172A" stroke-width="46" stroke-miterlimit="10"/>
<path d="M283.531 613.231C283.531 639.885 261.936 661.514 235.259 661.514C208.582 661.514 186.928 636.476 186.928 609.792L186.987 613.231L187.046 217.998C187.046 118.58 267.607 38 367 38C466.393 38 546.954 118.58 546.954 217.998C546.954 317.416 466.393 397.997 367 397.997L138.598 397.732C83.0399 397.732 38 352.681 38 297.109" stroke="#0F172A" stroke-width="75" stroke-miterlimit="10"/>
<path d="M369.114 410.488V687.23C369.114 708.8 386.596 726.285 408.161 726.285H466.187C487.752 726.285 505.233 708.8 505.233 687.23V598.097C505.233 513.785 573.571 445.429 657.863 445.429C742.155 445.429 810.494 513.785 810.494 598.097V687.23C810.494 708.8 827.975 726.285 849.54 726.285H907.566C929.131 726.285 946.612 708.8 946.612 687.23V363.85C946.612 204.334 817.339 75 657.834 75C498.064 75 368.674 204.746 369.056 364.555L369.173 410.488H369.114Z" stroke="#0F172A" stroke-width="75" stroke-miterlimit="10"/>
<path d="M1068.72 726.289L1068.72 458.725C1068.72 338.115 1139.55 280.289 1244.13 280.289C1347.9 280.289 1418.72 338.115 1418.72 459.551V463.681H1341.31V458.725C1341.31 383.551 1301.78 352.985 1244.13 352.985C1185.66 352.985 1146.96 383.551 1146.96 458.725L1146.96 726.289H1068.72Z" fill="#0F172A"/>
<path d="M1632.72 726.289C1534.39 726.289 1467.72 671.889 1467.72 561.439V280.289H1546.89V407.563H1797.72V479.272H1546.89V561.439C1546.89 625.731 1581.06 653.755 1632.72 653.755C1684.39 653.755 1719.39 626.555 1719.39 561.439V552.373H1797.72V561.439C1797.72 671.889 1731.06 726.289 1632.72 726.289Z" fill="#0F172A"/>
<path d="M1846.82 726.287V407.523H1924.72V726.287H1846.82Z" fill="#0F172A"/>
<ellipse cx="1885.63" cy="319.354" rx="38.9107" ry="39.0645" fill="#0F172A"/>
<path d="M2194.55 726.289C2065.04 726.289 1973.72 631.943 1973.72 503.289C1973.72 374.635 2065.04 280.289 2194.55 280.289C2324.06 280.289 2413.72 374.635 2413.72 503.289V533.308H2056.74C2068.36 608.785 2123.16 650.812 2194.55 650.812C2247.68 650.812 2285.04 633.658 2309.12 596.777H2396.29C2364.74 675.685 2290.02 726.289 2194.55 726.289ZM2059.23 460.404H2330.7C2314.93 392.647 2260.97 355.766 2194.55 355.766C2126.48 355.766 2075.01 393.504 2059.23 460.404Z" fill="#0F172A"/>
</svg>
