<svg xmlns="http://www.w3.org/2000/svg" viewBox="0 0 378.52 99.25"><defs><style>.cls-1{fill:#fff;}</style></defs><g id="Layer_2" data-name="Layer 2"><g id="Layer_1-2" data-name="Layer 1"><path class="cls-1" d="M68.46,56.63c0-10.47,7.79-18.47,18.72-18.47a19,19,0,0,1,11.45,3.63,49.64,49.64,0,1,0-5.94,32.48,20.43,20.43,0,0,1-5.51.74C76.19,75,68.46,67,68.46,56.63ZM39.76,74.15H21.44V65.62h4V36h-4V27.5H39.76c15.13,0,23.72,9.73,23.72,23.33C63.48,65.29,54.89,74.15,39.76,74.15Z"/><path class="cls-1" d="M87.18,47.43c-5.2,0-8.86,3.93-8.86,9.2s3.66,9.12,8.86,9.12S96,61.82,96,56.63,92.38,47.43,87.18,47.43Z"/><path class="cls-1" d="M39.76,36.5H35.23V65.22h4.53c8.53,0,13.46-5.46,13.46-14.39C53.22,42.3,48.36,36.5,39.76,36.5Z"/><path class="cls-1" d="M372,62.53a6.55,6.55,0,1,0,6.54,6.55A6.55,6.55,0,0,0,372,62.53Z"/><path class="cls-1" d="M132.72,36.23c5.33,0,10.13,2.67,12.19,7.6h10.6c-3.13-11.13-12.13-17.19-22.79-17.19-14.26,0-24.12,10.52-24.12,24.19s9.86,24.25,24.12,24.25c10.66,0,19.66-6,22.79-17.19h-10.6c-2.19,5.06-7.13,7.53-12.19,7.53-8,0-13.86-6.2-13.86-14.59S124.72,36.23,132.72,36.23Z"/><path class="cls-1" d="M178.87,38.16c-10.93,0-18.72,8-18.72,18.47S167.88,75,178.87,75s18.66-8,18.66-18.38S189.87,38.16,178.87,38.16Zm0,27.59c-5.19,0-8.86-3.93-8.86-9.12s3.67-9.2,8.86-9.2,8.8,3.93,8.8,9.2S184.07,65.75,178.87,65.75Z"/><path class="cls-1" d="M222.76,38.16a10.09,10.09,0,0,0-8.53,4.07h-.67V39h-9.72V74.15h9.72V53.76a5.91,5.91,0,0,1,6-6.2c3.4,0,5.8,2.6,5.8,6.13V74.15h9.73V50.56A12,12,0,0,0,222.76,38.16Z"/><path class="cls-1" d="M255.92,29.43h-9.06V39H240.4v8.6h5.8V63.29c0,7.66,3.93,10.86,11,10.86h7.66V65.42h-6.72c-1.6,0-2.21-.66-2.21-2.2V47.63h9.34V39h-9.34Z"/><path class="cls-1" d="M282.17,43.7h-.67V39h-9.59V74.15h9.65V57.69c0-6.53,3.47-9.86,8.8-9.86H294V38.16h-2.8A10.37,10.37,0,0,0,282.17,43.7Z"/><path class="cls-1" d="M315.67,38.16c-10.93,0-18.73,8-18.73,18.47S304.67,75,315.67,75s18.66-8,18.66-18.38S326.66,38.16,315.67,38.16Zm0,27.59c-5.2,0-8.87-3.93-8.87-9.12s3.67-9.2,8.87-9.2,8.79,3.93,8.79,9.2S320.86,65.75,315.67,65.75Z"/><polygon class="cls-1" points="353.16 24.17 337.3 24.17 337.3 32.84 343.43 32.84 343.43 65.48 337.3 65.48 337.3 74.15 359.29 74.15 359.29 65.48 353.16 65.48 353.16 24.17"/></g></g></svg>