<?xml version="1.0" encoding="utf-8"?>
<!-- Generator: Adobe Illustrator 26.2.1, SVG Export Plug-In . SVG Version: 6.00 Build 0)  -->
<svg version="1.1" id="Layer_1" xmlns="http://www.w3.org/2000/svg" xmlns:xlink="http://www.w3.org/1999/xlink" x="0px" y="0px"
	 viewBox="0 0 378.519989 99.25" enable-background="new 0 0 378.519989 99.25" xml:space="preserve">
<path fill="none" d="M315.6700134,47.4300003c-5.2000122,0-8.8699951,3.9300003-8.8699951,9.2000008
	S310.4700317,65.75,315.6700134,65.75s8.7900085-3.9300003,8.7900085-9.1199989S320.8599854,47.4300003,315.6700134,47.4300003z"/>
<path fill="none" d="M178.8699951,47.4300003c-5.1900024,0-8.8600006,3.9300003-8.8600006,9.2000008
	S173.6799927,65.75,178.8699951,65.75s8.8000031-3.9300003,8.8000031-9.1199989S184.0700073,47.4300003,178.8699951,47.4300003z"/>
<path fill="#2BCC96" d="M87.1800003,47.4300003c-5.1999969,0-8.8600006,3.9300003-8.8600006,9.2000008
	S81.9800034,65.75,87.1800003,65.75S96,61.8199997,96,56.6300011S92.3799973,47.4300003,87.1800003,47.4300003z"/>
<path fill="#2BCC96" d="M39.7599983,36.5h-4.5299988v28.7200012h4.5299988c8.5299988,0,13.4599991-5.4599991,13.4599991-14.3899994
	C53.2200012,42.2999992,48.3600006,36.5,39.7599983,36.5z"/>
<path fill="#2BCC96" d="M68.4599991,56.6300011c0-10.4700012,7.7900009-18.4699974,18.7200012-18.4699974
	c4.1087875-0.060009,8.1262894,1.213665,11.4499969,3.6300011C94.3121185,14.716754,68.8645859-3.7301214,41.7913322,0.587755
	S-3.7287936,30.3531685,0.5890828,57.4264183s29.7654133,45.5201302,56.8386612,41.2022514
	c14.8342476-2.3658981,27.7992592-11.3219452,35.262249-24.3586655c-1.7943726,0.496582-3.6481934,0.7455521-5.5100021,0.7399979
	C76.1900024,75,68.4599991,67,68.4599991,56.6300011z M39.7599983,74.1500015H21.4400005v-8.5299988h4V36h-4v-8.5h18.3199978
	c15.1300011,0,23.7199974,9.7299995,23.7199974,23.3300018C63.4799995,65.2900009,54.8899994,74.1500015,39.7599983,74.1500015z"/>
<ellipse transform="matrix(0.9732591 -0.22971 0.22971 0.9732591 -5.9247518 87.2955017)" fill="#2BCC96" cx="371.9812927" cy="69.0952072" rx="6.5499878" ry="6.5500021"/>
<path fill="#FFFFFF" d="M132.7200012,36.2299995c5.3300018,0,10.1300049,2.670002,12.1900024,7.5999985h10.6000061
	c-3.1300049-11.1300011-12.1300049-17.1900005-22.7900085-17.1900005c-14.2600021,0-24.1200027,10.5199986-24.1200027,24.1900005
	s9.8600006,24.2500038,24.1200027,24.2500038c10.6600037,0,19.6600037-6,22.7900085-17.1900024h-10.6000061
	c-2.1900024,5.0600014-7.1300049,7.5299988-12.1900024,7.5299988c-8,0-13.8600006-6.2000008-13.8600006-14.5900002
	S124.7200012,36.2299995,132.7200012,36.2299995z"/>
<path fill="#FFFFFF" d="M178.8699951,38.1599998c-10.9299927,0-18.7200012,8-18.7200012,18.4699974S167.8800049,75,178.8699951,75
	s18.6600037-8,18.6600037-18.3799973S189.8699951,38.1599998,178.8699951,38.1599998z M178.8699951,65.75
	c-5.1900024,0-8.8600006-3.9300003-8.8600006-9.1199989s3.6699982-9.2000008,8.8600006-9.2000008
	s8.8000031,3.9300003,8.8000031,9.2000008S184.0700073,65.75,178.8699951,65.75z"/>
<path fill="#FFFFFF" d="M222.7599945,38.1599998c-3.3422089-0.1412125-6.5371399,1.383213-8.5299988,4.0699997h-0.6699982V39
	h-9.7200012v35.1500015h9.7200012V53.7599983c-0.1605988-3.2600479,2.3519897-6.0330353,5.6120453-6.1936417
	c0.1292114-0.0063667,0.258606-0.0084877,0.3879547-0.0063591c3.3999939,0,5.8000031,2.5999985,5.8000031,6.1300011v20.4600029
	h9.7299957V50.5600014c0.223526-6.6236458-4.964798-12.1743774-11.5884399-12.3979034
	C223.2544403,38.153759,223.0071411,38.1530609,222.7599945,38.1599998z"/>
<path fill="#FFFFFF" d="M255.9199982,29.4300003h-9.0599976V39h-6.4600067v8.5999985h5.8000031v15.6900024
	c0,7.659996,3.9299927,10.8600006,11.0000153,10.8600006h7.6600037v-8.7300034h-6.7200012
	c-1.6000061,0-2.2100067-0.6600037-2.2100067-2.2000008V47.6300011h9.3400116V39h-9.3399963L255.9199982,29.4300003z"/>
<path fill="#FFFFFF" d="M282.1700134,43.7000008H281.5V39h-9.5899963v35.1500015h9.6499939V57.6899986
	c0-6.5299988,3.4700012-9.8600006,8.7999878-9.8600006H294v-9.6699982h-2.7999878
	C287.4026489,38.2138519,283.9384766,40.3391495,282.1700134,43.7000008z"/>
<path fill="#FFFFFF" d="M315.6700134,38.1599998c-10.9299927,0-18.730011,8-18.730011,18.4699974S304.6700134,75,315.6700134,75
	s18.6600037-8,18.6600037-18.3799973S326.6600037,38.1599998,315.6700134,38.1599998z M315.6700134,65.75
	c-5.2000122,0-8.8699951-3.9300003-8.8699951-9.1199989s3.6700134-9.2000008,8.8699951-9.2000008
	s8.7900085,3.9300003,8.7900085,9.2000008S320.8599854,65.75,315.6700134,65.75z"/>
<polygon fill="#FFFFFF" points="353.1600037,24.1700001 337.2999878,24.1700001 337.2999878,32.8400002 343.4299927,32.8400002 
	343.4299927,65.4800034 337.2999878,65.4800034 337.2999878,74.1500015 359.2900085,74.1500015 359.2900085,65.4800034 
	353.1600037,65.4800034 "/>
</svg>
