<svg width="724" height="175" viewBox="0 0 724 175" fill="none" xmlns="http://www.w3.org/2000/svg">
<title>IsDown Logo</title>
<path d="M187.403 37.6H206.857V137H187.403V37.6ZM272.836 110.304C272.836 107.275 271.7 104.813 269.428 102.92C267.25 101.027 264.458 99.3227 261.05 97.808C257.736 96.1987 254.092 94.5893 250.116 92.98C246.234 91.276 242.59 89.2407 239.182 86.874C235.868 84.4127 233.076 81.3833 230.804 77.786C228.626 74.1887 227.538 69.5973 227.538 64.012C227.538 59.184 228.342 55.0187 229.952 51.516C231.561 47.9187 233.833 44.9367 236.768 42.57C239.797 40.2033 243.347 38.452 247.418 37.316C251.488 36.18 256.032 35.612 261.05 35.612C266.824 35.612 272.268 36.1327 277.38 37.174C282.492 38.1207 286.704 39.5407 290.018 41.434L283.912 57.764C281.829 56.4387 278.705 55.2553 274.54 54.214C270.374 53.078 265.878 52.51 261.05 52.51C256.506 52.51 253.003 53.4093 250.542 55.208C248.175 57.0067 246.992 59.4207 246.992 62.45C246.992 65.29 248.08 67.6567 250.258 69.55C252.53 71.4433 255.322 73.1947 258.636 74.804C262.044 76.4133 265.688 78.07 269.57 79.774C273.546 81.478 277.19 83.5607 280.504 86.022C283.912 88.3887 286.704 91.3707 288.882 94.968C291.154 98.4707 292.29 102.873 292.29 108.174C292.29 113.475 291.39 118.067 289.592 121.948C287.888 125.735 285.426 128.906 282.208 131.462C279.084 134.018 275.25 135.911 270.706 137.142C266.256 138.373 261.334 138.988 255.938 138.988C248.838 138.988 242.59 138.325 237.194 137C231.798 135.675 227.822 134.349 225.266 133.024L231.514 116.41C232.555 116.978 233.88 117.593 235.49 118.256C237.194 118.919 239.087 119.534 241.17 120.102C243.252 120.67 245.43 121.143 247.702 121.522C250.068 121.901 252.482 122.09 254.944 122.09C260.718 122.09 265.12 121.143 268.15 119.25C271.274 117.262 272.836 114.28 272.836 110.304ZM309.295 37.6C311.283 37.316 313.508 37.0793 315.969 36.89C318.525 36.7007 321.128 36.5587 323.779 36.464C326.43 36.3693 328.986 36.322 331.447 36.322C334.003 36.2273 336.275 36.18 338.263 36.18C347.067 36.18 354.593 37.4107 360.841 39.872C367.089 42.3333 372.154 45.7887 376.035 50.238C379.916 54.6873 382.756 59.9887 384.555 66.142C386.354 72.2953 387.253 79.064 387.253 86.448C387.253 93.1693 386.401 99.654 384.697 105.902C382.993 112.15 380.153 117.688 376.177 122.516C372.201 127.344 366.947 131.225 360.415 134.16C353.978 137.095 345.978 138.562 336.417 138.562C334.902 138.562 332.867 138.515 330.311 138.42C327.85 138.325 325.246 138.183 322.501 137.994C319.85 137.899 317.294 137.757 314.833 137.568C312.372 137.473 310.526 137.331 309.295 137.142V37.6ZM339.825 53.504C337.742 53.504 335.612 53.5513 333.435 53.646C331.352 53.7407 329.79 53.8827 328.749 54.072V120.67C329.128 120.765 329.743 120.859 330.595 120.954C331.542 120.954 332.536 121.001 333.577 121.096C334.618 121.096 335.612 121.143 336.559 121.238C337.506 121.238 338.216 121.238 338.689 121.238C344.18 121.238 348.724 120.291 352.321 118.398C356.013 116.41 358.9 113.807 360.983 110.588C363.16 107.369 364.675 103.677 365.527 99.512C366.379 95.252 366.805 90.8973 366.805 86.448C366.805 82.5667 366.426 78.6853 365.669 74.804C364.912 70.828 363.492 67.278 361.409 64.154C359.421 61.03 356.676 58.474 353.173 56.486C349.67 54.498 345.221 53.504 339.825 53.504ZM402.155 87.3C402.155 70.7333 405.8 58.0007 413.089 49.102C420.379 40.1087 430.792 35.612 444.329 35.612C451.429 35.612 457.63 36.8427 462.931 39.304C468.233 41.7653 472.635 45.268 476.137 49.812C479.64 54.356 482.243 59.7993 483.947 66.142C485.651 72.4847 486.503 79.5373 486.503 87.3C486.503 103.867 482.811 116.647 475.427 125.64C468.138 134.539 457.772 138.988 444.329 138.988C437.135 138.988 430.887 137.757 425.585 135.296C420.284 132.835 415.882 129.332 412.379 124.788C408.971 120.244 406.415 114.801 404.711 108.458C403.007 102.115 402.155 95.0627 402.155 87.3ZM422.603 87.3C422.603 92.3173 423.029 96.956 423.881 101.216C424.733 105.381 426.011 108.979 427.715 112.008C429.514 115.037 431.786 117.404 434.531 119.108C437.277 120.812 440.543 121.664 444.329 121.664C451.24 121.664 456.589 118.966 460.375 113.57C464.162 108.174 466.055 99.4173 466.055 87.3C466.055 82.472 465.629 77.9753 464.777 73.81C464.02 69.6447 462.789 66 461.085 62.876C459.381 59.752 457.157 57.338 454.411 55.634C451.666 53.8353 448.305 52.936 444.329 52.936C437.419 52.936 432.07 55.7287 428.283 61.314C424.497 66.8047 422.603 75.4667 422.603 87.3ZM526.275 93.122L528.121 110.73H528.689L530.677 92.838L548.001 37.6H560.781L577.821 93.122L579.809 110.73H580.377L582.507 92.838L594.577 37.6H614.315L586.909 137.71H573.845L556.095 82.472L553.681 67.278H552.971L550.557 82.614L532.949 137.71H519.175L491.911 37.6H513.069L526.275 93.122ZM651.631 85.17L643.821 69.55H643.111L645.383 85.17V137H626.923V36.89H641.123L678.753 89.856L686.279 105.05H686.989L684.717 89.856V37.6H703.177V137.71H688.977L651.631 85.17Z" fill="black"/>
<path opacity="0.6" fill-rule="evenodd" clip-rule="evenodd" d="M89.8581 146.938L150.211 26.02H29.5056L89.8581 146.938Z" fill="#DE0303"/>
<path fill-rule="evenodd" clip-rule="evenodd" d="M71.7524 146.938L123.387 43.4859H20.1175L71.7524 146.938Z" fill="#DE0303"/>
</svg>
