<svg fill="none" height="400" viewBox="0 0 400 400" width="400" xmlns="http://www.w3.org/2000/svg" xmlns:xlink="http://www.w3.org/1999/xlink"><filter id="a" color-interpolation-filters="sRGB" filterUnits="userSpaceOnUse" height="571.12" width="490.437" x="203.006" y="132.728"><feFlood flood-opacity="0" result="BackgroundImageFix"/><feBlend in="SourceGraphic" in2="BackgroundImageFix" mode="normal" result="shape"/><feGaussianBlur result="effect1_foregroundBlur_575_5340" stdDeviation="52.85"/></filter><filter id="b" color-interpolation-filters="sRGB" filterUnits="userSpaceOnUse" height="363.8" width="473.8" x="-51.9" y="-177.9"><feFlood flood-opacity="0" result="BackgroundImageFix"/><feBlend in="SourceGraphic" in2="BackgroundImageFix" mode="normal" result="shape"/><feGaussianBlur result="effect1_foregroundBlur_575_5340" stdDeviation="48.45"/></filter><filter id="c" color-interpolation-filters="sRGB" filterUnits="userSpaceOnUse" height="554.641" width="595.383" x="82.6754" y="-93.1869"><feFlood flood-opacity="0" result="BackgroundImageFix"/><feBlend in="SourceGraphic" in2="BackgroundImageFix" mode="normal" result="shape"/><feGaussianBlur result="effect1_foregroundBlur_575_5340" stdDeviation="73.75"/></filter><linearGradient id="d" gradientUnits="userSpaceOnUse" x1="101.282" x2="258.974" y1="301.282" y2=".000007"><stop offset="0" stop-color="#541af3"/><stop offset="1" stop-color="#b287f9"/></linearGradient><radialGradient id="e" cx="0" cy="0" gradientTransform="matrix(-342.94935377 -532.05125576 0 -0 669.872 827.564)" gradientUnits="userSpaceOnUse" r="1"><stop offset=".572806" stop-color="#e25234"/><stop offset="1" stop-color="#d66067" stop-opacity="0"/></radialGradient><clipPath id="f"><path d="m0 0h400v400h-400z"/></clipPath><clipPath id="g"><path d="m75 75h250v250h-250z"/></clipPath><g clip-path="url(#f)"><path d="m0 0h400v400h-400z" fill="url(#d)"/><path d="m0 0h400v400h-400z" fill="url(#e)"/><g filter="url(#a)"><ellipse cx="182.123" cy="136.464" fill="#f55c15" rx="182.123" ry="136.464" transform="matrix(.258584 -.965989 .962085 .27275 269.841 556.997)"/></g><g filter="url(#b)"><ellipse cx="185" cy="4" fill="#b997ff" rx="140" ry="85"/></g><g filter="url(#c)"><ellipse cx="88.2292" cy="177.794" fill="#f55c15" rx="88.2292" ry="177.794" transform="matrix(.576324 -.817221 .79462 .607107 188.24 148.297)"/></g><g clip-path="url(#g)" fill="#fff"><path d="m233.698 75.6502c-10.511-2.8163-21.224 3.7942-23.422 14.4515l-9.97 48.3573c-6.512 31.587-31.188 56.275-62.772 62.802l-47.4364 9.804c-10.656 2.202-17.2634 12.916-14.4472 23.427 2.8166 10.511 13.898 16.486 24.2282 13.063l46.1634-15.296c30.693-10.17 64.495-1.113 85.991 23.041l32.333 36.332c7.233 8.128 19.815 8.494 27.508.8 7.695-7.695 7.327-20.279-.803-27.511l-36.568-32.528c-24.22-21.545-33.302-55.434-23.101-86.203l15.355-46.3165c3.424-10.3274-2.549-21.4073-13.059-24.2233z"/><path d="m108.052 136.141c-8.5959-7.776-8.9304-21.165-.734-29.361 8.196-8.1966 21.585-7.8621 29.362.733l24.448 27.023c6.595 7.289 6.316 18.469-.635 25.419-6.95 6.951-18.13 7.23-25.419.635z"/><path d="m298.167 151.082c11.033-3.555 22.795 2.849 25.795 14.046 3 11.196-3.984 22.624-15.316 25.061l-35.627 7.662c-9.609 2.067-19.152-3.765-21.696-13.26-2.544-9.494 2.804-19.316 12.16-22.331z"/><path d="m189.254 308.987c-2.437 11.333-13.864 18.317-25.061 15.316-11.196-3-17.601-14.762-14.045-25.794l11.178-34.685c3.015-9.356 12.836-14.704 22.331-12.16 9.494 2.545 15.326 12.087 13.26 21.697z"/></g></g></svg>