<svg width="142" height="52" viewBox="0 0 142 52" fill="none" xmlns="http://www.w3.org/2000/svg">
<path d="M62.0003 31.3789V20.5041C61.9999 20.4407 62.0135 20.3779 62.04 20.3203C62.0664 20.2627 62.1052 20.2116 62.1535 20.1706C62.2635 20.0771 62.4044 20.0283 62.5485 20.0338H65.6007C66.505 19.9897 67.3925 20.2897 68.0856 20.8736C68.708 21.4351 69.0192 22.3198 69.0192 23.5275V23.6739C69.0192 24.8833 68.7 25.7703 68.0616 26.335C67.3553 26.9246 66.4542 27.2277 65.5361 27.1844H63.3576V31.3789C63.3594 31.4508 63.3417 31.5218 63.3063 31.5844C63.2708 31.647 63.2191 31.6987 63.1565 31.734C63.0114 31.8197 62.8461 31.8649 62.6777 31.8649C62.5093 31.8649 62.344 31.8197 62.199 31.734C62.1365 31.6988 62.0849 31.647 62.0499 31.5844C62.0148 31.5217 61.9977 31.4506 62.0003 31.3789ZM63.3552 26.0543H65.5456C65.8336 26.072 66.1221 26.0301 66.3932 25.931C66.6642 25.8319 66.9119 25.6778 67.1208 25.4784C67.5259 25.0012 67.7257 24.3825 67.6762 23.7579V23.5587C67.7257 22.9341 67.5259 22.3154 67.1208 21.8382C66.9118 21.6391 66.664 21.4854 66.3929 21.3867C66.1219 21.288 65.8334 21.2465 65.5456 21.2648H63.3672L63.3552 26.0543Z" fill="#FF6C37"/>
<path d="M73.7592 28.4322V23.5587C73.7592 22.343 74.0744 21.4511 74.7048 20.8832C75.4347 20.3333 76.3231 20.0359 77.2363 20.0359C78.1495 20.0359 79.0379 20.3333 79.7679 20.8832C80.4062 21.4495 80.7254 22.3414 80.7254 23.5587V28.4322C80.7254 29.6512 80.4062 30.5438 79.7679 31.1101C79.0386 31.6648 78.1482 31.965 77.2327 31.965C76.3172 31.965 75.4269 31.6648 74.6976 31.1101C74.0704 30.5414 73.7592 29.656 73.7592 28.4322ZM75.1189 28.4322C75.1189 29.9647 75.8227 30.731 77.2303 30.731C77.5182 30.7504 77.807 30.7094 78.0782 30.6107C78.3495 30.5119 78.5972 30.3576 78.8055 30.1575C79.2086 29.6773 79.408 29.058 79.3609 28.4322V23.5587C79.3859 23.2494 79.3497 22.9382 79.2544 22.643C79.1591 22.3477 79.0066 22.0742 78.8055 21.8383C78.5965 21.6391 78.3487 21.4854 78.0776 21.3867C77.8066 21.288 77.5181 21.2465 77.2303 21.2648C75.8211 21.2648 75.1173 22.0294 75.1189 23.5587V28.4322Z" fill="#FF6C37"/>
<path d="M85.5229 30.1983C85.5271 30.0152 85.592 29.8388 85.7072 29.6968C85.7506 29.6294 85.8088 29.5729 85.8772 29.5313C85.9456 29.4897 86.0225 29.4643 86.1022 29.4568C86.2451 29.4815 86.3757 29.5533 86.4732 29.6608C86.6217 29.7951 86.7797 29.9463 86.9401 30.1119C87.16 30.3164 87.4212 30.4711 87.7061 30.5654C88.083 30.7076 88.4837 30.776 88.8863 30.767C89.4753 30.8027 90.0574 30.6246 90.5261 30.2655C90.7326 30.0777 90.8938 29.8453 90.9975 29.5859C91.1012 29.3265 91.1446 29.0469 91.1246 28.7681C91.1348 28.5037 91.0917 28.24 90.9979 27.9926C90.9041 27.7452 90.7616 27.5193 90.5788 27.3284C90.2039 26.9528 89.7523 26.663 89.255 26.479C88.7355 26.287 88.2184 26.0854 87.6774 25.8551C87.1553 25.6337 86.6975 25.2838 86.3464 24.8377C85.9659 24.3272 85.7723 23.7011 85.7982 23.0644C85.7881 22.5523 85.8988 22.045 86.1213 21.5839C86.3101 21.1865 86.6105 20.853 86.9855 20.6241C87.3352 20.4115 87.7132 20.2499 88.1083 20.1442C88.5141 20.0449 88.9306 19.9966 89.3483 20.0002C89.9977 19.9961 90.6438 20.0932 91.2635 20.2881C91.8715 20.4849 92.1779 20.7536 92.1779 21.0776C92.169 21.2496 92.1126 21.4157 92.0151 21.5575C91.9754 21.6355 91.9151 21.7011 91.8409 21.7472C91.7666 21.7933 91.6812 21.8181 91.5938 21.819C91.348 21.74 91.108 21.6437 90.8756 21.5311C90.4035 21.3204 89.8914 21.2148 89.3747 21.2216C88.819 21.1992 88.269 21.3401 87.7923 21.6271C87.5915 21.7701 87.4312 21.9629 87.3271 22.1867C87.2231 22.4105 87.1788 22.6575 87.1986 22.9036C87.1865 23.1339 87.2283 23.3638 87.3206 23.575C87.4129 23.7862 87.5531 23.9729 87.73 24.1202C88.1253 24.4443 88.5764 24.6931 89.0611 24.8545C89.5853 25.0392 90.1048 25.2504 90.6362 25.4856C91.1679 25.7434 91.6221 26.1374 91.9529 26.6277C92.3384 27.2207 92.5301 27.9194 92.5011 28.6266C92.5011 29.74 92.1779 30.5774 91.5316 31.1461C90.8117 31.7382 89.8979 32.041 88.9677 31.9955C88.1184 32.0224 87.2782 31.8131 86.5403 31.3908C85.846 30.9853 85.5229 30.5894 85.5229 30.1983Z" fill="#FF6C37"/>
<path d="M96.5348 20.6337C96.5311 20.4833 96.5765 20.3359 96.6641 20.2137C96.7016 20.1547 96.7543 20.1069 96.8166 20.0752C96.879 20.0435 96.9486 20.0292 97.0183 20.0338H103.59C103.659 20.029 103.729 20.0432 103.792 20.0748C103.854 20.1065 103.907 20.1545 103.944 20.2137C104.03 20.3365 104.077 20.4833 104.076 20.6337C104.078 20.7909 104.032 20.9451 103.944 21.0752C103.908 21.136 103.855 21.1858 103.793 21.2192C103.731 21.2526 103.66 21.2683 103.59 21.2647H101.002V31.3788C101.004 31.4509 100.987 31.5221 100.951 31.5848C100.916 31.6475 100.864 31.6991 100.801 31.734C100.656 31.8197 100.49 31.8648 100.322 31.8648C100.154 31.8648 99.9882 31.8197 99.8432 31.734C99.7806 31.6987 99.7288 31.647 99.6934 31.5844C99.658 31.5218 99.6402 31.4508 99.6421 31.3788V21.2647H97.0303C96.9603 21.2693 96.8904 21.2548 96.828 21.2226C96.7656 21.1905 96.7131 21.1421 96.676 21.0824C96.5825 20.9517 96.533 20.7945 96.5348 20.6337Z" fill="#FF6C37"/>
<path d="M108.67 31.3789V20.7153C108.644 20.5616 108.68 20.4041 108.769 20.2769C108.859 20.1497 108.995 20.0632 109.148 20.0362C109.219 20.0242 109.291 20.0242 109.361 20.0362C109.79 20.0362 110.149 20.3217 110.446 20.8928L112.979 25.7663L115.53 20.8928C115.85 20.3217 116.21 20.0362 116.61 20.0362C116.763 20.0118 116.919 20.0484 117.044 20.1382C117.17 20.2279 117.256 20.3637 117.283 20.5161C117.292 20.5725 117.292 20.6301 117.283 20.6865V31.3477C117.284 31.4195 117.266 31.4903 117.231 31.5528C117.195 31.6153 117.144 31.6671 117.082 31.7028C116.937 31.7892 116.771 31.8348 116.603 31.8348C116.434 31.8348 116.269 31.7892 116.124 31.7028C116.062 31.6671 116.01 31.6153 115.975 31.5528C115.94 31.4903 115.922 31.4195 115.923 31.3477V22.8797L113.486 27.4772C113.448 27.5891 113.376 27.6866 113.281 27.7569C113.187 27.8272 113.073 27.8669 112.955 27.8707C112.841 27.8634 112.733 27.8219 112.644 27.7516C112.554 27.6814 112.488 27.5857 112.454 27.4772L110.024 22.8005V31.3789C110.026 31.4508 110.009 31.5218 109.973 31.5844C109.938 31.647 109.886 31.6987 109.823 31.734C109.686 31.8276 109.525 31.8793 109.359 31.8827C109.194 31.8861 109.03 31.8411 108.89 31.7532C108.82 31.7196 108.762 31.6661 108.723 31.5995C108.684 31.5329 108.665 31.4561 108.67 31.3789Z" fill="#FF6C37"/>
<path d="M121.927 31.3045C121.929 31.2589 121.939 31.2141 121.958 31.1725L125.262 20.5113C125.355 20.1994 125.628 20.0314 126.083 20.0314C126.538 20.0314 126.813 20.1898 126.906 20.5113L130.222 31.2253C130.22 31.2444 130.22 31.2638 130.222 31.2829C130.227 31.2985 130.227 31.3152 130.222 31.3309C130.218 31.4146 130.192 31.4958 130.145 31.5656C130.099 31.6353 130.034 31.6911 129.959 31.7268C129.781 31.8353 129.575 31.8895 129.367 31.8828C129.265 31.8958 129.161 31.8728 129.074 31.8176C128.986 31.7625 128.921 31.6786 128.888 31.5804L128.17 29.2097H123.943L123.224 31.5804C123.193 31.6826 123.125 31.7701 123.035 31.8273C122.945 31.8844 122.837 31.9075 122.731 31.8924C122.538 31.8919 122.348 31.8352 122.186 31.7292C122.106 31.6906 122.04 31.6301 121.994 31.5548C121.948 31.4795 121.925 31.3927 121.927 31.3045ZM124.271 28.0603H127.895L126.076 22.011L124.271 28.0603Z" fill="#FF6C37"/>
<path d="M134.907 31.3789V20.5041C134.907 20.1922 135.132 20.0242 135.584 20.0242C135.794 20.0196 135.999 20.0912 136.161 20.2258C136.352 20.4137 136.507 20.6359 136.616 20.8808L140.64 28.7778V20.4945C140.639 20.4237 140.657 20.3539 140.693 20.2927C140.728 20.2314 140.779 20.1809 140.841 20.1466C140.988 20.0666 141.153 20.0246 141.32 20.0246C141.487 20.0246 141.652 20.0666 141.799 20.1466C141.86 20.1817 141.911 20.2323 141.946 20.2934C141.981 20.3545 142 20.4239 142 20.4945V31.3789C142.002 31.4508 141.984 31.5218 141.949 31.5844C141.913 31.647 141.861 31.6987 141.799 31.734C141.656 31.8243 141.489 31.8695 141.32 31.8636C141.133 31.8557 140.952 31.7932 140.801 31.6836C140.649 31.574 140.532 31.4221 140.465 31.2469L136.274 23.11V31.3789C136.276 31.4509 136.258 31.5222 136.223 31.5848C136.187 31.6475 136.135 31.6991 136.073 31.734C135.927 31.8197 135.762 31.8649 135.594 31.8649C135.425 31.8649 135.26 31.8197 135.115 31.734C135.051 31.6992 134.998 31.6479 134.962 31.5853C134.925 31.5228 134.906 31.4514 134.907 31.3789Z" fill="#FF6C37"/>
<path d="M29.3116 0.211787C24.211 -0.443214 19.0308 0.42903 14.426 2.71821C9.82115 5.0074 5.99859 8.6107 3.44169 13.0724C0.88479 17.5342 -0.291593 22.6539 0.0613075 27.7843C0.414208 32.9146 2.28054 37.8251 5.42429 41.8947C8.56803 45.9643 12.848 49.0102 17.7229 50.6473C22.5978 52.2844 27.8487 52.4391 32.8115 51.0919C37.7743 49.7446 42.2262 46.956 45.6041 43.0785C48.982 39.2011 51.1342 34.409 51.7886 29.3084C52.6659 22.4694 50.7908 15.5619 46.5756 10.1054C42.3605 4.6488 36.1505 1.09002 29.3116 0.211787Z" fill="#FF6C37"/>
<path d="M18.7972 27.6432C18.8073 27.6638 18.8242 27.6802 18.8451 27.6897C18.866 27.6992 18.8895 27.7011 18.9116 27.6952L23.0716 26.7982L21.3218 25.025L18.8284 27.5184C18.8088 27.5317 18.7947 27.5518 18.7889 27.5748C18.7832 27.5978 18.7861 27.6222 18.7972 27.6432Z" fill="white"/>
<path d="M38.2764 9.78121C37.6967 9.7818 37.1244 9.91241 36.6019 10.1634C36.0793 10.4144 35.6197 10.7795 35.2569 11.2316C34.894 11.6838 34.6372 12.2116 34.5054 12.7761C34.3735 13.3407 34.37 13.9276 34.495 14.4937C34.62 15.0598 34.8704 15.5906 35.2277 16.0472C35.585 16.5037 36.0402 16.8743 36.5597 17.1316C37.0791 17.3889 37.6497 17.5264 38.2294 17.5341C38.8091 17.5417 39.3831 17.4192 39.9092 17.1756L37.2728 14.5392C37.2425 14.509 37.2185 14.4732 37.2021 14.4337C37.1858 14.3942 37.1773 14.3519 37.1773 14.3091C37.1773 14.2664 37.1858 14.224 37.2021 14.1845C37.2185 14.1451 37.2425 14.1092 37.2728 14.079L40.7178 10.6366C40.026 10.0803 39.1641 9.77839 38.2764 9.78121Z" fill="white"/>
<path d="M41.191 11.0838L37.9618 14.3L40.4942 16.8324C40.6807 16.7014 40.8548 16.5534 41.0142 16.3904C41.7082 15.6916 42.1122 14.7562 42.145 13.7718C42.1778 12.7875 41.837 11.8272 41.191 11.0838Z" fill="white"/>
<path d="M34.73 17.0196H34.6728C34.6056 17.0191 34.5386 17.0252 34.4726 17.0378H34.4492C34.3767 17.0534 34.3055 17.0743 34.236 17.1002L34.1814 17.1262C34.1291 17.148 34.0787 17.1741 34.0306 17.2042L33.9734 17.2406C33.9105 17.284 33.8513 17.3327 33.7966 17.3862L24.2208 26.9646L25.4064 28.1502L35.5464 19.2504C35.6037 19.2001 35.6559 19.1444 35.7024 19.084L35.7466 19.0268C35.7812 18.976 35.8125 18.923 35.8402 18.8682C35.8558 18.837 35.8688 18.8058 35.8818 18.7746C35.8993 18.7331 35.914 18.6906 35.926 18.6472C35.926 18.616 35.9442 18.5848 35.952 18.5536C35.9648 18.4892 35.9735 18.4241 35.978 18.3586V18.2728C35.978 18.226 35.978 18.1792 35.978 18.1324C35.978 18.0856 35.978 18.07 35.965 18.0388C35.9169 17.7934 35.7971 17.5678 35.6208 17.3906C35.4445 17.2133 35.2195 17.0923 34.9744 17.043H34.925C34.8606 17.0306 34.7955 17.0228 34.73 17.0196Z" fill="white"/>
<path d="M21.769 24.5648L23.7346 26.52L33.3364 16.9182C33.6488 16.6128 34.056 16.4229 34.4908 16.38C32.793 15.08 30.9418 15.4206 21.769 24.5648Z" fill="white"/>
<path d="M36.0872 19.6248L35.9702 19.7392L25.8302 28.6364L27.554 30.3576C31.8284 26.3146 35.6218 22.464 36.0872 19.6248Z" fill="white"/>
<path d="M10.7945 40.469C10.7997 40.4874 10.8106 40.5038 10.8254 40.5159C10.8403 40.528 10.8585 40.5352 10.8777 40.5366L15.2977 40.8408L12.8199 38.363L10.8153 40.365C10.8023 40.3785 10.7934 40.3955 10.7897 40.4139C10.786 40.4324 10.7877 40.4515 10.7945 40.469Z" fill="white"/>
<path d="M13.2826 37.9028L15.8956 40.5158C15.9266 40.5489 15.9681 40.5704 16.0131 40.5765C16.0581 40.5827 16.1038 40.5732 16.1426 40.5496C16.1831 40.5295 16.2154 40.4959 16.2339 40.4547C16.2524 40.4134 16.256 40.367 16.244 40.3234L15.8046 38.4462C15.7762 38.3245 15.7891 38.1968 15.8414 38.0833C15.8936 37.9699 15.9823 37.877 16.0932 37.8196C20.6744 35.5238 24.369 33.1604 27.0808 30.7996L25.2608 28.9796L21.3608 29.8194L13.2826 37.9028Z" fill="white"/>
<path d="M24.7018 28.4284L23.7242 27.4508L22.3722 28.8002C22.3625 28.8119 22.3571 28.8266 22.3571 28.8418C22.3571 28.857 22.3625 28.8717 22.3722 28.8834C22.3785 28.8973 22.3896 28.9083 22.4035 28.9146C22.4174 28.9208 22.4331 28.9217 22.4476 28.9172L24.7018 28.4284Z" fill="white"/>
<path d="M41.282 13.1794C41.2687 13.1385 41.2467 13.1009 41.2177 13.0692C41.1886 13.0374 41.1531 13.0123 41.1135 12.9954C41.0739 12.9785 41.0311 12.9703 40.9881 12.9713C40.9451 12.9724 40.9028 12.9826 40.864 13.0013C40.8253 13.02 40.791 13.0468 40.7635 13.0799C40.7359 13.1129 40.7158 13.1515 40.7044 13.193C40.693 13.2345 40.6906 13.278 40.6974 13.3205C40.7042 13.363 40.72 13.4035 40.7438 13.4394C40.8215 13.5958 40.8522 13.7713 40.8324 13.9447C40.8126 14.1182 40.743 14.2822 40.632 14.417C40.5955 14.461 40.5723 14.5145 40.5651 14.5712C40.5578 14.628 40.5669 14.6856 40.5911 14.7373C40.6154 14.7891 40.6539 14.8329 40.7021 14.8637C40.7503 14.8944 40.8062 14.9108 40.8634 14.911C40.9075 14.9105 40.9511 14.9005 40.991 14.8817C41.031 14.8628 41.0664 14.8356 41.0948 14.8018C41.2788 14.5781 41.3943 14.306 41.4275 14.0182C41.4607 13.7304 41.4102 13.4392 41.282 13.1794Z" fill="#FF6C37"/>
</svg>
