<?xml version="1.0" encoding="UTF-8"?>
<svg width="105px" height="18px" viewBox="0 0 105 18" version="1.1" xmlns="http://www.w3.org/2000/svg" xmlns:xlink="http://www.w3.org/1999/xlink">
    <title>Black</title>
    <g id="Icons" stroke="none" stroke-width="1" fill="none" fill-rule="evenodd">
        <g id="Assets-&amp;-Resources" transform="translate(-42.000000, -590.000000)" fill="#000000" fill-rule="nonzero">
            <g id="Black" transform="translate(42.000000, 590.000000)">
                <path d="M5.72953911,14.6244007 L5.72953911,16.2174801 C5.72953911,16.5549582 5.35133861,16.7630376 5.05021346,16.5858672 L4.28996878,16.110072 L4.10810606,16.010067 C4.09512216,16.0028839 3.04393151,15.4104756 0.759812208,14.1231121 L0.57839363,14.0216937 C0.399526846,13.921051 0.252790631,13.7770639 0.151385131,13.6032718 C0.0510983437,13.4307924 -0.00109103103,13.2350771 0.000871192764,13.0406113 L0,9.07320527 L0,5.09943202 C0,4.88848135 0.061118315,4.68250548 0.174903108,4.50545569 C0.28745769,4.32782429 0.450439848,4.18186108 0.619838525,4.10204796 L3.922427,2.24158921 L4.10275764,2.13869216 C4.16274614,2.10518805 4.16274614,2.10518805 4.28472445,2.03746056 L7.44798679,0.257314624 L7.6325288,0.150750176 C7.82508064,0.0426306286 8.04288976,-0.00879775591 8.26368429,0.00122969818 C8.47807091,0.0113731822 8.68942624,0.0798694263 8.83758853,0.182667077 L12.1291853,2.03679466 L12.311569,2.13710547 C12.3247598,2.14455328 13.4225756,2.76327225 15.6575894,4.0228828 L15.8400653,4.12462655 C16.0188638,4.22549837 16.1652364,4.36929656 16.2665947,4.54307703 C16.3666458,4.71508555 16.4188259,4.91077676 16.4171445,5.10582057 L16.4178415,8.71851977 C16.4178415,9.05240448 16.0469277,9.26102906 15.7503331,9.09391658 L14.3301312,8.2937219 C14.1926205,8.21624324 14.1079307,8.07318809 14.1079307,7.91838851 L14.1079307,5.74768289 L11.2163379,4.1178325 C11.1913508,4.105761 11.135036,4.07443886 10.9786498,3.98611473 L8.20878486,2.42344532 L5.32697152,4.04581912 C5.29934664,4.06353839 5.29934664,4.06353839 5.28281024,4.07377803 C5.27614386,4.07777934 5.208149,4.1163492 5.07882566,4.18948761 L2.31008507,5.7478445 L2.31008507,12.398546 L5.20305397,14.0289907 C5.22155543,14.0380166 5.26134621,14.0602109 5.44580329,14.164 L5.50541134,14.2155782 L5.55480107,14.2799231 C5.66428934,14.361443 5.72953911,14.4885602 5.72953911,14.6244007 Z M14.1079307,10.5298166 C14.1079307,10.1962619 14.4782661,9.98764897 14.7748355,10.1541438 L16.1950374,10.9514484 C16.3328882,11.0288382 16.4178415,11.172079 16.4178415,11.3271212 L16.4178415,12.6471362 C16.4178415,12.7602471 16.372483,12.8688793 16.2912372,12.9500592 L15.6217218,13.6153428 C15.3706347,13.9281611 15.0020014,14.0526275 14.6730779,13.8679573 L9.39580967,10.8861015 L9.3944884,16.5123557 C9.41303411,16.7234627 9.32359138,16.9299977 9.15355427,17.0635425 C8.98711595,17.1946896 8.98711595,17.1946896 8.18032149,17.8298898 C8.05940973,17.939083 7.9010794,18 7.73543302,18 C7.374345,18 7.08166893,17.7145492 7.08166894,17.3625779 L7.08251298,9.582425 L6.19320515,9.08142067 L5.74360754,9.33338516 C5.72217003,9.34802663 5.72976988,9.3437234 5.27595836,9.59905448 C4.95611264,9.78142073 4.55337651,9.68493364 4.36939264,9.37565495 C4.32566401,9.30201957 4.32566401,9.30201957 4.11884528,8.95372047 L3.87052469,8.53631162 C3.68449081,8.22349379 3.78381141,7.83170606 4.10134854,7.65273609 C4.17899867,7.60926442 4.17899867,7.60926442 4.53805389,7.40835416 L5.62093462,6.80081867 L5.81616083,6.69338902 C6.02418625,6.5491168 6.29991449,6.53597036 6.52332885,6.66165487 L6.7699401,6.80169126 L14.1079307,10.9348132 L14.1079307,10.5298166 Z M21.1534612,12.6891783 C21.0702429,12.6891783 20.9973821,12.6588396 20.9348791,12.5983357 C20.8725546,12.5376584 20.8411245,12.4669261 20.8411245,12.3861386 L20.8411245,4.50537427 C20.8411245,4.41661209 20.8725546,4.34379936 20.9348791,4.28728281 C20.9973821,4.2305929 21.0702429,4.20233463 21.1534612,4.20233463 L22.9019399,4.20233463 C22.9935516,4.20233463 23.0683767,4.2305929 23.1267724,4.28728281 C23.1849895,4.34379936 23.2140981,4.41661209 23.2140981,4.50537427 L23.2140981,10.7858189 L26.9608892,10.7858189 C27.0523222,10.7858189 27.1294689,10.8159841 27.1917934,10.8766614 C27.2542964,10.9373387 27.285548,11.0120584 27.285548,11.100994 L27.285548,12.3861386 C27.285548,12.4750742 27.2542964,12.5478869 27.1917934,12.6044034 C27.1294689,12.66092 27.0523222,12.6891783 26.9608892,12.6891783 L21.1534612,12.6891783 Z M27.8475399,12.6891783 C27.7809294,12.6891783 27.7203908,12.6630003 27.6664595,12.6102978 C27.6121712,12.5577686 27.5852055,12.4991717 27.5852055,12.4345071 C27.5852055,12.3861386 27.5894915,12.3497322 27.5977062,12.3254613 L30.5076704,4.55391609 C30.5908888,4.31952845 30.7573256,4.20233463 31.0071593,4.20233463 L32.9554692,4.20233463 C33.2051243,4.20233463 33.3717396,4.31952845 33.454958,4.55391609 L36.3649223,12.3254613 C36.3733155,12.3497322 36.3774229,12.3861386 36.3774229,12.4345071 C36.3774229,12.4991717 36.3502787,12.5577686 36.2961689,12.6102978 C36.2420591,12.6630003 36.181699,12.6891783 36.1150886,12.6891783 L34.4914374,12.6891783 C34.2917848,12.6891783 34.1501707,12.6002427 34.0669523,12.4223716 L33.6172874,11.246446 L30.345341,11.246446 L29.8956761,12.4223716 C29.8124577,12.6002427 29.6708437,12.6891783 29.4710124,12.6891783 L27.8475399,12.6891783 Z M30.8698311,9.42786146 L33.0927974,9.42786146 L31.9813142,6.33609431 L30.8698311,9.42786146 Z M37.6512354,12.6891783 C37.5596238,12.6891783 37.4826557,12.66092 37.4201526,12.6044034 C37.3578282,12.5478869 37.3265766,12.4750742 37.3265766,12.3861386 L37.3265766,4.51750973 C37.3265766,4.42874754 37.3578282,4.35385445 37.4201526,4.29335054 C37.4826557,4.23267327 37.5596238,4.20233463 37.6512354,4.20233463 L39.0625547,4.20233463 C39.2706006,4.20233463 39.420608,4.29127018 39.5120411,4.46896791 L41.6601822,8.20322071 L43.820824,4.46896791 C43.9122571,4.29127018 44.0622644,4.20233463 44.2703104,4.20233463 L45.6816296,4.20233463 C45.7732413,4.20233463 45.8502094,4.23267327 45.9127124,4.29335054 C45.9750369,4.35385445 46.0062884,4.42874754 46.0062884,4.51750973 L46.0062884,12.3861386 C46.0062884,12.4750742 45.9750369,12.5478869 45.9127124,12.6044034 C45.8502094,12.66092 45.7732413,12.6891783 45.6816296,12.6891783 L44.0954804,12.6891783 C44.012262,12.6891783 43.9394013,12.6588396 43.8768982,12.5983357 C43.8145737,12.5376584 43.7833222,12.4669261 43.7833222,12.3861386 L43.7833222,7.97282043 L42.434506,10.3735601 C42.3262864,10.5594059 42.1805649,10.6523289 41.9973416,10.6523289 L41.3230228,10.6523289 C41.1564075,10.6523289 41.0106861,10.5594059 40.8858585,10.3735601 L39.5495429,7.97282043 L39.5495429,12.3861386 C39.5495429,12.4750742 39.5182914,12.5478869 39.4559669,12.6044034 C39.3934638,12.66092 39.3164957,12.6891783 39.2248841,12.6891783 L37.6512354,12.6891783 Z M48.0169229,12.6891783 C47.9337045,12.6891783 47.8608438,12.6588396 47.7985193,12.5983357 C47.7360162,12.5376584 47.7047647,12.4669261 47.7047647,12.3861386 L47.7047647,4.51750973 C47.7047647,4.42874754 47.7338733,4.35385445 47.7920904,4.29335054 C47.8504861,4.23267327 47.9254898,4.20233463 48.0169229,4.20233463 L51.8760409,4.20233463 C52.9334142,4.20233463 53.7202386,4.41245136 54.2365139,4.83285819 C54.7526107,5.25309165 55.0108376,5.85119621 55.0108376,6.62717186 C55.0108376,7.01515969 54.9045824,7.35061833 54.6924291,7.63337443 C54.4800973,7.91630389 54.2447286,8.12243325 53.9866802,8.25176253 C54.3281255,8.39721462 54.6152825,8.63766999 54.8485082,8.97312864 C55.0815554,9.30858728 55.1981683,9.68652001 55.1981683,10.1067535 C55.1981683,10.9229495 54.9211904,11.5576338 54.3675918,12.0102862 C53.8139932,12.4627653 53.0209185,12.6891783 51.9883678,12.6891783 L48.0169229,12.6891783 Z M51.6137066,7.56073506 C51.9217574,7.56073506 52.1590905,7.47994761 52.3257058,7.31819933 C52.4921426,7.15645105 52.5755395,6.94650769 52.5755395,6.68784914 C52.5755395,6.43716531 52.4942855,6.23311631 52.3319561,6.07552876 C52.1696267,5.91776785 51.9301507,5.83906075 51.6137066,5.83906075 L50.0527371,5.83906075 L50.0527371,7.56073506 L51.6137066,7.56073506 Z M51.7262121,11.0524521 C52.0508709,11.0524521 52.3028476,10.9614362 52.4817849,10.7795778 C52.6607223,10.5978927 52.7503695,10.3735601 52.7503695,10.1067535 C52.7503695,9.83197211 52.6587579,9.60365219 52.4755346,9.42162037 C52.2923113,9.23993528 52.0426562,9.14891937 51.7262121,9.14891937 L50.0527371,9.14891937 L50.0527371,11.0524521 L51.7262121,11.0524521 Z M56.846642,12.6891783 C56.7632451,12.6891783 56.690563,12.6588396 56.6280599,12.5983357 C56.5655568,12.5376584 56.5343053,12.4669261 56.5343053,12.3861386 L56.5343053,4.51750973 C56.5343053,4.42874754 56.5635924,4.35385445 56.6218096,4.29335054 C56.6800267,4.23267327 56.7550304,4.20233463 56.846642,4.20233463 L60.1312676,4.20233463 C61.3634709,4.20233463 62.3208394,4.48717109 63.00373,5.05719074 C63.6862635,5.62686366 64.0444954,6.4453134 64.0775327,7.51219324 C64.085926,7.74658088 64.0902119,8.05776862 64.0902119,8.44575644 C64.0902119,8.83374427 64.085926,9.14077128 64.0775327,9.36718419 C63.9943144,11.5817313 62.6996079,12.6891783 60.1935921,12.6891783 L56.846642,12.6891783 Z M60.1312676,10.8705937 C60.655579,10.8705937 61.0427409,10.7494125 61.2927532,10.5068768 C61.5424083,10.2645144 61.6756291,9.8763532 61.6922371,9.34291328 C61.7090236,9.10852564 61.7172383,8.805486 61.7172383,8.43362099 C61.7172383,8.06175598 61.7090236,7.7627037 61.6922371,7.53646415 C61.6756291,7.01914705 61.531872,6.63722695 61.2615016,6.39070386 C60.9907741,6.14418076 60.5934331,6.02091921 60.0687645,6.02091921 L58.8822777,6.02091921 L58.8822777,10.8705937 L60.1312676,10.8705937 Z M65.0268651,12.6891783 C64.9602546,12.6891783 64.8998945,12.6630003 64.8457847,12.6102978 C64.7914964,12.5577686 64.7645307,12.4991717 64.7645307,12.4345071 C64.7645307,12.3861386 64.7686381,12.3497322 64.7770314,12.3254613 L67.6868171,4.55391609 C67.770214,4.31952845 67.9368293,4.20233463 68.1864844,4.20233463 L70.1347944,4.20233463 C70.3846281,4.20233463 70.5510648,4.31952845 70.6342832,4.55391609 L73.5442475,12.3254613 C73.5526407,12.3497322 73.5565695,12.3861386 73.5565695,12.4345071 C73.5565695,12.4991717 73.5296039,12.5577686 73.4754941,12.6102978 C73.4215629,12.6630003 73.3612028,12.6891783 73.2944138,12.6891783 L71.6709412,12.6891783 C71.47111,12.6891783 71.3294959,12.6002427 71.2462775,12.4223716 L70.7966126,11.246446 L67.5244877,11.246446 L67.0748227,12.4223716 C66.9917829,12.6002427 66.8503474,12.6891783 66.6505162,12.6891783 L65.0268651,12.6891783 Z M68.0491563,9.42786146 L70.2721225,9.42786146 L69.1606394,6.33609431 L68.0491563,9.42786146 Z M76.1507266,12.8103594 C76.059115,12.8103594 75.9823255,12.7821012 75.9196438,12.7255846 C75.8571408,12.6690681 75.8260678,12.5962553 75.8260678,12.5073198 L75.8260678,6.29968795 L73.6281028,6.29968795 C73.5364911,6.29968795 73.4595231,6.27142967 73.39702,6.21491313 C73.3345169,6.15822322 73.3032654,6.08558385 73.3032654,5.9966483 L73.3032654,4.63869091 C73.3032654,4.54992873 73.3345169,4.47503564 73.39702,4.41453173 C73.4595231,4.35385445 73.5364911,4.32351581 73.6281028,4.32351581 L80.4095071,4.32351581 C80.5009402,4.32351581 80.5780868,4.35385445 80.6405899,4.41453173 C80.7029144,4.47503564 80.7341659,4.54992873 80.7341659,4.63869091 L80.7341659,5.9966483 C80.7341659,6.08558385 80.7029144,6.15822322 80.6405899,6.21491313 C80.5780868,6.27142967 80.5009402,6.29968795 80.4095071,6.29968795 L78.2113635,6.29968795 L78.2113635,12.5073198 C78.2113635,12.5962553 78.1801119,12.6690681 78.1177875,12.7255846 C78.0552844,12.7821012 77.9783163,12.8103594 77.8868833,12.8103594 L76.1507266,12.8103594 Z M82.1453066,12.8103594 C82.0622668,12.8103594 81.9892275,12.7800208 81.926903,12.7195169 C81.8643999,12.6588396 81.8331484,12.5881073 81.8331484,12.5073198 L81.8331484,4.63869091 C81.8331484,4.54992873 81.862257,4.47503564 81.9206527,4.41453173 C81.9790484,4.35385445 82.0538735,4.32351581 82.1453066,4.32351581 L88.0400603,4.32351581 C88.1316719,4.32351581 88.20864,4.35385445 88.271143,4.41453173 C88.3336461,4.47503564 88.3648976,4.54992873 88.3648976,4.63869091 L88.3648976,5.83906075 C88.3648976,5.9279963 88.3336461,6.00063567 88.271143,6.05715221 C88.20864,6.11384212 88.1316719,6.1421004 88.0400603,6.1421004 L84.0937951,6.1421004 L84.0937951,7.68191625 L87.7654039,7.68191625 C87.8570156,7.68191625 87.933805,7.71225488 87.9964867,7.77275879 C88.0589898,7.83343607 88.0900627,7.9081558 88.0900627,7.99709134 L88.0900627,9.10037755 C88.0900627,9.18931309 88.0589898,9.26403282 87.9964867,9.3247101 C87.933805,9.38521401 87.8570156,9.41572601 87.7654039,9.41572601 L84.0937951,9.41572601 L84.0937951,10.9917749 L88.1400652,10.9917749 C88.2314982,10.9917749 88.3086449,11.0221135 88.3711479,11.0826174 C88.4334724,11.1432947 88.464724,11.2180144 88.464724,11.30695 L88.464724,12.5073198 C88.464724,12.5962553 88.4334724,12.6690681 88.3711479,12.7255846 C88.3086449,12.7821012 88.2314982,12.8103594 88.1400652,12.8103594 L82.1453066,12.8103594 Z M93.1604902,12.9315406 C92.3531291,12.9315406 91.6661311,12.8185075 91.0998533,12.5920946 C90.5337541,12.3658551 90.1049831,12.0668028 89.8135402,11.6947644 C89.5220973,11.3232461 89.3681612,10.9189621 89.3515532,10.4824325 C89.3515532,10.4097931 89.3785188,10.3491158 89.4326286,10.300574 C89.4867384,10.2522056 89.5512059,10.2279347 89.6262096,10.2279347 L91.287184,10.2279347 C91.3870103,10.2279347 91.4682643,10.2440575 91.5307673,10.2764765 C91.5932704,10.3087221 91.6618452,10.3652387 91.7368489,10.4460261 C91.8450685,10.64002 92.0136482,10.7996879 92.242588,10.9250299 C92.4717064,11.0503718 92.7774357,11.112956 93.1604902,11.112956 C93.6103337,11.112956 93.9557078,11.046211 94.1971482,10.9130678 C94.4385887,10.7795778 94.5593089,10.5958123 94.5593089,10.3612513 C94.5593089,10.1917017 94.4968058,10.0521439 94.3719783,9.9430982 C94.2471507,9.83387911 94.0473195,9.73679547 93.7726631,9.65202065 C93.4978282,9.56724583 93.1022731,9.47224255 92.5859977,9.36718419 C91.5788054,9.17319028 90.825197,8.87812536 90.3255296,8.48198944 C89.8260408,8.08602689 89.5763857,7.52016797 89.5763857,6.78475941 C89.5763857,6.28356513 89.7197856,5.83698039 90.0071211,5.4450052 C90.2942781,5.05285665 90.7023338,4.74791001 91.2309312,4.52964518 C91.7597072,4.31138036 92.3738444,4.20233463 93.0731645,4.20233463 C93.8057005,4.20233463 94.4407316,4.32559618 94.9777223,4.57194591 C95.5147129,4.81864237 95.926876,5.12566938 96.2142115,5.49337366 C96.5013685,5.8612513 96.6533402,6.22288785 96.6699482,6.57863004 C96.6699482,6.65126941 96.644947,6.71402704 96.5949445,6.76655623 C96.5449421,6.81908541 96.4826176,6.84526332 96.4077925,6.84526332 L94.6593138,6.84526332 C94.4760905,6.84526332 94.3344764,6.77262396 94.2346501,6.6269985 C94.184469,6.45727549 94.0557127,6.31390376 93.8474882,6.19670994 C93.6394423,6.07951612 93.3812153,6.02091921 93.0731645,6.02091921 C92.7235045,6.02091921 92.4527769,6.08159649 92.2613389,6.20277767 C92.069901,6.32395886 91.9740034,6.50182995 91.9740034,6.73621759 C91.9740034,6.97060523 92.0991881,7.15454405 92.3488432,7.28786069 C92.5986769,7.4213507 93.0649498,7.55657433 93.7474833,7.6940517 C94.5302003,7.8313557 95.1525523,8.00315907 95.6145393,8.20928844 C96.0767048,8.41524444 96.4179716,8.68222445 96.6386967,9.00936164 C96.8594218,9.33684555 96.9696058,9.75118465 96.9696058,10.2522056 C96.9696058,10.8017683 96.8072764,11.2786917 96.4826176,11.6828023 C96.1579588,12.086913 95.7082939,12.3960203 95.1338014,12.6102978 C94.5593089,12.8245753 93.9014194,12.9315406 93.1604902,12.9315406 L93.1604902,12.9315406 Z M100.416561,12.8103594 C100.324949,12.8103594 100.247802,12.7821012 100.185478,12.7255846 C100.122975,12.6690681 100.091723,12.5962553 100.091723,12.5073198 L100.091723,6.29968795 L97.8939369,6.29968795 C97.8021466,6.29968795 97.7253572,6.27142967 97.6628541,6.21491313 C97.600351,6.15822322 97.5692781,6.08558385 97.5692781,5.9966483 L97.5692781,4.63869091 C97.5692781,4.54992873 97.600351,4.47503564 97.6628541,4.41453173 C97.7253572,4.35385445 97.8021466,4.32351581 97.8939369,4.32351581 L104.675163,4.32351581 C104.766774,4.32351581 104.843921,4.35385445 104.906245,4.41453173 C104.968748,4.47503564 105,4.54992873 105,4.63869091 L105,5.9966483 C105,6.08558385 104.968748,6.15822322 104.906245,6.21491313 C104.843921,6.27142967 104.766774,6.29968795 104.675163,6.29968795 L102.477198,6.29968795 L102.477198,12.5073198 C102.477198,12.5962553 102.445946,12.6690681 102.383443,12.7255846 C102.321118,12.7821012 102.24415,12.8103594 102.152717,12.8103594 L100.416561,12.8103594 Z" id="Fills"></path>
            </g>
        </g>
    </g>
</svg>