<svg width="1045" height="233" viewBox="0 0 1045 233" fill="none" xmlns="http://www.w3.org/2000/svg">
<path d="M324.216 169.52C317.275 169.52 310.489 168.692 303.859 167.035C297.228 165.275 291.945 163.1 288.008 160.511L296.089 143.114C299.818 145.496 304.325 147.463 309.608 149.016C314.892 150.466 320.072 151.191 325.148 151.191C335.405 151.191 340.533 148.654 340.533 143.58C340.533 141.198 339.134 139.489 336.337 138.454C333.54 137.418 329.241 136.538 323.439 135.813C316.601 134.778 310.955 133.587 306.5 132.24C302.046 130.894 298.161 128.512 294.845 125.095C291.634 121.678 290.028 116.811 290.028 110.494C290.028 105.212 291.53 100.552 294.535 96.5138C297.643 92.3716 302.097 89.1614 307.899 86.8831C313.804 84.6049 320.745 83.4658 328.723 83.4658C334.628 83.4658 340.481 84.1389 346.283 85.4851C352.188 86.7278 357.057 88.4882 360.89 90.7665L352.81 108.008C345.454 103.866 337.425 101.795 328.723 101.795C323.543 101.795 319.658 102.52 317.068 103.97C314.478 105.42 313.183 107.284 313.183 109.562C313.183 112.151 314.581 113.963 317.378 114.998C320.176 116.034 324.63 117.018 330.743 117.95C337.58 119.089 343.175 120.332 347.526 121.678C351.877 122.92 355.659 125.25 358.87 128.668C362.082 132.085 363.688 136.849 363.688 142.958C363.688 148.136 362.134 152.744 359.026 156.783C355.918 160.822 351.359 163.98 345.35 166.258C339.445 168.433 332.4 169.52 324.216 169.52Z" fill="#0F054C"/>
<path d="M432.569 164.239C430.186 166 427.233 167.346 423.711 168.278C420.292 169.106 416.666 169.52 412.833 169.52C402.887 169.52 395.169 166.983 389.678 161.909C384.291 156.835 381.597 149.379 381.597 139.541V105.212H368.699V86.5725H381.597V66.2238H405.84V86.5725H426.663V105.212H405.84V139.23C405.84 142.751 406.72 145.496 408.482 147.463C410.346 149.327 412.936 150.259 416.252 150.259C420.085 150.259 423.348 149.224 426.042 147.152L432.569 164.239Z" fill="#0F054C"/>
<path d="M525.493 126.804C525.493 127.114 525.338 129.289 525.027 133.328H461.779C462.919 138.506 465.612 142.596 469.86 145.599C474.107 148.602 479.391 150.104 485.711 150.104C490.062 150.104 493.895 149.482 497.21 148.24C500.629 146.894 503.789 144.822 506.69 142.026L519.588 156.006C511.714 165.016 500.215 169.52 485.089 169.52C475.661 169.52 467.322 167.708 460.07 164.084C452.818 160.356 447.223 155.23 443.286 148.706C439.35 142.182 437.381 134.778 437.381 126.493C437.381 118.312 439.298 110.96 443.131 104.436C447.068 97.8082 452.403 92.6822 459.137 89.0578C465.975 85.3298 473.589 83.4658 481.981 83.4658C490.165 83.4658 497.573 85.2262 504.203 88.7471C510.834 92.268 516.014 97.3422 519.743 103.97C523.576 110.494 525.493 118.105 525.493 126.804ZM482.136 101.795C476.646 101.795 472.035 103.348 468.306 106.455C464.576 109.562 462.297 113.808 461.468 119.192H502.649C501.82 113.911 499.541 109.717 495.812 106.61C492.082 103.4 487.524 101.795 482.136 101.795Z" fill="#0F054C"/>
<path d="M573.078 83.4658C586.028 83.4658 595.974 86.5725 602.915 92.7858C609.856 98.8956 613.327 108.164 613.327 120.59V168.278H590.638V157.87C586.08 165.637 577.585 169.52 565.153 169.52C558.73 169.52 553.135 168.433 548.37 166.258C543.708 164.084 540.133 161.081 537.647 157.249C535.161 153.418 533.917 149.068 533.917 144.201C533.917 136.434 536.818 130.325 542.62 125.872C548.525 121.419 557.59 119.192 569.815 119.192H589.084C589.084 113.911 587.479 109.872 584.267 107.076C581.055 104.177 576.238 102.727 569.815 102.727C565.36 102.727 560.957 103.452 556.606 104.902C552.358 106.248 548.732 108.112 545.728 110.494L537.025 93.5625C541.584 90.3522 547.023 87.8669 553.342 86.1065C559.766 84.346 566.344 83.4658 573.078 83.4658ZM571.213 153.21C575.357 153.21 579.035 152.278 582.247 150.414C585.458 148.447 587.738 145.599 589.084 141.871V133.328H572.457C562.511 133.328 557.538 136.59 557.538 143.114C557.538 146.22 558.73 148.706 561.112 150.57C563.599 152.33 566.966 153.21 571.213 153.21Z" fill="#0F054C"/>
<path d="M721.337 53.0205V168.278H698.182V158.647C692.174 165.896 683.471 169.52 672.075 169.52C664.202 169.52 657.053 167.76 650.63 164.239C644.31 160.718 639.338 155.696 635.712 149.172C632.086 142.648 630.273 135.088 630.273 126.493C630.273 117.898 632.086 110.338 635.712 103.814C639.338 97.2905 644.31 92.268 650.63 88.7471C657.053 85.2262 664.202 83.4658 672.075 83.4658C682.746 83.4658 691.086 86.8314 697.095 93.5625V53.0205H721.337ZM676.271 149.638C682.383 149.638 687.46 147.567 691.5 143.424C695.541 139.179 697.561 133.535 697.561 126.493C697.561 119.451 695.541 113.859 691.5 109.717C687.46 105.471 682.383 103.348 676.271 103.348C670.055 103.348 664.927 105.471 660.886 109.717C656.846 113.859 654.826 119.451 654.826 126.493C654.826 133.535 656.846 139.179 660.886 143.424C664.927 147.567 670.055 149.638 676.271 149.638Z" fill="#0F054C"/>
<path d="M826.758 84.7085L788.996 173.404C785.162 183.034 780.397 189.817 774.699 193.752C769.104 197.688 762.319 199.655 754.341 199.655C749.99 199.655 745.691 198.982 741.443 197.636C737.196 196.29 733.725 194.426 731.031 192.044L739.889 174.802C741.754 176.459 743.878 177.753 746.261 178.685C748.747 179.617 751.182 180.083 753.564 180.083C756.88 180.083 759.573 179.255 761.645 177.598C763.717 176.044 765.582 173.404 767.24 169.676L767.55 168.899L731.342 84.7085H756.362L779.827 141.405L803.448 84.7085H826.758Z" fill="#0F054C"/>
<path d="M886.067 83.4658C893.837 83.4658 900.882 85.278 907.202 88.9025C913.625 92.4234 918.649 97.4458 922.275 103.97C925.901 110.39 927.714 117.898 927.714 126.493C927.714 135.088 925.901 142.648 922.275 149.172C918.649 155.592 913.625 160.615 907.202 164.239C900.882 167.76 893.837 169.52 886.067 169.52C874.568 169.52 865.813 165.896 859.805 158.647V168.278H836.65V53.0205H860.892V93.5625C867.005 86.8314 875.396 83.4658 886.067 83.4658ZM881.871 149.638C888.087 149.638 893.164 147.567 897.101 143.424C901.141 139.179 903.161 133.535 903.161 126.493C903.161 119.451 901.141 113.859 897.101 109.717C893.164 105.471 888.087 103.348 881.871 103.348C875.655 103.348 870.527 105.471 866.487 109.717C862.55 113.859 860.582 119.451 860.582 126.493C860.582 133.535 862.55 139.179 866.487 143.424C870.527 147.567 875.655 149.638 881.871 149.638Z" fill="#0F054C"/>
<path d="M943.943 84.7085H968.185V168.278H943.943V84.7085ZM956.064 73.0585C951.609 73.0585 947.983 71.764 945.186 69.1751C942.389 66.5862 940.99 63.376 940.99 59.5445C940.99 55.7129 942.389 52.5027 945.186 49.9138C947.983 47.3249 951.609 46.0305 956.064 46.0305C960.519 46.0305 964.145 47.2731 966.942 49.7585C969.739 52.2438 971.138 55.3505 971.138 59.0785C971.138 63.1171 969.739 66.4827 966.942 69.1751C964.145 71.764 960.519 73.0585 956.064 73.0585Z" fill="#0F054C"/>
<path d="M1044.61 164.239C1042.23 166 1039.27 167.346 1035.75 168.278C1032.33 169.106 1028.71 169.52 1024.87 169.52C1014.93 169.52 1007.21 166.983 1001.72 161.909C996.33 156.835 993.637 149.379 993.637 139.541V105.212H980.739V86.5725H993.637V66.2238H1017.88V86.5725H1038.7V105.212H1017.88V139.23C1017.88 142.751 1018.76 145.496 1020.52 147.463C1022.39 149.327 1024.98 150.259 1028.29 150.259C1032.12 150.259 1035.39 149.224 1038.08 147.152L1044.61 164.239Z" fill="#0F054C"/>
<path d="M230.029 121.9C223.826 108.303 209 100.301 194.023 103.486L165.96 57.4148C176.323 47.8586 179.5 32.2424 173.524 19.1124C168.154 7.53618 156.58 0 143.948 0C139.183 0 134.644 1.01 130.257 3.1077C116.339 9.63388 108.926 25.0947 112.103 40.0117L56.4301 69.3795C47.1261 59.2017 31.4682 55.861 18.9116 61.8433C10.9692 65.5725 4.99343 72.2541 1.96774 80.5672C-0.982301 88.8026 -0.60409 97.7372 3.02674 105.74C9.53196 119.957 25.7194 127.96 40.9235 123.687L68.9867 176.828C59.6071 186.54 56.9596 201.301 62.7084 213.888C68.0034 225.464 79.6523 233 92.2089 233C96.9743 233 101.513 231.99 105.9 229.892C119.289 223.599 126.777 208.993 124.281 194.387L175.567 156.939C184.644 168.049 200.907 172.011 214.22 165.796C222.162 162.067 228.214 155.385 231.164 146.994C234.114 138.759 233.66 129.824 230.029 121.9ZM42.4363 95.4065C41.453 98.1257 39.5619 100.223 36.9901 101.466C31.7708 103.875 25.3412 101.466 22.9963 96.2611C21.8616 93.6972 21.7104 90.8226 22.6937 88.1811C23.6771 85.4618 25.5681 83.3641 28.1399 82.121C29.5771 81.4218 31.09 81.111 32.6028 81.111C36.6875 81.111 40.4696 83.5195 42.2094 87.2487C43.2684 89.8903 43.4197 92.7649 42.4363 95.4065ZM168.305 140.624L116.793 178.227C114.826 175.896 112.481 173.876 109.909 172.167L142.738 66.0387C145.31 66.1164 147.882 65.8833 150.453 65.3394L178.517 111.333C170.574 118.792 166.716 129.747 168.305 140.624ZM64.3726 84.918L120.121 55.5502C122.012 57.5702 124.054 59.3571 126.399 60.8333L93.5704 166.961C90.3935 166.806 87.1409 167.194 83.9639 168.049L55.9006 114.907C63.4648 106.983 66.7175 95.7172 64.3726 84.918ZM153.857 36.6709C152.874 39.3124 150.983 41.4878 148.411 42.6532C143.192 45.0617 136.762 42.6532 134.417 37.5255C133.283 34.9617 133.131 32.087 134.115 29.4455C135.098 26.7262 136.989 24.6285 139.561 23.3855C144.78 20.8993 151.21 23.3855 153.555 28.5909C154.689 31.1547 154.765 34.0293 153.857 36.6709ZM82.2998 196.329C83.2831 193.61 85.1742 191.512 87.746 190.269C89.1832 189.57 90.6204 189.259 92.2089 189.259C96.2936 189.259 100.076 191.668 101.815 195.397C102.95 197.961 103.101 200.835 102.118 203.477C101.135 206.118 99.2436 208.294 96.6718 209.459C91.3768 211.945 85.0229 209.459 82.678 204.254C81.4677 201.845 81.3921 198.971 82.2998 196.329ZM210.438 139.38C209.454 142.1 207.563 144.197 204.991 145.44C199.772 147.927 193.342 145.44 190.998 140.235C189.863 137.671 189.712 134.874 190.695 132.233C191.678 129.514 193.569 127.416 196.141 126.173C197.578 125.473 199.016 125.163 200.604 125.163C204.689 125.163 208.471 127.571 210.211 131.3C211.27 133.864 211.345 136.739 210.438 139.38Z" fill="#F94D4C"/>
</svg>
