<?xml version="1.0" encoding="utf-8"?>
<!-- Generator: Adobe Illustrator 25.2.1, SVG Export Plug-In . SVG Version: 6.00 Build 0)  -->
<svg version="1.1" id="Calque_1" xmlns="http://www.w3.org/2000/svg" xmlns:xlink="http://www.w3.org/1999/xlink" x="0px" y="0px"
	 viewBox="0 0 1098.57 393.99" style="enable-background:new 0 0 1098.57 393.99;" xml:space="preserve">
<style type="text/css">
	.st0{fill:#F78557;}
	.st1{fill-rule:evenodd;clip-rule:evenodd;fill:#24275E;}
</style>
<g>
	<g>
		<g>
			<path class="st0" d="M323.26,257.31c6.95-4.12,13-9.65,17.63-16.34H349c4.12,0,7.46-3.35,7.46-7.46s-3.35-7.46-7.46-7.46h-0.64
				c1.54-4.76,2.57-9.65,2.83-14.8h7.98c4.12,0,7.46-3.35,7.46-7.46c0-4.12-3.35-7.46-7.46-7.46h-8.24
				c-0.51-5.15-1.8-10.17-3.6-14.8h1.54c4.12,0,7.46-3.35,7.46-7.46c0-4.12-3.35-7.46-7.46-7.46h-10.04
				c-10.3-12.87-26.51-21.49-44.66-21.49h-12.74c-7.98,0-15.7,1.67-22.65,4.76h13.38c30.89,0,56.24,25.35,56.24,56.24
				c0,28.57-21.49,52.25-49.16,55.85c-1.67,0.13-3.35,0.26-5.15,0.26h-57.91c9.39-5.15,17.5-12.48,23.55-21.23
				c0.39,0.13,0.9,0.13,1.29,0.13h50.45c4.12,0,7.46-3.35,7.46-7.46s-3.35-7.46-7.46-7.46h-43.89c1.8-4.76,3.09-9.65,3.86-14.8
				h57.78c4.12,0,7.46-3.35,7.46-7.46s-3.35-7.46-7.46-7.46h-57.14c-0.39-5.15-1.42-10.04-2.83-14.8h42.47
				c4.12,0,7.46-3.35,7.46-7.46s-3.35-7.46-7.46-7.46H242.7c-11.97-20.21-34.1-33.85-59.2-33.85h-4.89
				c-22.91,0-43.37,11.45-55.85,28.83c11.2-13,27.93-21.23,46.46-21.23c26.51,0,49.16,16.86,57.66,40.41h-31.14
				c-6.18-7.85-15.83-12.87-26.51-12.87c-18.66,0.26-33.72,15.31-33.72,33.98s15.19,33.85,33.85,33.85
				c11.07,0,20.85-5.28,27.03-13.51h-32.17c0-14.93,12.1-26.9,26.9-26.9h11.33h11.45h16.47c0.26,2.19,0.39,4.38,0.39,6.56
				c0,33.85-27.54,61.39-61.39,61.39c-17.89,0-33.98-7.72-45.3-19.95c12.61,16.47,32.43,27.15,54.7,27.15h4.89c0.13,0,0.26,0,0.39,0
				c12.48,0,94.59,0,95.62,0c52.25,0,94.59-3.09,94.59-7.08C374.22,260.91,353.5,258.47,323.26,257.31z"/>
		</g>
	</g>
	<g id="Fill-1-Copy-8_3_">
		<path class="st1" d="M684.3,141.6h-12.68v24.57h-11c-1.91,0-3.37,1.46-3.37,3.37v13.91h14.36v77.31h18.29
			c1.91,0,3.37-1.46,3.37-3.37v-73.83h15.82v-13.91c0-1.91-1.46-3.37-3.37-3.37h-12.45v-15.71
			C693.28,145.64,689.24,141.6,684.3,141.6z"/>
	</g>
	<g id="Fill-2-Copy-10_3_">
		<path class="st1" d="M716.62,260.88h18.29c1.91,0,3.37-1.46,3.37-3.37V150.58c0-4.94-4.04-8.98-8.98-8.98h-12.68V260.88z"/>
	</g>
	<g id="Fill-3-Copy-8_3_">
		<path class="st1" d="M754.43,260.88h18.29c1.91,0,3.37-1.46,3.37-3.37v-82.25c0-4.94-4.04-8.98-8.98-8.98h-12.68V260.88z"/>
	</g>
	<path id="Fill-5-Copy-8_2_" class="st1" d="M765.32,123.42c-4.04,0-7.29,1.23-9.87,3.82s-3.82,5.83-3.82,9.87
		c0,3.93,1.23,7.07,3.82,9.54c2.58,2.47,5.83,3.7,9.87,3.7c3.93,0,7.07-1.23,9.65-3.7c2.58-2.47,3.82-5.72,3.82-9.54
		c0-4.04-1.23-7.29-3.82-9.87C772.5,124.66,769.25,123.42,765.32,123.42"/>
	<g id="Fill-7-Copy-8_3_">
		<path class="st1" d="M811.1,206.01c0-7.29,2.02-13.02,5.95-17.17c3.93-4.15,9.43-6.17,16.27-6.17c6.28,0,11,1.91,14.14,5.72
			c3.14,3.82,4.6,9.09,4.6,15.82v56.78h18.29c1.91,0,3.37-1.46,3.37-3.37v-56.1c0-11.33-3.03-20.31-9.2-27.15
			c-6.17-6.84-14.81-10.21-26.03-10.21c-7.18,0-13.24,1.46-18.29,4.26c-5.05,2.81-8.64,6.4-10.88,10.44v-3.59
			c0-4.94-4.04-8.98-8.98-8.98h-11.11v94.7h18.29c1.91,0,3.37-1.46,3.37-3.37v-51.61H811.1z"/>
	</g>
	<g id="Combined-Shape-Copy-2_3_">
		<path class="st1" d="M527.44,179.08c-7.18-10.55-19.19-17.39-32.88-17.39c-21.99,0-39.83,17.84-39.83,39.83
			s17.84,39.83,39.83,39.83c16.16,0,30.07-9.65,36.35-23.45h-42.98c0-14.03,11.33-25.36,25.36-25.36h1.68l0,0h40.28
			c0.45,2.92,0.67,5.95,0.67,9.09c0,33.89-27.49,61.38-61.38,61.38s-61.38-27.49-61.38-61.38s27.49-61.49,61.38-61.49
			c26.03,0,48.14,16.16,57.11,38.94H527.44z"/>
	</g>
	<g id="Combined-Shape-Copy-3_3_">
		<path class="st1" d="M948.66,197.59c-4.71-5.95-12.01-9.76-20.08-9.76c-14.14,0-25.58,11.45-25.58,25.58
			c0,14.14,11.45,25.58,25.58,25.58c9.87,0,18.51-5.61,22.78-13.8h-26.59c0-9.31,7.41-16.94,16.61-17.17h34.11
			c0.22,1.8,0.34,3.59,0.34,5.39c0,26.03-21.09,47.24-47.24,47.24c-26.03,0-47.24-21.09-47.24-47.24s21.09-47.24,47.24-47.24
			c20.53,0,38.04,13.13,44.55,31.42H948.66z"/>
	</g>
	<g>
		<path class="st1" d="M657.82,214.2c-0.06-26.09-21.13-47.13-47.24-47.13c-26.03,0-47.24,21.09-47.24,47.24
			c0,26.03,21.09,47.24,47.24,47.24c9.44,0,18.22-2.75,25.58-7.49v6.82h12.68c4.94,0,8.98-4.04,8.98-8.98L657.82,214.2L657.82,214.2
			z M610.59,240.23c-14.25,0-25.92-11.56-25.92-25.92c0-14.25,11.56-25.92,25.92-25.92c14.25,0,25.92,11.56,25.92,25.92
			C636.5,228.56,624.95,240.23,610.59,240.23z"/>
	</g>
</g>
</svg>
