<svg id="Layer_1" data-name="Layer 1" xmlns="http://www.w3.org/2000/svg" viewBox="0 0 1000 333.76"><defs><style>.cls-1{fill:#fcdc00;}.cls-2{fill:#ff5a84;}.cls-3{fill:#2d7ff9;}</style></defs><rect class="cls-1" x="848.31" y="45.2" width="151.69" height="54.35" rx="3.4"/><rect class="cls-2" x="779.89" y="186.93" width="151.69" height="54.35" rx="3.4"/><rect class="cls-3" x="779.89" y="116.06" width="220.11" height="54.35" rx="3.4"/><path d="M122.27,190.87v50.41H92.05q-32.31,0-50.37-15.82T23.62,173.84V96.65H0V47.28H23.62V0H83V47.28h38.9V96.65H83v77.88q0,8.7,4.17,12.52t13.89,3.82Z"/><path d="M192.26,231.89a89,89,0,0,1-35.78-34.76q-13-22.59-13-52.85,0-29.9,13.2-52.67a89.54,89.54,0,0,1,36.12-34.94q22.93-12.16,51.41-12.17T295.6,56.67a89.63,89.63,0,0,1,36.13,34.94q13.18,22.77,13.2,52.67T331.55,197a90.29,90.29,0,0,1-36.47,34.94Q272,244.07,243.5,244.06T192.26,231.89Zm80.24-51.8q12-12.51,12-35.81t-11.64-35.81A37.62,37.62,0,0,0,244.19,96q-17.37,0-28.83,12.34t-11.46,36q0,23.29,11.29,35.81a36.53,36.53,0,0,0,28.31,12.52A38.7,38.7,0,0,0,272.5,180.09Z"/><path d="M462,54.41a67.18,67.18,0,0,1,34.74-9.21v62.92H480.4q-22.25,0-33.35,9.57t-11.12,33.55v90h-59.4v-194h59.4V79.61A78.49,78.49,0,0,1,462,54.41Z"/><path d="M525.38,93.18q12-22.61,32.3-35.29A82,82,0,0,1,602,45.2q18.4,0,33,6.43a60.41,60.41,0,0,1,23.62,17.9V47.28H718V333.76h-59.4V216.94a76,76,0,0,1-24.49,19.48q-14.42,7.29-32.82,7.3a81.41,81.41,0,0,1-43.77-12.52q-20.16-12.51-32.13-35.12t-12-51.45Q513.39,115.77,525.38,93.18ZM652.51,118a41.2,41.2,0,0,0-15.81-16,41.68,41.68,0,0,0-20.49-5.39A41.09,41.09,0,0,0,596.06,102a42,42,0,0,0-16,16.17q-6.26,10.77-6.26,26.42t6.26,26.25a42.25,42.25,0,0,0,16,16,41,41,0,0,0,20.15,5.39,41.92,41.92,0,0,0,20.32-5.39,40.48,40.48,0,0,0,16-16.16q6.07-10.78,6.08-26.43T652.51,118Z"/></svg>