<svg id="图层_1" data-name="图层 1" xmlns="http://www.w3.org/2000/svg" viewBox="0 0 1000 1000"><defs><style>.cls-1{fill:#282828;}.cls-2,.cls-3{fill:#00b173;}.cls-2{fill-rule:evenodd;}</style></defs><path class="cls-1" d="M540,506.75H487.29v42.61H549.4v17.93H464.83V432.71h83.92v18H487.29v38H540Z"/><path class="cls-1" d="M637.76,536.23h.55l38.92-103.52h28.64V567.29H683.41V470.61l-.55-.09L645.8,567.29H630.36l-37.71-98.62-.56.18v98.44H569.64V432.71h29.48Z"/><path class="cls-1" d="M840,506.1a64.28,64.28,0,0,1-2.9,19.5,55.51,55.51,0,0,1-8.37,16.45l19.87,19.78-15,13.4-20-19.68a53.13,53.13,0,0,1-13.76,5.73,61.61,61.61,0,0,1-15.62,1.94q-24.13,0-39.29-16.22t-15.15-40.9V481.88q0-24.58,15.1-40.85t39.34-16.26q24.66,0,40.2,16.26T840,481.88Zm-22.46-24.4q0-16.81-9-27.64t-24.3-10.81q-14.89,0-23.44,10.81t-8.54,27.64v24.4q0,17,8.59,27.87t23.39,10.86q15.42,0,24.35-10.82t8.91-27.91Z"/><path class="cls-1" d="M918.94,482.44l28.37-49.73h26.63l-41.41,66.73,43,67.85h-27l-29.21-50.56L890.1,567.29H863.49l42.32-67.85-41.4-66.73h26.43Z"/><g id="编组"><path id="Fill-4" class="cls-2" d="M259.54,428.12h-133v0c-.19,0-.37,0-.56,0a12.48,12.48,0,1,0,0,24.95c.19,0,.37,0,.56,0v0h133a12.48,12.48,0,1,0,0-24.95"/><path id="Fill-6" class="cls-2" d="M259.54,546.94h-133v0l-.56,0a12.47,12.47,0,1,0,0,24.94c.19,0,.37,0,.56,0v0h133a12.47,12.47,0,1,0,0-24.94"/><path id="Fill-8" class="cls-2" d="M224.6,500a12.5,12.5,0,0,0-11.36-12.42v-.05H99.18v0c-.18,0-.36,0-.55,0a12.47,12.47,0,1,0,0,24.94c.19,0,.37,0,.55,0v0H213.24v-.05A12.5,12.5,0,0,0,224.6,500"/></g><path class="cls-3" d="M179.09,673.32a33.53,33.53,0,0,1-16.75-4.47L41.23,598.92a33.58,33.58,0,0,1-16.74-29V430.08a33.57,33.57,0,0,1,16.75-29l121.1-69.93a33.6,33.6,0,0,1,33.49,0l121.11,69.93a33.56,33.56,0,0,1,16.74,29V569.93a33.56,33.56,0,0,1-16.74,29L195.83,668.85A33.5,33.5,0,0,1,179.09,673.32Zm0-323.44a10.22,10.22,0,0,0-5.14,1.38L52.84,421.18a10.31,10.31,0,0,0-5.14,8.9V569.93a10.3,10.3,0,0,0,5.14,8.89L174,648.75a10.31,10.31,0,0,0,10.28,0l121.1-69.92a10.3,10.3,0,0,0,5.14-8.89V430.08a10.32,10.32,0,0,0-5.13-8.9L184.22,351.25A10.3,10.3,0,0,0,179.09,349.88Z"/></svg>