<svg width="1000" height="1000" viewBox="0 0 1000 1000" fill="none" xmlns="http://www.w3.org/2000/svg">
<path fill-rule="evenodd" clip-rule="evenodd" d="M713.53 309.23H360.53V309.3C360.04 309.3 359.53 309.23 359.06 309.23C350.281 309.23 341.862 312.717 335.655 318.925C329.447 325.132 325.96 333.551 325.96 342.33C325.96 351.109 329.447 359.528 335.655 365.735C341.862 371.943 350.281 375.43 359.06 375.43C359.55 375.43 360.06 375.38 360.53 375.36V375.43H713.53C722.309 375.43 730.728 371.943 736.935 365.735C743.143 359.528 746.63 351.109 746.63 342.33C746.63 333.551 743.143 325.132 736.935 318.925C730.728 312.717 722.309 309.23 713.53 309.23Z" fill="#5E4EFF"/>
<path fill-rule="evenodd" clip-rule="evenodd" d="M713.53 624.57H360.53V624.64C360.04 624.64 359.53 624.57 359.06 624.57C350.281 624.57 341.862 628.057 335.655 634.265C329.447 640.472 325.96 648.891 325.96 657.67C325.96 666.449 329.447 674.868 335.655 681.075C341.862 687.283 350.281 690.77 359.06 690.77C359.55 690.77 360.06 690.77 360.53 690.7V690.77H713.53C722.309 690.77 730.728 687.283 736.935 681.075C743.143 674.868 746.63 666.449 746.63 657.67C746.63 648.891 743.143 640.472 736.935 634.265C730.728 628.057 722.309 624.57 713.53 624.57Z" fill="#5E4EFF"/>
<path fill-rule="evenodd" clip-rule="evenodd" d="M620.79 500C620.778 491.735 617.678 483.774 612.098 477.678C606.518 471.581 598.861 467.791 590.63 467.05V466.9H287.94V467C287.45 467 286.94 466.93 286.47 466.93C277.691 466.93 269.272 470.417 263.065 476.625C256.857 482.832 253.37 491.251 253.37 500.03C253.37 508.809 256.857 517.228 263.065 523.435C269.272 529.643 277.691 533.13 286.47 533.13C286.96 533.13 287.47 533.08 287.94 533.06V533.13H590.63V533C598.87 532.258 606.534 528.461 612.115 522.354C617.696 516.247 620.791 508.273 620.79 500Z" fill="#5E4EFF"/>
<path d="M500 960C484.407 960.007 469.085 955.917 455.57 948.14L134.13 762.54C120.633 754.717 109.425 743.488 101.629 729.975C93.8316 716.463 89.7184 701.14 89.7 685.54V314.42C89.7184 298.818 93.8327 283.495 101.632 269.982C109.43 256.469 120.64 245.241 134.14 237.42L455.56 51.88C469.079 44.1083 484.401 40.0183 499.995 40.0183C515.589 40.0183 530.91 44.1083 544.43 51.88L865.87 237.46C879.367 245.283 890.575 256.512 898.372 270.024C906.168 283.537 910.282 298.859 910.3 314.46V685.58C910.282 701.182 906.167 716.505 898.369 730.018C890.57 743.531 879.36 754.759 865.86 762.58L544.44 948.12C530.925 955.909 515.599 960.006 500 960ZM500 101.6C495.213 101.594 490.508 102.85 486.36 105.24L164.94 290.81C160.797 293.205 157.357 296.647 154.963 300.791C152.569 304.935 151.306 309.634 151.3 314.42V685.58C151.307 690.364 152.569 695.063 154.961 699.206C157.353 703.349 160.79 706.792 164.93 709.19L486.37 894.78C490.518 897.166 495.22 898.421 500.005 898.421C504.79 898.421 509.492 897.166 513.64 894.78L835.06 709.19C839.203 706.795 842.643 703.353 845.037 699.209C847.431 695.065 848.694 690.365 848.7 685.58V314.42C848.693 309.636 847.431 304.937 845.039 300.794C842.647 296.651 839.21 293.208 835.07 290.81L513.63 105.23C509.486 102.839 504.784 101.583 500 101.59V101.6Z" fill="#5E4EFF"/>
</svg>
