<?xml version="1.0" encoding="UTF-8"?>
<svg id="Layer_1" data-name="Layer 1" xmlns="http://www.w3.org/2000/svg" viewBox="0 0 864 443.0079">
  <path id="fullLogo" d="m0,393.9449c0-27.6562,19.9442-48.7971,47.6002-48.7971,29.1186,0,41.4841,19.5459,44.0103,30.5813h-18.3485c-2.7922-4.9194-10.504-14.2273-25.6618-14.2273-17.6839,0-29.1186,14.759-29.1186,32.4431s11.4347,32.4423,29.1186,32.4423c16.3543,0,23.5344-9.4404,25.9276-14.3598h18.0827c-2.1274,9.9721-13.695,30.7147-44.0103,30.7147-27.656,0-47.6002-21.1409-47.6002-48.7971Z" style="fill: #252525;"/>
  <path id="fullLogo-2" data-name="fullLogo" d="m178.0379,441.1462h-76.1871v-94.4025h17.817v78.3143h58.3701v16.0882Z" style="fill: #252525;"/>
  <path id="fullLogo-3" data-name="fullLogo" d="m176.8418,393.9449c0-28.3212,21.4068-48.7971,49.4618-48.7971s49.4618,20.4759,49.4618,48.7971c0,28.1879-21.4068,48.7971-49.4618,48.7971-28.3208,0-49.4618-20.4767-49.4618-48.7971Zm80.7077,0c0-17.95-12.4985-32.5756-31.246-32.5756s-31.113,14.6256-31.113,32.5756c0,18.2158,12.2324,32.5756,31.113,32.5756,18.7475,0,31.246-14.4931,31.246-32.5756Z" style="fill: #252525;"/>
  <path id="fullLogo-4" data-name="fullLogo" d="m355.5451,399.2635v-52.5198h17.6839v53.7165c0,23.6669-15.0246,42.5477-43.3454,42.5477-29.2515,0-43.6113-18.615-43.6113-42.5477v-53.7165h17.9497v52.5198c0,16.354,9.0414,27.1237,25.6615,27.1237,16.3543,0,25.6615-10.7696,25.6615-27.1237Z" style="fill: #252525;"/>
  <path id="fullLogo-5" data-name="fullLogo" d="m388.788,346.7437h38.16c30.1824,0,50.5253,17.4174,50.5253,47.2012,0,29.3846-20.2101,47.2012-50.5253,47.2012h-38.16v-94.4025Zm17.817,15.689v63.0236h20.0771c19.6784,0,32.5756-11.9664,32.5756-31.5114,0-20.0776-12.8972-31.5122-32.5756-31.5122h-20.0771Z" style="fill: #252525;"/>
  <path id="fullLogo-6" data-name="fullLogo" d="m574.1389,441.1462h-93.073v-10.2379l58.7688-68.3422h-57.4394v-15.8224h85.4944v10.2379l-59.3009,68.2088h65.5502v15.9557Z" style="fill: #252525;"/>
  <path id="fullLogo-7" data-name="fullLogo" d="m582.5162,346.7437h76.4532v15.4232h-58.6361v21.5401h34.9688v15.5565h-34.9688v26.0603h63.9547v15.8224h-81.7717v-94.4025Z" style="fill: #252525;"/>
  <path id="fullLogo-8" data-name="fullLogo" d="m672.5341,346.7437h52.7857c20.7417,0,32.3098,9.5729,32.3098,28.1879,0,12.7639-6.5153,21.8051-18.615,25.5286l22.2051,40.6859h-18.8808l-21.4068-38.825h-30.5813v38.825h-17.8166v-94.4025Zm17.8166,15.8224v24.1986h33.5065c10.2379,0,15.4232-3.9885,15.4232-11.833,0-8.6429-5.1852-12.3655-15.4232-12.3655h-33.5065Z" style="fill: #252525;"/>
  <path id="fullLogo-9" data-name="fullLogo" d="m765.0774,393.9449c0-28.3212,21.4068-48.7971,49.4613-48.7971s49.4613,20.4759,49.4613,48.7971c0,28.1879-21.4068,48.7971-49.4613,48.7971-28.3204,0-49.4613-20.4767-49.4613-48.7971Zm80.7077,0c0-17.95-12.4989-32.5756-31.2464-32.5756s-31.113,14.6256-31.113,32.5756c0,18.2158,12.2322,32.5756,31.113,32.5756,18.7475,0,31.2464-14.4931,31.2464-32.5756Z" style="fill: #252525;"/>
  <path id="fullLogo-10" data-name="fullLogo" d="m520.294,25.3584L476.3727.0012l-46.1669,26.6541L384.039,0l-51.5999,29.791.0012,53.3094-46.1681,26.6541v50.7168c0,38.3503,20.6319,74.0867,53.8449,93.2624l43.9219,25.3571,46.1669-26.6541,46.1669,26.6541,51.5993-29.7897v-53.3094l46.1669-26.6541v-50.7168c0-38.3503-20.6325-74.0867-53.8449-93.2624Zm-49.3537,90.6698v47.0357l-40.7344,23.5185-40.7344-23.5185-.0006-47.0357,40.7351-23.5197,40.7344,23.5197Zm-92.3338,47.7735l-35.941,20.7503v-42.2374l35.9407-20.751.0004,42.2381Zm-31.1472,29.0534l35.9407-20.7501,36.5798,21.1185-35.9408,20.7511-33.4917-19.3365-3.088-1.783Zm92.9726.3684l36.5798-21.1185,35.9403,20.7499-36.5793,21.1198-35.9408-20.7511Zm-15.0194-110.4926l-36.5802,21.1195v-41.5004l36.5802-21.1193v41.5002Zm-50.961,30.1604l-36.5795,21.1198-35.9408-20.7508,36.5806-21.1189,19.8724,11.4731,16.0672,9.2767Zm9.5874-58.8448l-35.9405-20.75,35.9405-20.7503,35.9408,20.7501-35.9408,20.7501Zm89.7692-1.4798l-33.3768-19.27,35.9414-20.7504,38.4888,22.2215c29.8621,17.241,48.4125,49.3711,48.4125,83.8531v44.443l-35.9405,20.75v-38.5389c0-38.1231-20.5095-73.6473-53.5254-92.7082Zm-84.9759,169.7114l36.5802-21.1203v41.5013l-36.5802,21.1193v-41.5003Zm92.3337,0l35.9411-20.7513v41.5006l-35.9411,20.751v-41.5002Z" style="fill: #fe552e;"/>
</svg>