<svg xmlns="http://www.w3.org/2000/svg"
  xmlns:xlink="http://www.w3.org/1999/xlink" width="552" height="122" viewBox="0 0 552 122">
  <defs>
    <clipPath id="clip-path">
      <rect width="552" height="122" fill="none"/>
    </clipPath>
  </defs>
  <g id="Repeat_Grid_1" data-name="Repeat Grid 1" clip-path="url(#clip-path)">
    <g transform="translate(-258 12)">
      <g id="Component_1_1" data-name="Component 1 – 1" transform="translate(261.9 13.3)">
        <path id="Path_1" data-name="Path 1" d="M14.9,0H1.9L25.6-60a12.736,12.736,0,0,1,5.35-6.75A17.845,17.845,0,0,1,39.8-68.7a17.615,17.615,0,0,1,8.75,1.95A12.3,12.3,0,0,1,53.8-60L76.6,0H63.5L43-54.3a3.29,3.29,0,0,0-3.3-2.3,3.468,3.468,0,0,0-3.4,2.3ZM93.7-67.5v44.1a15.641,15.641,0,0,0,.65,4.55,8.486,8.486,0,0,0,2.25,3.7,11.162,11.162,0,0,0,4.25,2.45,20.95,20.95,0,0,0,6.65.9h26.2V0H106.8A33.22,33.22,0,0,1,95.35-1.75,20.388,20.388,0,0,1,87.6-6.6a18.434,18.434,0,0,1-4.35-7.35A30.76,30.76,0,0,1,81.9-23.3V-67.5Zm97.1,0v11.8H171.1V0H159.2V-55.7H139.5V-67.5Zm46.3,0q14.8,0,22.65,8.4t7.85,25.5q0,17-7.85,25.3T237.1,0h-9.2q-14.8,0-22.65-8.3T197.4-33.6q0-17.1,7.85-25.5t22.65-8.4Zm-9.2,11.8q-9.8,0-14.25,5.2T209.2-33.6q0,11.6,4.4,16.7t14.3,5.1h9.2q9.7,0,14.15-5.15T255.7-33.7q0-11.6-4.4-16.8t-14.2-5.2ZM333.6-67.5v11.8H299q-4.6,0-6.7,2.25a8.093,8.093,0,0,0-2.1,5.75,9.9,9.9,0,0,0,.45,2.95,6.277,6.277,0,0,0,1.6,2.6,7.8,7.8,0,0,0,3.05,1.8,15.424,15.424,0,0,0,4.9.65H316a30.936,30.936,0,0,1,11.3,1.75,18.414,18.414,0,0,1,6.95,4.55,15.106,15.106,0,0,1,3.5,6.4,28.116,28.116,0,0,1,.95,7.2,24.856,24.856,0,0,1-1.2,7.9,16.042,16.042,0,0,1-3.8,6.25,17.814,17.814,0,0,1-6.65,4.15A28.481,28.481,0,0,1,317.2,0H279.6V-11.8h38q4.8,0,7.05-2.35a8.388,8.388,0,0,0,2.25-6.05,10.2,10.2,0,0,0-.5-3.15,6.42,6.42,0,0,0-1.7-2.7,8.677,8.677,0,0,0-3.25-1.85,16.146,16.146,0,0,0-5.15-.7H300.6a30.588,30.588,0,0,1-11.1-1.7,17.138,17.138,0,0,1-6.75-4.5,15.713,15.713,0,0,1-3.4-6.3,26.621,26.621,0,0,1-.95-7,25.025,25.025,0,0,1,1.15-7.75,15.456,15.456,0,0,1,3.7-6.15,17.225,17.225,0,0,1,6.55-4.05,28.249,28.249,0,0,1,9.6-1.45Zm61.2,0v11.8H375.1V0H363.2V-55.7H343.5V-67.5Zm47.5,0a26.216,26.216,0,0,1,9.8,1.65,19.133,19.133,0,0,1,6.75,4.4,17.023,17.023,0,0,1,3.9,6.45A23.894,23.894,0,0,1,464-47.3a25.7,25.7,0,0,1-.8,6.35,20.971,20.971,0,0,1-2.5,5.9,18.355,18.355,0,0,1-4.4,4.85,19.042,19.042,0,0,1-6.6,3.2L465.4,0H452.3L436.9-26.1H419.3a1.5,1.5,0,0,0-1.7,1.7V0H405.8V-26.7q0-5.7,2.5-8.2t8.1-2.5h26.3a10.534,10.534,0,0,0,4.3-.8,7.951,7.951,0,0,0,2.9-2.1,8.771,8.771,0,0,0,1.65-3,11.3,11.3,0,0,0,.55-3.5,9.351,9.351,0,0,0-2.25-6.25q-2.25-2.65-7.15-2.65h-37V-67.5ZM484,0H471l23.7-60a12.736,12.736,0,0,1,5.35-6.75,17.845,17.845,0,0,1,8.85-1.95,17.616,17.616,0,0,1,8.75,1.95A12.3,12.3,0,0,1,522.9-60L545.7,0H532.6L512.1-54.3a3.29,3.29,0,0,0-3.3-2.3,3.468,3.468,0,0,0-3.4,2.3Z" transform="translate(-1.9 68.7)" fill="#5f5ff6" stroke="#5f5ff6" stroke-width="2"/>
      </g>
    </g>
  </g>
</svg>
