<?xml version="1.0" encoding="UTF-8"?>
<svg id="Main" xmlns="http://www.w3.org/2000/svg" viewBox="0 0 2000 341.87">
  <defs>
    <style>
      .cls-1 {
        fill: #ff7023;
      }

      .cls-2 {
        fill: #2d2a27;
      }
    </style>
  </defs>
  <g>
    <path class="cls-1" d="M263.08,0H116.06c-15.2,0-29.25,8.11-36.85,21.28L5.7,148.6c-7.6,13.17-7.6,29.39,0,42.55l74.73,129.8c7.6,13.17,22.17,20.92,37.38,20.92h73.19l-99.32-172,48.94-84.77h97.89l48.94,84.77-59.06,102.29h98.27l46.77-81.01c7.6-13.16,7.6-29.38,0-42.55l-73.51-127.32c-7.6-13.17-21.65-21.28-36.85-21.28h0Z"/>
    <g>
      <polygon class="cls-2" points="634.21 46.05 506.51 46.05 506.51 106.13 604.89 106.13 604.89 148.65 506.51 148.65 506.51 226.12 636.3 226.12 636.3 272.17 472.96 272.17 448.5 229.8 448.5 0 634.17 0 634.17 46.05 634.21 46.05"/>
      <polygon class="cls-2" points="635.95 64.55 635.95 62.46 692.76 62.46 737.34 225.96 745.63 225.96 790.42 62.46 842.04 62.46 842.04 64.55 782.12 272.08 695.86 272.08 635.95 64.55"/>
      <path class="cls-2" d="M969.57,107.84c-6.92-8.59-16.72-12.9-29.44-12.9s-23.12,4.16-30.79,12.48c-7.66,8.32-12.41,20.79-14.2,37.41h86.46c-1.11-16.07-5.11-28.41-12.03-36.99ZM886.22,264.01c-15.06-8.87-26.44-21.6-34.11-38.15-7.66-16.55-11.51-36.22-11.51-59.01s3.83-42.38,11.51-58.79c7.66-16.42,19.01-28.99,34.01-37.73,15-8.74,33.14-13.1,54.43-13.1,30.82,0,54.46,9.51,70.92,28.51,16.46,19,24.68,46.67,24.68,83.01v11.74h-141c1.24,17.89,5.84,31.86,13.78,41.92,7.95,10.06,18.7,15.09,32.25,15.09,10.24,0,18.73-3.07,25.51-9.22,6.77-6.15,11.26-13.9,13.47-23.28h53.28c-2.21,13.42-6.98,25.57-14.3,36.47-7.33,10.9-17.52,19.6-30.59,26.09-13.07,6.49-28.86,9.74-47.38,9.74-21.56,0-39.88-4.44-54.94-13.31l-.02.02Z"/>
      <path class="cls-2" d="M1058.32,62.46h34.01l17.83,31.44h8.29l18.03-31.44h49.13v46.75h-18.05c-13.69,0-24.4,2.38-32.15,7.13-7.75,4.75-13.2,11.94-16.37,21.6-3.19,9.64-4.78,22.44-4.78,38.37v95.79h-55.99V62.46h.03Z"/>
      <path class="cls-2" d="M1339.06,218.83c7.18-11.74,10.78-28.93,10.78-51.57s-3.6-39.83-10.78-51.57c-7.18-11.74-17.22-17.61-30.06-17.61-9.26,0-17.38,2.83-24.37,8.49-6.98,5.67-12.37,13.7-16.17,24.11-3.8,10.41-5.71,22.61-5.71,36.57s1.89,26.19,5.71,36.69c3.8,10.48,9.19,18.51,16.17,24.11,6.98,5.58,15.1,8.38,24.37,8.38,12.86,0,22.88-5.87,30.06-17.61v-.02ZM1206.77,62.46h36.3l15.56,27.25h8.29c5.11-9.64,12.44-17.29,21.98-22.96,9.54-5.67,21.56-8.49,36.08-8.49,18.38,0,33.76,4.65,46.13,13.94,12.37,9.29,21.6,22.15,27.69,38.57,6.09,16.42,9.12,35.4,9.12,56.92s-3.12,40.85-9.32,57.12c-6.22,16.28-15.56,28.93-28,37.93-12.44,9.01-27.65,13.52-45.62,13.52-25.02,0-43-9.09-53.91-27.25h-8.29v92.87h-55.99V62.46h-.02Z"/>
      <path class="cls-2" d="M1444.71,255.63c-11.96-14.46-17.93-34.48-17.93-60.05V62.46h55.99v123.67c0,30.05,10.72,45.08,32.13,45.08,8.84,0,16.49-2.41,22.91-7.23,6.42-4.81,11.3-11.45,14.61-19.92,3.32-8.45,4.98-17.93,4.98-28.41V62.46h55.99v209.62h-32.35l-18.05-31.44h-8.29c-3.73,11.19-10.37,20.09-19.91,26.73-9.54,6.64-22.26,9.96-38.15,9.96-22.68,0-39.98-7.23-51.94-21.7h.02Z"/>
      <path class="cls-2" d="M1636.61,62.46h34.01l17.83,31.44h8.29l18.03-31.44h49.13v46.75h-18.05c-13.69,0-24.4,2.38-32.15,7.13-7.75,4.75-13.2,11.94-16.37,21.6-3.19,9.64-4.78,22.44-4.78,38.37v95.79h-55.99V62.46h.03Z"/>
      <path class="cls-2" d="M1895.58,107.84c-6.92-8.59-16.72-12.9-29.44-12.9s-23.12,4.16-30.79,12.48c-7.66,8.32-12.41,20.79-14.2,37.41h86.46c-1.11-16.07-5.11-28.41-12.03-36.99ZM1812.23,264.01c-15.06-8.87-26.44-21.6-34.11-38.15-7.66-16.55-11.51-36.22-11.51-59.01s3.83-42.38,11.51-58.79c7.66-16.42,19.01-28.99,34.01-37.73,15-8.74,33.14-13.1,54.43-13.1,30.82,0,54.46,9.51,70.92,28.51,16.46,19,24.68,46.67,24.68,83.01v11.74h-141c1.24,17.89,5.84,31.86,13.78,41.92,7.95,10.06,18.69,15.09,32.25,15.09,10.23,0,18.73-3.07,25.51-9.22,6.77-6.15,11.26-13.9,13.47-23.28h53.28c-2.21,13.42-6.98,25.57-14.3,36.47-7.33,10.9-17.52,19.6-30.59,26.09-13.07,6.49-28.86,9.74-47.38,9.74-21.56,0-39.88-4.44-54.94-13.31l-.02.02Z"/>
    </g>
  </g>
  <g>
    <polygon class="cls-2" points="1942.3 37.51 1934.53 37.51 1934.53 35.18 1952.86 35.18 1952.86 37.51 1945.09 37.51 1945.09 58.6 1942.34 58.6 1942.34 37.51 1942.3 37.51"/>
    <polygon class="cls-2" points="1955.62 35.18 1960.63 35.18 1967.58 56.31 1968.16 56.31 1975.19 35.18 1980.23 35.18 1980.23 58.6 1977.48 58.6 1977.48 37.59 1976.89 37.59 1969.98 58.6 1965.6 58.6 1958.72 37.59 1958.14 37.59 1958.14 58.6 1955.62 58.6 1955.62 35.18"/>
  </g>
</svg>