<?xml version="1.0" encoding="UTF-8"?>
<svg width="600" height="105" xmlns="http://www.w3.org/2000/svg">
 <mask id="a" x="21" y="268" width="116.6" height="105.7" maskUnits="userSpaceOnUse">
  <g filter="url(#b)">
   <path d="m21 268h117v105h-117z" fill="#fff"/>
  </g>
 </mask>
 <filter id="b" x="21" y="268" width="116.6" height="105.7" filterUnits="userSpaceOnUse">
  <feColorMatrix in="SourceGraphic" result="result1" values="1 0 0 0 0 0 1 0 0 0 0 0 1 0 0 0 0 0 1 0"/>
 </filter>
 <g transform="translate(-21 -268)" mask="url(#a)">
  <path d="m83 373h-25c-6 0-11-3-13-7l-22-38c-3-5-3-10 0-15l22-38c2-4 7-7 13-7h43c5 0 10 3 13 7l22 38c2 5 2 10 0 15l-6 9c-3 5-8 7-13 7h-26l14-24-13-22h-26l-13 22z" fill="#fe5000"/>
 </g>
 <path d="m159 53c4 0 7-2 7-7 0-4-2-6-7-6h-3v13zm-3 25h-12v-47h17c11 0 18 5 18 15 0 11-8 16-20 16h-3zm41-47v30c0 5 3 7 7 7s6-2 6-7v-30h12v32c0 9-7 15-18 15-12 0-18-5-18-16v-31zm77 0h31v10h-19v8h16v10h-16v8h19v11h-31zm42 38c2 1 7 4 13 4 5 0 10-2 10-9 0-6-5-7-11-9-7-2-13-4-13-13 0-8 6-13 15-13 6 0 12 3 15 6l-3 4c-4-3-8-5-12-5s-9 2-9 7c0 6 4 8 10 9 7 2 14 5 14 14s-6 14-16 14c-7 0-13-3-15-5zm67-38v5h-14v42h-5v-42h-14v-5zm23 42c10 0 13-10 13-19s-2-20-13-20c-10 0-14 10-14 19s3 20 14 20m0 5c-12 0-19-9-19-25 0-18 10-24 19-24 10 0 19 6 19 24 0 17-8 25-19 25m78-19h15l-8-23zm-12 19 16-47h7l17 47h-6l-5-15h-19l-5 15zm76-5c-4 3-9 5-15 5-12 0-20-8-20-25 0-18 11-24 20-24 4 0 10 2 15 8l-4 3c-3-4-7-6-11-6-9 0-14 7-14 19 0 13 4 20 14 20l9-2v-14h-10v-5h16zm10-42h26v5h-20v15h17v5h-17v17h20v5h-26zm-112 25h-7v-21h6c8 0 14 1 14 11 0 7-5 10-13 10zm14 7c-1-3-2-4-4-4 6-3 9-7 9-14 0-10-6-14-16-14h-16v47h6v-18h10c3 0 4 2 5 5l6 12h6zm-217-10v-13h3c4 0 7 2 7 6 0 5-3 7-8 7zm18 10-3-4c4-3 7-7 7-13 0-10-7-15-17-15h-17v47h11v-16h4l3 3 5 13h13zm333-28 2-1-2-1h-1v2zm-1 4h-1v-7h2c2 0 3 1 3 2l-2 2 2 3h-1l-2-3h-1zm1-9c-3 0-5 2-5 5s2 5 5 5 5-2 5-5-2-5-5-5zm0 11c-4 0-6-2-6-6s3-6 6-6 6 2 6 6-3 6-6 6z" fill="#222"/>
</svg>
