<svg id="Layer_1" data-name="Layer 1" xmlns="http://www.w3.org/2000/svg" viewBox="0 0 50 50"><defs><style>.cls-1{fill:#5be2b9;}</style></defs><path class="cls-1" d="M14.73,27.78l.11-.1,0,0,.3-.26.17-.12.31-.2.18-.1a2.55,2.55,0,0,1,.33-.17l0,0,.14-.06a4.29,4.29,0,0,1,.43-.16l.08,0,.52-.14.12,0h0l.37-.06.17,0h0l.34,0h.4l.31,0h.12l.43.07.06,0a2,2,0,0,1,.35.09l.11,0h0l.27.1.14.06.27.13h0l.1,0,.37.22A5.32,5.32,0,0,1,23,28.88c.12.22.23.45.34.7a9.12,9.12,0,0,1,.38,1.15A13.4,13.4,0,0,1,24,32.62c0,.27.06.54.08.81a30.78,30.78,0,0,1,.31-3.57,9.19,9.19,0,0,1,1.24-3.52l.29-.42.08-.1.28-.32.05-.05c.1-.11.22-.22.34-.33l.07-.06,0,0,.3-.23h0l.07-.05a3,3,0,0,1,.38-.24l.07,0h0L28,24.3h0l.09,0,.39-.16.06,0,.36-.11.11,0,.37-.08h0l.4-.05h.64l.39,0H31l.32,0,.17,0,.33.08h0L32,24c.17,0,.31.11.45.16a5.18,5.18,0,0,1,1.88,1.4c.14-1.06.25-2.12.32-3.19a37.39,37.39,0,0,0-.21-7.25c0-.39-.19-1.31-.21-1.37a24.71,24.71,0,0,0-1.8-6,15.89,15.89,0,0,0-1.53-2.73A11.08,11.08,0,0,0,22,0,11.8,11.8,0,0,0,19.55.1a16.83,16.83,0,0,0-5,1.45,14.93,14.93,0,0,0-4.74,3.3A17.58,17.58,0,0,0,7.31,8.38a9.79,9.79,0,0,0-1.08,6.79,19.09,19.09,0,0,0,1.32,4.15c.32.73,3.66,6.73,5,8.75.29.43.55.86.88,1.26l.07.1a7.34,7.34,0,0,1,.8-1.22C14.45,28.07,14.58,27.93,14.73,27.78ZM24.32,9.57a1.8,1.8,0,0,1,1.79.79c.07.09.12.2.18.29.23.77.41,1.55.57,2.34a1.88,1.88,0,0,1-3.66.82c-.11-.34-.4-1.63-.47-1.93A1.85,1.85,0,0,1,24.32,9.57Zm-5.19,1a2,2,0,0,1,2.21,1.54c.1.4.19.81.29,1.22,0,.05.19.7.23,1a2,2,0,0,1-3.33,1.86L18.31,16h0a3,3,0,0,1-.54-1.2c-.12-.55-.26-1.1-.39-1.66A2,2,0,0,1,19.13,10.53Z"/><path class="cls-1" d="M44,18.75a2.47,2.47,0,0,0-.17-.66,1.4,1.4,0,0,0-.15-.3l-.06-.09-.13-.18-.09-.09a.93.93,0,0,0-.14-.14l-.11-.08A.83.83,0,0,0,43,17.1L42.84,17l-.16-.09-.14-.05a1.15,1.15,0,0,0-.17-.06.8.8,0,0,0-.15,0l-.18,0h-.16a.67.67,0,0,0-.2,0h-.19a1.53,1.53,0,0,0-.37.08,3.44,3.44,0,0,0-.84.41l-.37.26a4,4,0,0,0-.63.59c-.09.11-.18.22-.26.34a3.77,3.77,0,0,0-.38.75,3.45,3.45,0,0,0-.2.87c-.11,1-.16,2-.19,3,0,.33,0,.66,0,1,0,1-.3,9.82-.37,10.86,0,.52-.13,1.79-.14,1.91-.21,4.64-.53,9-1.48,8.94s-1.14-4-.93-9c0-.37,0-4.46-.05-5s-.09-1-.16-1.52-.13-.8-.22-1.2-.13-.52-.21-.78a7.81,7.81,0,0,0-.47-1.12A4.37,4.37,0,0,0,32,25.06l-.35-.13-.12,0-.26-.07-.14,0-.27,0-.14,0-.32,0h-.16l-.28,0h-.09l-.34.05h0l-.33.07-.09,0-.29.09,0,0-.32.13-.09,0-.26.14-.07,0-.31.2-.07.05-.24.19-.08.07-.28.26,0,.05a2.75,2.75,0,0,0-.22.26l-.07.09a3.12,3.12,0,0,0-.25.35A8.23,8.23,0,0,0,25.38,30c-.07.48-.13.95-.17,1.42s0,.87-.05,1.34c-.06,1.37-.13,2.74-.23,3.91,0,.37-.06.74-.11,1.11l-.06.41c-.16,1.08-.38,1.76-.71,1.75-.49,0-.7-1.35-.73-3.31a.53.53,0,0,1,0-.13c-.09-1.26-.11-2.53-.24-3.79a12.79,12.79,0,0,0-.3-1.75,6.07,6.07,0,0,0-.33-1,5.39,5.39,0,0,0-.29-.59,4.19,4.19,0,0,0-1.31-1.44,2.61,2.61,0,0,0-.28-.17l-.1-.05-.21-.1-.11-.05-.22-.08-.11,0-.29-.07h-.05a2,2,0,0,0-.34-.06H19l-.25,0h-.33l-.28,0H18l-.31,0-.13,0-.43.11-.05,0-.37.14-.14.06-.27.14-.15.09-.24.16-.14.1a1.64,1.64,0,0,0-.25.21l-.11.1c-.11.11-.22.22-.33.35a6.74,6.74,0,0,0-1.24,2.5A18.26,18.26,0,0,0,13.32,34c-.05.29-.09.59-.13.89s-.09.61-.14.92a7.59,7.59,0,0,1-.34,1.32c-.09.2-.19.32-.31.32-.45,0-.65-1.29-.7-3.15,0-.08-.1-2.58-.1-2.8a1.6,1.6,0,0,0,0-.44,1.85,1.85,0,0,0-.12-.4,2.45,2.45,0,0,0-.46-.7,2.27,2.27,0,0,0-1.53-.66H9.09l-.1,0-.1,0-.1,0-.1,0-.09,0-.1.05-.09,0-.09.05-.09.05-.09.06-.08.06L8,29.81l-.07.07L7.83,30,7.77,30l-.07.09-.06.07-.07.09a.22.22,0,0,1-.05.08l0,.1,0,.09a1.17,1.17,0,0,0,0,.11l0,.08a.56.56,0,0,0,0,.12.24.24,0,0,0,0,.08.74.74,0,0,0,0,.14s0,.05,0,.07l0,.22c0,.37,0,.74,0,1.12,0,.18,0,.37,0,.56,0,.37,0,.74.07,1.11,0,.56.13,1.11.23,1.66a9.76,9.76,0,0,0,1.16,3.31,7.66,7.66,0,0,0,.45.66,5.08,5.08,0,0,0,1.47,1.3l.37.18a3.34,3.34,0,0,0,.44.17l.14,0,.31.08.16,0,.3,0,.16,0,.37,0h.14l.3,0h.1c.11,0,.23,0,.34-.06h0l.34-.08.1,0,.28-.1,0,0,.32-.15.08,0L15.1,41l.07,0,.29-.22.06-.06.22-.21.07-.07a3.47,3.47,0,0,0,.25-.29.1.1,0,0,1,0,0c.07-.09.13-.19.2-.29l.06-.09.21-.37a8.76,8.76,0,0,0,.69-2.06c.19-.87.3-1.75.43-2.64,0-.17,0-.34.07-.52.12-1.46.32-2.52.64-2.51s.36.72.32,1.9c0,.21.07,1.38.09,1.75a31.68,31.68,0,0,0,.28,3.37l.06.37a8.55,8.55,0,0,0,.35,1.41,6.49,6.49,0,0,0,.43,1A4.59,4.59,0,0,0,24.24,44l.32,0h.3c.1,0,.2,0,.3-.06a1.28,1.28,0,0,0,.27,0l.28-.08.26-.08.25-.13.24-.11.25-.16.22-.14.23-.21.19-.16a4,4,0,0,0,.28-.3.69.69,0,0,1,.11-.13c.12-.15.24-.32.35-.49A7,7,0,0,0,29,39.66a14.84,14.84,0,0,0,.27-1.6c.05-.36.08-.71.1-1.07,0-.18.07-1.08.08-1.36s.25-4.5.3-4.82a6.23,6.23,0,0,1,.22-.95c0-.05,0-.11,0-.16a1.83,1.83,0,0,1,.14-.32h0c.11-.22.23-.35.37-.34.61,0,.58,1.92.45,4.94,0,0,0,1.5,0,1.87,0,0,0,1.17,0,1.75,0,1.75,0,3.51.09,5.26a16.88,16.88,0,0,0,.41,2.9,6.3,6.3,0,0,0,1.4,2.89c.11.12.23.23.35.34l.12.09a2.43,2.43,0,0,0,.25.2l.14.09.24.15.16.08.25.11.17.07.26.08.17,0,.31.06.13,0,.47,0,.53,0a4.07,4.07,0,0,0,2.49-1.28c.09-.1.19-.2.27-.3a7.24,7.24,0,0,0,.48-.65l.21-.34c.13-.23.25-.47.36-.71s.21-.49.3-.75a22.73,22.73,0,0,0,1.12-4.53c.37-2.34.89-11.57.94-13.81,0-1,0-2,.07-3s0-2,.09-3l0-.33,0-.14a1.26,1.26,0,0,1,.31-.53l.13-.12a1.88,1.88,0,0,0,.25-.24,1.84,1.84,0,0,0,.34-.57,2,2,0,0,0,.14-.65A1.82,1.82,0,0,0,44,18.75Z"/></svg>