<svg width="1280" height="285" viewBox="0 0 1280 285" fill="none" xmlns="http://www.w3.org/2000/svg">
<rect y="0.444336" width="284.444" height="284.444" rx="142.222" fill="#ED9453"/>
<path fill-rule="evenodd" clip-rule="evenodd" d="M58.4707 78.4295C58.4707 83.6799 60.9447 88.3525 64.7905 91.3451V203.471C60.9447 206.463 58.4708 211.136 58.4708 216.386C58.4708 225.419 65.7934 232.742 74.8263 232.742C83.8592 232.742 91.1819 225.419 91.1819 216.386C91.1819 211.11 88.6835 206.417 84.8053 203.427V91.389C85.8505 90.583 86.7954 89.6534 87.6182 88.6221H102.172C104.294 91.2809 107.227 93.2635 110.596 94.1951L157.341 208.23C155.957 210.631 155.166 213.416 155.166 216.386C155.166 225.419 162.488 232.742 171.521 232.742C180.554 232.742 187.877 225.419 187.877 216.386C187.877 213.43 187.093 210.658 185.721 208.265L233.007 94.2238C239.972 92.348 245.099 85.9875 245.099 78.4296C245.099 69.3967 237.776 62.074 228.743 62.074C219.71 62.074 212.388 69.3967 212.388 78.4296C212.388 81.3763 213.167 84.1409 214.53 86.5288L171.563 190.155L129.123 86.6228C130.52 84.2136 131.32 81.4149 131.32 78.4295C131.32 69.3966 123.997 62.0739 114.964 62.0739C109.713 62.0739 105.04 64.5484 102.048 68.395H87.7428C84.7503 64.5484 80.0772 62.0739 74.8263 62.0739C65.7933 62.0739 58.4707 69.3965 58.4707 78.4295ZM228.741 88.4641C234.283 88.4641 238.776 83.9715 238.776 78.4296C238.776 72.8876 234.283 68.395 228.741 68.395C223.199 68.395 218.707 72.8876 218.707 78.4296C218.707 83.9715 223.199 88.4641 228.741 88.4641ZM181.554 216.386C181.554 221.928 177.062 226.421 171.52 226.421C165.978 226.421 161.485 221.928 161.485 216.386C161.485 210.844 165.978 206.352 171.52 206.352C177.062 206.352 181.554 210.844 181.554 216.386ZM74.8264 88.4641C80.3684 88.4641 84.861 83.9715 84.861 78.4296C84.861 72.8876 80.3684 68.395 74.8264 68.395C69.2845 68.395 64.7919 72.8876 64.7919 78.4296C64.7919 83.9715 69.2845 88.4641 74.8264 88.4641ZM124.999 78.4296C124.999 83.9715 120.506 88.4641 114.964 88.4641C109.423 88.4641 104.93 83.9715 104.93 78.4296C104.93 72.8876 109.423 68.395 114.964 68.395C120.506 68.395 124.999 72.8876 124.999 78.4296ZM74.8264 226.421C80.3684 226.421 84.861 221.928 84.861 216.386C84.861 210.844 80.3684 206.352 74.8264 206.352C69.2845 206.352 64.7919 210.844 64.7919 216.386C64.7919 221.928 69.2845 226.421 74.8264 226.421Z" fill="#F7F7F7"/>
<path fill-rule="evenodd" clip-rule="evenodd" d="M634.181 71.183C638.853 69.2682 644.191 71.5026 646.106 76.1736L689.369 181.712L733.143 76.1396C735.076 71.4763 740.424 69.2635 745.087 71.197C749.751 73.1306 751.963 78.4784 750.03 83.1416L697.764 209.194C696.346 212.614 693.005 214.841 689.302 214.833C685.599 214.826 682.267 212.586 680.863 209.16L629.191 83.1076C627.276 78.4366 629.51 73.0978 634.181 71.183ZM566.438 79.6405C566.438 74.5923 562.346 70.4999 557.297 70.4999C552.249 70.4999 548.157 74.5923 548.157 79.6405V179.784L460.391 74.0981C457.931 71.1353 453.877 70.0325 450.255 71.3404C446.633 72.6484 444.219 76.0865 444.219 79.9378V205.693C444.219 210.741 448.311 214.833 453.359 214.833C458.408 214.833 462.5 210.741 462.5 205.693V105.252L550.265 210.938C552.726 213.901 556.779 215.003 560.402 213.695C564.024 212.388 566.438 208.949 566.438 205.098V79.6405ZM365.936 79.6408C365.936 74.5926 361.843 70.5002 356.795 70.5002C351.747 70.5002 347.654 74.5926 347.654 79.6408V205.693C347.654 210.741 351.747 214.834 356.795 214.834C361.843 214.834 365.936 210.741 365.936 205.693V79.6408ZM893.829 209.159C895.743 213.83 901.082 216.065 905.753 214.15C910.424 212.235 912.659 206.896 910.744 202.225L884.908 139.199L884.88 139.131L858.45 76.1053C857.018 72.6908 853.668 70.4773 849.965 70.4997C846.263 70.5221 842.939 72.7758 841.549 76.2074L816.023 139.2L789.905 202.191C787.971 206.855 790.184 212.202 794.847 214.136C799.511 216.07 804.858 213.857 806.792 209.193L832.925 146.167L832.953 146.099L850.165 103.622L868.007 146.167L893.829 209.159ZM982.633 70.4999C977.584 70.4999 973.492 74.5923 973.492 79.6405V142.995L973.492 143.036L973.492 143.077V205.693C973.492 210.741 977.584 214.833 982.633 214.833C987.681 214.833 991.773 210.741 991.773 205.693V152.177H1049.35L1078.1 209.493C1080.37 214.005 1085.86 215.829 1090.37 213.565C1094.88 211.302 1096.71 205.809 1094.44 201.297L1068.53 149.64C1084.35 144.082 1095.71 129.113 1095.71 111.228C1095.71 88.5125 1077.38 70.4999 1054.89 70.4999H982.633ZM1052.89 133.895C1053.54 133.75 1054.21 133.675 1054.89 133.675C1067.39 133.675 1077.43 123.732 1077.43 111.228C1077.43 98.7239 1067.39 88.7812 1054.89 88.7812H991.773V133.895H1052.89ZM1174 73.8537C1170.8 69.9461 1165.04 69.3693 1161.13 72.5654C1157.23 75.7615 1156.65 81.5202 1159.85 85.4278L1209.45 146.078V205.693C1209.45 210.741 1213.55 214.834 1218.59 214.834C1223.64 214.834 1227.73 210.741 1227.73 205.693V146.107L1277.9 85.4674C1281.12 81.5778 1280.58 75.8159 1276.69 72.5979C1272.8 69.38 1267.03 69.9245 1263.82 73.8141L1218.63 128.428L1174 73.8537Z" fill="#141223"/>
</svg>
