<svg id="Layer_1" data-name="Layer 1" xmlns="http://www.w3.org/2000/svg" viewBox="0 0 1212.32 300.38"><defs><style>.cls-1{fill:#131619;}.cls-2{fill:#48CFAD;}</style></defs><title>aporia-logo</title><path class="cls-1" d="M420.37,89.15c-11.5-14.38-28.76-23.33-52.09-23.33-42.51,0-77.66,36.75-77.66,84.37s35.15,84.38,77.66,84.38c23.33,0,40.59-8.95,52.09-23.33v18.85H461.6V70.29H420.37ZM376,195.26c-25.25,0-44.11-18.22-44.11-45.07S350.7,105.13,376,105.13c25.57,0,44.42,18.22,44.42,45.06S401.52,195.26,376,195.26Z"/><path class="cls-1" d="M585.6,65.82c-23.33,0-40.27,8.63-51.77,23.33V70.29H492.6V294h41.23V211.24c11.5,14.7,28.44,23.33,51.77,23.33,42.83,0,78-36.75,78-84.38S628.43,65.82,585.6,65.82Zm-7.67,129.44c-25.25,0-44.1-18.22-44.1-45.07s18.85-45.06,44.1-45.06c25.57,0,44.43,18.22,44.43,45.06S603.5,195.26,577.93,195.26Z"/><path class="cls-1" d="M762.34,65.82c-47,0-84.38,36.75-84.38,84.37s37.39,84.38,84.38,84.38S847,197.82,847,150.19,809.32,65.82,762.34,65.82Zm0,128.48c-24.29,0-43.15-18.22-43.15-44.11s18.86-44.1,43.15-44.1c24.6,0,43.46,18.22,43.46,44.1S786.94,194.3,762.34,194.3Z"/><path class="cls-1" d="M911,97.78V70.29H869.72v159.8H911V153.71c0-33.56,27.16-43.15,48.57-40.59v-46C939.39,67.1,919.26,76,911,97.78Z"/><path class="cls-1" d="M997.55.3C983.81.3,972.3,12.12,972.3,25.87a25.41,25.41,0,0,0,50.82,0A25.85,25.85,0,0,0,997.55.3Z"/><rect class="cls-1" x="977.1" y="70.29" width="41.23" height="159.8"/><path class="cls-1" d="M1171.09,70.29V89.15c-11.5-14.38-28.76-23.33-52.09-23.33-42.51,0-77.67,36.75-77.67,84.37s35.16,84.38,77.67,84.38c23.33,0,40.59-8.95,52.09-23.33v18.85h41.23V70.29Zm-44.42,125c-25.25,0-44.11-18.22-44.11-45.07s18.86-45.06,44.11-45.06c25.57,0,44.42,18.22,44.42,45.06S1152.24,195.26,1126.67,195.26Z"/><path class="cls-2" d="M200.06,82.86,117.17,0,34.31,82.86A117.17,117.17,0,0,0,6.62,204.6a111.92,111.92,0,0,1,31-58.77l79.53-79.56,79.56,79.56a111.5,111.5,0,0,1,31,58.77A117.17,117.17,0,0,0,200.06,82.86Z"/><path class="cls-2" d="M117.18,119.31l-53,53a75,75,0,0,0,0,106.07h0a75,75,0,0,0,106.06,0h0a75,75,0,0,0,0-106.07Zm19.89,126a28.13,28.13,0,1,1,0-39.77A28.12,28.12,0,0,1,137.07,245.26Z"/></svg>