<?xml version="1.0" encoding="utf-8"?>
<!-- Generator: Adobe Illustrator 26.3.1, SVG Export Plug-In . SVG Version: 6.00 Build 0)  -->
<svg version="1.1" id="Layer_1" xmlns="http://www.w3.org/2000/svg" xmlns:xlink="http://www.w3.org/1999/xlink" x="0px" y="0px"
	 viewBox="0 0 160 160" style="enable-background:new 0 0 160 160;" xml:space="preserve">
<style type="text/css">
	.st0{fill:#9B5EFC;}
	.st1{fill:#FFFFFF;}
</style>
<g>
	<rect x="0" class="st0" width="160" height="160"/>
	<g>
		<g>
			<path class="st1" d="M75.5,71.8l-0.2,17.7c0,17.1-16.4,20.5-22.1,20.5c-11.9,0-21.9-7.2-21.9-20.5V70.7c0-4.1,2.4-6.6,6.3-6.6
				c4,0,6.4,2.5,6.4,6.6v17.3c0,6.7,3.4,10.4,9.3,10.4c6.3,0,9.7-3.1,9.7-10.4V71.8c0-4.1,2.4-6.6,6.4-6.6
				C73.2,65.1,75.5,67.6,75.5,71.8z"/>
		</g>
		<g>
			<path class="st1" d="M132,86.8c0,14.1-8.5,23.2-21.3,23.2c-5.8,0-10.5-2-13.6-5.5h-0.2v15.4c0,4.1-2.4,6.7-6.4,6.7
				c-3.9,0-6.3-2.6-6.3-6.7V70.7c0-4.1,2.4-6.6,6.3-6.6c3.4,0,5.7,1.8,6.3,5.1h0.2c3.1-3.6,7.8-5.6,13.7-5.6
				C123.5,63.6,132,72.7,132,86.8z M119.1,86.8c0-7-4.5-11.7-11-11.7c-6.5,0-11.2,4.9-11.2,11.7s4.7,11.7,11.2,11.7
				C114.5,98.5,119.1,93.7,119.1,86.8z"/>
		</g>
		<g>
			<circle class="st1" cx="37.6" cy="45.1" r="9.6"/>
		</g>
	</g>
</g>
</svg>
