<svg width="32" height="36" viewBox="0 0 32 36" fill="none" xmlns="http://www.w3.org/2000/svg">
<g clip-path="url(#clip0_3872_8473)">
<path d="M30.6769 14.4989C30.3912 14.3825 30.0984 14.2732 29.8021 14.1815C29.2518 14.0051 28.6838 13.8675 28.1017 13.7758C27.4985 13.6805 26.8776 13.6276 26.2462 13.6276C25.4736 13.6276 24.7222 13.7017 23.992 13.8428C23.1595 14.0051 22.3587 14.2555 21.6037 14.5836C18.7146 15.8359 16.4569 18.2242 15.4374 21.1627C15.3104 21.5331 15.201 21.9071 15.1128 22.2951C14.9364 23.0677 14.8447 23.872 14.8447 24.6975C14.8447 24.7539 14.8447 24.8139 14.8447 24.8703C14.8447 24.9091 14.8447 24.9479 14.8447 24.9832V25.0044C14.8447 25.1243 14.8412 25.2478 14.8412 25.3677V25.3924C14.8412 25.6746 14.8482 25.9604 14.8623 26.2391C14.8976 26.9376 14.9717 27.6219 15.0846 28.2922C15.1657 28.7861 15.268 29.2729 15.395 29.7526C15.4268 29.8726 15.4585 29.9961 15.4903 30.1125C15.522 30.2289 15.5573 30.3418 15.5926 30.4547C15.6843 30.758 15.7831 31.0579 15.8924 31.3542C16.0441 31.767 16.2099 32.1762 16.3898 32.5713C16.5556 32.9487 16.7391 33.3156 16.9366 33.6754C16.9684 33.7389 17.0036 33.7989 17.0389 33.8624C17.4481 34.6032 17.9103 35.3158 18.4218 35.9896C13.3525 33.9435 8.98876 30.5781 5.77856 26.3414C5.78562 26.3026 5.7962 26.2673 5.80326 26.232C6.01139 25.2266 6.30772 24.2565 6.68165 23.3217C6.74162 23.1735 6.80159 23.0324 6.86156 22.8878C6.86156 22.8842 6.86156 22.8807 6.86509 22.8772C6.91448 22.7608 6.96739 22.6479 7.02031 22.5315C7.02384 22.5209 7.03089 22.5068 7.03795 22.4962C7.04853 22.4715 7.05911 22.4468 7.0697 22.4257C7.11556 22.3269 7.16494 22.2246 7.21433 22.1258C7.28136 21.9847 7.35191 21.8436 7.42599 21.7095C7.46127 21.639 7.50007 21.5684 7.53535 21.5014C7.57063 21.4379 7.60238 21.3779 7.64118 21.3144C7.67646 21.2474 7.71526 21.1804 7.75407 21.1134C7.81756 21.004 7.88106 20.8946 7.94456 20.7888C8.01159 20.6759 8.07861 20.5666 8.14917 20.4572C8.18797 20.3937 8.22678 20.3373 8.26558 20.2773C8.27616 20.2632 8.28322 20.2491 8.2938 20.235C8.36083 20.1291 8.43138 20.0268 8.50194 19.9245C8.57249 19.8187 8.64657 19.7164 8.72065 19.6106C8.78768 19.5118 8.85823 19.4165 8.92878 19.3213C8.9817 19.2472 9.03814 19.1731 9.09459 19.1061C9.11575 19.0779 9.13692 19.0497 9.15808 19.025C9.21805 18.9474 9.2745 18.8733 9.33447 18.7992C9.40855 18.7075 9.48263 18.6193 9.55671 18.5276C9.96945 18.0337 10.4104 17.5645 10.8725 17.1165C10.9748 17.0177 11.0736 16.9225 11.1759 16.8307C13.0244 15.1233 15.2328 13.7793 17.6845 12.9256C17.9244 12.8409 18.1643 12.7598 18.4077 12.6857C18.4747 12.6646 18.5452 12.6434 18.6123 12.6257C18.6793 12.6046 18.7499 12.5869 18.8204 12.5658C18.8204 12.5658 18.8204 12.5658 18.8239 12.5658C18.831 12.5658 18.8345 12.5623 18.8416 12.5623C18.8874 12.5517 18.9333 12.5376 18.9792 12.5234C19.0038 12.5164 19.0321 12.5093 19.0568 12.5023C19.1379 12.4811 19.219 12.4599 19.3037 12.4388C19.4307 12.407 19.5577 12.3753 19.6882 12.3506C19.7517 12.3365 19.8187 12.3188 19.8822 12.3047C20.0022 12.28 20.1221 12.2553 20.2421 12.2342C20.3056 12.2201 20.3691 12.206 20.4326 12.1954C20.5666 12.1671 20.6971 12.146 20.8312 12.1248C20.8735 12.1178 20.9123 12.1107 20.9547 12.1037C21.1698 12.0684 21.385 12.0366 21.6037 12.0084C21.632 12.0049 21.6602 12.0013 21.6884 11.9978C21.8154 11.9837 21.9495 11.9696 22.08 11.9555C22.0976 11.9555 22.1117 11.952 22.1258 11.9484C22.2916 11.9343 22.4574 11.9202 22.6232 11.9096C22.7679 11.899 22.9125 11.8885 23.0572 11.8849C23.1101 11.8814 23.1665 11.8779 23.2194 11.8779C23.2653 11.8744 23.3111 11.8744 23.357 11.8708C23.4029 11.8708 23.4452 11.8708 23.4911 11.8708C23.5369 11.8673 23.5828 11.8638 23.6251 11.8638H23.6286C23.932 11.8744 24.2354 11.892 24.5353 11.9273C24.6093 11.9343 24.6869 11.9449 24.761 11.9555C24.8422 11.9661 24.9268 11.9767 25.0115 11.9872C25.075 11.9978 25.142 12.0084 25.2055 12.019C25.2796 12.0296 25.3537 12.0437 25.4278 12.0578C25.5018 12.0719 25.5689 12.086 25.6429 12.1001C26.0098 12.1777 26.3767 12.2695 26.733 12.3788C26.8741 12.4247 27.0152 12.467 27.1563 12.5164C27.3715 12.594 27.5832 12.6751 27.7948 12.7633C27.8654 12.7915 27.9359 12.8233 28.003 12.8515C28.1405 12.915 28.2817 12.9785 28.4157 13.0455C28.4827 13.0773 28.5533 13.1126 28.6203 13.1478C28.6873 13.1796 28.7544 13.2149 28.8179 13.2501C28.8179 13.2501 28.8179 13.2537 28.8214 13.2537C28.9872 13.3419 29.153 13.4371 29.3153 13.5359C29.3929 13.5818 29.467 13.6311 29.541 13.677C29.6186 13.7264 29.6963 13.7793 29.7739 13.8287C29.9714 13.9627 30.169 14.1038 30.3559 14.245C30.4018 14.2767 30.4441 14.312 30.4829 14.3473C30.5464 14.3966 30.6064 14.446 30.6664 14.4954L30.6769 14.4989Z" fill="url(#paint0_linear_3872_8473)"/>
<path d="M31.7706 13.5042C31.5659 12.587 31.2449 11.7157 30.8251 10.8972C29.6892 8.69596 27.8195 6.91448 25.5266 5.85617C25.4772 5.84206 25.4243 5.82795 25.3749 5.81384L25.2091 5.15416C24.9974 4.53682 24.7893 3.72545 23.0184 2.78356C23.0113 2.78003 23.0078 2.77651 23.0007 2.77298C22.1894 2.3426 21.0499 1.884 19.4342 1.40071C19.3954 1.39013 19.3531 1.37602 19.3108 1.3619C18.9192 1.24549 18.5029 1.13261 18.0549 1.01266C16.7285 0.659896 15.3633 0.398848 13.9699 0.225991C13.7829 0.201297 13.5959 0.180131 13.409 0.162493C13.3666 0.155437 13.3208 0.15191 13.282 0.148382C13.2467 0.144854 13.2114 0.141327 13.1761 0.137799C12.9751 0.116633 12.7705 0.0989945 12.5694 0.0813561C12.4142 0.0707731 12.2589 0.06019 12.1037 0.049607C11.8109 0.0319686 11.5111 0.0178578 11.2147 0.00727479C11.2006 0.00727479 11.183 0.00727479 11.1689 0.00727479C11.0101 0.000219427 10.8479 -0.00330826 10.6891 -0.00330826C10.5339 -0.00330826 10.3787 -0.00683594 10.2235 -0.00683594C10.0788 -0.00683594 9.93773 -0.00683594 9.79662 -0.00683594C9.6802 -0.00683594 9.56732 -0.00330826 9.45091 0.000219427C9.19339 0.00374711 8.93939 0.0143302 8.68187 0.0284409C8.55487 0.0354962 8.42788 0.0425516 8.30088 0.049607C8.17388 0.0566623 8.04689 0.0672454 7.91989 0.0743008C7.77173 0.0848838 7.62357 0.0989945 7.4754 0.109578C7.32724 0.123688 7.18261 0.137799 7.03444 0.15191C6.90039 0.166021 6.76987 0.180131 6.63934 0.19777C5.04483 0.374154 3.48912 0.677534 1.9828 1.0938C1.67589 1.17847 1.37251 1.26666 1.06913 1.3619C1.06208 1.3619 1.05855 1.3619 1.05149 1.36543C0.522341 3.22452 0.176628 5.14358 0.035521 7.11908C0.0214102 7.30605 0.0108272 7.49654 0.000244141 7.68351C2.3144 6.43471 4.93547 5.65509 7.72587 5.47518C8.13861 5.44696 8.55487 5.43285 8.97467 5.43285C9.99417 5.43285 10.996 5.51399 11.9732 5.66921C11.9767 5.66921 11.9803 5.66921 11.9838 5.66921C12.0226 5.67626 12.0579 5.67979 12.0967 5.69037H12.1037C12.1037 5.69037 12.1284 5.69037 12.139 5.69037C12.1284 5.69037 12.1178 5.69037 12.1073 5.69037C12.0579 5.69037 12.0049 5.69037 11.9556 5.6939H11.9485C11.9168 5.6939 11.8885 5.6939 11.8603 5.69743H11.8568C7.29549 5.87734 3.14694 7.66235 0.00729951 10.4951C0.0178826 10.7738 0.035521 11.0524 0.0566871 11.3276C0.0566871 11.3558 0.0602147 11.3805 0.0637424 11.4087C0.345957 14.9929 1.29843 18.3971 2.7977 21.5014C2.80122 21.512 2.80828 21.5226 2.81181 21.5297C3.21396 18.4571 4.92136 15.7795 7.3731 14.0298C5.50343 16.0018 4.36046 18.637 4.36046 21.5261C4.36046 22.8843 4.61092 24.1931 5.08011 25.396V25.4031C5.09069 25.4172 5.10127 25.4313 5.11186 25.4454C5.12244 25.463 5.13655 25.4807 5.14713 25.4948C5.16124 25.5159 5.17535 25.5371 5.19299 25.5583C5.2071 25.5794 5.22121 25.6006 5.23532 25.6218C5.25296 25.65 5.2706 25.6747 5.29177 25.6994C5.30235 25.717 5.31293 25.7311 5.32704 25.7488C5.45404 25.9252 5.58457 26.1015 5.71509 26.2744C5.73626 26.3026 5.75389 26.3308 5.77506 26.3555C5.78212 26.3167 5.7927 26.2815 5.79975 26.2462C6.00789 25.2408 6.30421 24.2707 6.67815 23.3358C6.73812 23.1877 6.79809 23.0466 6.85806 22.9019C6.85806 22.8984 6.85806 22.8949 6.86159 22.8913C6.91097 22.7749 6.96389 22.6621 7.0168 22.5456C7.02033 22.5351 7.02739 22.5209 7.03444 22.5104C7.04503 22.4857 7.05561 22.461 7.06619 22.4398C7.11205 22.341 7.16144 22.2387 7.21083 22.14C7.27785 21.9988 7.34841 21.8577 7.42249 21.7237C7.45777 21.6531 7.49657 21.5826 7.53185 21.5156C7.56712 21.4521 7.59887 21.3921 7.63768 21.3286C7.67295 21.2616 7.71176 21.1945 7.75056 21.1275C7.81406 21.0182 7.87756 20.9088 7.94106 20.803C8.00808 20.6901 8.07511 20.5807 8.14566 20.4714C8.18447 20.4079 8.22327 20.3514 8.26208 20.2914C8.27266 20.2773 8.27971 20.2632 8.2903 20.2491C8.35732 20.1433 8.42788 20.041 8.49843 19.9387C8.56898 19.8328 8.64307 19.7305 8.71715 19.6247C8.78417 19.5259 8.85473 19.4307 8.92528 19.3354C8.9782 19.2614 9.03464 19.1873 9.09108 19.1203C9.11225 19.092 9.13341 19.0638 9.15458 19.0391C9.21455 18.9615 9.27099 18.8874 9.33096 18.8134C9.40505 18.7216 9.47913 18.6334 9.55321 18.5417C9.96595 18.0478 10.4069 17.5787 10.869 17.1306C10.9713 17.0319 11.0701 16.9366 11.1724 16.8449C13.0209 15.1375 15.2292 13.7935 17.681 12.9398C17.9209 12.8551 18.1608 12.774 18.4042 12.6999C18.4712 12.6787 18.5417 12.6575 18.6088 12.6399C18.6758 12.6187 18.7463 12.6011 18.8169 12.5799C18.8169 12.5799 18.8169 12.5799 18.8204 12.5799C18.8275 12.5799 18.831 12.5764 18.8381 12.5764C18.8839 12.5658 18.9298 12.5517 18.9756 12.5376C19.0003 12.5305 19.0286 12.5235 19.0533 12.5164C19.1344 12.4953 19.2155 12.4741 19.3002 12.4529C19.4272 12.4212 19.5542 12.3894 19.6847 12.3647C19.7482 12.3506 19.8152 12.333 19.8787 12.3189C19.9987 12.2942 20.1186 12.2695 20.2386 12.2483C20.3021 12.2342 20.3656 12.2201 20.4291 12.2095C20.5631 12.1813 20.6936 12.1601 20.8277 12.139C20.87 12.1319 20.9088 12.1249 20.9511 12.1178C21.692 11.9661 22.4363 11.8885 23.1736 11.8815C23.3253 11.8779 23.477 11.8815 23.6251 11.8815H23.6287C23.932 11.892 24.2354 11.9097 24.5353 11.945C24.6129 11.952 24.687 11.9591 24.761 11.9732C24.8422 11.9838 24.9268 11.9943 25.0115 12.0049C25.075 12.0155 25.142 12.0261 25.2055 12.0367C25.2796 12.0473 25.3537 12.0614 25.4278 12.0755C25.5019 12.0861 25.5724 12.1037 25.643 12.1178C25.7171 12.1319 25.7911 12.1496 25.8652 12.1672C25.9393 12.1813 26.0134 12.1989 26.0875 12.2201C26.1545 12.2342 26.2215 12.2519 26.285 12.2695C26.2956 12.2695 26.3062 12.273 26.3203 12.2766C26.3309 12.2766 26.3379 12.2836 26.3485 12.2836C26.4755 12.3189 26.606 12.3542 26.733 12.393C26.8741 12.4353 27.0152 12.4812 27.1563 12.5305C27.3715 12.6082 27.5832 12.6893 27.7949 12.7775C27.8654 12.8057 27.936 12.8375 28.003 12.8657C28.1406 12.9292 28.2817 12.9927 28.4157 13.0597C28.4828 13.0914 28.5533 13.1267 28.6203 13.162C28.6874 13.1938 28.7544 13.229 28.8179 13.2643C28.8179 13.2643 28.8179 13.2678 28.8214 13.2678C28.9872 13.356 29.153 13.4513 29.3153 13.55C29.3929 13.5959 29.467 13.6453 29.5411 13.6912C29.6187 13.7405 29.6963 13.7935 29.7739 13.8428C29.9714 13.9769 30.169 14.118 30.356 14.2591C30.4018 14.2909 30.4441 14.3261 30.4865 14.3614C30.55 14.4108 30.6099 14.4602 30.6699 14.5096C30.7793 14.5519 30.8851 14.5978 30.9909 14.6436L31.9963 15.0493C31.9575 14.5272 31.8799 14.0122 31.7706 13.5112V13.5042ZM22.0483 7.60238C21.9495 7.75054 21.8225 7.87753 21.6708 7.97631C21.5332 8.06803 21.3815 8.13506 21.2157 8.17386C21.1804 8.18444 21.1452 8.1915 21.1099 8.19855C21.0288 8.21266 20.9441 8.21972 20.8594 8.21972C20.355 8.21972 19.9175 7.96925 19.6635 7.58474C19.6071 7.50007 19.5612 7.41188 19.526 7.31663C19.4801 7.20022 19.4484 7.07675 19.4413 6.94623C19.4378 6.90742 19.4342 6.87567 19.4342 6.83687C19.4342 6.81217 19.4342 6.79101 19.4378 6.76631C19.4731 6.03256 20.0939 5.45049 20.8594 5.45049C21.6249 5.45049 22.2846 6.06783 22.2846 6.83687C22.2846 7.11908 22.1964 7.38366 22.0447 7.60238H22.0483Z" fill="url(#paint1_linear_3872_8473)"/>
</g>
<defs>
<linearGradient id="paint0_linear_3872_8473" x1="18.2242" y1="16.5556" x2="18.2242" y2="33.2451" gradientUnits="userSpaceOnUse">
<stop stop-color="#16528B"/>
<stop offset="1" stop-color="#009FE3"/>
</linearGradient>
<linearGradient id="paint1_linear_3872_8473" x1="0.000244141" y1="13.1761" x2="31.9999" y2="13.1761" gradientUnits="userSpaceOnUse">
<stop stop-color="#16528B"/>
<stop offset="1" stop-color="#009FE3"/>
</linearGradient>
<clipPath id="clip0_3872_8473">
<rect width="31.9996" height="36" fill="white" transform="translate(0.000244141)"/>
</clipPath>
</defs>
</svg>
