<?xml version="1.0" encoding="UTF-8"?>
<svg id="Layer_1" data-name="Layer 1" xmlns="http://www.w3.org/2000/svg" viewBox="0 0 680 124">
  <defs>
    <style>
      .cls-1 {
        fill: #f2755f;
      }

      .cls-1, .cls-2, .cls-3 {
        stroke-width: 0px;
      }

      .cls-2 {
        fill: #003a51;
      }

      .cls-3 {
        fill: #555f63;
      }
    </style>
  </defs>
  <path class="cls-1" d="m63.16,37.9c13.29,0,24.1,10.81,24.1,24.1,0,5.38-1.79,10.34-4.79,14.35h81.16c0-23.78-19.28-43.06-43.06-43.06h-57.41v4.61h0Z"/>
  <g>
    <circle class="cls-2" cx="63.16" cy="62" r="10.37"/>
    <path class="cls-2" d="m111.85,76.35c-2.2,7.45-6.09,14.18-11.19,19.78-.87.96-2.36,1.01-3.27.1l-7.67-7.67c-3.26-3.26-3.93-8.3-1.63-12.3,2.86-4.98,4.26-10.91,3.64-17.19-1.35-13.62-12.5-24.56-26.14-25.67-10.97-.9-20.77,4.39-26.33,12.74l-.03-.02c-8.49,13.24-11.61,26.08-11.66,37.75-.01,3,3.59,4.52,5.71,2.4l14.43-14.43c-2.38-3.74-3.47-8.37-2.55-13.29,1.39-7.45,7.43-13.38,14.91-14.62,12.53-2.07,23.26,8.66,21.19,21.19-1.24,7.47-7.17,13.51-14.62,14.91-4.92.92-9.55-.17-13.29-2.55l-21.36,21.36c-1.02,1.02-2.65,1.01-3.7.02-11.13-10.54-17.52-26.05-15.53-42.95,2.76-23.47,21.88-42.14,45.4-44.41,19.38-1.87,36.82,7.24,46.85,21.82h9.38C104.14,15.1,84.51,2.87,62.11,3.27,30.08,3.83,4.08,30.6,4.42,62.63c.34,32.1,26.56,58.11,58.74,58.11,27.44,0,50.54-18.91,56.96-44.39h-8.27Z"/>
  </g>
  <g>
    <path class="cls-3" d="m387.7,33.89h12.93v29.88c0,18.39-9.48,27.63-28.19,27.63s-28.19-9.24-28.19-27.63v-29.88h12.93v29.88c0,11.08,4.66,15.99,15.26,15.99s15.26-4.9,15.26-15.99v-29.88Z"/>
    <path class="cls-3" d="m234.14,71.48v-37.59h12.93v56.23h-12.93l-29.88-37.43v37.43h-12.93v-56.23h12.93l29.88,37.59Z"/>
    <path class="cls-3" d="m321.12,90.11h-48.76v-56.23h48.76v11.57h-35.82v10.2h33.42v11.49h-33.42v11.41h35.82v11.57Z"/>
    <path class="cls-3" d="m478.13,73.97c0,11.49-5.14,16.14-17.99,16.14h-35.02v-56.23h34.38c13.17,0,17.51,3.78,17.51,15.02,0,6.18-3.37,10.76-9.16,11.81,6.67,1.04,10.28,5.94,10.28,13.25Zm-40.08-29.24v11.41h20.08c4.26,0,6.03-1.61,6.03-5.7s-1.77-5.7-6.03-5.7h-20.08Zm0,34.54h20.4c4.82,0,6.75-1.85,6.75-6.27s-1.93-6.18-6.75-6.18h-20.4v12.45Z"/>
    <path class="cls-3" d="m514.99,90.11h-12.93v-56.23h12.93v56.23Z"/>
    <path class="cls-3" d="m599.73,90.11h-16.63l-17.27-20.24h-10.28v20.24h-12.93v-56.23h34.3c12.37,0,17.91,5.38,17.91,17.27,0,9.96-4.26,15.26-13.9,17.27l18.8,21.69Zm-44.18-44.74v13.01h19.36c4.74,0,6.99-2.01,6.99-6.51s-2.25-6.51-6.99-6.51h-19.36Z"/>
    <path class="cls-3" d="m646.06,33.89c19.52,0,29,9.24,29,28.11s-9.48,28.11-29,28.11h-27.47v-56.23h27.47Zm-14.54,44.58h14.54c11.41,0,16.06-4.82,16.06-16.47s-4.66-16.47-16.06-16.47h-14.54v32.93Z"/>
  </g>
</svg>