<svg width="106" height="32" viewBox="0 0 106 32" fill="none" xmlns="http://www.w3.org/2000/svg">
<g clip-path="url(#clip0_25477_27406)">
<path d="M14.7209 1.16473e-05C15.0029 0.086334 15.2944 0.137488 15.5573 0.27976C16.606 0.847249 17.1319 1.72646 17.1192 2.93017C17.1192 3.0133 17.1145 3.09642 17.1129 3.17795C17.0844 3.86373 16.7834 4.42323 16.3034 4.88841C15.8076 5.36638 15.2231 5.64133 14.5261 5.68609C13.8338 5.73085 13.2066 5.5646 12.649 5.16177C12.15 4.79889 11.7951 4.31613 11.5987 3.72306C11.5528 3.58239 11.5623 3.43372 11.5354 3.29145C11.4577 2.55931 11.5623 1.86713 11.9836 1.24689C12.4351 0.585085 13.0497 0.172656 13.8386 0.0335814C13.8671 0.0287858 13.8956 0.0112016 13.9226 -0.00158691H14.7209V1.16473e-05Z" fill="#4165F2"/>
<path d="M106 20.4185C105.5 20.4169 105.001 20.4089 104.5 20.4153C104.367 20.4153 104.331 20.3801 104.331 20.2442C104.334 16.0384 104.334 11.8342 104.331 7.62837C104.331 7.49249 104.369 7.45733 104.5 7.46052C105.001 7.47011 105.5 7.46692 106 7.47011V20.4185Z" fill="#1E2C4F"/>
<path d="M45.9527 16.1598C45.9527 17.3284 45.9622 18.4969 45.9495 19.6639C45.9416 20.372 45.9035 21.077 45.7737 21.7772C45.5551 22.9521 44.8929 23.6187 43.727 23.8281C42.8035 23.9944 41.8737 23.9576 40.9454 23.9064C40.5605 23.8857 40.1771 23.8393 39.7922 23.8089C39.6861 23.8009 39.6433 23.769 39.6464 23.6491C39.656 23.299 39.656 22.9473 39.6464 22.5956C39.6433 22.4677 39.6797 22.439 39.8049 22.4422C40.57 22.4677 41.3351 22.5189 42.1002 22.5045C42.4614 22.4981 42.8194 22.4725 43.1726 22.3894C43.7524 22.2535 44.0755 21.8859 44.1674 21.3008C44.2672 20.6678 44.264 20.0299 44.264 19.3921C44.264 19.3505 44.2799 19.2962 44.2197 19.2802C44.1722 19.269 44.1531 19.3106 44.1373 19.3426C43.7967 20.0427 43.1964 20.3433 42.4661 20.4344C41.9291 20.5015 41.3905 20.5079 40.8599 20.3976C39.9696 20.2138 39.5071 19.7006 39.3423 18.7431C39.2615 18.2715 39.2235 17.7951 39.2235 17.3156C39.2235 15.4517 39.2251 13.5877 39.2188 11.7238C39.2188 11.5528 39.2615 11.5128 39.4263 11.5176C39.8571 11.5304 40.288 11.5288 40.7173 11.5176C40.863 11.5144 40.9058 11.5512 40.9042 11.703C40.8979 13.3368 40.8995 14.9721 40.901 16.6058C40.901 17.0454 40.9232 17.485 40.9739 17.923C41.0547 18.6056 41.2701 18.8438 41.937 18.9365C42.3267 18.9909 42.7211 18.9925 43.1092 18.9141C43.6716 18.8006 44.0058 18.4458 44.1326 17.8895C44.2577 17.3316 44.2577 16.7625 44.2609 16.195C44.2688 14.7083 44.2672 13.2201 44.2593 11.7334C44.2593 11.5512 44.3116 11.5128 44.4795 11.5176C44.904 11.5288 45.3285 11.5288 45.7515 11.5176C45.9051 11.5144 45.9527 11.5496 45.9527 11.7142C45.9463 13.1945 45.9479 14.6764 45.9479 16.1566L45.9527 16.1598Z" fill="#1E2C4F"/>
<path d="M26.7329 12.1123C26.3734 12.36 25.9868 12.5615 25.6114 12.7805C24.3014 13.5462 22.9882 14.3055 21.675 15.0664C21.1285 15.3829 20.5788 15.6978 20.0339 16.016C19.9515 16.0639 19.8406 16.0847 19.8121 16.2014C19.7741 16.2254 19.7393 16.2094 19.7028 16.195C18.8997 15.7106 18.0791 15.255 17.2744 14.7739C17.1873 14.7227 17.0923 14.6796 17.0685 14.5629C17.0416 14.379 17.0542 14.1936 17.0542 14.0082C17.0527 13.1801 17.0542 12.3505 17.0542 11.5224C17.0542 11.4265 17.0463 11.3306 17.0764 11.2379C17.0859 11.2139 17.1002 11.1947 17.1224 11.1787C17.5342 10.9453 17.9477 10.7151 18.3579 10.4785C19.6078 9.75599 20.8544 9.03184 22.1027 8.3077C22.6286 8.00237 23.1514 7.69545 23.6773 7.38852C23.7533 7.34376 23.8262 7.29101 23.9149 7.27502C23.9418 7.36295 23.8737 7.40131 23.8262 7.44767C22.7981 8.45956 22.6761 10.0261 23.5585 11.1707C23.9767 11.7126 24.5311 12.0483 25.2075 12.1826C25.6669 12.2737 26.112 12.2354 26.5555 12.1043C26.6141 12.0867 26.6759 12.0531 26.7329 12.1107V12.1123Z" fill="#A1E0D9"/>
<path d="M17.1222 11.1804L17.1143 11.2251C16.8228 11.4489 16.4981 11.6216 16.1797 11.8006C15.5683 12.1443 14.9711 12.512 14.358 12.8541C14.3026 12.8844 14.2487 12.918 14.1869 12.9356C14.1125 12.9484 14.0507 12.9148 13.9905 12.8796C13.2001 12.4145 12.4017 11.9605 11.6112 11.4953C11.578 11.4761 11.5447 11.4569 11.5209 11.4265C11.5099 11.4074 11.5114 11.3898 11.5257 11.3738C11.5257 8.74416 11.5273 6.11293 11.5289 3.48329C11.5289 3.41935 11.532 3.35541 11.5352 3.29306C11.6382 3.75025 11.7982 4.18186 12.0944 4.55273C12.6171 5.20654 13.2793 5.59179 14.122 5.63655C15.3037 5.7005 16.1797 5.19695 16.7817 4.18506C16.9654 3.87494 17.0367 3.52645 17.1143 3.17957C17.1159 3.23072 17.1191 3.28187 17.1191 3.33143C17.1191 5.94827 17.1207 8.56352 17.1222 11.1804V11.1804Z" fill="#92B0F8"/>
<path d="M11.5259 11.3737L11.5306 11.4169C11.575 11.468 11.5876 11.5304 11.5876 11.5959C11.5861 12.5199 11.6051 13.4455 11.5781 14.3694C11.556 14.4909 11.4562 14.5421 11.3643 14.5948C10.5501 15.0568 9.74853 15.538 8.93432 15.9984C8.82502 16.0607 8.71571 16.1247 8.61909 16.2078C8.57473 16.227 8.54622 16.2078 8.52562 16.1678C7.8223 15.7554 7.11897 15.343 6.41405 14.9321C4.97571 14.0961 3.53579 13.2632 2.09745 12.4272C2.0325 12.3904 1.97389 12.3425 1.91211 12.2993C1.98181 12.2354 2.05626 12.2753 2.12754 12.2897C3.10175 12.4975 3.98091 12.3089 4.72068 11.6183C5.16105 11.2091 5.43668 10.6943 5.53647 10.0965C5.66478 9.32597 5.51747 8.61301 5.06125 7.97199C4.96779 7.84091 4.85057 7.7338 4.74444 7.61711C4.69691 7.56436 4.61929 7.5212 4.65573 7.42688C5.06917 7.61871 5.44935 7.86968 5.84378 8.09668C7.71616 9.1789 9.58537 10.2675 11.4546 11.3529C11.4752 11.3657 11.5021 11.3673 11.5259 11.3753V11.3737Z" fill="#72DEF8"/>
<path d="M19.7362 16.1694C19.7616 16.1806 19.7885 16.1918 19.8139 16.203C21.3694 17.1046 22.925 18.0062 24.4805 18.9078C25.0397 19.2323 25.5973 19.5552 26.1549 19.8813C26.2341 19.9277 26.3276 19.958 26.3814 20.0411C26.3181 20.0971 26.25 20.0683 26.1834 20.0523C25.195 19.8253 24.3 20.0172 23.5602 20.7285C22.5369 21.7132 22.4608 23.2495 23.2038 24.3141C23.3194 24.4804 23.4398 24.645 23.595 24.7809C23.6299 24.8113 23.679 24.8448 23.6442 24.9088C23.1483 24.669 22.6858 24.3685 22.209 24.0935C20.5409 23.1312 18.8777 22.1624 17.2112 21.1953C17.1906 21.1825 17.1716 21.1649 17.151 21.1506C17.0908 21.0818 17.1003 20.9955 17.1003 20.914C17.1003 19.9053 17.1003 18.8982 17.0972 17.8895C17.0972 17.7328 17.1431 17.6305 17.2841 17.549C18.0128 17.1238 18.7478 16.7097 19.4733 16.2797C19.5541 16.2318 19.6349 16.179 19.7347 16.171L19.7362 16.1694Z" fill="#72DEF8"/>
<path d="M8.52536 16.1679L8.60298 16.203C8.66476 16.1775 8.71228 16.2158 8.76139 16.243C9.65322 16.7561 10.5419 17.2773 11.4337 17.792C11.4892 17.824 11.543 17.8575 11.5668 17.9215C11.5747 17.9439 11.5795 17.9647 11.581 17.987C11.5985 18.9206 11.5874 19.8542 11.5874 20.7877C11.5874 20.8261 11.581 20.8628 11.5684 20.8996C11.5589 20.9236 11.5446 20.9444 11.524 20.9588C10.8159 21.3664 10.1078 21.7708 9.40135 22.1801C8.15785 22.901 6.91594 23.6236 5.67244 24.3429C5.41107 24.4948 5.16078 24.6674 4.87882 24.7841C4.85822 24.6834 4.93743 24.6354 4.99287 24.5795C5.78174 23.7786 5.98292 22.8291 5.68986 21.7596C5.41423 20.7573 4.39409 19.9389 3.37078 19.8478C3.00327 19.8158 2.65319 19.8382 2.30153 19.9293C2.23658 19.9469 2.16688 19.9756 2.10352 19.9165C2.88446 19.4593 3.66383 19.0005 4.44636 18.5465C5.79283 17.7632 7.13929 16.9847 8.48576 16.203C8.5016 16.1934 8.51269 16.1775 8.52694 16.1647L8.52536 16.1679Z" fill="#A1E0D9"/>
<path d="M11.5259 20.9603L11.5322 20.9188C11.6954 20.7765 11.895 20.6934 12.0787 20.5831C12.7488 20.1786 13.4299 19.7934 14.1079 19.4033C14.1349 19.3937 14.1634 19.3937 14.1919 19.3985C14.6655 19.6399 15.1122 19.9261 15.5732 20.1882C16.0674 20.4696 16.5569 20.7605 17.0496 21.0419C17.0765 21.0578 17.1034 21.0738 17.1224 21.101C17.1335 21.1186 17.1319 21.1362 17.1192 21.1538C17.1192 23.6539 17.1192 26.1557 17.1192 28.6558C17.1192 28.707 17.1161 28.7581 17.1145 28.8077C17.0195 28.7997 17.04 28.7197 17.029 28.6622C16.8151 27.4889 15.8599 26.5569 14.6877 26.4146C13.1781 26.2324 11.9694 27.1771 11.6352 28.5071C11.6178 28.5743 11.6336 28.667 11.537 28.6942C11.5354 28.6302 11.5306 28.5663 11.5306 28.5039C11.529 25.9894 11.5275 23.4733 11.5259 20.9587V20.9603Z" fill="#92B0F8"/>
<path d="M79.9199 20.4136C80.2953 19.8061 80.6518 19.2275 81.0098 18.6504C81.5531 17.776 82.0949 16.8999 82.643 16.0287C82.7079 15.9248 82.7 15.8577 82.6382 15.7586C81.8018 14.4078 80.9686 13.0554 80.1354 11.7014C80.1053 11.6535 80.0783 11.6055 80.0308 11.5256H80.6312C81.005 11.5256 81.3789 11.5304 81.7527 11.5224C81.8683 11.5208 81.9333 11.5576 81.9935 11.6583C82.5558 12.5966 83.1229 13.5302 83.69 14.4653C83.8072 14.6588 83.8136 14.6588 83.9308 14.4653C84.4947 13.5366 85.0587 12.6078 85.6163 11.6743C85.6844 11.5592 85.7572 11.5208 85.8871 11.5224C86.4162 11.5288 86.9453 11.5256 87.5061 11.5256C87.2669 11.9124 87.0435 12.2721 86.8202 12.6334C86.1786 13.6709 85.5371 14.7099 84.8908 15.7442C84.8274 15.8465 84.8321 15.9152 84.8939 16.0159C85.7699 17.4163 86.6427 18.8214 87.514 20.225C87.5473 20.2777 87.5758 20.3321 87.6233 20.4136H87.4379C86.9881 20.4136 86.5382 20.3944 86.0899 20.4216C85.8238 20.4376 85.6891 20.3385 85.5576 20.1163C85.0032 19.1811 84.4298 18.2587 83.8627 17.3316C83.7455 17.1413 83.7154 17.1397 83.5997 17.3316C83.02 18.2875 82.437 19.2418 81.8652 20.2042C81.7685 20.3688 81.6624 20.4248 81.4755 20.4184C80.9702 20.404 80.4633 20.4136 79.9215 20.4136H79.9199Z" fill="#1E2C4F"/>
<path d="M73.0371 11.3817C73.6596 11.4121 74.3598 11.4505 75.0488 11.5991C75.1756 11.6263 75.2278 11.6647 75.2231 11.8069C75.2104 12.157 75.2152 12.5087 75.2231 12.8604C75.2247 12.9771 75.1882 12.9963 75.0821 12.9803C74.2235 12.8524 73.3602 12.8012 72.4921 12.8316C72.3226 12.838 72.15 12.8524 71.9837 12.8812C71.4292 12.9755 71.2154 13.2121 71.1647 13.7875C71.1409 14.0481 71.1583 14.3103 71.1979 14.5692C71.2376 14.8186 71.3896 14.9609 71.6288 15.0184C72.0676 15.1239 72.5175 15.1447 72.961 15.2103C73.4537 15.2838 73.9527 15.3142 74.4421 15.4309C75.052 15.5779 75.4021 15.9632 75.5304 16.569C75.6936 17.3396 75.7078 18.1165 75.5526 18.887C75.3704 19.7949 74.797 20.3001 73.8449 20.4599C72.9373 20.6118 72.0296 20.5527 71.1203 20.4791C70.7164 20.4456 70.3156 20.3864 69.9133 20.3496C69.7992 20.3385 69.7628 20.3017 69.7644 20.1882C69.7707 19.8301 69.7723 19.4736 69.7644 19.1156C69.7612 18.9781 69.8087 18.9573 69.9291 18.9733C70.84 19.0868 71.7555 19.1315 72.6743 19.1124C72.9135 19.1076 73.1527 19.0788 73.3871 19.0196C73.7546 18.9253 73.9653 18.6935 73.997 18.3115C74.0239 17.987 74.035 17.6609 73.9812 17.338C73.9257 17.0007 73.8243 16.8856 73.4869 16.8248C73.0513 16.7481 72.6125 16.6937 72.1737 16.6314C71.7856 16.5754 71.396 16.5339 71.0094 16.4683C70.181 16.3277 69.7929 15.9536 69.625 15.1207C69.4919 14.4653 69.4808 13.8019 69.6044 13.1449C69.7754 12.2321 70.3679 11.6631 71.2977 11.5C71.4783 11.468 71.6605 11.4441 71.8427 11.4233C72.2149 11.3833 72.5872 11.3785 73.0402 11.3881L73.0371 11.3817Z" fill="#1E2C4F"/>
<path d="M4.65722 7.42529C4.85206 7.67307 5.08492 7.88568 5.25283 8.16063C5.84686 9.14055 5.72805 10.5713 4.97245 11.4233C4.16932 12.3297 3.17927 12.5934 2.02448 12.3121C1.98805 12.3025 1.95003 12.3025 1.9136 12.2993C1.28155 12.0275 0.739797 11.6407 0.400805 11.0237C-0.133028 10.0533 -0.142533 9.06541 0.434071 8.11747C1.01543 7.16313 1.89617 6.72672 3.00819 6.77468C3.63232 6.80025 4.16615 7.05922 4.65722 7.42529V7.42529Z" fill="#00A4F6"/>
<path d="M2.10366 19.9196C2.31751 19.9037 2.51869 19.8237 2.73254 19.7981C4.28018 19.6111 5.65199 20.7477 5.83416 22.1992C5.95772 23.1807 5.671 24.0056 4.96292 24.6865C4.93123 24.7169 4.90589 24.7537 4.87738 24.7873C4.30394 25.2221 3.67031 25.4587 2.94164 25.4395C1.60626 25.4027 0.437212 24.3061 0.272468 22.9681C0.125149 21.774 0.763532 20.5687 1.85021 20.0491C1.93575 20.0092 2.01812 19.9628 2.10208 19.9196H2.10366Z" fill="#1FC8C9"/>
<path d="M11.5351 28.6974C11.6428 28.2434 11.7981 27.8102 12.0943 27.4409C12.6313 26.7727 13.314 26.3954 14.1742 26.3539C15.0264 26.3123 15.7503 26.6033 16.3396 27.2123C16.7499 27.6359 17.0097 28.1459 17.0825 28.7437C17.0857 28.7677 17.1016 28.7885 17.1126 28.8109C17.1665 29.511 17.054 30.1728 16.6469 30.7563C16.0909 31.5508 15.3401 31.9584 14.3564 32C13.1129 32.0527 11.7791 31.1032 11.5446 29.6325C11.4955 29.3224 11.5161 29.0091 11.5351 28.6974V28.6974Z" fill="#4165F2"/>
<path d="M23.6456 24.9072C23.3732 24.6322 23.1245 24.3413 22.9518 23.988C22.1027 22.26 23.1957 20.1722 25.0903 19.9277C25.4705 19.8781 25.8602 19.8909 26.2356 20.0092C26.2831 20.0236 26.3338 20.0284 26.3829 20.038C27.3698 20.4424 28.0129 21.1426 28.2331 22.2088C28.5436 23.7083 27.4886 25.2573 25.9916 25.513C25.1156 25.6633 24.3426 25.4395 23.6456 24.904V24.9072Z" fill="#00A4F6"/>
<path d="M26.7329 12.1123C26.4826 12.173 26.2371 12.2433 25.9773 12.2705C24.3568 12.4464 22.9201 11.0988 22.9248 9.50021C22.928 8.65936 23.2131 7.94801 23.8309 7.37732C23.8626 7.34854 23.8879 7.31018 23.9149 7.27661C24.5041 6.82582 25.1599 6.59562 25.9092 6.62919C27.2319 6.68674 28.4073 7.8409 28.5214 9.16611C28.6417 10.5648 27.8228 11.6663 26.7329 12.1123V12.1123Z" fill="#1FC8C9"/>
<path d="M32.3182 16.024C32.3388 15.1368 32.3452 14.2368 32.5384 13.3528C32.7792 12.2546 33.4302 11.6296 34.5248 11.4585C35.545 11.2987 36.554 11.3914 37.5615 11.5816C37.6772 11.604 37.7278 11.6472 37.7231 11.7798C37.712 12.1107 37.7073 12.4448 37.7231 12.7757C37.731 12.9484 37.6803 12.9756 37.5251 12.9484C36.912 12.8413 36.2943 12.7997 35.6733 12.8317C35.5101 12.8397 35.3438 12.8541 35.1838 12.8876C34.5565 13.0139 34.246 13.356 34.1399 14.0322C34.0243 14.7723 34.0179 15.5189 34.0274 16.2654C34.0354 16.8393 34.0433 17.4148 34.1589 17.9791C34.3078 18.7112 34.6452 19.0069 35.3834 19.0837C36.1374 19.162 36.8867 19.1044 37.6312 18.9846C37.7548 18.9654 37.7975 18.975 37.7944 19.114C37.7849 19.4705 37.7896 19.8286 37.7928 20.1867C37.7928 20.2634 37.7865 20.3241 37.6946 20.3401C36.5239 20.5559 35.3501 20.6838 34.1748 20.4025C33.1641 20.1595 32.6208 19.4897 32.4624 18.3883C32.3515 17.6098 32.3341 16.8265 32.3135 16.0304L32.3182 16.024Z" fill="#1E2C4F"/>
<path d="M100.712 13.9251C100.712 11.8437 100.715 9.76402 100.708 7.68269C100.708 7.49086 100.761 7.4541 100.937 7.45889C101.362 7.47328 101.786 7.47008 102.209 7.45889C102.361 7.4541 102.393 7.50045 102.393 7.64752C102.388 11.4969 102.39 15.3462 102.39 19.1939C102.39 19.552 102.385 19.9085 102.393 20.2666C102.396 20.3881 102.358 20.4152 102.242 20.4136C101.793 20.4072 101.343 20.404 100.894 20.4136C100.741 20.4168 100.708 20.3689 100.709 20.2218C100.714 18.1213 100.712 16.0224 100.712 13.9219V13.9251Z" fill="#1E2C4F"/>
<path d="M64.5734 15.9697C64.5734 14.5518 64.5766 13.1354 64.5686 11.7175C64.5686 11.5561 64.6098 11.5161 64.7666 11.5209C65.1658 11.5337 65.565 11.5289 65.9626 11.5225C66.0688 11.5225 66.0989 11.5497 66.102 11.6584C66.1131 12.0852 66.1353 12.512 66.1575 12.9388C66.1606 13.0012 66.1242 13.0987 66.2224 13.1131C66.3111 13.1258 66.3032 13.0267 66.319 12.974C66.6073 11.9765 67.3043 11.5065 68.2944 11.4122C68.4765 11.3946 68.7094 11.3019 68.8266 11.4058C68.947 11.5097 68.8599 11.7543 68.8631 11.9365C68.871 12.2562 68.8583 12.5743 68.8678 12.8941C68.8726 13.0395 68.8393 13.0923 68.6825 13.0891C68.3593 13.0811 68.0393 13.129 67.7289 13.2234C66.9653 13.4568 66.563 14.0099 66.3998 14.7708C66.2921 15.2711 66.2509 15.7795 66.2493 16.291C66.2462 17.6066 66.2462 18.9206 66.2509 20.2362C66.2509 20.3753 66.2256 20.4217 66.0767 20.4185C65.6458 20.4073 65.2149 20.4073 64.7857 20.4185C64.6177 20.4233 64.5639 20.3849 64.5655 20.2027C64.5734 18.7911 64.5702 17.3812 64.5702 15.9697H64.5734Z" fill="#1E2C4F"/>
<path d="M97.0769 15.96C97.0769 14.5437 97.0801 13.1258 97.0737 11.7094C97.0737 11.556 97.1165 11.5192 97.2638 11.5224C97.7074 11.532 98.1509 11.5304 98.5929 11.5224C98.7196 11.5208 98.7671 11.5464 98.7655 11.6871C98.7608 14.5405 98.7608 17.3939 98.7655 20.2458C98.7655 20.38 98.7275 20.4168 98.5944 20.4152C98.1446 20.4072 97.6947 20.4056 97.2464 20.4152C97.0943 20.4184 97.0737 20.3624 97.0737 20.2282C97.0785 18.8054 97.0769 17.3811 97.0769 15.9584V15.96Z" fill="#1E2C4F"/>
<path d="M78.83 15.9761C78.83 17.3924 78.8284 18.8103 78.8332 20.2266C78.8332 20.3753 78.7983 20.4201 78.6478 20.4169C78.2106 20.4057 77.7734 20.4057 77.3378 20.4169C77.1842 20.4201 77.1303 20.3865 77.1351 20.2202C77.1477 19.819 77.1398 19.4162 77.1398 19.0133C77.1398 16.5883 77.1414 14.1617 77.1351 11.7367C77.1351 11.5576 77.1857 11.5161 77.3552 11.5209C77.7861 11.5337 78.217 11.5305 78.6463 11.5209C78.7888 11.5177 78.8364 11.5496 78.8348 11.7047C78.8284 13.1274 78.8316 14.5517 78.8316 15.9745L78.83 15.9761Z" fill="#1E2C4F"/>
<path d="M17.1193 21.1553L17.1146 21.1121C17.0623 21.0498 17.0544 20.9731 17.0544 20.8963C17.0544 19.8461 17.0449 18.7958 17.0591 17.7456C17.048 16.7768 17.056 15.8097 17.056 14.841C17.056 14.7898 17.0591 14.7387 17.0766 14.6907C17.0861 14.6667 17.1019 14.6476 17.1241 14.6332C17.9161 15.092 18.7081 15.5524 19.5002 16.0127C19.5826 16.0607 19.657 16.1182 19.7362 16.171C19.3592 16.4364 18.9473 16.6442 18.5529 16.8792C18.1189 17.1365 17.6817 17.3875 17.2413 17.6353C17.1367 17.6944 17.1558 17.7791 17.1558 17.8655C17.1558 18.9605 17.1558 20.0571 17.1558 21.1521C17.1447 21.1521 17.1336 21.1553 17.1225 21.1569L17.1193 21.1553Z" fill="#60D8F0"/>
<path d="M97.9131 9.19489C97.666 9.19489 97.4189 9.19169 97.1734 9.19489C97.0847 9.19489 97.0356 9.1853 97.0371 9.0734C97.0435 8.57625 97.0419 8.07909 97.0371 7.58034C97.0371 7.48762 97.0672 7.46045 97.1575 7.46045C97.6644 7.46365 98.1698 7.46524 98.6767 7.46045C98.7796 7.46045 98.8034 7.49722 98.8034 7.59313C98.8002 8.08389 98.7986 8.57625 98.8034 9.067C98.8034 9.16931 98.7717 9.19649 98.6735 9.19489C98.42 9.18849 98.1666 9.19329 97.9147 9.19329L97.9131 9.19489Z" fill="#1E2C4F"/>
<path d="M77.9747 9.19489C77.7339 9.19489 77.4931 9.19009 77.2539 9.19649C77.1541 9.19968 77.1098 9.1805 77.1114 9.06381C77.1177 8.57305 77.1161 8.08229 77.1114 7.58993C77.1114 7.48922 77.1399 7.46045 77.2397 7.46045C77.7387 7.46524 78.2392 7.46684 78.7382 7.46045C78.8539 7.46045 78.8697 7.50361 78.8697 7.60432C78.8649 8.08868 78.8649 8.57305 78.8697 9.05901C78.8697 9.16771 78.8412 9.19968 78.7335 9.19649C78.48 9.18849 78.2281 9.19329 77.9747 9.19329V9.19489Z" fill="#1E2C4F"/>
<path d="M95.1554 11.7143C95.1554 11.5704 95.1285 11.5161 94.9717 11.5208C94.5598 11.5336 94.148 11.5272 93.7377 11.5224C93.6442 11.5224 93.6062 11.54 93.603 11.6455C93.5951 11.9189 93.5777 12.1938 93.5508 12.4656C93.5428 12.5407 93.5935 12.6622 93.4985 12.6846C93.3955 12.7086 93.3939 12.5759 93.3607 12.5088C93.1262 12.042 92.773 11.7223 92.2724 11.5624C91.5548 11.3322 90.8309 11.3242 90.0991 11.4761C89.3609 11.628 88.8777 12.0771 88.6164 12.7821C88.4627 13.1977 88.3835 13.6278 88.3312 14.0642C88.2283 14.9466 88.2188 15.8322 88.2489 16.7194C88.2726 17.4403 88.3233 18.1581 88.5213 18.8566C88.7368 19.6192 89.1755 20.1707 89.9755 20.3625C90.5363 20.4968 91.105 20.5112 91.6721 20.4376C92.3944 20.3449 93.0169 20.0795 93.3464 19.3586C93.3654 19.317 93.3908 19.2931 93.432 19.3058C93.4906 19.325 93.4652 19.381 93.4668 19.4209C93.4716 20.0204 93.4668 20.6199 93.3844 21.2161C93.2862 21.9259 92.9567 22.2744 92.2566 22.4102C91.9318 22.4742 91.6055 22.4966 91.276 22.5014C90.4792 22.5126 89.6824 22.4758 88.8857 22.4438C88.8049 22.4406 88.7383 22.4246 88.7415 22.5493C88.7478 22.9202 88.7463 23.2895 88.7415 23.6603C88.7415 23.7498 88.7716 23.7786 88.8587 23.7898C89.2548 23.8426 89.6492 23.8873 90.0484 23.9049C90.9972 23.9481 91.9445 23.9896 92.887 23.825C94.0925 23.6156 94.761 22.9506 94.9828 21.7325C95.1079 21.0467 95.1443 20.3529 95.1507 19.6575C95.1586 18.4698 95.1523 17.2837 95.1523 16.0959C95.1523 14.6348 95.1507 13.1722 95.1554 11.7111V11.7143ZM93.348 17.7329C93.1864 18.5497 92.7524 18.927 91.9223 18.9637C91.6245 18.9765 91.3283 18.9701 91.0321 18.9286C90.4761 18.8487 90.202 18.6025 90.0769 18.0478C89.9723 17.5842 89.9628 17.1126 89.9486 16.641C89.9407 16.3997 89.9486 16.1567 89.9486 15.9137C89.966 15.2007 89.9296 14.4846 90.0785 13.7796C90.1751 13.3272 90.4285 13.0459 90.8959 12.9707C91.3426 12.8988 91.7893 12.8748 92.236 12.9516C92.8332 13.0523 93.15 13.4487 93.3084 14.005C93.4462 14.4894 93.4605 14.9865 93.4636 15.4837C93.4684 16.2366 93.4953 16.9895 93.348 17.7345V17.7329Z" fill="#1E2C4F"/>
<path d="M54.7806 15.1512C54.7537 14.3983 54.6983 13.6501 54.4733 12.9244C54.231 12.1459 53.7494 11.6232 52.932 11.4633C52.3744 11.353 51.8137 11.3482 51.2529 11.4425C50.849 11.5097 50.4672 11.6312 50.1488 11.9077C49.9777 12.0564 49.8494 12.2354 49.7338 12.4256C49.7068 12.472 49.6989 12.5535 49.6245 12.5359C49.5342 12.5152 49.588 12.4304 49.5754 12.3745C49.569 12.3441 49.5754 12.3105 49.5754 12.2786C49.5754 10.7408 49.5722 9.20294 49.5801 7.66352C49.5801 7.48928 49.5326 7.45411 49.371 7.45891C48.9465 7.4701 48.5219 7.4717 48.099 7.45891C47.9327 7.45411 47.8931 7.49727 47.8931 7.66672C47.8994 9.76084 47.8978 11.8534 47.8978 13.9475V16.0911C47.8978 17.4691 47.8994 18.8487 47.8947 20.2266C47.8947 20.3737 47.9279 20.4216 48.08 20.4168C48.4792 20.4057 48.8784 20.4073 49.276 20.4168C49.3932 20.42 49.428 20.3833 49.4328 20.2698C49.4455 19.9836 49.4676 19.6975 49.4882 19.4114C49.493 19.3538 49.455 19.2675 49.5326 19.2451C49.6308 19.2179 49.6324 19.3202 49.6577 19.3778C49.8858 19.8909 50.2581 20.2314 50.7998 20.3881C51.5269 20.5975 52.2604 20.6055 52.9938 20.4424C53.6591 20.2954 54.1153 19.8893 54.3735 19.2515C54.5525 18.8103 54.6428 18.3499 54.6983 17.8815C54.806 16.9735 54.8123 16.0624 54.7806 15.1496V15.1512ZM52.9954 17.9774C52.8829 18.6408 52.6485 18.8822 51.9958 18.9845C51.6204 19.0437 51.2402 19.0469 50.8616 18.9941C50.2787 18.9126 49.9223 18.5721 49.7559 18.0094C49.6308 17.5826 49.607 17.1446 49.5896 16.705C49.5595 15.9537 49.5659 15.2023 49.6435 14.4526C49.6641 14.256 49.71 14.0642 49.7702 13.8755C49.9476 13.324 50.3167 13.0059 50.8933 12.9356C51.3432 12.8796 51.7899 12.8956 52.2319 12.9931C52.5835 13.0715 52.8053 13.2985 52.9162 13.6405C53.0809 14.1505 53.0762 14.6828 53.1031 15.2103C53.1126 15.3878 53.1031 15.5668 53.1031 15.7459C53.1047 16.4908 53.1221 17.2389 52.9954 17.9774V17.9774Z" fill="#1E2C4F"/>
<path d="M14.1886 12.9116C14.7081 12.6047 15.2277 12.2961 15.7489 11.9908C16.1243 11.7702 16.4997 11.5528 16.8752 11.3338C16.9512 11.2891 17.0225 11.2363 17.1128 11.2235C17.1128 12.2834 17.1144 13.3416 17.1159 14.4015C17.1159 14.4782 17.1207 14.5549 17.1223 14.63L17.1112 14.6332C17.0003 14.646 16.9211 14.5709 16.8371 14.5213C16.0007 14.0354 15.1644 13.5526 14.3295 13.0667C14.2678 13.0315 14.1854 13.0059 14.1886 12.91V12.9116Z" fill="#5D9BD4"/>
<path d="M14.1884 12.9115C14.578 13.1833 15.001 13.3991 15.4081 13.6389C15.9752 13.973 16.5439 14.3023 17.111 14.6348C17.111 15.6691 17.111 16.7033 17.111 17.736C16.8813 17.9294 16.6104 18.0541 16.3554 18.2028C15.6853 18.596 15.0121 18.9845 14.3404 19.3745C14.2929 19.4033 14.247 19.4417 14.1852 19.4225H14.1123C13.8399 19.333 13.6133 19.1571 13.3678 19.018C12.8023 18.6983 12.2431 18.3658 11.6808 18.0397C11.6253 18.0077 11.5699 17.979 11.5334 17.9246C11.5303 17.9134 11.5271 17.9006 11.5239 17.8895C11.4717 17.8047 11.4653 17.7104 11.4653 17.6145C11.4653 16.649 11.4653 15.6834 11.4653 14.7163C11.4653 14.6204 11.4717 14.5261 11.5239 14.4414C11.5255 13.4327 11.5271 12.424 11.5287 11.4153C11.836 11.5496 12.1148 11.7366 12.4047 11.9028C12.948 12.2146 13.4882 12.5327 14.03 12.846C14.0775 12.8732 14.1345 12.8892 14.1868 12.9099L14.1884 12.9115Z" fill="#3796EA"/>
<path d="M11.5256 14.443C11.5256 15.5924 11.5256 16.7417 11.5256 17.8911C10.5514 17.3284 9.57723 16.7657 8.60303 16.2014C8.62045 16.056 8.76143 16.0432 8.85014 15.9904C9.73881 15.4677 10.6322 14.9561 11.5256 14.4414V14.443Z" fill="#60D8F0"/>
<path d="M11.535 17.9263C11.8566 18.0606 12.1417 18.2604 12.4427 18.4298C12.948 18.716 13.447 19.0101 13.9476 19.3026C14.0062 19.3378 14.0585 19.3842 14.1139 19.4241C13.8858 19.6048 13.6244 19.7311 13.3741 19.8765C12.8308 20.1962 12.2843 20.5128 11.7378 20.8277C11.6728 20.8644 11.6 20.8868 11.5303 20.9156C11.5303 19.9181 11.5334 18.9206 11.535 17.9247V17.9263Z" fill="#5D9BD4"/>
<path d="M14.187 19.4258C14.7953 19.0677 15.402 18.7096 16.0103 18.3531C16.2986 18.1837 16.5869 18.0174 16.8752 17.848C16.9512 17.8032 17.0241 17.7537 17.1128 17.7377C17.1128 18.8631 17.1128 19.9868 17.1144 21.1122C16.7215 20.9396 16.3651 20.7014 15.9944 20.4872C15.3893 20.1387 14.789 19.7806 14.187 19.4258Z" fill="#429AF2"/>
<path d="M62.7879 13.4231C62.6421 12.3281 62.0988 11.711 61.0533 11.5048C60.068 11.3114 59.0764 11.3194 58.0943 11.5352C57.1106 11.751 56.5181 12.3664 56.3249 13.3687C56.2377 13.8211 56.187 14.2751 56.1664 14.7339C56.1142 15.9584 56.0952 17.1829 56.2932 18.3978C56.4864 19.5824 57.0947 20.1978 58.2733 20.4232C58.9243 20.5479 59.5801 20.5607 60.2391 20.5415C60.9614 20.5207 61.679 20.468 62.3903 20.3433C62.5503 20.3161 62.6421 20.2745 62.6279 20.0715C62.6041 19.7534 62.6152 19.4337 62.6247 19.114C62.6279 18.9845 62.5899 18.9525 62.4647 18.9653C61.98 19.0165 61.4969 19.0724 61.0106 19.098C60.3215 19.1348 59.6324 19.1603 58.9465 19.0404C58.3049 18.9269 58.0277 18.6424 57.9184 17.9966C57.844 17.5538 57.8582 17.1078 57.8313 16.6618C57.8234 16.5227 57.9026 16.5275 57.9976 16.5275C58.7897 16.5275 59.5801 16.5275 60.3722 16.5275C61.1642 16.5275 61.9547 16.5275 62.7467 16.5275C62.837 16.5275 62.9162 16.5435 62.9162 16.398C62.913 15.4021 62.9209 14.4078 62.7879 13.4183V13.4231ZM61.1278 15.3318C60.6019 15.327 60.0775 15.3302 59.5516 15.3302C59.0257 15.3302 58.514 15.3286 57.9945 15.3318C57.8836 15.3318 57.8345 15.3238 57.8392 15.1799C57.8551 14.7147 57.8725 14.2512 57.9517 13.7908C58.0452 13.2489 58.3461 12.9275 58.8958 12.8508C59.3568 12.7869 59.8162 12.7693 60.274 12.8476C60.8395 12.9435 61.0898 13.2281 61.1911 13.8563C61.2624 14.2975 61.2735 14.7435 61.2798 15.1911C61.2798 15.3174 61.2339 15.335 61.1262 15.3334L61.1278 15.3318Z" fill="#1E2C4F"/>
</g>
<defs>
<clipPath id="clip0_25477_27406">
<rect width="106" height="32" fill="white"/>
</clipPath>
</defs>
</svg>
