<svg width="148" height="52" viewBox="0 0 148 52" fill="none" xmlns="http://www.w3.org/2000/svg">
<path d="M18 16.1991C18 14.9846 18.9846 14 20.1991 14H28.8009C30.0154 14 31 14.9846 31 16.1991V17.9005C31 18.5077 30.5077 19 29.9005 19H19.0995C18.4923 19 18 18.5077 18 17.9005V16.1991Z" fill="white"/>
<path d="M18 23.0995C18 22.4923 18.4923 22 19.0995 22H39.8009C41.0154 22 42 22.9846 42 24.1991V29.9005C42 30.5077 41.5077 31 40.9005 31H20.1991C18.9846 31 18 30.0154 18 28.8009V23.0995Z" fill="white"/>
<path d="M29 35.0995C29 34.4923 29.4923 34 30.0995 34H40.9005C41.5077 34 42 34.4923 42 35.0995V35.8009C42 37.0154 41.0154 38 39.8009 38H31.1991C29.9846 38 29 37.0154 29 35.8009V35.0995Z" fill="white"/>
<path d="M55.5956 28.741H57.9071L62.1999 35.7581H67.4559L62.6953 28.2456C65.337 27.3375 66.878 25.3012 66.878 22.3567C66.878 18.229 63.9886 16 59.338 16H51V35.7581H55.5956V28.741ZM55.5956 24.9985V19.8801H59.0904C61.2643 19.8801 62.365 20.8157 62.365 22.4393C62.365 24.0353 61.2643 24.9985 59.0904 24.9985H55.5956Z" fill="white"/>
<path d="M75.3631 36.0608C78.2525 36.0608 80.8943 34.6024 81.9675 31.823L78.2801 30.6397C77.8673 31.9056 76.7941 32.566 75.4182 32.566C73.7395 32.566 72.5563 31.4378 72.2536 29.4564H82.0776V28.3007C82.0776 24.2004 79.6835 20.9533 75.2806 20.9533C71.0978 20.9533 68.0157 24.2004 68.0157 28.4933C68.0157 33.0063 70.9877 36.0608 75.3631 36.0608ZM75.2255 24.3656C76.8491 24.3656 77.7022 25.4663 77.7297 26.7596H72.3912C72.8314 25.1636 73.8771 24.3656 75.2255 24.3656Z" fill="white"/>
<path d="M84.5732 31.878C84.5732 34.85 86.1417 35.8957 89.2788 35.8957C90.3245 35.8957 91.15 35.8132 91.9205 35.7031V32.0982C91.4252 32.1532 91.1775 32.1807 90.6547 32.1807C89.554 32.1807 88.921 31.9606 88.921 30.7498V24.8884H91.7554V21.256H88.921V17.2383H84.5732V21.256H82.7294V24.8884H84.5732V31.878Z" fill="white"/>
<path d="M107.672 28.5208C107.672 24.0078 104.672 20.9533 100.407 20.9533C96.1143 20.9533 93.1423 24.0078 93.1423 28.5208C93.1423 33.0338 96.1143 36.0608 100.407 36.0608C104.672 36.0608 107.672 33.0338 107.672 28.5208ZM97.5177 28.5208C97.5177 25.9891 98.6459 24.5582 100.407 24.5582C102.168 24.5582 103.297 25.9891 103.297 28.5208C103.297 31.0525 102.168 32.4834 100.407 32.4834C98.6459 32.4834 97.5177 31.0525 97.5177 28.5208Z" fill="white"/>
<path d="M123.527 28.5208C123.527 24.0078 120.528 20.9533 116.262 20.9533C111.97 20.9533 108.998 24.0078 108.998 28.5208C108.998 33.0338 111.97 36.0608 116.262 36.0608C120.528 36.0608 123.527 33.0338 123.527 28.5208ZM113.373 28.5208C113.373 25.9891 114.501 24.5582 116.262 24.5582C118.024 24.5582 119.152 25.9891 119.152 28.5208C119.152 31.0525 118.024 32.4834 116.262 32.4834C114.501 32.4834 113.373 31.0525 113.373 28.5208Z" fill="white"/>
<path d="M130 16H125.597V35.7581H130V16Z" fill="white"/>
</svg>
