<svg xmlns="http://www.w3.org/2000/svg" xmlns:xlink="http://www.w3.org/1999/xlink" width="800" zoomAndPan="magnify" viewBox="0 0 600 449.999984" height="600" preserveAspectRatio="xMidYMid meet" version="1.0"><defs><clipPath id="057413b947"><path d="M 192 178.789062 L 242 178.789062 L 242 228 L 192 228 Z M 192 178.789062 " clip-rule="nonzero"/></clipPath><clipPath id="09ea96d07b"><path d="M 234.5 185.101562 L 211.054688 178.816406 C 210.808594 178.75 210.546875 178.816406 210.367188 179 L 194.71875 194.644531 L 193.199219 196.164062 C 193.019531 196.34375 192.949219 196.601562 193.015625 196.847656 L 199.300781 220.292969 C 199.363281 220.539062 199.558594 220.726562 199.800781 220.792969 L 223.246094 227.078125 C 223.492188 227.144531 223.75 227.078125 223.929688 226.894531 L 225.449219 225.375 L 241.097656 209.730469 C 241.273438 209.550781 241.347656 209.292969 241.28125 209.046875 L 234.996094 185.601562 C 234.929688 185.355469 234.734375 185.167969 234.496094 185.101562 Z M 220.175781 216.046875 L 216.875 203.726562 C 216.808594 203.484375 216.617188 203.292969 216.375 203.226562 L 204.054688 199.929688 C 203.527344 199.789062 203.351562 199.128906 203.738281 198.742188 L 210.949219 191.53125 C 211.128906 191.351562 211.386719 191.28125 211.632812 191.347656 L 224.742188 194.859375 C 224.988281 194.921875 225.175781 195.117188 225.242188 195.359375 L 228.753906 208.464844 C 228.816406 208.710938 228.753906 208.96875 228.566406 209.148438 L 221.359375 216.359375 C 220.972656 216.746094 220.3125 216.566406 220.167969 216.042969 Z M 220.175781 216.046875 " clip-rule="nonzero"/></clipPath><linearGradient x1="2.134686" gradientTransform="matrix(1.390869, 0, 0, 1.390625, 192.383964, 178.790584)" y1="36.397899" x2="35.819712" gradientUnits="userSpaceOnUse" y2="0.58047" id="6d47890624"><stop stop-opacity="1" stop-color="rgb(8.198547%, 47.099304%, 89.399719%)" offset="0"/><stop stop-opacity="1" stop-color="rgb(8.198547%, 47.099304%, 89.399719%)" offset="0.03125"/><stop stop-opacity="1" stop-color="rgb(8.221436%, 47.106934%, 89.402771%)" offset="0.046875"/><stop stop-opacity="1" stop-color="rgb(8.512878%, 47.219849%, 89.447021%)" offset="0.0507812"/><stop stop-opacity="1" stop-color="rgb(8.782959%, 47.323608%, 89.489746%)" offset="0.0546875"/><stop stop-opacity="1" stop-color="rgb(9.051514%, 47.427368%, 89.530945%)" offset="0.0585938"/><stop stop-opacity="1" stop-color="rgb(9.321594%, 47.532654%, 89.573669%)" offset="0.0625"/><stop stop-opacity="1" stop-color="rgb(9.590149%, 47.636414%, 89.616394%)" offset="0.0664062"/><stop stop-opacity="1" stop-color="rgb(9.860229%, 47.740173%, 89.659119%)" offset="0.0703125"/><stop stop-opacity="1" stop-color="rgb(10.128784%, 47.843933%, 89.700317%)" offset="0.0742188"/><stop stop-opacity="1" stop-color="rgb(10.398865%, 47.947693%, 89.743042%)" offset="0.078125"/><stop stop-opacity="1" stop-color="rgb(10.667419%, 48.051453%, 89.784241%)" offset="0.0820312"/><stop stop-opacity="1" stop-color="rgb(10.9375%, 48.155212%, 89.826965%)" offset="0.0859375"/><stop stop-opacity="1" stop-color="rgb(11.206055%, 48.258972%, 89.868164%)" offset="0.0898438"/><stop stop-opacity="1" stop-color="rgb(11.476135%, 48.362732%, 89.910889%)" offset="0.09375"/><stop stop-opacity="1" stop-color="rgb(11.74469%, 48.466492%, 89.952087%)" offset="0.0976562"/><stop stop-opacity="1" stop-color="rgb(12.014771%, 48.571777%, 89.994812%)" offset="0.101562"/><stop stop-opacity="1" stop-color="rgb(12.283325%, 48.675537%, 90.036011%)" offset="0.105469"/><stop stop-opacity="1" stop-color="rgb(12.553406%, 48.779297%, 90.078735%)" offset="0.109375"/><stop stop-opacity="1" stop-color="rgb(12.82196%, 48.883057%, 90.119934%)" offset="0.113281"/><stop stop-opacity="1" stop-color="rgb(13.092041%, 48.986816%, 90.162659%)" offset="0.117188"/><stop stop-opacity="1" stop-color="rgb(13.360596%, 49.090576%, 90.203857%)" offset="0.121094"/><stop stop-opacity="1" stop-color="rgb(13.630676%, 49.194336%, 90.246582%)" offset="0.125"/><stop stop-opacity="1" stop-color="rgb(13.899231%, 49.298096%, 90.287781%)" offset="0.128906"/><stop stop-opacity="1" stop-color="rgb(14.169312%, 49.401855%, 90.330505%)" offset="0.132812"/><stop stop-opacity="1" stop-color="rgb(14.437866%, 49.505615%, 90.37323%)" offset="0.136719"/><stop stop-opacity="1" stop-color="rgb(14.707947%, 49.610901%, 90.415955%)" offset="0.140625"/><stop stop-opacity="1" stop-color="rgb(14.976501%, 49.714661%, 90.457153%)" offset="0.144531"/><stop stop-opacity="1" stop-color="rgb(15.246582%, 49.81842%, 90.499878%)" offset="0.148438"/><stop stop-opacity="1" stop-color="rgb(15.515137%, 49.92218%, 90.541077%)" offset="0.152344"/><stop stop-opacity="1" stop-color="rgb(15.785217%, 50.02594%, 90.583801%)" offset="0.15625"/><stop stop-opacity="1" stop-color="rgb(16.053772%, 50.1297%, 90.625%)" offset="0.160156"/><stop stop-opacity="1" stop-color="rgb(16.323853%, 50.233459%, 90.667725%)" offset="0.164062"/><stop stop-opacity="1" stop-color="rgb(16.592407%, 50.337219%, 90.708923%)" offset="0.167969"/><stop stop-opacity="1" stop-color="rgb(16.862488%, 50.442505%, 90.751648%)" offset="0.171875"/><stop stop-opacity="1" stop-color="rgb(17.131042%, 50.546265%, 90.792847%)" offset="0.175781"/><stop stop-opacity="1" stop-color="rgb(17.401123%, 50.650024%, 90.835571%)" offset="0.179688"/><stop stop-opacity="1" stop-color="rgb(17.669678%, 50.753784%, 90.87677%)" offset="0.183594"/><stop stop-opacity="1" stop-color="rgb(17.939758%, 50.857544%, 90.919495%)" offset="0.1875"/><stop stop-opacity="1" stop-color="rgb(18.208313%, 50.961304%, 90.960693%)" offset="0.191406"/><stop stop-opacity="1" stop-color="rgb(18.478394%, 51.065063%, 91.003418%)" offset="0.195312"/><stop stop-opacity="1" stop-color="rgb(18.746948%, 51.168823%, 91.044617%)" offset="0.199219"/><stop stop-opacity="1" stop-color="rgb(19.017029%, 51.272583%, 91.087341%)" offset="0.203125"/><stop stop-opacity="1" stop-color="rgb(19.285583%, 51.376343%, 91.12854%)" offset="0.207031"/><stop stop-opacity="1" stop-color="rgb(19.555664%, 51.481628%, 91.171265%)" offset="0.210938"/><stop stop-opacity="1" stop-color="rgb(19.824219%, 51.585388%, 91.213989%)" offset="0.214844"/><stop stop-opacity="1" stop-color="rgb(20.094299%, 51.689148%, 91.256714%)" offset="0.21875"/><stop stop-opacity="1" stop-color="rgb(20.362854%, 51.792908%, 91.297913%)" offset="0.222656"/><stop stop-opacity="1" stop-color="rgb(20.632935%, 51.896667%, 91.340637%)" offset="0.226563"/><stop stop-opacity="1" stop-color="rgb(20.901489%, 52.000427%, 91.381836%)" offset="0.230469"/><stop stop-opacity="1" stop-color="rgb(21.17157%, 52.104187%, 91.424561%)" offset="0.234375"/><stop stop-opacity="1" stop-color="rgb(21.440125%, 52.207947%, 91.465759%)" offset="0.238281"/><stop stop-opacity="1" stop-color="rgb(21.710205%, 52.311707%, 91.508484%)" offset="0.242188"/><stop stop-opacity="1" stop-color="rgb(21.97876%, 52.415466%, 91.549683%)" offset="0.246094"/><stop stop-opacity="1" stop-color="rgb(22.24884%, 52.520752%, 91.592407%)" offset="0.25"/><stop stop-opacity="1" stop-color="rgb(22.517395%, 52.624512%, 91.633606%)" offset="0.253906"/><stop stop-opacity="1" stop-color="rgb(22.787476%, 52.728271%, 91.676331%)" offset="0.257813"/><stop stop-opacity="1" stop-color="rgb(23.05603%, 52.832031%, 91.717529%)" offset="0.261719"/><stop stop-opacity="1" stop-color="rgb(23.326111%, 52.935791%, 91.760254%)" offset="0.265625"/><stop stop-opacity="1" stop-color="rgb(23.594666%, 53.039551%, 91.801453%)" offset="0.269531"/><stop stop-opacity="1" stop-color="rgb(23.864746%, 53.143311%, 91.844177%)" offset="0.273438"/><stop stop-opacity="1" stop-color="rgb(24.133301%, 53.24707%, 91.885376%)" offset="0.277344"/><stop stop-opacity="1" stop-color="rgb(24.403381%, 53.35083%, 91.928101%)" offset="0.28125"/><stop stop-opacity="1" stop-color="rgb(24.671936%, 53.45459%, 91.970825%)" offset="0.285156"/><stop stop-opacity="1" stop-color="rgb(24.942017%, 53.559875%, 92.01355%)" offset="0.289063"/><stop stop-opacity="1" stop-color="rgb(25.210571%, 53.663635%, 92.054749%)" offset="0.292969"/><stop stop-opacity="1" stop-color="rgb(25.480652%, 53.767395%, 92.097473%)" offset="0.296875"/><stop stop-opacity="1" stop-color="rgb(25.749207%, 53.871155%, 92.138672%)" offset="0.300781"/><stop stop-opacity="1" stop-color="rgb(26.019287%, 53.974915%, 92.181396%)" offset="0.304688"/><stop stop-opacity="1" stop-color="rgb(26.287842%, 54.078674%, 92.222595%)" offset="0.308594"/><stop stop-opacity="1" stop-color="rgb(26.557922%, 54.182434%, 92.26532%)" offset="0.3125"/><stop stop-opacity="1" stop-color="rgb(26.826477%, 54.286194%, 92.306519%)" offset="0.316406"/><stop stop-opacity="1" stop-color="rgb(27.096558%, 54.391479%, 92.349243%)" offset="0.320312"/><stop stop-opacity="1" stop-color="rgb(27.365112%, 54.495239%, 92.390442%)" offset="0.324219"/><stop stop-opacity="1" stop-color="rgb(27.635193%, 54.598999%, 92.433167%)" offset="0.328125"/><stop stop-opacity="1" stop-color="rgb(27.903748%, 54.702759%, 92.474365%)" offset="0.332031"/><stop stop-opacity="1" stop-color="rgb(28.173828%, 54.806519%, 92.51709%)" offset="0.335938"/><stop stop-opacity="1" stop-color="rgb(28.442383%, 54.910278%, 92.558289%)" offset="0.339844"/><stop stop-opacity="1" stop-color="rgb(28.712463%, 55.014038%, 92.601013%)" offset="0.34375"/><stop stop-opacity="1" stop-color="rgb(28.981018%, 55.117798%, 92.642212%)" offset="0.347656"/><stop stop-opacity="1" stop-color="rgb(29.251099%, 55.221558%, 92.684937%)" offset="0.351562"/><stop stop-opacity="1" stop-color="rgb(29.519653%, 55.325317%, 92.727661%)" offset="0.355469"/><stop stop-opacity="1" stop-color="rgb(29.789734%, 55.430603%, 92.770386%)" offset="0.359375"/><stop stop-opacity="1" stop-color="rgb(30.058289%, 55.534363%, 92.811584%)" offset="0.363281"/><stop stop-opacity="1" stop-color="rgb(30.328369%, 55.638123%, 92.854309%)" offset="0.367188"/><stop stop-opacity="1" stop-color="rgb(30.596924%, 55.741882%, 92.895508%)" offset="0.371094"/><stop stop-opacity="1" stop-color="rgb(30.867004%, 55.845642%, 92.938232%)" offset="0.375"/><stop stop-opacity="1" stop-color="rgb(31.135559%, 55.949402%, 92.979431%)" offset="0.378906"/><stop stop-opacity="1" stop-color="rgb(31.40564%, 56.053162%, 93.022156%)" offset="0.382812"/><stop stop-opacity="1" stop-color="rgb(31.674194%, 56.156921%, 93.063354%)" offset="0.386719"/><stop stop-opacity="1" stop-color="rgb(31.944275%, 56.260681%, 93.106079%)" offset="0.390625"/><stop stop-opacity="1" stop-color="rgb(32.21283%, 56.364441%, 93.147278%)" offset="0.394531"/><stop stop-opacity="1" stop-color="rgb(32.48291%, 56.469727%, 93.190002%)" offset="0.398438"/><stop stop-opacity="1" stop-color="rgb(32.751465%, 56.573486%, 93.231201%)" offset="0.402344"/><stop stop-opacity="1" stop-color="rgb(33.021545%, 56.677246%, 93.273926%)" offset="0.40625"/><stop stop-opacity="1" stop-color="rgb(33.2901%, 56.781006%, 93.315125%)" offset="0.410156"/><stop stop-opacity="1" stop-color="rgb(33.560181%, 56.884766%, 93.357849%)" offset="0.414063"/><stop stop-opacity="1" stop-color="rgb(33.828735%, 56.988525%, 93.399048%)" offset="0.417969"/><stop stop-opacity="1" stop-color="rgb(34.098816%, 57.092285%, 93.441772%)" offset="0.421875"/><stop stop-opacity="1" stop-color="rgb(34.367371%, 57.196045%, 93.484497%)" offset="0.425781"/><stop stop-opacity="1" stop-color="rgb(34.637451%, 57.299805%, 93.527222%)" offset="0.429688"/><stop stop-opacity="1" stop-color="rgb(34.906006%, 57.403564%, 93.56842%)" offset="0.433594"/><stop stop-opacity="1" stop-color="rgb(35.176086%, 57.50885%, 93.611145%)" offset="0.4375"/><stop stop-opacity="1" stop-color="rgb(35.444641%, 57.61261%, 93.652344%)" offset="0.441406"/><stop stop-opacity="1" stop-color="rgb(35.714722%, 57.71637%, 93.695068%)" offset="0.445313"/><stop stop-opacity="1" stop-color="rgb(35.983276%, 57.820129%, 93.736267%)" offset="0.449219"/><stop stop-opacity="1" stop-color="rgb(36.253357%, 57.923889%, 93.778992%)" offset="0.453125"/><stop stop-opacity="1" stop-color="rgb(36.521912%, 58.027649%, 93.82019%)" offset="0.457031"/><stop stop-opacity="1" stop-color="rgb(36.791992%, 58.131409%, 93.862915%)" offset="0.460938"/><stop stop-opacity="1" stop-color="rgb(37.060547%, 58.235168%, 93.904114%)" offset="0.464844"/><stop stop-opacity="1" stop-color="rgb(37.330627%, 58.340454%, 93.946838%)" offset="0.46875"/><stop stop-opacity="1" stop-color="rgb(37.599182%, 58.444214%, 93.988037%)" offset="0.472656"/><stop stop-opacity="1" stop-color="rgb(37.869263%, 58.547974%, 94.030762%)" offset="0.476563"/><stop stop-opacity="1" stop-color="rgb(38.137817%, 58.651733%, 94.07196%)" offset="0.480469"/><stop stop-opacity="1" stop-color="rgb(38.407898%, 58.755493%, 94.114685%)" offset="0.484375"/><stop stop-opacity="1" stop-color="rgb(38.676453%, 58.859253%, 94.155884%)" offset="0.488281"/><stop stop-opacity="1" stop-color="rgb(38.946533%, 58.963013%, 94.198608%)" offset="0.492188"/><stop stop-opacity="1" stop-color="rgb(39.215088%, 59.066772%, 94.239807%)" offset="0.496094"/><stop stop-opacity="1" stop-color="rgb(39.485168%, 59.170532%, 94.282532%)" offset="0.5"/><stop stop-opacity="1" stop-color="rgb(39.753723%, 59.274292%, 94.325256%)" offset="0.503906"/><stop stop-opacity="1" stop-color="rgb(40.023804%, 59.379578%, 94.367981%)" offset="0.507812"/><stop stop-opacity="1" stop-color="rgb(40.292358%, 59.483337%, 94.40918%)" offset="0.511719"/><stop stop-opacity="1" stop-color="rgb(40.562439%, 59.587097%, 94.451904%)" offset="0.515625"/><stop stop-opacity="1" stop-color="rgb(40.830994%, 59.690857%, 94.493103%)" offset="0.519531"/><stop stop-opacity="1" stop-color="rgb(41.101074%, 59.794617%, 94.535828%)" offset="0.523438"/><stop stop-opacity="1" stop-color="rgb(41.369629%, 59.898376%, 94.577026%)" offset="0.527344"/><stop stop-opacity="1" stop-color="rgb(41.639709%, 60.002136%, 94.619751%)" offset="0.53125"/><stop stop-opacity="1" stop-color="rgb(41.908264%, 60.105896%, 94.66095%)" offset="0.535156"/><stop stop-opacity="1" stop-color="rgb(42.178345%, 60.209656%, 94.703674%)" offset="0.539062"/><stop stop-opacity="1" stop-color="rgb(42.446899%, 60.313416%, 94.744873%)" offset="0.542969"/><stop stop-opacity="1" stop-color="rgb(42.71698%, 60.418701%, 94.787598%)" offset="0.546875"/><stop stop-opacity="1" stop-color="rgb(42.985535%, 60.522461%, 94.828796%)" offset="0.550781"/><stop stop-opacity="1" stop-color="rgb(43.255615%, 60.626221%, 94.871521%)" offset="0.554688"/><stop stop-opacity="1" stop-color="rgb(43.52417%, 60.72998%, 94.91272%)" offset="0.558594"/><stop stop-opacity="1" stop-color="rgb(43.79425%, 60.83374%, 94.955444%)" offset="0.5625"/><stop stop-opacity="1" stop-color="rgb(44.062805%, 60.9375%, 94.996643%)" offset="0.566406"/><stop stop-opacity="1" stop-color="rgb(44.332886%, 61.04126%, 95.039368%)" offset="0.570313"/><stop stop-opacity="1" stop-color="rgb(44.60144%, 61.14502%, 95.082092%)" offset="0.574219"/><stop stop-opacity="1" stop-color="rgb(44.871521%, 61.248779%, 95.124817%)" offset="0.578125"/><stop stop-opacity="1" stop-color="rgb(45.140076%, 61.352539%, 95.166016%)" offset="0.582031"/><stop stop-opacity="1" stop-color="rgb(45.410156%, 61.457825%, 95.20874%)" offset="0.585938"/><stop stop-opacity="1" stop-color="rgb(45.678711%, 61.561584%, 95.249939%)" offset="0.589844"/><stop stop-opacity="1" stop-color="rgb(45.948792%, 61.665344%, 95.292664%)" offset="0.59375"/><stop stop-opacity="1" stop-color="rgb(46.217346%, 61.769104%, 95.333862%)" offset="0.597656"/><stop stop-opacity="1" stop-color="rgb(46.487427%, 61.872864%, 95.376587%)" offset="0.601563"/><stop stop-opacity="1" stop-color="rgb(46.755981%, 61.976624%, 95.417786%)" offset="0.605469"/><stop stop-opacity="1" stop-color="rgb(47.026062%, 62.080383%, 95.46051%)" offset="0.609375"/><stop stop-opacity="1" stop-color="rgb(47.294617%, 62.184143%, 95.501709%)" offset="0.613281"/><stop stop-opacity="1" stop-color="rgb(47.564697%, 62.289429%, 95.544434%)" offset="0.617188"/><stop stop-opacity="1" stop-color="rgb(47.833252%, 62.393188%, 95.585632%)" offset="0.621094"/><stop stop-opacity="1" stop-color="rgb(48.103333%, 62.496948%, 95.628357%)" offset="0.625"/><stop stop-opacity="1" stop-color="rgb(48.371887%, 62.600708%, 95.669556%)" offset="0.628906"/><stop stop-opacity="1" stop-color="rgb(48.641968%, 62.704468%, 95.71228%)" offset="0.632812"/><stop stop-opacity="1" stop-color="rgb(48.910522%, 62.808228%, 95.753479%)" offset="0.636719"/><stop stop-opacity="1" stop-color="rgb(49.180603%, 62.911987%, 95.796204%)" offset="0.640625"/><stop stop-opacity="1" stop-color="rgb(49.449158%, 63.015747%, 95.838928%)" offset="0.644531"/><stop stop-opacity="1" stop-color="rgb(49.719238%, 63.119507%, 95.881653%)" offset="0.648438"/><stop stop-opacity="1" stop-color="rgb(49.987793%, 63.223267%, 95.922852%)" offset="0.652344"/><stop stop-opacity="1" stop-color="rgb(50.257874%, 63.328552%, 95.965576%)" offset="0.65625"/><stop stop-opacity="1" stop-color="rgb(50.526428%, 63.432312%, 96.006775%)" offset="0.660156"/><stop stop-opacity="1" stop-color="rgb(50.796509%, 63.536072%, 96.0495%)" offset="0.664063"/><stop stop-opacity="1" stop-color="rgb(51.065063%, 63.639832%, 96.090698%)" offset="0.667969"/><stop stop-opacity="1" stop-color="rgb(51.335144%, 63.743591%, 96.133423%)" offset="0.671875"/><stop stop-opacity="1" stop-color="rgb(51.603699%, 63.847351%, 96.174622%)" offset="0.675781"/><stop stop-opacity="1" stop-color="rgb(51.873779%, 63.951111%, 96.217346%)" offset="0.679688"/><stop stop-opacity="1" stop-color="rgb(52.142334%, 64.054871%, 96.258545%)" offset="0.683594"/><stop stop-opacity="1" stop-color="rgb(52.412415%, 64.15863%, 96.30127%)" offset="0.6875"/><stop stop-opacity="1" stop-color="rgb(52.680969%, 64.26239%, 96.342468%)" offset="0.691406"/><stop stop-opacity="1" stop-color="rgb(52.95105%, 64.367676%, 96.385193%)" offset="0.695313"/><stop stop-opacity="1" stop-color="rgb(53.219604%, 64.471436%, 96.426392%)" offset="0.699219"/><stop stop-opacity="1" stop-color="rgb(53.489685%, 64.575195%, 96.469116%)" offset="0.703125"/><stop stop-opacity="1" stop-color="rgb(53.75824%, 64.678955%, 96.510315%)" offset="0.707031"/><stop stop-opacity="1" stop-color="rgb(54.02832%, 64.782715%, 96.55304%)" offset="0.710938"/><stop stop-opacity="1" stop-color="rgb(54.296875%, 64.886475%, 96.595764%)" offset="0.714844"/><stop stop-opacity="1" stop-color="rgb(54.566956%, 64.990234%, 96.638489%)" offset="0.71875"/><stop stop-opacity="1" stop-color="rgb(54.83551%, 65.093994%, 96.679688%)" offset="0.722656"/><stop stop-opacity="1" stop-color="rgb(55.105591%, 65.197754%, 96.722412%)" offset="0.726562"/><stop stop-opacity="1" stop-color="rgb(55.374146%, 65.301514%, 96.763611%)" offset="0.730469"/><stop stop-opacity="1" stop-color="rgb(55.644226%, 65.406799%, 96.806335%)" offset="0.734375"/><stop stop-opacity="1" stop-color="rgb(55.912781%, 65.510559%, 96.847534%)" offset="0.738281"/><stop stop-opacity="1" stop-color="rgb(56.182861%, 65.614319%, 96.890259%)" offset="0.742188"/><stop stop-opacity="1" stop-color="rgb(56.451416%, 65.718079%, 96.931458%)" offset="0.746094"/><stop stop-opacity="1" stop-color="rgb(56.721497%, 65.821838%, 96.974182%)" offset="0.75"/><stop stop-opacity="1" stop-color="rgb(56.990051%, 65.925598%, 97.015381%)" offset="0.753906"/><stop stop-opacity="1" stop-color="rgb(57.260132%, 66.029358%, 97.058105%)" offset="0.757812"/><stop stop-opacity="1" stop-color="rgb(57.528687%, 66.133118%, 97.099304%)" offset="0.761719"/><stop stop-opacity="1" stop-color="rgb(57.798767%, 66.238403%, 97.142029%)" offset="0.765625"/><stop stop-opacity="1" stop-color="rgb(58.067322%, 66.342163%, 97.183228%)" offset="0.769531"/><stop stop-opacity="1" stop-color="rgb(58.337402%, 66.445923%, 97.225952%)" offset="0.773438"/><stop stop-opacity="1" stop-color="rgb(58.605957%, 66.549683%, 97.267151%)" offset="0.777344"/><stop stop-opacity="1" stop-color="rgb(58.876038%, 66.653442%, 97.309875%)" offset="0.78125"/><stop stop-opacity="1" stop-color="rgb(59.144592%, 66.757202%, 97.351074%)" offset="0.785156"/><stop stop-opacity="1" stop-color="rgb(59.414673%, 66.860962%, 97.393799%)" offset="0.789063"/><stop stop-opacity="1" stop-color="rgb(59.683228%, 66.964722%, 97.436523%)" offset="0.792969"/><stop stop-opacity="1" stop-color="rgb(59.953308%, 67.068481%, 97.479248%)" offset="0.796875"/><stop stop-opacity="1" stop-color="rgb(60.221863%, 67.172241%, 97.520447%)" offset="0.800781"/><stop stop-opacity="1" stop-color="rgb(60.491943%, 67.277527%, 97.563171%)" offset="0.804688"/><stop stop-opacity="1" stop-color="rgb(60.760498%, 67.381287%, 97.60437%)" offset="0.808594"/><stop stop-opacity="1" stop-color="rgb(61.030579%, 67.485046%, 97.647095%)" offset="0.8125"/><stop stop-opacity="1" stop-color="rgb(61.299133%, 67.588806%, 97.688293%)" offset="0.816406"/><stop stop-opacity="1" stop-color="rgb(61.569214%, 67.692566%, 97.731018%)" offset="0.820313"/><stop stop-opacity="1" stop-color="rgb(61.837769%, 67.796326%, 97.772217%)" offset="0.824219"/><stop stop-opacity="1" stop-color="rgb(62.107849%, 67.900085%, 97.814941%)" offset="0.828125"/><stop stop-opacity="1" stop-color="rgb(62.376404%, 68.003845%, 97.85614%)" offset="0.832031"/><stop stop-opacity="1" stop-color="rgb(62.646484%, 68.107605%, 97.898865%)" offset="0.835938"/><stop stop-opacity="1" stop-color="rgb(62.915039%, 68.211365%, 97.940063%)" offset="0.839844"/><stop stop-opacity="1" stop-color="rgb(63.18512%, 68.31665%, 97.982788%)" offset="0.84375"/><stop stop-opacity="1" stop-color="rgb(63.453674%, 68.42041%, 98.023987%)" offset="0.847656"/><stop stop-opacity="1" stop-color="rgb(63.723755%, 68.52417%, 98.066711%)" offset="0.851562"/><stop stop-opacity="1" stop-color="rgb(63.99231%, 68.62793%, 98.10791%)" offset="0.855469"/><stop stop-opacity="1" stop-color="rgb(64.26239%, 68.731689%, 98.150635%)" offset="0.859375"/><stop stop-opacity="1" stop-color="rgb(64.530945%, 68.835449%, 98.193359%)" offset="0.863281"/><stop stop-opacity="1" stop-color="rgb(64.801025%, 68.939209%, 98.236084%)" offset="0.867188"/><stop stop-opacity="1" stop-color="rgb(65.06958%, 69.042969%, 98.277283%)" offset="0.871094"/><stop stop-opacity="1" stop-color="rgb(65.339661%, 69.146729%, 98.320007%)" offset="0.875"/><stop stop-opacity="1" stop-color="rgb(65.608215%, 69.250488%, 98.361206%)" offset="0.878906"/><stop stop-opacity="1" stop-color="rgb(65.878296%, 69.355774%, 98.403931%)" offset="0.882812"/><stop stop-opacity="1" stop-color="rgb(66.146851%, 69.459534%, 98.445129%)" offset="0.886719"/><stop stop-opacity="1" stop-color="rgb(66.416931%, 69.563293%, 98.487854%)" offset="0.890625"/><stop stop-opacity="1" stop-color="rgb(66.685486%, 69.667053%, 98.529053%)" offset="0.894531"/><stop stop-opacity="1" stop-color="rgb(66.955566%, 69.770813%, 98.571777%)" offset="0.898438"/><stop stop-opacity="1" stop-color="rgb(67.224121%, 69.874573%, 98.612976%)" offset="0.902344"/><stop stop-opacity="1" stop-color="rgb(67.494202%, 69.978333%, 98.655701%)" offset="0.90625"/><stop stop-opacity="1" stop-color="rgb(67.762756%, 70.082092%, 98.696899%)" offset="0.910156"/><stop stop-opacity="1" stop-color="rgb(68.032837%, 70.187378%, 98.739624%)" offset="0.914063"/><stop stop-opacity="1" stop-color="rgb(68.301392%, 70.291138%, 98.780823%)" offset="0.917969"/><stop stop-opacity="1" stop-color="rgb(68.571472%, 70.394897%, 98.823547%)" offset="0.921875"/><stop stop-opacity="1" stop-color="rgb(68.840027%, 70.498657%, 98.864746%)" offset="0.925781"/><stop stop-opacity="1" stop-color="rgb(69.110107%, 70.602417%, 98.907471%)" offset="0.929688"/><stop stop-opacity="1" stop-color="rgb(69.378662%, 70.706177%, 98.950195%)" offset="0.933594"/><stop stop-opacity="1" stop-color="rgb(69.648743%, 70.809937%, 98.99292%)" offset="0.9375"/><stop stop-opacity="1" stop-color="rgb(69.917297%, 70.913696%, 99.034119%)" offset="0.941406"/><stop stop-opacity="1" stop-color="rgb(70.187378%, 71.017456%, 99.076843%)" offset="0.945312"/><stop stop-opacity="1" stop-color="rgb(70.455933%, 71.121216%, 99.118042%)" offset="0.949219"/><stop stop-opacity="1" stop-color="rgb(70.726013%, 71.226501%, 99.160767%)" offset="0.953125"/><stop stop-opacity="1" stop-color="rgb(70.994568%, 71.330261%, 99.201965%)" offset="0.957031"/><stop stop-opacity="1" stop-color="rgb(71.264648%, 71.434021%, 99.24469%)" offset="0.960938"/><stop stop-opacity="1" stop-color="rgb(71.533203%, 71.537781%, 99.285889%)" offset="0.964844"/><stop stop-opacity="1" stop-color="rgb(71.803284%, 71.641541%, 99.328613%)" offset="0.96875"/><stop stop-opacity="1" stop-color="rgb(72.071838%, 71.7453%, 99.369812%)" offset="0.972656"/><stop stop-opacity="1" stop-color="rgb(72.341919%, 71.84906%, 99.412537%)" offset="0.976562"/><stop stop-opacity="1" stop-color="rgb(72.610474%, 71.95282%, 99.453735%)" offset="0.980469"/><stop stop-opacity="1" stop-color="rgb(72.880554%, 72.05658%, 99.49646%)" offset="0.984375"/><stop stop-opacity="1" stop-color="rgb(73.149109%, 72.160339%, 99.537659%)" offset="0.988281"/><stop stop-opacity="1" stop-color="rgb(73.419189%, 72.265625%, 99.580383%)" offset="0.992188"/><stop stop-opacity="1" stop-color="rgb(73.687744%, 72.369385%, 99.621582%)" offset="0.996094"/><stop stop-opacity="1" stop-color="rgb(73.957825%, 72.473145%, 99.664307%)" offset="1"/></linearGradient><clipPath id="cf0b2d6f28"><path d="M 374 233 L 383 233 L 383 245.539062 L 374 245.539062 Z M 374 233 " clip-rule="nonzero"/></clipPath></defs><g clip-path="url(#057413b947)"><g clip-path="url(#09ea96d07b)"><path fill="url(#6d47890624)" d="M 192.949219 178.789062 L 192.949219 227.144531 L 241.347656 227.144531 L 241.347656 178.789062 Z M 192.949219 178.789062 " fill-rule="nonzero"/></g></g><path fill="#022859" d="M 277.613281 216.351562 L 277.613281 213.507812 C 276.875 214.394531 275.632812 215.234375 273.902344 216.023438 C 272.164062 216.808594 270.363281 217.203125 268.5 217.203125 C 266.035156 217.203125 263.707031 216.523438 261.515625 215.152344 C 259.320312 213.789062 257.554688 211.945312 256.21875 209.613281 C 254.878906 207.289062 254.214844 204.761719 254.214844 202.03125 C 254.214844 199.304688 254.894531 196.785156 256.261719 194.46875 C 257.625 192.15625 259.472656 190.328125 261.800781 188.976562 C 264.128906 187.628906 266.65625 186.953125 269.386719 186.953125 C 272.113281 186.953125 274.597656 187.628906 276.835938 188.976562 C 279.078125 190.328125 280.835938 192.15625 282.128906 194.46875 C 283.417969 196.78125 284.066406 199.304688 284.066406 202.03125 L 284.066406 216.355469 L 277.613281 216.355469 Z M 262.042969 206.789062 C 262.8125 208.214844 263.851562 209.339844 265.15625 210.171875 C 266.464844 211.003906 267.871094 211.417969 269.386719 211.417969 C 270.898438 211.417969 272.304688 211.003906 273.613281 210.171875 C 274.921875 209.339844 275.953125 208.214844 276.726562 206.789062 C 277.496094 205.363281 277.882812 203.777344 277.882812 202.027344 C 277.882812 200.277344 277.496094 198.734375 276.726562 197.3125 C 275.957031 195.890625 274.921875 194.769531 273.613281 193.953125 C 272.304688 193.140625 270.898438 192.734375 269.386719 192.734375 C 267.871094 192.734375 266.464844 193.140625 265.15625 193.953125 C 263.851562 194.769531 262.8125 195.890625 262.042969 197.3125 C 261.273438 198.738281 260.886719 200.308594 260.886719 202.027344 C 260.886719 203.746094 261.273438 205.363281 262.042969 206.789062 Z M 262.042969 206.789062 " fill-opacity="1" fill-rule="nonzero"/><path fill="#022859" d="M 291.335938 194.46875 C 292.625 192.15625 294.390625 190.328125 296.628906 188.976562 C 298.871094 187.628906 301.351562 186.953125 304.082031 186.953125 C 306.808594 186.953125 309.335938 187.628906 311.667969 188.976562 C 313.996094 190.328125 315.84375 192.15625 317.207031 194.46875 C 318.570312 196.78125 319.253906 199.304688 319.253906 202.03125 C 319.253906 204.761719 318.585938 207.289062 317.253906 209.621094 C 315.917969 211.945312 314.15625 213.796875 311.960938 215.160156 C 309.765625 216.523438 307.441406 217.207031 304.976562 217.207031 C 303.109375 217.207031 301.304688 216.808594 299.574219 216.027344 C 297.839844 215.238281 296.601562 214.402344 295.859375 213.511719 L 295.859375 225.257812 L 289.410156 225.257812 L 289.410156 202.03125 C 289.410156 199.304688 290.058594 196.785156 291.34375 194.46875 Z M 296.738281 206.792969 C 297.507812 208.21875 298.546875 209.347656 299.851562 210.175781 C 301.160156 211.007812 302.566406 211.421875 304.082031 211.421875 C 305.59375 211.421875 307 211.007812 308.308594 210.175781 C 309.617188 209.347656 310.652344 208.21875 311.421875 206.792969 C 312.191406 205.367188 312.578125 203.78125 312.578125 202.03125 C 312.578125 200.28125 312.191406 198.738281 311.421875 197.320312 C 310.652344 195.894531 309.617188 194.777344 308.308594 193.960938 C 307 193.144531 305.59375 192.738281 304.082031 192.738281 C 302.566406 192.738281 301.160156 193.144531 299.851562 193.960938 C 298.546875 194.777344 297.507812 195.894531 296.738281 197.320312 C 295.96875 198.742188 295.582031 200.316406 295.582031 202.03125 C 295.582031 203.75 295.96875 205.367188 296.738281 206.792969 Z M 296.738281 206.792969 " fill-opacity="1" fill-rule="nonzero"/><path fill="#022859" d="M 325.636719 194.46875 C 326.921875 192.15625 328.6875 190.328125 330.929688 188.976562 C 333.171875 187.628906 335.652344 186.953125 338.378906 186.953125 C 341.105469 186.953125 343.636719 187.628906 345.964844 188.976562 C 348.292969 190.328125 350.136719 192.15625 351.507812 194.46875 C 352.871094 196.78125 353.554688 199.304688 353.554688 202.03125 C 353.554688 204.761719 352.890625 207.289062 351.554688 209.621094 C 350.21875 211.945312 348.453125 213.796875 346.261719 215.160156 C 344.066406 216.523438 341.738281 217.207031 339.277344 217.207031 C 337.40625 217.207031 335.605469 216.808594 333.871094 216.027344 C 332.136719 215.238281 330.902344 214.402344 330.160156 213.511719 L 330.160156 225.257812 L 323.710938 225.257812 L 323.710938 202.03125 C 323.710938 199.304688 324.355469 196.785156 325.644531 194.46875 Z M 331.039062 206.792969 C 331.804688 208.21875 332.84375 209.347656 334.152344 210.175781 C 335.457031 211.007812 336.863281 211.421875 338.378906 211.421875 C 339.894531 211.421875 341.300781 211.007812 342.609375 210.175781 C 343.914062 209.347656 344.949219 208.21875 345.722656 206.792969 C 346.492188 205.367188 346.878906 203.78125 346.878906 202.03125 C 346.878906 200.28125 346.492188 198.738281 345.722656 197.320312 C 344.953125 195.894531 343.914062 194.777344 342.609375 193.960938 C 341.300781 193.144531 339.894531 192.738281 338.378906 192.738281 C 336.863281 192.738281 335.457031 193.144531 334.152344 193.960938 C 332.84375 194.777344 331.804688 195.894531 331.039062 197.320312 C 330.269531 198.742188 329.882812 200.316406 329.882812 202.03125 C 329.882812 203.75 330.269531 205.367188 331.039062 206.792969 Z M 331.039062 206.792969 " fill-opacity="1" fill-rule="nonzero"/><path fill="#022859" d="M 360.886719 187.445312 L 369.25 209.105469 L 377.566406 187.445312 L 384.015625 187.445312 L 372.453125 216.359375 L 366.003906 216.359375 L 354.4375 187.445312 Z M 360.886719 187.445312 " fill-opacity="1" fill-rule="nonzero"/><path fill="#022859" d="M 388.914062 187.445312 L 395.363281 187.445312 L 395.363281 216.359375 L 388.914062 216.359375 Z M 388.914062 187.445312 " fill-opacity="1" fill-rule="nonzero"/><path fill="#022859" d="M 424.550781 216.355469 L 424.550781 213.507812 C 423.808594 214.398438 422.570312 215.238281 420.835938 216.023438 C 419.101562 216.8125 417.296875 217.203125 415.433594 217.203125 C 412.96875 217.203125 410.644531 216.523438 408.449219 215.15625 C 406.257812 213.792969 404.492188 211.949219 403.15625 209.617188 C 401.820312 207.289062 401.15625 204.761719 401.15625 202.03125 C 401.15625 199.296875 401.835938 196.78125 403.203125 194.464844 C 404.566406 192.15625 406.414062 190.324219 408.742188 188.972656 C 411.070312 187.625 413.597656 186.949219 416.332031 186.949219 C 419.0625 186.949219 421.546875 187.625 423.78125 188.972656 C 426.023438 190.324219 427.78125 192.15625 429.074219 194.464844 C 430.363281 196.777344 431.011719 199.300781 431.011719 202.03125 L 431.011719 216.355469 Z M 408.976562 206.789062 C 409.746094 208.214844 410.785156 209.34375 412.09375 210.171875 C 413.398438 211.003906 414.804688 211.417969 416.320312 211.417969 C 417.835938 211.417969 419.242188 211.003906 420.550781 210.171875 C 421.855469 209.34375 422.886719 208.214844 423.664062 206.789062 C 424.433594 205.367188 424.820312 203.78125 424.820312 202.03125 C 424.820312 200.28125 424.433594 198.738281 423.664062 197.316406 C 422.894531 195.890625 421.855469 194.773438 420.550781 193.957031 C 419.242188 193.140625 417.835938 192.734375 416.320312 192.734375 C 414.804688 192.734375 413.398438 193.140625 412.09375 193.957031 C 410.785156 194.773438 409.746094 195.890625 408.976562 197.316406 C 408.210938 198.742188 407.824219 200.3125 407.824219 202.03125 C 407.824219 203.746094 408.210938 205.367188 408.976562 206.789062 Z M 408.976562 206.789062 " fill-opacity="1" fill-rule="nonzero"/><path fill="#022859" d="M 358.152344 231.941406 L 355.195312 241.898438 L 353.773438 241.898438 L 349.824219 229.765625 L 351.34375 229.765625 L 354.472656 239.828125 L 357.445312 229.765625 L 358.828125 229.765625 L 361.800781 239.828125 L 364.929688 229.765625 L 366.414062 229.765625 L 362.5 241.898438 L 361.078125 241.898438 L 358.136719 231.941406 Z M 358.152344 231.941406 " fill-opacity="1" fill-rule="nonzero"/><path fill="#022859" d="M 371.976562 235.5625 C 371.683594 234.761719 370.988281 234.4375 370.097656 234.4375 C 369.003906 234.4375 368.390625 234.878906 368 235.699219 L 366.820312 235.121094 C 367.335938 233.960938 368.496094 233.140625 370.171875 233.140625 C 371.84375 233.140625 372.941406 233.824219 373.332031 235.085938 C 373.4375 235.445312 373.488281 235.839844 373.488281 236.265625 L 373.488281 241.90625 L 372.117188 241.90625 L 372.117188 240.621094 C 371.605469 241.527344 370.769531 242.089844 369.523438 242.089844 C 367.746094 242.089844 366.617188 241.015625 366.617188 239.457031 C 366.617188 237.761719 367.828125 236.773438 370.035156 236.773438 L 372.117188 236.773438 L 372.117188 236.480469 C 372.117188 236.121094 372.066406 235.8125 371.984375 235.554688 Z M 369.703125 240.8125 C 371.191406 240.8125 372.113281 239.703125 372.113281 237.921875 L 372.113281 237.890625 L 370.046875 237.890625 C 368.613281 237.890625 367.996094 238.488281 367.996094 239.359375 C 367.996094 240.226562 368.609375 240.8125 369.703125 240.8125 Z M 369.703125 240.8125 " fill-opacity="1" fill-rule="nonzero"/><g clip-path="url(#cf0b2d6f28)"><path fill="#022859" d="M 378.132812 242.019531 L 374.734375 233.289062 L 376.21875 233.289062 L 378.8125 240.226562 L 381.394531 233.289062 L 382.878906 233.289062 L 378.148438 245.539062 L 376.765625 245.539062 Z M 378.132812 242.019531 " fill-opacity="1" fill-rule="nonzero"/></g><path fill="#022859" d="M 385.175781 234.605469 L 384.015625 234.605469 L 384.015625 233.289062 L 385.175781 233.289062 L 385.175781 232.160156 C 385.175781 230.484375 386.21875 229.496094 387.839844 229.496094 C 388.386719 229.496094 388.8125 229.597656 389.105469 229.71875 L 388.796875 230.898438 C 388.714844 230.863281 388.453125 230.742188 388.011719 230.742188 C 387.105469 230.742188 386.558594 231.164062 386.542969 232.414062 L 386.542969 233.289062 L 388.734375 233.289062 L 388.734375 234.605469 L 386.542969 234.605469 L 386.542969 241.90625 L 385.175781 241.90625 Z M 385.175781 234.605469 " fill-opacity="1" fill-rule="nonzero"/><path fill="#022859" d="M 391.324219 230.042969 C 391.875 230.042969 392.285156 230.453125 392.285156 230.980469 C 392.285156 231.542969 391.875 231.960938 391.324219 231.960938 C 390.777344 231.960938 390.367188 231.546875 390.367188 230.980469 C 390.367188 230.453125 390.792969 230.042969 391.324219 230.042969 Z M 390.640625 233.289062 L 392.011719 233.289062 L 392.011719 241.902344 L 390.640625 241.902344 Z M 390.640625 233.289062 " fill-opacity="1" fill-rule="nonzero"/><path fill="#022859" d="M 398.417969 234.4375 C 396.898438 234.4375 396.027344 235.53125 396.027344 237.207031 L 396.027344 241.90625 L 394.65625 241.90625 L 394.65625 233.292969 L 395.957031 233.292969 L 396.027344 234.488281 C 396.507812 233.738281 397.355469 233.140625 398.691406 233.140625 C 400.484375 233.140625 402.054688 234.246094 402.054688 237.035156 L 402.054688 241.90625 L 400.6875 241.90625 L 400.6875 237.152344 C 400.6875 235.34375 399.761719 234.4375 398.414062 234.4375 Z M 398.417969 234.4375 " fill-opacity="1" fill-rule="nonzero"/><path fill="#022859" d="M 403.957031 237.632812 C 403.957031 234.726562 405.871094 233.136719 407.820312 233.136719 C 409.152344 233.136719 410.199219 233.714844 410.84375 234.707031 L 410.84375 229.546875 L 412.214844 229.546875 L 412.214844 241.902344 L 410.914062 241.902344 L 410.863281 240.535156 C 410.214844 241.523438 409.191406 242.105469 407.820312 242.105469 C 405.855469 242.105469 403.957031 240.515625 403.957031 237.628906 Z M 408.074219 240.828125 C 409.648438 240.828125 410.84375 239.699219 410.84375 237.613281 C 410.84375 235.527344 409.601562 234.402344 408.074219 234.402344 C 406.691406 234.402344 405.34375 235.425781 405.34375 237.613281 C 405.34375 239.804688 406.691406 240.828125 408.074219 240.828125 Z M 408.074219 240.828125 " fill-opacity="1" fill-rule="nonzero"/><path fill="#022859" d="M 414.210938 237.597656 C 414.210938 235.035156 415.9375 233.140625 418.226562 233.140625 C 420.515625 233.140625 422.15625 234.933594 422.15625 237.410156 C 422.15625 237.597656 422.140625 237.800781 422.125 238.007812 L 415.527344 238.007812 C 415.664062 239.800781 416.742188 240.863281 418.3125 240.863281 C 419.523438 240.863281 420.273438 240.28125 420.789062 239.34375 L 421.851562 239.941406 C 421.238281 241.15625 420.039062 242.113281 418.296875 242.113281 C 415.871094 242.113281 414.210938 240.300781 414.210938 237.601562 Z M 420.789062 236.933594 L 420.769531 236.828125 C 420.613281 235.34375 419.675781 234.382812 418.238281 234.382812 C 416.804688 234.382812 415.777344 235.394531 415.554688 236.933594 Z M 420.789062 236.933594 " fill-opacity="1" fill-rule="nonzero"/><path fill="#022859" d="M 424.109375 233.292969 L 425.40625 233.292969 L 425.476562 234.757812 C 425.855469 233.90625 426.570312 233.136719 428.023438 233.136719 C 428.230469 233.136719 428.585938 233.1875 428.742188 233.238281 L 428.585938 234.589844 C 428.449219 234.554688 428.1875 234.539062 427.953125 234.539062 C 426.707031 234.539062 425.476562 235.425781 425.476562 237.203125 L 425.476562 241.902344 L 424.109375 241.902344 Z M 424.109375 233.292969 " fill-opacity="1" fill-rule="nonzero"/></svg>