<?xml version="1.0" encoding="utf-8"?>
<!-- Generator: Adobe Illustrator 23.0.4, SVG Export Plug-In . SVG Version: 6.00 Build 0)  -->
<svg version="1.1" id="Layer_1" xmlns="http://www.w3.org/2000/svg" xmlns:xlink="http://www.w3.org/1999/xlink" x="0px" y="0px"
	 viewBox="0 0 230 170" style="enable-background:new 0 0 230 170;" xml:space="preserve">
<g>
	<g>
		<g>
			<g>
				<path d="M49.45,117.05c-0.16-0.13-0.4-0.17-0.89-0.17h-2.35v3.51h-1.36v-8.49h4.57c0.56,0,0.96,0.1,1.21,0.35
					c0.33,0.33,0.55,0.79,0.55,2.06c0,1.49-0.41,1.92-1.38,2.05v0.02c0.9,0.17,1.25,0.39,1.3,1.63c0.05,1.19,0.08,1.92,0.13,2.38
					h-1.36c-0.09-0.57-0.13-1.37-0.16-2.34C49.71,117.36,49.62,117.2,49.45,117.05z M49.03,115.76c0.35,0,0.46-0.06,0.52-0.12
					c0.11-0.11,0.27-0.38,0.27-1.25c0-0.87-0.15-1.13-0.26-1.24c-0.06-0.06-0.18-0.1-0.53-0.1h-2.82v2.71H49.03z"/>
				<path d="M57.74,111.89c0.8,0,1.1,0.08,1.38,0.34c0.47,0.42,0.76,1.04,0.76,3.91c0,2.86-0.29,3.48-0.76,3.91
					c-0.28,0.25-0.58,0.34-1.38,0.34h-2.43c-0.8,0-1.1-0.08-1.38-0.34c-0.47-0.42-0.76-1.04-0.76-3.91c0-2.86,0.29-3.48,0.76-3.91
					c0.28-0.25,0.58-0.34,1.38-0.34H57.74z M54.85,119.09c0.1,0.08,0.19,0.13,0.61,0.13h2.13c0.41,0.01,0.51-0.05,0.61-0.13
					c0.13-0.12,0.3-0.5,0.3-2.95c0-2.45-0.17-2.83-0.3-2.95c-0.1-0.08-0.19-0.13-0.61-0.13h-2.13c-0.41,0-0.51,0.05-0.61,0.13
					c-0.13,0.12-0.3,0.5-0.3,2.95C54.55,118.59,54.72,118.97,54.85,119.09z"/>
				<path d="M62,111.89h4.43c0.62,0,1.05,0.1,1.33,0.35c0.36,0.33,0.52,0.75,0.52,1.99c0,1.18-0.43,1.53-1.25,1.73v0.02
					c0.97,0.16,1.33,0.61,1.33,1.9c0,1.4-0.21,1.78-0.56,2.11c-0.27,0.25-0.76,0.38-1.36,0.38H62V111.89z M66.14,115.41
					c0.38,0,0.5-0.02,0.58-0.1c0.12-0.11,0.19-0.3,0.19-1.09c0-0.78-0.06-0.96-0.18-1.07c-0.07-0.07-0.21-0.1-0.59-0.1h-2.79v2.35
					H66.14z M66.79,116.65c-0.07-0.07-0.17-0.1-0.57-0.1h-2.86v2.67h2.86c0.38,0,0.51-0.01,0.59-0.1c0.1-0.1,0.19-0.29,0.19-1.21
					C67.01,116.95,66.9,116.76,66.79,116.65z"/>
				<path d="M77.12,116.86c0,2.14-0.18,2.57-0.63,3.02c-0.39,0.39-0.97,0.51-2.09,0.51h-1.24c-1.1,0-1.67-0.13-2.04-0.5
					c-0.45-0.45-0.62-0.87-0.62-3.03v-4.96h1.36v5.25c0,1.54,0.12,1.67,0.29,1.84c0.13,0.13,0.36,0.19,1.3,0.19h0.76
					c0.91,0,1.13-0.05,1.27-0.19c0.18-0.18,0.27-0.28,0.27-1.84v-5.25h1.36V116.86z"/>
				<path d="M85.13,120c-0.25,0.25-0.63,0.39-1.31,0.39h-2.85c-0.67,0-1.06-0.08-1.32-0.35c-0.35-0.35-0.46-0.76-0.49-2.32h1.35
					c0.02,1.06,0.06,1.27,0.16,1.37c0.07,0.07,0.17,0.13,0.53,0.13h2.39c0.35,0,0.46-0.04,0.56-0.13c0.11-0.11,0.13-0.44,0.13-1.15
					c0-0.62-0.01-0.81-0.14-0.95c-0.1-0.1-0.22-0.13-0.56-0.16l-2.67-0.24c-0.62-0.06-0.98-0.18-1.24-0.44
					c-0.34-0.34-0.4-0.74-0.4-1.86c0-1.09,0.11-1.63,0.5-2.01c0.26-0.25,0.64-0.39,1.29-0.39h2.62c0.67,0,1.05,0.08,1.32,0.35
					c0.35,0.35,0.44,0.74,0.49,2.26h-1.35c-0.03-0.99-0.06-1.21-0.16-1.31c-0.07-0.07-0.17-0.13-0.53-0.13H81.3
					c-0.34,0-0.45,0.04-0.55,0.13c-0.11,0.11-0.13,0.45-0.13,1.09c0,0.59,0.01,0.8,0.15,0.93c0.1,0.1,0.22,0.11,0.56,0.15l2.67,0.24
					c0.58,0.05,0.96,0.17,1.21,0.42c0.33,0.33,0.43,0.74,0.43,1.89C85.63,119.1,85.52,119.61,85.13,120z"/>
				<path d="M91.02,113.06v7.33h-1.36v-7.33H87v-1.16h6.7v1.16H91.02z"/>
				<path d="M100.04,120.39v-8.49h1.36v8.49H100.04z"/>
				<path d="M110.52,120.39h-1.38c-0.35,0-0.49-0.07-0.63-0.4l-3.24-6.25h-0.18v6.65h-1.32v-8.49h1.5c0.35,0,0.47,0.07,0.62,0.4
					l3.13,5.96h0.18v-6.36h1.32V120.39z"/>
				<path d="M116.14,113.06v7.33h-1.36v-7.33h-2.67v-1.16h6.7v1.16H116.14z"/>
				<path d="M126.19,120.39h-5.8v-8.49h5.8v1.16h-4.44v2.34h3.68v1.16h-3.68v2.66h4.44V120.39z"/>
				<path d="M129.7,119.22h3.61v1.16h-4.97v-8.49h1.36V119.22z"/>
				<path d="M136.26,119.22h3.61v1.16h-4.97v-8.49h1.36V119.22z"/>
				<path d="M141.46,120.39v-8.49h1.36v8.49H141.46z"/>
				<path d="M149.5,111.89c0.8,0,1.1,0.08,1.38,0.34c0.47,0.42,0.64,0.82,0.67,2.33h-1.32c-0.02-1.01-0.13-1.25-0.27-1.37
					c-0.1-0.08-0.19-0.13-0.61-0.13h-2.1c-0.41,0-0.51,0.05-0.61,0.13c-0.13,0.12-0.3,0.5-0.3,2.95c0,2.45,0.17,2.83,0.3,2.95
					c0.1,0.08,0.19,0.13,0.61,0.13h2.1c0.41,0.01,0.51-0.05,0.61-0.13c0.13-0.12,0.29-0.55,0.29-1.57v-0.42h-1.98v-1.16h3.35v1.08
					c0,1.87-0.27,2.61-0.74,3.03c-0.28,0.25-0.58,0.34-1.38,0.34h-2.39c-0.8,0-1.1-0.08-1.38-0.34c-0.47-0.42-0.76-1.04-0.76-3.91
					c0-2.86,0.29-3.48,0.76-3.91c0.28-0.25,0.58-0.34,1.38-0.34H149.5z"/>
				<path d="M159.57,120.39h-5.8v-8.49h5.8v1.16h-4.44v2.34h3.68v1.16h-3.68v2.66h4.44V120.39z"/>
				<path d="M168.47,120.39h-1.38c-0.35,0-0.49-0.07-0.63-0.4l-3.24-6.25h-0.18v6.65h-1.32v-8.49h1.5c0.35,0,0.47,0.07,0.62,0.4
					l3.13,5.96h0.18v-6.36h1.32V120.39z"/>
				<path d="M176.47,120.05c-0.28,0.25-0.58,0.34-1.38,0.34h-2.35c-0.8,0-1.1-0.08-1.38-0.34c-0.47-0.42-0.76-1.04-0.76-3.91
					c0-2.86,0.29-3.48,0.76-3.91c0.28-0.25,0.58-0.34,1.38-0.34h2.35c0.8,0,1.1,0.08,1.38,0.34c0.47,0.42,0.69,0.98,0.72,2.45h-1.36
					c-0.04-1.07-0.15-1.37-0.28-1.49c-0.1-0.08-0.19-0.13-0.61-0.13h-2.06c-0.41,0-0.51,0.05-0.61,0.13c-0.13,0.12-0.3,0.5-0.3,2.95
					c0,2.45,0.17,2.83,0.3,2.95c0.1,0.08,0.19,0.13,0.61,0.13h2.06c0.41,0.01,0.51-0.05,0.61-0.13c0.13-0.12,0.24-0.36,0.28-1.63
					h1.37C177.14,119.15,176.94,119.62,176.47,120.05z"/>
				<path d="M185.14,120.39h-5.8v-8.49h5.8v1.16h-4.44v2.34h3.68v1.16h-3.68v2.66h4.44V120.39z"/>
			</g>
		</g>
	</g>
	<path d="M138.01,62.77l-11.31-6.53c0,0,0,0,0,0l0,0l-11.31-6.52c-0.23-0.13-0.52-0.13-0.75,0L92.01,62.78
		c-0.23,0.13-0.38,0.38-0.38,0.65l-0.01,26.12c0,0.27,0.14,0.52,0.38,0.65l11.31,6.52c0.01,0,0.01,0,0.02,0l11.3,6.52
		c0.12,0.07,0.25,0.1,0.38,0.1c0.13,0,0.26-0.03,0.38-0.1l22.63-13.06c0.23-0.13,0.38-0.38,0.38-0.65l0-26.12
		C138.38,63.15,138.24,62.9,138.01,62.77z M127.06,82.57l0.01-12.19l9.81-5.67l0,23.52L127.06,82.57z M102.94,70.39l-0.01,12.19
		l-9.82,5.67l0.01-23.53L102.94,70.39z M136.13,63.42l-31.69,18.3l0.01-11.33l21.88-12.63L136.13,63.42z M115.01,51.23l9.81,5.66
		l-21.13,12.2l-9.81-5.66L115.01,51.23z M93.87,89.55l10.19-5.89c0,0,0,0,0,0l3.9-2.25l17.6-10.16l0,7.65l0,3.68l-21.88,12.63
		L93.87,89.55z M115,101.74l-9.82-5.67l21.13-12.2l9.82,5.67L115,101.74z"/>
</g>
</svg>
