<svg width="223" height="41" viewBox="0 0 223 41" fill="none" xmlns="http://www.w3.org/2000/svg">
<path d="M197.742 24.8136V8.40641H201.017V11.9547L200.592 11.4088C200.936 10.2968 201.563 9.45776 202.473 8.89165C203.383 8.32554 204.424 8.04248 205.597 8.04248C206.911 8.04248 208.073 8.3963 209.084 9.10394C210.115 9.79136 210.803 10.7113 211.146 11.8637L210.176 11.9547C210.661 10.6405 211.399 9.65994 212.39 9.01296C213.401 8.36597 214.553 8.04248 215.847 8.04248C216.979 8.04248 218 8.30532 218.91 8.83099C219.84 9.35667 220.578 10.0845 221.124 11.0146C221.67 11.9446 221.943 13.0061 221.943 14.199V24.8136H218.516V15.1391C218.516 14.3102 218.364 13.6126 218.061 13.0465C217.778 12.4602 217.374 12.0154 216.848 11.7121C216.343 11.3886 215.746 11.2269 215.059 11.2269C214.371 11.2269 213.765 11.3886 213.239 11.7121C212.713 12.0154 212.299 12.4602 211.996 13.0465C211.692 13.6328 211.541 14.3304 211.541 15.1391V24.8136H208.144V15.1391C208.144 14.3102 207.992 13.6126 207.689 13.0465C207.406 12.4602 207.002 12.0154 206.476 11.7121C205.971 11.3886 205.364 11.2269 204.656 11.2269C203.969 11.2269 203.362 11.3886 202.837 11.7121C202.311 12.0154 201.897 12.4602 201.593 13.0465C201.31 13.6328 201.169 14.3304 201.169 15.1391V24.8136H197.742Z" fill="#270B46"/>
<path d="M185.729 25.1775C184.617 25.1775 183.636 24.9854 182.787 24.6013C181.958 24.1969 181.311 23.651 180.846 22.9636C180.381 22.2559 180.148 21.427 180.148 20.4767C180.148 19.5871 180.341 18.7885 180.725 18.0809C181.129 17.3732 181.746 16.7768 182.575 16.2915C183.404 15.8063 184.445 15.4626 185.698 15.2604L191.4 14.3203V17.0194L186.366 17.8989C185.456 18.0606 184.789 18.3538 184.364 18.7784C183.939 19.1828 183.727 19.7084 183.727 20.3554C183.727 20.9822 183.96 21.4978 184.425 21.9021C184.91 22.2863 185.527 22.4783 186.275 22.4783C187.205 22.4783 188.013 22.2762 188.701 21.8718C189.408 21.4674 189.954 20.9316 190.338 20.2644C190.723 19.577 190.915 18.8188 190.915 17.9899V13.7744C190.915 12.9656 190.611 12.3085 190.005 11.8031C189.419 11.2774 188.63 11.0146 187.639 11.0146C186.729 11.0146 185.931 11.2572 185.243 11.7424C184.576 12.2075 184.081 12.814 183.757 13.5621L180.907 12.1367C181.21 11.328 181.705 10.6203 182.393 10.0138C183.08 9.387 183.879 8.90176 184.789 8.55805C185.719 8.21434 186.699 8.04248 187.73 8.04248C189.024 8.04248 190.167 8.2851 191.157 8.77034C192.168 9.25558 192.947 9.93289 193.493 10.8023C194.059 11.6514 194.342 12.6421 194.342 13.7744V24.8136H191.066V21.8415L191.764 21.9325C191.38 22.5997 190.884 23.1759 190.278 23.6611C189.691 24.1464 189.014 24.5204 188.246 24.7832C187.498 25.0461 186.659 25.1775 185.729 25.1775Z" fill="#270B46"/>
<path d="M170.674 25.1775C169.036 25.1775 167.58 24.8035 166.306 24.0554C165.053 23.2871 164.072 22.2559 163.365 20.962C162.657 19.6478 162.303 18.182 162.303 16.5645C162.303 14.9066 162.657 13.4408 163.365 12.167C164.093 10.8933 165.063 9.89245 166.276 9.1646C167.489 8.41652 168.864 8.04248 170.401 8.04248C171.634 8.04248 172.736 8.25477 173.706 8.67936C174.677 9.10394 175.496 9.69027 176.163 10.4383C176.83 11.1662 177.336 12.0053 177.679 12.9555C178.043 13.9058 178.225 14.9167 178.225 15.9883C178.225 16.2511 178.215 16.5241 178.195 16.8071C178.175 17.0902 178.134 17.353 178.073 17.5956H165.002V14.8662H176.133L174.495 16.1096C174.697 15.1189 174.626 14.2394 174.283 13.4711C173.959 12.6826 173.454 12.0659 172.766 11.6211C172.099 11.1561 171.31 10.9236 170.401 10.9236C169.491 10.9236 168.682 11.1561 167.974 11.6211C167.267 12.0659 166.721 12.7129 166.337 13.5621C165.953 14.391 165.801 15.4019 165.882 16.5948C165.781 17.7068 165.932 18.6773 166.337 19.5063C166.761 20.3352 167.348 20.9822 168.096 21.4472C168.864 21.9122 169.733 22.1447 170.704 22.1447C171.695 22.1447 172.534 21.9223 173.221 21.4775C173.929 21.0327 174.485 20.4565 174.889 19.7489L177.679 21.1136C177.356 21.8819 176.85 22.5794 176.163 23.2062C175.496 23.8128 174.687 24.298 173.737 24.6619C172.807 25.0056 171.786 25.1775 170.674 25.1775Z" fill="#270B46"/>
<path d="M152.589 24.8138V8.40663H155.865V11.7123L155.561 11.2271C155.925 10.1555 156.512 9.38722 157.32 8.92219C158.129 8.43696 159.1 8.19434 160.232 8.19434H161.233V11.3181H159.807C158.675 11.3181 157.755 11.6719 157.047 12.3795C156.36 13.0669 156.016 14.0576 156.016 15.3516V24.8138H152.589Z" fill="#270B46"/>
<path d="M148.002 24.9957C146.283 24.9957 144.949 24.5105 143.998 23.54C143.048 22.5695 142.573 21.2048 142.573 19.4458V11.5H139.692V8.4066H140.147C140.915 8.4066 141.512 8.1842 141.936 7.7394C142.361 7.29459 142.573 6.68804 142.573 5.91975V4.646H146V8.4066H149.73V11.5H146V19.2942C146 19.8603 146.091 20.3455 146.273 20.7499C146.455 21.134 146.748 21.4373 147.152 21.6597C147.557 21.8619 148.082 21.963 148.729 21.963C148.891 21.963 149.073 21.9529 149.275 21.9326C149.478 21.9124 149.67 21.8922 149.852 21.872V24.8138C149.569 24.8542 149.255 24.8946 148.911 24.9351C148.568 24.9755 148.264 24.9957 148.002 24.9957Z" fill="#270B46"/>
<path d="M130.125 25.1775C128.709 25.1775 127.395 24.9147 126.182 24.389C124.969 23.8431 123.938 23.1051 123.089 22.1751C122.24 21.2451 121.613 20.1735 121.208 18.9604L124.241 17.6866C124.787 19.0817 125.586 20.1533 126.637 20.9014C127.688 21.6494 128.902 22.0235 130.276 22.0235C131.085 22.0235 131.793 21.9022 132.399 21.6595C133.006 21.3967 133.471 21.0328 133.794 20.5678C134.138 20.1027 134.31 19.5669 134.31 18.9604C134.31 18.1314 134.077 17.4743 133.612 16.9891C133.147 16.5039 132.46 16.1197 131.55 15.8367L127.304 14.5023C125.606 13.9766 124.312 13.178 123.422 12.1064C122.533 11.0146 122.088 9.74085 122.088 8.28513C122.088 7.01138 122.401 5.89937 123.028 4.94911C123.655 3.97863 124.514 3.22045 125.606 2.67455C126.718 2.12866 127.982 1.85571 129.397 1.85571C130.752 1.85571 131.985 2.09833 133.097 2.58357C134.209 3.04859 135.159 3.69558 135.948 4.52453C136.756 5.35348 137.343 6.31385 137.707 7.40564L134.735 8.70972C134.29 7.51684 133.592 6.5969 132.642 5.94992C131.712 5.30293 130.63 4.97944 129.397 4.97944C128.649 4.97944 127.992 5.11086 127.426 5.3737C126.86 5.61632 126.415 5.98025 126.091 6.46549C125.788 6.93051 125.636 7.4764 125.636 8.10317C125.636 8.83103 125.869 9.47801 126.334 10.0441C126.799 10.6102 127.506 11.0348 128.457 11.3179L132.399 12.5613C134.199 13.1072 135.553 13.8957 136.463 14.9268C137.373 15.9378 137.828 17.2014 137.828 18.7178C137.828 19.9713 137.494 21.0833 136.827 22.0538C136.18 23.0243 135.28 23.7926 134.128 24.3587C132.976 24.9046 131.641 25.1775 130.125 25.1775Z" fill="#270B46"/>
<path d="M102.166 30.879V8.40641H105.441V11.8031L105.047 11.0146C105.653 10.0845 106.462 9.35667 107.473 8.83099C108.484 8.30532 109.636 8.04248 110.93 8.04248C112.487 8.04248 113.882 8.41652 115.115 9.16459C116.369 9.91267 117.349 10.9337 118.057 12.2277C118.785 13.5216 119.149 14.9774 119.149 16.5948C119.149 18.2123 118.785 19.668 118.057 20.962C117.349 22.2559 116.379 23.2871 115.146 24.0554C113.912 24.8035 112.507 25.1775 110.93 25.1775C109.656 25.1775 108.494 24.9146 107.443 24.389C106.411 23.8633 105.613 23.1051 105.047 22.1144L105.593 21.4775V30.879H102.166ZM110.597 21.9931C111.567 21.9931 112.426 21.7606 113.174 21.2956C113.922 20.8306 114.509 20.1937 114.933 19.3849C115.378 18.556 115.601 17.626 115.601 16.5948C115.601 15.5637 115.378 14.6438 114.933 13.835C114.509 13.0263 113.922 12.3894 113.174 11.9244C112.426 11.4594 111.567 11.2269 110.597 11.2269C109.646 11.2269 108.787 11.4594 108.019 11.9244C107.271 12.3894 106.674 13.0263 106.229 13.835C105.805 14.6438 105.593 15.5637 105.593 16.5948C105.593 17.626 105.805 18.556 106.229 19.3849C106.674 20.1937 107.271 20.8306 108.019 21.2956C108.787 21.7606 109.646 21.9931 110.597 21.9931Z" fill="#270B46"/>
<path d="M91.7842 24.8138V8.40663H95.0595V11.7123L94.7563 11.2271C95.1202 10.1555 95.7065 9.38722 96.5153 8.92219C97.324 8.43696 98.2945 8.19434 99.4267 8.19434H100.428V11.3181H99.0021C97.8699 11.3181 96.95 11.6719 96.2423 12.3795C95.5549 13.0669 95.2112 14.0576 95.2112 15.3516V24.8138H91.7842Z" fill="#270B46"/>
<path d="M79.7707 25.1775C78.6587 25.1775 77.6781 24.9854 76.8289 24.6013C76 24.1969 75.353 23.651 74.888 22.9636C74.4229 22.2559 74.1904 21.427 74.1904 20.4767C74.1904 19.5871 74.3825 18.7885 74.7667 18.0809C75.171 17.3732 75.7877 16.7768 76.6166 16.2915C77.4456 15.8063 78.4868 15.4626 79.7404 15.2604L85.4419 14.3203V17.0194L80.4076 17.8989C79.4977 18.0606 78.8305 18.3538 78.4059 18.7784C77.9814 19.1828 77.7691 19.7084 77.7691 20.3554C77.7691 20.9822 78.0016 21.4978 78.4666 21.9021C78.9518 22.2863 79.5685 22.4783 80.3166 22.4783C81.2466 22.4783 82.0553 22.2762 82.7428 21.8718C83.4504 21.4674 83.9963 20.9316 84.3805 20.2644C84.7646 19.577 84.9567 18.8188 84.9567 17.9899V13.7744C84.9567 12.9656 84.6534 12.3085 84.0469 11.8031C83.4605 11.2774 82.672 11.0146 81.6813 11.0146C80.7715 11.0146 79.9729 11.2572 79.2854 11.7424C78.6182 12.2075 78.1229 12.814 77.7994 13.5621L74.9486 12.1367C75.2519 11.328 75.7472 10.6203 76.4347 10.0138C77.1221 9.387 77.9207 8.90176 78.8305 8.55805C79.7606 8.21434 80.7412 8.04248 81.7723 8.04248C83.0663 8.04248 84.2086 8.2851 85.1993 8.77034C86.2102 9.25558 86.9886 9.93289 87.5345 10.8023C88.1006 11.6514 88.3837 12.6421 88.3837 13.7744V24.8136H85.1083V21.8415L85.8058 21.9325C85.4217 22.5997 84.9263 23.1759 84.3198 23.6611C83.7335 24.1464 83.0562 24.5204 82.2879 24.7832C81.5398 25.0461 80.7007 25.1775 79.7707 25.1775Z" fill="#270B46"/>
<path d="M50.6634 24.8137L44.4463 2.21973H48.2372L53.2716 21.7809H52.3314L57.5477 2.21973H61.278L66.4943 21.7809H65.5239L70.5886 2.21973H74.3492L68.1624 24.8137H64.1288L58.8822 5.55575H59.9436L54.6666 24.8137H50.6634Z" fill="#270B46"/>
<path d="M2.28289 15.9164L1.52345 16.7094V16.7075L0 18.3002V18.5759L1.52345 20.1687V20.1686L3.80179 22.5506V14.3303L2.28289 15.9135V15.9164Z" fill="#E52344"/>
<path d="M7.61151 17.0924L6.08806 15.5068V11.9387L5.28315 12.7754V14.6677L4.56006 13.9164V23.3443L6.08806 24.9465V24.9418L6.84753 25.7358L8.37098 27.3284V9.552L7.61606 10.3412L7.61151 17.0924Z" fill="#E52344"/>
<path d="M12.1742 14.96L10.6519 16.5514L10.6531 10.8485V7.16393L9.89105 7.96068V10.0517L9.89424 17.3435L9.12891 18.1436V27.5702L11.4153 25.1799L12.9395 23.5864V4.77368L12.1742 5.5738V14.96Z" fill="#E52344"/>
<path d="M16.7462 10.183L15.222 11.7765V2.3903L14.4567 3.19038L14.4566 12.5698L13.7009 13.3666L13.6978 22.7965L15.222 21.203V21.203L15.9873 20.4029V20.4096L17.5083 18.8195L17.5083 18.8128L17.5083 18.0127V0L16.743 0.80012L16.7462 10.183Z" fill="#E52344"/>
<path d="M21.6908 3.56709L21.3113 3.17039V12.57L19.7871 10.9765L19.7872 1.52982L19.4109 1.13647L19.4109 1.18355L19.0314 0.786865L19.0282 10.1764L18.2661 9.38639V18.8062L19.7871 20.3963L20.546 21.1897V21.1897L22.0735 22.7866V3.92002L21.6908 3.51998V3.56709Z" fill="#E52344"/>
<path d="M26.2585 8.34381L25.8791 7.94041V10.0785L25.8758 16.7046V17.3434L25.1137 16.5466L24.3548 15.7533V6.30652L23.969 5.90313L23.9689 5.95021L23.5959 5.55347V12.4654V14.9531L22.8306 14.1598L22.8306 23.5796L24.3548 25.1731L25.1137 25.9664L26.6347 27.5566V17.498L26.6347 9.28846V8.69004L26.2585 8.2967V8.34381Z" fill="#E52344"/>
<path d="M31.2012 13.4225L30.4463 12.638V14.7204L28.9228 16.3108V11.0596L28.1634 10.2751V10.2894L28.168 17.0988L27.3994 17.9011V27.3289L28.9228 25.7362L29.6823 24.9423V24.947L31.2058 23.3496V22.2751L31.2012 13.4653V13.4225Z" fill="#E52344"/>
<path d="M34.2471 16.5788V16.5826L33.4923 15.8001V15.7991L31.9688 14.2207V22.5503L33.4923 20.9623V20.9575L34.2471 20.1684L35.7706 18.5756V18.162L34.2471 16.5788Z" fill="#E52344"/>
<path fill-rule="evenodd" clip-rule="evenodd" d="M156.924 37.2695H157.776C157.444 38.9274 156.145 40.0438 154.411 40.0438C152.374 40.0438 150.733 38.3964 150.733 36.2186C150.733 34.0402 152.374 32.4038 154.411 32.4038C156.145 32.4038 157.443 33.5092 157.776 35.1671H156.924C156.633 33.9643 155.698 33.206 154.411 33.206C152.811 33.206 151.564 34.4953 151.564 36.2186C151.564 37.9414 152.811 39.2421 154.411 39.2421C155.698 39.2421 156.634 38.4614 156.924 37.2695ZM166.579 36.2238C166.579 38.3511 165.008 40.0438 163.058 40.0438C161.108 40.0438 159.537 38.3511 159.537 36.2238C159.537 34.0965 161.108 32.4038 163.058 32.4038C165.008 32.4038 166.579 34.0965 166.579 36.2238ZM165.783 36.2238C165.783 34.5526 164.59 33.207 163.058 33.207C161.526 33.207 160.332 34.5526 160.332 36.2238C160.332 37.8951 161.526 39.2406 163.058 39.2406C164.59 39.2406 165.783 37.8951 165.783 36.2238ZM174.942 32.4038V40.0438H174.291L169.999 34.0216V40.0438H169.22V32.4038H169.852L174.163 38.5048V32.4038H174.942ZM178.842 33.2242V36.0328H182.43V36.8527H178.842V40.0438H178.024V32.4038H182.865V33.2242H178.842ZM190.348 39.2235V40.0438H185.506V32.4038H186.349V39.2235H190.348ZM197.831 36.6984C197.831 38.6968 196.603 40.0438 194.75 40.0438C192.897 40.0438 191.669 38.6972 191.669 36.6984V32.4038H192.505V36.6984C192.505 38.1667 193.394 39.2268 194.75 39.2268C196.094 39.2268 196.995 38.1667 196.995 36.6984V32.4038H197.831V36.6984ZM201.716 33.2242V35.8418H205.347V36.6621H201.716V39.2239H205.754V40.0438H200.912V32.4038H205.754V33.2242H201.716ZM213.677 32.4038V40.0438H213.025L208.734 34.0216V40.0438H207.955V32.4038H208.586L212.897 38.5048V32.4038H213.677ZM222.04 33.2242H219.564V40.0438H218.785V33.2242H216.318V32.4038H222.04V33.2242Z" fill="#270B46"/>
<path d="M142.675 41.0001C142.598 41.0001 142.519 40.9929 142.437 40.9784C142.36 40.9688 142.283 40.9496 142.206 40.9208V40.4159C142.254 40.4208 142.314 40.428 142.386 40.4376C142.463 40.452 142.54 40.4592 142.617 40.4592C142.853 40.4592 143.033 40.4087 143.158 40.3078C143.283 40.2116 143.406 40.0241 143.526 39.7453L143.771 39.1683L143.757 39.6443L142.12 35.5481H142.704L144.045 38.9303H143.894L145.228 35.5481H145.826L144.06 39.9039C143.983 40.0914 143.884 40.2693 143.764 40.4376C143.648 40.6058 143.502 40.7405 143.324 40.8414C143.146 40.9472 142.93 41.0001 142.675 41.0001Z" fill="#270B46"/>
<path d="M139.954 39.5001C139.623 39.5001 139.322 39.4256 139.053 39.2765C138.788 39.1227 138.589 38.9063 138.454 38.6275L138.541 38.5482V39.4135H138V33.9543H138.541V36.4135L138.454 36.2621C138.608 36.0169 138.813 35.8222 139.067 35.6779C139.327 35.5337 139.623 35.4616 139.954 35.4616C140.32 35.4616 140.644 35.5505 140.928 35.7284C141.216 35.9015 141.442 36.1395 141.606 36.4424C141.774 36.7452 141.858 37.0914 141.858 37.4808C141.858 37.8655 141.774 38.2116 141.606 38.5193C141.442 38.8222 141.216 39.0626 140.928 39.2405C140.644 39.4135 140.32 39.5001 139.954 39.5001ZM139.926 38.9592C140.185 38.9592 140.416 38.8943 140.618 38.7645C140.825 38.6347 140.986 38.4592 141.101 38.2381C141.221 38.0121 141.281 37.7597 141.281 37.4808C141.281 37.1972 141.221 36.9448 141.101 36.7236C140.986 36.5025 140.825 36.327 140.618 36.1972C140.416 36.0674 140.185 36.0024 139.926 36.0024C139.666 36.0024 139.43 36.0674 139.219 36.1972C139.012 36.327 138.846 36.5049 138.721 36.7308C138.601 36.952 138.541 37.202 138.541 37.4808C138.541 37.7597 138.601 38.0121 138.721 38.2381C138.846 38.4592 139.012 38.6347 139.219 38.7645C139.43 38.8943 139.666 38.9592 139.926 38.9592Z" fill="#270B46"/>
</svg>
