<svg width="228" height="228" viewBox="0 0 228 228" fill="none" xmlns="http://www.w3.org/2000/svg">
<rect width="228" height="228" fill="white"/>
<path d="M51.158 122.85L48.1115 126.031V126.024L42 132.413V133.519L48.1115 139.909V139.908L57.2512 149.464V116.488L51.158 122.839V122.85Z" fill="#E52344"/>
<path d="M72.5332 127.567L66.4217 121.206V106.893L63.1927 110.25V117.84L60.292 114.827V152.647L66.4217 159.075V159.056L69.4684 162.241L75.5798 168.63V97.3184L72.5514 100.484L72.5332 127.567Z" fill="#E52344"/>
<path d="M90.8379 119.013L84.7312 125.397L84.7362 102.52V87.7386L81.679 90.9348V99.3233L81.6918 128.575L78.6216 131.785V169.6L87.7935 160.011L93.9081 153.619V78.1499L90.8379 81.3597V119.013Z" fill="#E52344"/>
<path d="M109.179 99.8498L103.064 106.242V68.5889L99.9941 71.7985L99.994 109.425L96.9625 112.621L96.9497 150.45L103.064 144.058V144.058L106.134 140.848V140.875L112.236 134.496L112.236 134.469L112.236 131.259V59L109.166 62.2097L109.179 99.8498Z" fill="#E52344"/>
<path d="M129.016 73.3096L127.493 71.7182V109.426L121.379 103.033L121.379 65.1369L119.87 63.559L119.87 63.7478L118.348 62.1565L118.335 99.8235L115.277 96.6542V134.443L121.379 140.822L124.423 144.004V144.004L130.551 150.41V74.7254L129.016 73.1206V73.3096Z" fill="#E52344"/>
<path d="M147.339 92.4718L145.817 90.8535V99.4306L145.804 126.012V128.574L142.747 125.378L139.703 122.195V84.299L138.155 82.6808L138.155 82.8696L136.658 81.2781V109.006V118.986L133.588 115.803L133.588 153.591L139.703 159.984L142.747 163.167L148.848 169.545V129.195L148.849 96.2613V93.8607L147.339 92.2828V92.4718Z" fill="#E52344"/>
<path d="M167.168 112.845L164.139 109.698V118.051L158.028 124.431V103.366L154.981 100.219V100.276L155 127.592L151.917 130.811V168.632L158.028 162.242L161.074 159.057V159.076L167.186 152.668V148.358L167.168 113.016V112.845Z" fill="#E52344"/>
<path d="M179.385 125.507V125.522L176.357 122.383V122.379L170.245 116.047V149.462L176.357 143.092V143.073L179.385 139.907L185.497 133.518V131.858L179.385 125.507Z" fill="#E52344"/>
</svg>
