<?xml version="1.0" encoding="UTF-8"?><svg id="Layer_2" xmlns="http://www.w3.org/2000/svg" viewBox="0 0 1838.493 507.435"><defs><style>.cls-1,.cls-2,.cls-3{stroke-width:0px;}.cls-1,.cls-3{fill:#186cda;}.cls-2{fill:#fff;}.cls-3{fill-rule:evenodd;}</style></defs><g id="Ebene_1"><path class="cls-1" d="m246.228,5.31l186.314,106.957c12.424,7.132,20.085,20.364,20.085,34.69v213.521c0,14.326-7.661,27.558-20.085,34.69l-186.314,106.957c-12.333,7.08-27.497,7.08-39.829,0L20.085,395.168c-12.424-7.132-20.085-20.364-20.085-34.69v-213.521c0-14.326,7.661-27.558,20.085-34.69L206.399,5.31c12.333-7.08,27.497-7.08,39.829,0h0Z"/><path class="cls-2" d="m143,327.63c0,18.165,5.058,22.601,23.193,26.642,8.432,2.018,27.833,5.247,53.135,5.247,65.37,0,90.672-19.777,90.672-60.949,0-33.913-17.294-48.849-48.495-60.555l-43.861-16.548c-12.654-4.847-17.287-7.271-17.287-13.73,0-7.265,5.9-10.895,31.207-10.895,23.193,0,36.265,2.824,45.121,4.841,18.553,4.441,23.617,0,23.617-18.165v-4.035c0-18.165-4.64-22.607-23.193-26.642-5.058-1.212-19.408-4.841-44.709-4.841-62.408,0-86.026,20.177-86.026,59.338,0,33.101,16.87,46.425,43.861,57.32l39.221,15.742c21.503,8.477,26.567,11.306,26.567,18.571,0,9.283-8.014,11.706-32.473,11.706-29.947,0-46.811-3.635-57.357-6.459-18.554-4.847-23.193.806-23.193,18.971v4.441h0Z"/><path class="cls-3" d="m562.985,306.692c0,10.54,2.825,13.114,12.956,15.459,4.71,1.171,15.547,3.045,29.68,3.045,36.515,0,50.648-11.476,50.648-35.366,0-19.678-9.66-28.344-27.089-35.137l-24.5-9.602c-7.068-2.813-9.657-4.219-9.657-7.967,0-4.215,3.296-6.322,17.432-6.322,12.956,0,20.257,1.638,25.204,2.809,10.364,2.577,13.192,0,13.192-10.54v-2.342c0-10.54-2.592-13.117-12.955-15.459-2.825-.703-10.841-2.809-24.974-2.809-34.86,0-48.053,11.708-48.053,34.43,0,19.207,9.423,26.938,24.5,33.26l21.908,9.134c12.012,4.919,14.84,6.56,14.84,10.776,0,5.386-4.476,6.793-18.139,6.793-16.728,0-26.148-2.109-32.039-3.748-10.364-2.813-12.956.468-12.956,11.008v2.577h0Zm104.355-84.323c0,9.37,2.352,11.711,11.778,11.711h9.42v46.145c0,34.198,19.317,44.735,45.468,44.735,8.246,0,13.426-.703,16.488-1.403,10.367-2.109,12.956-6.089,12.956-16.63v-2.577c0-10.54-2.588-11.476-12.956-9.605-2.355.468-8.242,1.406-16.488,1.406-8.953,0-14.844-3.983-14.844-15.695v-46.377h26.855c10.601,0,13.192-2.577,13.192-13.117v-2.574c0-10.54-2.592-13.117-13.192-13.117h-26.855v-18.268c0-9.841-2.352-12.182-12.248-12.182h-1.411c-9.897,0-12.722,2.342-14.14,11.947l-2.825,18.504-9.656,2.106c-9.19,1.874-11.541,4.686-11.541,14.053v.939h0Zm192.259,50.828c0,14.991-4.003,23.19-25.207,23.19s-25.678-8.199-25.678-23.19v-18.739c0-14.991,4.48-23.187,25.678-23.187s25.207,8.195,25.207,23.187v18.739h0Zm-25.207,51.999c36.752,0,56.065-18.504,56.065-51.999v-18.739c0-34.662-17.432-51.995-56.065-51.995-36.749,0-56.535,18.5-56.535,51.995v18.739c0,34.666,17.902,51.999,56.535,51.999h0Zm107.654-75.424c0-11.943,3.536-18.5,22.852-18.5s22.379,6.557,22.379,18.5v59.498c0,10.537,2.592,13.117,13.192,13.117h4.476c10.601,0,13.192-2.58,13.192-13.117v-59.498c0-31.382-16.021-47.309-53.24-47.309-35.571,0-53.71,16.63-53.71,47.309v59.498c0,10.537,2.592,13.117,13.192,13.117h4.476c10.601,0,13.189-2.58,13.189-13.117v-59.498h0Zm205.648,3.284c0-33.26-17.195-50.592-51.589-50.592-40.988,0-54.884,22.484-54.884,52.698v18.739c0,36.304,19.787,51.296,61.479,51.296,13.192,0,24.267-1.874,28.74-3.045,10.367-2.574,12.485-4.683,12.485-15.223v-2.577c0-10.54-2.118-13.35-12.485-11.244-4.473.939-16.251,3.28-28.503,3.28-21.908,0-30.858-5.625-30.858-17.801v-3.516h59.834c10.834,0,13.896-2.109,15.31-12.882.47-4.219.47-7.264.47-9.134h0Zm-75.615-6.325c0-11.711,7.539-17.804,23.086-17.804s23.319,6.093,23.319,17.804v3.516h-46.405v-3.516h0Zm96.816,27.17c0,36.775,24.974,51.296,56.065,51.296,35.334,0,56.302-14.52,56.302-51.296v-18.739c0-33.495-16.725-52.698-49.467-52.698-16.258,0-26.151,5.151-32.276,13.35v-44.271c0-10.537-2.592-13.114-13.189-13.114h-4.243c-10.601,0-13.192,2.577-13.192,13.114v102.359h0Zm81.509-.703c0,14.991-3.536,23.19-25.207,23.19-21.201,0-25.678-8.199-25.678-23.19v-18.739c0-14.991,4.476-23.187,25.678-23.187s25.207,8.195,25.207,23.187v18.739h0Zm82.443-25.764c0-10.54,2.825-16.162,18.139-16.162h2.588c9.66.703,12.015-.703,12.015-11.243v-2.577c0-10.54-2.592-14.988-12.015-14.988h-2.588c-32.272,0-48.997,14.988-48.997,42.629v64.177c0,10.537,2.592,13.117,13.192,13.117h4.473c10.6,0,13.192-2.58,13.192-13.117v-61.836h0Zm141.855-4.687c0-30.682-22.379-40.284-57.006-40.284-9.897,0-15.547.7-19.083,1.167-10.13,1.406-12.722,4.219-12.722,14.288v.939c0,10.54,3.066,12.414,13.196,11.008,3.529-.468,11.071-1.406,20.491-1.406,14.61,0,24.503,2.109,24.503,14.288v8.902h-23.796c-28.029,0-49.742,9.134-49.742,36.54,0,24.125,17,37.007,53.041,37.007,36.278,0,51.118-12.882,51.118-37.711v-44.739h0Zm-30.621,43.1c0,12.882-10.37,13.817-20.968,13.817s-20.024-.935-20.024-12.179c0-8.666,5.417-12.882,16.725-12.882h24.267v11.244h0Zm84.132-36.076c0-11.943,3.536-18.5,22.853-18.5s22.379,6.557,22.379,18.5v59.498c0,10.537,2.592,13.117,13.192,13.117h4.476c10.597,0,13.189-2.58,13.189-13.117v-59.498c0-31.382-16.018-47.309-53.236-47.309-35.571,0-53.71,16.63-53.71,47.309v59.498c0,10.537,2.592,13.117,13.196,13.117h4.473c10.597,0,13.189-2.58,13.189-13.117v-59.498h0Zm97.994,25.3c0,32.089,17.432,50.125,57.476,50.125,6.598,0,12.722-.939,15.788-1.638,10.364-2.109,12.956-4.919,12.956-15.459v-2.345c0-10.54-2.592-12.646-12.956-10.772-3.773.703-8.953,1.406-14.373,1.406-19.55,0-28.029-5.386-28.029-22.252v-21.081c0-17.336,7.538-21.784,25.911-21.784,6.835,0,11.071.703,14.84,1.638,9.894,2.345,12.485,0,12.485-10.54v-2.574c0-10.544-2.592-13.589-12.485-15.694-3.059-.703-8.005-1.638-15.307-1.638-37.459,0-56.305,20.142-56.305,50.125v22.484h0Zm105.34,34.198c0,10.537,2.592,13.117,13.192,13.117h4.473c10.6,0,13.192-2.58,13.192-13.117v-49.657c0-22.955,11.781-28.341,25.441-28.341,12.248,0,19.787,3.748,19.787,16.865v61.133c0,10.537,2.595,13.117,13.196,13.117h4.473c10.601,0,13.193-2.58,13.193-13.117v-66.522c0-31.621-21.205-40.284-40.044-40.284-15.551,0-28.506,5.151-36.045,13.35v-44.271c0-10.537-2.592-13.114-13.192-13.114h-4.473c-10.601,0-13.192,2.577-13.192,13.114v137.728h0Z"/></g></svg>