<svg id="Layer_1" data-name="Layer 1" xmlns="http://www.w3.org/2000/svg" viewBox="0 0 128 128"><defs><style>.cls-1{fill:#a7a9ac;}.cls-2{fill:#ffa400;}.cls-3{fill:#faa31a;}.cls-4{fill:#808285;}.cls-5{fill:none;}</style></defs><path class="cls-1" d="M73.26,84A25.64,25.64,0,0,1,40.41,47.28l-6.84-7.64a35.41,35.41,0,0,0-6,12.73,7,7,0,0,1-.74,13.24,35.4,35.4,0,0,0,4.8,13.7,7,7,0,0,1,8.85,9.89,35.39,35.39,0,0,0,13.08,6.3,7,7,0,0,1,13.24.73,35.1,35.1,0,0,0,13.32-4.57Z"/><path class="cls-2" d="M44.7,37.56l2,2.4A27.35,27.35,0,0,1,82.07,81.28l2.05,2.4A30.49,30.49,0,0,0,44.7,37.56Z"/><path class="cls-3" d="M65.11,6.16V21.08a43,43,0,0,1,0,85.84v14.92a57.92,57.92,0,0,0,0-115.68Z"/><path class="cls-4" d="M57.78,111.4a47.6,47.6,0,0,1,0-94.8V10.07a54.1,54.1,0,0,0,0,107.86Z"/><path class="cls-1" d="M73.26,84A25.64,25.64,0,0,1,40.41,47.28l-6.84-7.64a35.41,35.41,0,0,0-6,12.73,7,7,0,0,1-.74,13.24,35.4,35.4,0,0,0,4.8,13.7,7,7,0,0,1,8.85,9.89,35.39,35.39,0,0,0,13.08,6.3,7,7,0,0,1,13.24.73,35.1,35.1,0,0,0,13.32-4.57Z"/><path class="cls-2" d="M44.7,37.56l2,2.4A27.35,27.35,0,0,1,82.07,81.28l2.05,2.4A30.49,30.49,0,0,0,44.7,37.56Z"/><path class="cls-5" d="M65.11,6.16V21.08a43,43,0,0,1,0,85.84v14.92a57.92,57.92,0,0,0,0-115.68Z"/><path class="cls-4" d="M57.78,111.4a47.6,47.6,0,0,1,0-94.8V10.07a54.1,54.1,0,0,0,0,107.86Z"/></svg>