<svg id="Layer_1" data-name="Layer 1" xmlns="http://www.w3.org/2000/svg" viewBox="0 0 568.54 97.21" height="153" width="900"><defs><style>.cls-1{fill:#f26722;}</style></defs><title>Print-Gigamon-Orange-Logo</title><path class="cls-1" d="M85,87.12H66V73h40.32v38.32a123.81,123.81,0,0,1-36.75,5.15c-32.13,0-48.29-12.91-48.29-38.43,0-25.19,16.39-39.37,46.09-39.37,25,0,37.89,8.3,39,25.09H83.17c-.32-6.92-6.4-11.24-16.49-11.24-14.9,0-23.19,8.73-23.19,24.37,0,16.59,8.51,25,25.39,25A63.59,63.59,0,0,0,85,99.61Z" transform="translate(-21.23 -38.62)" /><path class="cls-1" d="M117.39,39.56h21.73V54.37H117.39Zm.84,22.89h20.16v52.7H118.23Z" transform="translate(-21.23 -38.62)" /><path class="cls-1" d="M198.65,62.45h19.72a94.81,94.81,0,0,0-.73,12V101.3c0,10.17-.41,17.53-4.83,23.41-5.88,7.65-16.38,11.12-32.22,11.12-19.74,0-29.72-6.09-29.92-18.57h19.94c.21,4.73,3.78,7.13,10.6,7.13,11.14,0,16.27-5,16.27-15.74v-4.41c-5.25,6-12.81,8.91-22.45,8.91-16.59,0-27.19-10.8-27.19-25.61,0-16.27,10.49-26.34,28.12-26.34q12.45,0,22,9.12A41.77,41.77,0,0,1,198.65,62.45ZM182.9,101.5c9.65,0,14.8-5.14,14.8-14.59,0-9-5.35-14.28-14.59-14.28s-14.6,5.46-14.6,15C168.51,95.94,174.07,101.5,182.9,101.5Z" transform="translate(-21.23 -38.62)" /><path class="cls-1" d="M246.08,116.42c-13.53,0-20.87-6-20.87-16a16.52,16.52,0,0,1,8.18-14.81c5.24-3.25,14.17-3.67,27-3.67h9.77c0-.53.11-1,.11-1.46,0-5.77-3.47-8.83-9.88-8.83-7,0-10.6,1.68-11.34,6.4H228.56c1.36-11.74,11.75-16.89,32.12-16.89,19.64,0,29,6.18,29,20.14v26.89a18.71,18.71,0,0,0,1.05,6.92H271.91a16.63,16.63,0,0,1-1.26-6.81v-1C266.46,113.06,258.05,116.42,246.08,116.42Zm22.47-24.78c-15.33,0-22.36,1.56-22.36,7.45,0,3.89,3.36,5.88,10.09,5.88,8.91,0,13.85-4.3,13.85-12.18V91.64Z" transform="translate(-21.23 -38.62)" /><path class="cls-1" d="M299.31,74.84a97.93,97.93,0,0,0-.63-12.39h19.84q.63,4.27.94,8.5A28.37,28.37,0,0,1,341.3,61.2c9.76,0,16.16,3.76,18.9,10.91,5-7.24,12.38-10.91,21.51-10.91,14.8,0,23.1,7.75,23.1,22.36v31.59H384.76V83c0-6.41-3.78-10-10.19-10-8.7,0-12.7,5-12.7,15.32v26.78H342V83c0-6.3-3.78-10-10-10-8.93,0-12.91,5-12.91,15.32v26.78H299.31Z" transform="translate(-21.23 -38.62)" /><path class="cls-1" d="M412.68,88.7c0-17.63,12.28-27.62,35.7-27.62s35.8,10,35.8,27.83c0,18.16-12.29,27.51-36.65,27.51C424.65,116.42,412.68,106.44,412.68,88.7Zm50.38-.42c0-10.29-5.66-16.59-14.58-16.59-9.24,0-14.59,5.88-14.59,16.49s5.15,16.47,14.69,16.47C457.5,104.65,463.06,98.45,463.06,88.28Z" transform="translate(-21.23 -38.62)" /><path class="cls-1" d="M490.79,74.84a94.34,94.34,0,0,0-.65-12.39h20.28a70.86,70.86,0,0,1,.52,8.4c5.87-6.19,12.81-9.65,22.67-9.65,14.28,0,22.88,8,22.88,21.73v32.22H536.24V83.87c0-7.14-3.88-10.82-11.13-10.82-9.67,0-14.17,5-14.17,15.32v26.78H490.79Z" transform="translate(-21.23 -38.62)" /><path class="cls-1" d="M575.07,38.62a15,15,0,0,1,7.23,1.9A13.47,13.47,0,0,1,587.8,46a14.79,14.79,0,0,1,0,14.7,13.65,13.65,0,0,1-5.44,5.45,14.73,14.73,0,0,1-14.65,0,13.68,13.68,0,0,1-5.45-5.45,14.73,14.73,0,0,1,0-14.7,13.55,13.55,0,0,1,5.51-5.44A15,15,0,0,1,575.07,38.62Zm0,2.44a12.51,12.51,0,0,0-6,1.59,11.42,11.42,0,0,0-4.6,4.54,12.23,12.23,0,0,0,0,12.25A11.6,11.6,0,0,0,569,64a12.25,12.25,0,0,0,12.21,0,11.51,11.51,0,0,0,4.55-4.55,12.29,12.29,0,0,0,0-12.25,11.3,11.3,0,0,0-4.6-4.54A12.52,12.52,0,0,0,575.07,41.06Zm-6.46,20.42V45.64h5.44a13.39,13.39,0,0,1,4,.44,3.92,3.92,0,0,1,2,1.53,4.09,4.09,0,0,1,.74,2.32,4.22,4.22,0,0,1-1.24,3,4.92,4.92,0,0,1-3.29,1.44,4.21,4.21,0,0,1,1.35.84A17.62,17.62,0,0,1,580,58.38l1.93,3.1h-3.12L577.39,59a12.64,12.64,0,0,0-2.68-3.69,3.23,3.23,0,0,0-2.05-.55h-1.5v6.73Zm2.55-8.91h3.11a5,5,0,0,0,3-.67,2.27,2.27,0,0,0,.42-3,2.3,2.3,0,0,0-1.09-.83,8.07,8.07,0,0,0-2.56-.27h-2.91Z" transform="translate(-21.23 -38.62)" /></svg>