<svg width="203" height="201" viewBox="0 0 203 201" fill="none" xmlns="http://www.w3.org/2000/svg">
<g clip-path="url(#clip0_68_3190)">
<path d="M129.701 94.0934C130.081 93.903 130.462 93.7507 130.843 93.5984L133.164 92.7989L101.272 1.42254L100.815 0.470703H99.7875C94.9922 0.508777 90.197 0.889511 85.4398 1.61291L83.5369 1.9175L128.369 94.6645L129.625 94.0553L129.701 94.0934Z" fill="#1AD1EC"/>
<path d="M123.688 98.6242C124.183 98.0912 124.715 97.5582 125.286 97.0632L126.352 96.1114L52.7862 13.53L52.025 12.6924L51.0355 13.2635C46.5067 15.8144 42.1681 18.7461 38.0579 21.9823L36.7258 23.0484L122.736 99.7284L123.688 98.6623V98.6242Z" fill="#1AD1EC"/>
<path d="M119.92 105.135C120.148 104.45 120.453 103.765 120.757 103.079L121.366 101.785L13.7768 49.7002L13.1298 50.8424C10.4658 55.4874 8.18233 60.3988 6.3175 65.4245L5.82275 66.7952L119.463 106.468L119.92 105.135Z" fill="#1AD1EC"/>
<path d="M118.854 112.597C118.854 112.331 118.854 112.064 118.778 111.798V111.417C118.778 111.417 118.778 111.112 118.816 110.96C118.816 110.732 118.892 110.503 118.892 110.275V108.904L0 102.051V103.612C0.190289 108.904 0.761155 114.272 1.75066 119.488L1.979 120.707L118.854 113.968V112.635V112.597Z" fill="#1AD1EC"/>
<path d="M120.757 119.831C120.453 119.146 120.148 118.46 119.92 117.775L119.463 116.442L14.7664 152.879L15.7559 154.402C18.496 158.666 21.5787 162.74 24.9658 166.547L25.6889 167.347L121.366 121.087L120.757 119.831Z" fill="#1AD1EC"/>
<path d="M125.286 125.809C124.715 125.314 124.221 124.781 123.726 124.248L122.774 123.182L50.5789 187.526L52.3676 188.478C56.4778 190.648 60.7783 192.552 65.1169 194.151L66.0303 194.493L126.352 126.761L125.286 125.809Z" fill="#1AD1EC"/>
<path d="M131.794 129.578C131.109 129.349 130.424 129.045 129.739 128.74L128.445 128.131H128.407L93.584 200.242H95.8294C96.5144 200.242 97.1234 200.28 97.7703 200.318C98.4554 200.356 99.1404 200.432 99.8255 200.432C102.528 200.432 105.23 200.242 107.818 200.052L108.731 199.976L133.126 130.035L131.756 129.578H131.794Z" fill="#1AD1EC"/>
<path d="M139.253 130.644C138.987 130.644 138.72 130.644 138.454 130.72C138.188 130.758 137.883 130.72 137.617 130.72C137.388 130.72 137.16 130.644 136.932 130.644H135.562L131.832 195.14L133.849 194.417C137.008 193.274 140.167 191.942 143.173 190.495L144.011 190.076L140.585 130.644H139.253Z" fill="black"/>
<path d="M152.459 124.248C151.964 124.819 151.431 125.314 150.899 125.809L149.833 126.761L179.784 160.379L180.812 158.933C182.258 156.953 183.628 154.897 184.884 152.803L185.493 151.775L153.372 123.144L152.421 124.21L152.459 124.248Z" fill="black"/>
<path d="M157.292 108.903V110.236C157.292 110.503 157.292 110.769 157.369 111.036C157.369 111.15 157.407 111.302 157.407 111.416C157.407 111.569 157.407 111.721 157.369 111.873C157.369 112.102 157.292 112.33 157.292 112.559V113.929L198.433 116.29L198.623 114.995C199.004 112.406 199.232 110.122 199.422 108.066L199.537 106.429L157.292 108.865V108.903Z" fill="black"/>
<path d="M150.861 97.0248C151.432 97.5197 151.927 98.0528 152.421 98.5858L153.373 99.6518L192.953 64.3577L192.572 63.444C191.507 60.7027 190.251 57.9233 188.805 55.182L187.853 53.3545L149.757 96.111L150.823 97.0629L150.861 97.0248Z" fill="black"/>
<path d="M136.932 92.1894C137.198 92.1894 137.465 92.1894 137.731 92.1132C137.997 92.0751 138.302 92.1132 138.568 92.1132C138.797 92.1132 139.025 92.1894 139.253 92.1894H140.623L145.266 11.4736L144.429 11.0548C140.585 9.15111 136.589 7.4378 132.555 6.06716L130.538 5.38184L135.524 92.2275H136.856L136.932 92.1894Z" fill="black"/>
<path d="M146.446 128.778C145.799 129.083 145.114 129.387 144.391 129.616L143.059 130.073L160.413 179.949L161.974 178.692C164.143 176.979 166.084 175.19 168.139 173.324L169.129 172.448L147.74 128.169L146.484 128.778H146.446Z" fill="black"/>
<path d="M156.227 117.775C155.999 118.46 155.694 119.146 155.39 119.831L154.781 121.087L191.963 139.134L192.534 137.725C193.219 136.012 194.132 133.69 194.894 131.253L195.312 129.92L156.684 116.404L156.227 117.775Z" fill="black"/>
<path d="M155.428 103.041C155.732 103.688 156.037 104.373 156.265 105.097L156.722 106.467L199.423 91.6948L199.308 90.5906C199.042 88.0017 198.623 85.4888 198.167 82.9379L197.824 81.1104L154.819 101.784L155.428 103.079V103.041Z" fill="black"/>
<path d="M144.391 93.2553C145.076 93.4838 145.761 93.7883 146.446 94.0929L147.702 94.7021L176.093 35.9928L175.484 35.2694C173.125 32.5281 170.575 29.901 167.911 27.4263L166.312 25.9414L143.059 92.7604L144.391 93.2172V93.2553Z" fill="black"/>
</g>
<defs>
<clipPath id="clip0_68_3190">
<rect width="203" height="200" fill="white" transform="translate(0 0.470703)"/>
</clipPath>
</defs>
</svg>
