<svg id="Layer_1" data-name="Layer 1" xmlns="http://www.w3.org/2000/svg" viewBox="0 0 2349 1050"><defs><style>.cls-1{fill:#00bad3;}.cls-2{fill:none;}</style></defs><path d="M1351.14,624.13a56.58,56.58,0,0,0-35.68-24.84,50.87,50.87,0,0,0,26.79-24.67,81.13,81.13,0,0,0,9.84-39.19q0-36-23.9-56.76t-66.3-20.78H1132.34V749.25h137.23q43.59,0,68.83-22t25.25-58.92a79.18,79.18,0,0,0-12.51-44.13m-153.7-47.57V517h54.38q18.89,0,28.33,7.32a24.91,24.91,0,0,1,9.44,21,28.46,28.46,0,0,1-9.81,22.94q-9.81,8.36-28,8.35ZM1290,681q-9.66,8.34-28.91,8.34h-63.6V631.82h64.77q18.3,0,27.78,6.88a23.15,23.15,0,0,1,9.62,20.12,27.82,27.82,0,0,1-9.62,22M1719.6,749.1V685.39H1590.06V457.89h-65.14V749.21Zm-887-297.21a151.75,151.75,0,1,1-.14,0h0m0,235.77a84.17,84.17,0,1,0-84.17-84.17h0a84.16,84.16,0,0,0,84.17,84.17m-294.4,61.55V457.89H472.7V622L346.27,457.89H296.54V749.21h65.14V589.4l125.7,159.81Z"/><ellipse class="cls-1" cx="2134.99" cy="462.5" rx="27.51" ry="26.84"/><circle class="cls-1" cx="2013.34" cy="462.26" r="33.28"/><circle class="cls-1" cx="2135.61" cy="219.29" r="19.65"/><circle class="cls-1" cx="2013.37" cy="219.5" r="22.27"/><circle class="cls-1" cx="1891.17" cy="219.91" r="27.51"/><circle class="cls-1" cx="2135.4" cy="341.53" r="22.27"/><ellipse class="cls-1" cx="2013.78" cy="341.79" rx="27.51" ry="26.84"/><circle class="cls-1" cx="1891.61" cy="341.56" r="33.28"/><path d="M1885.18,511.25a36.39,36.39,0,1,1-36.39-36.39h0A36.39,36.39,0,0,1,1885.18,511.25ZM1850.61,402a111.62,111.62,0,0,0-26.78,220l27.69-45.49h-2.73A65.66,65.66,0,1,1,1905.94,543h0l-50.1,81.76A111.44,111.44,0,0,0,1850.5,402Z"/><rect class="cls-2" width="2349" height="1050"/></svg>