<svg width="1000" height="1000" viewBox="0 0 1000 1000" fill="none" xmlns="http://www.w3.org/2000/svg">
<path d="M350.028 218.257C370.12 188.841 467.946 120.871 574.958 120.01C693.058 119.058 730.072 187.506 746.345 217.6L746.739 218.328V218.86C745.596 218.847 744.445 218.841 743.287 218.841C683.53 218.841 634.978 238.968 634.978 274.192V284.759H746.739V483.021C746.739 702.299 567.304 879.987 350.234 879.987L326.621 880C342.197 868.694 358.906 854.605 375.902 837.023C426.589 784.591 428.135 718.587 409.885 685.04C405.645 724.05 384.309 768.134 348.157 805.532C309.323 845.703 262.199 869.049 221.26 872.255C274.837 751.111 307.113 619.952 350.028 218.257Z" fill="#F8F3FF"/>
</svg>
