<svg width="137" height="121" fill="none" xmlns="http://www.w3.org/2000/svg"><g clip-path="url(#a)"><path d="M136.422 60.33 105.994 6.527C103.71 2.517 99.507 0 94.938 0H41.484c-4.569 0-8.772 2.518-11.056 6.527l-3.838 6.807h68.257l-7.585 13.334H19.006l-7.584 13.428h68.256L72.094 53.43H3.838L0 60.33l3.746 6.528h68.257l7.493 13.334H11.239l7.584 13.334H87.08l7.584 13.334H26.407l4.02 7.087c2.285 4.009 6.488 6.527 11.057 6.527h53.454c4.569 0 8.772-2.518 11.056-6.527l30.428-53.617Z" fill="#EF54AC"/></g><defs><clipPath id="a"><path fill="#fff" d="M0 0h500v120.567H0z"/></clipPath></defs></svg>