<svg width="146" height="24" viewBox="0 0 146 24" fill="none" xmlns="http://www.w3.org/2000/svg">
<path d="M30.8351 14.4547V9.4595C30.8351 5.90421 32.307 3.89514 36.1958 3.89514H41.237C45.1258 3.89514 46.5943 5.90421 46.5943 9.4595V9.64464C46.61 9.76976 46.5674 9.89517 46.479 9.98435C46.3906 10.0735 46.2662 10.1165 46.1422 10.1006H44.8334C44.5377 10.1006 44.3813 9.96348 44.3813 9.73378V9.39093C44.3813 6.79217 43.5213 6.06192 41.237 6.06192H36.1958C33.9115 6.06192 33.0515 6.79217 33.0515 9.39093V14.5336C33.0515 17.1118 33.9353 17.8386 36.1958 17.8386H41.237C43.4975 17.8386 44.3813 17.1118 44.3813 14.5336V14.0228C44.3659 13.8974 44.4084 13.7718 44.4966 13.6822C44.5849 13.5925 44.709 13.5487 44.8334 13.5633H46.1422C46.2626 13.5473 46.3838 13.5872 46.4716 13.6718C46.5595 13.7565 46.6046 13.8767 46.5943 13.9988V14.4547C46.5943 17.9895 45.1258 19.9951 41.237 19.9951H36.1958C32.2934 19.9951 30.8351 17.9895 30.8351 14.4547Z" fill="#3658B8"/>
<path fill-rule="evenodd" clip-rule="evenodd" d="M48.5149 12.1749V14.9348C48.5149 18.3289 49.4191 19.9951 53.1957 19.9986H59.6034C59.7275 20.0144 59.8518 19.9715 59.9403 19.8823C60.0287 19.7931 60.0712 19.6677 60.0555 19.5426V18.4283C60.0699 18.3035 60.0269 18.179 59.9388 18.0901C59.8507 18.0013 59.7272 17.9579 59.6034 17.9724H53.2501C51.146 17.9724 50.6497 17.4718 50.6497 15.1233V14.6879H60.6096C60.7337 14.7037 60.858 14.6608 60.9465 14.5716C61.0349 14.4825 61.0774 14.3571 61.0617 14.2319V12.1749C61.0617 8.86642 60.1575 7.17963 56.3843 7.17963H53.1957C49.4191 7.17963 48.5149 8.86642 48.5149 12.1749ZM58.9372 12V12.744L50.6395 12.7303V12C50.6395 9.69953 51.1358 9.19555 53.2399 9.19555H56.3367C58.4409 9.19555 58.9372 9.69953 58.9372 12Z" fill="#3658B8"/>
<path d="M63.1421 19.5426V3.14433C63.1264 3.01921 63.169 2.8938 63.2574 2.80462C63.3458 2.71544 63.4702 2.67252 63.5942 2.68835H64.8146C64.9383 2.67391 65.0618 2.71728 65.1499 2.80612C65.238 2.89496 65.281 3.01953 65.2667 3.14433V19.5426C65.2824 19.6677 65.2398 19.7931 65.1514 19.8823C65.063 19.9715 64.9386 20.0144 64.8146 19.9985H63.5942C63.4702 20.0144 63.3458 19.9715 63.2574 19.8823C63.169 19.7931 63.1264 19.6677 63.1421 19.5426Z" fill="#3658B8"/>
<path fill-rule="evenodd" clip-rule="evenodd" d="M67.5714 12.1749V14.9348C67.5714 18.3289 68.4756 19.9951 72.2522 19.9986H78.6395C78.7636 20.0144 78.8879 19.9715 78.9764 19.8823C79.0648 19.7931 79.1074 19.6677 79.0917 19.5426V18.4283C79.106 18.3035 79.063 18.179 78.9749 18.0901C78.8868 18.0013 78.7633 17.9579 78.6395 17.9724H72.2862C70.1821 17.9724 69.6858 17.4718 69.6858 15.1233V14.6879H79.6661C79.7902 14.7037 79.9145 14.6608 80.003 14.5716C80.0914 14.4825 80.1339 14.3571 80.1182 14.2319V12.1749C80.1182 8.86642 79.214 7.17963 75.4408 7.17963H72.2522C68.4756 7.17963 67.5714 8.86642 67.5714 12.1749ZM77.9937 12V12.744L69.696 12.7303V12C69.696 9.69953 70.1923 9.19555 72.2964 9.19555H75.3932C77.4974 9.19555 77.9937 9.69953 77.9937 12Z" fill="#3658B8"/>
<path d="M89.9966 7.17962C90.1207 7.16379 90.245 7.20671 90.3335 7.29589C90.4219 7.38507 90.4644 7.51048 90.4487 7.63561V8.75328C90.4644 8.8784 90.4219 9.00381 90.3335 9.09299C90.245 9.18217 90.1207 9.2251 89.9966 9.20926H86.9373C85.1492 9.20926 84.3368 9.62067 84.3368 12.0583V19.5426C84.3525 19.6677 84.3099 19.7931 84.2215 19.8823C84.1331 19.9715 84.0087 20.0144 83.8847 19.9986H82.6643C82.5381 20.0192 82.4097 19.9784 82.3179 19.8886C82.2262 19.7987 82.1819 19.6704 82.1986 19.5426V7.63561C82.1829 7.51048 82.2255 7.38507 82.3139 7.29589C82.4023 7.20671 82.5267 7.16379 82.6507 7.17962H83.8711C83.9948 7.16518 84.1183 7.20856 84.2064 7.2974C84.2945 7.38624 84.3375 7.5108 84.3232 7.63561V8.84585C84.8195 7.72817 85.8597 7.17962 87.9163 7.17962H89.9966Z" fill="#3658B8"/>
<path fill-rule="evenodd" clip-rule="evenodd" d="M92.0974 4.35459V19.5426C92.0782 19.6693 92.1192 19.7978 92.2081 19.8895C92.297 19.9812 92.4234 20.0254 92.5495 20.0088H102.295C106.16 20.0088 107.632 18.2089 107.632 14.0571V9.93951C107.632 5.7671 106.16 3.89517 102.295 3.89517H92.5495C92.4251 3.88052 92.3009 3.92433 92.2127 4.01399C92.1244 4.10365 92.0819 4.22922 92.0974 4.35459ZM105.436 14.0262C105.436 17.105 104.532 17.8558 102.091 17.8558L94.3137 17.8524V6.06538H102.091C104.556 6.06538 105.436 6.85735 105.436 9.94294V14.0262Z" fill="#3658B8"/>
<path fill-rule="evenodd" clip-rule="evenodd" d="M113.414 12.5828C110.341 12.9222 109.369 13.9714 109.369 16.457C109.369 18.9014 111.086 19.9951 114.111 19.9951H115.811C118.299 19.9951 119.159 19.3814 119.747 18.0341V19.5426C119.732 19.6677 119.774 19.7931 119.863 19.8823C119.951 19.9715 120.075 20.0144 120.199 19.9985H121.43C121.554 20.0144 121.678 19.9715 121.767 19.8823C121.855 19.7931 121.898 19.6677 121.882 19.5426V10.9509C121.882 8.34185 120.72 7.17961 117.463 7.17961H110.838C110.714 7.16517 110.591 7.20854 110.502 7.29738C110.414 7.38622 110.371 7.51079 110.386 7.63559V8.74984C110.37 8.87496 110.413 9.00037 110.501 9.08955C110.589 9.17873 110.714 9.22165 110.838 9.20582H117.419C119.316 9.20582 119.747 9.59323 119.747 11.0537C119.747 11.6023 119.564 11.8971 119.023 11.9657L113.414 12.5828ZM119.73 15.0445C119.73 17.1872 119.023 18.0066 116.671 18.0066L114.101 18.0101C112.289 18.0101 111.501 17.3964 111.501 16.2787C111.501 15.0479 111.929 14.6159 113.737 14.4308L119.73 13.7931V15.0445Z" fill="#3658B8"/>
<path d="M124.921 15.161V9.16469H123.521C123.394 9.1853 123.266 9.1445 123.174 9.05468C123.082 8.96485 123.038 8.83656 123.055 8.7087V7.6356C123.039 7.51048 123.082 7.38507 123.17 7.29589C123.259 7.20671 123.383 7.16378 123.507 7.17962C125.36 7.15905 125.519 6.97391 125.547 4.37516C125.547 4.05631 125.703 3.89517 125.995 3.89517H126.583C126.708 3.88052 126.832 3.92433 126.92 4.01399C127.008 4.10365 127.051 4.22922 127.035 4.35459V7.17962H132.233C132.357 7.16378 132.481 7.20671 132.57 7.29589C132.658 7.38507 132.701 7.51048 132.685 7.6356V8.7087C132.701 8.83383 132.658 8.95924 132.57 9.04842C132.481 9.1376 132.357 9.18052 132.233 9.16469H127.032V15.3359C127.032 17.3929 127.668 18.0032 129.928 18.0032H132.233C132.357 17.9886 132.482 18.0324 132.57 18.122C132.658 18.2117 132.701 18.3373 132.685 18.4626V19.5426C132.7 19.6671 132.657 19.7915 132.568 19.8799C132.48 19.9683 132.356 20.0107 132.233 19.9951H129.928C125.849 19.9951 124.921 18.3529 124.921 15.161Z" fill="#3658B8"/>
<path fill-rule="evenodd" clip-rule="evenodd" d="M137.536 12.5828C134.463 12.9223 133.491 13.9714 133.491 16.457C133.491 18.9015 135.207 19.9951 138.233 19.9951H139.932C142.421 19.9951 143.281 19.3814 143.865 18.0341V19.5426C143.851 19.6687 143.895 19.7947 143.984 19.8838C144.074 19.973 144.199 20.0153 144.324 19.9986H145.545C145.669 20.0144 145.793 19.9715 145.882 19.8823C145.97 19.7931 146.013 19.6677 145.997 19.5426V10.9509C145.997 8.34187 144.831 7.17962 141.578 7.17962H134.952C134.828 7.16379 134.704 7.20671 134.616 7.29589C134.527 7.38507 134.485 7.51048 134.5 7.63561V8.74985C134.485 8.87497 134.527 9.00038 134.616 9.08956C134.704 9.17875 134.828 9.22167 134.952 9.20583H141.537C143.437 9.20583 143.865 9.59325 143.865 11.0538C143.865 11.6023 143.685 11.8972 143.145 11.9657L137.536 12.5828ZM143.852 15.0445C143.852 17.1872 143.145 18.0066 140.792 18.0066L138.236 18.0101C136.428 18.0101 135.636 17.3964 135.636 16.2787C135.636 15.0479 136.067 14.6159 137.876 14.4308L143.852 13.7931V15.0445Z" fill="#3658B8"/>
<path d="M2.31153 23.9995H11.9418L11.3877 19.7483H5.17374C4.66685 19.7483 4.25593 19.3338 4.25593 18.8226V5.18426C4.25593 4.67246 4.6663 4.25704 5.17374 4.25515H9.36169L8.8042 0.000459562H2.31153C1.0657 -0.0244859 0.0333817 0.969216 0 2.22552V21.7676C0.0297087 23.0266 1.06311 24.0244 2.31153 23.9995Z" fill="#3658B8"/>
<path d="M20.1715 0.000456126H10.5378L11.0919 4.25515H17.3093C17.8167 4.25704 18.2271 4.67246 18.2271 5.18426V18.8226C18.2271 19.3338 17.8162 19.7483 17.3093 19.7483H13.1213L13.6788 23.9995H20.1715C21.4173 24.0245 22.4496 23.0308 22.483 21.7745V2.23237C22.4533 0.973368 21.4199 -0.0244456 20.1715 0.000456126Z" fill="#60B2E5"/>
</svg>
