<?xml version="1.0" encoding="UTF-8"?><svg id="a" xmlns="http://www.w3.org/2000/svg" viewBox="0 0 285.12 66.24"><polygon points="199.84 23.55 211.07 23.55 211.07 22.25 198.44 22.25 198.44 40.78 199.84 40.78 199.84 32.02 208.74 32.02 208.74 30.7 199.84 30.7 199.84 23.55"/><polygon points="217.49 22.25 210.08 40.78 211.56 40.78 217.63 25.54 218.3 23.63 218.33 23.63 219 25.59 225.06 40.78 226.55 40.78 219.14 22.25 217.49 22.25"/><path d="M238.71,31.41h0c1-.16,1.9-.69,2.53-1.48,.59-.79,.9-1.75,.87-2.73,.08-1.38-.47-2.72-1.49-3.64-1.32-.95-2.93-1.4-4.55-1.27h-6.56v18.49h6.54c1.72,.11,3.43-.35,4.86-1.32,1.12-.87,1.74-2.23,1.68-3.65,.05-1.07-.31-2.11-1-2.93-.75-.83-1.77-1.35-2.88-1.47Zm-7.77-7.86h5.16c3,0,4.52,1.2,4.52,3.62s-1.51,3.62-4.52,3.62h-5.16v-7.24Zm9,15c-1.05,.73-2.31,1.08-3.58,1h-5.41v-7.47h5.41c1.26-.09,2.52,.24,3.58,.94,.82,.68,1.26,1.7,1.19,2.76,.06,1.06-.39,2.08-1.22,2.75l.03,.02Z"/><path d="M257.93,31.31c1.12-.94,1.73-2.35,1.65-3.81,.07-1.46-.53-2.88-1.64-3.84-1.25-.99-2.83-1.49-4.42-1.4h-6.87v18.52h1.4v-8h5.3l.14-.08h.05l5.37,8.11h1.66l-5.43-8.25c1.02-.17,1.98-.6,2.79-1.25Zm-9.88,.12v-7.88h5.44c1.23-.09,2.45,.26,3.44,1,.82,.74,1.26,1.82,1.19,2.93,.08,1.11-.36,2.18-1.19,2.92-.99,.74-2.21,1.09-3.44,1l-5.44,.03Z"/><rect x="263.85" y="22.25" width="1.4" height="18.52"/><path d="M283.71,35.56c-.34,1.27-1.12,2.38-2.19,3.13-1.13,.74-2.46,1.12-3.81,1.08-1.29,.03-2.56-.32-3.65-1-1.08-.69-1.92-1.68-2.44-2.85-.61-1.38-.91-2.89-.87-4.4-.04-1.52,.26-3.03,.88-4.42,.53-1.16,1.39-2.15,2.47-2.84,1.1-.67,2.37-1.02,3.66-1,1.3-.06,2.59,.29,3.68,1,.99,.73,1.71,1.76,2.05,2.94l1.37-.65c-.3-.94-.81-1.79-1.48-2.51-.67-.69-1.49-1.22-2.4-1.55-1.06-.36-2.18-.53-3.3-.51-1.55-.04-3.08,.37-4.41,1.16-1.27,.79-2.29,1.94-2.93,3.3-.72,1.59-1.06,3.33-1,5.08-.05,1.75,.31,3.49,1.05,5.08,.65,1.36,1.67,2.51,2.95,3.3,1.32,.78,2.83,1.19,4.37,1.16,1.13,.01,2.25-.19,3.3-.59,.96-.37,1.82-.96,2.52-1.71,.71-.75,1.25-1.65,1.6-2.62l-1.42-.58Z"/><polygon points="166.75 32.95 174.64 32.95 174.64 29.97 166.75 29.97 166.75 25.37 176.77 25.37 176.77 22.25 162.88 22.25 162.88 40.78 177.17 40.78 177.17 37.66 166.75 37.66 166.75 32.95"/><polygon points="179.04 22.25 179.04 25.37 185.27 25.37 185.27 40.78 189.15 40.78 189.15 25.37 195.35 25.37 195.35 22.25 179.04 22.25"/><path d="M105.71,25.02c-.56-.9-1.38-1.61-2.34-2.05-1.15-.5-2.4-.75-3.65-.71h-7.73v18.52h3.87v-6.57h3.9c1.25,.03,2.5-.21,3.65-.71,.96-.43,1.77-1.12,2.34-2,.57-.97,.86-2.09,.83-3.22,.03-1.15-.27-2.28-.87-3.26Zm-4,5.39c-.75,.55-1.68,.81-2.61,.74h-3.24v-5.83h3.31c.93-.07,1.85,.18,2.61,.72,.61,.56,.93,1.37,.87,2.19,.06,.82-.26,1.62-.87,2.18h-.07Z"/><path d="M112.92,22.26l-6.77,18.52h4l1.52-4.52h7.15l1.52,4.52h4l-6.76-18.52h-4.66Zm-.32,11.14l1.78-5.26,.78-2.75h.06l.84,2.81,1.76,5.22-5.22-.02Z"/><path d="M136.62,37.08c-.76,.55-1.68,.83-2.62,.81-.97,.03-1.93-.22-2.75-.73-.78-.52-1.37-1.28-1.7-2.16-.41-1.11-.61-2.29-.58-3.48-.03-1.2,.18-2.39,.62-3.5,.36-.88,.97-1.62,1.76-2.14,.79-.5,1.71-.75,2.65-.73,.89-.04,1.78,.21,2.52,.71,.74,.61,1.26,1.46,1.46,2.4l3.51-1.49c-.29-1.02-.84-1.94-1.58-2.69-.74-.72-1.64-1.27-2.63-1.59-1.12-.35-2.28-.52-3.45-.51-1.64-.04-3.26,.36-4.7,1.15-1.34,.76-2.41,1.9-3.09,3.28-.76,1.59-1.13,3.35-1.08,5.11-.05,1.76,.32,3.52,1.08,5.11,.68,1.38,1.76,2.52,3.09,3.28,1.46,.8,3.1,1.2,4.76,1.15,1.18,.01,2.34-.19,3.45-.59,1.03-.38,1.96-.99,2.72-1.79,.79-.85,1.37-1.88,1.69-3l-3.57-1.06c-.22,.97-.77,1.84-1.56,2.46Z"/><polygon points="153.65 29.83 160.32 22.25 155.82 22.25 148.22 31.03 148.22 22.25 144.35 22.25 144.35 40.78 148.22 40.78 148.22 35.33 150.87 32.33 156.11 40.78 160.54 40.78 153.65 29.83"/><path d="M62.51,41.93l-4.05-4.01-5.7-5.65-.2-.2c-.06-.06-.11-.11-.16-.15l-4.89,4.93-13.85,13.98-14.04-13.79-1.18,1.19,14.02,13.79-8.88,8.96c-4.87,4.91-12.79,4.94-17.7,.07s-4.94-12.79-.07-17.7l.11-.11,2.21-1.98-1.19-1.18-2.39,2.14c-5.51,5.59-5.45,14.59,.14,20.1s14.59,5.45,20.1-.14l27.64-27.88,8.89,8.82c4.83,4.94,4.74,12.87-.2,17.7-4.84,4.73-12.55,4.76-17.42,.07l-2.12-2.1-1.21,1.19,2.13,2.11c5.57,5.53,14.56,5.5,20.09-.07,5.53-5.57,5.5-14.56-.07-20.09h-.03Z"/><path d="M62.34,4.11c-5.58-5.51-14.57-5.48-20.1,.08l-6.1,6.16-2.63,2.77-5.47-5.33,.02-.02-3.48-3.45C18.9-1.1,9.9-.88,4.49,4.81c-5.26,5.52-5.22,14.21,.08,19.69l3.99,3.92,5.94,5.86,.16,.15L33.42,15.5l14.04,13.74,.36,.35,1.2-1.19-.36-.35-14.02-13.76,8.83-8.9c4.87-4.91,12.79-4.94,17.7-.08s4.94,12.79,.08,17.7l-2.31,2.33,1.19,1.2,2.31-2.33c5.51-5.58,5.48-14.57-.08-20.1ZM14.61,32.06L5.76,23.29C.86,18.42,.82,10.5,5.69,5.59c4.87-4.91,12.79-4.94,17.7-.07l8.85,8.77L14.61,32.06Z"/></svg>